%TF.GenerationSoftware,KiCad,Pcbnew,8.0.9-8.0.9-0~ubuntu24.04.1*%
%TF.CreationDate,2025-05-28T15:36:23+02:00*%
%TF.ProjectId,UniMixHeadFd,556e694d-6978-4486-9561-6446642e6b69,1.0*%
%TF.SameCoordinates,Original*%
%TF.FileFunction,Copper,L1,Top*%
%TF.FilePolarity,Positive*%
%FSLAX46Y46*%
G04 Gerber Fmt 4.6, Leading zero omitted, Abs format (unit mm)*
G04 Created by KiCad (PCBNEW 8.0.9-8.0.9-0~ubuntu24.04.1) date 2025-05-28 15:36:23*
%MOMM*%
%LPD*%
G01*
G04 APERTURE LIST*
G04 Aperture macros list*
%AMRoundRect*
0 Rectangle with rounded corners*
0 $1 Rounding radius*
0 $2 $3 $4 $5 $6 $7 $8 $9 X,Y pos of 4 corners*
0 Add a 4 corners polygon primitive as box body*
4,1,4,$2,$3,$4,$5,$6,$7,$8,$9,$2,$3,0*
0 Add four circle primitives for the rounded corners*
1,1,$1+$1,$2,$3*
1,1,$1+$1,$4,$5*
1,1,$1+$1,$6,$7*
1,1,$1+$1,$8,$9*
0 Add four rect primitives between the rounded corners*
20,1,$1+$1,$2,$3,$4,$5,0*
20,1,$1+$1,$4,$5,$6,$7,0*
20,1,$1+$1,$6,$7,$8,$9,0*
20,1,$1+$1,$8,$9,$2,$3,0*%
%AMFreePoly0*
4,1,19,0.500000,-0.750000,0.000000,-0.750000,0.000000,-0.744911,-0.071157,-0.744911,-0.207708,-0.704816,-0.327430,-0.627875,-0.420627,-0.520320,-0.479746,-0.390866,-0.500000,-0.250000,-0.500000,0.250000,-0.479746,0.390866,-0.420627,0.520320,-0.327430,0.627875,-0.207708,0.704816,-0.071157,0.744911,0.000000,0.744911,0.000000,0.750000,0.500000,0.750000,0.500000,-0.750000,0.500000,-0.750000,
$1*%
%AMFreePoly1*
4,1,19,0.000000,0.744911,0.071157,0.744911,0.207708,0.704816,0.327430,0.627875,0.420627,0.520320,0.479746,0.390866,0.500000,0.250000,0.500000,-0.250000,0.479746,-0.390866,0.420627,-0.520320,0.327430,-0.627875,0.207708,-0.704816,0.071157,-0.744911,0.000000,-0.744911,0.000000,-0.750000,-0.500000,-0.750000,-0.500000,0.750000,0.000000,0.750000,0.000000,0.744911,0.000000,0.744911,
$1*%
%AMFreePoly2*
4,1,19,0.550000,-0.750000,0.000000,-0.750000,0.000000,-0.744911,-0.071157,-0.744911,-0.207708,-0.704816,-0.327430,-0.627875,-0.420627,-0.520320,-0.479746,-0.390866,-0.500000,-0.250000,-0.500000,0.250000,-0.479746,0.390866,-0.420627,0.520320,-0.327430,0.627875,-0.207708,0.704816,-0.071157,0.744911,0.000000,0.744911,0.000000,0.750000,0.550000,0.750000,0.550000,-0.750000,0.550000,-0.750000,
$1*%
%AMFreePoly3*
4,1,19,0.000000,0.744911,0.071157,0.744911,0.207708,0.704816,0.327430,0.627875,0.420627,0.520320,0.479746,0.390866,0.500000,0.250000,0.500000,-0.250000,0.479746,-0.390866,0.420627,-0.520320,0.327430,-0.627875,0.207708,-0.704816,0.071157,-0.744911,0.000000,-0.744911,0.000000,-0.750000,-0.550000,-0.750000,-0.550000,0.750000,0.000000,0.750000,0.000000,0.744911,0.000000,0.744911,
$1*%
G04 Aperture macros list end*
%TA.AperFunction,EtchedComponent*%
%ADD10C,0.000000*%
%TD*%
%TA.AperFunction,SMDPad,CuDef*%
%ADD11RoundRect,0.225000X-0.225000X-0.250000X0.225000X-0.250000X0.225000X0.250000X-0.225000X0.250000X0*%
%TD*%
%TA.AperFunction,SMDPad,CuDef*%
%ADD12RoundRect,0.225000X-0.250000X0.225000X-0.250000X-0.225000X0.250000X-0.225000X0.250000X0.225000X0*%
%TD*%
%TA.AperFunction,ComponentPad*%
%ADD13R,1.600000X1.600000*%
%TD*%
%TA.AperFunction,ComponentPad*%
%ADD14O,1.600000X1.600000*%
%TD*%
%TA.AperFunction,ComponentPad*%
%ADD15RoundRect,0.250000X0.600000X0.750000X-0.600000X0.750000X-0.600000X-0.750000X0.600000X-0.750000X0*%
%TD*%
%TA.AperFunction,ComponentPad*%
%ADD16O,1.700000X2.000000*%
%TD*%
%TA.AperFunction,SMDPad,CuDef*%
%ADD17R,2.750000X0.950000*%
%TD*%
%TA.AperFunction,SMDPad,CuDef*%
%ADD18R,2.750000X3.250000*%
%TD*%
%TA.AperFunction,SMDPad,CuDef*%
%ADD19RoundRect,0.100000X0.100000X-0.225000X0.100000X0.225000X-0.100000X0.225000X-0.100000X-0.225000X0*%
%TD*%
%TA.AperFunction,SMDPad,CuDef*%
%ADD20RoundRect,0.250000X-1.000000X-0.900000X1.000000X-0.900000X1.000000X0.900000X-1.000000X0.900000X0*%
%TD*%
%TA.AperFunction,ComponentPad*%
%ADD21C,1.800000*%
%TD*%
%TA.AperFunction,SMDPad,CuDef*%
%ADD22RoundRect,0.200000X0.275000X-0.200000X0.275000X0.200000X-0.275000X0.200000X-0.275000X-0.200000X0*%
%TD*%
%TA.AperFunction,SMDPad,CuDef*%
%ADD23RoundRect,0.200000X-0.200000X-0.275000X0.200000X-0.275000X0.200000X0.275000X-0.200000X0.275000X0*%
%TD*%
%TA.AperFunction,SMDPad,CuDef*%
%ADD24RoundRect,0.200000X-0.275000X0.200000X-0.275000X-0.200000X0.275000X-0.200000X0.275000X0.200000X0*%
%TD*%
%TA.AperFunction,ComponentPad*%
%ADD25RoundRect,0.250000X-0.725000X0.600000X-0.725000X-0.600000X0.725000X-0.600000X0.725000X0.600000X0*%
%TD*%
%TA.AperFunction,ComponentPad*%
%ADD26O,1.950000X1.700000*%
%TD*%
%TA.AperFunction,ComponentPad*%
%ADD27RoundRect,0.250000X-0.600000X-0.725000X0.600000X-0.725000X0.600000X0.725000X-0.600000X0.725000X0*%
%TD*%
%TA.AperFunction,ComponentPad*%
%ADD28O,1.700000X1.950000*%
%TD*%
%TA.AperFunction,SMDPad,CuDef*%
%ADD29RoundRect,0.200000X0.200000X0.275000X-0.200000X0.275000X-0.200000X-0.275000X0.200000X-0.275000X0*%
%TD*%
%TA.AperFunction,ComponentPad*%
%ADD30C,1.600000*%
%TD*%
%TA.AperFunction,SMDPad,CuDef*%
%ADD31FreePoly0,180.000000*%
%TD*%
%TA.AperFunction,SMDPad,CuDef*%
%ADD32FreePoly1,180.000000*%
%TD*%
%TA.AperFunction,SMDPad,CuDef*%
%ADD33FreePoly2,180.000000*%
%TD*%
%TA.AperFunction,SMDPad,CuDef*%
%ADD34R,1.000000X1.500000*%
%TD*%
%TA.AperFunction,SMDPad,CuDef*%
%ADD35FreePoly3,180.000000*%
%TD*%
%TA.AperFunction,ComponentPad*%
%ADD36RoundRect,0.250000X0.725000X-0.600000X0.725000X0.600000X-0.725000X0.600000X-0.725000X-0.600000X0*%
%TD*%
%TA.AperFunction,ComponentPad*%
%ADD37R,1.508000X1.508000*%
%TD*%
%TA.AperFunction,ComponentPad*%
%ADD38C,1.508000*%
%TD*%
%TA.AperFunction,SMDPad,CuDef*%
%ADD39RoundRect,0.225000X0.250000X-0.225000X0.250000X0.225000X-0.250000X0.225000X-0.250000X-0.225000X0*%
%TD*%
%TA.AperFunction,SMDPad,CuDef*%
%ADD40RoundRect,0.250000X0.312500X0.625000X-0.312500X0.625000X-0.312500X-0.625000X0.312500X-0.625000X0*%
%TD*%
%TA.AperFunction,SMDPad,CuDef*%
%ADD41RoundRect,0.100000X-0.100000X0.225000X-0.100000X-0.225000X0.100000X-0.225000X0.100000X0.225000X0*%
%TD*%
%TA.AperFunction,SMDPad,CuDef*%
%ADD42RoundRect,0.150000X0.150000X-0.512500X0.150000X0.512500X-0.150000X0.512500X-0.150000X-0.512500X0*%
%TD*%
%TA.AperFunction,SMDPad,CuDef*%
%ADD43RoundRect,0.225000X0.225000X0.250000X-0.225000X0.250000X-0.225000X-0.250000X0.225000X-0.250000X0*%
%TD*%
%TA.AperFunction,SMDPad,CuDef*%
%ADD44RoundRect,0.150000X0.150000X-0.825000X0.150000X0.825000X-0.150000X0.825000X-0.150000X-0.825000X0*%
%TD*%
%TA.AperFunction,ViaPad*%
%ADD45C,0.800000*%
%TD*%
%TA.AperFunction,Conductor*%
%ADD46C,0.300000*%
%TD*%
%TA.AperFunction,Conductor*%
%ADD47C,2.000000*%
%TD*%
%TA.AperFunction,Conductor*%
%ADD48C,1.000000*%
%TD*%
%TA.AperFunction,Conductor*%
%ADD49C,0.500000*%
%TD*%
G04 APERTURE END LIST*
D10*
%TA.AperFunction,EtchedComponent*%
G36*
X38900000Y-63800000D02*
G01*
X38400000Y-63800000D01*
X38400000Y-63200000D01*
X38900000Y-63200000D01*
X38900000Y-63800000D01*
G37*
%TD.AperFunction*%
%TA.AperFunction,EtchedComponent*%
G36*
X38200000Y-80800000D02*
G01*
X37700000Y-80800000D01*
X37700000Y-80200000D01*
X38200000Y-80200000D01*
X38200000Y-80800000D01*
G37*
%TD.AperFunction*%
%TA.AperFunction,EtchedComponent*%
G36*
X39150000Y-47050000D02*
G01*
X38650000Y-47050000D01*
X38650000Y-46450000D01*
X39150000Y-46450000D01*
X39150000Y-47050000D01*
G37*
%TD.AperFunction*%
D11*
X97625000Y-82600000D03*
X99175000Y-82600000D03*
D12*
X92200000Y-83850000D03*
X92200000Y-85400000D03*
D13*
X88865000Y-60475000D03*
D14*
X88865000Y-63015000D03*
X88865000Y-65555000D03*
X99025000Y-65555000D03*
X99025000Y-63015000D03*
X99025000Y-60475000D03*
D15*
X43000000Y-22000000D03*
D16*
X40500000Y-22000000D03*
D11*
X31400000Y-86600000D03*
X32950000Y-86600000D03*
D17*
X29750000Y-31400000D03*
X29750000Y-33700000D03*
X29750000Y-36000000D03*
D18*
X34950000Y-33700000D03*
D19*
X96400000Y-45000000D03*
X97050000Y-45000000D03*
X97700000Y-45000000D03*
X97700000Y-43100000D03*
X97050000Y-43100000D03*
X96400000Y-43100000D03*
D20*
X48600000Y-27500000D03*
X52900000Y-27500000D03*
D21*
X68300000Y-87880000D03*
X65760000Y-90420000D03*
X65760000Y-87880000D03*
X65760000Y-85340000D03*
X65760000Y-82800000D03*
X65760000Y-80260000D03*
X65760000Y-77720000D03*
X65760000Y-75180000D03*
X65760000Y-72640000D03*
X65760000Y-70100000D03*
X65760000Y-67560000D03*
X65760000Y-65020000D03*
X65760000Y-62480000D03*
X65760000Y-59940000D03*
X65760000Y-57400000D03*
X65760000Y-54860000D03*
X65760000Y-52320000D03*
X65760000Y-49780000D03*
X65760000Y-47240000D03*
X81000000Y-82800000D03*
X81000000Y-80260000D03*
X81000000Y-77720000D03*
X81000000Y-75180000D03*
X81000000Y-72640000D03*
X81000000Y-70100000D03*
X81000000Y-67560000D03*
X81000000Y-65020000D03*
X81000000Y-62480000D03*
X81000000Y-59940000D03*
X81000000Y-57400000D03*
X81000000Y-54860000D03*
X81000000Y-52320000D03*
X81000000Y-49780000D03*
X81000000Y-47240000D03*
D22*
X94600000Y-44025000D03*
X94600000Y-42375000D03*
D23*
X94375000Y-57200000D03*
X96025000Y-57200000D03*
D24*
X87600000Y-45575000D03*
X87600000Y-47225000D03*
D23*
X95925000Y-52200000D03*
X97575000Y-52200000D03*
D22*
X87600000Y-44050000D03*
X87600000Y-42400000D03*
D11*
X31400000Y-88200000D03*
X32950000Y-88200000D03*
D25*
X91400000Y-21400000D03*
D26*
X91400000Y-23900000D03*
X91400000Y-26400000D03*
D27*
X69000000Y-21200000D03*
D28*
X71500000Y-21200000D03*
X74000000Y-21200000D03*
X76500000Y-21200000D03*
D29*
X95425000Y-82200000D03*
X93775000Y-82200000D03*
D13*
X53525000Y-88000000D03*
D30*
X57025000Y-88000000D03*
D24*
X98400000Y-26375000D03*
X98400000Y-28025000D03*
D22*
X99400000Y-43825000D03*
X99400000Y-42175000D03*
D20*
X30850000Y-27500000D03*
X35150000Y-27500000D03*
X39950000Y-27500000D03*
X44250000Y-27500000D03*
D24*
X99400000Y-45400000D03*
X99400000Y-47050000D03*
D29*
X96600000Y-28200000D03*
X94950000Y-28200000D03*
D13*
X88865000Y-74475000D03*
D14*
X88865000Y-77015000D03*
X88865000Y-79555000D03*
X99025000Y-79555000D03*
X99025000Y-77015000D03*
X99025000Y-74475000D03*
D24*
X68600000Y-78200000D03*
X68600000Y-79850000D03*
D17*
X39400000Y-31400000D03*
X39400000Y-33700000D03*
X39400000Y-36000000D03*
D18*
X44600000Y-33700000D03*
D31*
X77800000Y-27200000D03*
D32*
X76500000Y-27200000D03*
D15*
X34000000Y-22000000D03*
D16*
X31500000Y-22000000D03*
D24*
X94600000Y-45550000D03*
X94600000Y-47200000D03*
D33*
X39300000Y-63500000D03*
D34*
X38000000Y-63500000D03*
D35*
X36700000Y-63500000D03*
D36*
X22500000Y-68000000D03*
D26*
X22500000Y-65500000D03*
X22500000Y-63000000D03*
X22500000Y-60500000D03*
D24*
X100200000Y-26375000D03*
X100200000Y-28025000D03*
D29*
X95425000Y-83800000D03*
X93775000Y-83800000D03*
D11*
X32225000Y-54200000D03*
X33775000Y-54200000D03*
D15*
X52000000Y-22000000D03*
D16*
X49500000Y-22000000D03*
D25*
X98400000Y-32400000D03*
D26*
X98400000Y-34900000D03*
X98400000Y-37400000D03*
D36*
X22500000Y-53900000D03*
D26*
X22500000Y-51400000D03*
X22500000Y-48900000D03*
X22500000Y-46400000D03*
D29*
X96025000Y-68800000D03*
X94375000Y-68800000D03*
D17*
X48800000Y-31400000D03*
X48800000Y-33700000D03*
X48800000Y-36000000D03*
D18*
X54000000Y-33700000D03*
D37*
X31135000Y-90350000D03*
D38*
X33675000Y-90350000D03*
X36215000Y-90350000D03*
X38755000Y-90350000D03*
X41295000Y-90350000D03*
X43835000Y-90350000D03*
X46375000Y-90350000D03*
X48915000Y-90350000D03*
X31135000Y-77650000D03*
X33675000Y-77650000D03*
X36215000Y-77650000D03*
X38755000Y-77650000D03*
X41295000Y-77650000D03*
X43835000Y-77650000D03*
X46375000Y-77650000D03*
X48915000Y-77650000D03*
X48915000Y-82730000D03*
X48915000Y-80190000D03*
D23*
X94375000Y-55600000D03*
X96025000Y-55600000D03*
D39*
X92800000Y-53975000D03*
X92800000Y-52425000D03*
D11*
X76800000Y-30000000D03*
X78350000Y-30000000D03*
D29*
X96025000Y-70600000D03*
X94375000Y-70600000D03*
D17*
X58150000Y-31450000D03*
X58150000Y-33750000D03*
X58150000Y-36050000D03*
D18*
X63350000Y-33750000D03*
D11*
X99150000Y-52200000D03*
X100700000Y-52200000D03*
D33*
X38600000Y-80500000D03*
D34*
X37300000Y-80500000D03*
D35*
X36000000Y-80500000D03*
D13*
X54025000Y-54000000D03*
D30*
X57525000Y-54000000D03*
D40*
X74400000Y-27200000D03*
X71475000Y-27200000D03*
D11*
X32025000Y-69200000D03*
X33575000Y-69200000D03*
D33*
X39550000Y-46750000D03*
D34*
X38250000Y-46750000D03*
D35*
X36950000Y-46750000D03*
D41*
X90800000Y-43800000D03*
X90150000Y-43800000D03*
X89500000Y-43800000D03*
X89500000Y-45700000D03*
X90150000Y-45700000D03*
X90800000Y-45700000D03*
D23*
X94550000Y-53800000D03*
X96200000Y-53800000D03*
D22*
X92600000Y-44025000D03*
X92600000Y-42375000D03*
D36*
X22500000Y-82500000D03*
D26*
X22500000Y-80000000D03*
X22500000Y-77500000D03*
X22500000Y-75000000D03*
D42*
X97850000Y-56600000D03*
X98800000Y-56600000D03*
X99750000Y-56600000D03*
X99750000Y-54325000D03*
X98800000Y-54325000D03*
X97850000Y-54325000D03*
D23*
X89375000Y-57400000D03*
X91025000Y-57400000D03*
D11*
X73825000Y-37600000D03*
X75375000Y-37600000D03*
D24*
X87000000Y-52375000D03*
X87000000Y-54025000D03*
D29*
X96650000Y-26400000D03*
X95000000Y-26400000D03*
D24*
X92600000Y-45575000D03*
X92600000Y-47225000D03*
D13*
X53872349Y-70500000D03*
D30*
X57372349Y-70500000D03*
D43*
X99375000Y-68200000D03*
X97825000Y-68200000D03*
D25*
X84400000Y-21200000D03*
D26*
X84400000Y-23700000D03*
X84400000Y-26200000D03*
D24*
X87000000Y-55550000D03*
X87000000Y-57200000D03*
D37*
X31635000Y-73350000D03*
D38*
X34175000Y-73350000D03*
X36715000Y-73350000D03*
X39255000Y-73350000D03*
X41795000Y-73350000D03*
X44335000Y-73350000D03*
X46875000Y-73350000D03*
X49415000Y-73350000D03*
X31635000Y-60650000D03*
X34175000Y-60650000D03*
X36715000Y-60650000D03*
X39255000Y-60650000D03*
X41795000Y-60650000D03*
X44335000Y-60650000D03*
X46875000Y-60650000D03*
X49415000Y-60650000D03*
X49415000Y-65730000D03*
X49415000Y-63190000D03*
D20*
X57350000Y-27500000D03*
X61650000Y-27500000D03*
D42*
X89250000Y-55537500D03*
X90200000Y-55537500D03*
X91150000Y-55537500D03*
X91150000Y-53262500D03*
X90200000Y-53262500D03*
X89250000Y-53262500D03*
D44*
X71390000Y-35350000D03*
X72660000Y-35350000D03*
X73930000Y-35350000D03*
X75200000Y-35350000D03*
X75200000Y-30400000D03*
X73930000Y-30400000D03*
X72660000Y-30400000D03*
X71390000Y-30400000D03*
D11*
X32000000Y-70800000D03*
X33550000Y-70800000D03*
D25*
X91400000Y-32400000D03*
D26*
X91400000Y-34900000D03*
X91400000Y-37400000D03*
D12*
X92600000Y-68825000D03*
X92600000Y-70375000D03*
D24*
X90400000Y-68800000D03*
X90400000Y-70450000D03*
D11*
X32225000Y-52600000D03*
X33775000Y-52600000D03*
D37*
X31985000Y-56850000D03*
D38*
X34525000Y-56850000D03*
X37065000Y-56850000D03*
X39605000Y-56850000D03*
X42145000Y-56850000D03*
X44685000Y-56850000D03*
X47225000Y-56850000D03*
X49765000Y-56850000D03*
X31985000Y-44150000D03*
X34525000Y-44150000D03*
X37065000Y-44150000D03*
X39605000Y-44150000D03*
X42145000Y-44150000D03*
X44685000Y-44150000D03*
X47225000Y-44150000D03*
X49765000Y-44150000D03*
X49765000Y-49230000D03*
X49765000Y-46690000D03*
D25*
X23500000Y-28750000D03*
D26*
X23500000Y-31250000D03*
X23500000Y-33750000D03*
X23500000Y-36250000D03*
D15*
X61000000Y-22000000D03*
D16*
X58500000Y-22000000D03*
D45*
X94400000Y-41200000D03*
X93400000Y-55600000D03*
X97400000Y-46000000D03*
X90200000Y-43000000D03*
X90797131Y-46625000D03*
X88600000Y-57400000D03*
X76800000Y-31000000D03*
X94054497Y-58134783D03*
X97000000Y-42000000D03*
X75200000Y-31800000D03*
X90400000Y-68000000D03*
X88800000Y-47200000D03*
X60750000Y-36000000D03*
X71400000Y-31800000D03*
X92400000Y-41400000D03*
X76400000Y-37600000D03*
X97800000Y-69200000D03*
X95400000Y-85000000D03*
X100600000Y-51200000D03*
X51250000Y-36000000D03*
X95800000Y-47200000D03*
X92000000Y-51800000D03*
X91200000Y-43000000D03*
X92200000Y-86400000D03*
X98000000Y-42000000D03*
X99400000Y-41200000D03*
X42000000Y-36000000D03*
X98800000Y-57800000D03*
X78400000Y-31000000D03*
X92600000Y-71600000D03*
X72600000Y-33800000D03*
X97600000Y-83800000D03*
X90200001Y-56621888D03*
X96000000Y-72000000D03*
X96400000Y-46000000D03*
X89400000Y-46800000D03*
X32000000Y-36000000D03*
X62800000Y-61754000D03*
X62000000Y-79000000D03*
X38200000Y-45200000D03*
X37400000Y-79000000D03*
X38000000Y-61600000D03*
X62800000Y-45254000D03*
X67400000Y-79000000D03*
X69200000Y-47000000D03*
X68400000Y-61200000D03*
X65800000Y-44000000D03*
X63200000Y-76502908D03*
X76400000Y-42600000D03*
X77600000Y-80260000D03*
X78843761Y-43200000D03*
X84400000Y-65020000D03*
X93800000Y-51000000D03*
X79800000Y-63730000D03*
X79200000Y-68850000D03*
X84400000Y-62480000D03*
X75400000Y-53610000D03*
X69415240Y-70958414D03*
X87595000Y-64405000D03*
X70200000Y-58650000D03*
X70330000Y-66270000D03*
X77400000Y-52200000D03*
X84200000Y-67560000D03*
X90400000Y-52200000D03*
X100200000Y-81600000D03*
X100200000Y-67400000D03*
X99916246Y-53062501D03*
X98410848Y-53185002D03*
X92000000Y-54400000D03*
X87043805Y-51000000D03*
X32800000Y-31400000D03*
X51200000Y-31400000D03*
X88600000Y-50400000D03*
X95800000Y-49200000D03*
X42000000Y-31200000D03*
X60000000Y-31400000D03*
X94600000Y-49000000D03*
D46*
X94600000Y-41400000D02*
X94400000Y-41200000D01*
X94600000Y-42375000D02*
X94600000Y-41400000D01*
X92500000Y-23900000D02*
X95000000Y-26400000D01*
X91400000Y-23900000D02*
X92500000Y-23900000D01*
X91400000Y-34900000D02*
X94700000Y-34900000D01*
X98400000Y-29200000D02*
X98400000Y-28025000D01*
X98200000Y-29400000D02*
X98400000Y-29200000D01*
X96600000Y-33000000D02*
X96600000Y-31400000D01*
X96600000Y-31400000D02*
X98200000Y-29800000D01*
X94700000Y-34900000D02*
X96600000Y-33000000D01*
X98200000Y-29800000D02*
X98200000Y-29400000D01*
D47*
X30250000Y-33700000D02*
X35450000Y-33700000D01*
X34000000Y-23750000D02*
X35450000Y-25200000D01*
X34000000Y-22000000D02*
X34000000Y-23750000D01*
X35450000Y-25200000D02*
X35450000Y-33700000D01*
D46*
X91400000Y-37400000D02*
X93425000Y-39425000D01*
X93425000Y-39425000D02*
X93425000Y-46400000D01*
X93425000Y-46400000D02*
X92600000Y-47225000D01*
X100225000Y-39225000D02*
X100225000Y-46225000D01*
X98400000Y-37400000D02*
X100225000Y-39225000D01*
X100225000Y-46225000D02*
X99400000Y-47050000D01*
X100200000Y-33100000D02*
X100200000Y-28025000D01*
X98400000Y-34900000D02*
X100200000Y-33100000D01*
X84400000Y-26200000D02*
X87600000Y-29400000D01*
X87600000Y-29400000D02*
X87600000Y-42400000D01*
X84400000Y-23700000D02*
X85900000Y-25200000D01*
X85900000Y-25200000D02*
X92200000Y-25200000D01*
X94950000Y-27950000D02*
X94950000Y-28200000D01*
X92200000Y-25200000D02*
X94950000Y-27950000D01*
D48*
X93400000Y-20724570D02*
X91875430Y-19200000D01*
X91875430Y-19200000D02*
X71000000Y-19200000D01*
X93400000Y-22675000D02*
X93400000Y-20724570D01*
X96600000Y-28200000D02*
X96600000Y-26450000D01*
X96650000Y-26400000D02*
X96650000Y-25925000D01*
D47*
X66000000Y-29600000D02*
X66000000Y-38200000D01*
D48*
X96650000Y-25925000D02*
X93400000Y-22675000D01*
D47*
X69250000Y-26350000D02*
X66000000Y-29600000D01*
X59525000Y-45125000D02*
X59525000Y-79725000D01*
X59400000Y-45000000D02*
X59525000Y-45125000D01*
X59525000Y-79725000D02*
X62600000Y-82800000D01*
X66000000Y-38200000D02*
X59400000Y-44800000D01*
D48*
X100200000Y-26375000D02*
X96675000Y-26375000D01*
D47*
X69250000Y-21450000D02*
X69250000Y-26350000D01*
X69000000Y-21200000D02*
X69250000Y-21450000D01*
D48*
X96675000Y-26375000D02*
X96650000Y-26400000D01*
D47*
X59400000Y-44800000D02*
X59400000Y-45000000D01*
D48*
X71000000Y-19200000D02*
X69000000Y-21200000D01*
D47*
X62600000Y-82800000D02*
X65760000Y-82800000D01*
D48*
X96600000Y-26450000D02*
X96650000Y-26400000D01*
D49*
X76500000Y-27200000D02*
X74400000Y-27200000D01*
D47*
X52000000Y-23000000D02*
X53950000Y-24950000D01*
X48750000Y-33700000D02*
X53950000Y-33700000D01*
X53950000Y-24950000D02*
X53950000Y-33700000D01*
X52000000Y-22000000D02*
X52000000Y-23000000D01*
X43000000Y-23250000D02*
X44450000Y-24700000D01*
X43000000Y-22000000D02*
X43000000Y-23250000D01*
X39250000Y-33700000D02*
X44450000Y-33700000D01*
X44450000Y-24700000D02*
X44450000Y-33700000D01*
X57800000Y-33750000D02*
X63000000Y-33750000D01*
X63000000Y-25500000D02*
X63000000Y-33750000D01*
X61000000Y-23500000D02*
X63000000Y-25500000D01*
X61000000Y-22000000D02*
X61000000Y-23500000D01*
D46*
X94375000Y-57814280D02*
X94054497Y-58134783D01*
X97400000Y-45868629D02*
X97400000Y-46000000D01*
D48*
X33575000Y-72750000D02*
X34175000Y-73350000D01*
D46*
X90150000Y-45700000D02*
X90150000Y-46024999D01*
X90150000Y-43800000D02*
X90150000Y-43050000D01*
X90150000Y-43050000D02*
X90200000Y-43000000D01*
X97050000Y-45518629D02*
X97400000Y-45868629D01*
X90750001Y-46625000D02*
X90797131Y-46625000D01*
D48*
X32950000Y-89625000D02*
X33675000Y-90350000D01*
X32950000Y-86600000D02*
X32950000Y-89625000D01*
X33775000Y-52600000D02*
X33775000Y-56100000D01*
D49*
X76800000Y-30000000D02*
X76800000Y-31000000D01*
D46*
X90150000Y-46024999D02*
X90750001Y-46625000D01*
X90400000Y-68800000D02*
X90400000Y-68000000D01*
D49*
X75200000Y-30400000D02*
X75200000Y-31800000D01*
D46*
X94375000Y-57200000D02*
X94375000Y-57814280D01*
X94375000Y-55600000D02*
X93400000Y-55600000D01*
D48*
X33575000Y-69200000D02*
X33575000Y-72750000D01*
D46*
X97050000Y-42050000D02*
X97000000Y-42000000D01*
D48*
X33775000Y-56100000D02*
X34525000Y-56850000D01*
D46*
X97050000Y-43100000D02*
X97050000Y-42050000D01*
X97050000Y-45000000D02*
X97050000Y-45518629D01*
X89375000Y-57400000D02*
X88600000Y-57400000D01*
D48*
X32025000Y-69200000D02*
X32025000Y-72960000D01*
D47*
X60700000Y-36050000D02*
X60750000Y-36000000D01*
D46*
X95425000Y-84975000D02*
X95400000Y-85000000D01*
X87600000Y-47225000D02*
X88775000Y-47225000D01*
X92600000Y-70375000D02*
X92600000Y-71600000D01*
X98800000Y-56600000D02*
X98800000Y-57800000D01*
X96400000Y-45000000D02*
X96400000Y-46000000D01*
X97825000Y-68200000D02*
X97825000Y-69175000D01*
D49*
X78350000Y-30950000D02*
X78400000Y-31000000D01*
D46*
X92200000Y-85400000D02*
X92200000Y-86400000D01*
X90200000Y-56621887D02*
X90200001Y-56621888D01*
X94600000Y-47200000D02*
X95800000Y-47200000D01*
X90800000Y-43800000D02*
X91200000Y-43400000D01*
X99400000Y-42175000D02*
X99400000Y-41200000D01*
X97625000Y-82600000D02*
X97625000Y-83775000D01*
X100700000Y-52200000D02*
X100700000Y-51300000D01*
X96025000Y-70600000D02*
X96025000Y-71975000D01*
X88775000Y-47225000D02*
X88800000Y-47200000D01*
X96025000Y-71975000D02*
X96000000Y-72000000D01*
X89500000Y-46700000D02*
X89400000Y-46800000D01*
D49*
X72660000Y-33860000D02*
X72600000Y-33800000D01*
D46*
X90200000Y-55537500D02*
X90200000Y-56621887D01*
D49*
X71390000Y-30400000D02*
X71390000Y-31790000D01*
D46*
X100700000Y-51300000D02*
X100600000Y-51200000D01*
D48*
X32225000Y-52600000D02*
X32225000Y-56610000D01*
D46*
X89500000Y-45700000D02*
X89500000Y-46700000D01*
X92625000Y-52425000D02*
X92000000Y-51800000D01*
X92600000Y-41600000D02*
X92400000Y-41400000D01*
D47*
X39400000Y-36000000D02*
X42000000Y-36000000D01*
D46*
X97625000Y-83775000D02*
X97600000Y-83800000D01*
D49*
X78350000Y-30000000D02*
X78350000Y-30950000D01*
D46*
X97700000Y-42300000D02*
X98000000Y-42000000D01*
D49*
X75375000Y-37600000D02*
X76400000Y-37600000D01*
X72660000Y-35350000D02*
X72660000Y-33860000D01*
D48*
X31400000Y-86600000D02*
X31400000Y-90085000D01*
D47*
X29750000Y-36000000D02*
X32000000Y-36000000D01*
D49*
X71390000Y-31790000D02*
X71400000Y-31800000D01*
D46*
X97825000Y-69175000D02*
X97800000Y-69200000D01*
X97700000Y-43100000D02*
X97700000Y-42300000D01*
X92800000Y-52425000D02*
X92625000Y-52425000D01*
X95425000Y-83800000D02*
X95425000Y-84975000D01*
D48*
X32025000Y-72960000D02*
X31635000Y-73350000D01*
D46*
X92600000Y-42375000D02*
X92600000Y-41600000D01*
X91200000Y-43400000D02*
X91200000Y-43000000D01*
D48*
X32225000Y-56610000D02*
X31985000Y-56850000D01*
D47*
X58150000Y-36050000D02*
X60700000Y-36050000D01*
D48*
X31400000Y-90085000D02*
X31135000Y-90350000D01*
D47*
X48800000Y-36000000D02*
X51250000Y-36000000D01*
X35100000Y-48900000D02*
X37000000Y-50800000D01*
X37000000Y-52200000D02*
X37065000Y-52265000D01*
X37000000Y-50800000D02*
X37000000Y-52200000D01*
X37065000Y-52265000D02*
X37065000Y-56850000D01*
X22500000Y-48900000D02*
X35100000Y-48900000D01*
X36715000Y-67715000D02*
X36715000Y-73350000D01*
X32000000Y-63000000D02*
X36715000Y-67715000D01*
X22500000Y-63000000D02*
X32000000Y-63000000D01*
X25475000Y-77500000D02*
X31175000Y-83200000D01*
X22500000Y-77500000D02*
X25475000Y-77500000D01*
X31175000Y-83200000D02*
X34200000Y-83200000D01*
X34200000Y-83200000D02*
X36215000Y-85215000D01*
X36215000Y-85215000D02*
X36215000Y-90350000D01*
D46*
X37065000Y-44150000D02*
X37065000Y-46635000D01*
X37065000Y-46635000D02*
X36950000Y-46750000D01*
X38000000Y-63500000D02*
X38000000Y-61600000D01*
X65760000Y-59940000D02*
X63060000Y-59940000D01*
X63060000Y-59940000D02*
X62800000Y-60200000D01*
X62800000Y-72800000D02*
X62400000Y-73200000D01*
X62800000Y-61754000D02*
X62800000Y-60600000D01*
X67400000Y-79000000D02*
X67750000Y-79000000D01*
X62800000Y-56600000D02*
X62800000Y-45254000D01*
X62400000Y-78600000D02*
X62000000Y-79000000D01*
X38250000Y-45250000D02*
X38200000Y-45200000D01*
X38250000Y-46750000D02*
X38250000Y-45250000D01*
X62400000Y-73200000D02*
X62400000Y-78600000D01*
X62800000Y-60600000D02*
X62800000Y-72800000D01*
X62800000Y-60200000D02*
X62800000Y-56600000D01*
X62800000Y-60600000D02*
X62800000Y-60200000D01*
X67750000Y-79000000D02*
X68600000Y-79850000D01*
X37300000Y-80500000D02*
X37300000Y-79100000D01*
X37300000Y-79100000D02*
X37400000Y-79000000D01*
X39605000Y-46695000D02*
X39550000Y-46750000D01*
X39605000Y-44150000D02*
X39605000Y-46695000D01*
X39255000Y-60650000D02*
X39255000Y-63455000D01*
X39255000Y-63455000D02*
X39300000Y-63500000D01*
X36715000Y-63485000D02*
X36700000Y-63500000D01*
X36715000Y-60650000D02*
X36715000Y-63485000D01*
X36215000Y-77650000D02*
X36215000Y-80285000D01*
X36215000Y-80285000D02*
X36000000Y-80500000D01*
X38755000Y-80345000D02*
X38600000Y-80500000D01*
X38755000Y-77650000D02*
X38755000Y-80345000D01*
X65760000Y-72640000D02*
X64510000Y-73890000D01*
X66870000Y-76470000D02*
X68600000Y-78200000D01*
X64510000Y-75737767D02*
X65242233Y-76470000D01*
X65242233Y-76470000D02*
X66870000Y-76470000D01*
X64510000Y-73890000D02*
X64510000Y-75737767D01*
X65800000Y-44600000D02*
X65760000Y-44640000D01*
X68400000Y-61200000D02*
X69200000Y-60400000D01*
X63200000Y-73400000D02*
X63200000Y-76502908D01*
X68400000Y-70000000D02*
X67010000Y-71390000D01*
X67010000Y-71390000D02*
X65210000Y-71390000D01*
X69200000Y-60400000D02*
X69200000Y-47000000D01*
X65800000Y-44000000D02*
X65800000Y-44600000D01*
X65210000Y-71390000D02*
X63200000Y-73400000D01*
X65760000Y-44640000D02*
X65760000Y-47240000D01*
X68400000Y-61200000D02*
X68400000Y-70000000D01*
X77400000Y-54200000D02*
X76400000Y-53200000D01*
X76400000Y-53200000D02*
X76400000Y-42600000D01*
X77400000Y-80060000D02*
X77400000Y-54200000D01*
X77600000Y-80260000D02*
X77400000Y-80060000D01*
X78400000Y-43643761D02*
X78843761Y-43200000D01*
X78400000Y-80200000D02*
X78400000Y-43643761D01*
X81000000Y-82800000D02*
X78400000Y-80200000D01*
D49*
X71500000Y-21200000D02*
X71500000Y-27700000D01*
X71500000Y-27700000D02*
X72660000Y-28860000D01*
X72660000Y-28860000D02*
X72660000Y-30400000D01*
X77800000Y-26445000D02*
X76355000Y-25000000D01*
X77000000Y-28600000D02*
X77800000Y-27800000D01*
X77800000Y-27800000D02*
X77800000Y-27200000D01*
X76355000Y-25000000D02*
X74800000Y-25000000D01*
X77800000Y-27200000D02*
X77800000Y-26445000D01*
X73930000Y-29425001D02*
X74755001Y-28600000D01*
X73930000Y-30400000D02*
X73930000Y-29425001D01*
X74755001Y-28600000D02*
X77000000Y-28600000D01*
X74000000Y-24200000D02*
X74000000Y-21200000D01*
X74800000Y-25000000D02*
X74000000Y-24200000D01*
D46*
X87762500Y-53262500D02*
X87000000Y-54025000D01*
X89250000Y-53262500D02*
X87762500Y-53262500D01*
X87000000Y-57080394D02*
X88600000Y-55480394D01*
X88600000Y-55480394D02*
X88600000Y-54813738D01*
X91150000Y-53924999D02*
X91150000Y-53262500D01*
X88600000Y-54813738D02*
X89013738Y-54400000D01*
X87000000Y-57200000D02*
X87000000Y-57080394D01*
X89013738Y-54400000D02*
X90674999Y-54400000D01*
X90674999Y-54400000D02*
X91150000Y-53924999D01*
X97575000Y-54050000D02*
X97850000Y-54325000D01*
X97575000Y-52200000D02*
X97575000Y-54050000D01*
X99399999Y-55337500D02*
X97337500Y-55337500D01*
X99750000Y-54987499D02*
X99399999Y-55337500D01*
X96200000Y-54200000D02*
X96200000Y-53800000D01*
X97337500Y-55337500D02*
X96200000Y-54200000D01*
X99750000Y-54325000D02*
X99750000Y-54987499D01*
X99800000Y-57629289D02*
X99800000Y-58400000D01*
X96000000Y-59000000D02*
X99200000Y-59000000D01*
X96000000Y-59000000D02*
X88200000Y-59000000D01*
X85200000Y-64220000D02*
X84400000Y-65020000D01*
X96025000Y-58975000D02*
X96000000Y-59000000D01*
X99750000Y-57579289D02*
X99800000Y-57629289D01*
X99750000Y-56600000D02*
X99750000Y-57579289D01*
X96025000Y-57200000D02*
X96025000Y-58975000D01*
X85200000Y-62000000D02*
X85200000Y-64220000D01*
X99200000Y-59000000D02*
X99800000Y-58400000D01*
X88200000Y-59000000D02*
X85200000Y-62000000D01*
X99025000Y-63015000D02*
X96025000Y-66015000D01*
X96025000Y-66015000D02*
X96025000Y-68800000D01*
X95425000Y-80615000D02*
X95425000Y-82200000D01*
X99025000Y-77015000D02*
X95425000Y-80615000D01*
X97850000Y-56600000D02*
X97025000Y-56600000D01*
X95050000Y-54625000D02*
X94116642Y-54625000D01*
X96025000Y-55600000D02*
X95050000Y-54625000D01*
X97025000Y-56600000D02*
X96025000Y-55600000D01*
X94116642Y-54625000D02*
X93800000Y-54308358D01*
X93800000Y-54308358D02*
X93800000Y-51000000D01*
X91775000Y-46400000D02*
X91775000Y-46825000D01*
X92600000Y-44025000D02*
X92600000Y-45575000D01*
X90000000Y-48600000D02*
X85600000Y-48600000D01*
X92600000Y-45575000D02*
X91775000Y-46400000D01*
X85600000Y-48600000D02*
X83600000Y-50600000D01*
X79750000Y-63680000D02*
X79800000Y-63730000D01*
X91775000Y-46825000D02*
X90000000Y-48600000D01*
X79750000Y-59422233D02*
X79750000Y-63680000D01*
X83600000Y-57200000D02*
X82110000Y-58690000D01*
X92475000Y-45700000D02*
X92600000Y-45575000D01*
X90800000Y-45700000D02*
X92475000Y-45700000D01*
X80482233Y-58690000D02*
X79750000Y-59422233D01*
X83600000Y-50600000D02*
X83600000Y-57200000D01*
X82110000Y-58690000D02*
X80482233Y-58690000D01*
X89500000Y-43800000D02*
X87850000Y-43800000D01*
X87600000Y-44050000D02*
X87600000Y-45575000D01*
X79000000Y-57600000D02*
X80490000Y-56110000D01*
X79200000Y-68850000D02*
X79000000Y-68650000D01*
X80490000Y-56110000D02*
X81790000Y-56110000D01*
X83100000Y-47100000D02*
X84625000Y-45575000D01*
X84625000Y-45575000D02*
X87600000Y-45575000D01*
X79000000Y-68650000D02*
X79000000Y-57600000D01*
X81790000Y-56110000D02*
X83100000Y-54800000D01*
X87850000Y-43800000D02*
X87600000Y-44050000D01*
X83100000Y-54800000D02*
X83100000Y-47100000D01*
X99400000Y-45400000D02*
X96600000Y-48200000D01*
X93800000Y-48200000D02*
X92400000Y-49600000D01*
X99400000Y-45400000D02*
X99400000Y-43825000D01*
X84800000Y-58400000D02*
X83000000Y-60200000D01*
X83000000Y-60200000D02*
X83000000Y-68100000D01*
X83000000Y-68100000D02*
X81000000Y-70100000D01*
X84800000Y-50814212D02*
X84800000Y-58400000D01*
X97700000Y-45000000D02*
X99000000Y-45000000D01*
X96600000Y-48200000D02*
X93800000Y-48200000D01*
X86014212Y-49600000D02*
X84800000Y-50814212D01*
X92400000Y-49600000D02*
X86014212Y-49600000D01*
X99000000Y-45000000D02*
X99400000Y-45400000D01*
X91025000Y-57400000D02*
X90200000Y-58225000D01*
X87200000Y-59000000D02*
X84400000Y-61800000D01*
X84400000Y-61800000D02*
X84400000Y-62480000D01*
X87200001Y-59000000D02*
X87200000Y-59000000D01*
X87599999Y-58600000D02*
X87453554Y-58746447D01*
X87453554Y-58746447D02*
X87200001Y-59000000D01*
X87974999Y-58225000D02*
X87599999Y-58600000D01*
X91150000Y-55537500D02*
X91150000Y-57275000D01*
X91150000Y-57275000D02*
X91025000Y-57400000D01*
X90200000Y-58225000D02*
X87974999Y-58225000D01*
X75400000Y-53610000D02*
X75400000Y-80400000D01*
X93775000Y-82200000D02*
X93775000Y-83800000D01*
X75400000Y-80400000D02*
X80400000Y-85400000D01*
X82800000Y-85400000D02*
X84350000Y-83850000D01*
X93775000Y-83800000D02*
X92250000Y-83800000D01*
X80400000Y-85400000D02*
X82800000Y-85400000D01*
X92250000Y-83800000D02*
X92200000Y-83850000D01*
X84350000Y-83850000D02*
X92200000Y-83850000D01*
X71390000Y-68983654D02*
X69415240Y-70958414D01*
X71390000Y-35350000D02*
X71390000Y-68983654D01*
X94600000Y-45550000D02*
X94600000Y-45941642D01*
X82060000Y-59940000D02*
X81000000Y-59940000D01*
X94600000Y-45941642D02*
X93600000Y-46941642D01*
X84200000Y-57800000D02*
X82060000Y-59940000D01*
X84200000Y-50707106D02*
X84200000Y-57800000D01*
X94600000Y-44025000D02*
X94600000Y-45550000D01*
X93600000Y-46941642D02*
X93600000Y-47483358D01*
X95525000Y-43100000D02*
X94600000Y-44025000D01*
X91983358Y-49100000D02*
X85807106Y-49100000D01*
X96400000Y-43100000D02*
X95525000Y-43100000D01*
X93600000Y-47483358D02*
X91983358Y-49100000D01*
X85807106Y-49100000D02*
X84200000Y-50707106D01*
X70330000Y-66270000D02*
X70330000Y-58780000D01*
X92600000Y-66400000D02*
X90605000Y-64405000D01*
X92625000Y-68800000D02*
X92600000Y-68825000D01*
X94375000Y-68800000D02*
X94375000Y-70600000D01*
X90605000Y-64405000D02*
X87595000Y-64405000D01*
X92600000Y-68825000D02*
X92600000Y-66400000D01*
X70330000Y-58780000D02*
X70200000Y-58650000D01*
X94375000Y-68800000D02*
X92625000Y-68800000D01*
X75550000Y-35350000D02*
X77400000Y-37200000D01*
X77400000Y-37200000D02*
X77400000Y-52200000D01*
X75200000Y-35350000D02*
X75550000Y-35350000D01*
X87253553Y-58146447D02*
X83600000Y-61800000D01*
X87346447Y-58146447D02*
X87253553Y-58146447D01*
X87346447Y-58146447D02*
X87825000Y-57667893D01*
X87825000Y-56962500D02*
X89250000Y-55537500D01*
X90400000Y-70450000D02*
X90050000Y-70450000D01*
X83600000Y-61800000D02*
X83600000Y-66960000D01*
X87090000Y-70450000D02*
X90400000Y-70450000D01*
X83720000Y-67080000D02*
X87090000Y-70450000D01*
X83720000Y-67080000D02*
X84200000Y-67560000D01*
X87825000Y-57667893D02*
X87825000Y-56962500D01*
X83600000Y-66960000D02*
X83720000Y-67080000D01*
D48*
X65760000Y-75180000D02*
X67360000Y-73580000D01*
X72240000Y-69760000D02*
X72240000Y-39360000D01*
D46*
X92425000Y-53975000D02*
X92000000Y-54400000D01*
X98800000Y-53574154D02*
X98410848Y-53185002D01*
X99175000Y-82600000D02*
X99200000Y-82600000D01*
D48*
X68420000Y-73580000D02*
X72240000Y-69760000D01*
D46*
X90200000Y-52400000D02*
X90400000Y-52200000D01*
D48*
X72240000Y-39360000D02*
X73825000Y-37775000D01*
D46*
X92800000Y-53975000D02*
X92425000Y-53975000D01*
X99200000Y-82600000D02*
X100200000Y-81600000D01*
X99400000Y-68200000D02*
X100200000Y-67400000D01*
D48*
X73930000Y-37495000D02*
X73825000Y-37600000D01*
X73930000Y-35350000D02*
X73930000Y-37495000D01*
D46*
X99150000Y-52200000D02*
X99150000Y-52296255D01*
X90200000Y-53262500D02*
X90200000Y-52400000D01*
D48*
X67360000Y-73580000D02*
X68420000Y-73580000D01*
D46*
X99375000Y-68200000D02*
X99400000Y-68200000D01*
D48*
X73825000Y-37775000D02*
X73825000Y-37600000D01*
D46*
X99150000Y-52296255D02*
X99916246Y-53062501D01*
X98800000Y-54325000D02*
X98800000Y-53574154D01*
X29750000Y-31400000D02*
X32800000Y-31400000D01*
X87000000Y-51043805D02*
X87043805Y-51000000D01*
X87000000Y-52375000D02*
X87000000Y-51043805D01*
X86150000Y-50762434D02*
X86150000Y-54700000D01*
X88600000Y-50400000D02*
X88400000Y-50200000D01*
X86712434Y-50200000D02*
X86150000Y-50762434D01*
X48800000Y-31400000D02*
X51200000Y-31400000D01*
X86150000Y-54700000D02*
X87000000Y-55550000D01*
X88400000Y-50200000D02*
X86712434Y-50200000D01*
X41800000Y-31400000D02*
X42000000Y-31200000D01*
X39400000Y-31400000D02*
X41800000Y-31400000D01*
X95925000Y-49325000D02*
X95925000Y-52200000D01*
X95800000Y-49200000D02*
X95925000Y-49325000D01*
X58150000Y-31450000D02*
X59950000Y-31450000D01*
X94600000Y-49000000D02*
X94600000Y-49600000D01*
X94600000Y-49600000D02*
X94550000Y-49650000D01*
X59950000Y-31450000D02*
X60000000Y-31400000D01*
X94550000Y-53800000D02*
X94550000Y-49650000D01*
%TA.AperFunction,Conductor*%
G36*
X59765677Y-19019685D02*
G01*
X59786319Y-19036319D01*
X59963681Y-19213681D01*
X59997166Y-19275004D01*
X60000000Y-19301362D01*
X60000000Y-20742768D01*
X59980315Y-20809807D01*
X59974376Y-20818254D01*
X59875464Y-20947157D01*
X59814956Y-21093237D01*
X59814955Y-21093239D01*
X59799501Y-21210629D01*
X59799501Y-21210636D01*
X59799500Y-21210645D01*
X59799500Y-21351612D01*
X59785985Y-21407907D01*
X59748444Y-21481585D01*
X59682753Y-21683760D01*
X59649500Y-21893713D01*
X59649500Y-23606286D01*
X59675178Y-23768414D01*
X59682754Y-23816243D01*
X59728755Y-23957820D01*
X59748444Y-24018414D01*
X59844951Y-24207820D01*
X59969891Y-24379787D01*
X59970280Y-24380242D01*
X59970373Y-24380450D01*
X59972759Y-24383734D01*
X59972069Y-24384234D01*
X59998859Y-24443999D01*
X60000000Y-24460785D01*
X60000000Y-30533937D01*
X59980315Y-30600976D01*
X59927511Y-30646731D01*
X59889885Y-30657157D01*
X59831943Y-30663686D01*
X59795907Y-30676295D01*
X59726128Y-30679855D01*
X59700495Y-30670653D01*
X59626391Y-30634426D01*
X59558261Y-30624500D01*
X59558260Y-30624500D01*
X56741740Y-30624500D01*
X56741739Y-30624500D01*
X56673608Y-30634426D01*
X56568514Y-30685803D01*
X56485803Y-30768514D01*
X56434426Y-30873608D01*
X56424500Y-30941739D01*
X56424500Y-31958260D01*
X56434426Y-32026391D01*
X56485803Y-32131485D01*
X56568514Y-32214196D01*
X56568515Y-32214196D01*
X56568517Y-32214198D01*
X56673607Y-32265573D01*
X56707673Y-32270536D01*
X56741739Y-32275500D01*
X57202640Y-32275500D01*
X57269679Y-32295185D01*
X57315434Y-32347989D01*
X57325378Y-32417147D01*
X57296353Y-32480703D01*
X57258935Y-32509985D01*
X57092180Y-32594951D01*
X56920213Y-32719890D01*
X56769898Y-32870205D01*
X56769893Y-32870211D01*
X56759830Y-32884061D01*
X56704498Y-32926724D01*
X56677400Y-32933873D01*
X56673615Y-32934424D01*
X56673607Y-32934427D01*
X56568514Y-32985803D01*
X56485803Y-33068514D01*
X56434426Y-33173608D01*
X56424500Y-33241739D01*
X56424500Y-34258260D01*
X56434426Y-34326391D01*
X56485803Y-34431485D01*
X56568514Y-34514196D01*
X56568515Y-34514196D01*
X56568517Y-34514198D01*
X56673607Y-34565573D01*
X56677394Y-34566124D01*
X56681517Y-34568016D01*
X56682809Y-34568416D01*
X56682756Y-34568585D01*
X56740894Y-34595268D01*
X56759835Y-34615944D01*
X56769896Y-34629792D01*
X56920213Y-34780109D01*
X57092179Y-34905048D01*
X57092181Y-34905049D01*
X57092184Y-34905051D01*
X57134129Y-34926423D01*
X57184924Y-34974395D01*
X57201720Y-35042216D01*
X57179184Y-35108351D01*
X57165516Y-35124587D01*
X57119897Y-35170206D01*
X57119895Y-35170209D01*
X57117584Y-35173390D01*
X57062252Y-35216053D01*
X57017269Y-35224500D01*
X56741739Y-35224500D01*
X56673608Y-35234426D01*
X56568514Y-35285803D01*
X56485803Y-35368514D01*
X56434426Y-35473608D01*
X56424500Y-35541739D01*
X56424500Y-36558260D01*
X56434426Y-36626391D01*
X56485803Y-36731485D01*
X56568514Y-36814196D01*
X56568515Y-36814196D01*
X56568517Y-36814198D01*
X56673607Y-36865573D01*
X56707673Y-36870536D01*
X56741739Y-36875500D01*
X56741740Y-36875500D01*
X57017269Y-36875500D01*
X57084308Y-36895185D01*
X57117584Y-36926610D01*
X57119893Y-36929788D01*
X57119895Y-36929790D01*
X57119897Y-36929793D01*
X57270213Y-37080109D01*
X57442179Y-37205048D01*
X57442181Y-37205049D01*
X57442184Y-37205051D01*
X57631588Y-37301557D01*
X57833757Y-37367246D01*
X58043713Y-37400500D01*
X58043714Y-37400500D01*
X59876000Y-37400500D01*
X59943039Y-37420185D01*
X59988794Y-37472989D01*
X60000000Y-37524500D01*
X60000000Y-42238742D01*
X59980315Y-42305781D01*
X59963681Y-42326423D01*
X58369894Y-43920209D01*
X58369890Y-43920213D01*
X58244951Y-44092179D01*
X58148444Y-44281585D01*
X58082753Y-44483760D01*
X58049500Y-44693713D01*
X58049500Y-45106287D01*
X58055306Y-45142942D01*
X58067017Y-45216888D01*
X58082754Y-45316243D01*
X58148443Y-45518412D01*
X58160985Y-45543027D01*
X58174500Y-45599319D01*
X58174500Y-52836782D01*
X58154815Y-52903821D01*
X58102011Y-52949576D01*
X58032853Y-52959520D01*
X58005707Y-52952409D01*
X57841202Y-52888680D01*
X57841199Y-52888679D01*
X57841198Y-52888679D01*
X57631610Y-52849500D01*
X57418390Y-52849500D01*
X57208802Y-52888679D01*
X57208799Y-52888679D01*
X57208799Y-52888680D01*
X57009982Y-52965701D01*
X57009980Y-52965702D01*
X56828699Y-53077947D01*
X56671127Y-53221593D01*
X56542632Y-53391746D01*
X56447596Y-53582605D01*
X56447596Y-53582607D01*
X56389244Y-53787689D01*
X56369571Y-53999999D01*
X56369571Y-54000000D01*
X56389244Y-54212310D01*
X56447596Y-54417392D01*
X56447596Y-54417394D01*
X56542632Y-54608253D01*
X56598463Y-54682184D01*
X56671128Y-54778407D01*
X56828698Y-54922052D01*
X57009981Y-55034298D01*
X57208802Y-55111321D01*
X57418390Y-55150500D01*
X57418392Y-55150500D01*
X57631608Y-55150500D01*
X57631610Y-55150500D01*
X57841198Y-55111321D01*
X58005708Y-55047589D01*
X58075329Y-55041728D01*
X58137069Y-55074438D01*
X58171324Y-55135334D01*
X58174500Y-55163217D01*
X58174500Y-69420864D01*
X58154815Y-69487903D01*
X58102011Y-69533658D01*
X58032853Y-69543602D01*
X57985222Y-69526291D01*
X57968976Y-69516232D01*
X57887368Y-69465702D01*
X57887366Y-69465701D01*
X57771627Y-69420864D01*
X57688547Y-69388679D01*
X57478959Y-69349500D01*
X57265739Y-69349500D01*
X57056151Y-69388679D01*
X57056148Y-69388679D01*
X57056148Y-69388680D01*
X56857331Y-69465701D01*
X56857329Y-69465702D01*
X56676048Y-69577947D01*
X56518476Y-69721593D01*
X56389981Y-69891746D01*
X56294945Y-70082605D01*
X56294945Y-70082607D01*
X56236593Y-70287689D01*
X56216920Y-70499999D01*
X56216920Y-70500000D01*
X56236593Y-70712310D01*
X56294945Y-70917392D01*
X56294945Y-70917394D01*
X56389981Y-71108253D01*
X56389983Y-71108255D01*
X56518477Y-71278407D01*
X56676047Y-71422052D01*
X56857330Y-71534298D01*
X57056151Y-71611321D01*
X57265739Y-71650500D01*
X57265741Y-71650500D01*
X57478957Y-71650500D01*
X57478959Y-71650500D01*
X57688547Y-71611321D01*
X57887368Y-71534298D01*
X57985225Y-71473707D01*
X58052582Y-71455152D01*
X58119282Y-71475960D01*
X58164143Y-71529525D01*
X58174500Y-71579135D01*
X58174500Y-79831286D01*
X58199032Y-79986179D01*
X58207754Y-80041243D01*
X58259145Y-80199409D01*
X58273444Y-80243414D01*
X58369951Y-80432820D01*
X58494889Y-80604784D01*
X58494893Y-80604788D01*
X58494896Y-80604792D01*
X58578912Y-80688808D01*
X58649538Y-80759434D01*
X58649549Y-80759444D01*
X59963681Y-82073576D01*
X59997166Y-82134899D01*
X60000000Y-82161257D01*
X60000000Y-92376000D01*
X59980315Y-92443039D01*
X59927511Y-92488794D01*
X59876000Y-92500000D01*
X20624000Y-92500000D01*
X20556961Y-92480315D01*
X20511206Y-92427511D01*
X20500000Y-92376000D01*
X20500000Y-89878711D01*
X21149500Y-89878711D01*
X21149500Y-90121288D01*
X21181161Y-90361785D01*
X21243947Y-90596104D01*
X21318809Y-90776836D01*
X21336776Y-90820212D01*
X21458064Y-91030289D01*
X21458066Y-91030292D01*
X21458067Y-91030293D01*
X21605733Y-91222736D01*
X21605739Y-91222743D01*
X21777256Y-91394260D01*
X21777262Y-91394265D01*
X21969711Y-91541936D01*
X22179788Y-91663224D01*
X22403900Y-91756054D01*
X22638211Y-91818838D01*
X22818586Y-91842584D01*
X22878711Y-91850500D01*
X22878712Y-91850500D01*
X23121289Y-91850500D01*
X23169388Y-91844167D01*
X23361789Y-91818838D01*
X23596100Y-91756054D01*
X23820212Y-91663224D01*
X24030289Y-91541936D01*
X24222738Y-91394265D01*
X24394265Y-91222738D01*
X24541936Y-91030289D01*
X24663224Y-90820212D01*
X24756054Y-90596100D01*
X24818838Y-90361789D01*
X24850500Y-90121288D01*
X24850500Y-89878712D01*
X24818838Y-89638211D01*
X24756054Y-89403900D01*
X24663224Y-89179788D01*
X24541936Y-88969711D01*
X24394265Y-88777262D01*
X24394260Y-88777256D01*
X24222743Y-88605739D01*
X24222736Y-88605733D01*
X24030293Y-88458067D01*
X24030292Y-88458066D01*
X24030289Y-88458064D01*
X23820212Y-88336776D01*
X23820205Y-88336773D01*
X23596104Y-88243947D01*
X23361785Y-88181161D01*
X23121289Y-88149500D01*
X23121288Y-88149500D01*
X22878712Y-88149500D01*
X22878711Y-88149500D01*
X22638214Y-88181161D01*
X22403895Y-88243947D01*
X22179794Y-88336773D01*
X22179785Y-88336777D01*
X21969706Y-88458067D01*
X21777263Y-88605733D01*
X21777256Y-88605739D01*
X21605739Y-88777256D01*
X21605733Y-88777263D01*
X21458067Y-88969706D01*
X21336777Y-89179785D01*
X21336773Y-89179794D01*
X21243947Y-89403895D01*
X21181161Y-89638214D01*
X21149500Y-89878711D01*
X20500000Y-89878711D01*
X20500000Y-77393713D01*
X21149500Y-77393713D01*
X21149500Y-77606287D01*
X21182754Y-77816243D01*
X21194962Y-77853816D01*
X21248444Y-78018414D01*
X21344951Y-78207820D01*
X21469890Y-78379786D01*
X21620213Y-78530109D01*
X21792182Y-78655050D01*
X21792184Y-78655051D01*
X21864393Y-78691843D01*
X21915189Y-78739817D01*
X21931985Y-78807638D01*
X21909448Y-78873773D01*
X21864395Y-78912812D01*
X21745803Y-78973238D01*
X21708969Y-79000000D01*
X21592927Y-79084310D01*
X21592925Y-79084312D01*
X21592924Y-79084312D01*
X21459312Y-79217924D01*
X21459312Y-79217925D01*
X21459310Y-79217927D01*
X21411610Y-79283579D01*
X21348240Y-79370800D01*
X21262454Y-79539163D01*
X21204059Y-79718881D01*
X21174500Y-79905513D01*
X21174500Y-80094486D01*
X21204059Y-80281118D01*
X21262454Y-80460836D01*
X21328624Y-80590701D01*
X21348240Y-80629199D01*
X21459310Y-80782073D01*
X21592927Y-80915690D01*
X21707582Y-80998992D01*
X21745802Y-81026761D01*
X21820881Y-81065015D01*
X21871677Y-81112989D01*
X21888473Y-81180810D01*
X21865936Y-81246945D01*
X21811221Y-81290397D01*
X21764591Y-81299500D01*
X21735637Y-81299500D01*
X21618246Y-81314953D01*
X21618237Y-81314956D01*
X21472160Y-81375463D01*
X21346718Y-81471718D01*
X21250463Y-81597160D01*
X21189956Y-81743237D01*
X21189955Y-81743239D01*
X21176583Y-81844814D01*
X21174501Y-81860636D01*
X21174500Y-81860645D01*
X21174500Y-83139363D01*
X21189953Y-83256753D01*
X21189956Y-83256762D01*
X21236492Y-83369111D01*
X21250464Y-83402841D01*
X21346718Y-83528282D01*
X21472159Y-83624536D01*
X21618238Y-83685044D01*
X21735639Y-83700500D01*
X23264360Y-83700499D01*
X23264363Y-83700499D01*
X23381753Y-83685046D01*
X23381757Y-83685044D01*
X23381762Y-83685044D01*
X23527841Y-83624536D01*
X23527845Y-83624532D01*
X23534881Y-83620472D01*
X23536023Y-83622450D01*
X23590165Y-83601507D01*
X23658613Y-83615532D01*
X23708612Y-83664336D01*
X23724289Y-83732424D01*
X23715068Y-83772527D01*
X23682185Y-83851913D01*
X23682182Y-83851925D01*
X23649500Y-84016228D01*
X23649500Y-84183771D01*
X23682182Y-84348074D01*
X23682184Y-84348082D01*
X23746295Y-84502860D01*
X23839373Y-84642162D01*
X23957837Y-84760626D01*
X24050494Y-84822537D01*
X24097137Y-84853703D01*
X24251918Y-84917816D01*
X24416228Y-84950499D01*
X24416232Y-84950500D01*
X24416233Y-84950500D01*
X24583768Y-84950500D01*
X24583769Y-84950499D01*
X24748082Y-84917816D01*
X24902863Y-84853703D01*
X25042162Y-84760626D01*
X25160626Y-84642162D01*
X25253703Y-84502863D01*
X25317816Y-84348082D01*
X25350500Y-84183767D01*
X25350500Y-84016233D01*
X25317816Y-83851918D01*
X25253703Y-83697137D01*
X25222537Y-83650494D01*
X25160626Y-83557837D01*
X25042162Y-83439373D01*
X24902860Y-83346295D01*
X24748082Y-83282184D01*
X24748074Y-83282182D01*
X24583771Y-83249500D01*
X24583767Y-83249500D01*
X24416233Y-83249500D01*
X24416228Y-83249500D01*
X24251925Y-83282182D01*
X24251917Y-83282184D01*
X24097140Y-83346295D01*
X23988780Y-83418698D01*
X23922102Y-83439575D01*
X23854722Y-83421090D01*
X23808033Y-83369111D01*
X23796857Y-83300140D01*
X23805328Y-83268145D01*
X23810044Y-83256762D01*
X23825500Y-83139361D01*
X23825499Y-81860640D01*
X23825499Y-81860639D01*
X23825499Y-81860636D01*
X23810046Y-81743246D01*
X23810044Y-81743239D01*
X23810044Y-81743238D01*
X23749536Y-81597159D01*
X23653282Y-81471718D01*
X23527841Y-81375464D01*
X23501521Y-81364562D01*
X23381762Y-81314956D01*
X23381760Y-81314955D01*
X23264370Y-81299501D01*
X23264367Y-81299500D01*
X23264361Y-81299500D01*
X23264354Y-81299500D01*
X23235414Y-81299500D01*
X23168375Y-81279815D01*
X23122620Y-81227011D01*
X23112676Y-81157853D01*
X23141701Y-81094297D01*
X23179119Y-81065015D01*
X23254199Y-81026760D01*
X23407073Y-80915690D01*
X23540690Y-80782073D01*
X23651760Y-80629199D01*
X23737547Y-80460832D01*
X23795940Y-80281118D01*
X23801912Y-80243412D01*
X23825500Y-80094486D01*
X23825500Y-79905513D01*
X23795940Y-79718881D01*
X23737545Y-79539163D01*
X23688146Y-79442213D01*
X23651760Y-79370801D01*
X23540690Y-79217927D01*
X23407073Y-79084310D01*
X23394006Y-79074816D01*
X23351342Y-79019486D01*
X23345364Y-78949873D01*
X23377971Y-78888078D01*
X23438810Y-78853722D01*
X23466894Y-78850500D01*
X24864243Y-78850500D01*
X24931282Y-78870185D01*
X24951923Y-78886818D01*
X27573660Y-81508556D01*
X30144895Y-84079791D01*
X30295213Y-84230109D01*
X30467179Y-84355048D01*
X30467181Y-84355049D01*
X30467184Y-84355051D01*
X30656588Y-84451557D01*
X30858757Y-84517246D01*
X31068713Y-84550500D01*
X33589243Y-84550500D01*
X33656282Y-84570185D01*
X33676924Y-84586819D01*
X34828181Y-85738076D01*
X34861666Y-85799399D01*
X34864500Y-85825757D01*
X34864500Y-89733711D01*
X34844815Y-89800750D01*
X34792011Y-89846505D01*
X34722853Y-89856449D01*
X34659297Y-89827424D01*
X34629500Y-89788983D01*
X34625725Y-89781403D01*
X34618088Y-89766065D01*
X34494732Y-89602715D01*
X34494730Y-89602712D01*
X34343462Y-89464814D01*
X34343460Y-89464812D01*
X34169430Y-89357057D01*
X34169424Y-89357055D01*
X33978556Y-89283112D01*
X33901712Y-89268747D01*
X33839434Y-89237079D01*
X33804161Y-89176767D01*
X33800500Y-89146859D01*
X33800500Y-86516232D01*
X33800499Y-86516228D01*
X33767817Y-86351924D01*
X33767816Y-86351918D01*
X33756328Y-86324185D01*
X33747950Y-86292920D01*
X33735687Y-86199764D01*
X33677698Y-86059767D01*
X33585451Y-85939549D01*
X33465233Y-85847302D01*
X33465229Y-85847300D01*
X33401801Y-85821027D01*
X33325236Y-85789313D01*
X33311171Y-85787461D01*
X33212727Y-85774500D01*
X33212720Y-85774500D01*
X33171663Y-85774500D01*
X33147472Y-85772117D01*
X33033770Y-85749500D01*
X33033767Y-85749500D01*
X32866233Y-85749500D01*
X32866229Y-85749500D01*
X32752528Y-85772117D01*
X32728337Y-85774500D01*
X32687272Y-85774500D01*
X32574764Y-85789313D01*
X32574763Y-85789313D01*
X32434770Y-85847300D01*
X32434767Y-85847301D01*
X32434767Y-85847302D01*
X32314549Y-85939549D01*
X32314548Y-85939550D01*
X32314547Y-85939551D01*
X32273375Y-85993207D01*
X32216947Y-86034410D01*
X32147201Y-86038564D01*
X32086281Y-86004351D01*
X32076625Y-85993207D01*
X32055702Y-85965941D01*
X32035451Y-85939549D01*
X31915233Y-85847302D01*
X31915229Y-85847300D01*
X31851801Y-85821027D01*
X31775236Y-85789313D01*
X31761171Y-85787461D01*
X31662727Y-85774500D01*
X31662720Y-85774500D01*
X31621663Y-85774500D01*
X31597472Y-85772117D01*
X31483770Y-85749500D01*
X31483767Y-85749500D01*
X31316233Y-85749500D01*
X31316229Y-85749500D01*
X31202528Y-85772117D01*
X31178337Y-85774500D01*
X31137272Y-85774500D01*
X31024764Y-85789313D01*
X31024763Y-85789313D01*
X30884770Y-85847300D01*
X30884767Y-85847301D01*
X30884767Y-85847302D01*
X30764549Y-85939549D01*
X30714825Y-86004351D01*
X30672300Y-86059770D01*
X30614313Y-86199763D01*
X30614313Y-86199764D01*
X30602048Y-86292921D01*
X30593671Y-86324183D01*
X30582185Y-86351912D01*
X30582181Y-86351925D01*
X30549500Y-86516228D01*
X30549500Y-89121500D01*
X30529815Y-89188539D01*
X30477011Y-89234294D01*
X30425500Y-89245500D01*
X30347739Y-89245500D01*
X30279608Y-89255426D01*
X30174514Y-89306803D01*
X30091803Y-89389514D01*
X30040426Y-89494608D01*
X30030500Y-89562739D01*
X30030500Y-91137260D01*
X30040426Y-91205391D01*
X30091803Y-91310485D01*
X30174514Y-91393196D01*
X30174515Y-91393196D01*
X30174517Y-91393198D01*
X30279607Y-91444573D01*
X30313673Y-91449536D01*
X30347739Y-91454500D01*
X30347740Y-91454500D01*
X31922261Y-91454500D01*
X31944971Y-91451191D01*
X31990393Y-91444573D01*
X32095483Y-91393198D01*
X32178198Y-91310483D01*
X32229573Y-91205393D01*
X32239500Y-91137260D01*
X32239500Y-90416651D01*
X32259185Y-90349612D01*
X32311989Y-90303857D01*
X32381147Y-90293913D01*
X32444703Y-90322938D01*
X32451181Y-90328970D01*
X32543663Y-90421452D01*
X32577148Y-90482775D01*
X32579453Y-90497690D01*
X32584654Y-90553817D01*
X32584654Y-90553820D01*
X32584655Y-90553821D01*
X32596684Y-90596100D01*
X32640673Y-90750704D01*
X32731912Y-90933935D01*
X32855269Y-91097287D01*
X32992881Y-91222736D01*
X33000614Y-91229786D01*
X33006537Y-91235185D01*
X33006539Y-91235187D01*
X33180569Y-91342942D01*
X33180575Y-91342945D01*
X33221010Y-91358609D01*
X33371444Y-91416888D01*
X33572653Y-91454500D01*
X33572656Y-91454500D01*
X33777344Y-91454500D01*
X33777347Y-91454500D01*
X33978556Y-91416888D01*
X34169427Y-91342944D01*
X34343462Y-91235186D01*
X34494732Y-91097285D01*
X34618088Y-90933935D01*
X34704757Y-90759881D01*
X34752260Y-90708644D01*
X34819923Y-90691223D01*
X34886263Y-90713149D01*
X34930218Y-90767460D01*
X34933685Y-90776828D01*
X34947782Y-90820214D01*
X34963444Y-90868414D01*
X35059951Y-91057820D01*
X35184890Y-91229786D01*
X35335213Y-91380109D01*
X35507179Y-91505048D01*
X35507181Y-91505049D01*
X35507184Y-91505051D01*
X35696588Y-91601557D01*
X35898757Y-91667246D01*
X36108713Y-91700500D01*
X36108714Y-91700500D01*
X36321286Y-91700500D01*
X36321287Y-91700500D01*
X36531243Y-91667246D01*
X36733412Y-91601557D01*
X36922816Y-91505051D01*
X36992394Y-91454500D01*
X37094786Y-91380109D01*
X37094788Y-91380106D01*
X37094792Y-91380104D01*
X37245104Y-91229792D01*
X37245106Y-91229788D01*
X37245109Y-91229786D01*
X37370048Y-91057820D01*
X37370047Y-91057820D01*
X37370051Y-91057816D01*
X37466557Y-90868412D01*
X37496312Y-90776833D01*
X37535748Y-90719160D01*
X37600106Y-90691961D01*
X37668953Y-90703875D01*
X37720429Y-90751119D01*
X37725242Y-90759881D01*
X37811912Y-90933935D01*
X37935269Y-91097287D01*
X38072881Y-91222736D01*
X38080614Y-91229786D01*
X38086537Y-91235185D01*
X38086539Y-91235187D01*
X38260569Y-91342942D01*
X38260575Y-91342945D01*
X38301010Y-91358609D01*
X38451444Y-91416888D01*
X38652653Y-91454500D01*
X38652656Y-91454500D01*
X38857344Y-91454500D01*
X38857347Y-91454500D01*
X39058556Y-91416888D01*
X39249427Y-91342944D01*
X39423462Y-91235186D01*
X39574732Y-91097285D01*
X39698088Y-90933935D01*
X39789328Y-90750701D01*
X39845345Y-90553821D01*
X39864232Y-90350000D01*
X39864232Y-90349999D01*
X40185768Y-90349999D01*
X40185768Y-90350000D01*
X40204654Y-90553816D01*
X40204654Y-90553818D01*
X40204655Y-90553821D01*
X40216686Y-90596104D01*
X40260673Y-90750704D01*
X40351912Y-90933935D01*
X40475269Y-91097287D01*
X40612881Y-91222736D01*
X40620614Y-91229786D01*
X40626537Y-91235185D01*
X40626539Y-91235187D01*
X40800569Y-91342942D01*
X40800575Y-91342945D01*
X40841010Y-91358609D01*
X40991444Y-91416888D01*
X41192653Y-91454500D01*
X41192656Y-91454500D01*
X41397344Y-91454500D01*
X41397347Y-91454500D01*
X41598556Y-91416888D01*
X41789427Y-91342944D01*
X41963462Y-91235186D01*
X42114732Y-91097285D01*
X42238088Y-90933935D01*
X42329328Y-90750701D01*
X42385345Y-90553821D01*
X42404232Y-90350000D01*
X42404232Y-90349999D01*
X42725768Y-90349999D01*
X42725768Y-90350000D01*
X42744654Y-90553816D01*
X42744654Y-90553818D01*
X42744655Y-90553821D01*
X42756686Y-90596104D01*
X42800673Y-90750704D01*
X42891912Y-90933935D01*
X43015269Y-91097287D01*
X43152881Y-91222736D01*
X43160614Y-91229786D01*
X43166537Y-91235185D01*
X43166539Y-91235187D01*
X43340569Y-91342942D01*
X43340575Y-91342945D01*
X43381010Y-91358609D01*
X43531444Y-91416888D01*
X43732653Y-91454500D01*
X43732656Y-91454500D01*
X43937344Y-91454500D01*
X43937347Y-91454500D01*
X44138556Y-91416888D01*
X44329427Y-91342944D01*
X44503462Y-91235186D01*
X44654732Y-91097285D01*
X44778088Y-90933935D01*
X44869328Y-90750701D01*
X44925345Y-90553821D01*
X44944232Y-90350000D01*
X44944232Y-90349999D01*
X45265768Y-90349999D01*
X45265768Y-90350000D01*
X45284654Y-90553816D01*
X45284654Y-90553818D01*
X45284655Y-90553821D01*
X45296686Y-90596104D01*
X45340673Y-90750704D01*
X45431912Y-90933935D01*
X45555269Y-91097287D01*
X45692881Y-91222736D01*
X45700614Y-91229786D01*
X45706537Y-91235185D01*
X45706539Y-91235187D01*
X45880569Y-91342942D01*
X45880575Y-91342945D01*
X45921010Y-91358609D01*
X46071444Y-91416888D01*
X46272653Y-91454500D01*
X46272656Y-91454500D01*
X46477344Y-91454500D01*
X46477347Y-91454500D01*
X46678556Y-91416888D01*
X46869427Y-91342944D01*
X47043462Y-91235186D01*
X47194732Y-91097285D01*
X47318088Y-90933935D01*
X47409328Y-90750701D01*
X47465345Y-90553821D01*
X47484232Y-90350000D01*
X47465345Y-90146179D01*
X47409328Y-89949299D01*
X47318088Y-89766065D01*
X47194732Y-89602715D01*
X47194730Y-89602712D01*
X47043462Y-89464814D01*
X47043460Y-89464812D01*
X46869430Y-89357057D01*
X46869424Y-89357054D01*
X46718993Y-89298777D01*
X46678556Y-89283112D01*
X46477347Y-89245500D01*
X46272653Y-89245500D01*
X46071444Y-89283112D01*
X46071441Y-89283112D01*
X46071441Y-89283113D01*
X45880575Y-89357054D01*
X45880569Y-89357057D01*
X45706539Y-89464812D01*
X45706537Y-89464814D01*
X45555269Y-89602712D01*
X45431912Y-89766064D01*
X45340673Y-89949295D01*
X45284654Y-90146183D01*
X45265768Y-90349999D01*
X44944232Y-90349999D01*
X44925345Y-90146179D01*
X44869328Y-89949299D01*
X44778088Y-89766065D01*
X44654732Y-89602715D01*
X44654730Y-89602712D01*
X44503462Y-89464814D01*
X44503460Y-89464812D01*
X44329430Y-89357057D01*
X44329424Y-89357054D01*
X44178993Y-89298777D01*
X44138556Y-89283112D01*
X43937347Y-89245500D01*
X43732653Y-89245500D01*
X43531444Y-89283112D01*
X43531441Y-89283112D01*
X43531441Y-89283113D01*
X43340575Y-89357054D01*
X43340569Y-89357057D01*
X43166539Y-89464812D01*
X43166537Y-89464814D01*
X43015269Y-89602712D01*
X42891912Y-89766064D01*
X42800673Y-89949295D01*
X42744654Y-90146183D01*
X42725768Y-90349999D01*
X42404232Y-90349999D01*
X42385345Y-90146179D01*
X42329328Y-89949299D01*
X42238088Y-89766065D01*
X42114732Y-89602715D01*
X42114730Y-89602712D01*
X41963462Y-89464814D01*
X41963460Y-89464812D01*
X41789430Y-89357057D01*
X41789424Y-89357054D01*
X41638993Y-89298777D01*
X41598556Y-89283112D01*
X41397347Y-89245500D01*
X41192653Y-89245500D01*
X40991444Y-89283112D01*
X40991441Y-89283112D01*
X40991441Y-89283113D01*
X40800575Y-89357054D01*
X40800569Y-89357057D01*
X40626539Y-89464812D01*
X40626537Y-89464814D01*
X40475269Y-89602712D01*
X40351912Y-89766064D01*
X40260673Y-89949295D01*
X40204654Y-90146183D01*
X40185768Y-90349999D01*
X39864232Y-90349999D01*
X39845345Y-90146179D01*
X39789328Y-89949299D01*
X39698088Y-89766065D01*
X39574732Y-89602715D01*
X39574730Y-89602712D01*
X39423462Y-89464814D01*
X39423460Y-89464812D01*
X39249430Y-89357057D01*
X39249424Y-89357054D01*
X39098993Y-89298777D01*
X39058556Y-89283112D01*
X38857347Y-89245500D01*
X38652653Y-89245500D01*
X38451444Y-89283112D01*
X38451441Y-89283112D01*
X38451441Y-89283113D01*
X38260575Y-89357054D01*
X38260569Y-89357057D01*
X38086539Y-89464812D01*
X38086537Y-89464814D01*
X37935269Y-89602712D01*
X37811912Y-89766064D01*
X37800500Y-89788983D01*
X37752997Y-89840220D01*
X37685333Y-89857641D01*
X37618993Y-89835715D01*
X37575038Y-89781403D01*
X37565500Y-89733711D01*
X37565500Y-87999999D01*
X55869571Y-87999999D01*
X55869571Y-88000000D01*
X55889244Y-88212310D01*
X55947596Y-88417392D01*
X55947596Y-88417394D01*
X56042632Y-88608253D01*
X56042634Y-88608255D01*
X56171128Y-88778407D01*
X56328698Y-88922052D01*
X56509981Y-89034298D01*
X56708802Y-89111321D01*
X56918390Y-89150500D01*
X56918392Y-89150500D01*
X57131608Y-89150500D01*
X57131610Y-89150500D01*
X57341198Y-89111321D01*
X57540019Y-89034298D01*
X57721302Y-88922052D01*
X57878872Y-88778407D01*
X58007366Y-88608255D01*
X58082150Y-88458067D01*
X58102403Y-88417394D01*
X58102403Y-88417393D01*
X58102405Y-88417389D01*
X58160756Y-88212310D01*
X58180429Y-88000000D01*
X58160756Y-87787690D01*
X58102405Y-87582611D01*
X58102403Y-87582606D01*
X58102403Y-87582605D01*
X58007367Y-87391746D01*
X57878872Y-87221593D01*
X57721302Y-87077948D01*
X57540019Y-86965702D01*
X57540017Y-86965701D01*
X57440608Y-86927190D01*
X57341198Y-86888679D01*
X57131610Y-86849500D01*
X56918390Y-86849500D01*
X56708802Y-86888679D01*
X56708799Y-86888679D01*
X56708799Y-86888680D01*
X56509982Y-86965701D01*
X56509980Y-86965702D01*
X56328699Y-87077947D01*
X56171127Y-87221593D01*
X56042632Y-87391746D01*
X55947596Y-87582605D01*
X55947596Y-87582607D01*
X55889244Y-87787689D01*
X55869571Y-87999999D01*
X37565500Y-87999999D01*
X37565500Y-85108713D01*
X37540441Y-84950499D01*
X37532246Y-84898757D01*
X37466557Y-84696588D01*
X37370051Y-84507184D01*
X37370049Y-84507181D01*
X37370048Y-84507179D01*
X37245109Y-84335213D01*
X37094791Y-84184895D01*
X35639894Y-82729999D01*
X47805768Y-82729999D01*
X47805768Y-82730000D01*
X47824654Y-82933816D01*
X47824654Y-82933818D01*
X47824655Y-82933821D01*
X47880672Y-83130701D01*
X47880673Y-83130704D01*
X47971912Y-83313935D01*
X48095269Y-83477287D01*
X48246537Y-83615185D01*
X48246539Y-83615187D01*
X48420569Y-83722942D01*
X48420575Y-83722945D01*
X48461010Y-83738609D01*
X48611444Y-83796888D01*
X48812653Y-83834500D01*
X48812656Y-83834500D01*
X49017344Y-83834500D01*
X49017347Y-83834500D01*
X49218556Y-83796888D01*
X49409427Y-83722944D01*
X49583462Y-83615186D01*
X49734732Y-83477285D01*
X49858088Y-83313935D01*
X49949328Y-83130701D01*
X50005345Y-82933821D01*
X50024232Y-82730000D01*
X50005345Y-82526179D01*
X49949328Y-82329299D01*
X49858088Y-82146065D01*
X49734732Y-81982715D01*
X49734730Y-81982712D01*
X49583462Y-81844814D01*
X49583460Y-81844812D01*
X49409430Y-81737057D01*
X49409424Y-81737054D01*
X49258993Y-81678777D01*
X49218556Y-81663112D01*
X49017347Y-81625500D01*
X48812653Y-81625500D01*
X48611444Y-81663112D01*
X48611441Y-81663112D01*
X48611441Y-81663113D01*
X48420575Y-81737054D01*
X48420569Y-81737057D01*
X48246539Y-81844812D01*
X48246537Y-81844814D01*
X48095269Y-81982712D01*
X47971912Y-82146064D01*
X47880673Y-82329295D01*
X47824654Y-82526183D01*
X47805768Y-82729999D01*
X35639894Y-82729999D01*
X35234444Y-82324549D01*
X35234435Y-82324539D01*
X35191484Y-82281588D01*
X35079792Y-82169896D01*
X35079788Y-82169893D01*
X35079784Y-82169889D01*
X34907820Y-82044951D01*
X34718414Y-81948444D01*
X34718413Y-81948443D01*
X34718412Y-81948443D01*
X34516243Y-81882754D01*
X34516241Y-81882753D01*
X34516240Y-81882753D01*
X34354957Y-81857208D01*
X34306287Y-81849500D01*
X34306286Y-81849500D01*
X31785758Y-81849500D01*
X31718719Y-81829815D01*
X31698077Y-81813181D01*
X27534894Y-77649999D01*
X30025768Y-77649999D01*
X30025768Y-77650000D01*
X30044654Y-77853816D01*
X30100673Y-78050704D01*
X30191912Y-78233935D01*
X30315269Y-78397287D01*
X30466537Y-78535185D01*
X30466539Y-78535187D01*
X30640569Y-78642942D01*
X30640575Y-78642945D01*
X30671306Y-78654850D01*
X30831444Y-78716888D01*
X31032653Y-78754500D01*
X31032656Y-78754500D01*
X31237344Y-78754500D01*
X31237347Y-78754500D01*
X31438556Y-78716888D01*
X31629427Y-78642944D01*
X31803462Y-78535186D01*
X31954732Y-78397285D01*
X32078088Y-78233935D01*
X32169328Y-78050701D01*
X32225345Y-77853821D01*
X32244232Y-77650000D01*
X32244232Y-77649999D01*
X32565768Y-77649999D01*
X32565768Y-77650000D01*
X32584654Y-77853816D01*
X32640673Y-78050704D01*
X32731912Y-78233935D01*
X32855269Y-78397287D01*
X33006537Y-78535185D01*
X33006539Y-78535187D01*
X33180569Y-78642942D01*
X33180575Y-78642945D01*
X33211306Y-78654850D01*
X33371444Y-78716888D01*
X33572653Y-78754500D01*
X33572656Y-78754500D01*
X33777344Y-78754500D01*
X33777347Y-78754500D01*
X33978556Y-78716888D01*
X34169427Y-78642944D01*
X34343462Y-78535186D01*
X34494732Y-78397285D01*
X34618088Y-78233935D01*
X34709328Y-78050701D01*
X34765345Y-77853821D01*
X34784232Y-77650000D01*
X34784232Y-77649999D01*
X35105768Y-77649999D01*
X35105768Y-77650000D01*
X35124654Y-77853816D01*
X35180673Y-78050704D01*
X35271912Y-78233935D01*
X35395269Y-78397287D01*
X35546534Y-78535183D01*
X35546536Y-78535184D01*
X35546538Y-78535186D01*
X35655780Y-78602825D01*
X35702413Y-78654850D01*
X35714500Y-78708250D01*
X35714500Y-79358528D01*
X35694815Y-79425567D01*
X35642012Y-79471322D01*
X35597965Y-79491437D01*
X35597953Y-79491443D01*
X35477005Y-79569172D01*
X35476998Y-79569178D01*
X35400535Y-79635433D01*
X35400532Y-79635435D01*
X35306385Y-79744087D01*
X35306374Y-79744103D01*
X35251676Y-79829214D01*
X35251667Y-79829230D01*
X35191947Y-79960000D01*
X35191942Y-79960012D01*
X35163439Y-80057088D01*
X35163438Y-80057093D01*
X35142977Y-80199407D01*
X35142976Y-80199409D01*
X35142976Y-80300591D01*
X35143238Y-80302413D01*
X35144500Y-80320060D01*
X35144500Y-80679940D01*
X35143238Y-80697584D01*
X35142976Y-80699402D01*
X35142976Y-80800590D01*
X35142977Y-80800592D01*
X35163438Y-80942906D01*
X35163439Y-80942911D01*
X35191942Y-81039987D01*
X35191947Y-81039999D01*
X35251667Y-81170769D01*
X35251676Y-81170785D01*
X35306374Y-81255896D01*
X35306385Y-81255912D01*
X35400532Y-81364564D01*
X35400535Y-81364566D01*
X35476998Y-81430821D01*
X35477005Y-81430827D01*
X35597953Y-81508556D01*
X35597955Y-81508556D01*
X35597959Y-81508559D01*
X35690001Y-81550593D01*
X35827956Y-81591100D01*
X35928111Y-81605500D01*
X35928114Y-81605500D01*
X36549996Y-81605500D01*
X36550000Y-81605500D01*
X36637270Y-81594622D01*
X36637280Y-81594617D01*
X36643035Y-81593033D01*
X36693840Y-81589878D01*
X36698605Y-81590572D01*
X36698607Y-81590573D01*
X36766740Y-81600500D01*
X36766741Y-81600500D01*
X37833255Y-81600500D01*
X37833260Y-81600500D01*
X37901393Y-81590573D01*
X37901394Y-81590572D01*
X37910924Y-81589184D01*
X37911287Y-81591680D01*
X37951097Y-81588996D01*
X38050000Y-81605500D01*
X38050001Y-81605500D01*
X38671886Y-81605500D01*
X38671889Y-81605500D01*
X38772044Y-81591100D01*
X38909999Y-81550593D01*
X39002041Y-81508559D01*
X39122995Y-81430827D01*
X39199469Y-81364562D01*
X39260177Y-81294500D01*
X39293614Y-81255912D01*
X39293616Y-81255909D01*
X39293623Y-81255901D01*
X39348326Y-81170781D01*
X39348329Y-81170773D01*
X39348332Y-81170769D01*
X39383255Y-81094297D01*
X39408054Y-81039996D01*
X39411941Y-81026760D01*
X39436560Y-80942911D01*
X39436561Y-80942906D01*
X39440474Y-80915690D01*
X39457023Y-80800593D01*
X39457024Y-80699408D01*
X39456762Y-80697584D01*
X39455500Y-80679940D01*
X39455500Y-80320060D01*
X39456762Y-80302413D01*
X39457024Y-80300592D01*
X39457023Y-80199407D01*
X39455670Y-80189999D01*
X47805768Y-80189999D01*
X47805768Y-80190000D01*
X47824654Y-80393816D01*
X47824654Y-80393818D01*
X47824655Y-80393821D01*
X47880672Y-80590701D01*
X47880673Y-80590704D01*
X47971912Y-80773935D01*
X48095269Y-80937287D01*
X48246537Y-81075185D01*
X48246539Y-81075187D01*
X48420569Y-81182942D01*
X48420575Y-81182945D01*
X48461010Y-81198609D01*
X48611444Y-81256888D01*
X48812653Y-81294500D01*
X48812656Y-81294500D01*
X49017344Y-81294500D01*
X49017347Y-81294500D01*
X49218556Y-81256888D01*
X49409427Y-81182944D01*
X49583462Y-81075186D01*
X49734732Y-80937285D01*
X49858088Y-80773935D01*
X49949328Y-80590701D01*
X50005345Y-80393821D01*
X50024232Y-80190000D01*
X50005345Y-79986179D01*
X49949328Y-79789299D01*
X49858088Y-79606065D01*
X49734732Y-79442715D01*
X49734730Y-79442712D01*
X49583462Y-79304814D01*
X49583460Y-79304812D01*
X49409430Y-79197057D01*
X49409424Y-79197054D01*
X49258993Y-79138777D01*
X49218556Y-79123112D01*
X49017347Y-79085500D01*
X48812653Y-79085500D01*
X48611444Y-79123112D01*
X48611441Y-79123112D01*
X48611441Y-79123113D01*
X48420575Y-79197054D01*
X48420569Y-79197057D01*
X48246539Y-79304812D01*
X48246537Y-79304814D01*
X48095269Y-79442712D01*
X47971912Y-79606064D01*
X47880673Y-79789295D01*
X47880672Y-79789299D01*
X47832103Y-79960004D01*
X47824654Y-79986183D01*
X47805768Y-80189999D01*
X39455670Y-80189999D01*
X39436561Y-80057092D01*
X39436560Y-80057088D01*
X39408057Y-79960012D01*
X39408052Y-79960000D01*
X39348332Y-79829230D01*
X39348323Y-79829214D01*
X39322671Y-79789299D01*
X39293623Y-79744099D01*
X39285784Y-79735052D01*
X39256762Y-79671495D01*
X39255500Y-79653852D01*
X39255500Y-78708250D01*
X39275185Y-78641211D01*
X39314218Y-78602826D01*
X39423462Y-78535186D01*
X39574732Y-78397285D01*
X39698088Y-78233935D01*
X39789328Y-78050701D01*
X39845345Y-77853821D01*
X39864232Y-77650000D01*
X39864232Y-77649999D01*
X40185768Y-77649999D01*
X40185768Y-77650000D01*
X40204654Y-77853816D01*
X40260673Y-78050704D01*
X40351912Y-78233935D01*
X40475269Y-78397287D01*
X40626537Y-78535185D01*
X40626539Y-78535187D01*
X40800569Y-78642942D01*
X40800575Y-78642945D01*
X40831306Y-78654850D01*
X40991444Y-78716888D01*
X41192653Y-78754500D01*
X41192656Y-78754500D01*
X41397344Y-78754500D01*
X41397347Y-78754500D01*
X41598556Y-78716888D01*
X41789427Y-78642944D01*
X41963462Y-78535186D01*
X42114732Y-78397285D01*
X42238088Y-78233935D01*
X42329328Y-78050701D01*
X42385345Y-77853821D01*
X42404232Y-77650000D01*
X42404232Y-77649999D01*
X42725768Y-77649999D01*
X42725768Y-77650000D01*
X42744654Y-77853816D01*
X42800673Y-78050704D01*
X42891912Y-78233935D01*
X43015269Y-78397287D01*
X43166537Y-78535185D01*
X43166539Y-78535187D01*
X43340569Y-78642942D01*
X43340575Y-78642945D01*
X43371306Y-78654850D01*
X43531444Y-78716888D01*
X43732653Y-78754500D01*
X43732656Y-78754500D01*
X43937344Y-78754500D01*
X43937347Y-78754500D01*
X44138556Y-78716888D01*
X44329427Y-78642944D01*
X44503462Y-78535186D01*
X44654732Y-78397285D01*
X44778088Y-78233935D01*
X44869328Y-78050701D01*
X44925345Y-77853821D01*
X44944232Y-77650000D01*
X44944232Y-77649999D01*
X45265768Y-77649999D01*
X45265768Y-77650000D01*
X45284654Y-77853816D01*
X45340673Y-78050704D01*
X45431912Y-78233935D01*
X45555269Y-78397287D01*
X45706537Y-78535185D01*
X45706539Y-78535187D01*
X45880569Y-78642942D01*
X45880575Y-78642945D01*
X45911306Y-78654850D01*
X46071444Y-78716888D01*
X46272653Y-78754500D01*
X46272656Y-78754500D01*
X46477344Y-78754500D01*
X46477347Y-78754500D01*
X46678556Y-78716888D01*
X46869427Y-78642944D01*
X47043462Y-78535186D01*
X47194732Y-78397285D01*
X47318088Y-78233935D01*
X47409328Y-78050701D01*
X47465345Y-77853821D01*
X47484232Y-77650000D01*
X47484232Y-77649999D01*
X47805768Y-77649999D01*
X47805768Y-77650000D01*
X47824654Y-77853816D01*
X47880673Y-78050704D01*
X47971912Y-78233935D01*
X48095269Y-78397287D01*
X48246537Y-78535185D01*
X48246539Y-78535187D01*
X48420569Y-78642942D01*
X48420575Y-78642945D01*
X48451306Y-78654850D01*
X48611444Y-78716888D01*
X48812653Y-78754500D01*
X48812656Y-78754500D01*
X49017344Y-78754500D01*
X49017347Y-78754500D01*
X49218556Y-78716888D01*
X49409427Y-78642944D01*
X49583462Y-78535186D01*
X49734732Y-78397285D01*
X49858088Y-78233935D01*
X49949328Y-78050701D01*
X50005345Y-77853821D01*
X50024232Y-77650000D01*
X50005345Y-77446179D01*
X49949328Y-77249299D01*
X49858088Y-77066065D01*
X49734732Y-76902715D01*
X49734730Y-76902712D01*
X49583462Y-76764814D01*
X49583460Y-76764812D01*
X49409430Y-76657057D01*
X49409424Y-76657054D01*
X49258993Y-76598777D01*
X49218556Y-76583112D01*
X49017347Y-76545500D01*
X48812653Y-76545500D01*
X48611444Y-76583112D01*
X48611441Y-76583112D01*
X48611441Y-76583113D01*
X48420575Y-76657054D01*
X48420569Y-76657057D01*
X48246539Y-76764812D01*
X48246537Y-76764814D01*
X48095269Y-76902712D01*
X47971912Y-77066064D01*
X47880673Y-77249295D01*
X47824654Y-77446183D01*
X47805768Y-77649999D01*
X47484232Y-77649999D01*
X47465345Y-77446179D01*
X47409328Y-77249299D01*
X47318088Y-77066065D01*
X47194732Y-76902715D01*
X47194730Y-76902712D01*
X47043462Y-76764814D01*
X47043460Y-76764812D01*
X46869430Y-76657057D01*
X46869424Y-76657054D01*
X46718993Y-76598777D01*
X46678556Y-76583112D01*
X46477347Y-76545500D01*
X46272653Y-76545500D01*
X46071444Y-76583112D01*
X46071441Y-76583112D01*
X46071441Y-76583113D01*
X45880575Y-76657054D01*
X45880569Y-76657057D01*
X45706539Y-76764812D01*
X45706537Y-76764814D01*
X45555269Y-76902712D01*
X45431912Y-77066064D01*
X45340673Y-77249295D01*
X45284654Y-77446183D01*
X45265768Y-77649999D01*
X44944232Y-77649999D01*
X44925345Y-77446179D01*
X44869328Y-77249299D01*
X44778088Y-77066065D01*
X44654732Y-76902715D01*
X44654730Y-76902712D01*
X44503462Y-76764814D01*
X44503460Y-76764812D01*
X44329430Y-76657057D01*
X44329424Y-76657054D01*
X44178993Y-76598777D01*
X44138556Y-76583112D01*
X43937347Y-76545500D01*
X43732653Y-76545500D01*
X43531444Y-76583112D01*
X43531441Y-76583112D01*
X43531441Y-76583113D01*
X43340575Y-76657054D01*
X43340569Y-76657057D01*
X43166539Y-76764812D01*
X43166537Y-76764814D01*
X43015269Y-76902712D01*
X42891912Y-77066064D01*
X42800673Y-77249295D01*
X42744654Y-77446183D01*
X42725768Y-77649999D01*
X42404232Y-77649999D01*
X42385345Y-77446179D01*
X42329328Y-77249299D01*
X42238088Y-77066065D01*
X42114732Y-76902715D01*
X42114730Y-76902712D01*
X41963462Y-76764814D01*
X41963460Y-76764812D01*
X41789430Y-76657057D01*
X41789424Y-76657054D01*
X41638993Y-76598777D01*
X41598556Y-76583112D01*
X41397347Y-76545500D01*
X41192653Y-76545500D01*
X40991444Y-76583112D01*
X40991441Y-76583112D01*
X40991441Y-76583113D01*
X40800575Y-76657054D01*
X40800569Y-76657057D01*
X40626539Y-76764812D01*
X40626537Y-76764814D01*
X40475269Y-76902712D01*
X40351912Y-77066064D01*
X40260673Y-77249295D01*
X40204654Y-77446183D01*
X40185768Y-77649999D01*
X39864232Y-77649999D01*
X39845345Y-77446179D01*
X39789328Y-77249299D01*
X39698088Y-77066065D01*
X39574732Y-76902715D01*
X39574730Y-76902712D01*
X39423462Y-76764814D01*
X39423460Y-76764812D01*
X39249430Y-76657057D01*
X39249424Y-76657054D01*
X39098993Y-76598777D01*
X39058556Y-76583112D01*
X38857347Y-76545500D01*
X38652653Y-76545500D01*
X38451444Y-76583112D01*
X38451441Y-76583112D01*
X38451441Y-76583113D01*
X38260575Y-76657054D01*
X38260569Y-76657057D01*
X38086539Y-76764812D01*
X38086537Y-76764814D01*
X37935269Y-76902712D01*
X37811912Y-77066064D01*
X37720673Y-77249295D01*
X37664654Y-77446183D01*
X37645768Y-77649999D01*
X37645768Y-77650000D01*
X37664654Y-77853816D01*
X37720672Y-78050702D01*
X37745336Y-78100234D01*
X37757596Y-78169020D01*
X37730722Y-78233514D01*
X37673246Y-78273242D01*
X37603416Y-78275588D01*
X37593381Y-78272547D01*
X37568057Y-78263686D01*
X37400003Y-78244751D01*
X37400002Y-78244751D01*
X37400000Y-78244751D01*
X37388062Y-78246096D01*
X37364469Y-78248754D01*
X37295648Y-78236698D01*
X37244269Y-78189348D01*
X37226646Y-78121737D01*
X37239588Y-78070260D01*
X37249328Y-78050701D01*
X37305345Y-77853821D01*
X37324232Y-77650000D01*
X37305345Y-77446179D01*
X37249328Y-77249299D01*
X37158088Y-77066065D01*
X37034732Y-76902715D01*
X37034730Y-76902712D01*
X36883462Y-76764814D01*
X36883460Y-76764812D01*
X36709430Y-76657057D01*
X36709424Y-76657054D01*
X36558993Y-76598777D01*
X36518556Y-76583112D01*
X36317347Y-76545500D01*
X36112653Y-76545500D01*
X35911444Y-76583112D01*
X35911441Y-76583112D01*
X35911441Y-76583113D01*
X35720575Y-76657054D01*
X35720569Y-76657057D01*
X35546539Y-76764812D01*
X35546537Y-76764814D01*
X35395269Y-76902712D01*
X35271912Y-77066064D01*
X35180673Y-77249295D01*
X35124654Y-77446183D01*
X35105768Y-77649999D01*
X34784232Y-77649999D01*
X34765345Y-77446179D01*
X34709328Y-77249299D01*
X34618088Y-77066065D01*
X34494732Y-76902715D01*
X34494730Y-76902712D01*
X34343462Y-76764814D01*
X34343460Y-76764812D01*
X34169430Y-76657057D01*
X34169424Y-76657054D01*
X34018993Y-76598777D01*
X33978556Y-76583112D01*
X33777347Y-76545500D01*
X33572653Y-76545500D01*
X33371444Y-76583112D01*
X33371441Y-76583112D01*
X33371441Y-76583113D01*
X33180575Y-76657054D01*
X33180569Y-76657057D01*
X33006539Y-76764812D01*
X33006537Y-76764814D01*
X32855269Y-76902712D01*
X32731912Y-77066064D01*
X32640673Y-77249295D01*
X32584654Y-77446183D01*
X32565768Y-77649999D01*
X32244232Y-77649999D01*
X32225345Y-77446179D01*
X32169328Y-77249299D01*
X32078088Y-77066065D01*
X31954732Y-76902715D01*
X31954730Y-76902712D01*
X31803462Y-76764814D01*
X31803460Y-76764812D01*
X31629430Y-76657057D01*
X31629424Y-76657054D01*
X31478993Y-76598777D01*
X31438556Y-76583112D01*
X31237347Y-76545500D01*
X31032653Y-76545500D01*
X30831444Y-76583112D01*
X30831441Y-76583112D01*
X30831441Y-76583113D01*
X30640575Y-76657054D01*
X30640569Y-76657057D01*
X30466539Y-76764812D01*
X30466537Y-76764814D01*
X30315269Y-76902712D01*
X30191912Y-77066064D01*
X30100673Y-77249295D01*
X30044654Y-77446183D01*
X30025768Y-77649999D01*
X27534894Y-77649999D01*
X26509444Y-76624549D01*
X26509435Y-76624539D01*
X26468008Y-76583112D01*
X26354792Y-76469896D01*
X26354788Y-76469893D01*
X26354784Y-76469889D01*
X26182820Y-76344951D01*
X25993414Y-76248444D01*
X25993413Y-76248443D01*
X25993412Y-76248443D01*
X25791243Y-76182754D01*
X25791241Y-76182753D01*
X25791240Y-76182753D01*
X25629957Y-76157208D01*
X25581287Y-76149500D01*
X25581286Y-76149500D01*
X23466894Y-76149500D01*
X23399855Y-76129815D01*
X23354100Y-76077011D01*
X23344156Y-76007853D01*
X23373181Y-75944297D01*
X23394007Y-75925183D01*
X23407073Y-75915690D01*
X23540690Y-75782073D01*
X23651760Y-75629199D01*
X23737547Y-75460832D01*
X23795940Y-75281118D01*
X23825500Y-75094486D01*
X23825500Y-74905513D01*
X23795940Y-74718881D01*
X23768846Y-74635497D01*
X23737547Y-74539168D01*
X23737545Y-74539165D01*
X23737545Y-74539163D01*
X23675241Y-74416886D01*
X23651760Y-74370801D01*
X23540690Y-74217927D01*
X23407073Y-74084310D01*
X23254199Y-73973240D01*
X23085836Y-73887454D01*
X22906118Y-73829059D01*
X22719486Y-73799500D01*
X22719481Y-73799500D01*
X22280519Y-73799500D01*
X22280514Y-73799500D01*
X22093881Y-73829059D01*
X21914163Y-73887454D01*
X21745800Y-73973240D01*
X21658579Y-74036610D01*
X21592927Y-74084310D01*
X21592925Y-74084312D01*
X21592924Y-74084312D01*
X21459312Y-74217924D01*
X21459312Y-74217925D01*
X21459310Y-74217927D01*
X21446771Y-74235186D01*
X21348240Y-74370800D01*
X21262454Y-74539163D01*
X21204059Y-74718881D01*
X21174500Y-74905513D01*
X21174500Y-75094486D01*
X21204059Y-75281118D01*
X21262454Y-75460836D01*
X21348240Y-75629199D01*
X21459310Y-75782073D01*
X21592927Y-75915690D01*
X21745801Y-76026760D01*
X21855554Y-76082681D01*
X21864394Y-76087186D01*
X21915190Y-76135161D01*
X21931985Y-76202982D01*
X21909448Y-76269116D01*
X21864394Y-76308156D01*
X21792180Y-76344951D01*
X21620213Y-76469890D01*
X21469890Y-76620213D01*
X21344951Y-76792179D01*
X21248444Y-76981585D01*
X21182753Y-77183760D01*
X21172373Y-77249299D01*
X21149500Y-77393713D01*
X20500000Y-77393713D01*
X20500000Y-62893713D01*
X21149500Y-62893713D01*
X21149500Y-63106286D01*
X21181953Y-63311191D01*
X21182754Y-63316243D01*
X21183994Y-63320060D01*
X21248444Y-63518414D01*
X21344951Y-63707820D01*
X21469890Y-63879786D01*
X21620213Y-64030109D01*
X21792182Y-64155050D01*
X21792184Y-64155051D01*
X21864393Y-64191843D01*
X21915189Y-64239817D01*
X21931985Y-64307638D01*
X21909448Y-64373773D01*
X21864395Y-64412812D01*
X21745803Y-64473238D01*
X21697193Y-64508556D01*
X21592927Y-64584310D01*
X21592925Y-64584312D01*
X21592924Y-64584312D01*
X21459312Y-64717924D01*
X21459312Y-64717925D01*
X21459310Y-64717927D01*
X21411610Y-64783579D01*
X21348240Y-64870800D01*
X21262454Y-65039163D01*
X21204059Y-65218881D01*
X21174500Y-65405513D01*
X21174500Y-65594486D01*
X21204059Y-65781118D01*
X21262454Y-65960836D01*
X21348240Y-66129199D01*
X21459310Y-66282073D01*
X21592927Y-66415690D01*
X21677705Y-66477285D01*
X21745802Y-66526761D01*
X21820881Y-66565015D01*
X21871677Y-66612989D01*
X21888473Y-66680810D01*
X21865936Y-66746945D01*
X21811221Y-66790397D01*
X21764591Y-66799500D01*
X21735637Y-66799500D01*
X21618246Y-66814953D01*
X21618237Y-66814956D01*
X21472160Y-66875463D01*
X21346718Y-66971718D01*
X21250463Y-67097160D01*
X21189956Y-67243237D01*
X21189955Y-67243239D01*
X21174501Y-67360629D01*
X21174501Y-67360636D01*
X21174500Y-67360645D01*
X21174500Y-68639363D01*
X21189953Y-68756753D01*
X21189956Y-68756762D01*
X21246352Y-68892915D01*
X21250464Y-68902841D01*
X21346718Y-69028282D01*
X21472159Y-69124536D01*
X21618238Y-69185044D01*
X21735639Y-69200500D01*
X23264360Y-69200499D01*
X23264363Y-69200499D01*
X23381753Y-69185046D01*
X23381757Y-69185044D01*
X23381762Y-69185044D01*
X23527841Y-69124536D01*
X23527845Y-69124532D01*
X23534881Y-69120472D01*
X23536023Y-69122450D01*
X23590165Y-69101507D01*
X23658613Y-69115532D01*
X23708612Y-69164336D01*
X23724289Y-69232424D01*
X23715068Y-69272527D01*
X23682185Y-69351913D01*
X23682182Y-69351925D01*
X23649500Y-69516228D01*
X23649500Y-69683771D01*
X23682182Y-69848074D01*
X23682184Y-69848082D01*
X23746295Y-70002860D01*
X23839373Y-70142162D01*
X23957837Y-70260626D01*
X24050494Y-70322537D01*
X24097137Y-70353703D01*
X24251918Y-70417816D01*
X24416228Y-70450499D01*
X24416232Y-70450500D01*
X24416233Y-70450500D01*
X24583768Y-70450500D01*
X24583769Y-70450499D01*
X24748082Y-70417816D01*
X24902863Y-70353703D01*
X25042162Y-70260626D01*
X25160626Y-70142162D01*
X25253703Y-70002863D01*
X25317816Y-69848082D01*
X25350500Y-69683767D01*
X25350500Y-69516233D01*
X25317816Y-69351918D01*
X25253703Y-69197137D01*
X25222537Y-69150494D01*
X25160626Y-69057837D01*
X25042162Y-68939373D01*
X24902860Y-68846295D01*
X24748082Y-68782184D01*
X24748074Y-68782182D01*
X24583771Y-68749500D01*
X24583767Y-68749500D01*
X24416233Y-68749500D01*
X24416228Y-68749500D01*
X24251925Y-68782182D01*
X24251917Y-68782184D01*
X24097140Y-68846295D01*
X23988780Y-68918698D01*
X23922102Y-68939575D01*
X23854722Y-68921090D01*
X23808033Y-68869111D01*
X23796857Y-68800140D01*
X23805328Y-68768145D01*
X23810044Y-68756762D01*
X23825500Y-68639361D01*
X23825499Y-67360640D01*
X23825499Y-67360639D01*
X23825499Y-67360636D01*
X23810046Y-67243246D01*
X23810044Y-67243239D01*
X23810044Y-67243238D01*
X23749536Y-67097159D01*
X23653282Y-66971718D01*
X23527841Y-66875464D01*
X23430671Y-66835215D01*
X23381762Y-66814956D01*
X23381760Y-66814955D01*
X23264370Y-66799501D01*
X23264367Y-66799500D01*
X23264361Y-66799500D01*
X23264354Y-66799500D01*
X23235414Y-66799500D01*
X23168375Y-66779815D01*
X23122620Y-66727011D01*
X23112676Y-66657853D01*
X23141701Y-66594297D01*
X23179119Y-66565015D01*
X23254199Y-66526760D01*
X23407073Y-66415690D01*
X23540690Y-66282073D01*
X23651760Y-66129199D01*
X23737547Y-65960832D01*
X23795940Y-65781118D01*
X23804036Y-65730000D01*
X23825500Y-65594486D01*
X23825500Y-65405513D01*
X23795940Y-65218881D01*
X23737545Y-65039163D01*
X23651759Y-64870800D01*
X23632879Y-64844814D01*
X23540690Y-64717927D01*
X23407073Y-64584310D01*
X23394006Y-64574816D01*
X23351342Y-64519486D01*
X23345364Y-64449873D01*
X23377971Y-64388078D01*
X23438810Y-64353722D01*
X23466894Y-64350500D01*
X31389243Y-64350500D01*
X31456282Y-64370185D01*
X31476924Y-64386819D01*
X35328181Y-68238076D01*
X35361666Y-68299399D01*
X35364500Y-68325757D01*
X35364500Y-72733711D01*
X35344815Y-72800750D01*
X35292011Y-72846505D01*
X35222853Y-72856449D01*
X35159297Y-72827424D01*
X35129500Y-72788983D01*
X35125725Y-72781403D01*
X35118088Y-72766065D01*
X34994732Y-72602715D01*
X34994730Y-72602712D01*
X34843462Y-72464814D01*
X34843460Y-72464812D01*
X34669430Y-72357057D01*
X34669424Y-72357054D01*
X34539709Y-72306803D01*
X34504704Y-72293242D01*
X34449305Y-72250670D01*
X34425714Y-72184903D01*
X34425500Y-72177616D01*
X34425500Y-69116232D01*
X34425499Y-69116228D01*
X34392817Y-68951924D01*
X34392816Y-68951918D01*
X34381328Y-68924185D01*
X34372950Y-68892920D01*
X34360687Y-68799764D01*
X34302698Y-68659767D01*
X34210451Y-68539549D01*
X34090233Y-68447302D01*
X34090229Y-68447300D01*
X34026801Y-68421027D01*
X33950236Y-68389313D01*
X33936171Y-68387461D01*
X33837727Y-68374500D01*
X33837720Y-68374500D01*
X33796663Y-68374500D01*
X33772472Y-68372117D01*
X33658770Y-68349500D01*
X33658767Y-68349500D01*
X33491233Y-68349500D01*
X33491229Y-68349500D01*
X33377528Y-68372117D01*
X33353337Y-68374500D01*
X33312272Y-68374500D01*
X33199764Y-68389313D01*
X33199763Y-68389313D01*
X33059770Y-68447300D01*
X33059767Y-68447301D01*
X33059767Y-68447302D01*
X32939549Y-68539549D01*
X32939548Y-68539550D01*
X32939547Y-68539551D01*
X32898375Y-68593207D01*
X32841947Y-68634410D01*
X32772201Y-68638564D01*
X32711281Y-68604351D01*
X32701625Y-68593207D01*
X32680702Y-68565941D01*
X32660451Y-68539549D01*
X32540233Y-68447302D01*
X32540229Y-68447300D01*
X32476801Y-68421027D01*
X32400236Y-68389313D01*
X32386171Y-68387461D01*
X32287727Y-68374500D01*
X32287720Y-68374500D01*
X32246663Y-68374500D01*
X32222472Y-68372117D01*
X32108770Y-68349500D01*
X32108767Y-68349500D01*
X31941233Y-68349500D01*
X31941229Y-68349500D01*
X31827528Y-68372117D01*
X31803337Y-68374500D01*
X31762272Y-68374500D01*
X31649764Y-68389313D01*
X31649763Y-68389313D01*
X31509770Y-68447300D01*
X31509767Y-68447301D01*
X31509767Y-68447302D01*
X31389549Y-68539549D01*
X31312954Y-68639370D01*
X31297300Y-68659770D01*
X31239313Y-68799763D01*
X31239313Y-68799764D01*
X31227048Y-68892921D01*
X31218671Y-68924183D01*
X31207185Y-68951912D01*
X31207181Y-68951925D01*
X31174500Y-69116228D01*
X31174500Y-72121500D01*
X31154815Y-72188539D01*
X31102011Y-72234294D01*
X31050500Y-72245500D01*
X30847739Y-72245500D01*
X30779608Y-72255426D01*
X30674514Y-72306803D01*
X30591803Y-72389514D01*
X30540426Y-72494608D01*
X30530500Y-72562739D01*
X30530500Y-74137260D01*
X30540426Y-74205391D01*
X30591803Y-74310485D01*
X30674514Y-74393196D01*
X30674515Y-74393196D01*
X30674517Y-74393198D01*
X30779607Y-74444573D01*
X30813673Y-74449536D01*
X30847739Y-74454500D01*
X30847740Y-74454500D01*
X32422261Y-74454500D01*
X32444971Y-74451191D01*
X32490393Y-74444573D01*
X32595483Y-74393198D01*
X32678198Y-74310483D01*
X32729573Y-74205393D01*
X32739500Y-74137260D01*
X32739500Y-73459148D01*
X32759185Y-73392109D01*
X32760359Y-73390315D01*
X32777421Y-73364780D01*
X32831032Y-73319977D01*
X32900357Y-73311270D01*
X32963385Y-73341425D01*
X32968203Y-73345992D01*
X33043663Y-73421452D01*
X33077148Y-73482775D01*
X33079453Y-73497690D01*
X33084654Y-73553817D01*
X33140673Y-73750704D01*
X33231912Y-73933935D01*
X33355269Y-74097287D01*
X33487604Y-74217925D01*
X33500614Y-74229786D01*
X33506537Y-74235185D01*
X33506539Y-74235187D01*
X33680569Y-74342942D01*
X33680575Y-74342945D01*
X33721010Y-74358609D01*
X33871444Y-74416888D01*
X34072653Y-74454500D01*
X34072656Y-74454500D01*
X34277344Y-74454500D01*
X34277347Y-74454500D01*
X34478556Y-74416888D01*
X34669427Y-74342944D01*
X34843462Y-74235186D01*
X34994732Y-74097285D01*
X35118088Y-73933935D01*
X35204757Y-73759881D01*
X35252260Y-73708644D01*
X35319923Y-73691223D01*
X35386263Y-73713149D01*
X35430218Y-73767460D01*
X35433685Y-73776828D01*
X35450656Y-73829059D01*
X35463444Y-73868414D01*
X35559951Y-74057820D01*
X35684890Y-74229786D01*
X35835213Y-74380109D01*
X36007179Y-74505048D01*
X36007181Y-74505049D01*
X36007184Y-74505051D01*
X36196588Y-74601557D01*
X36398757Y-74667246D01*
X36608713Y-74700500D01*
X36608714Y-74700500D01*
X36821286Y-74700500D01*
X36821287Y-74700500D01*
X37031243Y-74667246D01*
X37233412Y-74601557D01*
X37422816Y-74505051D01*
X37492394Y-74454500D01*
X37594786Y-74380109D01*
X37594788Y-74380106D01*
X37594792Y-74380104D01*
X37745104Y-74229792D01*
X37745106Y-74229788D01*
X37745109Y-74229786D01*
X37870048Y-74057820D01*
X37870047Y-74057820D01*
X37870051Y-74057816D01*
X37966557Y-73868412D01*
X37996312Y-73776833D01*
X38035748Y-73719160D01*
X38100106Y-73691961D01*
X38168953Y-73703875D01*
X38220429Y-73751119D01*
X38225242Y-73759881D01*
X38311912Y-73933935D01*
X38435269Y-74097287D01*
X38567604Y-74217925D01*
X38580614Y-74229786D01*
X38586537Y-74235185D01*
X38586539Y-74235187D01*
X38760569Y-74342942D01*
X38760575Y-74342945D01*
X38801010Y-74358609D01*
X38951444Y-74416888D01*
X39152653Y-74454500D01*
X39152656Y-74454500D01*
X39357344Y-74454500D01*
X39357347Y-74454500D01*
X39558556Y-74416888D01*
X39749427Y-74342944D01*
X39923462Y-74235186D01*
X40074732Y-74097285D01*
X40198088Y-73933935D01*
X40289328Y-73750701D01*
X40345345Y-73553821D01*
X40364232Y-73350000D01*
X40364232Y-73349999D01*
X40685768Y-73349999D01*
X40685768Y-73350000D01*
X40704654Y-73553816D01*
X40760673Y-73750704D01*
X40851912Y-73933935D01*
X40975269Y-74097287D01*
X41107604Y-74217925D01*
X41120614Y-74229786D01*
X41126537Y-74235185D01*
X41126539Y-74235187D01*
X41300569Y-74342942D01*
X41300575Y-74342945D01*
X41341010Y-74358609D01*
X41491444Y-74416888D01*
X41692653Y-74454500D01*
X41692656Y-74454500D01*
X41897344Y-74454500D01*
X41897347Y-74454500D01*
X42098556Y-74416888D01*
X42289427Y-74342944D01*
X42463462Y-74235186D01*
X42614732Y-74097285D01*
X42738088Y-73933935D01*
X42829328Y-73750701D01*
X42885345Y-73553821D01*
X42904232Y-73350000D01*
X42904232Y-73349999D01*
X43225768Y-73349999D01*
X43225768Y-73350000D01*
X43244654Y-73553816D01*
X43300673Y-73750704D01*
X43391912Y-73933935D01*
X43515269Y-74097287D01*
X43647604Y-74217925D01*
X43660614Y-74229786D01*
X43666537Y-74235185D01*
X43666539Y-74235187D01*
X43840569Y-74342942D01*
X43840575Y-74342945D01*
X43881010Y-74358609D01*
X44031444Y-74416888D01*
X44232653Y-74454500D01*
X44232656Y-74454500D01*
X44437344Y-74454500D01*
X44437347Y-74454500D01*
X44638556Y-74416888D01*
X44829427Y-74342944D01*
X45003462Y-74235186D01*
X45154732Y-74097285D01*
X45278088Y-73933935D01*
X45369328Y-73750701D01*
X45425345Y-73553821D01*
X45444232Y-73350000D01*
X45444232Y-73349999D01*
X45765768Y-73349999D01*
X45765768Y-73350000D01*
X45784654Y-73553816D01*
X45840673Y-73750704D01*
X45931912Y-73933935D01*
X46055269Y-74097287D01*
X46187604Y-74217925D01*
X46200614Y-74229786D01*
X46206537Y-74235185D01*
X46206539Y-74235187D01*
X46380569Y-74342942D01*
X46380575Y-74342945D01*
X46421010Y-74358609D01*
X46571444Y-74416888D01*
X46772653Y-74454500D01*
X46772656Y-74454500D01*
X46977344Y-74454500D01*
X46977347Y-74454500D01*
X47178556Y-74416888D01*
X47369427Y-74342944D01*
X47543462Y-74235186D01*
X47694732Y-74097285D01*
X47818088Y-73933935D01*
X47909328Y-73750701D01*
X47965345Y-73553821D01*
X47984232Y-73350000D01*
X47965345Y-73146179D01*
X47909328Y-72949299D01*
X47818088Y-72766065D01*
X47694732Y-72602715D01*
X47694730Y-72602712D01*
X47543462Y-72464814D01*
X47543460Y-72464812D01*
X47369430Y-72357057D01*
X47369424Y-72357054D01*
X47204707Y-72293243D01*
X47178556Y-72283112D01*
X46977347Y-72245500D01*
X46772653Y-72245500D01*
X46571444Y-72283112D01*
X46571441Y-72283112D01*
X46571441Y-72283113D01*
X46380575Y-72357054D01*
X46380569Y-72357057D01*
X46206539Y-72464812D01*
X46206537Y-72464814D01*
X46055269Y-72602712D01*
X45931912Y-72766064D01*
X45840673Y-72949295D01*
X45784654Y-73146183D01*
X45765768Y-73349999D01*
X45444232Y-73349999D01*
X45425345Y-73146179D01*
X45369328Y-72949299D01*
X45278088Y-72766065D01*
X45154732Y-72602715D01*
X45154730Y-72602712D01*
X45003462Y-72464814D01*
X45003460Y-72464812D01*
X44829430Y-72357057D01*
X44829424Y-72357054D01*
X44664707Y-72293243D01*
X44638556Y-72283112D01*
X44437347Y-72245500D01*
X44232653Y-72245500D01*
X44031444Y-72283112D01*
X44031441Y-72283112D01*
X44031441Y-72283113D01*
X43840575Y-72357054D01*
X43840569Y-72357057D01*
X43666539Y-72464812D01*
X43666537Y-72464814D01*
X43515269Y-72602712D01*
X43391912Y-72766064D01*
X43300673Y-72949295D01*
X43244654Y-73146183D01*
X43225768Y-73349999D01*
X42904232Y-73349999D01*
X42885345Y-73146179D01*
X42829328Y-72949299D01*
X42738088Y-72766065D01*
X42614732Y-72602715D01*
X42614730Y-72602712D01*
X42463462Y-72464814D01*
X42463460Y-72464812D01*
X42289430Y-72357057D01*
X42289424Y-72357054D01*
X42124707Y-72293243D01*
X42098556Y-72283112D01*
X41897347Y-72245500D01*
X41692653Y-72245500D01*
X41491444Y-72283112D01*
X41491441Y-72283112D01*
X41491441Y-72283113D01*
X41300575Y-72357054D01*
X41300569Y-72357057D01*
X41126539Y-72464812D01*
X41126537Y-72464814D01*
X40975269Y-72602712D01*
X40851912Y-72766064D01*
X40760673Y-72949295D01*
X40704654Y-73146183D01*
X40685768Y-73349999D01*
X40364232Y-73349999D01*
X40345345Y-73146179D01*
X40289328Y-72949299D01*
X40198088Y-72766065D01*
X40074732Y-72602715D01*
X40074730Y-72602712D01*
X39923462Y-72464814D01*
X39923460Y-72464812D01*
X39749430Y-72357057D01*
X39749424Y-72357054D01*
X39584707Y-72293243D01*
X39558556Y-72283112D01*
X39357347Y-72245500D01*
X39152653Y-72245500D01*
X38951444Y-72283112D01*
X38951441Y-72283112D01*
X38951441Y-72283113D01*
X38760575Y-72357054D01*
X38760569Y-72357057D01*
X38586539Y-72464812D01*
X38586537Y-72464814D01*
X38435269Y-72602712D01*
X38311912Y-72766064D01*
X38300500Y-72788983D01*
X38252997Y-72840220D01*
X38185333Y-72857641D01*
X38118993Y-72835715D01*
X38075038Y-72781403D01*
X38065500Y-72733711D01*
X38065500Y-67608713D01*
X38032246Y-67398760D01*
X38032246Y-67398757D01*
X37966557Y-67196588D01*
X37870051Y-67007184D01*
X37870049Y-67007181D01*
X37870048Y-67007179D01*
X37745110Y-66835215D01*
X37745106Y-66835211D01*
X37745104Y-66835208D01*
X37594792Y-66684896D01*
X37594791Y-66684895D01*
X37591680Y-66681784D01*
X37591665Y-66681770D01*
X36639894Y-65729999D01*
X48305768Y-65729999D01*
X48305768Y-65730000D01*
X48324654Y-65933816D01*
X48324654Y-65933818D01*
X48324655Y-65933821D01*
X48380245Y-66129199D01*
X48380673Y-66130704D01*
X48471912Y-66313935D01*
X48595269Y-66477287D01*
X48746537Y-66615185D01*
X48746539Y-66615187D01*
X48920569Y-66722942D01*
X48920575Y-66722945D01*
X48931071Y-66727011D01*
X49111444Y-66796888D01*
X49312653Y-66834500D01*
X49312656Y-66834500D01*
X49517344Y-66834500D01*
X49517347Y-66834500D01*
X49718556Y-66796888D01*
X49909427Y-66722944D01*
X50083462Y-66615186D01*
X50234732Y-66477285D01*
X50358088Y-66313935D01*
X50449328Y-66130701D01*
X50505345Y-65933821D01*
X50524232Y-65730000D01*
X50505345Y-65526179D01*
X50449328Y-65329299D01*
X50358088Y-65146065D01*
X50277363Y-65039168D01*
X50234730Y-64982712D01*
X50083462Y-64844814D01*
X50083460Y-64844812D01*
X49909430Y-64737057D01*
X49909424Y-64737054D01*
X49758993Y-64678777D01*
X49718556Y-64663112D01*
X49517347Y-64625500D01*
X49312653Y-64625500D01*
X49111444Y-64663112D01*
X49111441Y-64663112D01*
X49111441Y-64663113D01*
X48920575Y-64737054D01*
X48920569Y-64737057D01*
X48746539Y-64844812D01*
X48746537Y-64844814D01*
X48595269Y-64982712D01*
X48471912Y-65146064D01*
X48380673Y-65329295D01*
X48324654Y-65526183D01*
X48305768Y-65729999D01*
X36639894Y-65729999D01*
X33034444Y-62124549D01*
X33034435Y-62124539D01*
X32980786Y-62070890D01*
X32879792Y-61969896D01*
X32879788Y-61969893D01*
X32879784Y-61969889D01*
X32707820Y-61844951D01*
X32518414Y-61748444D01*
X32518413Y-61748443D01*
X32518412Y-61748443D01*
X32390296Y-61706815D01*
X32332621Y-61667378D01*
X32305423Y-61603020D01*
X32317338Y-61534173D01*
X32345072Y-61497252D01*
X32454732Y-61397285D01*
X32578088Y-61233935D01*
X32669328Y-61050701D01*
X32725345Y-60853821D01*
X32744232Y-60650000D01*
X32744232Y-60649999D01*
X33065768Y-60649999D01*
X33065768Y-60650000D01*
X33084654Y-60853816D01*
X33084654Y-60853818D01*
X33084655Y-60853821D01*
X33140672Y-61050701D01*
X33140673Y-61050704D01*
X33231912Y-61233935D01*
X33355269Y-61397287D01*
X33506537Y-61535185D01*
X33506539Y-61535187D01*
X33680569Y-61642942D01*
X33680575Y-61642945D01*
X33711306Y-61654850D01*
X33871444Y-61716888D01*
X34072653Y-61754500D01*
X34072656Y-61754500D01*
X34277344Y-61754500D01*
X34277347Y-61754500D01*
X34478556Y-61716888D01*
X34669427Y-61642944D01*
X34843462Y-61535186D01*
X34994732Y-61397285D01*
X35118088Y-61233935D01*
X35209328Y-61050701D01*
X35265345Y-60853821D01*
X35284232Y-60650000D01*
X35284232Y-60649999D01*
X35605768Y-60649999D01*
X35605768Y-60650000D01*
X35624654Y-60853816D01*
X35624654Y-60853818D01*
X35624655Y-60853821D01*
X35680672Y-61050701D01*
X35680673Y-61050704D01*
X35771912Y-61233935D01*
X35895269Y-61397287D01*
X36046534Y-61535183D01*
X36046536Y-61535184D01*
X36046538Y-61535186D01*
X36155780Y-61602825D01*
X36202413Y-61654850D01*
X36214500Y-61708250D01*
X36214500Y-62480054D01*
X36194815Y-62547093D01*
X36171703Y-62573767D01*
X36100530Y-62635437D01*
X36006385Y-62744087D01*
X36006374Y-62744103D01*
X35951676Y-62829214D01*
X35951667Y-62829230D01*
X35891947Y-62960000D01*
X35891942Y-62960012D01*
X35863439Y-63057088D01*
X35863438Y-63057093D01*
X35842977Y-63199407D01*
X35842976Y-63199409D01*
X35842976Y-63300591D01*
X35843238Y-63302413D01*
X35844500Y-63320060D01*
X35844500Y-63679940D01*
X35843238Y-63697584D01*
X35842976Y-63699402D01*
X35842976Y-63800590D01*
X35842977Y-63800592D01*
X35863438Y-63942906D01*
X35863439Y-63942911D01*
X35891942Y-64039987D01*
X35891947Y-64039999D01*
X35951667Y-64170769D01*
X35951676Y-64170785D01*
X35991491Y-64232739D01*
X35996040Y-64239817D01*
X36006374Y-64255896D01*
X36006385Y-64255912D01*
X36100532Y-64364564D01*
X36100535Y-64364566D01*
X36176998Y-64430821D01*
X36177005Y-64430827D01*
X36297953Y-64508556D01*
X36297955Y-64508556D01*
X36297959Y-64508559D01*
X36390001Y-64550593D01*
X36527956Y-64591100D01*
X36628111Y-64605500D01*
X36628114Y-64605500D01*
X37249996Y-64605500D01*
X37250000Y-64605500D01*
X37337270Y-64594622D01*
X37337280Y-64594617D01*
X37343035Y-64593033D01*
X37393840Y-64589878D01*
X37398605Y-64590572D01*
X37398607Y-64590573D01*
X37466740Y-64600500D01*
X37466741Y-64600500D01*
X38533255Y-64600500D01*
X38533260Y-64600500D01*
X38601393Y-64590573D01*
X38601394Y-64590572D01*
X38610924Y-64589184D01*
X38611287Y-64591680D01*
X38651097Y-64588996D01*
X38750000Y-64605500D01*
X38750001Y-64605500D01*
X39371886Y-64605500D01*
X39371889Y-64605500D01*
X39472044Y-64591100D01*
X39609999Y-64550593D01*
X39702041Y-64508559D01*
X39822995Y-64430827D01*
X39899469Y-64364562D01*
X39992770Y-64256886D01*
X39993614Y-64255912D01*
X39993616Y-64255909D01*
X39993623Y-64255901D01*
X40048326Y-64170781D01*
X40048329Y-64170773D01*
X40048332Y-64170769D01*
X40075329Y-64111651D01*
X40108054Y-64039996D01*
X40110959Y-64030104D01*
X40136560Y-63942911D01*
X40136561Y-63942906D01*
X40137369Y-63937285D01*
X40157023Y-63800593D01*
X40157024Y-63699408D01*
X40156762Y-63697584D01*
X40155500Y-63679940D01*
X40155500Y-63320060D01*
X40156762Y-63302413D01*
X40157024Y-63300592D01*
X40157023Y-63199407D01*
X40155670Y-63189999D01*
X48305768Y-63189999D01*
X48305768Y-63190000D01*
X48324654Y-63393816D01*
X48380673Y-63590704D01*
X48471912Y-63773935D01*
X48595269Y-63937287D01*
X48746537Y-64075185D01*
X48746539Y-64075187D01*
X48920569Y-64182942D01*
X48920575Y-64182945D01*
X48943544Y-64191843D01*
X49111444Y-64256888D01*
X49312653Y-64294500D01*
X49312656Y-64294500D01*
X49517344Y-64294500D01*
X49517347Y-64294500D01*
X49718556Y-64256888D01*
X49909427Y-64182944D01*
X50083462Y-64075186D01*
X50234732Y-63937285D01*
X50358088Y-63773935D01*
X50449328Y-63590701D01*
X50505345Y-63393821D01*
X50524232Y-63190000D01*
X50505345Y-62986179D01*
X50449328Y-62789299D01*
X50358088Y-62606065D01*
X50285240Y-62509598D01*
X50234730Y-62442712D01*
X50083462Y-62304814D01*
X50083460Y-62304812D01*
X49909430Y-62197057D01*
X49909424Y-62197054D01*
X49722265Y-62124549D01*
X49718556Y-62123112D01*
X49517347Y-62085500D01*
X49312653Y-62085500D01*
X49111444Y-62123112D01*
X49111441Y-62123112D01*
X49111441Y-62123113D01*
X48920575Y-62197054D01*
X48920569Y-62197057D01*
X48746539Y-62304812D01*
X48746537Y-62304814D01*
X48595269Y-62442712D01*
X48471912Y-62606064D01*
X48380673Y-62789295D01*
X48380672Y-62789299D01*
X48332103Y-62960004D01*
X48324654Y-62986183D01*
X48305768Y-63189999D01*
X40155670Y-63189999D01*
X40136561Y-63057092D01*
X40115740Y-62986179D01*
X40108057Y-62960012D01*
X40108052Y-62960000D01*
X40048332Y-62829230D01*
X40048323Y-62829214D01*
X40022671Y-62789299D01*
X39993623Y-62744099D01*
X39993619Y-62744094D01*
X39993614Y-62744087D01*
X39899467Y-62635435D01*
X39899464Y-62635433D01*
X39823000Y-62569177D01*
X39822997Y-62569175D01*
X39822995Y-62569173D01*
X39822989Y-62569169D01*
X39812460Y-62562402D01*
X39766706Y-62509598D01*
X39755500Y-62458087D01*
X39755500Y-61708250D01*
X39775185Y-61641211D01*
X39814218Y-61602826D01*
X39923462Y-61535186D01*
X40074732Y-61397285D01*
X40198088Y-61233935D01*
X40289328Y-61050701D01*
X40345345Y-60853821D01*
X40364232Y-60650000D01*
X40364232Y-60649999D01*
X40685768Y-60649999D01*
X40685768Y-60650000D01*
X40704654Y-60853816D01*
X40704654Y-60853818D01*
X40704655Y-60853821D01*
X40760672Y-61050701D01*
X40760673Y-61050704D01*
X40851912Y-61233935D01*
X40975269Y-61397287D01*
X41126537Y-61535185D01*
X41126539Y-61535187D01*
X41300569Y-61642942D01*
X41300575Y-61642945D01*
X41331306Y-61654850D01*
X41491444Y-61716888D01*
X41692653Y-61754500D01*
X41692656Y-61754500D01*
X41897344Y-61754500D01*
X41897347Y-61754500D01*
X42098556Y-61716888D01*
X42289427Y-61642944D01*
X42463462Y-61535186D01*
X42614732Y-61397285D01*
X42738088Y-61233935D01*
X42829328Y-61050701D01*
X42885345Y-60853821D01*
X42904232Y-60650000D01*
X42904232Y-60649999D01*
X43225768Y-60649999D01*
X43225768Y-60650000D01*
X43244654Y-60853816D01*
X43244654Y-60853818D01*
X43244655Y-60853821D01*
X43300672Y-61050701D01*
X43300673Y-61050704D01*
X43391912Y-61233935D01*
X43515269Y-61397287D01*
X43666537Y-61535185D01*
X43666539Y-61535187D01*
X43840569Y-61642942D01*
X43840575Y-61642945D01*
X43871306Y-61654850D01*
X44031444Y-61716888D01*
X44232653Y-61754500D01*
X44232656Y-61754500D01*
X44437344Y-61754500D01*
X44437347Y-61754500D01*
X44638556Y-61716888D01*
X44829427Y-61642944D01*
X45003462Y-61535186D01*
X45154732Y-61397285D01*
X45278088Y-61233935D01*
X45369328Y-61050701D01*
X45425345Y-60853821D01*
X45444232Y-60650000D01*
X45444232Y-60649999D01*
X45765768Y-60649999D01*
X45765768Y-60650000D01*
X45784654Y-60853816D01*
X45784654Y-60853818D01*
X45784655Y-60853821D01*
X45840672Y-61050701D01*
X45840673Y-61050704D01*
X45931912Y-61233935D01*
X46055269Y-61397287D01*
X46206537Y-61535185D01*
X46206539Y-61535187D01*
X46380569Y-61642942D01*
X46380575Y-61642945D01*
X46411306Y-61654850D01*
X46571444Y-61716888D01*
X46772653Y-61754500D01*
X46772656Y-61754500D01*
X46977344Y-61754500D01*
X46977347Y-61754500D01*
X47178556Y-61716888D01*
X47369427Y-61642944D01*
X47543462Y-61535186D01*
X47694732Y-61397285D01*
X47818088Y-61233935D01*
X47909328Y-61050701D01*
X47965345Y-60853821D01*
X47984232Y-60650000D01*
X47984232Y-60649999D01*
X48305768Y-60649999D01*
X48305768Y-60650000D01*
X48324654Y-60853816D01*
X48324654Y-60853818D01*
X48324655Y-60853821D01*
X48380672Y-61050701D01*
X48380673Y-61050704D01*
X48471912Y-61233935D01*
X48595269Y-61397287D01*
X48746537Y-61535185D01*
X48746539Y-61535187D01*
X48920569Y-61642942D01*
X48920575Y-61642945D01*
X48951306Y-61654850D01*
X49111444Y-61716888D01*
X49312653Y-61754500D01*
X49312656Y-61754500D01*
X49517344Y-61754500D01*
X49517347Y-61754500D01*
X49718556Y-61716888D01*
X49909427Y-61642944D01*
X50083462Y-61535186D01*
X50234732Y-61397285D01*
X50358088Y-61233935D01*
X50449328Y-61050701D01*
X50505345Y-60853821D01*
X50524232Y-60650000D01*
X50505345Y-60446179D01*
X50449328Y-60249299D01*
X50358088Y-60066065D01*
X50234732Y-59902715D01*
X50234730Y-59902712D01*
X50083462Y-59764814D01*
X50083460Y-59764812D01*
X49909430Y-59657057D01*
X49909424Y-59657054D01*
X49758993Y-59598777D01*
X49718556Y-59583112D01*
X49517347Y-59545500D01*
X49312653Y-59545500D01*
X49111444Y-59583112D01*
X49111441Y-59583112D01*
X49111441Y-59583113D01*
X48920575Y-59657054D01*
X48920569Y-59657057D01*
X48746539Y-59764812D01*
X48746537Y-59764814D01*
X48595269Y-59902712D01*
X48471912Y-60066064D01*
X48380673Y-60249295D01*
X48380672Y-60249299D01*
X48336226Y-60405513D01*
X48324654Y-60446183D01*
X48305768Y-60649999D01*
X47984232Y-60649999D01*
X47965345Y-60446179D01*
X47909328Y-60249299D01*
X47818088Y-60066065D01*
X47694732Y-59902715D01*
X47694730Y-59902712D01*
X47543462Y-59764814D01*
X47543460Y-59764812D01*
X47369430Y-59657057D01*
X47369424Y-59657054D01*
X47218993Y-59598777D01*
X47178556Y-59583112D01*
X46977347Y-59545500D01*
X46772653Y-59545500D01*
X46571444Y-59583112D01*
X46571441Y-59583112D01*
X46571441Y-59583113D01*
X46380575Y-59657054D01*
X46380569Y-59657057D01*
X46206539Y-59764812D01*
X46206537Y-59764814D01*
X46055269Y-59902712D01*
X45931912Y-60066064D01*
X45840673Y-60249295D01*
X45840672Y-60249299D01*
X45796226Y-60405513D01*
X45784654Y-60446183D01*
X45765768Y-60649999D01*
X45444232Y-60649999D01*
X45425345Y-60446179D01*
X45369328Y-60249299D01*
X45278088Y-60066065D01*
X45154732Y-59902715D01*
X45154730Y-59902712D01*
X45003462Y-59764814D01*
X45003460Y-59764812D01*
X44829430Y-59657057D01*
X44829424Y-59657054D01*
X44678993Y-59598777D01*
X44638556Y-59583112D01*
X44437347Y-59545500D01*
X44232653Y-59545500D01*
X44031444Y-59583112D01*
X44031441Y-59583112D01*
X44031441Y-59583113D01*
X43840575Y-59657054D01*
X43840569Y-59657057D01*
X43666539Y-59764812D01*
X43666537Y-59764814D01*
X43515269Y-59902712D01*
X43391912Y-60066064D01*
X43300673Y-60249295D01*
X43300672Y-60249299D01*
X43256226Y-60405513D01*
X43244654Y-60446183D01*
X43225768Y-60649999D01*
X42904232Y-60649999D01*
X42885345Y-60446179D01*
X42829328Y-60249299D01*
X42738088Y-60066065D01*
X42614732Y-59902715D01*
X42614730Y-59902712D01*
X42463462Y-59764814D01*
X42463460Y-59764812D01*
X42289430Y-59657057D01*
X42289424Y-59657054D01*
X42138993Y-59598777D01*
X42098556Y-59583112D01*
X41897347Y-59545500D01*
X41692653Y-59545500D01*
X41491444Y-59583112D01*
X41491441Y-59583112D01*
X41491441Y-59583113D01*
X41300575Y-59657054D01*
X41300569Y-59657057D01*
X41126539Y-59764812D01*
X41126537Y-59764814D01*
X40975269Y-59902712D01*
X40851912Y-60066064D01*
X40760673Y-60249295D01*
X40760672Y-60249299D01*
X40716226Y-60405513D01*
X40704654Y-60446183D01*
X40685768Y-60649999D01*
X40364232Y-60649999D01*
X40345345Y-60446179D01*
X40289328Y-60249299D01*
X40198088Y-60066065D01*
X40074732Y-59902715D01*
X40074730Y-59902712D01*
X39923462Y-59764814D01*
X39923460Y-59764812D01*
X39749430Y-59657057D01*
X39749424Y-59657054D01*
X39598993Y-59598777D01*
X39558556Y-59583112D01*
X39357347Y-59545500D01*
X39152653Y-59545500D01*
X38951444Y-59583112D01*
X38951441Y-59583112D01*
X38951441Y-59583113D01*
X38760575Y-59657054D01*
X38760569Y-59657057D01*
X38586539Y-59764812D01*
X38586537Y-59764814D01*
X38435269Y-59902712D01*
X38311912Y-60066064D01*
X38220673Y-60249295D01*
X38220672Y-60249299D01*
X38176226Y-60405513D01*
X38164654Y-60446183D01*
X38145768Y-60649999D01*
X38145768Y-60650002D01*
X38151483Y-60711682D01*
X38138068Y-60780251D01*
X38089710Y-60830683D01*
X38021764Y-60846964D01*
X38014132Y-60846343D01*
X38004068Y-60845209D01*
X38000000Y-60844751D01*
X37999999Y-60844751D01*
X37999995Y-60844751D01*
X37955552Y-60849758D01*
X37886730Y-60837703D01*
X37835352Y-60790353D01*
X37817728Y-60722743D01*
X37818197Y-60715127D01*
X37824232Y-60650000D01*
X37805345Y-60446179D01*
X37749328Y-60249299D01*
X37658088Y-60066065D01*
X37534732Y-59902715D01*
X37534730Y-59902712D01*
X37383462Y-59764814D01*
X37383460Y-59764812D01*
X37209430Y-59657057D01*
X37209424Y-59657054D01*
X37058993Y-59598777D01*
X37018556Y-59583112D01*
X36817347Y-59545500D01*
X36612653Y-59545500D01*
X36411444Y-59583112D01*
X36411441Y-59583112D01*
X36411441Y-59583113D01*
X36220575Y-59657054D01*
X36220569Y-59657057D01*
X36046539Y-59764812D01*
X36046537Y-59764814D01*
X35895269Y-59902712D01*
X35771912Y-60066064D01*
X35680673Y-60249295D01*
X35680672Y-60249299D01*
X35636226Y-60405513D01*
X35624654Y-60446183D01*
X35605768Y-60649999D01*
X35284232Y-60649999D01*
X35265345Y-60446179D01*
X35209328Y-60249299D01*
X35118088Y-60066065D01*
X34994732Y-59902715D01*
X34994730Y-59902712D01*
X34843462Y-59764814D01*
X34843460Y-59764812D01*
X34669430Y-59657057D01*
X34669424Y-59657054D01*
X34518993Y-59598777D01*
X34478556Y-59583112D01*
X34277347Y-59545500D01*
X34072653Y-59545500D01*
X33871444Y-59583112D01*
X33871441Y-59583112D01*
X33871441Y-59583113D01*
X33680575Y-59657054D01*
X33680569Y-59657057D01*
X33506539Y-59764812D01*
X33506537Y-59764814D01*
X33355269Y-59902712D01*
X33231912Y-60066064D01*
X33140673Y-60249295D01*
X33140672Y-60249299D01*
X33096226Y-60405513D01*
X33084654Y-60446183D01*
X33065768Y-60649999D01*
X32744232Y-60649999D01*
X32725345Y-60446179D01*
X32669328Y-60249299D01*
X32578088Y-60066065D01*
X32454732Y-59902715D01*
X32454730Y-59902712D01*
X32303462Y-59764814D01*
X32303460Y-59764812D01*
X32129430Y-59657057D01*
X32129424Y-59657054D01*
X31978993Y-59598777D01*
X31938556Y-59583112D01*
X31737347Y-59545500D01*
X31532653Y-59545500D01*
X31331444Y-59583112D01*
X31331441Y-59583112D01*
X31331441Y-59583113D01*
X31140575Y-59657054D01*
X31140569Y-59657057D01*
X30966539Y-59764812D01*
X30966537Y-59764814D01*
X30815269Y-59902712D01*
X30691912Y-60066064D01*
X30600673Y-60249295D01*
X30600672Y-60249299D01*
X30556226Y-60405513D01*
X30544654Y-60446183D01*
X30525768Y-60649999D01*
X30525768Y-60650000D01*
X30544654Y-60853816D01*
X30544654Y-60853818D01*
X30544655Y-60853821D01*
X30600672Y-61050701D01*
X30691912Y-61233935D01*
X30815268Y-61397285D01*
X30855393Y-61433864D01*
X30891673Y-61493574D01*
X30889913Y-61563421D01*
X30850670Y-61621229D01*
X30786403Y-61648643D01*
X30771854Y-61649500D01*
X23466894Y-61649500D01*
X23399855Y-61629815D01*
X23354100Y-61577011D01*
X23344156Y-61507853D01*
X23373181Y-61444297D01*
X23394007Y-61425183D01*
X23407073Y-61415690D01*
X23540690Y-61282073D01*
X23651760Y-61129199D01*
X23737547Y-60960832D01*
X23795940Y-60781118D01*
X23806397Y-60715095D01*
X23825500Y-60594486D01*
X23825500Y-60405513D01*
X23795940Y-60218881D01*
X23737545Y-60039163D01*
X23651759Y-59870800D01*
X23540690Y-59717927D01*
X23407073Y-59584310D01*
X23254199Y-59473240D01*
X23085836Y-59387454D01*
X22906118Y-59329059D01*
X22719486Y-59299500D01*
X22719481Y-59299500D01*
X22280519Y-59299500D01*
X22280514Y-59299500D01*
X22093881Y-59329059D01*
X21914163Y-59387454D01*
X21745800Y-59473240D01*
X21658579Y-59536610D01*
X21592927Y-59584310D01*
X21592925Y-59584312D01*
X21592924Y-59584312D01*
X21459312Y-59717924D01*
X21459312Y-59717925D01*
X21459310Y-59717927D01*
X21411610Y-59783579D01*
X21348240Y-59870800D01*
X21262454Y-60039163D01*
X21204059Y-60218881D01*
X21174500Y-60405513D01*
X21174500Y-60594486D01*
X21204059Y-60781118D01*
X21262454Y-60960836D01*
X21348240Y-61129199D01*
X21459310Y-61282073D01*
X21592927Y-61415690D01*
X21745801Y-61526760D01*
X21855554Y-61582681D01*
X21864394Y-61587186D01*
X21915190Y-61635161D01*
X21931985Y-61702982D01*
X21909448Y-61769116D01*
X21864394Y-61808156D01*
X21792180Y-61844951D01*
X21620213Y-61969890D01*
X21469890Y-62120213D01*
X21344951Y-62292179D01*
X21248444Y-62481585D01*
X21182753Y-62683760D01*
X21149500Y-62893713D01*
X20500000Y-62893713D01*
X20500000Y-48793713D01*
X21149500Y-48793713D01*
X21149500Y-49006286D01*
X21182753Y-49216239D01*
X21248444Y-49418414D01*
X21344951Y-49607820D01*
X21469890Y-49779786D01*
X21620213Y-49930109D01*
X21792182Y-50055050D01*
X21792184Y-50055051D01*
X21864393Y-50091843D01*
X21915189Y-50139817D01*
X21931985Y-50207638D01*
X21909448Y-50273773D01*
X21864395Y-50312812D01*
X21745803Y-50373238D01*
X21682149Y-50419486D01*
X21592927Y-50484310D01*
X21592925Y-50484312D01*
X21592924Y-50484312D01*
X21459312Y-50617924D01*
X21459312Y-50617925D01*
X21459310Y-50617927D01*
X21411610Y-50683579D01*
X21348240Y-50770800D01*
X21262454Y-50939163D01*
X21204059Y-51118881D01*
X21174500Y-51305513D01*
X21174500Y-51494486D01*
X21204059Y-51681118D01*
X21262454Y-51860836D01*
X21329901Y-51993207D01*
X21348240Y-52029199D01*
X21459310Y-52182073D01*
X21592927Y-52315690D01*
X21707582Y-52398992D01*
X21745802Y-52426761D01*
X21820881Y-52465015D01*
X21871677Y-52512989D01*
X21888473Y-52580810D01*
X21865936Y-52646945D01*
X21811221Y-52690397D01*
X21764591Y-52699500D01*
X21735637Y-52699500D01*
X21618246Y-52714953D01*
X21618237Y-52714956D01*
X21472160Y-52775463D01*
X21346718Y-52871718D01*
X21250463Y-52997160D01*
X21189956Y-53143237D01*
X21189955Y-53143239D01*
X21179640Y-53221593D01*
X21174501Y-53260636D01*
X21174500Y-53260645D01*
X21174500Y-54539363D01*
X21189953Y-54656753D01*
X21189956Y-54656762D01*
X21236492Y-54769111D01*
X21250464Y-54802841D01*
X21346718Y-54928282D01*
X21472159Y-55024536D01*
X21618238Y-55085044D01*
X21735639Y-55100500D01*
X23264360Y-55100499D01*
X23264363Y-55100499D01*
X23381753Y-55085046D01*
X23381757Y-55085044D01*
X23381762Y-55085044D01*
X23527841Y-55024536D01*
X23527845Y-55024532D01*
X23534881Y-55020472D01*
X23536023Y-55022450D01*
X23590165Y-55001507D01*
X23658613Y-55015532D01*
X23708612Y-55064336D01*
X23724289Y-55132424D01*
X23715068Y-55172527D01*
X23682185Y-55251913D01*
X23682182Y-55251925D01*
X23649500Y-55416228D01*
X23649500Y-55583771D01*
X23682182Y-55748074D01*
X23682184Y-55748082D01*
X23746295Y-55902860D01*
X23839373Y-56042162D01*
X23957837Y-56160626D01*
X24050494Y-56222537D01*
X24097137Y-56253703D01*
X24251918Y-56317816D01*
X24396149Y-56346505D01*
X24416228Y-56350499D01*
X24416232Y-56350500D01*
X24416233Y-56350500D01*
X24583768Y-56350500D01*
X24583769Y-56350499D01*
X24748082Y-56317816D01*
X24902863Y-56253703D01*
X25042162Y-56160626D01*
X25160626Y-56042162D01*
X25253703Y-55902863D01*
X25317816Y-55748082D01*
X25350500Y-55583767D01*
X25350500Y-55416233D01*
X25317816Y-55251918D01*
X25259578Y-55111321D01*
X25253704Y-55097139D01*
X25245622Y-55085044D01*
X25211715Y-55034298D01*
X25160626Y-54957837D01*
X25042162Y-54839373D01*
X24902860Y-54746295D01*
X24748082Y-54682184D01*
X24748074Y-54682182D01*
X24583771Y-54649500D01*
X24583767Y-54649500D01*
X24416233Y-54649500D01*
X24416228Y-54649500D01*
X24251925Y-54682182D01*
X24251917Y-54682184D01*
X24097140Y-54746295D01*
X23988780Y-54818698D01*
X23922102Y-54839575D01*
X23854722Y-54821090D01*
X23808033Y-54769111D01*
X23796857Y-54700140D01*
X23805328Y-54668145D01*
X23810044Y-54656762D01*
X23825500Y-54539361D01*
X23825499Y-53260640D01*
X23825499Y-53260639D01*
X23825499Y-53260636D01*
X23810046Y-53143246D01*
X23810044Y-53143239D01*
X23810044Y-53143238D01*
X23749536Y-52997159D01*
X23653282Y-52871718D01*
X23527841Y-52775464D01*
X23381762Y-52714956D01*
X23381760Y-52714955D01*
X23264370Y-52699501D01*
X23264367Y-52699500D01*
X23264361Y-52699500D01*
X23264354Y-52699500D01*
X23235414Y-52699500D01*
X23168375Y-52679815D01*
X23122620Y-52627011D01*
X23112676Y-52557853D01*
X23141701Y-52494297D01*
X23179119Y-52465015D01*
X23254199Y-52426760D01*
X23407073Y-52315690D01*
X23540690Y-52182073D01*
X23651760Y-52029199D01*
X23737547Y-51860832D01*
X23795940Y-51681118D01*
X23825500Y-51494486D01*
X23825500Y-51305513D01*
X23795940Y-51118881D01*
X23737545Y-50939163D01*
X23651759Y-50770800D01*
X23595753Y-50693715D01*
X23540690Y-50617927D01*
X23407073Y-50484310D01*
X23394006Y-50474816D01*
X23351342Y-50419486D01*
X23345364Y-50349873D01*
X23377971Y-50288078D01*
X23438810Y-50253722D01*
X23466894Y-50250500D01*
X34489243Y-50250500D01*
X34556282Y-50270185D01*
X34576924Y-50286819D01*
X35613181Y-51323076D01*
X35646666Y-51384399D01*
X35649500Y-51410757D01*
X35649500Y-52306287D01*
X35656727Y-52351918D01*
X35682753Y-52516240D01*
X35708431Y-52595268D01*
X35714500Y-52633586D01*
X35714500Y-56233711D01*
X35694815Y-56300750D01*
X35642011Y-56346505D01*
X35572853Y-56356449D01*
X35509297Y-56327424D01*
X35479500Y-56288983D01*
X35475725Y-56281403D01*
X35468088Y-56266065D01*
X35344732Y-56102715D01*
X35344730Y-56102712D01*
X35193462Y-55964814D01*
X35193460Y-55964812D01*
X35019430Y-55857057D01*
X35019424Y-55857054D01*
X34868993Y-55798777D01*
X34828556Y-55783112D01*
X34726714Y-55764074D01*
X34664434Y-55732407D01*
X34629161Y-55672094D01*
X34625500Y-55642186D01*
X34625500Y-52516232D01*
X34625499Y-52516228D01*
X34592817Y-52351924D01*
X34592816Y-52351918D01*
X34581328Y-52324185D01*
X34572950Y-52292920D01*
X34560687Y-52199764D01*
X34502698Y-52059767D01*
X34410451Y-51939549D01*
X34290233Y-51847302D01*
X34290229Y-51847300D01*
X34226801Y-51821027D01*
X34150236Y-51789313D01*
X34136171Y-51787461D01*
X34037727Y-51774500D01*
X34037720Y-51774500D01*
X33996663Y-51774500D01*
X33972472Y-51772117D01*
X33858770Y-51749500D01*
X33858767Y-51749500D01*
X33691233Y-51749500D01*
X33691229Y-51749500D01*
X33577528Y-51772117D01*
X33553337Y-51774500D01*
X33512272Y-51774500D01*
X33399764Y-51789313D01*
X33399763Y-51789313D01*
X33259770Y-51847300D01*
X33259767Y-51847301D01*
X33259767Y-51847302D01*
X33139549Y-51939549D01*
X33139548Y-51939550D01*
X33139547Y-51939551D01*
X33098375Y-51993207D01*
X33041947Y-52034410D01*
X32972201Y-52038564D01*
X32911281Y-52004351D01*
X32901625Y-51993207D01*
X32880702Y-51965941D01*
X32860451Y-51939549D01*
X32740233Y-51847302D01*
X32740229Y-51847300D01*
X32676801Y-51821027D01*
X32600236Y-51789313D01*
X32586171Y-51787461D01*
X32487727Y-51774500D01*
X32487720Y-51774500D01*
X32446663Y-51774500D01*
X32422472Y-51772117D01*
X32308770Y-51749500D01*
X32308767Y-51749500D01*
X32141233Y-51749500D01*
X32141229Y-51749500D01*
X32027528Y-51772117D01*
X32003337Y-51774500D01*
X31962272Y-51774500D01*
X31849764Y-51789313D01*
X31849763Y-51789313D01*
X31709770Y-51847300D01*
X31709767Y-51847301D01*
X31709767Y-51847302D01*
X31589549Y-51939549D01*
X31539825Y-52004351D01*
X31497300Y-52059770D01*
X31439313Y-52199763D01*
X31439313Y-52199764D01*
X31427048Y-52292921D01*
X31418671Y-52324183D01*
X31407185Y-52351912D01*
X31407181Y-52351925D01*
X31374500Y-52516228D01*
X31374500Y-55621500D01*
X31354815Y-55688539D01*
X31302011Y-55734294D01*
X31250500Y-55745500D01*
X31197739Y-55745500D01*
X31129608Y-55755426D01*
X31024514Y-55806803D01*
X30941803Y-55889514D01*
X30890426Y-55994608D01*
X30880500Y-56062739D01*
X30880500Y-57637260D01*
X30890426Y-57705391D01*
X30941803Y-57810485D01*
X31024514Y-57893196D01*
X31024515Y-57893196D01*
X31024517Y-57893198D01*
X31129607Y-57944573D01*
X31163673Y-57949536D01*
X31197739Y-57954500D01*
X31197740Y-57954500D01*
X32772261Y-57954500D01*
X32794971Y-57951191D01*
X32840393Y-57944573D01*
X32945483Y-57893198D01*
X33028198Y-57810483D01*
X33079573Y-57705393D01*
X33089500Y-57637260D01*
X33089500Y-56916651D01*
X33109185Y-56849612D01*
X33161989Y-56803857D01*
X33231147Y-56793913D01*
X33294703Y-56822938D01*
X33301181Y-56828970D01*
X33393663Y-56921452D01*
X33427148Y-56982775D01*
X33429453Y-56997690D01*
X33434654Y-57053817D01*
X33490673Y-57250704D01*
X33581912Y-57433935D01*
X33705269Y-57597287D01*
X33845176Y-57724828D01*
X33850614Y-57729786D01*
X33856537Y-57735185D01*
X33856539Y-57735187D01*
X34030569Y-57842942D01*
X34030575Y-57842945D01*
X34071010Y-57858609D01*
X34221444Y-57916888D01*
X34422653Y-57954500D01*
X34422656Y-57954500D01*
X34627344Y-57954500D01*
X34627347Y-57954500D01*
X34828556Y-57916888D01*
X35019427Y-57842944D01*
X35193462Y-57735186D01*
X35344732Y-57597285D01*
X35468088Y-57433935D01*
X35554757Y-57259881D01*
X35602260Y-57208644D01*
X35669923Y-57191223D01*
X35736263Y-57213149D01*
X35780218Y-57267460D01*
X35783688Y-57276835D01*
X35813444Y-57368414D01*
X35909951Y-57557820D01*
X36034890Y-57729786D01*
X36185213Y-57880109D01*
X36357179Y-58005048D01*
X36357181Y-58005049D01*
X36357184Y-58005051D01*
X36546588Y-58101557D01*
X36748757Y-58167246D01*
X36958713Y-58200500D01*
X36958714Y-58200500D01*
X37171286Y-58200500D01*
X37171287Y-58200500D01*
X37381243Y-58167246D01*
X37583412Y-58101557D01*
X37772816Y-58005051D01*
X37842394Y-57954500D01*
X37944786Y-57880109D01*
X37944788Y-57880106D01*
X37944792Y-57880104D01*
X38095104Y-57729792D01*
X38095106Y-57729788D01*
X38095109Y-57729786D01*
X38220048Y-57557820D01*
X38220047Y-57557820D01*
X38220051Y-57557816D01*
X38316557Y-57368412D01*
X38346312Y-57276833D01*
X38385748Y-57219160D01*
X38450106Y-57191961D01*
X38518953Y-57203875D01*
X38570429Y-57251119D01*
X38575242Y-57259881D01*
X38661912Y-57433935D01*
X38785269Y-57597287D01*
X38925176Y-57724828D01*
X38930614Y-57729786D01*
X38936537Y-57735185D01*
X38936539Y-57735187D01*
X39110569Y-57842942D01*
X39110575Y-57842945D01*
X39151010Y-57858609D01*
X39301444Y-57916888D01*
X39502653Y-57954500D01*
X39502656Y-57954500D01*
X39707344Y-57954500D01*
X39707347Y-57954500D01*
X39908556Y-57916888D01*
X40099427Y-57842944D01*
X40273462Y-57735186D01*
X40424732Y-57597285D01*
X40548088Y-57433935D01*
X40639328Y-57250701D01*
X40695345Y-57053821D01*
X40714232Y-56850000D01*
X40714232Y-56849999D01*
X41035768Y-56849999D01*
X41035768Y-56850000D01*
X41054654Y-57053816D01*
X41110673Y-57250704D01*
X41201912Y-57433935D01*
X41325269Y-57597287D01*
X41465176Y-57724828D01*
X41470614Y-57729786D01*
X41476537Y-57735185D01*
X41476539Y-57735187D01*
X41650569Y-57842942D01*
X41650575Y-57842945D01*
X41691010Y-57858609D01*
X41841444Y-57916888D01*
X42042653Y-57954500D01*
X42042656Y-57954500D01*
X42247344Y-57954500D01*
X42247347Y-57954500D01*
X42448556Y-57916888D01*
X42639427Y-57842944D01*
X42813462Y-57735186D01*
X42964732Y-57597285D01*
X43088088Y-57433935D01*
X43179328Y-57250701D01*
X43235345Y-57053821D01*
X43254232Y-56850000D01*
X43254232Y-56849999D01*
X43575768Y-56849999D01*
X43575768Y-56850000D01*
X43594654Y-57053816D01*
X43650673Y-57250704D01*
X43741912Y-57433935D01*
X43865269Y-57597287D01*
X44005176Y-57724828D01*
X44010614Y-57729786D01*
X44016537Y-57735185D01*
X44016539Y-57735187D01*
X44190569Y-57842942D01*
X44190575Y-57842945D01*
X44231010Y-57858609D01*
X44381444Y-57916888D01*
X44582653Y-57954500D01*
X44582656Y-57954500D01*
X44787344Y-57954500D01*
X44787347Y-57954500D01*
X44988556Y-57916888D01*
X45179427Y-57842944D01*
X45353462Y-57735186D01*
X45504732Y-57597285D01*
X45628088Y-57433935D01*
X45719328Y-57250701D01*
X45775345Y-57053821D01*
X45794232Y-56850000D01*
X45794232Y-56849999D01*
X46115768Y-56849999D01*
X46115768Y-56850000D01*
X46134654Y-57053816D01*
X46190673Y-57250704D01*
X46281912Y-57433935D01*
X46405269Y-57597287D01*
X46545176Y-57724828D01*
X46550614Y-57729786D01*
X46556537Y-57735185D01*
X46556539Y-57735187D01*
X46730569Y-57842942D01*
X46730575Y-57842945D01*
X46771010Y-57858609D01*
X46921444Y-57916888D01*
X47122653Y-57954500D01*
X47122656Y-57954500D01*
X47327344Y-57954500D01*
X47327347Y-57954500D01*
X47528556Y-57916888D01*
X47719427Y-57842944D01*
X47893462Y-57735186D01*
X48044732Y-57597285D01*
X48168088Y-57433935D01*
X48259328Y-57250701D01*
X48315345Y-57053821D01*
X48334232Y-56850000D01*
X48315345Y-56646179D01*
X48259328Y-56449299D01*
X48168088Y-56266065D01*
X48044732Y-56102715D01*
X48044730Y-56102712D01*
X47893462Y-55964814D01*
X47893460Y-55964812D01*
X47719430Y-55857057D01*
X47719424Y-55857054D01*
X47568993Y-55798777D01*
X47528556Y-55783112D01*
X47327347Y-55745500D01*
X47122653Y-55745500D01*
X46921444Y-55783112D01*
X46921441Y-55783112D01*
X46921441Y-55783113D01*
X46730575Y-55857054D01*
X46730569Y-55857057D01*
X46556539Y-55964812D01*
X46556537Y-55964814D01*
X46405269Y-56102712D01*
X46281912Y-56266064D01*
X46190673Y-56449295D01*
X46134654Y-56646183D01*
X46115768Y-56849999D01*
X45794232Y-56849999D01*
X45775345Y-56646179D01*
X45719328Y-56449299D01*
X45628088Y-56266065D01*
X45504732Y-56102715D01*
X45504730Y-56102712D01*
X45353462Y-55964814D01*
X45353460Y-55964812D01*
X45179430Y-55857057D01*
X45179424Y-55857054D01*
X45028993Y-55798777D01*
X44988556Y-55783112D01*
X44787347Y-55745500D01*
X44582653Y-55745500D01*
X44381444Y-55783112D01*
X44381441Y-55783112D01*
X44381441Y-55783113D01*
X44190575Y-55857054D01*
X44190569Y-55857057D01*
X44016539Y-55964812D01*
X44016537Y-55964814D01*
X43865269Y-56102712D01*
X43741912Y-56266064D01*
X43650673Y-56449295D01*
X43594654Y-56646183D01*
X43575768Y-56849999D01*
X43254232Y-56849999D01*
X43235345Y-56646179D01*
X43179328Y-56449299D01*
X43088088Y-56266065D01*
X42964732Y-56102715D01*
X42964730Y-56102712D01*
X42813462Y-55964814D01*
X42813460Y-55964812D01*
X42639430Y-55857057D01*
X42639424Y-55857054D01*
X42488993Y-55798777D01*
X42448556Y-55783112D01*
X42247347Y-55745500D01*
X42042653Y-55745500D01*
X41841444Y-55783112D01*
X41841441Y-55783112D01*
X41841441Y-55783113D01*
X41650575Y-55857054D01*
X41650569Y-55857057D01*
X41476539Y-55964812D01*
X41476537Y-55964814D01*
X41325269Y-56102712D01*
X41201912Y-56266064D01*
X41110673Y-56449295D01*
X41054654Y-56646183D01*
X41035768Y-56849999D01*
X40714232Y-56849999D01*
X40695345Y-56646179D01*
X40639328Y-56449299D01*
X40548088Y-56266065D01*
X40424732Y-56102715D01*
X40424730Y-56102712D01*
X40273462Y-55964814D01*
X40273460Y-55964812D01*
X40099430Y-55857057D01*
X40099424Y-55857054D01*
X39948993Y-55798777D01*
X39908556Y-55783112D01*
X39707347Y-55745500D01*
X39502653Y-55745500D01*
X39301444Y-55783112D01*
X39301441Y-55783112D01*
X39301441Y-55783113D01*
X39110575Y-55857054D01*
X39110569Y-55857057D01*
X38936539Y-55964812D01*
X38936537Y-55964814D01*
X38785269Y-56102712D01*
X38661912Y-56266064D01*
X38650500Y-56288983D01*
X38602997Y-56340220D01*
X38535333Y-56357641D01*
X38468993Y-56335715D01*
X38425038Y-56281403D01*
X38415500Y-56233711D01*
X38415500Y-52158713D01*
X38382246Y-51948756D01*
X38356569Y-51869732D01*
X38350500Y-51831413D01*
X38350500Y-50911422D01*
X38350501Y-50911397D01*
X38350501Y-50693715D01*
X38338497Y-50617925D01*
X38317246Y-50483757D01*
X38251557Y-50281588D01*
X38155051Y-50092184D01*
X38122816Y-50047816D01*
X38030104Y-49920208D01*
X37879792Y-49769896D01*
X37879791Y-49769895D01*
X37876680Y-49766784D01*
X37876665Y-49766770D01*
X37339894Y-49229999D01*
X48655768Y-49229999D01*
X48655768Y-49230000D01*
X48674654Y-49433816D01*
X48730673Y-49630704D01*
X48821912Y-49813935D01*
X48945269Y-49977287D01*
X49096537Y-50115185D01*
X49096539Y-50115187D01*
X49270569Y-50222942D01*
X49270575Y-50222945D01*
X49286360Y-50229060D01*
X49461444Y-50296888D01*
X49662653Y-50334500D01*
X49662656Y-50334500D01*
X49867344Y-50334500D01*
X49867347Y-50334500D01*
X50068556Y-50296888D01*
X50259427Y-50222944D01*
X50433462Y-50115186D01*
X50584732Y-49977285D01*
X50708088Y-49813935D01*
X50799328Y-49630701D01*
X50855345Y-49433821D01*
X50874232Y-49230000D01*
X50855345Y-49026179D01*
X50799328Y-48829299D01*
X50708088Y-48646065D01*
X50584732Y-48482715D01*
X50584730Y-48482712D01*
X50433462Y-48344814D01*
X50433460Y-48344812D01*
X50259430Y-48237057D01*
X50259424Y-48237054D01*
X50108993Y-48178777D01*
X50068556Y-48163112D01*
X49867347Y-48125500D01*
X49662653Y-48125500D01*
X49461444Y-48163112D01*
X49461441Y-48163112D01*
X49461441Y-48163113D01*
X49270575Y-48237054D01*
X49270569Y-48237057D01*
X49096539Y-48344812D01*
X49096537Y-48344814D01*
X48945269Y-48482712D01*
X48821912Y-48646064D01*
X48730673Y-48829295D01*
X48674654Y-49026183D01*
X48655768Y-49229999D01*
X37339894Y-49229999D01*
X36134444Y-48024549D01*
X36134435Y-48024539D01*
X36130104Y-48020208D01*
X35979792Y-47869896D01*
X35979788Y-47869893D01*
X35979784Y-47869889D01*
X35807820Y-47744951D01*
X35618414Y-47648444D01*
X35618413Y-47648443D01*
X35618412Y-47648443D01*
X35416243Y-47582754D01*
X35416241Y-47582753D01*
X35416240Y-47582753D01*
X35254957Y-47557208D01*
X35206287Y-47549500D01*
X35206286Y-47549500D01*
X23466894Y-47549500D01*
X23399855Y-47529815D01*
X23354100Y-47477011D01*
X23344156Y-47407853D01*
X23373181Y-47344297D01*
X23394007Y-47325183D01*
X23407073Y-47315690D01*
X23540690Y-47182073D01*
X23651760Y-47029199D01*
X23737547Y-46860832D01*
X23795940Y-46681118D01*
X23813530Y-46570060D01*
X23825500Y-46494486D01*
X23825500Y-46305513D01*
X23795940Y-46118881D01*
X23768846Y-46035497D01*
X23737547Y-45939168D01*
X23737545Y-45939165D01*
X23737545Y-45939163D01*
X23676409Y-45819178D01*
X23651760Y-45770801D01*
X23540690Y-45617927D01*
X23407073Y-45484310D01*
X23254199Y-45373240D01*
X23244031Y-45368059D01*
X23085836Y-45287454D01*
X22906118Y-45229059D01*
X22719486Y-45199500D01*
X22719481Y-45199500D01*
X22280519Y-45199500D01*
X22280514Y-45199500D01*
X22093881Y-45229059D01*
X21914163Y-45287454D01*
X21745800Y-45373240D01*
X21658579Y-45436610D01*
X21592927Y-45484310D01*
X21592925Y-45484312D01*
X21592924Y-45484312D01*
X21459312Y-45617924D01*
X21459312Y-45617925D01*
X21459310Y-45617927D01*
X21427416Y-45661825D01*
X21348240Y-45770800D01*
X21262454Y-45939163D01*
X21204059Y-46118881D01*
X21174500Y-46305513D01*
X21174500Y-46494486D01*
X21204059Y-46681118D01*
X21262454Y-46860836D01*
X21348240Y-47029199D01*
X21459310Y-47182073D01*
X21592927Y-47315690D01*
X21745801Y-47426760D01*
X21855554Y-47482681D01*
X21864394Y-47487186D01*
X21915190Y-47535161D01*
X21931985Y-47602982D01*
X21909448Y-47669116D01*
X21864394Y-47708156D01*
X21792180Y-47744951D01*
X21620213Y-47869890D01*
X21469890Y-48020213D01*
X21344951Y-48192179D01*
X21248444Y-48381585D01*
X21182753Y-48583760D01*
X21149500Y-48793713D01*
X20500000Y-48793713D01*
X20500000Y-44149999D01*
X30875768Y-44149999D01*
X30875768Y-44150000D01*
X30894654Y-44353816D01*
X30894654Y-44353818D01*
X30894655Y-44353821D01*
X30926019Y-44464053D01*
X30950673Y-44550704D01*
X31041912Y-44733935D01*
X31165269Y-44897287D01*
X31316537Y-45035185D01*
X31316539Y-45035187D01*
X31490569Y-45142942D01*
X31490575Y-45142945D01*
X31521306Y-45154850D01*
X31681444Y-45216888D01*
X31882653Y-45254500D01*
X31882656Y-45254500D01*
X32087344Y-45254500D01*
X32087347Y-45254500D01*
X32288556Y-45216888D01*
X32479427Y-45142944D01*
X32653462Y-45035186D01*
X32804732Y-44897285D01*
X32928088Y-44733935D01*
X33019328Y-44550701D01*
X33075345Y-44353821D01*
X33094232Y-44150000D01*
X33094232Y-44149999D01*
X33415768Y-44149999D01*
X33415768Y-44150000D01*
X33434654Y-44353816D01*
X33434654Y-44353818D01*
X33434655Y-44353821D01*
X33466019Y-44464053D01*
X33490673Y-44550704D01*
X33581912Y-44733935D01*
X33705269Y-44897287D01*
X33856537Y-45035185D01*
X33856539Y-45035187D01*
X34030569Y-45142942D01*
X34030575Y-45142945D01*
X34061306Y-45154850D01*
X34221444Y-45216888D01*
X34422653Y-45254500D01*
X34422656Y-45254500D01*
X34627344Y-45254500D01*
X34627347Y-45254500D01*
X34828556Y-45216888D01*
X35019427Y-45142944D01*
X35193462Y-45035186D01*
X35344732Y-44897285D01*
X35468088Y-44733935D01*
X35559328Y-44550701D01*
X35615345Y-44353821D01*
X35634232Y-44150000D01*
X35634232Y-44149999D01*
X35955768Y-44149999D01*
X35955768Y-44150000D01*
X35974654Y-44353816D01*
X35974654Y-44353818D01*
X35974655Y-44353821D01*
X36006019Y-44464053D01*
X36030673Y-44550704D01*
X36121912Y-44733935D01*
X36245269Y-44897287D01*
X36396534Y-45035183D01*
X36396536Y-45035184D01*
X36396538Y-45035186D01*
X36505780Y-45102825D01*
X36552413Y-45154850D01*
X36564500Y-45208250D01*
X36564500Y-45663101D01*
X36544815Y-45730140D01*
X36507540Y-45767416D01*
X36427005Y-45819172D01*
X36426998Y-45819178D01*
X36350535Y-45885433D01*
X36350532Y-45885435D01*
X36256385Y-45994087D01*
X36256374Y-45994103D01*
X36201676Y-46079214D01*
X36201667Y-46079230D01*
X36141947Y-46210000D01*
X36141942Y-46210012D01*
X36113439Y-46307088D01*
X36113438Y-46307093D01*
X36092977Y-46449407D01*
X36092976Y-46449409D01*
X36092976Y-46550591D01*
X36093238Y-46552413D01*
X36094500Y-46570060D01*
X36094500Y-46929940D01*
X36093238Y-46947584D01*
X36092976Y-46949402D01*
X36092976Y-47050590D01*
X36092977Y-47050592D01*
X36113438Y-47192906D01*
X36113439Y-47192911D01*
X36141942Y-47289987D01*
X36141947Y-47289999D01*
X36201667Y-47420769D01*
X36201676Y-47420785D01*
X36256374Y-47505896D01*
X36256385Y-47505912D01*
X36350532Y-47614564D01*
X36350535Y-47614566D01*
X36426998Y-47680821D01*
X36427005Y-47680827D01*
X36547953Y-47758556D01*
X36547955Y-47758556D01*
X36547959Y-47758559D01*
X36640001Y-47800593D01*
X36777956Y-47841100D01*
X36878111Y-47855500D01*
X36878114Y-47855500D01*
X37499996Y-47855500D01*
X37500000Y-47855500D01*
X37587270Y-47844622D01*
X37587280Y-47844617D01*
X37593035Y-47843033D01*
X37643840Y-47839878D01*
X37648605Y-47840572D01*
X37648607Y-47840573D01*
X37716740Y-47850500D01*
X37716741Y-47850500D01*
X38783255Y-47850500D01*
X38783260Y-47850500D01*
X38851393Y-47840573D01*
X38851394Y-47840572D01*
X38860924Y-47839184D01*
X38861287Y-47841680D01*
X38901097Y-47838996D01*
X39000000Y-47855500D01*
X39000001Y-47855500D01*
X39621886Y-47855500D01*
X39621889Y-47855500D01*
X39722044Y-47841100D01*
X39859999Y-47800593D01*
X39952041Y-47758559D01*
X39954645Y-47756886D01*
X39982184Y-47739187D01*
X40072995Y-47680827D01*
X40149469Y-47614562D01*
X40205845Y-47549500D01*
X40243614Y-47505912D01*
X40243616Y-47505909D01*
X40243623Y-47505901D01*
X40298326Y-47420781D01*
X40298329Y-47420773D01*
X40298332Y-47420769D01*
X40333255Y-47344297D01*
X40358054Y-47289996D01*
X40386561Y-47192908D01*
X40407023Y-47050593D01*
X40407024Y-46949408D01*
X40406762Y-46947584D01*
X40405500Y-46929940D01*
X40405500Y-46689999D01*
X48655768Y-46689999D01*
X48655768Y-46690000D01*
X48674654Y-46893816D01*
X48674654Y-46893818D01*
X48674655Y-46893821D01*
X48730672Y-47090701D01*
X48730673Y-47090704D01*
X48821912Y-47273935D01*
X48945269Y-47437287D01*
X49096537Y-47575185D01*
X49096539Y-47575187D01*
X49270569Y-47682942D01*
X49270575Y-47682945D01*
X49311010Y-47698609D01*
X49461444Y-47756888D01*
X49662653Y-47794500D01*
X49662656Y-47794500D01*
X49867344Y-47794500D01*
X49867347Y-47794500D01*
X50068556Y-47756888D01*
X50259427Y-47682944D01*
X50433462Y-47575186D01*
X50584732Y-47437285D01*
X50708088Y-47273935D01*
X50799328Y-47090701D01*
X50855345Y-46893821D01*
X50874232Y-46690000D01*
X50855345Y-46486179D01*
X50799328Y-46289299D01*
X50708088Y-46106065D01*
X50584732Y-45942715D01*
X50584730Y-45942712D01*
X50433462Y-45804814D01*
X50433460Y-45804812D01*
X50259430Y-45697057D01*
X50259424Y-45697054D01*
X50108993Y-45638777D01*
X50068556Y-45623112D01*
X49867347Y-45585500D01*
X49662653Y-45585500D01*
X49461444Y-45623112D01*
X49461441Y-45623112D01*
X49461441Y-45623113D01*
X49270575Y-45697054D01*
X49270569Y-45697057D01*
X49096539Y-45804812D01*
X49096537Y-45804814D01*
X48945269Y-45942712D01*
X48821912Y-46106064D01*
X48730673Y-46289295D01*
X48674654Y-46486183D01*
X48655768Y-46689999D01*
X40405500Y-46689999D01*
X40405500Y-46570060D01*
X40406762Y-46552413D01*
X40407024Y-46550592D01*
X40407023Y-46449407D01*
X40386561Y-46307092D01*
X40386099Y-46305519D01*
X40358057Y-46210012D01*
X40358052Y-46210000D01*
X40298332Y-46079230D01*
X40298323Y-46079214D01*
X40283440Y-46056057D01*
X40243623Y-45994099D01*
X40243619Y-45994094D01*
X40243614Y-45994087D01*
X40149470Y-45885439D01*
X40149469Y-45885438D01*
X40148293Y-45884419D01*
X40148011Y-45883980D01*
X40146338Y-45882307D01*
X40146702Y-45881942D01*
X40110522Y-45825641D01*
X40105500Y-45790710D01*
X40105500Y-45208250D01*
X40125185Y-45141211D01*
X40164218Y-45102826D01*
X40273462Y-45035186D01*
X40424732Y-44897285D01*
X40548088Y-44733935D01*
X40639328Y-44550701D01*
X40695345Y-44353821D01*
X40714232Y-44150000D01*
X40714232Y-44149999D01*
X41035768Y-44149999D01*
X41035768Y-44150000D01*
X41054654Y-44353816D01*
X41054654Y-44353818D01*
X41054655Y-44353821D01*
X41086019Y-44464053D01*
X41110673Y-44550704D01*
X41201912Y-44733935D01*
X41325269Y-44897287D01*
X41476537Y-45035185D01*
X41476539Y-45035187D01*
X41650569Y-45142942D01*
X41650575Y-45142945D01*
X41681306Y-45154850D01*
X41841444Y-45216888D01*
X42042653Y-45254500D01*
X42042656Y-45254500D01*
X42247344Y-45254500D01*
X42247347Y-45254500D01*
X42448556Y-45216888D01*
X42639427Y-45142944D01*
X42813462Y-45035186D01*
X42964732Y-44897285D01*
X43088088Y-44733935D01*
X43179328Y-44550701D01*
X43235345Y-44353821D01*
X43254232Y-44150000D01*
X43254232Y-44149999D01*
X43575768Y-44149999D01*
X43575768Y-44150000D01*
X43594654Y-44353816D01*
X43594654Y-44353818D01*
X43594655Y-44353821D01*
X43626019Y-44464053D01*
X43650673Y-44550704D01*
X43741912Y-44733935D01*
X43865269Y-44897287D01*
X44016537Y-45035185D01*
X44016539Y-45035187D01*
X44190569Y-45142942D01*
X44190575Y-45142945D01*
X44221306Y-45154850D01*
X44381444Y-45216888D01*
X44582653Y-45254500D01*
X44582656Y-45254500D01*
X44787344Y-45254500D01*
X44787347Y-45254500D01*
X44988556Y-45216888D01*
X45179427Y-45142944D01*
X45353462Y-45035186D01*
X45504732Y-44897285D01*
X45628088Y-44733935D01*
X45719328Y-44550701D01*
X45775345Y-44353821D01*
X45794232Y-44150000D01*
X45794232Y-44149999D01*
X46115768Y-44149999D01*
X46115768Y-44150000D01*
X46134654Y-44353816D01*
X46134654Y-44353818D01*
X46134655Y-44353821D01*
X46166019Y-44464053D01*
X46190673Y-44550704D01*
X46281912Y-44733935D01*
X46405269Y-44897287D01*
X46556537Y-45035185D01*
X46556539Y-45035187D01*
X46730569Y-45142942D01*
X46730575Y-45142945D01*
X46761306Y-45154850D01*
X46921444Y-45216888D01*
X47122653Y-45254500D01*
X47122656Y-45254500D01*
X47327344Y-45254500D01*
X47327347Y-45254500D01*
X47528556Y-45216888D01*
X47719427Y-45142944D01*
X47893462Y-45035186D01*
X48044732Y-44897285D01*
X48168088Y-44733935D01*
X48259328Y-44550701D01*
X48315345Y-44353821D01*
X48334232Y-44150000D01*
X48334232Y-44149999D01*
X48655768Y-44149999D01*
X48655768Y-44150000D01*
X48674654Y-44353816D01*
X48674654Y-44353818D01*
X48674655Y-44353821D01*
X48706019Y-44464053D01*
X48730673Y-44550704D01*
X48821912Y-44733935D01*
X48945269Y-44897287D01*
X49096537Y-45035185D01*
X49096539Y-45035187D01*
X49270569Y-45142942D01*
X49270575Y-45142945D01*
X49301306Y-45154850D01*
X49461444Y-45216888D01*
X49662653Y-45254500D01*
X49662656Y-45254500D01*
X49867344Y-45254500D01*
X49867347Y-45254500D01*
X50068556Y-45216888D01*
X50259427Y-45142944D01*
X50433462Y-45035186D01*
X50584732Y-44897285D01*
X50708088Y-44733935D01*
X50799328Y-44550701D01*
X50855345Y-44353821D01*
X50874232Y-44150000D01*
X50855345Y-43946179D01*
X50799328Y-43749299D01*
X50708088Y-43566065D01*
X50584732Y-43402715D01*
X50584730Y-43402712D01*
X50433462Y-43264814D01*
X50433460Y-43264812D01*
X50259430Y-43157057D01*
X50259424Y-43157054D01*
X50108993Y-43098777D01*
X50068556Y-43083112D01*
X49867347Y-43045500D01*
X49662653Y-43045500D01*
X49461444Y-43083112D01*
X49461441Y-43083112D01*
X49461441Y-43083113D01*
X49270575Y-43157054D01*
X49270569Y-43157057D01*
X49096539Y-43264812D01*
X49096537Y-43264814D01*
X48945269Y-43402712D01*
X48821912Y-43566064D01*
X48730673Y-43749295D01*
X48674654Y-43946183D01*
X48655768Y-44149999D01*
X48334232Y-44149999D01*
X48315345Y-43946179D01*
X48259328Y-43749299D01*
X48168088Y-43566065D01*
X48044732Y-43402715D01*
X48044730Y-43402712D01*
X47893462Y-43264814D01*
X47893460Y-43264812D01*
X47719430Y-43157057D01*
X47719424Y-43157054D01*
X47568993Y-43098777D01*
X47528556Y-43083112D01*
X47327347Y-43045500D01*
X47122653Y-43045500D01*
X46921444Y-43083112D01*
X46921441Y-43083112D01*
X46921441Y-43083113D01*
X46730575Y-43157054D01*
X46730569Y-43157057D01*
X46556539Y-43264812D01*
X46556537Y-43264814D01*
X46405269Y-43402712D01*
X46281912Y-43566064D01*
X46190673Y-43749295D01*
X46134654Y-43946183D01*
X46115768Y-44149999D01*
X45794232Y-44149999D01*
X45775345Y-43946179D01*
X45719328Y-43749299D01*
X45628088Y-43566065D01*
X45504732Y-43402715D01*
X45504730Y-43402712D01*
X45353462Y-43264814D01*
X45353460Y-43264812D01*
X45179430Y-43157057D01*
X45179424Y-43157054D01*
X45028993Y-43098777D01*
X44988556Y-43083112D01*
X44787347Y-43045500D01*
X44582653Y-43045500D01*
X44381444Y-43083112D01*
X44381441Y-43083112D01*
X44381441Y-43083113D01*
X44190575Y-43157054D01*
X44190569Y-43157057D01*
X44016539Y-43264812D01*
X44016537Y-43264814D01*
X43865269Y-43402712D01*
X43741912Y-43566064D01*
X43650673Y-43749295D01*
X43594654Y-43946183D01*
X43575768Y-44149999D01*
X43254232Y-44149999D01*
X43235345Y-43946179D01*
X43179328Y-43749299D01*
X43088088Y-43566065D01*
X42964732Y-43402715D01*
X42964730Y-43402712D01*
X42813462Y-43264814D01*
X42813460Y-43264812D01*
X42639430Y-43157057D01*
X42639424Y-43157054D01*
X42488993Y-43098777D01*
X42448556Y-43083112D01*
X42247347Y-43045500D01*
X42042653Y-43045500D01*
X41841444Y-43083112D01*
X41841441Y-43083112D01*
X41841441Y-43083113D01*
X41650575Y-43157054D01*
X41650569Y-43157057D01*
X41476539Y-43264812D01*
X41476537Y-43264814D01*
X41325269Y-43402712D01*
X41201912Y-43566064D01*
X41110673Y-43749295D01*
X41054654Y-43946183D01*
X41035768Y-44149999D01*
X40714232Y-44149999D01*
X40695345Y-43946179D01*
X40639328Y-43749299D01*
X40548088Y-43566065D01*
X40424732Y-43402715D01*
X40424730Y-43402712D01*
X40273462Y-43264814D01*
X40273460Y-43264812D01*
X40099430Y-43157057D01*
X40099424Y-43157054D01*
X39948993Y-43098777D01*
X39908556Y-43083112D01*
X39707347Y-43045500D01*
X39502653Y-43045500D01*
X39301444Y-43083112D01*
X39301441Y-43083112D01*
X39301441Y-43083113D01*
X39110575Y-43157054D01*
X39110569Y-43157057D01*
X38936539Y-43264812D01*
X38936537Y-43264814D01*
X38785269Y-43402712D01*
X38661912Y-43566064D01*
X38570673Y-43749295D01*
X38514654Y-43946183D01*
X38495768Y-44149999D01*
X38495768Y-44150000D01*
X38512431Y-44329827D01*
X38499016Y-44398397D01*
X38450659Y-44448828D01*
X38382713Y-44465111D01*
X38375026Y-44464053D01*
X38374980Y-44464466D01*
X38268272Y-44452443D01*
X38203858Y-44425377D01*
X38164302Y-44367782D01*
X38158684Y-44317784D01*
X38174232Y-44150000D01*
X38155345Y-43946179D01*
X38099328Y-43749299D01*
X38008088Y-43566065D01*
X37884732Y-43402715D01*
X37884730Y-43402712D01*
X37733462Y-43264814D01*
X37733460Y-43264812D01*
X37559430Y-43157057D01*
X37559424Y-43157054D01*
X37408993Y-43098777D01*
X37368556Y-43083112D01*
X37167347Y-43045500D01*
X36962653Y-43045500D01*
X36761444Y-43083112D01*
X36761441Y-43083112D01*
X36761441Y-43083113D01*
X36570575Y-43157054D01*
X36570569Y-43157057D01*
X36396539Y-43264812D01*
X36396537Y-43264814D01*
X36245269Y-43402712D01*
X36121912Y-43566064D01*
X36030673Y-43749295D01*
X35974654Y-43946183D01*
X35955768Y-44149999D01*
X35634232Y-44149999D01*
X35615345Y-43946179D01*
X35559328Y-43749299D01*
X35468088Y-43566065D01*
X35344732Y-43402715D01*
X35344730Y-43402712D01*
X35193462Y-43264814D01*
X35193460Y-43264812D01*
X35019430Y-43157057D01*
X35019424Y-43157054D01*
X34868993Y-43098777D01*
X34828556Y-43083112D01*
X34627347Y-43045500D01*
X34422653Y-43045500D01*
X34221444Y-43083112D01*
X34221441Y-43083112D01*
X34221441Y-43083113D01*
X34030575Y-43157054D01*
X34030569Y-43157057D01*
X33856539Y-43264812D01*
X33856537Y-43264814D01*
X33705269Y-43402712D01*
X33581912Y-43566064D01*
X33490673Y-43749295D01*
X33434654Y-43946183D01*
X33415768Y-44149999D01*
X33094232Y-44149999D01*
X33075345Y-43946179D01*
X33019328Y-43749299D01*
X32928088Y-43566065D01*
X32804732Y-43402715D01*
X32804730Y-43402712D01*
X32653462Y-43264814D01*
X32653460Y-43264812D01*
X32479430Y-43157057D01*
X32479424Y-43157054D01*
X32328993Y-43098777D01*
X32288556Y-43083112D01*
X32087347Y-43045500D01*
X31882653Y-43045500D01*
X31681444Y-43083112D01*
X31681441Y-43083112D01*
X31681441Y-43083113D01*
X31490575Y-43157054D01*
X31490569Y-43157057D01*
X31316539Y-43264812D01*
X31316537Y-43264814D01*
X31165269Y-43402712D01*
X31041912Y-43566064D01*
X30950673Y-43749295D01*
X30894654Y-43946183D01*
X30875768Y-44149999D01*
X20500000Y-44149999D01*
X20500000Y-33655513D01*
X22174500Y-33655513D01*
X22174500Y-33844486D01*
X22204059Y-34031118D01*
X22262454Y-34210836D01*
X22307539Y-34299319D01*
X22348240Y-34379199D01*
X22459310Y-34532073D01*
X22592927Y-34665690D01*
X22745801Y-34776760D01*
X22808668Y-34808792D01*
X22914163Y-34862545D01*
X22914165Y-34862545D01*
X22914168Y-34862547D01*
X22974251Y-34882069D01*
X23031926Y-34921507D01*
X23059124Y-34985866D01*
X23047209Y-35054712D01*
X22999965Y-35106188D01*
X22974253Y-35117930D01*
X22957449Y-35123390D01*
X22914163Y-35137454D01*
X22745800Y-35223240D01*
X22659692Y-35285802D01*
X22592927Y-35334310D01*
X22592925Y-35334312D01*
X22592924Y-35334312D01*
X22459312Y-35467924D01*
X22459312Y-35467925D01*
X22459310Y-35467927D01*
X22442009Y-35491740D01*
X22348240Y-35620800D01*
X22262454Y-35789163D01*
X22204059Y-35968881D01*
X22174500Y-36155513D01*
X22174500Y-36344486D01*
X22204059Y-36531118D01*
X22262454Y-36710836D01*
X22289643Y-36764196D01*
X22348240Y-36879199D01*
X22459310Y-37032073D01*
X22592927Y-37165690D01*
X22745801Y-37276760D01*
X22794464Y-37301555D01*
X22914163Y-37362545D01*
X22914165Y-37362545D01*
X22914168Y-37362547D01*
X23010497Y-37393846D01*
X23093881Y-37420940D01*
X23280514Y-37450500D01*
X23280519Y-37450500D01*
X23719486Y-37450500D01*
X23906118Y-37420940D01*
X23969025Y-37400500D01*
X24085832Y-37362547D01*
X24254199Y-37276760D01*
X24407073Y-37165690D01*
X24540690Y-37032073D01*
X24651760Y-36879199D01*
X24737547Y-36710832D01*
X24795940Y-36531118D01*
X24799560Y-36508260D01*
X24825500Y-36344486D01*
X24825500Y-36155513D01*
X24795940Y-35968881D01*
X24737545Y-35789163D01*
X24684710Y-35685469D01*
X24651760Y-35620801D01*
X24540690Y-35467927D01*
X24407073Y-35334310D01*
X24254199Y-35223240D01*
X24085832Y-35137453D01*
X24025748Y-35117930D01*
X23968073Y-35078493D01*
X23940875Y-35014135D01*
X23952790Y-34945288D01*
X24000034Y-34893813D01*
X24025746Y-34882069D01*
X24085832Y-34862547D01*
X24254199Y-34776760D01*
X24407073Y-34665690D01*
X24540690Y-34532073D01*
X24651760Y-34379199D01*
X24737547Y-34210832D01*
X24795940Y-34031118D01*
X24798297Y-34016239D01*
X24825500Y-33844486D01*
X24825500Y-33655513D01*
X24795940Y-33468881D01*
X24737545Y-33289163D01*
X24653190Y-33123608D01*
X24651760Y-33120801D01*
X24540690Y-32967927D01*
X24407073Y-32834310D01*
X24254199Y-32723240D01*
X24247624Y-32719890D01*
X24085836Y-32637454D01*
X23906118Y-32579059D01*
X23719486Y-32549500D01*
X23719481Y-32549500D01*
X23280519Y-32549500D01*
X23280514Y-32549500D01*
X23093881Y-32579059D01*
X22914163Y-32637454D01*
X22745800Y-32723240D01*
X22658579Y-32786610D01*
X22592927Y-32834310D01*
X22592925Y-32834312D01*
X22592924Y-32834312D01*
X22459312Y-32967924D01*
X22459312Y-32967925D01*
X22459310Y-32967927D01*
X22422556Y-33018514D01*
X22348240Y-33120800D01*
X22262454Y-33289163D01*
X22204059Y-33468881D01*
X22174500Y-33655513D01*
X20500000Y-33655513D01*
X20500000Y-30891739D01*
X28024500Y-30891739D01*
X28024500Y-31908260D01*
X28034426Y-31976391D01*
X28085803Y-32081485D01*
X28168514Y-32164196D01*
X28168515Y-32164196D01*
X28168517Y-32164198D01*
X28273607Y-32215573D01*
X28307673Y-32220536D01*
X28341739Y-32225500D01*
X29652640Y-32225500D01*
X29719679Y-32245185D01*
X29765434Y-32297989D01*
X29775378Y-32367147D01*
X29746353Y-32430703D01*
X29708935Y-32459985D01*
X29542180Y-32544951D01*
X29370213Y-32669890D01*
X29219897Y-32820206D01*
X29219895Y-32820209D01*
X29217584Y-32823390D01*
X29162252Y-32866053D01*
X29117269Y-32874500D01*
X28341739Y-32874500D01*
X28273608Y-32884426D01*
X28168514Y-32935803D01*
X28085803Y-33018514D01*
X28034426Y-33123608D01*
X28024500Y-33191739D01*
X28024500Y-34208260D01*
X28034426Y-34276391D01*
X28085803Y-34381485D01*
X28168514Y-34464196D01*
X28168515Y-34464196D01*
X28168517Y-34464198D01*
X28273607Y-34515573D01*
X28307673Y-34520536D01*
X28341739Y-34525500D01*
X28341740Y-34525500D01*
X29117269Y-34525500D01*
X29184308Y-34545185D01*
X29217584Y-34576610D01*
X29219896Y-34579792D01*
X29219903Y-34579799D01*
X29221647Y-34581841D01*
X29222068Y-34582782D01*
X29222756Y-34583728D01*
X29222557Y-34583872D01*
X29250222Y-34645601D01*
X29239789Y-34714687D01*
X29193662Y-34767166D01*
X29183657Y-34772863D01*
X29042185Y-34844947D01*
X29042184Y-34844948D01*
X28870213Y-34969890D01*
X28719897Y-35120206D01*
X28719895Y-35120209D01*
X28717584Y-35123390D01*
X28662252Y-35166053D01*
X28617269Y-35174500D01*
X28341739Y-35174500D01*
X28273608Y-35184426D01*
X28168514Y-35235803D01*
X28085803Y-35318514D01*
X28034426Y-35423608D01*
X28024500Y-35491739D01*
X28024500Y-36508260D01*
X28034426Y-36576391D01*
X28085803Y-36681485D01*
X28168514Y-36764196D01*
X28168515Y-36764196D01*
X28168517Y-36764198D01*
X28273607Y-36815573D01*
X28307673Y-36820536D01*
X28341739Y-36825500D01*
X28341740Y-36825500D01*
X28617269Y-36825500D01*
X28684308Y-36845185D01*
X28717584Y-36876610D01*
X28719896Y-36879792D01*
X28719897Y-36879793D01*
X28870213Y-37030109D01*
X29042179Y-37155048D01*
X29042181Y-37155049D01*
X29042184Y-37155051D01*
X29231588Y-37251557D01*
X29433757Y-37317246D01*
X29643713Y-37350500D01*
X29643714Y-37350500D01*
X32106286Y-37350500D01*
X32106287Y-37350500D01*
X32316243Y-37317246D01*
X32518412Y-37251557D01*
X32707816Y-37155051D01*
X32810966Y-37080109D01*
X32879786Y-37030109D01*
X32879788Y-37030106D01*
X32879792Y-37030104D01*
X33030104Y-36879792D01*
X33030106Y-36879788D01*
X33030109Y-36879786D01*
X33155048Y-36707820D01*
X33155047Y-36707820D01*
X33155051Y-36707816D01*
X33251557Y-36518412D01*
X33317246Y-36316243D01*
X33350500Y-36106287D01*
X33350500Y-35893713D01*
X33336958Y-35808213D01*
X33345912Y-35738921D01*
X33390909Y-35685469D01*
X33457660Y-35664829D01*
X33477303Y-35666111D01*
X33541740Y-35675500D01*
X33541741Y-35675500D01*
X36358261Y-35675500D01*
X36386791Y-35671343D01*
X36426393Y-35665573D01*
X36531483Y-35614198D01*
X36614198Y-35531483D01*
X36665573Y-35426393D01*
X36675500Y-35358260D01*
X36675500Y-34299319D01*
X36689014Y-34243027D01*
X36701557Y-34218412D01*
X36767246Y-34016243D01*
X36800500Y-33806287D01*
X36800500Y-30891739D01*
X37674500Y-30891739D01*
X37674500Y-31908260D01*
X37684426Y-31976391D01*
X37735803Y-32081485D01*
X37818514Y-32164196D01*
X37818515Y-32164196D01*
X37818517Y-32164198D01*
X37923607Y-32215573D01*
X37957673Y-32220536D01*
X37991739Y-32225500D01*
X38652640Y-32225500D01*
X38719679Y-32245185D01*
X38765434Y-32297989D01*
X38775378Y-32367147D01*
X38746353Y-32430703D01*
X38708935Y-32459985D01*
X38542180Y-32544951D01*
X38370213Y-32669890D01*
X38219897Y-32820206D01*
X38219895Y-32820209D01*
X38217584Y-32823390D01*
X38162252Y-32866053D01*
X38117269Y-32874500D01*
X37991739Y-32874500D01*
X37923608Y-32884426D01*
X37818514Y-32935803D01*
X37735803Y-33018514D01*
X37684426Y-33123608D01*
X37674500Y-33191739D01*
X37674500Y-34208260D01*
X37684426Y-34276391D01*
X37735803Y-34381485D01*
X37818514Y-34464196D01*
X37818515Y-34464196D01*
X37818517Y-34464198D01*
X37923607Y-34515573D01*
X37957673Y-34520536D01*
X37991739Y-34525500D01*
X37991740Y-34525500D01*
X38117269Y-34525500D01*
X38184308Y-34545185D01*
X38217584Y-34576610D01*
X38219895Y-34579790D01*
X38219897Y-34579793D01*
X38370211Y-34730107D01*
X38478514Y-34808792D01*
X38521181Y-34864122D01*
X38527160Y-34933735D01*
X38494555Y-34995530D01*
X38493312Y-34996792D01*
X38369893Y-35120211D01*
X38367584Y-35123390D01*
X38312252Y-35166053D01*
X38267269Y-35174500D01*
X37991739Y-35174500D01*
X37923608Y-35184426D01*
X37818514Y-35235803D01*
X37735803Y-35318514D01*
X37684426Y-35423608D01*
X37674500Y-35491739D01*
X37674500Y-36508260D01*
X37684426Y-36576391D01*
X37735803Y-36681485D01*
X37818514Y-36764196D01*
X37818515Y-36764196D01*
X37818517Y-36764198D01*
X37923607Y-36815573D01*
X37957673Y-36820536D01*
X37991739Y-36825500D01*
X37991740Y-36825500D01*
X38267269Y-36825500D01*
X38334308Y-36845185D01*
X38367584Y-36876610D01*
X38369896Y-36879792D01*
X38369897Y-36879793D01*
X38520213Y-37030109D01*
X38692179Y-37155048D01*
X38692181Y-37155049D01*
X38692184Y-37155051D01*
X38881588Y-37251557D01*
X39083757Y-37317246D01*
X39293713Y-37350500D01*
X39293714Y-37350500D01*
X42106286Y-37350500D01*
X42106287Y-37350500D01*
X42316243Y-37317246D01*
X42518412Y-37251557D01*
X42707816Y-37155051D01*
X42810966Y-37080109D01*
X42879786Y-37030109D01*
X42879788Y-37030106D01*
X42879792Y-37030104D01*
X43030104Y-36879792D01*
X43030106Y-36879788D01*
X43030109Y-36879786D01*
X43155048Y-36707820D01*
X43155047Y-36707820D01*
X43155051Y-36707816D01*
X43251557Y-36518412D01*
X43317246Y-36316243D01*
X43350500Y-36106287D01*
X43350500Y-35893713D01*
X43338650Y-35818896D01*
X43347604Y-35749605D01*
X43392600Y-35696153D01*
X43459352Y-35675513D01*
X43461123Y-35675500D01*
X46008261Y-35675500D01*
X46036791Y-35671343D01*
X46076393Y-35665573D01*
X46181483Y-35614198D01*
X46264198Y-35531483D01*
X46315573Y-35426393D01*
X46325500Y-35358260D01*
X46325500Y-32041740D01*
X46315573Y-31973607D01*
X46264198Y-31868517D01*
X46264196Y-31868515D01*
X46264196Y-31868514D01*
X46181485Y-31785803D01*
X46076391Y-31734426D01*
X46008261Y-31724500D01*
X46008260Y-31724500D01*
X45924500Y-31724500D01*
X45857461Y-31704815D01*
X45811706Y-31652011D01*
X45800500Y-31600500D01*
X45800500Y-30891739D01*
X47074500Y-30891739D01*
X47074500Y-31908260D01*
X47084426Y-31976391D01*
X47135803Y-32081485D01*
X47218514Y-32164196D01*
X47218515Y-32164196D01*
X47218517Y-32164198D01*
X47323607Y-32215573D01*
X47357673Y-32220536D01*
X47391739Y-32225500D01*
X48152640Y-32225500D01*
X48219679Y-32245185D01*
X48265434Y-32297989D01*
X48275378Y-32367147D01*
X48246353Y-32430703D01*
X48208935Y-32459985D01*
X48042180Y-32544951D01*
X47870213Y-32669890D01*
X47719897Y-32820206D01*
X47719895Y-32820209D01*
X47717584Y-32823390D01*
X47662252Y-32866053D01*
X47617269Y-32874500D01*
X47391739Y-32874500D01*
X47323608Y-32884426D01*
X47218514Y-32935803D01*
X47135803Y-33018514D01*
X47084426Y-33123608D01*
X47074500Y-33191739D01*
X47074500Y-34208260D01*
X47084426Y-34276391D01*
X47135803Y-34381485D01*
X47218514Y-34464196D01*
X47218515Y-34464196D01*
X47218517Y-34464198D01*
X47323607Y-34515573D01*
X47357673Y-34520536D01*
X47391739Y-34525500D01*
X47391740Y-34525500D01*
X47617269Y-34525500D01*
X47684308Y-34545185D01*
X47717584Y-34576610D01*
X47719895Y-34579790D01*
X47719897Y-34579793D01*
X47870211Y-34730107D01*
X47922153Y-34767844D01*
X47964820Y-34823173D01*
X47970800Y-34892787D01*
X47938194Y-34954582D01*
X47922167Y-34968472D01*
X47920213Y-34969891D01*
X47920205Y-34969898D01*
X47769897Y-35120206D01*
X47769895Y-35120209D01*
X47767584Y-35123390D01*
X47712252Y-35166053D01*
X47667269Y-35174500D01*
X47391739Y-35174500D01*
X47323608Y-35184426D01*
X47218514Y-35235803D01*
X47135803Y-35318514D01*
X47084426Y-35423608D01*
X47074500Y-35491739D01*
X47074500Y-36508260D01*
X47084426Y-36576391D01*
X47135803Y-36681485D01*
X47218514Y-36764196D01*
X47218515Y-36764196D01*
X47218517Y-36764198D01*
X47323607Y-36815573D01*
X47357673Y-36820536D01*
X47391739Y-36825500D01*
X47391740Y-36825500D01*
X47667269Y-36825500D01*
X47734308Y-36845185D01*
X47767584Y-36876610D01*
X47769896Y-36879792D01*
X47769897Y-36879793D01*
X47920213Y-37030109D01*
X48092179Y-37155048D01*
X48092181Y-37155049D01*
X48092184Y-37155051D01*
X48281588Y-37251557D01*
X48483757Y-37317246D01*
X48693713Y-37350500D01*
X48693714Y-37350500D01*
X51356286Y-37350500D01*
X51356287Y-37350500D01*
X51566243Y-37317246D01*
X51768412Y-37251557D01*
X51957816Y-37155051D01*
X52060966Y-37080109D01*
X52129786Y-37030109D01*
X52129788Y-37030106D01*
X52129792Y-37030104D01*
X52280104Y-36879792D01*
X52280106Y-36879788D01*
X52280109Y-36879786D01*
X52405048Y-36707820D01*
X52405047Y-36707820D01*
X52405051Y-36707816D01*
X52501557Y-36518412D01*
X52567246Y-36316243D01*
X52600500Y-36106287D01*
X52600500Y-35893713D01*
X52588650Y-35818896D01*
X52597604Y-35749605D01*
X52642600Y-35696153D01*
X52709352Y-35675513D01*
X52711123Y-35675500D01*
X55408261Y-35675500D01*
X55436791Y-35671343D01*
X55476393Y-35665573D01*
X55581483Y-35614198D01*
X55664198Y-35531483D01*
X55715573Y-35426393D01*
X55725500Y-35358260D01*
X55725500Y-32041740D01*
X55715573Y-31973607D01*
X55664198Y-31868517D01*
X55664196Y-31868515D01*
X55664196Y-31868514D01*
X55581485Y-31785803D01*
X55476391Y-31734426D01*
X55406622Y-31724261D01*
X55343121Y-31695117D01*
X55305457Y-31636268D01*
X55300500Y-31601557D01*
X55300500Y-24843713D01*
X55267246Y-24633757D01*
X55201557Y-24431588D01*
X55105051Y-24242184D01*
X55105049Y-24242181D01*
X55105048Y-24242179D01*
X54980109Y-24070213D01*
X53386819Y-22476923D01*
X53353334Y-22415600D01*
X53350500Y-22389242D01*
X53350500Y-21893713D01*
X53317246Y-21683760D01*
X53317246Y-21683757D01*
X53251557Y-21481588D01*
X53214014Y-21407905D01*
X53200499Y-21351610D01*
X53200499Y-21210636D01*
X53185046Y-21093246D01*
X53185044Y-21093239D01*
X53185044Y-21093238D01*
X53124536Y-20947159D01*
X53028282Y-20821718D01*
X52902841Y-20725464D01*
X52756762Y-20664956D01*
X52756760Y-20664955D01*
X52639370Y-20649501D01*
X52639367Y-20649500D01*
X52639361Y-20649500D01*
X52106289Y-20649500D01*
X52106287Y-20649500D01*
X51893713Y-20649500D01*
X51893709Y-20649500D01*
X51360636Y-20649500D01*
X51243246Y-20664953D01*
X51243237Y-20664956D01*
X51097160Y-20725463D01*
X50971718Y-20821718D01*
X50875463Y-20947160D01*
X50814956Y-21093237D01*
X50814955Y-21093239D01*
X50799501Y-21210629D01*
X50799501Y-21210636D01*
X50799500Y-21210645D01*
X50799500Y-21351612D01*
X50785985Y-21407907D01*
X50748444Y-21481585D01*
X50682753Y-21683760D01*
X50649500Y-21893713D01*
X50649500Y-23106286D01*
X50682753Y-23316239D01*
X50748444Y-23518414D01*
X50844951Y-23707820D01*
X50969889Y-23879784D01*
X50969893Y-23879788D01*
X50969896Y-23879792D01*
X51047918Y-23957814D01*
X51124538Y-24034434D01*
X51124549Y-24034444D01*
X52563181Y-25473076D01*
X52596666Y-25534399D01*
X52599500Y-25560757D01*
X52599500Y-25875500D01*
X52579815Y-25942539D01*
X52527011Y-25988294D01*
X52475500Y-25999500D01*
X51860636Y-25999500D01*
X51743246Y-26014953D01*
X51743237Y-26014956D01*
X51597160Y-26075463D01*
X51471718Y-26171718D01*
X51375463Y-26297160D01*
X51314956Y-26443237D01*
X51314955Y-26443239D01*
X51303520Y-26530104D01*
X51299501Y-26560636D01*
X51299500Y-26560645D01*
X51299500Y-28439363D01*
X51314953Y-28556753D01*
X51314956Y-28556762D01*
X51375464Y-28702841D01*
X51471718Y-28828282D01*
X51597159Y-28924536D01*
X51743238Y-28985044D01*
X51860639Y-29000500D01*
X52475500Y-29000499D01*
X52542539Y-29020183D01*
X52588294Y-29072987D01*
X52599500Y-29124499D01*
X52599500Y-31619920D01*
X52579815Y-31686959D01*
X52529960Y-31731320D01*
X52418517Y-31785800D01*
X52335803Y-31868514D01*
X52284426Y-31973608D01*
X52274500Y-32041739D01*
X52274500Y-32225500D01*
X52254815Y-32292539D01*
X52202011Y-32338294D01*
X52150500Y-32349500D01*
X51488619Y-32349500D01*
X51421580Y-32329815D01*
X51375825Y-32277011D01*
X51365881Y-32207853D01*
X51394906Y-32144297D01*
X51447664Y-32108458D01*
X51527690Y-32080456D01*
X51527692Y-32080454D01*
X51527694Y-32080454D01*
X51527697Y-32080452D01*
X51670884Y-31990481D01*
X51670885Y-31990480D01*
X51670890Y-31990477D01*
X51790477Y-31870890D01*
X51843943Y-31785800D01*
X51880452Y-31727697D01*
X51880454Y-31727694D01*
X51880454Y-31727692D01*
X51880456Y-31727690D01*
X51936313Y-31568059D01*
X51936313Y-31568058D01*
X51936314Y-31568056D01*
X51955249Y-31400002D01*
X51955249Y-31399997D01*
X51936314Y-31231943D01*
X51880454Y-31072305D01*
X51880452Y-31072302D01*
X51790481Y-30929115D01*
X51790476Y-30929109D01*
X51670890Y-30809523D01*
X51670884Y-30809518D01*
X51527697Y-30719547D01*
X51527694Y-30719545D01*
X51368056Y-30663685D01*
X51200003Y-30644751D01*
X51199997Y-30644751D01*
X51031943Y-30663685D01*
X50872305Y-30719545D01*
X50872302Y-30719547D01*
X50729115Y-30809518D01*
X50703867Y-30834766D01*
X50642543Y-30868250D01*
X50572852Y-30863264D01*
X50516919Y-30821392D01*
X50504789Y-30801548D01*
X50464198Y-30718517D01*
X50464196Y-30718515D01*
X50464196Y-30718514D01*
X50381485Y-30635803D01*
X50276391Y-30584426D01*
X50208261Y-30574500D01*
X50208260Y-30574500D01*
X47391740Y-30574500D01*
X47391739Y-30574500D01*
X47323608Y-30584426D01*
X47218514Y-30635803D01*
X47135803Y-30718514D01*
X47084426Y-30823608D01*
X47074500Y-30891739D01*
X45800500Y-30891739D01*
X45800500Y-28664823D01*
X45809939Y-28617370D01*
X45835044Y-28556762D01*
X45850500Y-28439361D01*
X45850499Y-26560640D01*
X45850499Y-26560639D01*
X45850499Y-26560636D01*
X45835046Y-26443246D01*
X45835044Y-26443239D01*
X45835044Y-26443238D01*
X45822818Y-26413723D01*
X45809939Y-26382628D01*
X45800500Y-26335176D01*
X45800500Y-24811422D01*
X45800501Y-24811397D01*
X45800501Y-24593715D01*
X45790426Y-24530104D01*
X45767246Y-24383757D01*
X45701557Y-24181588D01*
X45605051Y-23992184D01*
X45580081Y-23957816D01*
X45580081Y-23957815D01*
X45580079Y-23957814D01*
X45506316Y-23856286D01*
X45480109Y-23820214D01*
X45480106Y-23820211D01*
X45480104Y-23820208D01*
X45329792Y-23669896D01*
X45329791Y-23669895D01*
X45326680Y-23666784D01*
X45326665Y-23666770D01*
X44386819Y-22726924D01*
X44353334Y-22665601D01*
X44350500Y-22639243D01*
X44350500Y-21893713D01*
X44317246Y-21683760D01*
X44317246Y-21683757D01*
X44251557Y-21481588D01*
X44214014Y-21407905D01*
X44200499Y-21351610D01*
X44200499Y-21210636D01*
X44185046Y-21093246D01*
X44185044Y-21093239D01*
X44185044Y-21093238D01*
X44124536Y-20947159D01*
X44028282Y-20821718D01*
X43902841Y-20725464D01*
X43756762Y-20664956D01*
X43756760Y-20664955D01*
X43639370Y-20649501D01*
X43639367Y-20649500D01*
X43639361Y-20649500D01*
X43106289Y-20649500D01*
X43106287Y-20649500D01*
X42893713Y-20649500D01*
X42893709Y-20649500D01*
X42360636Y-20649500D01*
X42243246Y-20664953D01*
X42243237Y-20664956D01*
X42097160Y-20725463D01*
X41971718Y-20821718D01*
X41875463Y-20947160D01*
X41814956Y-21093237D01*
X41814955Y-21093239D01*
X41799501Y-21210629D01*
X41799501Y-21210636D01*
X41799500Y-21210645D01*
X41799500Y-21351612D01*
X41785985Y-21407907D01*
X41748444Y-21481585D01*
X41682753Y-21683760D01*
X41649500Y-21893713D01*
X41649500Y-23356286D01*
X41675178Y-23518414D01*
X41682754Y-23566243D01*
X41728755Y-23707820D01*
X41748444Y-23768414D01*
X41844951Y-23957820D01*
X41969889Y-24129784D01*
X41969893Y-24129788D01*
X41969896Y-24129792D01*
X42047920Y-24207816D01*
X42124538Y-24284434D01*
X42124549Y-24284444D01*
X43063181Y-25223076D01*
X43096666Y-25284399D01*
X43099500Y-25310757D01*
X43099500Y-25929508D01*
X43079815Y-25996547D01*
X43027011Y-26042302D01*
X43022953Y-26044069D01*
X42947160Y-26075463D01*
X42821718Y-26171718D01*
X42725463Y-26297160D01*
X42664956Y-26443237D01*
X42664955Y-26443239D01*
X42653520Y-26530104D01*
X42649501Y-26560636D01*
X42649500Y-26560645D01*
X42649500Y-28439363D01*
X42664953Y-28556753D01*
X42664956Y-28556762D01*
X42725464Y-28702841D01*
X42821718Y-28828282D01*
X42947159Y-28924536D01*
X43022953Y-28955931D01*
X43077356Y-28999770D01*
X43099421Y-29066064D01*
X43099500Y-29070491D01*
X43099500Y-31668807D01*
X43079815Y-31735846D01*
X43029961Y-31780207D01*
X43018515Y-31785802D01*
X42935803Y-31868514D01*
X42884426Y-31973608D01*
X42874500Y-32041739D01*
X42874500Y-32225500D01*
X42854815Y-32292539D01*
X42802011Y-32338294D01*
X42750500Y-32349500D01*
X41095544Y-32349500D01*
X41028505Y-32329815D01*
X40982750Y-32277011D01*
X40972806Y-32207853D01*
X41001831Y-32144297D01*
X41007863Y-32137819D01*
X41064197Y-32081484D01*
X41064199Y-32081482D01*
X41118680Y-31970040D01*
X41165808Y-31918457D01*
X41230080Y-31900500D01*
X41708524Y-31900500D01*
X41749479Y-31907459D01*
X41831939Y-31936313D01*
X41999997Y-31955249D01*
X42000000Y-31955249D01*
X42000003Y-31955249D01*
X42168056Y-31936314D01*
X42168059Y-31936313D01*
X42327690Y-31880456D01*
X42327692Y-31880454D01*
X42327694Y-31880454D01*
X42327697Y-31880452D01*
X42470884Y-31790481D01*
X42470885Y-31790480D01*
X42470890Y-31790477D01*
X42590477Y-31670890D01*
X42634042Y-31601557D01*
X42680452Y-31527697D01*
X42680454Y-31527694D01*
X42680454Y-31527692D01*
X42680456Y-31527690D01*
X42736313Y-31368059D01*
X42736313Y-31368058D01*
X42736314Y-31368056D01*
X42755249Y-31200002D01*
X42755249Y-31199997D01*
X42736314Y-31031943D01*
X42680454Y-30872305D01*
X42680452Y-30872302D01*
X42590481Y-30729115D01*
X42590476Y-30729109D01*
X42470890Y-30609523D01*
X42470884Y-30609518D01*
X42327697Y-30519547D01*
X42327694Y-30519545D01*
X42168056Y-30463685D01*
X42000003Y-30444751D01*
X41999997Y-30444751D01*
X41831943Y-30463685D01*
X41672305Y-30519545D01*
X41672302Y-30519547D01*
X41529115Y-30609518D01*
X41529109Y-30609523D01*
X41409523Y-30729109D01*
X41338921Y-30841472D01*
X41286586Y-30887763D01*
X41233927Y-30899500D01*
X41230080Y-30899500D01*
X41163041Y-30879815D01*
X41118680Y-30829960D01*
X41064199Y-30718517D01*
X40981485Y-30635803D01*
X40876391Y-30584426D01*
X40808261Y-30574500D01*
X40808260Y-30574500D01*
X37991740Y-30574500D01*
X37991739Y-30574500D01*
X37923608Y-30584426D01*
X37818514Y-30635803D01*
X37735803Y-30718514D01*
X37684426Y-30823608D01*
X37674500Y-30891739D01*
X36800500Y-30891739D01*
X36800500Y-25311422D01*
X36800501Y-25311397D01*
X36800501Y-25093715D01*
X36767246Y-24883760D01*
X36767246Y-24883757D01*
X36701557Y-24681588D01*
X36605051Y-24492184D01*
X36580081Y-24457816D01*
X36580081Y-24457815D01*
X36580079Y-24457814D01*
X36523390Y-24379787D01*
X36480109Y-24320214D01*
X36480106Y-24320211D01*
X36480104Y-24320208D01*
X36329792Y-24169896D01*
X36329791Y-24169895D01*
X36326680Y-24166784D01*
X36326665Y-24166770D01*
X35386819Y-23226924D01*
X35353334Y-23165601D01*
X35350500Y-23139243D01*
X35350500Y-21893713D01*
X35317246Y-21683760D01*
X35317246Y-21683757D01*
X35251557Y-21481588D01*
X35214014Y-21407905D01*
X35200499Y-21351610D01*
X35200499Y-21210636D01*
X35185046Y-21093246D01*
X35185044Y-21093239D01*
X35185044Y-21093238D01*
X35124536Y-20947159D01*
X35028282Y-20821718D01*
X34902841Y-20725464D01*
X34756762Y-20664956D01*
X34756760Y-20664955D01*
X34639370Y-20649501D01*
X34639367Y-20649500D01*
X34639361Y-20649500D01*
X34106289Y-20649500D01*
X34106287Y-20649500D01*
X33893713Y-20649500D01*
X33893709Y-20649500D01*
X33360636Y-20649500D01*
X33243246Y-20664953D01*
X33243237Y-20664956D01*
X33097160Y-20725463D01*
X32971718Y-20821718D01*
X32875463Y-20947160D01*
X32814956Y-21093237D01*
X32814955Y-21093239D01*
X32799501Y-21210629D01*
X32799501Y-21210636D01*
X32799500Y-21210645D01*
X32799500Y-21351612D01*
X32785985Y-21407907D01*
X32748444Y-21481585D01*
X32682753Y-21683760D01*
X32649500Y-21893713D01*
X32649500Y-23856286D01*
X32675178Y-24018414D01*
X32682754Y-24066243D01*
X32739919Y-24242179D01*
X32748444Y-24268414D01*
X32844951Y-24457820D01*
X32969889Y-24629784D01*
X32969893Y-24629788D01*
X32969896Y-24629792D01*
X33120208Y-24780104D01*
X33124538Y-24784434D01*
X33124549Y-24784444D01*
X34063181Y-25723076D01*
X34096666Y-25784399D01*
X34099500Y-25810757D01*
X34099500Y-25892221D01*
X34079815Y-25959260D01*
X34027011Y-26005015D01*
X34000990Y-26012489D01*
X34001088Y-26012853D01*
X33993237Y-26014956D01*
X33847160Y-26075463D01*
X33721718Y-26171718D01*
X33625463Y-26297160D01*
X33564956Y-26443237D01*
X33564955Y-26443239D01*
X33553520Y-26530104D01*
X33549501Y-26560636D01*
X33549500Y-26560645D01*
X33549500Y-28439363D01*
X33564953Y-28556753D01*
X33564956Y-28556762D01*
X33625464Y-28702841D01*
X33721718Y-28828282D01*
X33847159Y-28924536D01*
X33993238Y-28985044D01*
X33993243Y-28985044D01*
X34001088Y-28987147D01*
X34000644Y-28988803D01*
X34055576Y-29013101D01*
X34094051Y-29071423D01*
X34099500Y-29107778D01*
X34099500Y-31600500D01*
X34079815Y-31667539D01*
X34027011Y-31713294D01*
X33975500Y-31724500D01*
X33656098Y-31724500D01*
X33589059Y-31704815D01*
X33543304Y-31652011D01*
X33533360Y-31582853D01*
X33535207Y-31572908D01*
X33536313Y-31568059D01*
X33555249Y-31400002D01*
X33555249Y-31399997D01*
X33536314Y-31231943D01*
X33480454Y-31072305D01*
X33480452Y-31072302D01*
X33390481Y-30929115D01*
X33390476Y-30929109D01*
X33270890Y-30809523D01*
X33270884Y-30809518D01*
X33127697Y-30719547D01*
X33127694Y-30719545D01*
X32968056Y-30663685D01*
X32800003Y-30644751D01*
X32799997Y-30644751D01*
X32631943Y-30663685D01*
X32472305Y-30719545D01*
X32472302Y-30719547D01*
X32329115Y-30809518D01*
X32329109Y-30809523D01*
X32275452Y-30863181D01*
X32214129Y-30896666D01*
X32187771Y-30899500D01*
X31580080Y-30899500D01*
X31513041Y-30879815D01*
X31468680Y-30829960D01*
X31414199Y-30718517D01*
X31331485Y-30635803D01*
X31226391Y-30584426D01*
X31158261Y-30574500D01*
X31158260Y-30574500D01*
X28341740Y-30574500D01*
X28341739Y-30574500D01*
X28273608Y-30584426D01*
X28168514Y-30635803D01*
X28085803Y-30718514D01*
X28034426Y-30823608D01*
X28024500Y-30891739D01*
X20500000Y-30891739D01*
X20500000Y-27581640D01*
X20519685Y-27514601D01*
X20572489Y-27468846D01*
X20641647Y-27458902D01*
X20705203Y-27487927D01*
X20738561Y-27534187D01*
X20746296Y-27552861D01*
X20839373Y-27692162D01*
X20957837Y-27810626D01*
X21050494Y-27872537D01*
X21097137Y-27903703D01*
X21251918Y-27967816D01*
X21416228Y-28000499D01*
X21416232Y-28000500D01*
X21416233Y-28000500D01*
X21583768Y-28000500D01*
X21583769Y-28000499D01*
X21748082Y-27967816D01*
X21902863Y-27903703D01*
X22042162Y-27810626D01*
X22160626Y-27692162D01*
X22253703Y-27552863D01*
X22317816Y-27398082D01*
X22350500Y-27233767D01*
X22350500Y-27066233D01*
X22317816Y-26901918D01*
X22255534Y-26751557D01*
X22253704Y-26747139D01*
X22160626Y-26607837D01*
X22042162Y-26489373D01*
X21902860Y-26396295D01*
X21748082Y-26332184D01*
X21748074Y-26332182D01*
X21583771Y-26299500D01*
X21583767Y-26299500D01*
X21416233Y-26299500D01*
X21416228Y-26299500D01*
X21251925Y-26332182D01*
X21251917Y-26332184D01*
X21097139Y-26396295D01*
X20957837Y-26489373D01*
X20839373Y-26607837D01*
X20746295Y-26747139D01*
X20746293Y-26747143D01*
X20738560Y-26765813D01*
X20694719Y-26820216D01*
X20628424Y-26842280D01*
X20560725Y-26825000D01*
X20513115Y-26773862D01*
X20500000Y-26718359D01*
X20500000Y-21378711D01*
X21149500Y-21378711D01*
X21149500Y-21621288D01*
X21181161Y-21861785D01*
X21243947Y-22096104D01*
X21336773Y-22320205D01*
X21336776Y-22320212D01*
X21458064Y-22530289D01*
X21458066Y-22530292D01*
X21458067Y-22530293D01*
X21605733Y-22722736D01*
X21605739Y-22722743D01*
X21777256Y-22894260D01*
X21777262Y-22894265D01*
X21969711Y-23041936D01*
X22179788Y-23163224D01*
X22403900Y-23256054D01*
X22638211Y-23318838D01*
X22818586Y-23342584D01*
X22878711Y-23350500D01*
X22878712Y-23350500D01*
X23121289Y-23350500D01*
X23169388Y-23344167D01*
X23361789Y-23318838D01*
X23596100Y-23256054D01*
X23820212Y-23163224D01*
X24030289Y-23041936D01*
X24222738Y-22894265D01*
X24394265Y-22722738D01*
X24541936Y-22530289D01*
X24663224Y-22320212D01*
X24756054Y-22096100D01*
X24818838Y-21861789D01*
X24850500Y-21621288D01*
X24850500Y-21378712D01*
X24818838Y-21138211D01*
X24756054Y-20903900D01*
X24663224Y-20679788D01*
X24541936Y-20469711D01*
X24394265Y-20277262D01*
X24394260Y-20277256D01*
X24222743Y-20105739D01*
X24222736Y-20105733D01*
X24030293Y-19958067D01*
X24030292Y-19958066D01*
X24030289Y-19958064D01*
X23820212Y-19836776D01*
X23820205Y-19836773D01*
X23596104Y-19743947D01*
X23361785Y-19681161D01*
X23121289Y-19649500D01*
X23121288Y-19649500D01*
X22878712Y-19649500D01*
X22878711Y-19649500D01*
X22638214Y-19681161D01*
X22403895Y-19743947D01*
X22179794Y-19836773D01*
X22179785Y-19836777D01*
X21969706Y-19958067D01*
X21777263Y-20105733D01*
X21777256Y-20105739D01*
X21605739Y-20277256D01*
X21605733Y-20277263D01*
X21458067Y-20469706D01*
X21336777Y-20679785D01*
X21336773Y-20679794D01*
X21243947Y-20903895D01*
X21181161Y-21138214D01*
X21149500Y-21378711D01*
X20500000Y-21378711D01*
X20500000Y-19124000D01*
X20519685Y-19056961D01*
X20572489Y-19011206D01*
X20624000Y-19000000D01*
X59698638Y-19000000D01*
X59765677Y-19019685D01*
G37*
%TD.AperFunction*%
M02*
