%TF.GenerationSoftware,KiCad,Pcbnew,8.0.9-8.0.9-0~ubuntu24.04.1*%
%TF.CreationDate,2025-05-28T15:36:23+02:00*%
%TF.ProjectId,UniMixHeadFd,556e694d-6978-4486-9561-6446642e6b69,1.0*%
%TF.SameCoordinates,Original*%
%TF.FileFunction,Paste,Top*%
%TF.FilePolarity,Positive*%
%FSLAX46Y46*%
G04 Gerber Fmt 4.6, Leading zero omitted, Abs format (unit mm)*
G04 Created by KiCad (PCBNEW 8.0.9-8.0.9-0~ubuntu24.04.1) date 2025-05-28 15:36:23*
%MOMM*%
%LPD*%
G01*
G04 APERTURE LIST*
G04 Aperture macros list*
%AMRoundRect*
0 Rectangle with rounded corners*
0 $1 Rounding radius*
0 $2 $3 $4 $5 $6 $7 $8 $9 X,Y pos of 4 corners*
0 Add a 4 corners polygon primitive as box body*
4,1,4,$2,$3,$4,$5,$6,$7,$8,$9,$2,$3,0*
0 Add four circle primitives for the rounded corners*
1,1,$1+$1,$2,$3*
1,1,$1+$1,$4,$5*
1,1,$1+$1,$6,$7*
1,1,$1+$1,$8,$9*
0 Add four rect primitives between the rounded corners*
20,1,$1+$1,$2,$3,$4,$5,0*
20,1,$1+$1,$4,$5,$6,$7,0*
20,1,$1+$1,$6,$7,$8,$9,0*
20,1,$1+$1,$8,$9,$2,$3,0*%
G04 Aperture macros list end*
%ADD10RoundRect,0.225000X-0.225000X-0.250000X0.225000X-0.250000X0.225000X0.250000X-0.225000X0.250000X0*%
%ADD11RoundRect,0.225000X-0.250000X0.225000X-0.250000X-0.225000X0.250000X-0.225000X0.250000X0.225000X0*%
%ADD12R,2.750000X0.950000*%
%ADD13R,2.750000X3.250000*%
%ADD14RoundRect,0.100000X0.100000X-0.225000X0.100000X0.225000X-0.100000X0.225000X-0.100000X-0.225000X0*%
%ADD15RoundRect,0.250000X-1.000000X-0.900000X1.000000X-0.900000X1.000000X0.900000X-1.000000X0.900000X0*%
%ADD16RoundRect,0.200000X0.275000X-0.200000X0.275000X0.200000X-0.275000X0.200000X-0.275000X-0.200000X0*%
%ADD17RoundRect,0.200000X-0.200000X-0.275000X0.200000X-0.275000X0.200000X0.275000X-0.200000X0.275000X0*%
%ADD18RoundRect,0.200000X-0.275000X0.200000X-0.275000X-0.200000X0.275000X-0.200000X0.275000X0.200000X0*%
%ADD19RoundRect,0.200000X0.200000X0.275000X-0.200000X0.275000X-0.200000X-0.275000X0.200000X-0.275000X0*%
%ADD20RoundRect,0.225000X0.250000X-0.225000X0.250000X0.225000X-0.250000X0.225000X-0.250000X-0.225000X0*%
%ADD21RoundRect,0.250000X0.312500X0.625000X-0.312500X0.625000X-0.312500X-0.625000X0.312500X-0.625000X0*%
%ADD22RoundRect,0.100000X-0.100000X0.225000X-0.100000X-0.225000X0.100000X-0.225000X0.100000X0.225000X0*%
%ADD23RoundRect,0.150000X0.150000X-0.512500X0.150000X0.512500X-0.150000X0.512500X-0.150000X-0.512500X0*%
%ADD24RoundRect,0.225000X0.225000X0.250000X-0.225000X0.250000X-0.225000X-0.250000X0.225000X-0.250000X0*%
%ADD25RoundRect,0.150000X0.150000X-0.825000X0.150000X0.825000X-0.150000X0.825000X-0.150000X-0.825000X0*%
G04 APERTURE END LIST*
D10*
X97625000Y-82600000D03*
X99175000Y-82600000D03*
D11*
X92200000Y-83850000D03*
X92200000Y-85400000D03*
D10*
X31400000Y-86600000D03*
X32950000Y-86600000D03*
D12*
X29750000Y-31400000D03*
X29750000Y-33700000D03*
X29750000Y-36000000D03*
D13*
X34950000Y-33700000D03*
D14*
X96400000Y-45000000D03*
X97050000Y-45000000D03*
X97700000Y-45000000D03*
X97700000Y-43100000D03*
X97050000Y-43100000D03*
X96400000Y-43100000D03*
D15*
X48600000Y-27500000D03*
X52900000Y-27500000D03*
D16*
X94600000Y-44025000D03*
X94600000Y-42375000D03*
D17*
X94375000Y-57200000D03*
X96025000Y-57200000D03*
D18*
X87600000Y-45575000D03*
X87600000Y-47225000D03*
D17*
X95925000Y-52200000D03*
X97575000Y-52200000D03*
D16*
X87600000Y-44050000D03*
X87600000Y-42400000D03*
D10*
X31400000Y-88200000D03*
X32950000Y-88200000D03*
D19*
X95425000Y-82200000D03*
X93775000Y-82200000D03*
D18*
X98400000Y-26375000D03*
X98400000Y-28025000D03*
D16*
X99400000Y-43825000D03*
X99400000Y-42175000D03*
D15*
X30850000Y-27500000D03*
X35150000Y-27500000D03*
X39950000Y-27500000D03*
X44250000Y-27500000D03*
D18*
X99400000Y-45400000D03*
X99400000Y-47050000D03*
D19*
X96600000Y-28200000D03*
X94950000Y-28200000D03*
D18*
X68600000Y-78200000D03*
X68600000Y-79850000D03*
D12*
X39400000Y-31400000D03*
X39400000Y-33700000D03*
X39400000Y-36000000D03*
D13*
X44600000Y-33700000D03*
D18*
X94600000Y-45550000D03*
X94600000Y-47200000D03*
X100200000Y-26375000D03*
X100200000Y-28025000D03*
D19*
X95425000Y-83800000D03*
X93775000Y-83800000D03*
D10*
X32225000Y-54200000D03*
X33775000Y-54200000D03*
D19*
X96025000Y-68800000D03*
X94375000Y-68800000D03*
D12*
X48800000Y-31400000D03*
X48800000Y-33700000D03*
X48800000Y-36000000D03*
D13*
X54000000Y-33700000D03*
D17*
X94375000Y-55600000D03*
X96025000Y-55600000D03*
D20*
X92800000Y-53975000D03*
X92800000Y-52425000D03*
D10*
X76800000Y-30000000D03*
X78350000Y-30000000D03*
D19*
X96025000Y-70600000D03*
X94375000Y-70600000D03*
D12*
X58150000Y-31450000D03*
X58150000Y-33750000D03*
X58150000Y-36050000D03*
D13*
X63350000Y-33750000D03*
D10*
X99150000Y-52200000D03*
X100700000Y-52200000D03*
D21*
X74400000Y-27200000D03*
X71475000Y-27200000D03*
D10*
X32025000Y-69200000D03*
X33575000Y-69200000D03*
D22*
X90800000Y-43800000D03*
X90150000Y-43800000D03*
X89500000Y-43800000D03*
X89500000Y-45700000D03*
X90150000Y-45700000D03*
X90800000Y-45700000D03*
D17*
X94550000Y-53800000D03*
X96200000Y-53800000D03*
D16*
X92600000Y-44025000D03*
X92600000Y-42375000D03*
D23*
X97850000Y-56600000D03*
X98800000Y-56600000D03*
X99750000Y-56600000D03*
X99750000Y-54325000D03*
X98800000Y-54325000D03*
X97850000Y-54325000D03*
D17*
X89375000Y-57400000D03*
X91025000Y-57400000D03*
D10*
X73825000Y-37600000D03*
X75375000Y-37600000D03*
D18*
X87000000Y-52375000D03*
X87000000Y-54025000D03*
D19*
X96650000Y-26400000D03*
X95000000Y-26400000D03*
D18*
X92600000Y-45575000D03*
X92600000Y-47225000D03*
D24*
X99375000Y-68200000D03*
X97825000Y-68200000D03*
D18*
X87000000Y-55550000D03*
X87000000Y-57200000D03*
D15*
X57350000Y-27500000D03*
X61650000Y-27500000D03*
D23*
X89250000Y-55537500D03*
X90200000Y-55537500D03*
X91150000Y-55537500D03*
X91150000Y-53262500D03*
X90200000Y-53262500D03*
X89250000Y-53262500D03*
D25*
X71390000Y-35350000D03*
X72660000Y-35350000D03*
X73930000Y-35350000D03*
X75200000Y-35350000D03*
X75200000Y-30400000D03*
X73930000Y-30400000D03*
X72660000Y-30400000D03*
X71390000Y-30400000D03*
D10*
X32000000Y-70800000D03*
X33550000Y-70800000D03*
D11*
X92600000Y-68825000D03*
X92600000Y-70375000D03*
D18*
X90400000Y-68800000D03*
X90400000Y-70450000D03*
D10*
X32225000Y-52600000D03*
X33775000Y-52600000D03*
M02*
