M48
; DRILL file {KiCad 8.0.9-8.0.9-0~ubuntu24.04.1} date 2025-05-28T15:36:20+0200
; FORMAT={-:-/ absolute / inch / decimal}
; #@! TF.CreationDate,2025-05-28T15:36:20+02:00
; #@! TF.GenerationSoftware,Kicad,Pcbnew,8.0.9-8.0.9-0~ubuntu24.04.1
; #@! TF.FileFunction,Plated,1,4,PTH
FMAT,2
INCH
; #@! TA.AperFunction,Plated,PTH,ViaDrill
T1C0.0157
; #@! TA.AperFunction,Plated,PTH,ComponentDrill
T2C0.0315
; #@! TA.AperFunction,Plated,PTH,ComponentDrill
T3C0.0374
; #@! TA.AperFunction,Plated,PTH,ComponentDrill
T4C0.0394
; #@! TA.AperFunction,Plated,PTH,ComponentDrill
T5C0.0472
%
G90
G05
T1
X1.2598Y-1.4173
X1.2913Y-1.2362
X1.4724Y-3.1102
X1.4961Y-2.4252
X1.5039Y-1.7795
X1.6535Y-1.2283
X1.6535Y-1.4173
X2.0157Y-1.2362
X2.0177Y-1.4173
X2.3622Y-1.2362
X2.3917Y-1.4173
X2.4409Y-3.1102
X2.4724Y-1.7817
X2.4724Y-2.4313
X2.4882Y-3.0119
X2.5906Y-1.7323
X2.6535Y-3.1102
X2.6929Y-2.4094
X2.7244Y-1.8504
X2.7329Y-2.7936
X2.7638Y-2.3091
X2.7689Y-2.6091
X2.811Y-1.252
X2.8583Y-1.3307
X2.9606Y-1.252
X2.9685Y-2.1106
X3.0079Y-1.4803
X3.0079Y-1.6772
X3.0236Y-1.2205
X3.0472Y-2.0551
X3.0551Y-3.1598
X3.0866Y-1.2205
X3.1041Y-1.7008
X3.1181Y-2.7106
X3.1417Y-2.5091
X3.315Y-2.6598
X3.3228Y-2.4598
X3.3228Y-2.5598
X3.4269Y-2.0079
X3.4486Y-2.5356
X3.4882Y-1.9843
X3.4882Y-2.2598
X3.4961Y-1.8583
X3.5197Y-1.8425
X3.5512Y-1.6929
X3.5512Y-2.2292
X3.5591Y-2.0551
X3.5591Y-2.6772
X3.5747Y-1.8356
X3.5906Y-1.6929
X3.622Y-2.0394
X3.622Y-2.1417
X3.6299Y-3.4016
X3.6378Y-1.6299
X3.6457Y-2.8189
X3.6772Y-2.189
X3.6929Y-2.0079
X3.7029Y-2.2888
X3.7165Y-1.622
X3.7244Y-1.9291
X3.7559Y-3.3465
X3.7717Y-1.8583
X3.7717Y-1.937
X3.7795Y-2.8346
X3.7953Y-1.811
X3.8189Y-1.6535
X3.8346Y-1.811
X3.8425Y-3.2992
X3.8504Y-2.7244
X3.8583Y-1.6535
X3.8744Y-2.0939
X3.8898Y-2.2756
X3.9134Y-1.622
X3.9337Y-2.0891
X3.9449Y-2.6535
X3.9449Y-3.2126
X3.9606Y-2.0157
T2
X2.1073Y-3.4646
X2.121Y-2.7756
X2.127Y-2.126
X2.2451Y-3.4646
X2.2588Y-2.7756
X2.2648Y-2.126
X3.4986Y-2.3809
X3.4986Y-2.4809
X3.4986Y-2.5809
X3.4986Y-2.9321
X3.4986Y-3.0321
X3.4986Y-3.1321
X3.8986Y-2.3809
X3.8986Y-2.4809
X3.8986Y-2.5809
X3.8986Y-2.9321
X3.8986Y-3.0321
X3.8986Y-3.1321
T3
X0.8858Y-1.8268
X0.8858Y-1.9252
X0.8858Y-2.0236
X0.8858Y-2.122
X0.8858Y-2.3819
X0.8858Y-2.4803
X0.8858Y-2.5787
X0.8858Y-2.6772
X0.8858Y-2.9528
X0.8858Y-3.0512
X0.8858Y-3.1496
X0.8858Y-3.248
X0.9252Y-1.1319
X0.9252Y-1.2303
X0.9252Y-1.3287
X0.9252Y-1.4272
X2.7165Y-0.8346
X2.815Y-0.8346
X2.9134Y-0.8346
X3.0118Y-0.8346
X3.3228Y-0.8346
X3.3228Y-0.9331
X3.3228Y-1.0315
X3.5984Y-0.8425
X3.5984Y-0.9409
X3.5984Y-1.0394
X3.5984Y-1.2756
X3.5984Y-1.374
X3.5984Y-1.4724
X3.874Y-1.2756
X3.874Y-1.374
X3.874Y-1.4724
T4
X1.2258Y-3.0571
X1.2258Y-3.5571
X1.2402Y-0.8661
X1.2455Y-2.3878
X1.2455Y-2.8878
X1.2593Y-1.7382
X1.2593Y-2.2382
X1.3258Y-3.0571
X1.3258Y-3.5571
X1.3386Y-0.8661
X1.3455Y-2.3878
X1.3455Y-2.8878
X1.3593Y-1.7382
X1.3593Y-2.2382
X1.4258Y-3.0571
X1.4258Y-3.5571
X1.4455Y-2.3878
X1.4455Y-2.8878
X1.4593Y-1.7382
X1.4593Y-2.2382
X1.5258Y-3.0571
X1.5258Y-3.5571
X1.5455Y-2.3878
X1.5455Y-2.8878
X1.5593Y-1.7382
X1.5593Y-2.2382
X1.5945Y-0.8661
X1.6258Y-3.0571
X1.6258Y-3.5571
X1.6455Y-2.3878
X1.6455Y-2.8878
X1.6593Y-1.7382
X1.6593Y-2.2382
X1.6929Y-0.8661
X1.7258Y-3.0571
X1.7258Y-3.5571
X1.7455Y-2.3878
X1.7455Y-2.8878
X1.7593Y-1.7382
X1.7593Y-2.2382
X1.8258Y-3.0571
X1.8258Y-3.5571
X1.8455Y-2.3878
X1.8455Y-2.8878
X1.8593Y-1.7382
X1.8593Y-2.2382
X1.9258Y-3.0571
X1.9258Y-3.1571
X1.9258Y-3.2571
X1.9258Y-3.5571
X1.9455Y-2.3878
X1.9455Y-2.4878
X1.9455Y-2.5878
X1.9455Y-2.8878
X1.9488Y-0.8661
X1.9593Y-1.7382
X1.9593Y-1.8382
X1.9593Y-1.9382
X1.9593Y-2.2382
X2.0472Y-0.8661
X2.3031Y-0.8661
X2.4016Y-0.8661
T5
X2.589Y-1.8598
X2.589Y-1.9598
X2.589Y-2.0598
X2.589Y-2.1598
X2.589Y-2.2598
X2.589Y-2.3598
X2.589Y-2.4598
X2.589Y-2.5598
X2.589Y-2.6598
X2.589Y-2.7598
X2.589Y-2.8598
X2.589Y-2.9598
X2.589Y-3.0598
X2.589Y-3.1598
X2.589Y-3.2598
X2.589Y-3.3598
X2.589Y-3.4598
X2.589Y-3.5598
X2.689Y-3.4598
X3.189Y-1.8598
X3.189Y-1.9598
X3.189Y-2.0598
X3.189Y-2.1598
X3.189Y-2.2598
X3.189Y-2.3598
X3.189Y-2.4598
X3.189Y-2.5598
X3.189Y-2.6598
X3.189Y-2.7598
X3.189Y-2.8598
X3.189Y-2.9598
X3.189Y-3.0598
X3.189Y-3.1598
X3.189Y-3.2598
M30
