%TF.GenerationSoftware,KiCad,Pcbnew,8.0.9-8.0.9-0~ubuntu24.04.1*%
%TF.CreationDate,2025-05-28T15:36:23+02:00*%
%TF.ProjectId,UniMixHeadFd,556e694d-6978-4486-9561-6446642e6b69,1.0*%
%TF.SameCoordinates,Original*%
%TF.FileFunction,Soldermask,Bot*%
%TF.FilePolarity,Negative*%
%FSLAX46Y46*%
G04 Gerber Fmt 4.6, Leading zero omitted, Abs format (unit mm)*
G04 Created by KiCad (PCBNEW 8.0.9-8.0.9-0~ubuntu24.04.1) date 2025-05-28 15:36:23*
%MOMM*%
%LPD*%
G01*
G04 APERTURE LIST*
G04 Aperture macros list*
%AMRoundRect*
0 Rectangle with rounded corners*
0 $1 Rounding radius*
0 $2 $3 $4 $5 $6 $7 $8 $9 X,Y pos of 4 corners*
0 Add a 4 corners polygon primitive as box body*
4,1,4,$2,$3,$4,$5,$6,$7,$8,$9,$2,$3,0*
0 Add four circle primitives for the rounded corners*
1,1,$1+$1,$2,$3*
1,1,$1+$1,$4,$5*
1,1,$1+$1,$6,$7*
1,1,$1+$1,$8,$9*
0 Add four rect primitives between the rounded corners*
20,1,$1+$1,$2,$3,$4,$5,0*
20,1,$1+$1,$4,$5,$6,$7,0*
20,1,$1+$1,$6,$7,$8,$9,0*
20,1,$1+$1,$8,$9,$2,$3,0*%
G04 Aperture macros list end*
%ADD10R,1.600000X1.600000*%
%ADD11O,1.600000X1.600000*%
%ADD12RoundRect,0.250000X0.600000X0.750000X-0.600000X0.750000X-0.600000X-0.750000X0.600000X-0.750000X0*%
%ADD13O,1.700000X2.000000*%
%ADD14C,2.004000*%
%ADD15RoundRect,0.250000X-0.725000X0.600000X-0.725000X-0.600000X0.725000X-0.600000X0.725000X0.600000X0*%
%ADD16O,1.950000X1.700000*%
%ADD17C,1.200000*%
%ADD18RoundRect,0.250000X-0.600000X-0.725000X0.600000X-0.725000X0.600000X0.725000X-0.600000X0.725000X0*%
%ADD19O,1.700000X1.950000*%
%ADD20C,1.600000*%
%ADD21RoundRect,0.250000X0.725000X-0.600000X0.725000X0.600000X-0.725000X0.600000X-0.725000X-0.600000X0*%
%ADD22C,3.200000*%
%ADD23RoundRect,0.102000X0.754000X-0.754000X0.754000X0.754000X-0.754000X0.754000X-0.754000X-0.754000X0*%
%ADD24C,1.712000*%
G04 APERTURE END LIST*
D10*
X88865000Y-60475000D03*
D11*
X88865000Y-63015000D03*
X88865000Y-65555000D03*
X99025000Y-65555000D03*
X99025000Y-63015000D03*
X99025000Y-60475000D03*
D12*
X43000000Y-22000000D03*
D13*
X40500000Y-22000000D03*
D14*
X68300000Y-87880000D03*
X65760000Y-90420000D03*
X65760000Y-87880000D03*
X65760000Y-85340000D03*
X65760000Y-82800000D03*
X65760000Y-80260000D03*
X65760000Y-77720000D03*
X65760000Y-75180000D03*
X65760000Y-72640000D03*
X65760000Y-70100000D03*
X65760000Y-67560000D03*
X65760000Y-65020000D03*
X65760000Y-62480000D03*
X65760000Y-59940000D03*
X65760000Y-57400000D03*
X65760000Y-54860000D03*
X65760000Y-52320000D03*
X65760000Y-49780000D03*
X65760000Y-47240000D03*
X81000000Y-82800000D03*
X81000000Y-80260000D03*
X81000000Y-77720000D03*
X81000000Y-75180000D03*
X81000000Y-72640000D03*
X81000000Y-70100000D03*
X81000000Y-67560000D03*
X81000000Y-65020000D03*
X81000000Y-62480000D03*
X81000000Y-59940000D03*
X81000000Y-57400000D03*
X81000000Y-54860000D03*
X81000000Y-52320000D03*
X81000000Y-49780000D03*
X81000000Y-47240000D03*
D15*
X91400000Y-21400000D03*
D16*
X91400000Y-23900000D03*
X91400000Y-26400000D03*
D17*
X67400000Y-23200000D03*
D18*
X69000000Y-21200000D03*
D19*
X71500000Y-21200000D03*
X74000000Y-21200000D03*
X76500000Y-21200000D03*
D10*
X53525000Y-88000000D03*
D20*
X57025000Y-88000000D03*
D10*
X88865000Y-74475000D03*
D11*
X88865000Y-77015000D03*
X88865000Y-79555000D03*
X99025000Y-79555000D03*
X99025000Y-77015000D03*
X99025000Y-74475000D03*
D12*
X34000000Y-22000000D03*
D13*
X31500000Y-22000000D03*
D17*
X24500000Y-69600000D03*
D21*
X22500000Y-68000000D03*
D16*
X22500000Y-65500000D03*
X22500000Y-63000000D03*
X22500000Y-60500000D03*
D12*
X52000000Y-22000000D03*
D13*
X49500000Y-22000000D03*
D15*
X98400000Y-32400000D03*
D16*
X98400000Y-34900000D03*
X98400000Y-37400000D03*
D17*
X24500000Y-55500000D03*
D21*
X22500000Y-53900000D03*
D16*
X22500000Y-51400000D03*
X22500000Y-48900000D03*
X22500000Y-46400000D03*
D22*
X98500000Y-90000000D03*
D23*
X31135000Y-90350000D03*
D24*
X33675000Y-90350000D03*
X36215000Y-90350000D03*
X38755000Y-90350000D03*
X41295000Y-90350000D03*
X43835000Y-90350000D03*
X46375000Y-90350000D03*
X48915000Y-90350000D03*
X31135000Y-77650000D03*
X33675000Y-77650000D03*
X36215000Y-77650000D03*
X38755000Y-77650000D03*
X41295000Y-77650000D03*
X43835000Y-77650000D03*
X46375000Y-77650000D03*
X48915000Y-77650000D03*
X48915000Y-82730000D03*
X48915000Y-80190000D03*
D22*
X23000000Y-90000000D03*
D10*
X54025000Y-54000000D03*
D20*
X57525000Y-54000000D03*
D17*
X24500000Y-84100000D03*
D21*
X22500000Y-82500000D03*
D16*
X22500000Y-80000000D03*
X22500000Y-77500000D03*
X22500000Y-75000000D03*
D10*
X53872349Y-70500000D03*
D20*
X57372349Y-70500000D03*
D15*
X84400000Y-21200000D03*
D16*
X84400000Y-23700000D03*
X84400000Y-26200000D03*
D23*
X31635000Y-73350000D03*
D24*
X34175000Y-73350000D03*
X36715000Y-73350000D03*
X39255000Y-73350000D03*
X41795000Y-73350000D03*
X44335000Y-73350000D03*
X46875000Y-73350000D03*
X49415000Y-73350000D03*
X31635000Y-60650000D03*
X34175000Y-60650000D03*
X36715000Y-60650000D03*
X39255000Y-60650000D03*
X41795000Y-60650000D03*
X44335000Y-60650000D03*
X46875000Y-60650000D03*
X49415000Y-60650000D03*
X49415000Y-65730000D03*
X49415000Y-63190000D03*
D15*
X91400000Y-32400000D03*
D16*
X91400000Y-34900000D03*
X91400000Y-37400000D03*
D23*
X31985000Y-56850000D03*
D24*
X34525000Y-56850000D03*
X37065000Y-56850000D03*
X39605000Y-56850000D03*
X42145000Y-56850000D03*
X44685000Y-56850000D03*
X47225000Y-56850000D03*
X49765000Y-56850000D03*
X31985000Y-44150000D03*
X34525000Y-44150000D03*
X37065000Y-44150000D03*
X39605000Y-44150000D03*
X42145000Y-44150000D03*
X44685000Y-44150000D03*
X47225000Y-44150000D03*
X49765000Y-44150000D03*
X49765000Y-49230000D03*
X49765000Y-46690000D03*
D22*
X23000000Y-21500000D03*
D17*
X21500000Y-27150000D03*
D15*
X23500000Y-28750000D03*
D16*
X23500000Y-31250000D03*
X23500000Y-33750000D03*
X23500000Y-36250000D03*
D22*
X98500000Y-21500000D03*
D12*
X61000000Y-22000000D03*
D13*
X58500000Y-22000000D03*
M02*
