%TF.GenerationSoftware,KiCad,Pcbnew,8.0.9-8.0.9-0~ubuntu24.04.1*%
%TF.CreationDate,2025-05-28T15:36:23+02:00*%
%TF.ProjectId,UniMixHeadFd,556e694d-6978-4486-9561-6446642e6b69,1.0*%
%TF.SameCoordinates,Original*%
%TF.FileFunction,Copper,L2,Inr*%
%TF.FilePolarity,Positive*%
%FSLAX46Y46*%
G04 Gerber Fmt 4.6, Leading zero omitted, Abs format (unit mm)*
G04 Created by KiCad (PCBNEW 8.0.9-8.0.9-0~ubuntu24.04.1) date 2025-05-28 15:36:23*
%MOMM*%
%LPD*%
G01*
G04 APERTURE LIST*
G04 Aperture macros list*
%AMRoundRect*
0 Rectangle with rounded corners*
0 $1 Rounding radius*
0 $2 $3 $4 $5 $6 $7 $8 $9 X,Y pos of 4 corners*
0 Add a 4 corners polygon primitive as box body*
4,1,4,$2,$3,$4,$5,$6,$7,$8,$9,$2,$3,0*
0 Add four circle primitives for the rounded corners*
1,1,$1+$1,$2,$3*
1,1,$1+$1,$4,$5*
1,1,$1+$1,$6,$7*
1,1,$1+$1,$8,$9*
0 Add four rect primitives between the rounded corners*
20,1,$1+$1,$2,$3,$4,$5,0*
20,1,$1+$1,$4,$5,$6,$7,0*
20,1,$1+$1,$6,$7,$8,$9,0*
20,1,$1+$1,$8,$9,$2,$3,0*%
G04 Aperture macros list end*
%TA.AperFunction,ComponentPad*%
%ADD10R,1.600000X1.600000*%
%TD*%
%TA.AperFunction,ComponentPad*%
%ADD11O,1.600000X1.600000*%
%TD*%
%TA.AperFunction,ComponentPad*%
%ADD12RoundRect,0.250000X0.600000X0.750000X-0.600000X0.750000X-0.600000X-0.750000X0.600000X-0.750000X0*%
%TD*%
%TA.AperFunction,ComponentPad*%
%ADD13O,1.700000X2.000000*%
%TD*%
%TA.AperFunction,ComponentPad*%
%ADD14C,1.800000*%
%TD*%
%TA.AperFunction,ComponentPad*%
%ADD15RoundRect,0.250000X-0.725000X0.600000X-0.725000X-0.600000X0.725000X-0.600000X0.725000X0.600000X0*%
%TD*%
%TA.AperFunction,ComponentPad*%
%ADD16O,1.950000X1.700000*%
%TD*%
%TA.AperFunction,ComponentPad*%
%ADD17RoundRect,0.250000X-0.600000X-0.725000X0.600000X-0.725000X0.600000X0.725000X-0.600000X0.725000X0*%
%TD*%
%TA.AperFunction,ComponentPad*%
%ADD18O,1.700000X1.950000*%
%TD*%
%TA.AperFunction,ComponentPad*%
%ADD19C,1.600000*%
%TD*%
%TA.AperFunction,ComponentPad*%
%ADD20RoundRect,0.250000X0.725000X-0.600000X0.725000X0.600000X-0.725000X0.600000X-0.725000X-0.600000X0*%
%TD*%
%TA.AperFunction,ComponentPad*%
%ADD21R,1.508000X1.508000*%
%TD*%
%TA.AperFunction,ComponentPad*%
%ADD22C,1.508000*%
%TD*%
%TA.AperFunction,ViaPad*%
%ADD23C,0.800000*%
%TD*%
%TA.AperFunction,Conductor*%
%ADD24C,1.000000*%
%TD*%
%TA.AperFunction,Conductor*%
%ADD25C,0.300000*%
%TD*%
G04 APERTURE END LIST*
D10*
X88865000Y-60475000D03*
D11*
X88865000Y-63015000D03*
X88865000Y-65555000D03*
X99025000Y-65555000D03*
X99025000Y-63015000D03*
X99025000Y-60475000D03*
D12*
X43000000Y-22000000D03*
D13*
X40500000Y-22000000D03*
D14*
X68300000Y-87880000D03*
X65760000Y-90420000D03*
X65760000Y-87880000D03*
X65760000Y-85340000D03*
X65760000Y-82800000D03*
X65760000Y-80260000D03*
X65760000Y-77720000D03*
X65760000Y-75180000D03*
X65760000Y-72640000D03*
X65760000Y-70100000D03*
X65760000Y-67560000D03*
X65760000Y-65020000D03*
X65760000Y-62480000D03*
X65760000Y-59940000D03*
X65760000Y-57400000D03*
X65760000Y-54860000D03*
X65760000Y-52320000D03*
X65760000Y-49780000D03*
X65760000Y-47240000D03*
X81000000Y-82800000D03*
X81000000Y-80260000D03*
X81000000Y-77720000D03*
X81000000Y-75180000D03*
X81000000Y-72640000D03*
X81000000Y-70100000D03*
X81000000Y-67560000D03*
X81000000Y-65020000D03*
X81000000Y-62480000D03*
X81000000Y-59940000D03*
X81000000Y-57400000D03*
X81000000Y-54860000D03*
X81000000Y-52320000D03*
X81000000Y-49780000D03*
X81000000Y-47240000D03*
D15*
X91400000Y-21400000D03*
D16*
X91400000Y-23900000D03*
X91400000Y-26400000D03*
D17*
X69000000Y-21200000D03*
D18*
X71500000Y-21200000D03*
X74000000Y-21200000D03*
X76500000Y-21200000D03*
D10*
X53525000Y-88000000D03*
D19*
X57025000Y-88000000D03*
D10*
X88865000Y-74475000D03*
D11*
X88865000Y-77015000D03*
X88865000Y-79555000D03*
X99025000Y-79555000D03*
X99025000Y-77015000D03*
X99025000Y-74475000D03*
D12*
X34000000Y-22000000D03*
D13*
X31500000Y-22000000D03*
D20*
X22500000Y-68000000D03*
D16*
X22500000Y-65500000D03*
X22500000Y-63000000D03*
X22500000Y-60500000D03*
D12*
X52000000Y-22000000D03*
D13*
X49500000Y-22000000D03*
D15*
X98400000Y-32400000D03*
D16*
X98400000Y-34900000D03*
X98400000Y-37400000D03*
D20*
X22500000Y-53900000D03*
D16*
X22500000Y-51400000D03*
X22500000Y-48900000D03*
X22500000Y-46400000D03*
D21*
X31135000Y-90350000D03*
D22*
X33675000Y-90350000D03*
X36215000Y-90350000D03*
X38755000Y-90350000D03*
X41295000Y-90350000D03*
X43835000Y-90350000D03*
X46375000Y-90350000D03*
X48915000Y-90350000D03*
X31135000Y-77650000D03*
X33675000Y-77650000D03*
X36215000Y-77650000D03*
X38755000Y-77650000D03*
X41295000Y-77650000D03*
X43835000Y-77650000D03*
X46375000Y-77650000D03*
X48915000Y-77650000D03*
X48915000Y-82730000D03*
X48915000Y-80190000D03*
D10*
X54025000Y-54000000D03*
D19*
X57525000Y-54000000D03*
D20*
X22500000Y-82500000D03*
D16*
X22500000Y-80000000D03*
X22500000Y-77500000D03*
X22500000Y-75000000D03*
D10*
X53872349Y-70500000D03*
D19*
X57372349Y-70500000D03*
D15*
X84400000Y-21200000D03*
D16*
X84400000Y-23700000D03*
X84400000Y-26200000D03*
D21*
X31635000Y-73350000D03*
D22*
X34175000Y-73350000D03*
X36715000Y-73350000D03*
X39255000Y-73350000D03*
X41795000Y-73350000D03*
X44335000Y-73350000D03*
X46875000Y-73350000D03*
X49415000Y-73350000D03*
X31635000Y-60650000D03*
X34175000Y-60650000D03*
X36715000Y-60650000D03*
X39255000Y-60650000D03*
X41795000Y-60650000D03*
X44335000Y-60650000D03*
X46875000Y-60650000D03*
X49415000Y-60650000D03*
X49415000Y-65730000D03*
X49415000Y-63190000D03*
D15*
X91400000Y-32400000D03*
D16*
X91400000Y-34900000D03*
X91400000Y-37400000D03*
D21*
X31985000Y-56850000D03*
D22*
X34525000Y-56850000D03*
X37065000Y-56850000D03*
X39605000Y-56850000D03*
X42145000Y-56850000D03*
X44685000Y-56850000D03*
X47225000Y-56850000D03*
X49765000Y-56850000D03*
X31985000Y-44150000D03*
X34525000Y-44150000D03*
X37065000Y-44150000D03*
X39605000Y-44150000D03*
X42145000Y-44150000D03*
X44685000Y-44150000D03*
X47225000Y-44150000D03*
X49765000Y-44150000D03*
X49765000Y-49230000D03*
X49765000Y-46690000D03*
D15*
X23500000Y-28750000D03*
D16*
X23500000Y-31250000D03*
X23500000Y-33750000D03*
X23500000Y-36250000D03*
D12*
X61000000Y-22000000D03*
D13*
X58500000Y-22000000D03*
D23*
X94400000Y-41200000D03*
X93400000Y-55600000D03*
X97400000Y-46000000D03*
X90200000Y-43000000D03*
X90797131Y-46625000D03*
X88600000Y-57400000D03*
X76800000Y-31000000D03*
X94054497Y-58134783D03*
X97000000Y-42000000D03*
X75200000Y-31800000D03*
X90400000Y-68000000D03*
X88800000Y-47200000D03*
X60750000Y-36000000D03*
X71400000Y-31800000D03*
X92400000Y-41400000D03*
X76400000Y-37600000D03*
X97800000Y-69200000D03*
X95400000Y-85000000D03*
X100600000Y-51200000D03*
X51250000Y-36000000D03*
X95800000Y-47200000D03*
X92000000Y-51800000D03*
X91200000Y-43000000D03*
X92200000Y-86400000D03*
X98000000Y-42000000D03*
X99400000Y-41200000D03*
X42000000Y-36000000D03*
X98800000Y-57800000D03*
X78400000Y-31000000D03*
X92600000Y-71600000D03*
X72600000Y-33800000D03*
X97600000Y-83800000D03*
X90200001Y-56621888D03*
X96000000Y-72000000D03*
X96400000Y-46000000D03*
X89400000Y-46800000D03*
X32000000Y-36000000D03*
X62800000Y-61754000D03*
X62000000Y-79000000D03*
X38200000Y-45200000D03*
X37400000Y-79000000D03*
X38000000Y-61600000D03*
X62800000Y-45254000D03*
X67400000Y-79000000D03*
X69200000Y-47000000D03*
X68400000Y-61200000D03*
X65800000Y-44000000D03*
X63200000Y-76502908D03*
X76400000Y-42600000D03*
X77600000Y-80260000D03*
X78843761Y-43200000D03*
X84400000Y-65020000D03*
X93800000Y-51000000D03*
X79800000Y-63730000D03*
X79200000Y-68850000D03*
X84400000Y-62480000D03*
X75400000Y-53610000D03*
X69415240Y-70958414D03*
X87595000Y-64405000D03*
X70200000Y-58650000D03*
X70330000Y-66270000D03*
X77400000Y-52200000D03*
X84200000Y-67560000D03*
X90400000Y-52200000D03*
X100200000Y-81600000D03*
X100200000Y-67400000D03*
X99916246Y-53062501D03*
X98410848Y-53185002D03*
X92000000Y-54400000D03*
X87043805Y-51000000D03*
X32800000Y-31400000D03*
X51200000Y-31400000D03*
X88600000Y-50400000D03*
X95800000Y-49200000D03*
X42000000Y-31200000D03*
X60000000Y-31400000D03*
X94600000Y-49000000D03*
D24*
X44000000Y-74804000D02*
X63796000Y-74804000D01*
X64596000Y-91804000D02*
X64600000Y-91800000D01*
D25*
X46875000Y-60650000D02*
X46875000Y-58675000D01*
D24*
X35629000Y-74804000D02*
X44000000Y-74804000D01*
D25*
X43835000Y-74969000D02*
X44000000Y-74804000D01*
D24*
X33675000Y-90350000D02*
X35129000Y-91804000D01*
D25*
X46875000Y-58675000D02*
X46800000Y-58600000D01*
D24*
X36275000Y-58600000D02*
X46800000Y-58600000D01*
X63800000Y-74800000D02*
X63796000Y-74804000D01*
D25*
X43835000Y-77650000D02*
X43835000Y-74969000D01*
D24*
X35129000Y-91804000D02*
X64596000Y-91804000D01*
X34175000Y-73350000D02*
X35629000Y-74804000D01*
X34525000Y-56850000D02*
X36275000Y-58600000D01*
X46800000Y-58600000D02*
X62800000Y-58600000D01*
%TA.AperFunction,Conductor*%
G36*
X100006061Y-19000597D02*
G01*
X100182941Y-19018018D01*
X100206769Y-19022757D01*
X100371001Y-19072576D01*
X100393453Y-19081877D01*
X100544798Y-19162772D01*
X100565010Y-19176277D01*
X100697666Y-19285145D01*
X100714854Y-19302333D01*
X100823722Y-19434989D01*
X100837227Y-19455201D01*
X100918121Y-19606543D01*
X100927424Y-19629001D01*
X100977240Y-19793224D01*
X100981982Y-19817065D01*
X100999403Y-19993938D01*
X101000000Y-20006092D01*
X101000000Y-50370084D01*
X100980315Y-50437123D01*
X100927511Y-50482878D01*
X100858353Y-50492822D01*
X100835046Y-50487126D01*
X100768057Y-50463686D01*
X100600003Y-50444751D01*
X100599997Y-50444751D01*
X100431943Y-50463685D01*
X100272305Y-50519545D01*
X100272302Y-50519547D01*
X100129115Y-50609518D01*
X100129109Y-50609523D01*
X100009523Y-50729109D01*
X100009518Y-50729115D01*
X99919547Y-50872302D01*
X99919545Y-50872305D01*
X99863685Y-51031943D01*
X99844751Y-51199997D01*
X99844751Y-51200002D01*
X99863685Y-51368056D01*
X99919545Y-51527694D01*
X99919547Y-51527697D01*
X100009518Y-51670884D01*
X100009523Y-51670890D01*
X100129109Y-51790476D01*
X100129115Y-51790481D01*
X100272302Y-51880452D01*
X100272305Y-51880454D01*
X100272309Y-51880455D01*
X100272310Y-51880456D01*
X100344913Y-51905860D01*
X100431943Y-51936314D01*
X100599997Y-51955249D01*
X100600000Y-51955249D01*
X100600003Y-51955249D01*
X100768059Y-51936313D01*
X100768060Y-51936313D01*
X100835045Y-51912874D01*
X100904823Y-51909311D01*
X100965451Y-51944040D01*
X100997678Y-52006033D01*
X101000000Y-52029915D01*
X101000000Y-66839271D01*
X100980315Y-66906310D01*
X100927511Y-66952065D01*
X100858353Y-66962009D01*
X100794797Y-66932984D01*
X100788319Y-66926952D01*
X100670890Y-66809523D01*
X100670884Y-66809518D01*
X100527697Y-66719547D01*
X100527694Y-66719545D01*
X100368056Y-66663685D01*
X100200003Y-66644751D01*
X100199997Y-66644751D01*
X100031943Y-66663685D01*
X99872305Y-66719545D01*
X99872302Y-66719547D01*
X99729115Y-66809518D01*
X99729109Y-66809523D01*
X99609523Y-66929109D01*
X99609518Y-66929115D01*
X99519547Y-67072302D01*
X99519545Y-67072305D01*
X99463685Y-67231943D01*
X99444751Y-67399997D01*
X99444751Y-67400002D01*
X99463685Y-67568056D01*
X99519545Y-67727694D01*
X99519547Y-67727697D01*
X99609518Y-67870884D01*
X99609523Y-67870890D01*
X99729109Y-67990476D01*
X99729115Y-67990481D01*
X99872302Y-68080452D01*
X99872305Y-68080454D01*
X99872309Y-68080455D01*
X99872310Y-68080456D01*
X99913163Y-68094751D01*
X100031943Y-68136314D01*
X100199997Y-68155249D01*
X100200000Y-68155249D01*
X100200003Y-68155249D01*
X100368056Y-68136314D01*
X100368059Y-68136313D01*
X100527690Y-68080456D01*
X100527692Y-68080454D01*
X100527694Y-68080454D01*
X100527697Y-68080452D01*
X100670884Y-67990481D01*
X100670885Y-67990480D01*
X100670890Y-67990477D01*
X100788319Y-67873048D01*
X100849642Y-67839563D01*
X100919334Y-67844547D01*
X100975267Y-67886419D01*
X100999684Y-67951883D01*
X101000000Y-67960729D01*
X101000000Y-81039271D01*
X100980315Y-81106310D01*
X100927511Y-81152065D01*
X100858353Y-81162009D01*
X100794797Y-81132984D01*
X100788319Y-81126952D01*
X100670890Y-81009523D01*
X100670884Y-81009518D01*
X100527697Y-80919547D01*
X100527694Y-80919545D01*
X100368056Y-80863685D01*
X100200003Y-80844751D01*
X100199997Y-80844751D01*
X100031943Y-80863685D01*
X99872305Y-80919545D01*
X99872302Y-80919547D01*
X99729115Y-81009518D01*
X99729109Y-81009523D01*
X99609523Y-81129109D01*
X99609518Y-81129115D01*
X99519547Y-81272302D01*
X99519545Y-81272305D01*
X99463685Y-81431943D01*
X99444751Y-81599997D01*
X99444751Y-81600002D01*
X99463685Y-81768056D01*
X99519545Y-81927694D01*
X99519547Y-81927697D01*
X99609518Y-82070884D01*
X99609523Y-82070890D01*
X99729109Y-82190476D01*
X99729115Y-82190481D01*
X99872302Y-82280452D01*
X99872305Y-82280454D01*
X99872309Y-82280455D01*
X99872310Y-82280456D01*
X99944913Y-82305860D01*
X100031943Y-82336314D01*
X100199997Y-82355249D01*
X100200000Y-82355249D01*
X100200003Y-82355249D01*
X100368056Y-82336314D01*
X100368059Y-82336313D01*
X100527690Y-82280456D01*
X100527692Y-82280454D01*
X100527694Y-82280454D01*
X100527697Y-82280452D01*
X100670884Y-82190481D01*
X100670885Y-82190480D01*
X100670890Y-82190477D01*
X100788319Y-82073048D01*
X100849642Y-82039563D01*
X100919334Y-82044547D01*
X100975267Y-82086419D01*
X100999684Y-82151883D01*
X101000000Y-82160729D01*
X101000000Y-91493907D01*
X100999403Y-91506061D01*
X100981982Y-91682934D01*
X100977240Y-91706775D01*
X100927424Y-91870998D01*
X100918121Y-91893456D01*
X100837227Y-92044798D01*
X100823722Y-92065010D01*
X100714854Y-92197666D01*
X100697666Y-92214854D01*
X100565010Y-92323722D01*
X100544798Y-92337227D01*
X100393456Y-92418121D01*
X100370998Y-92427424D01*
X100206775Y-92477240D01*
X100182934Y-92481982D01*
X100006061Y-92499403D01*
X99993907Y-92500000D01*
X62898695Y-92500000D01*
X62886528Y-92499402D01*
X62709471Y-92481945D01*
X62685609Y-92477193D01*
X62615890Y-92456021D01*
X62521240Y-92427279D01*
X62498764Y-92417958D01*
X62347306Y-92336906D01*
X62327081Y-92323375D01*
X62194369Y-92214306D01*
X62177177Y-92197087D01*
X62068316Y-92064197D01*
X62054818Y-92043952D01*
X61974003Y-91892360D01*
X61964725Y-91869884D01*
X61915068Y-91705420D01*
X61910357Y-91681564D01*
X61893181Y-91504464D01*
X61892603Y-91492324D01*
X61911095Y-79875878D01*
X61930885Y-79808874D01*
X61983762Y-79763203D01*
X62021210Y-79752859D01*
X62034930Y-79751313D01*
X62168055Y-79736314D01*
X62168057Y-79736313D01*
X62168059Y-79736313D01*
X62327690Y-79680456D01*
X62327692Y-79680454D01*
X62327694Y-79680454D01*
X62327697Y-79680452D01*
X62470884Y-79590481D01*
X62470885Y-79590480D01*
X62470890Y-79590477D01*
X62590477Y-79470890D01*
X62671031Y-79342690D01*
X62680452Y-79327697D01*
X62680454Y-79327694D01*
X62680454Y-79327692D01*
X62680456Y-79327690D01*
X62736313Y-79168059D01*
X62736313Y-79168058D01*
X62736314Y-79168056D01*
X62755249Y-79000002D01*
X62755249Y-78999997D01*
X62736314Y-78831943D01*
X62680454Y-78672305D01*
X62680452Y-78672302D01*
X62590481Y-78529115D01*
X62590476Y-78529109D01*
X62470890Y-78409523D01*
X62470884Y-78409518D01*
X62327697Y-78319547D01*
X62327694Y-78319545D01*
X62168055Y-78263685D01*
X62023999Y-78247454D01*
X61959585Y-78220387D01*
X61920030Y-78162792D01*
X61913883Y-78124041D01*
X61916464Y-76502905D01*
X62444751Y-76502905D01*
X62444751Y-76502910D01*
X62463685Y-76670964D01*
X62519545Y-76830602D01*
X62519547Y-76830605D01*
X62609518Y-76973792D01*
X62609523Y-76973798D01*
X62729109Y-77093384D01*
X62729115Y-77093389D01*
X62872302Y-77183360D01*
X62872305Y-77183362D01*
X62872309Y-77183363D01*
X62872310Y-77183364D01*
X62944913Y-77208768D01*
X63031943Y-77239222D01*
X63199997Y-77258157D01*
X63200000Y-77258157D01*
X63200003Y-77258157D01*
X63368056Y-77239222D01*
X63368059Y-77239221D01*
X63527690Y-77183364D01*
X63527692Y-77183362D01*
X63527694Y-77183362D01*
X63527697Y-77183360D01*
X63670884Y-77093389D01*
X63670885Y-77093388D01*
X63670890Y-77093385D01*
X63790477Y-76973798D01*
X63790481Y-76973792D01*
X63880452Y-76830605D01*
X63880454Y-76830602D01*
X63880454Y-76830600D01*
X63880456Y-76830598D01*
X63936313Y-76670967D01*
X63936313Y-76670966D01*
X63936314Y-76670964D01*
X63955249Y-76502910D01*
X63955249Y-76502905D01*
X63936314Y-76334851D01*
X63880454Y-76175213D01*
X63880452Y-76175210D01*
X63790481Y-76032023D01*
X63790476Y-76032017D01*
X63670890Y-75912431D01*
X63670884Y-75912426D01*
X63527697Y-75822455D01*
X63527694Y-75822453D01*
X63368056Y-75766593D01*
X63200003Y-75747659D01*
X63199997Y-75747659D01*
X63031943Y-75766593D01*
X62872305Y-75822453D01*
X62872302Y-75822455D01*
X62729115Y-75912426D01*
X62729109Y-75912431D01*
X62609523Y-76032017D01*
X62609518Y-76032023D01*
X62519547Y-76175210D01*
X62519545Y-76175213D01*
X62463685Y-76334851D01*
X62444751Y-76502905D01*
X61916464Y-76502905D01*
X61939192Y-62224876D01*
X61958983Y-62157870D01*
X62011860Y-62112199D01*
X62081034Y-62102365D01*
X62144544Y-62131491D01*
X62168185Y-62159102D01*
X62209521Y-62224888D01*
X62329109Y-62344476D01*
X62329115Y-62344481D01*
X62472302Y-62434452D01*
X62472305Y-62434454D01*
X62472309Y-62434455D01*
X62472310Y-62434456D01*
X62544913Y-62459860D01*
X62631943Y-62490314D01*
X62799997Y-62509249D01*
X62800000Y-62509249D01*
X62800003Y-62509249D01*
X62968056Y-62490314D01*
X62997532Y-62480000D01*
X63127690Y-62434456D01*
X63127692Y-62434454D01*
X63127694Y-62434454D01*
X63127697Y-62434452D01*
X63270884Y-62344481D01*
X63270885Y-62344480D01*
X63270890Y-62344477D01*
X63390477Y-62224890D01*
X63432589Y-62157870D01*
X63480452Y-62081697D01*
X63480454Y-62081694D01*
X63480454Y-62081692D01*
X63480456Y-62081690D01*
X63536313Y-61922059D01*
X63536313Y-61922058D01*
X63536314Y-61922056D01*
X63555249Y-61754002D01*
X63555249Y-61753997D01*
X63536314Y-61585943D01*
X63480454Y-61426305D01*
X63480452Y-61426302D01*
X63390481Y-61283115D01*
X63390476Y-61283109D01*
X63270890Y-61163523D01*
X63270884Y-61163518D01*
X63127697Y-61073547D01*
X63127694Y-61073545D01*
X62968056Y-61017685D01*
X62800003Y-60998751D01*
X62799997Y-60998751D01*
X62631943Y-61017685D01*
X62472305Y-61073545D01*
X62472302Y-61073547D01*
X62329115Y-61163518D01*
X62329109Y-61163523D01*
X62209524Y-61283108D01*
X62169688Y-61346505D01*
X62117352Y-61392795D01*
X62048298Y-61403442D01*
X61984451Y-61375066D01*
X61946080Y-61316675D01*
X61940695Y-61280340D01*
X61954958Y-52319997D01*
X64504723Y-52319997D01*
X64504723Y-52320002D01*
X64510151Y-52382045D01*
X64523647Y-52536313D01*
X64523793Y-52537975D01*
X64523793Y-52537979D01*
X64580422Y-52749322D01*
X64580424Y-52749326D01*
X64580425Y-52749330D01*
X64595336Y-52781306D01*
X64672897Y-52947638D01*
X64697998Y-52983486D01*
X64798402Y-53126877D01*
X64953123Y-53281598D01*
X65108220Y-53390198D01*
X65132361Y-53407102D01*
X65283583Y-53477618D01*
X65336022Y-53523790D01*
X65355174Y-53590984D01*
X65334958Y-53657865D01*
X65283583Y-53702382D01*
X65132361Y-53772898D01*
X65132357Y-53772900D01*
X64953121Y-53898402D01*
X64798402Y-54053121D01*
X64672900Y-54232357D01*
X64672898Y-54232361D01*
X64580426Y-54430668D01*
X64580422Y-54430677D01*
X64523793Y-54642020D01*
X64523793Y-54642024D01*
X64504723Y-54859997D01*
X64504723Y-54860002D01*
X64523793Y-55077975D01*
X64523793Y-55077979D01*
X64580422Y-55289322D01*
X64580424Y-55289326D01*
X64580425Y-55289330D01*
X64626661Y-55388484D01*
X64672897Y-55487638D01*
X64672898Y-55487639D01*
X64798402Y-55666877D01*
X64953123Y-55821598D01*
X65124265Y-55941433D01*
X65132361Y-55947102D01*
X65283583Y-56017618D01*
X65336022Y-56063790D01*
X65355174Y-56130984D01*
X65334958Y-56197865D01*
X65283583Y-56242382D01*
X65132361Y-56312898D01*
X65132357Y-56312900D01*
X64953121Y-56438402D01*
X64798402Y-56593121D01*
X64672900Y-56772357D01*
X64672898Y-56772361D01*
X64580426Y-56970668D01*
X64580422Y-56970677D01*
X64523793Y-57182020D01*
X64523793Y-57182023D01*
X64521138Y-57212369D01*
X64504723Y-57399997D01*
X64504723Y-57400002D01*
X64523793Y-57617975D01*
X64523793Y-57617979D01*
X64580422Y-57829322D01*
X64580424Y-57829326D01*
X64580425Y-57829330D01*
X64610931Y-57894751D01*
X64672897Y-58027638D01*
X64672898Y-58027639D01*
X64798402Y-58206877D01*
X64953123Y-58361598D01*
X65122864Y-58480452D01*
X65132361Y-58487102D01*
X65283583Y-58557618D01*
X65336022Y-58603790D01*
X65355174Y-58670984D01*
X65334958Y-58737865D01*
X65283583Y-58782382D01*
X65132361Y-58852898D01*
X65132357Y-58852900D01*
X64953121Y-58978402D01*
X64798402Y-59133121D01*
X64672900Y-59312357D01*
X64672898Y-59312361D01*
X64580426Y-59510668D01*
X64580422Y-59510677D01*
X64523793Y-59722020D01*
X64523793Y-59722024D01*
X64504723Y-59939997D01*
X64504723Y-59940002D01*
X64523793Y-60157975D01*
X64523793Y-60157979D01*
X64580422Y-60369322D01*
X64580424Y-60369326D01*
X64580425Y-60369330D01*
X64624423Y-60463685D01*
X64672897Y-60567638D01*
X64672898Y-60567639D01*
X64798402Y-60746877D01*
X64953123Y-60901598D01*
X65091872Y-60998751D01*
X65132361Y-61027102D01*
X65283583Y-61097618D01*
X65336022Y-61143790D01*
X65355174Y-61210984D01*
X65334958Y-61277865D01*
X65283583Y-61322382D01*
X65132361Y-61392898D01*
X65132357Y-61392900D01*
X64953121Y-61518402D01*
X64798402Y-61673121D01*
X64672900Y-61852357D01*
X64672898Y-61852361D01*
X64580426Y-62050668D01*
X64580422Y-62050677D01*
X64523793Y-62262020D01*
X64523793Y-62262024D01*
X64504723Y-62479997D01*
X64504723Y-62480002D01*
X64523793Y-62697975D01*
X64523793Y-62697979D01*
X64580422Y-62909322D01*
X64580424Y-62909326D01*
X64580425Y-62909330D01*
X64599802Y-62950884D01*
X64672897Y-63107638D01*
X64672898Y-63107639D01*
X64798402Y-63286877D01*
X64953123Y-63441598D01*
X65124990Y-63561941D01*
X65132361Y-63567102D01*
X65283583Y-63637618D01*
X65336022Y-63683790D01*
X65355174Y-63750984D01*
X65334958Y-63817865D01*
X65283583Y-63862382D01*
X65132361Y-63932898D01*
X65132357Y-63932900D01*
X64953121Y-64058402D01*
X64798402Y-64213121D01*
X64672900Y-64392357D01*
X64672898Y-64392361D01*
X64580426Y-64590668D01*
X64580422Y-64590677D01*
X64523793Y-64802020D01*
X64523793Y-64802024D01*
X64504723Y-65019997D01*
X64504723Y-65020002D01*
X64523793Y-65237975D01*
X64523793Y-65237979D01*
X64580422Y-65449322D01*
X64580424Y-65449326D01*
X64580425Y-65449330D01*
X64599802Y-65490884D01*
X64672897Y-65647638D01*
X64672898Y-65647639D01*
X64798402Y-65826877D01*
X64953123Y-65981598D01*
X65124990Y-66101941D01*
X65132361Y-66107102D01*
X65283583Y-66177618D01*
X65336022Y-66223790D01*
X65355174Y-66290984D01*
X65334958Y-66357865D01*
X65283583Y-66402382D01*
X65132361Y-66472898D01*
X65132357Y-66472900D01*
X64953121Y-66598402D01*
X64798402Y-66753121D01*
X64672900Y-66932357D01*
X64672898Y-66932361D01*
X64580426Y-67130668D01*
X64580422Y-67130677D01*
X64523793Y-67342020D01*
X64523793Y-67342024D01*
X64504723Y-67559997D01*
X64504723Y-67560002D01*
X64523793Y-67777975D01*
X64523793Y-67777979D01*
X64580422Y-67989322D01*
X64580424Y-67989326D01*
X64580425Y-67989330D01*
X64580960Y-67990477D01*
X64672897Y-68187638D01*
X64672898Y-68187639D01*
X64798402Y-68366877D01*
X64953123Y-68521598D01*
X65078686Y-68609518D01*
X65132361Y-68647102D01*
X65283583Y-68717618D01*
X65336022Y-68763790D01*
X65355174Y-68830984D01*
X65334958Y-68897865D01*
X65283583Y-68942382D01*
X65132361Y-69012898D01*
X65132357Y-69012900D01*
X64953121Y-69138402D01*
X64798402Y-69293121D01*
X64672900Y-69472357D01*
X64672898Y-69472361D01*
X64580426Y-69670668D01*
X64580422Y-69670677D01*
X64523793Y-69882020D01*
X64523793Y-69882024D01*
X64504723Y-70099997D01*
X64504723Y-70100002D01*
X64523793Y-70317975D01*
X64523793Y-70317979D01*
X64580422Y-70529322D01*
X64580424Y-70529326D01*
X64580425Y-70529330D01*
X64626661Y-70628484D01*
X64672897Y-70727638D01*
X64672898Y-70727639D01*
X64798402Y-70906877D01*
X64953123Y-71061598D01*
X65132360Y-71187101D01*
X65132361Y-71187102D01*
X65283583Y-71257618D01*
X65336022Y-71303790D01*
X65355174Y-71370984D01*
X65334958Y-71437865D01*
X65283583Y-71482382D01*
X65132361Y-71552898D01*
X65132357Y-71552900D01*
X64953121Y-71678402D01*
X64798402Y-71833121D01*
X64672900Y-72012357D01*
X64672898Y-72012361D01*
X64580426Y-72210668D01*
X64580422Y-72210677D01*
X64523793Y-72422020D01*
X64523793Y-72422024D01*
X64504723Y-72639997D01*
X64504723Y-72640002D01*
X64523793Y-72857975D01*
X64523793Y-72857979D01*
X64580422Y-73069322D01*
X64580424Y-73069326D01*
X64580425Y-73069330D01*
X64626661Y-73168484D01*
X64672897Y-73267638D01*
X64672898Y-73267639D01*
X64798402Y-73446877D01*
X64953123Y-73601598D01*
X65088790Y-73696593D01*
X65132361Y-73727102D01*
X65283583Y-73797618D01*
X65336022Y-73843790D01*
X65355174Y-73910984D01*
X65334958Y-73977865D01*
X65283583Y-74022382D01*
X65132361Y-74092898D01*
X65132357Y-74092900D01*
X64953121Y-74218402D01*
X64798402Y-74373121D01*
X64672900Y-74552357D01*
X64672898Y-74552361D01*
X64580426Y-74750668D01*
X64580422Y-74750677D01*
X64523793Y-74962020D01*
X64523793Y-74962024D01*
X64504723Y-75179997D01*
X64504723Y-75180002D01*
X64523793Y-75397975D01*
X64523793Y-75397979D01*
X64580422Y-75609322D01*
X64580424Y-75609326D01*
X64580425Y-75609330D01*
X64621767Y-75697989D01*
X64672897Y-75807638D01*
X64672898Y-75807639D01*
X64798402Y-75986877D01*
X64953123Y-76141598D01*
X65088790Y-76236593D01*
X65132361Y-76267102D01*
X65283583Y-76337618D01*
X65336022Y-76383790D01*
X65355174Y-76450984D01*
X65334958Y-76517865D01*
X65283583Y-76562382D01*
X65132361Y-76632898D01*
X65132357Y-76632900D01*
X64953121Y-76758402D01*
X64798402Y-76913121D01*
X64672900Y-77092357D01*
X64672898Y-77092361D01*
X64580426Y-77290668D01*
X64580422Y-77290677D01*
X64523793Y-77502020D01*
X64523793Y-77502024D01*
X64504723Y-77719997D01*
X64504723Y-77720002D01*
X64523793Y-77937975D01*
X64523793Y-77937979D01*
X64580422Y-78149322D01*
X64580424Y-78149326D01*
X64580425Y-78149330D01*
X64624921Y-78244751D01*
X64672897Y-78347638D01*
X64672898Y-78347639D01*
X64798402Y-78526877D01*
X64953123Y-78681598D01*
X65088790Y-78776593D01*
X65132361Y-78807102D01*
X65283583Y-78877618D01*
X65336022Y-78923790D01*
X65355174Y-78990984D01*
X65334958Y-79057865D01*
X65283583Y-79102382D01*
X65132361Y-79172898D01*
X65132357Y-79172900D01*
X64953121Y-79298402D01*
X64798402Y-79453121D01*
X64672900Y-79632357D01*
X64672898Y-79632361D01*
X64580426Y-79830668D01*
X64580422Y-79830677D01*
X64523793Y-80042020D01*
X64523793Y-80042024D01*
X64504723Y-80259997D01*
X64504723Y-80260002D01*
X64523793Y-80477975D01*
X64523793Y-80477979D01*
X64580422Y-80689322D01*
X64580424Y-80689326D01*
X64580425Y-80689330D01*
X64599802Y-80730884D01*
X64672897Y-80887638D01*
X64672898Y-80887639D01*
X64798402Y-81066877D01*
X64953123Y-81221598D01*
X65132360Y-81347101D01*
X65132361Y-81347102D01*
X65283583Y-81417618D01*
X65336022Y-81463790D01*
X65355174Y-81530984D01*
X65334958Y-81597865D01*
X65283583Y-81642382D01*
X65132361Y-81712898D01*
X65132357Y-81712900D01*
X64953121Y-81838402D01*
X64798402Y-81993121D01*
X64672900Y-82172357D01*
X64672898Y-82172361D01*
X64580426Y-82370668D01*
X64580422Y-82370677D01*
X64523793Y-82582020D01*
X64523793Y-82582024D01*
X64504723Y-82799997D01*
X64504723Y-82800002D01*
X64523793Y-83017975D01*
X64523793Y-83017979D01*
X64580422Y-83229322D01*
X64580424Y-83229326D01*
X64580425Y-83229330D01*
X64626661Y-83328484D01*
X64672897Y-83427638D01*
X64672898Y-83427639D01*
X64798402Y-83606877D01*
X64953123Y-83761598D01*
X65132360Y-83887101D01*
X65132361Y-83887102D01*
X65283583Y-83957618D01*
X65336022Y-84003790D01*
X65355174Y-84070984D01*
X65334958Y-84137865D01*
X65283583Y-84182382D01*
X65132361Y-84252898D01*
X65132357Y-84252900D01*
X64953121Y-84378402D01*
X64798402Y-84533121D01*
X64672900Y-84712357D01*
X64672898Y-84712361D01*
X64580426Y-84910668D01*
X64580422Y-84910677D01*
X64523793Y-85122020D01*
X64523793Y-85122024D01*
X64504723Y-85339997D01*
X64504723Y-85340002D01*
X64523793Y-85557975D01*
X64523793Y-85557979D01*
X64580422Y-85769322D01*
X64580424Y-85769326D01*
X64580425Y-85769330D01*
X64626661Y-85868484D01*
X64672897Y-85967638D01*
X64672898Y-85967639D01*
X64798402Y-86146877D01*
X64953123Y-86301598D01*
X65132360Y-86427101D01*
X65132361Y-86427102D01*
X65283583Y-86497618D01*
X65336022Y-86543790D01*
X65355174Y-86610984D01*
X65334958Y-86677865D01*
X65283583Y-86722382D01*
X65132361Y-86792898D01*
X65132357Y-86792900D01*
X64953121Y-86918402D01*
X64798402Y-87073121D01*
X64672900Y-87252357D01*
X64672898Y-87252361D01*
X64580426Y-87450668D01*
X64580422Y-87450677D01*
X64523793Y-87662020D01*
X64523793Y-87662024D01*
X64504723Y-87879997D01*
X64504723Y-87880002D01*
X64523793Y-88097975D01*
X64523793Y-88097979D01*
X64580422Y-88309322D01*
X64580424Y-88309326D01*
X64580425Y-88309330D01*
X64593224Y-88336777D01*
X64672897Y-88507638D01*
X64672898Y-88507639D01*
X64798402Y-88686877D01*
X64953123Y-88841598D01*
X65132360Y-88967101D01*
X65132361Y-88967102D01*
X65283583Y-89037618D01*
X65336022Y-89083790D01*
X65355174Y-89150984D01*
X65334958Y-89217865D01*
X65283583Y-89262382D01*
X65132361Y-89332898D01*
X65132357Y-89332900D01*
X64953121Y-89458402D01*
X64798402Y-89613121D01*
X64672900Y-89792357D01*
X64672898Y-89792361D01*
X64580426Y-89990668D01*
X64580422Y-89990677D01*
X64523793Y-90202020D01*
X64523793Y-90202024D01*
X64504723Y-90419997D01*
X64504723Y-90420002D01*
X64523793Y-90637975D01*
X64523793Y-90637979D01*
X64580422Y-90849322D01*
X64580424Y-90849326D01*
X64580425Y-90849330D01*
X64626661Y-90948484D01*
X64672897Y-91047638D01*
X64672898Y-91047639D01*
X64798402Y-91226877D01*
X64953123Y-91381598D01*
X65132361Y-91507102D01*
X65330670Y-91599575D01*
X65542023Y-91656207D01*
X65724926Y-91672208D01*
X65759998Y-91675277D01*
X65760000Y-91675277D01*
X65760002Y-91675277D01*
X65788254Y-91672805D01*
X65977977Y-91656207D01*
X66189330Y-91599575D01*
X66387639Y-91507102D01*
X66566877Y-91381598D01*
X66721598Y-91226877D01*
X66847102Y-91047639D01*
X66939575Y-90849330D01*
X66996207Y-90637977D01*
X67015277Y-90420000D01*
X66996207Y-90202023D01*
X66939575Y-89990670D01*
X66887367Y-89878711D01*
X96649500Y-89878711D01*
X96649500Y-90121288D01*
X96681161Y-90361785D01*
X96743947Y-90596104D01*
X96836773Y-90820205D01*
X96836776Y-90820212D01*
X96958064Y-91030289D01*
X96958066Y-91030292D01*
X96958067Y-91030293D01*
X97105733Y-91222736D01*
X97105739Y-91222743D01*
X97277256Y-91394260D01*
X97277262Y-91394265D01*
X97469711Y-91541936D01*
X97679788Y-91663224D01*
X97903900Y-91756054D01*
X98138211Y-91818838D01*
X98318586Y-91842584D01*
X98378711Y-91850500D01*
X98378712Y-91850500D01*
X98621289Y-91850500D01*
X98669388Y-91844167D01*
X98861789Y-91818838D01*
X99096100Y-91756054D01*
X99320212Y-91663224D01*
X99530289Y-91541936D01*
X99722738Y-91394265D01*
X99894265Y-91222738D01*
X100041936Y-91030289D01*
X100163224Y-90820212D01*
X100256054Y-90596100D01*
X100318838Y-90361789D01*
X100350500Y-90121288D01*
X100350500Y-89878712D01*
X100318838Y-89638211D01*
X100256054Y-89403900D01*
X100163224Y-89179788D01*
X100041936Y-88969711D01*
X99894265Y-88777262D01*
X99894260Y-88777256D01*
X99722743Y-88605739D01*
X99722736Y-88605733D01*
X99530293Y-88458067D01*
X99530292Y-88458066D01*
X99530289Y-88458064D01*
X99358661Y-88358974D01*
X99320214Y-88336777D01*
X99320205Y-88336773D01*
X99096104Y-88243947D01*
X98861785Y-88181161D01*
X98621289Y-88149500D01*
X98621288Y-88149500D01*
X98378712Y-88149500D01*
X98378711Y-88149500D01*
X98138214Y-88181161D01*
X97903895Y-88243947D01*
X97679794Y-88336773D01*
X97679785Y-88336777D01*
X97469706Y-88458067D01*
X97277263Y-88605733D01*
X97277256Y-88605739D01*
X97105739Y-88777256D01*
X97105733Y-88777263D01*
X96958067Y-88969706D01*
X96836777Y-89179785D01*
X96836773Y-89179794D01*
X96743947Y-89403895D01*
X96681161Y-89638214D01*
X96649500Y-89878711D01*
X66887367Y-89878711D01*
X66847102Y-89792362D01*
X66847100Y-89792359D01*
X66847099Y-89792357D01*
X66721599Y-89613124D01*
X66721596Y-89613121D01*
X66566877Y-89458402D01*
X66387639Y-89332898D01*
X66236414Y-89262381D01*
X66183977Y-89216210D01*
X66164825Y-89149016D01*
X66185041Y-89082135D01*
X66236414Y-89037618D01*
X66387639Y-88967102D01*
X66566877Y-88841598D01*
X66721598Y-88686877D01*
X66847102Y-88507639D01*
X66917618Y-88356414D01*
X66963790Y-88303977D01*
X67030984Y-88284825D01*
X67097865Y-88305041D01*
X67142381Y-88356414D01*
X67212898Y-88507639D01*
X67338402Y-88686877D01*
X67493123Y-88841598D01*
X67672361Y-88967102D01*
X67870670Y-89059575D01*
X68082023Y-89116207D01*
X68264926Y-89132208D01*
X68299998Y-89135277D01*
X68300000Y-89135277D01*
X68300002Y-89135277D01*
X68328254Y-89132805D01*
X68517977Y-89116207D01*
X68729330Y-89059575D01*
X68927639Y-88967102D01*
X69106877Y-88841598D01*
X69261598Y-88686877D01*
X69387102Y-88507639D01*
X69479575Y-88309330D01*
X69536207Y-88097977D01*
X69555277Y-87880000D01*
X69536207Y-87662023D01*
X69479575Y-87450670D01*
X69387102Y-87252362D01*
X69387100Y-87252359D01*
X69387099Y-87252357D01*
X69261599Y-87073124D01*
X69261596Y-87073121D01*
X69106877Y-86918402D01*
X68927639Y-86792898D01*
X68927640Y-86792898D01*
X68927638Y-86792897D01*
X68787815Y-86727697D01*
X68729330Y-86700425D01*
X68729326Y-86700424D01*
X68729322Y-86700422D01*
X68517977Y-86643793D01*
X68300002Y-86624723D01*
X68299998Y-86624723D01*
X68154682Y-86637436D01*
X68082023Y-86643793D01*
X68082020Y-86643793D01*
X67870677Y-86700422D01*
X67870668Y-86700426D01*
X67672361Y-86792898D01*
X67672357Y-86792900D01*
X67493121Y-86918402D01*
X67338402Y-87073121D01*
X67212900Y-87252357D01*
X67212898Y-87252361D01*
X67142382Y-87403583D01*
X67096209Y-87456022D01*
X67029016Y-87475174D01*
X66962135Y-87454958D01*
X66917618Y-87403583D01*
X66903118Y-87372488D01*
X66847102Y-87252362D01*
X66847100Y-87252359D01*
X66847099Y-87252357D01*
X66721599Y-87073124D01*
X66721596Y-87073121D01*
X66566877Y-86918402D01*
X66387639Y-86792898D01*
X66236414Y-86722381D01*
X66183977Y-86676210D01*
X66164825Y-86609016D01*
X66185041Y-86542135D01*
X66236414Y-86497618D01*
X66387639Y-86427102D01*
X66426349Y-86399997D01*
X91444751Y-86399997D01*
X91444751Y-86400002D01*
X91463685Y-86568056D01*
X91519545Y-86727694D01*
X91519547Y-86727697D01*
X91609518Y-86870884D01*
X91609523Y-86870890D01*
X91729109Y-86990476D01*
X91729115Y-86990481D01*
X91872302Y-87080452D01*
X91872305Y-87080454D01*
X91872309Y-87080455D01*
X91872310Y-87080456D01*
X91944913Y-87105860D01*
X92031943Y-87136314D01*
X92199997Y-87155249D01*
X92200000Y-87155249D01*
X92200003Y-87155249D01*
X92368056Y-87136314D01*
X92368059Y-87136313D01*
X92527690Y-87080456D01*
X92527692Y-87080454D01*
X92527694Y-87080454D01*
X92527697Y-87080452D01*
X92670884Y-86990481D01*
X92670885Y-86990480D01*
X92670890Y-86990477D01*
X92790477Y-86870890D01*
X92880452Y-86727697D01*
X92880454Y-86727694D01*
X92880454Y-86727692D01*
X92880456Y-86727690D01*
X92936313Y-86568059D01*
X92936313Y-86568058D01*
X92936314Y-86568056D01*
X92955249Y-86400002D01*
X92955249Y-86399997D01*
X92936314Y-86231943D01*
X92880454Y-86072305D01*
X92880452Y-86072302D01*
X92790481Y-85929115D01*
X92790476Y-85929109D01*
X92670890Y-85809523D01*
X92670884Y-85809518D01*
X92527697Y-85719547D01*
X92527694Y-85719545D01*
X92368056Y-85663685D01*
X92200003Y-85644751D01*
X92199997Y-85644751D01*
X92031943Y-85663685D01*
X91872305Y-85719545D01*
X91872302Y-85719547D01*
X91729115Y-85809518D01*
X91729109Y-85809523D01*
X91609523Y-85929109D01*
X91609518Y-85929115D01*
X91519547Y-86072302D01*
X91519545Y-86072305D01*
X91463685Y-86231943D01*
X91444751Y-86399997D01*
X66426349Y-86399997D01*
X66566877Y-86301598D01*
X66721598Y-86146877D01*
X66847102Y-85967639D01*
X66939575Y-85769330D01*
X66996207Y-85557977D01*
X67015277Y-85340000D01*
X67014200Y-85327694D01*
X67011569Y-85297618D01*
X66996207Y-85122023D01*
X66963510Y-84999997D01*
X94644751Y-84999997D01*
X94644751Y-85000002D01*
X94663685Y-85168056D01*
X94719545Y-85327694D01*
X94719547Y-85327697D01*
X94809518Y-85470884D01*
X94809523Y-85470890D01*
X94929109Y-85590476D01*
X94929115Y-85590481D01*
X95072302Y-85680452D01*
X95072305Y-85680454D01*
X95072309Y-85680455D01*
X95072310Y-85680456D01*
X95144913Y-85705860D01*
X95231943Y-85736314D01*
X95399997Y-85755249D01*
X95400000Y-85755249D01*
X95400003Y-85755249D01*
X95568056Y-85736314D01*
X95568059Y-85736313D01*
X95727690Y-85680456D01*
X95727692Y-85680454D01*
X95727694Y-85680454D01*
X95727697Y-85680452D01*
X95870884Y-85590481D01*
X95870885Y-85590480D01*
X95870890Y-85590477D01*
X95990477Y-85470890D01*
X96080452Y-85327697D01*
X96080454Y-85327694D01*
X96080454Y-85327692D01*
X96080456Y-85327690D01*
X96136313Y-85168059D01*
X96136313Y-85168058D01*
X96136314Y-85168056D01*
X96155249Y-85000002D01*
X96155249Y-84999997D01*
X96136314Y-84831943D01*
X96080454Y-84672305D01*
X96080452Y-84672302D01*
X95990481Y-84529115D01*
X95990476Y-84529109D01*
X95870890Y-84409523D01*
X95870884Y-84409518D01*
X95727697Y-84319547D01*
X95727694Y-84319545D01*
X95568056Y-84263685D01*
X95400003Y-84244751D01*
X95399997Y-84244751D01*
X95231943Y-84263685D01*
X95072305Y-84319545D01*
X95072302Y-84319547D01*
X94929115Y-84409518D01*
X94929109Y-84409523D01*
X94809523Y-84529109D01*
X94809518Y-84529115D01*
X94719547Y-84672302D01*
X94719545Y-84672305D01*
X94663685Y-84831943D01*
X94644751Y-84999997D01*
X66963510Y-84999997D01*
X66939575Y-84910670D01*
X66847102Y-84712362D01*
X66847100Y-84712359D01*
X66847099Y-84712357D01*
X66721599Y-84533124D01*
X66668927Y-84480452D01*
X66566877Y-84378402D01*
X66387639Y-84252898D01*
X66236414Y-84182381D01*
X66183977Y-84136210D01*
X66164825Y-84069016D01*
X66185041Y-84002135D01*
X66236414Y-83957618D01*
X66387639Y-83887102D01*
X66566877Y-83761598D01*
X66721598Y-83606877D01*
X66847102Y-83427639D01*
X66939575Y-83229330D01*
X66996207Y-83017977D01*
X67015277Y-82800000D01*
X66996207Y-82582023D01*
X66939575Y-82370670D01*
X66847102Y-82172362D01*
X66847100Y-82172359D01*
X66847099Y-82172357D01*
X66721599Y-81993124D01*
X66656165Y-81927690D01*
X66566877Y-81838402D01*
X66387639Y-81712898D01*
X66236414Y-81642381D01*
X66183977Y-81596210D01*
X66164825Y-81529016D01*
X66185041Y-81462135D01*
X66236414Y-81417618D01*
X66387639Y-81347102D01*
X66566877Y-81221598D01*
X66721598Y-81066877D01*
X66847102Y-80887639D01*
X66939575Y-80689330D01*
X66996207Y-80477977D01*
X67015277Y-80260000D01*
X67015277Y-80259997D01*
X76844751Y-80259997D01*
X76844751Y-80260002D01*
X76863685Y-80428056D01*
X76919545Y-80587694D01*
X76919547Y-80587697D01*
X77009518Y-80730884D01*
X77009523Y-80730890D01*
X77129109Y-80850476D01*
X77129115Y-80850481D01*
X77272302Y-80940452D01*
X77272305Y-80940454D01*
X77272309Y-80940455D01*
X77272310Y-80940456D01*
X77344913Y-80965860D01*
X77431943Y-80996314D01*
X77599997Y-81015249D01*
X77600000Y-81015249D01*
X77600003Y-81015249D01*
X77768056Y-80996314D01*
X77768059Y-80996313D01*
X77927690Y-80940456D01*
X77927692Y-80940454D01*
X77927694Y-80940454D01*
X77927697Y-80940452D01*
X78070884Y-80850481D01*
X78070885Y-80850480D01*
X78070890Y-80850477D01*
X78190477Y-80730890D01*
X78206431Y-80705500D01*
X78280452Y-80587697D01*
X78280454Y-80587694D01*
X78280454Y-80587692D01*
X78280456Y-80587690D01*
X78336313Y-80428059D01*
X78336313Y-80428058D01*
X78336314Y-80428056D01*
X78355249Y-80260002D01*
X78355249Y-80259997D01*
X78336314Y-80091943D01*
X78280454Y-79932305D01*
X78280452Y-79932302D01*
X78190481Y-79789115D01*
X78190476Y-79789109D01*
X78070890Y-79669523D01*
X78070884Y-79669518D01*
X77927697Y-79579547D01*
X77927694Y-79579545D01*
X77768056Y-79523685D01*
X77600003Y-79504751D01*
X77599997Y-79504751D01*
X77431943Y-79523685D01*
X77272305Y-79579545D01*
X77272302Y-79579547D01*
X77129115Y-79669518D01*
X77129109Y-79669523D01*
X77009523Y-79789109D01*
X77009518Y-79789115D01*
X76919547Y-79932302D01*
X76919545Y-79932305D01*
X76863685Y-80091943D01*
X76844751Y-80259997D01*
X67015277Y-80259997D01*
X66996207Y-80042023D01*
X66942152Y-79840287D01*
X66943815Y-79770439D01*
X66982977Y-79712576D01*
X67047206Y-79685072D01*
X67102882Y-79691154D01*
X67231939Y-79736313D01*
X67399997Y-79755249D01*
X67400000Y-79755249D01*
X67400003Y-79755249D01*
X67568056Y-79736314D01*
X67568059Y-79736313D01*
X67727690Y-79680456D01*
X67727692Y-79680454D01*
X67727694Y-79680454D01*
X67727697Y-79680452D01*
X67870884Y-79590481D01*
X67870885Y-79590480D01*
X67870890Y-79590477D01*
X67990477Y-79470890D01*
X68071031Y-79342690D01*
X68080452Y-79327697D01*
X68080454Y-79327694D01*
X68080454Y-79327692D01*
X68080456Y-79327690D01*
X68136313Y-79168059D01*
X68136313Y-79168058D01*
X68136314Y-79168056D01*
X68155249Y-79000002D01*
X68155249Y-78999997D01*
X68136314Y-78831943D01*
X68080454Y-78672305D01*
X68080452Y-78672302D01*
X67990481Y-78529115D01*
X67990476Y-78529109D01*
X67870890Y-78409523D01*
X67870884Y-78409518D01*
X67727697Y-78319547D01*
X67727694Y-78319545D01*
X67568056Y-78263685D01*
X67400003Y-78244751D01*
X67399997Y-78244751D01*
X67231942Y-78263686D01*
X67096173Y-78311193D01*
X67026394Y-78314754D01*
X66965767Y-78280025D01*
X66933540Y-78218031D01*
X66938475Y-78154640D01*
X66938174Y-78154560D01*
X66938607Y-78152942D01*
X66938702Y-78151727D01*
X66939572Y-78149335D01*
X66939575Y-78149330D01*
X66996207Y-77937977D01*
X67015277Y-77720000D01*
X66996207Y-77502023D01*
X66939575Y-77290670D01*
X66847102Y-77092362D01*
X66847100Y-77092359D01*
X66847099Y-77092357D01*
X66721599Y-76913124D01*
X66721596Y-76913121D01*
X66566877Y-76758402D01*
X66387639Y-76632898D01*
X66236414Y-76562381D01*
X66183977Y-76516210D01*
X66164825Y-76449016D01*
X66185041Y-76382135D01*
X66236414Y-76337618D01*
X66387639Y-76267102D01*
X66566877Y-76141598D01*
X66721598Y-75986877D01*
X66847102Y-75807639D01*
X66939575Y-75609330D01*
X66996207Y-75397977D01*
X67015277Y-75180000D01*
X66996207Y-74962023D01*
X66939575Y-74750670D01*
X66847102Y-74552362D01*
X66847100Y-74552359D01*
X66847099Y-74552357D01*
X66721599Y-74373124D01*
X66721596Y-74373121D01*
X66566877Y-74218402D01*
X66387639Y-74092898D01*
X66236414Y-74022381D01*
X66183977Y-73976210D01*
X66164825Y-73909016D01*
X66185041Y-73842135D01*
X66236414Y-73797618D01*
X66387639Y-73727102D01*
X66566877Y-73601598D01*
X66721598Y-73446877D01*
X66847102Y-73267639D01*
X66939575Y-73069330D01*
X66996207Y-72857977D01*
X67015277Y-72640000D01*
X66996207Y-72422023D01*
X66939575Y-72210670D01*
X66847102Y-72012362D01*
X66847100Y-72012359D01*
X66847099Y-72012357D01*
X66721599Y-71833124D01*
X66656531Y-71768056D01*
X66566877Y-71678402D01*
X66387639Y-71552898D01*
X66236414Y-71482381D01*
X66183977Y-71436210D01*
X66164825Y-71369016D01*
X66185041Y-71302135D01*
X66236414Y-71257618D01*
X66387639Y-71187102D01*
X66566877Y-71061598D01*
X66670064Y-70958411D01*
X68659991Y-70958411D01*
X68659991Y-70958416D01*
X68678925Y-71126470D01*
X68734785Y-71286108D01*
X68734787Y-71286111D01*
X68824758Y-71429298D01*
X68824763Y-71429304D01*
X68944349Y-71548890D01*
X68944355Y-71548895D01*
X69087542Y-71638866D01*
X69087545Y-71638868D01*
X69087549Y-71638869D01*
X69087550Y-71638870D01*
X69160153Y-71664274D01*
X69247183Y-71694728D01*
X69415237Y-71713663D01*
X69415240Y-71713663D01*
X69415243Y-71713663D01*
X69583296Y-71694728D01*
X69583299Y-71694727D01*
X69742930Y-71638870D01*
X69742932Y-71638868D01*
X69742934Y-71638868D01*
X69742937Y-71638866D01*
X69886124Y-71548895D01*
X69886125Y-71548894D01*
X69886130Y-71548891D01*
X70005717Y-71429304D01*
X70005721Y-71429298D01*
X70095692Y-71286111D01*
X70095694Y-71286108D01*
X70095694Y-71286106D01*
X70095696Y-71286104D01*
X70151553Y-71126473D01*
X70151553Y-71126472D01*
X70151554Y-71126470D01*
X70170489Y-70958416D01*
X70170489Y-70958411D01*
X70151554Y-70790357D01*
X70095694Y-70630719D01*
X70095692Y-70630716D01*
X70005721Y-70487529D01*
X70005716Y-70487523D01*
X69886130Y-70367937D01*
X69886124Y-70367932D01*
X69742937Y-70277961D01*
X69742934Y-70277959D01*
X69583296Y-70222099D01*
X69415243Y-70203165D01*
X69415237Y-70203165D01*
X69247183Y-70222099D01*
X69087545Y-70277959D01*
X69087542Y-70277961D01*
X68944355Y-70367932D01*
X68944349Y-70367937D01*
X68824763Y-70487523D01*
X68824758Y-70487529D01*
X68734787Y-70630716D01*
X68734785Y-70630719D01*
X68678925Y-70790357D01*
X68659991Y-70958411D01*
X66670064Y-70958411D01*
X66721598Y-70906877D01*
X66847102Y-70727639D01*
X66939575Y-70529330D01*
X66996207Y-70317977D01*
X67015277Y-70100000D01*
X66996207Y-69882023D01*
X66939575Y-69670670D01*
X66847102Y-69472362D01*
X66847100Y-69472359D01*
X66847099Y-69472357D01*
X66721599Y-69293124D01*
X66671035Y-69242560D01*
X66566877Y-69138402D01*
X66387639Y-69012898D01*
X66236414Y-68942381D01*
X66183977Y-68896210D01*
X66170805Y-68849997D01*
X78444751Y-68849997D01*
X78444751Y-68850002D01*
X78463685Y-69018056D01*
X78519545Y-69177694D01*
X78519547Y-69177697D01*
X78609518Y-69320884D01*
X78609523Y-69320890D01*
X78729109Y-69440476D01*
X78729115Y-69440481D01*
X78872302Y-69530452D01*
X78872305Y-69530454D01*
X78872309Y-69530455D01*
X78872310Y-69530456D01*
X78915518Y-69545575D01*
X79031943Y-69586314D01*
X79199997Y-69605249D01*
X79200000Y-69605249D01*
X79200003Y-69605249D01*
X79368056Y-69586314D01*
X79368059Y-69586313D01*
X79527690Y-69530456D01*
X79527692Y-69530454D01*
X79527694Y-69530454D01*
X79527697Y-69530452D01*
X79676786Y-69436773D01*
X79678200Y-69439024D01*
X79731624Y-69417198D01*
X79800322Y-69429936D01*
X79851229Y-69477793D01*
X79868180Y-69545575D01*
X79856664Y-69592954D01*
X79820427Y-69670663D01*
X79820422Y-69670677D01*
X79763793Y-69882020D01*
X79763793Y-69882024D01*
X79744723Y-70099997D01*
X79744723Y-70100002D01*
X79763793Y-70317975D01*
X79763793Y-70317979D01*
X79820422Y-70529322D01*
X79820424Y-70529326D01*
X79820425Y-70529330D01*
X79866661Y-70628484D01*
X79912897Y-70727638D01*
X79912898Y-70727639D01*
X80038402Y-70906877D01*
X80193123Y-71061598D01*
X80372360Y-71187101D01*
X80372361Y-71187102D01*
X80523583Y-71257618D01*
X80576022Y-71303790D01*
X80595174Y-71370984D01*
X80574958Y-71437865D01*
X80523583Y-71482382D01*
X80372361Y-71552898D01*
X80372357Y-71552900D01*
X80193121Y-71678402D01*
X80038402Y-71833121D01*
X79912900Y-72012357D01*
X79912898Y-72012361D01*
X79820426Y-72210668D01*
X79820422Y-72210677D01*
X79763793Y-72422020D01*
X79763793Y-72422024D01*
X79744723Y-72639997D01*
X79744723Y-72640002D01*
X79763793Y-72857975D01*
X79763793Y-72857979D01*
X79820422Y-73069322D01*
X79820424Y-73069326D01*
X79820425Y-73069330D01*
X79866661Y-73168484D01*
X79912897Y-73267638D01*
X79912898Y-73267639D01*
X80038402Y-73446877D01*
X80193123Y-73601598D01*
X80328790Y-73696593D01*
X80372361Y-73727102D01*
X80523583Y-73797618D01*
X80576022Y-73843790D01*
X80595174Y-73910984D01*
X80574958Y-73977865D01*
X80523583Y-74022382D01*
X80372361Y-74092898D01*
X80372357Y-74092900D01*
X80193121Y-74218402D01*
X80038402Y-74373121D01*
X79912900Y-74552357D01*
X79912898Y-74552361D01*
X79820426Y-74750668D01*
X79820422Y-74750677D01*
X79763793Y-74962020D01*
X79763793Y-74962024D01*
X79744723Y-75179997D01*
X79744723Y-75180002D01*
X79763793Y-75397975D01*
X79763793Y-75397979D01*
X79820422Y-75609322D01*
X79820424Y-75609326D01*
X79820425Y-75609330D01*
X79861767Y-75697989D01*
X79912897Y-75807638D01*
X79912898Y-75807639D01*
X80038402Y-75986877D01*
X80193123Y-76141598D01*
X80328790Y-76236593D01*
X80372361Y-76267102D01*
X80523583Y-76337618D01*
X80576022Y-76383790D01*
X80595174Y-76450984D01*
X80574958Y-76517865D01*
X80523583Y-76562382D01*
X80372361Y-76632898D01*
X80372357Y-76632900D01*
X80193121Y-76758402D01*
X80038402Y-76913121D01*
X79912900Y-77092357D01*
X79912898Y-77092361D01*
X79820426Y-77290668D01*
X79820422Y-77290677D01*
X79763793Y-77502020D01*
X79763793Y-77502024D01*
X79744723Y-77719997D01*
X79744723Y-77720002D01*
X79763793Y-77937975D01*
X79763793Y-77937979D01*
X79820422Y-78149322D01*
X79820424Y-78149326D01*
X79820425Y-78149330D01*
X79864921Y-78244751D01*
X79912897Y-78347638D01*
X79912898Y-78347639D01*
X80038402Y-78526877D01*
X80193123Y-78681598D01*
X80328790Y-78776593D01*
X80372361Y-78807102D01*
X80523583Y-78877618D01*
X80576022Y-78923790D01*
X80595174Y-78990984D01*
X80574958Y-79057865D01*
X80523583Y-79102382D01*
X80372361Y-79172898D01*
X80372357Y-79172900D01*
X80193121Y-79298402D01*
X80038402Y-79453121D01*
X79912900Y-79632357D01*
X79912898Y-79632361D01*
X79820426Y-79830668D01*
X79820422Y-79830677D01*
X79763793Y-80042020D01*
X79763793Y-80042024D01*
X79744723Y-80259997D01*
X79744723Y-80260002D01*
X79763793Y-80477975D01*
X79763793Y-80477979D01*
X79820422Y-80689322D01*
X79820424Y-80689326D01*
X79820425Y-80689330D01*
X79839802Y-80730884D01*
X79912897Y-80887638D01*
X79912898Y-80887639D01*
X80038402Y-81066877D01*
X80193123Y-81221598D01*
X80372360Y-81347101D01*
X80372361Y-81347102D01*
X80523583Y-81417618D01*
X80576022Y-81463790D01*
X80595174Y-81530984D01*
X80574958Y-81597865D01*
X80523583Y-81642382D01*
X80372361Y-81712898D01*
X80372357Y-81712900D01*
X80193121Y-81838402D01*
X80038402Y-81993121D01*
X79912900Y-82172357D01*
X79912898Y-82172361D01*
X79820426Y-82370668D01*
X79820422Y-82370677D01*
X79763793Y-82582020D01*
X79763793Y-82582024D01*
X79744723Y-82799997D01*
X79744723Y-82800002D01*
X79763793Y-83017975D01*
X79763793Y-83017979D01*
X79820422Y-83229322D01*
X79820424Y-83229326D01*
X79820425Y-83229330D01*
X79866661Y-83328484D01*
X79912897Y-83427638D01*
X79912898Y-83427639D01*
X80038402Y-83606877D01*
X80193123Y-83761598D01*
X80372361Y-83887102D01*
X80570670Y-83979575D01*
X80782023Y-84036207D01*
X80964926Y-84052208D01*
X80999998Y-84055277D01*
X81000000Y-84055277D01*
X81000002Y-84055277D01*
X81028254Y-84052805D01*
X81217977Y-84036207D01*
X81429330Y-83979575D01*
X81627639Y-83887102D01*
X81752038Y-83799997D01*
X96844751Y-83799997D01*
X96844751Y-83800002D01*
X96863685Y-83968056D01*
X96919545Y-84127694D01*
X96919547Y-84127697D01*
X97009518Y-84270884D01*
X97009523Y-84270890D01*
X97129109Y-84390476D01*
X97129115Y-84390481D01*
X97272302Y-84480452D01*
X97272305Y-84480454D01*
X97272309Y-84480455D01*
X97272310Y-84480456D01*
X97344913Y-84505860D01*
X97431943Y-84536314D01*
X97599997Y-84555249D01*
X97600000Y-84555249D01*
X97600003Y-84555249D01*
X97768056Y-84536314D01*
X97768059Y-84536313D01*
X97927690Y-84480456D01*
X97927692Y-84480454D01*
X97927694Y-84480454D01*
X97927697Y-84480452D01*
X98070884Y-84390481D01*
X98070885Y-84390480D01*
X98070890Y-84390477D01*
X98190477Y-84270890D01*
X98201782Y-84252898D01*
X98280452Y-84127697D01*
X98280454Y-84127694D01*
X98280454Y-84127692D01*
X98280456Y-84127690D01*
X98336313Y-83968059D01*
X98336313Y-83968058D01*
X98336314Y-83968056D01*
X98355249Y-83800002D01*
X98355249Y-83799997D01*
X98336314Y-83631943D01*
X98280454Y-83472305D01*
X98280452Y-83472302D01*
X98190481Y-83329115D01*
X98190476Y-83329109D01*
X98070890Y-83209523D01*
X98070884Y-83209518D01*
X97927697Y-83119547D01*
X97927694Y-83119545D01*
X97768056Y-83063685D01*
X97600003Y-83044751D01*
X97599997Y-83044751D01*
X97431943Y-83063685D01*
X97272305Y-83119545D01*
X97272302Y-83119547D01*
X97129115Y-83209518D01*
X97129109Y-83209523D01*
X97009523Y-83329109D01*
X97009518Y-83329115D01*
X96919547Y-83472302D01*
X96919545Y-83472305D01*
X96863685Y-83631943D01*
X96844751Y-83799997D01*
X81752038Y-83799997D01*
X81806877Y-83761598D01*
X81961598Y-83606877D01*
X82087102Y-83427639D01*
X82179575Y-83229330D01*
X82236207Y-83017977D01*
X82255277Y-82800000D01*
X82236207Y-82582023D01*
X82179575Y-82370670D01*
X82087102Y-82172362D01*
X82087100Y-82172359D01*
X82087099Y-82172357D01*
X81961599Y-81993124D01*
X81896165Y-81927690D01*
X81806877Y-81838402D01*
X81627639Y-81712898D01*
X81476414Y-81642381D01*
X81423977Y-81596210D01*
X81404825Y-81529016D01*
X81425041Y-81462135D01*
X81476414Y-81417618D01*
X81627639Y-81347102D01*
X81806877Y-81221598D01*
X81961598Y-81066877D01*
X82087102Y-80887639D01*
X82179575Y-80689330D01*
X82236207Y-80477977D01*
X82255277Y-80260000D01*
X82236207Y-80042023D01*
X82201548Y-79912675D01*
X82179577Y-79830677D01*
X82179576Y-79830676D01*
X82179575Y-79830670D01*
X82087102Y-79632362D01*
X82087100Y-79632359D01*
X82087099Y-79632357D01*
X81961599Y-79453124D01*
X81961596Y-79453121D01*
X81806877Y-79298402D01*
X81627639Y-79172898D01*
X81476414Y-79102381D01*
X81423977Y-79056210D01*
X81404825Y-78989016D01*
X81425041Y-78922135D01*
X81476414Y-78877618D01*
X81627639Y-78807102D01*
X81806877Y-78681598D01*
X81961598Y-78526877D01*
X82087102Y-78347639D01*
X82179575Y-78149330D01*
X82236207Y-77937977D01*
X82255277Y-77720000D01*
X82236207Y-77502023D01*
X82179575Y-77290670D01*
X82087102Y-77092362D01*
X82087100Y-77092359D01*
X82087099Y-77092357D01*
X82032932Y-77014999D01*
X87709571Y-77014999D01*
X87709571Y-77015000D01*
X87729244Y-77227310D01*
X87787596Y-77432392D01*
X87787596Y-77432394D01*
X87882632Y-77623253D01*
X88011127Y-77793406D01*
X88011128Y-77793407D01*
X88168698Y-77937052D01*
X88349981Y-78049298D01*
X88548802Y-78126321D01*
X88745613Y-78163111D01*
X88807893Y-78194779D01*
X88843166Y-78255092D01*
X88840232Y-78324900D01*
X88800023Y-78382040D01*
X88745613Y-78406888D01*
X88548802Y-78443679D01*
X88548799Y-78443679D01*
X88548799Y-78443680D01*
X88349982Y-78520701D01*
X88349980Y-78520702D01*
X88168699Y-78632947D01*
X88011127Y-78776593D01*
X87882632Y-78946746D01*
X87787596Y-79137605D01*
X87787596Y-79137607D01*
X87729244Y-79342689D01*
X87709571Y-79554999D01*
X87709571Y-79555000D01*
X87729244Y-79767310D01*
X87787596Y-79972392D01*
X87787596Y-79972394D01*
X87882632Y-80163253D01*
X88011127Y-80333406D01*
X88011128Y-80333407D01*
X88168698Y-80477052D01*
X88349981Y-80589298D01*
X88548802Y-80666321D01*
X88758390Y-80705500D01*
X88758392Y-80705500D01*
X88971608Y-80705500D01*
X88971610Y-80705500D01*
X89181198Y-80666321D01*
X89380019Y-80589298D01*
X89561302Y-80477052D01*
X89718872Y-80333407D01*
X89847366Y-80163255D01*
X89882876Y-80091941D01*
X89942403Y-79972394D01*
X89942403Y-79972393D01*
X89942405Y-79972389D01*
X90000756Y-79767310D01*
X90020429Y-79555000D01*
X90000756Y-79342690D01*
X89942405Y-79137611D01*
X89942403Y-79137606D01*
X89942403Y-79137605D01*
X89847367Y-78946746D01*
X89718872Y-78776593D01*
X89686887Y-78747435D01*
X89561302Y-78632948D01*
X89380019Y-78520702D01*
X89380017Y-78520701D01*
X89280608Y-78482190D01*
X89181198Y-78443679D01*
X88984385Y-78406888D01*
X88922106Y-78375221D01*
X88886833Y-78314908D01*
X88889767Y-78245100D01*
X88929976Y-78187960D01*
X88984384Y-78163111D01*
X89181198Y-78126321D01*
X89380019Y-78049298D01*
X89561302Y-77937052D01*
X89718872Y-77793407D01*
X89847366Y-77623255D01*
X89847367Y-77623253D01*
X89942403Y-77432394D01*
X89942403Y-77432393D01*
X89942405Y-77432389D01*
X90000756Y-77227310D01*
X90020429Y-77015000D01*
X90000756Y-76802690D01*
X89942405Y-76597611D01*
X89942403Y-76597606D01*
X89942403Y-76597605D01*
X89847367Y-76406746D01*
X89718872Y-76236593D01*
X89651547Y-76175218D01*
X89561302Y-76092948D01*
X89380019Y-75980702D01*
X89380017Y-75980701D01*
X89280608Y-75942190D01*
X89181198Y-75903679D01*
X89008458Y-75871388D01*
X88946179Y-75839721D01*
X88910906Y-75779408D01*
X88913840Y-75709600D01*
X88954049Y-75652460D01*
X89018767Y-75626129D01*
X89031245Y-75625500D01*
X89698261Y-75625500D01*
X89720971Y-75622191D01*
X89766393Y-75615573D01*
X89871483Y-75564198D01*
X89954198Y-75481483D01*
X90005573Y-75376393D01*
X90015500Y-75308260D01*
X90015500Y-74474999D01*
X97869571Y-74474999D01*
X97869571Y-74475000D01*
X97889244Y-74687310D01*
X97947596Y-74892392D01*
X97947596Y-74892394D01*
X98042632Y-75083253D01*
X98171127Y-75253406D01*
X98171128Y-75253407D01*
X98328698Y-75397052D01*
X98509981Y-75509298D01*
X98708802Y-75586321D01*
X98905613Y-75623111D01*
X98967893Y-75654779D01*
X99003166Y-75715092D01*
X99000232Y-75784900D01*
X98960023Y-75842040D01*
X98905613Y-75866888D01*
X98708802Y-75903679D01*
X98708799Y-75903679D01*
X98708799Y-75903680D01*
X98509982Y-75980701D01*
X98509980Y-75980702D01*
X98328699Y-76092947D01*
X98171127Y-76236593D01*
X98042632Y-76406746D01*
X97947596Y-76597605D01*
X97947596Y-76597607D01*
X97889244Y-76802689D01*
X97869571Y-77014999D01*
X97869571Y-77015000D01*
X97889244Y-77227310D01*
X97947596Y-77432392D01*
X97947596Y-77432394D01*
X98042632Y-77623253D01*
X98171127Y-77793406D01*
X98171128Y-77793407D01*
X98328698Y-77937052D01*
X98509981Y-78049298D01*
X98708802Y-78126321D01*
X98905613Y-78163111D01*
X98967893Y-78194779D01*
X99003166Y-78255092D01*
X99000232Y-78324900D01*
X98960023Y-78382040D01*
X98905613Y-78406888D01*
X98708802Y-78443679D01*
X98708799Y-78443679D01*
X98708799Y-78443680D01*
X98509982Y-78520701D01*
X98509980Y-78520702D01*
X98328699Y-78632947D01*
X98171127Y-78776593D01*
X98042632Y-78946746D01*
X97947596Y-79137605D01*
X97947596Y-79137607D01*
X97889244Y-79342689D01*
X97869571Y-79554999D01*
X97869571Y-79555000D01*
X97889244Y-79767310D01*
X97947596Y-79972392D01*
X97947596Y-79972394D01*
X98042632Y-80163253D01*
X98171127Y-80333406D01*
X98171128Y-80333407D01*
X98328698Y-80477052D01*
X98509981Y-80589298D01*
X98708802Y-80666321D01*
X98918390Y-80705500D01*
X98918392Y-80705500D01*
X99131608Y-80705500D01*
X99131610Y-80705500D01*
X99341198Y-80666321D01*
X99540019Y-80589298D01*
X99721302Y-80477052D01*
X99878872Y-80333407D01*
X100007366Y-80163255D01*
X100042876Y-80091941D01*
X100102403Y-79972394D01*
X100102403Y-79972393D01*
X100102405Y-79972389D01*
X100160756Y-79767310D01*
X100180429Y-79555000D01*
X100160756Y-79342690D01*
X100102405Y-79137611D01*
X100102403Y-79137606D01*
X100102403Y-79137605D01*
X100007367Y-78946746D01*
X99878872Y-78776593D01*
X99846887Y-78747435D01*
X99721302Y-78632948D01*
X99540019Y-78520702D01*
X99540017Y-78520701D01*
X99440608Y-78482190D01*
X99341198Y-78443679D01*
X99144385Y-78406888D01*
X99082106Y-78375221D01*
X99046833Y-78314908D01*
X99049767Y-78245100D01*
X99089976Y-78187960D01*
X99144384Y-78163111D01*
X99341198Y-78126321D01*
X99540019Y-78049298D01*
X99721302Y-77937052D01*
X99878872Y-77793407D01*
X100007366Y-77623255D01*
X100007367Y-77623253D01*
X100102403Y-77432394D01*
X100102403Y-77432393D01*
X100102405Y-77432389D01*
X100160756Y-77227310D01*
X100180429Y-77015000D01*
X100160756Y-76802690D01*
X100102405Y-76597611D01*
X100102403Y-76597606D01*
X100102403Y-76597605D01*
X100007367Y-76406746D01*
X99878872Y-76236593D01*
X99811547Y-76175218D01*
X99721302Y-76092948D01*
X99540019Y-75980702D01*
X99540017Y-75980701D01*
X99440608Y-75942190D01*
X99341198Y-75903679D01*
X99144385Y-75866888D01*
X99082106Y-75835221D01*
X99046833Y-75774908D01*
X99049767Y-75705100D01*
X99089976Y-75647960D01*
X99144384Y-75623111D01*
X99341198Y-75586321D01*
X99540019Y-75509298D01*
X99721302Y-75397052D01*
X99878872Y-75253407D01*
X100007366Y-75083255D01*
X100007367Y-75083253D01*
X100102403Y-74892394D01*
X100102403Y-74892393D01*
X100102405Y-74892389D01*
X100160756Y-74687310D01*
X100180429Y-74475000D01*
X100160756Y-74262690D01*
X100102405Y-74057611D01*
X100102403Y-74057606D01*
X100102403Y-74057605D01*
X100007367Y-73866746D01*
X99878872Y-73696593D01*
X99721302Y-73552948D01*
X99540019Y-73440702D01*
X99540017Y-73440701D01*
X99398307Y-73385803D01*
X99341198Y-73363679D01*
X99131610Y-73324500D01*
X98918390Y-73324500D01*
X98708802Y-73363679D01*
X98708799Y-73363679D01*
X98708799Y-73363680D01*
X98509982Y-73440701D01*
X98509980Y-73440702D01*
X98328699Y-73552947D01*
X98171127Y-73696593D01*
X98042632Y-73866746D01*
X97947596Y-74057605D01*
X97947596Y-74057607D01*
X97889244Y-74262689D01*
X97869571Y-74474999D01*
X90015500Y-74474999D01*
X90015500Y-73641740D01*
X90005573Y-73573607D01*
X89954198Y-73468517D01*
X89954196Y-73468515D01*
X89954196Y-73468514D01*
X89871485Y-73385803D01*
X89766391Y-73334426D01*
X89698261Y-73324500D01*
X89698260Y-73324500D01*
X88031740Y-73324500D01*
X88031739Y-73324500D01*
X87963608Y-73334426D01*
X87858514Y-73385803D01*
X87775803Y-73468514D01*
X87724426Y-73573608D01*
X87714500Y-73641739D01*
X87714500Y-75308260D01*
X87724426Y-75376391D01*
X87775803Y-75481485D01*
X87858514Y-75564196D01*
X87858515Y-75564196D01*
X87858517Y-75564198D01*
X87963607Y-75615573D01*
X87997673Y-75620536D01*
X88031739Y-75625500D01*
X88698755Y-75625500D01*
X88765794Y-75645185D01*
X88811549Y-75697989D01*
X88821493Y-75767147D01*
X88792468Y-75830703D01*
X88733690Y-75868477D01*
X88721549Y-75871386D01*
X88548802Y-75903679D01*
X88548799Y-75903679D01*
X88548799Y-75903680D01*
X88349982Y-75980701D01*
X88349980Y-75980702D01*
X88168699Y-76092947D01*
X88011127Y-76236593D01*
X87882632Y-76406746D01*
X87787596Y-76597605D01*
X87787596Y-76597607D01*
X87729244Y-76802689D01*
X87709571Y-77014999D01*
X82032932Y-77014999D01*
X81961599Y-76913124D01*
X81961596Y-76913121D01*
X81806877Y-76758402D01*
X81627639Y-76632898D01*
X81476414Y-76562381D01*
X81423977Y-76516210D01*
X81404825Y-76449016D01*
X81425041Y-76382135D01*
X81476414Y-76337618D01*
X81627639Y-76267102D01*
X81806877Y-76141598D01*
X81961598Y-75986877D01*
X82087102Y-75807639D01*
X82179575Y-75609330D01*
X82236207Y-75397977D01*
X82255277Y-75180000D01*
X82236207Y-74962023D01*
X82179575Y-74750670D01*
X82087102Y-74552362D01*
X82087100Y-74552359D01*
X82087099Y-74552357D01*
X81961599Y-74373124D01*
X81961596Y-74373121D01*
X81806877Y-74218402D01*
X81627639Y-74092898D01*
X81476414Y-74022381D01*
X81423977Y-73976210D01*
X81404825Y-73909016D01*
X81425041Y-73842135D01*
X81476414Y-73797618D01*
X81627639Y-73727102D01*
X81806877Y-73601598D01*
X81961598Y-73446877D01*
X82087102Y-73267639D01*
X82179575Y-73069330D01*
X82236207Y-72857977D01*
X82255277Y-72640000D01*
X82236207Y-72422023D01*
X82179575Y-72210670D01*
X82087102Y-72012362D01*
X82087100Y-72012359D01*
X82087099Y-72012357D01*
X81961599Y-71833124D01*
X81896531Y-71768056D01*
X81806877Y-71678402D01*
X81694903Y-71599997D01*
X91844751Y-71599997D01*
X91844751Y-71600002D01*
X91863685Y-71768056D01*
X91919545Y-71927694D01*
X91919547Y-71927697D01*
X92009518Y-72070884D01*
X92009523Y-72070890D01*
X92129109Y-72190476D01*
X92129115Y-72190481D01*
X92272302Y-72280452D01*
X92272305Y-72280454D01*
X92272309Y-72280455D01*
X92272310Y-72280456D01*
X92344913Y-72305860D01*
X92431943Y-72336314D01*
X92599997Y-72355249D01*
X92600000Y-72355249D01*
X92600003Y-72355249D01*
X92768056Y-72336314D01*
X92792682Y-72327697D01*
X92927690Y-72280456D01*
X92927692Y-72280454D01*
X92927694Y-72280454D01*
X92927697Y-72280452D01*
X93070884Y-72190481D01*
X93070885Y-72190480D01*
X93070890Y-72190477D01*
X93190477Y-72070890D01*
X93227253Y-72012362D01*
X93235023Y-71999997D01*
X95244751Y-71999997D01*
X95244751Y-72000002D01*
X95263685Y-72168056D01*
X95319545Y-72327694D01*
X95319547Y-72327697D01*
X95409518Y-72470884D01*
X95409523Y-72470890D01*
X95529109Y-72590476D01*
X95529115Y-72590481D01*
X95672302Y-72680452D01*
X95672305Y-72680454D01*
X95672309Y-72680455D01*
X95672310Y-72680456D01*
X95744913Y-72705860D01*
X95831943Y-72736314D01*
X95999997Y-72755249D01*
X96000000Y-72755249D01*
X96000003Y-72755249D01*
X96168056Y-72736314D01*
X96168059Y-72736313D01*
X96327690Y-72680456D01*
X96327692Y-72680454D01*
X96327694Y-72680454D01*
X96327697Y-72680452D01*
X96470884Y-72590481D01*
X96470885Y-72590480D01*
X96470890Y-72590477D01*
X96590477Y-72470890D01*
X96621182Y-72422024D01*
X96680452Y-72327697D01*
X96680454Y-72327694D01*
X96680454Y-72327692D01*
X96680456Y-72327690D01*
X96736313Y-72168059D01*
X96736313Y-72168058D01*
X96736314Y-72168056D01*
X96755249Y-72000002D01*
X96755249Y-71999997D01*
X96736314Y-71831943D01*
X96682588Y-71678403D01*
X96680456Y-71672310D01*
X96680455Y-71672309D01*
X96680454Y-71672305D01*
X96680452Y-71672302D01*
X96590481Y-71529115D01*
X96590476Y-71529109D01*
X96470890Y-71409523D01*
X96470884Y-71409518D01*
X96327697Y-71319547D01*
X96327694Y-71319545D01*
X96168056Y-71263685D01*
X96000003Y-71244751D01*
X95999997Y-71244751D01*
X95831943Y-71263685D01*
X95672305Y-71319545D01*
X95672302Y-71319547D01*
X95529115Y-71409518D01*
X95529109Y-71409523D01*
X95409523Y-71529109D01*
X95409518Y-71529115D01*
X95319547Y-71672302D01*
X95319545Y-71672305D01*
X95263685Y-71831943D01*
X95244751Y-71999997D01*
X93235023Y-71999997D01*
X93280452Y-71927697D01*
X93280454Y-71927694D01*
X93280454Y-71927692D01*
X93280456Y-71927690D01*
X93336313Y-71768059D01*
X93336313Y-71768058D01*
X93336314Y-71768056D01*
X93355249Y-71600002D01*
X93355249Y-71599997D01*
X93336314Y-71431943D01*
X93280454Y-71272305D01*
X93280452Y-71272302D01*
X93190481Y-71129115D01*
X93190476Y-71129109D01*
X93070890Y-71009523D01*
X93070884Y-71009518D01*
X92927697Y-70919547D01*
X92927694Y-70919545D01*
X92768056Y-70863685D01*
X92600003Y-70844751D01*
X92599997Y-70844751D01*
X92431943Y-70863685D01*
X92272305Y-70919545D01*
X92272302Y-70919547D01*
X92129115Y-71009518D01*
X92129109Y-71009523D01*
X92009523Y-71129109D01*
X92009518Y-71129115D01*
X91919547Y-71272302D01*
X91919545Y-71272305D01*
X91863685Y-71431943D01*
X91844751Y-71599997D01*
X81694903Y-71599997D01*
X81627639Y-71552898D01*
X81476414Y-71482381D01*
X81423977Y-71436210D01*
X81404825Y-71369016D01*
X81425041Y-71302135D01*
X81476414Y-71257618D01*
X81627639Y-71187102D01*
X81806877Y-71061598D01*
X81961598Y-70906877D01*
X82087102Y-70727639D01*
X82179575Y-70529330D01*
X82236207Y-70317977D01*
X82255277Y-70100000D01*
X82236207Y-69882023D01*
X82179575Y-69670670D01*
X82087102Y-69472362D01*
X82087100Y-69472359D01*
X82087099Y-69472357D01*
X81961599Y-69293124D01*
X81911035Y-69242560D01*
X81868472Y-69199997D01*
X97044751Y-69199997D01*
X97044751Y-69200002D01*
X97063685Y-69368056D01*
X97119545Y-69527694D01*
X97119547Y-69527697D01*
X97209518Y-69670884D01*
X97209523Y-69670890D01*
X97329109Y-69790476D01*
X97329115Y-69790481D01*
X97472302Y-69880452D01*
X97472305Y-69880454D01*
X97472309Y-69880455D01*
X97472310Y-69880456D01*
X97544913Y-69905860D01*
X97631943Y-69936314D01*
X97799997Y-69955249D01*
X97800000Y-69955249D01*
X97800003Y-69955249D01*
X97968056Y-69936314D01*
X97968059Y-69936313D01*
X98127690Y-69880456D01*
X98127692Y-69880454D01*
X98127694Y-69880454D01*
X98127697Y-69880452D01*
X98270884Y-69790481D01*
X98270885Y-69790480D01*
X98270890Y-69790477D01*
X98390477Y-69670890D01*
X98390615Y-69670670D01*
X98480452Y-69527697D01*
X98480454Y-69527694D01*
X98480454Y-69527692D01*
X98480456Y-69527690D01*
X98536313Y-69368059D01*
X98536313Y-69368058D01*
X98536314Y-69368056D01*
X98555249Y-69200002D01*
X98555249Y-69199997D01*
X98536314Y-69031943D01*
X98480454Y-68872305D01*
X98480452Y-68872302D01*
X98390481Y-68729115D01*
X98390476Y-68729109D01*
X98270890Y-68609523D01*
X98270884Y-68609518D01*
X98127697Y-68519547D01*
X98127694Y-68519545D01*
X97968056Y-68463685D01*
X97800003Y-68444751D01*
X97799997Y-68444751D01*
X97631943Y-68463685D01*
X97472305Y-68519545D01*
X97472302Y-68519547D01*
X97329115Y-68609518D01*
X97329109Y-68609523D01*
X97209523Y-68729109D01*
X97209518Y-68729115D01*
X97119547Y-68872302D01*
X97119545Y-68872305D01*
X97063685Y-69031943D01*
X97044751Y-69199997D01*
X81868472Y-69199997D01*
X81806877Y-69138402D01*
X81627639Y-69012898D01*
X81476414Y-68942381D01*
X81423977Y-68896210D01*
X81404825Y-68829016D01*
X81425041Y-68762135D01*
X81476414Y-68717618D01*
X81627639Y-68647102D01*
X81806877Y-68521598D01*
X81961598Y-68366877D01*
X82087102Y-68187639D01*
X82179575Y-67989330D01*
X82236207Y-67777977D01*
X82255277Y-67560000D01*
X82255277Y-67559997D01*
X83444751Y-67559997D01*
X83444751Y-67560002D01*
X83463685Y-67728056D01*
X83519545Y-67887694D01*
X83519547Y-67887697D01*
X83609518Y-68030884D01*
X83609523Y-68030890D01*
X83729109Y-68150476D01*
X83729115Y-68150481D01*
X83872302Y-68240452D01*
X83872305Y-68240454D01*
X83872309Y-68240455D01*
X83872310Y-68240456D01*
X83926801Y-68259523D01*
X84031943Y-68296314D01*
X84199997Y-68315249D01*
X84200000Y-68315249D01*
X84200003Y-68315249D01*
X84368056Y-68296314D01*
X84368059Y-68296313D01*
X84527690Y-68240456D01*
X84527692Y-68240454D01*
X84527694Y-68240454D01*
X84527697Y-68240452D01*
X84670884Y-68150481D01*
X84670885Y-68150480D01*
X84670890Y-68150477D01*
X84790477Y-68030890D01*
X84815868Y-67990481D01*
X84880452Y-67887697D01*
X84880454Y-67887694D01*
X84880454Y-67887692D01*
X84880456Y-67887690D01*
X84936313Y-67728059D01*
X84936313Y-67728058D01*
X84936314Y-67728056D01*
X84955249Y-67560002D01*
X84955249Y-67559997D01*
X84936314Y-67391943D01*
X84880454Y-67232305D01*
X84880452Y-67232302D01*
X84790481Y-67089115D01*
X84790476Y-67089109D01*
X84670890Y-66969523D01*
X84670884Y-66969518D01*
X84527697Y-66879547D01*
X84527694Y-66879545D01*
X84368056Y-66823685D01*
X84200003Y-66804751D01*
X84199997Y-66804751D01*
X84031943Y-66823685D01*
X83872305Y-66879545D01*
X83872302Y-66879547D01*
X83729115Y-66969518D01*
X83729109Y-66969523D01*
X83609523Y-67089109D01*
X83609518Y-67089115D01*
X83519547Y-67232302D01*
X83519545Y-67232305D01*
X83463685Y-67391943D01*
X83444751Y-67559997D01*
X82255277Y-67559997D01*
X82236207Y-67342023D01*
X82179575Y-67130670D01*
X82087102Y-66932362D01*
X82087100Y-66932359D01*
X82087099Y-66932357D01*
X81961599Y-66753124D01*
X81913975Y-66705500D01*
X81806877Y-66598402D01*
X81627639Y-66472898D01*
X81476414Y-66402381D01*
X81423977Y-66356210D01*
X81404825Y-66289016D01*
X81425041Y-66222135D01*
X81476414Y-66177618D01*
X81627639Y-66107102D01*
X81806877Y-65981598D01*
X81961598Y-65826877D01*
X82087102Y-65647639D01*
X82179575Y-65449330D01*
X82236207Y-65237977D01*
X82255277Y-65020000D01*
X82255277Y-65019997D01*
X83644751Y-65019997D01*
X83644751Y-65020002D01*
X83663685Y-65188056D01*
X83719545Y-65347694D01*
X83719547Y-65347697D01*
X83809518Y-65490884D01*
X83809523Y-65490890D01*
X83929109Y-65610476D01*
X83929115Y-65610481D01*
X84072302Y-65700452D01*
X84072305Y-65700454D01*
X84072309Y-65700455D01*
X84072310Y-65700456D01*
X84144913Y-65725860D01*
X84231943Y-65756314D01*
X84399997Y-65775249D01*
X84400000Y-65775249D01*
X84400003Y-65775249D01*
X84568056Y-65756314D01*
X84568059Y-65756313D01*
X84727690Y-65700456D01*
X84727692Y-65700454D01*
X84727694Y-65700454D01*
X84727697Y-65700452D01*
X84870884Y-65610481D01*
X84870885Y-65610480D01*
X84870890Y-65610477D01*
X84990477Y-65490890D01*
X84990481Y-65490884D01*
X85080452Y-65347697D01*
X85080454Y-65347694D01*
X85080454Y-65347692D01*
X85080456Y-65347690D01*
X85136313Y-65188059D01*
X85136313Y-65188058D01*
X85136314Y-65188056D01*
X85155249Y-65020002D01*
X85155249Y-65019997D01*
X85136314Y-64851943D01*
X85080454Y-64692305D01*
X85080452Y-64692302D01*
X84990481Y-64549115D01*
X84990476Y-64549109D01*
X84870890Y-64429523D01*
X84870884Y-64429518D01*
X84831859Y-64404997D01*
X86839751Y-64404997D01*
X86839751Y-64405002D01*
X86858685Y-64573056D01*
X86914545Y-64732694D01*
X86914547Y-64732697D01*
X87004518Y-64875884D01*
X87004523Y-64875890D01*
X87124109Y-64995476D01*
X87124115Y-64995481D01*
X87267302Y-65085452D01*
X87267305Y-65085454D01*
X87267309Y-65085455D01*
X87267310Y-65085456D01*
X87339913Y-65110860D01*
X87426943Y-65141314D01*
X87525271Y-65152392D01*
X87595000Y-65160249D01*
X87603560Y-65159284D01*
X87672380Y-65171336D01*
X87723761Y-65218683D01*
X87741388Y-65286293D01*
X87736713Y-65316435D01*
X87729244Y-65342687D01*
X87709571Y-65554999D01*
X87709571Y-65555000D01*
X87729244Y-65767310D01*
X87787596Y-65972392D01*
X87787596Y-65972394D01*
X87882632Y-66163253D01*
X88003868Y-66323793D01*
X88011128Y-66333407D01*
X88168698Y-66477052D01*
X88349981Y-66589298D01*
X88548802Y-66666321D01*
X88758390Y-66705500D01*
X88758392Y-66705500D01*
X88971608Y-66705500D01*
X88971610Y-66705500D01*
X89181198Y-66666321D01*
X89380019Y-66589298D01*
X89561302Y-66477052D01*
X89718872Y-66333407D01*
X89847366Y-66163255D01*
X89875327Y-66107101D01*
X89942403Y-65972394D01*
X89942403Y-65972393D01*
X89942405Y-65972389D01*
X90000756Y-65767310D01*
X90020429Y-65555000D01*
X90000756Y-65342690D01*
X89942405Y-65137611D01*
X89942403Y-65137606D01*
X89942403Y-65137605D01*
X89847367Y-64946746D01*
X89718872Y-64776593D01*
X89561302Y-64632948D01*
X89380019Y-64520702D01*
X89380017Y-64520701D01*
X89239626Y-64466314D01*
X89181198Y-64443679D01*
X88984385Y-64406888D01*
X88922106Y-64375221D01*
X88886833Y-64314908D01*
X88889767Y-64245100D01*
X88929976Y-64187960D01*
X88984384Y-64163111D01*
X89181198Y-64126321D01*
X89380019Y-64049298D01*
X89561302Y-63937052D01*
X89718872Y-63793407D01*
X89847366Y-63623255D01*
X89875327Y-63567101D01*
X89942403Y-63432394D01*
X89942403Y-63432393D01*
X89942405Y-63432389D01*
X90000756Y-63227310D01*
X90020429Y-63015000D01*
X90000756Y-62802690D01*
X89942405Y-62597611D01*
X89942403Y-62597606D01*
X89942403Y-62597605D01*
X89847367Y-62406746D01*
X89718872Y-62236593D01*
X89561302Y-62092948D01*
X89380019Y-61980702D01*
X89380017Y-61980701D01*
X89265437Y-61936313D01*
X89181198Y-61903679D01*
X89008458Y-61871388D01*
X88946179Y-61839721D01*
X88910906Y-61779408D01*
X88913840Y-61709600D01*
X88954049Y-61652460D01*
X89018767Y-61626129D01*
X89031245Y-61625500D01*
X89698261Y-61625500D01*
X89720971Y-61622191D01*
X89766393Y-61615573D01*
X89871483Y-61564198D01*
X89954198Y-61481483D01*
X90005573Y-61376393D01*
X90015500Y-61308260D01*
X90015500Y-60474999D01*
X97869571Y-60474999D01*
X97869571Y-60475000D01*
X97889244Y-60687310D01*
X97947596Y-60892392D01*
X97947596Y-60892394D01*
X98042632Y-61083253D01*
X98163868Y-61243793D01*
X98171128Y-61253407D01*
X98328698Y-61397052D01*
X98509981Y-61509298D01*
X98708802Y-61586321D01*
X98905613Y-61623111D01*
X98967893Y-61654779D01*
X99003166Y-61715092D01*
X99000232Y-61784900D01*
X98960023Y-61842040D01*
X98905613Y-61866888D01*
X98708802Y-61903679D01*
X98708799Y-61903679D01*
X98708799Y-61903680D01*
X98509982Y-61980701D01*
X98509980Y-61980702D01*
X98328699Y-62092947D01*
X98171127Y-62236593D01*
X98042632Y-62406746D01*
X97947596Y-62597605D01*
X97947596Y-62597607D01*
X97889244Y-62802689D01*
X97869571Y-63014999D01*
X97869571Y-63015000D01*
X97889244Y-63227310D01*
X97947596Y-63432392D01*
X97947596Y-63432394D01*
X98042632Y-63623253D01*
X98163868Y-63783793D01*
X98171128Y-63793407D01*
X98328698Y-63937052D01*
X98509981Y-64049298D01*
X98708802Y-64126321D01*
X98905613Y-64163111D01*
X98967893Y-64194779D01*
X99003166Y-64255092D01*
X99000232Y-64324900D01*
X98960023Y-64382040D01*
X98905613Y-64406888D01*
X98708802Y-64443679D01*
X98708799Y-64443679D01*
X98708799Y-64443680D01*
X98509982Y-64520701D01*
X98509980Y-64520702D01*
X98328699Y-64632947D01*
X98171127Y-64776593D01*
X98042632Y-64946746D01*
X97947596Y-65137605D01*
X97947596Y-65137607D01*
X97889244Y-65342689D01*
X97869571Y-65554999D01*
X97869571Y-65555000D01*
X97889244Y-65767310D01*
X97947596Y-65972392D01*
X97947596Y-65972394D01*
X98042632Y-66163253D01*
X98163868Y-66323793D01*
X98171128Y-66333407D01*
X98328698Y-66477052D01*
X98509981Y-66589298D01*
X98708802Y-66666321D01*
X98918390Y-66705500D01*
X98918392Y-66705500D01*
X99131608Y-66705500D01*
X99131610Y-66705500D01*
X99341198Y-66666321D01*
X99540019Y-66589298D01*
X99721302Y-66477052D01*
X99878872Y-66333407D01*
X100007366Y-66163255D01*
X100035327Y-66107101D01*
X100102403Y-65972394D01*
X100102403Y-65972393D01*
X100102405Y-65972389D01*
X100160756Y-65767310D01*
X100180429Y-65555000D01*
X100160756Y-65342690D01*
X100102405Y-65137611D01*
X100102403Y-65137606D01*
X100102403Y-65137605D01*
X100007367Y-64946746D01*
X99878872Y-64776593D01*
X99721302Y-64632948D01*
X99540019Y-64520702D01*
X99540017Y-64520701D01*
X99399626Y-64466314D01*
X99341198Y-64443679D01*
X99144385Y-64406888D01*
X99082106Y-64375221D01*
X99046833Y-64314908D01*
X99049767Y-64245100D01*
X99089976Y-64187960D01*
X99144384Y-64163111D01*
X99341198Y-64126321D01*
X99540019Y-64049298D01*
X99721302Y-63937052D01*
X99878872Y-63793407D01*
X100007366Y-63623255D01*
X100035327Y-63567101D01*
X100102403Y-63432394D01*
X100102403Y-63432393D01*
X100102405Y-63432389D01*
X100160756Y-63227310D01*
X100180429Y-63015000D01*
X100160756Y-62802690D01*
X100102405Y-62597611D01*
X100102403Y-62597606D01*
X100102403Y-62597605D01*
X100007367Y-62406746D01*
X99878872Y-62236593D01*
X99721302Y-62092948D01*
X99540019Y-61980702D01*
X99540017Y-61980701D01*
X99425437Y-61936313D01*
X99341198Y-61903679D01*
X99144385Y-61866888D01*
X99082106Y-61835221D01*
X99046833Y-61774908D01*
X99049767Y-61705100D01*
X99089976Y-61647960D01*
X99144384Y-61623111D01*
X99341198Y-61586321D01*
X99540019Y-61509298D01*
X99721302Y-61397052D01*
X99878872Y-61253407D01*
X100007366Y-61083255D01*
X100102405Y-60892389D01*
X100160756Y-60687310D01*
X100180429Y-60475000D01*
X100160756Y-60262690D01*
X100102405Y-60057611D01*
X100102403Y-60057606D01*
X100102403Y-60057605D01*
X100007367Y-59866746D01*
X99878872Y-59696593D01*
X99721302Y-59552948D01*
X99540019Y-59440702D01*
X99540017Y-59440701D01*
X99399626Y-59386314D01*
X99341198Y-59363679D01*
X99131610Y-59324500D01*
X98918390Y-59324500D01*
X98708802Y-59363679D01*
X98708799Y-59363679D01*
X98708799Y-59363680D01*
X98509982Y-59440701D01*
X98509980Y-59440702D01*
X98328699Y-59552947D01*
X98171127Y-59696593D01*
X98042632Y-59866746D01*
X97947596Y-60057605D01*
X97947596Y-60057607D01*
X97889244Y-60262689D01*
X97869571Y-60474999D01*
X90015500Y-60474999D01*
X90015500Y-59641740D01*
X90005573Y-59573607D01*
X89954198Y-59468517D01*
X89954196Y-59468515D01*
X89954196Y-59468514D01*
X89871485Y-59385803D01*
X89766391Y-59334426D01*
X89698261Y-59324500D01*
X89698260Y-59324500D01*
X88031740Y-59324500D01*
X88031739Y-59324500D01*
X87963608Y-59334426D01*
X87858514Y-59385803D01*
X87775803Y-59468514D01*
X87724426Y-59573608D01*
X87714500Y-59641739D01*
X87714500Y-61308260D01*
X87724426Y-61376391D01*
X87775803Y-61481485D01*
X87858514Y-61564196D01*
X87858515Y-61564196D01*
X87858517Y-61564198D01*
X87963607Y-61615573D01*
X87997673Y-61620536D01*
X88031739Y-61625500D01*
X88698755Y-61625500D01*
X88765794Y-61645185D01*
X88811549Y-61697989D01*
X88821493Y-61767147D01*
X88792468Y-61830703D01*
X88733690Y-61868477D01*
X88721549Y-61871386D01*
X88548802Y-61903679D01*
X88548799Y-61903679D01*
X88548799Y-61903680D01*
X88349982Y-61980701D01*
X88349980Y-61980702D01*
X88168699Y-62092947D01*
X88011127Y-62236593D01*
X87882632Y-62406746D01*
X87787596Y-62597605D01*
X87787596Y-62597607D01*
X87729244Y-62802689D01*
X87713301Y-62974751D01*
X87709571Y-63015000D01*
X87729244Y-63227310D01*
X87787595Y-63432389D01*
X87812125Y-63481652D01*
X87824385Y-63550438D01*
X87797511Y-63614932D01*
X87740035Y-63654660D01*
X87687241Y-63660143D01*
X87595004Y-63649751D01*
X87594997Y-63649751D01*
X87426943Y-63668685D01*
X87267305Y-63724545D01*
X87267302Y-63724547D01*
X87124115Y-63814518D01*
X87124109Y-63814523D01*
X87004523Y-63934109D01*
X87004518Y-63934115D01*
X86914547Y-64077302D01*
X86914545Y-64077305D01*
X86858685Y-64236943D01*
X86839751Y-64404997D01*
X84831859Y-64404997D01*
X84727697Y-64339547D01*
X84727694Y-64339545D01*
X84568056Y-64283685D01*
X84400003Y-64264751D01*
X84399997Y-64264751D01*
X84231943Y-64283685D01*
X84072305Y-64339545D01*
X84072302Y-64339547D01*
X83929115Y-64429518D01*
X83929109Y-64429523D01*
X83809523Y-64549109D01*
X83809518Y-64549115D01*
X83719547Y-64692302D01*
X83719545Y-64692305D01*
X83663685Y-64851943D01*
X83644751Y-65019997D01*
X82255277Y-65019997D01*
X82253131Y-64995476D01*
X82242669Y-64875890D01*
X82236207Y-64802023D01*
X82179575Y-64590670D01*
X82087102Y-64392362D01*
X82087100Y-64392359D01*
X82087099Y-64392357D01*
X81961599Y-64213124D01*
X81911586Y-64163111D01*
X81806877Y-64058402D01*
X81627639Y-63932898D01*
X81476414Y-63862381D01*
X81423977Y-63816210D01*
X81404825Y-63749016D01*
X81425041Y-63682135D01*
X81476414Y-63637618D01*
X81627639Y-63567102D01*
X81806877Y-63441598D01*
X81961598Y-63286877D01*
X82087102Y-63107639D01*
X82179575Y-62909330D01*
X82236207Y-62697977D01*
X82255277Y-62480000D01*
X82255277Y-62479997D01*
X83644751Y-62479997D01*
X83644751Y-62480002D01*
X83663685Y-62648056D01*
X83719545Y-62807694D01*
X83719547Y-62807697D01*
X83809518Y-62950884D01*
X83809523Y-62950890D01*
X83929109Y-63070476D01*
X83929115Y-63070481D01*
X84072302Y-63160452D01*
X84072305Y-63160454D01*
X84072309Y-63160455D01*
X84072310Y-63160456D01*
X84144913Y-63185860D01*
X84231943Y-63216314D01*
X84399997Y-63235249D01*
X84400000Y-63235249D01*
X84400003Y-63235249D01*
X84568056Y-63216314D01*
X84568059Y-63216313D01*
X84727690Y-63160456D01*
X84727692Y-63160454D01*
X84727694Y-63160454D01*
X84727697Y-63160452D01*
X84870884Y-63070481D01*
X84870885Y-63070480D01*
X84870890Y-63070477D01*
X84990477Y-62950890D01*
X84990481Y-62950884D01*
X85080452Y-62807697D01*
X85080454Y-62807694D01*
X85080454Y-62807692D01*
X85080456Y-62807690D01*
X85136313Y-62648059D01*
X85136313Y-62648058D01*
X85136314Y-62648056D01*
X85155249Y-62480002D01*
X85155249Y-62479997D01*
X85136314Y-62311943D01*
X85105848Y-62224876D01*
X85080456Y-62152310D01*
X85080455Y-62152309D01*
X85080454Y-62152305D01*
X85080452Y-62152302D01*
X84990481Y-62009115D01*
X84990476Y-62009109D01*
X84870890Y-61889523D01*
X84870884Y-61889518D01*
X84727697Y-61799547D01*
X84727694Y-61799545D01*
X84568056Y-61743685D01*
X84400003Y-61724751D01*
X84399997Y-61724751D01*
X84231943Y-61743685D01*
X84072305Y-61799545D01*
X84072302Y-61799547D01*
X83929115Y-61889518D01*
X83929109Y-61889523D01*
X83809523Y-62009109D01*
X83809518Y-62009115D01*
X83719547Y-62152302D01*
X83719545Y-62152305D01*
X83663685Y-62311943D01*
X83644751Y-62479997D01*
X82255277Y-62479997D01*
X82236207Y-62262023D01*
X82179575Y-62050670D01*
X82087102Y-61852362D01*
X82087100Y-61852359D01*
X82087099Y-61852357D01*
X81961599Y-61673124D01*
X81904048Y-61615573D01*
X81806877Y-61518402D01*
X81627639Y-61392898D01*
X81476414Y-61322381D01*
X81423977Y-61276210D01*
X81404825Y-61209016D01*
X81425041Y-61142135D01*
X81476414Y-61097618D01*
X81627639Y-61027102D01*
X81806877Y-60901598D01*
X81961598Y-60746877D01*
X82087102Y-60567639D01*
X82179575Y-60369330D01*
X82236207Y-60157977D01*
X82255277Y-59940000D01*
X82236207Y-59722023D01*
X82179575Y-59510670D01*
X82087102Y-59312362D01*
X82087100Y-59312359D01*
X82087099Y-59312357D01*
X81961599Y-59133124D01*
X81949359Y-59120884D01*
X81806877Y-58978402D01*
X81627639Y-58852898D01*
X81476414Y-58782381D01*
X81423977Y-58736210D01*
X81404825Y-58669016D01*
X81425041Y-58602135D01*
X81476414Y-58557618D01*
X81627639Y-58487102D01*
X81806877Y-58361598D01*
X81961598Y-58206877D01*
X82087102Y-58027639D01*
X82179575Y-57829330D01*
X82187435Y-57799997D01*
X98044751Y-57799997D01*
X98044751Y-57800002D01*
X98063685Y-57968056D01*
X98119545Y-58127694D01*
X98119547Y-58127697D01*
X98209518Y-58270884D01*
X98209523Y-58270890D01*
X98329109Y-58390476D01*
X98329115Y-58390481D01*
X98472302Y-58480452D01*
X98472305Y-58480454D01*
X98472309Y-58480455D01*
X98472310Y-58480456D01*
X98544913Y-58505860D01*
X98631943Y-58536314D01*
X98799997Y-58555249D01*
X98800000Y-58555249D01*
X98800003Y-58555249D01*
X98968056Y-58536314D01*
X98968059Y-58536313D01*
X99127690Y-58480456D01*
X99127692Y-58480454D01*
X99127694Y-58480454D01*
X99127697Y-58480452D01*
X99270884Y-58390481D01*
X99270885Y-58390480D01*
X99270890Y-58390477D01*
X99390477Y-58270890D01*
X99430697Y-58206881D01*
X99480452Y-58127697D01*
X99480454Y-58127694D01*
X99480454Y-58127692D01*
X99480456Y-58127690D01*
X99536313Y-57968059D01*
X99536313Y-57968058D01*
X99536314Y-57968056D01*
X99555249Y-57800002D01*
X99555249Y-57799997D01*
X99536314Y-57631943D01*
X99480454Y-57472305D01*
X99480452Y-57472302D01*
X99390481Y-57329115D01*
X99390476Y-57329109D01*
X99270890Y-57209523D01*
X99270884Y-57209518D01*
X99127697Y-57119547D01*
X99127694Y-57119545D01*
X98968056Y-57063685D01*
X98800003Y-57044751D01*
X98799997Y-57044751D01*
X98631943Y-57063685D01*
X98472305Y-57119545D01*
X98472302Y-57119547D01*
X98329115Y-57209518D01*
X98329109Y-57209523D01*
X98209523Y-57329109D01*
X98209518Y-57329115D01*
X98119547Y-57472302D01*
X98119545Y-57472305D01*
X98063685Y-57631943D01*
X98044751Y-57799997D01*
X82187435Y-57799997D01*
X82236207Y-57617977D01*
X82255277Y-57400000D01*
X82236207Y-57182023D01*
X82179575Y-56970670D01*
X82087102Y-56772362D01*
X82087100Y-56772359D01*
X82087099Y-56772357D01*
X81981738Y-56621885D01*
X89444752Y-56621885D01*
X89444752Y-56621890D01*
X89463686Y-56789944D01*
X89519546Y-56949582D01*
X89519548Y-56949585D01*
X89609519Y-57092772D01*
X89609524Y-57092778D01*
X89729110Y-57212364D01*
X89729116Y-57212369D01*
X89872303Y-57302340D01*
X89872306Y-57302342D01*
X89872310Y-57302343D01*
X89872311Y-57302344D01*
X89944914Y-57327748D01*
X90031944Y-57358202D01*
X90199998Y-57377137D01*
X90200001Y-57377137D01*
X90200004Y-57377137D01*
X90368057Y-57358202D01*
X90451183Y-57329115D01*
X90527691Y-57302344D01*
X90527693Y-57302342D01*
X90527695Y-57302342D01*
X90527698Y-57302340D01*
X90670885Y-57212369D01*
X90670886Y-57212368D01*
X90670891Y-57212365D01*
X90790478Y-57092778D01*
X90808757Y-57063687D01*
X90880453Y-56949585D01*
X90880455Y-56949582D01*
X90880455Y-56949580D01*
X90880457Y-56949578D01*
X90936314Y-56789947D01*
X90936314Y-56789946D01*
X90936315Y-56789944D01*
X90955250Y-56621890D01*
X90955250Y-56621885D01*
X90936315Y-56453831D01*
X90880455Y-56294193D01*
X90880453Y-56294190D01*
X90790482Y-56151003D01*
X90790477Y-56150997D01*
X90670891Y-56031411D01*
X90670885Y-56031406D01*
X90527698Y-55941435D01*
X90527695Y-55941433D01*
X90368057Y-55885573D01*
X90200004Y-55866639D01*
X90199998Y-55866639D01*
X90031944Y-55885573D01*
X89872306Y-55941433D01*
X89872303Y-55941435D01*
X89729116Y-56031406D01*
X89729110Y-56031411D01*
X89609524Y-56150997D01*
X89609519Y-56151003D01*
X89519548Y-56294190D01*
X89519546Y-56294193D01*
X89463686Y-56453831D01*
X89444752Y-56621885D01*
X81981738Y-56621885D01*
X81961599Y-56593124D01*
X81961596Y-56593121D01*
X81806877Y-56438402D01*
X81627639Y-56312898D01*
X81476414Y-56242381D01*
X81423977Y-56196210D01*
X81404825Y-56129016D01*
X81425041Y-56062135D01*
X81476414Y-56017618D01*
X81627639Y-55947102D01*
X81806877Y-55821598D01*
X81961598Y-55666877D01*
X82087102Y-55487639D01*
X82179575Y-55289330D01*
X82236207Y-55077977D01*
X82255277Y-54860000D01*
X82236207Y-54642023D01*
X82179575Y-54430670D01*
X82165272Y-54399997D01*
X91244751Y-54399997D01*
X91244751Y-54400002D01*
X91263685Y-54568056D01*
X91319545Y-54727694D01*
X91319547Y-54727697D01*
X91409518Y-54870884D01*
X91409523Y-54870890D01*
X91529109Y-54990476D01*
X91529115Y-54990481D01*
X91672302Y-55080452D01*
X91672305Y-55080454D01*
X91672309Y-55080455D01*
X91672310Y-55080456D01*
X91744913Y-55105860D01*
X91831943Y-55136314D01*
X91999997Y-55155249D01*
X92000000Y-55155249D01*
X92000003Y-55155249D01*
X92168056Y-55136314D01*
X92168059Y-55136313D01*
X92327690Y-55080456D01*
X92327692Y-55080454D01*
X92327694Y-55080454D01*
X92327697Y-55080452D01*
X92470884Y-54990481D01*
X92470885Y-54990480D01*
X92470890Y-54990477D01*
X92590477Y-54870890D01*
X92590481Y-54870884D01*
X92680452Y-54727697D01*
X92680454Y-54727694D01*
X92680454Y-54727692D01*
X92680456Y-54727690D01*
X92736313Y-54568059D01*
X92736313Y-54568058D01*
X92736314Y-54568056D01*
X92755249Y-54400002D01*
X92755249Y-54399997D01*
X92736314Y-54231943D01*
X92680454Y-54072305D01*
X92680452Y-54072302D01*
X92590481Y-53929115D01*
X92590476Y-53929109D01*
X92470890Y-53809523D01*
X92470884Y-53809518D01*
X92327697Y-53719547D01*
X92327694Y-53719545D01*
X92168056Y-53663685D01*
X92000003Y-53644751D01*
X91999997Y-53644751D01*
X91831943Y-53663685D01*
X91672305Y-53719545D01*
X91672302Y-53719547D01*
X91529115Y-53809518D01*
X91529109Y-53809523D01*
X91409523Y-53929109D01*
X91409518Y-53929115D01*
X91319547Y-54072302D01*
X91319545Y-54072305D01*
X91263685Y-54231943D01*
X91244751Y-54399997D01*
X82165272Y-54399997D01*
X82087102Y-54232362D01*
X82087100Y-54232359D01*
X82087099Y-54232357D01*
X81961599Y-54053124D01*
X81961596Y-54053121D01*
X81806877Y-53898402D01*
X81627639Y-53772898D01*
X81476414Y-53702381D01*
X81423977Y-53656210D01*
X81404825Y-53589016D01*
X81425041Y-53522135D01*
X81476414Y-53477618D01*
X81627639Y-53407102D01*
X81806877Y-53281598D01*
X81903476Y-53184999D01*
X97655599Y-53184999D01*
X97655599Y-53185004D01*
X97674533Y-53353058D01*
X97730393Y-53512696D01*
X97730395Y-53512699D01*
X97820366Y-53655886D01*
X97820371Y-53655892D01*
X97939957Y-53775478D01*
X97939963Y-53775483D01*
X98083150Y-53865454D01*
X98083153Y-53865456D01*
X98083157Y-53865457D01*
X98083158Y-53865458D01*
X98155761Y-53890862D01*
X98242791Y-53921316D01*
X98410845Y-53940251D01*
X98410848Y-53940251D01*
X98410851Y-53940251D01*
X98578904Y-53921316D01*
X98578907Y-53921315D01*
X98738538Y-53865458D01*
X98738540Y-53865456D01*
X98738542Y-53865456D01*
X98738545Y-53865454D01*
X98881732Y-53775483D01*
X98881733Y-53775482D01*
X98881738Y-53775479D01*
X99001325Y-53655892D01*
X99001329Y-53655886D01*
X99095010Y-53506796D01*
X99096747Y-53507887D01*
X99136854Y-53463455D01*
X99204279Y-53445133D01*
X99270906Y-53466173D01*
X99306757Y-53503134D01*
X99319736Y-53523790D01*
X99325769Y-53533391D01*
X99445355Y-53652977D01*
X99445361Y-53652982D01*
X99588548Y-53742953D01*
X99588551Y-53742955D01*
X99588555Y-53742956D01*
X99588556Y-53742957D01*
X99661159Y-53768361D01*
X99748189Y-53798815D01*
X99916243Y-53817750D01*
X99916246Y-53817750D01*
X99916249Y-53817750D01*
X100084302Y-53798815D01*
X100084305Y-53798814D01*
X100243936Y-53742957D01*
X100243938Y-53742955D01*
X100243940Y-53742955D01*
X100243943Y-53742953D01*
X100387130Y-53652982D01*
X100387131Y-53652981D01*
X100387136Y-53652978D01*
X100506723Y-53533391D01*
X100519729Y-53512692D01*
X100596698Y-53390198D01*
X100596700Y-53390195D01*
X100596700Y-53390193D01*
X100596702Y-53390191D01*
X100652559Y-53230560D01*
X100652559Y-53230559D01*
X100652560Y-53230557D01*
X100671495Y-53062503D01*
X100671495Y-53062498D01*
X100652560Y-52894444D01*
X100601782Y-52749330D01*
X100596702Y-52734811D01*
X100596701Y-52734810D01*
X100596700Y-52734806D01*
X100596698Y-52734803D01*
X100506727Y-52591616D01*
X100506722Y-52591610D01*
X100387136Y-52472024D01*
X100387130Y-52472019D01*
X100243943Y-52382048D01*
X100243940Y-52382046D01*
X100084302Y-52326186D01*
X99916249Y-52307252D01*
X99916243Y-52307252D01*
X99748189Y-52326186D01*
X99588551Y-52382046D01*
X99588548Y-52382048D01*
X99445361Y-52472019D01*
X99445355Y-52472024D01*
X99325769Y-52591610D01*
X99325764Y-52591616D01*
X99232084Y-52740707D01*
X99230352Y-52739618D01*
X99190204Y-52784068D01*
X99122773Y-52802368D01*
X99056154Y-52781306D01*
X99020336Y-52744368D01*
X99001325Y-52714112D01*
X98881738Y-52594525D01*
X98881732Y-52594520D01*
X98738545Y-52504549D01*
X98738542Y-52504547D01*
X98578904Y-52448687D01*
X98410851Y-52429753D01*
X98410845Y-52429753D01*
X98242791Y-52448687D01*
X98083153Y-52504547D01*
X98083150Y-52504549D01*
X97939963Y-52594520D01*
X97939957Y-52594525D01*
X97820371Y-52714111D01*
X97820366Y-52714117D01*
X97730395Y-52857304D01*
X97730393Y-52857307D01*
X97674533Y-53016945D01*
X97655599Y-53184999D01*
X81903476Y-53184999D01*
X81961598Y-53126877D01*
X82087102Y-52947639D01*
X82179575Y-52749330D01*
X82236207Y-52537977D01*
X82255277Y-52320000D01*
X82244778Y-52199997D01*
X89644751Y-52199997D01*
X89644751Y-52200002D01*
X89663685Y-52368056D01*
X89719545Y-52527694D01*
X89719547Y-52527697D01*
X89809518Y-52670884D01*
X89809523Y-52670890D01*
X89929109Y-52790476D01*
X89929115Y-52790481D01*
X90072302Y-52880452D01*
X90072305Y-52880454D01*
X90072309Y-52880455D01*
X90072310Y-52880456D01*
X90112280Y-52894442D01*
X90231943Y-52936314D01*
X90399997Y-52955249D01*
X90400000Y-52955249D01*
X90400003Y-52955249D01*
X90568056Y-52936314D01*
X90587401Y-52929545D01*
X90727690Y-52880456D01*
X90727692Y-52880454D01*
X90727694Y-52880454D01*
X90727697Y-52880452D01*
X90870884Y-52790481D01*
X90870885Y-52790480D01*
X90870890Y-52790477D01*
X90990477Y-52670890D01*
X91038464Y-52594520D01*
X91080452Y-52527697D01*
X91080454Y-52527694D01*
X91080454Y-52527692D01*
X91080456Y-52527690D01*
X91136313Y-52368059D01*
X91136313Y-52368057D01*
X91136314Y-52368055D01*
X91147462Y-52269112D01*
X91174528Y-52204698D01*
X91232123Y-52165143D01*
X91301960Y-52163005D01*
X91361866Y-52198963D01*
X91375675Y-52217022D01*
X91409521Y-52270888D01*
X91529109Y-52390476D01*
X91529115Y-52390481D01*
X91672302Y-52480452D01*
X91672305Y-52480454D01*
X91672309Y-52480455D01*
X91672310Y-52480456D01*
X91741164Y-52504549D01*
X91831943Y-52536314D01*
X91999997Y-52555249D01*
X92000000Y-52555249D01*
X92000003Y-52555249D01*
X92168056Y-52536314D01*
X92192682Y-52527697D01*
X92327690Y-52480456D01*
X92327692Y-52480454D01*
X92327694Y-52480454D01*
X92327697Y-52480452D01*
X92470884Y-52390481D01*
X92470885Y-52390480D01*
X92470890Y-52390477D01*
X92590477Y-52270890D01*
X92624325Y-52217022D01*
X92680452Y-52127697D01*
X92680454Y-52127694D01*
X92680454Y-52127692D01*
X92680456Y-52127690D01*
X92736313Y-51968059D01*
X92736313Y-51968058D01*
X92736314Y-51968056D01*
X92755249Y-51800002D01*
X92755249Y-51799997D01*
X92736314Y-51631943D01*
X92680454Y-51472305D01*
X92680452Y-51472302D01*
X92590481Y-51329115D01*
X92590476Y-51329109D01*
X92470890Y-51209523D01*
X92470884Y-51209518D01*
X92327697Y-51119547D01*
X92327694Y-51119545D01*
X92168056Y-51063685D01*
X92000003Y-51044751D01*
X91999997Y-51044751D01*
X91831943Y-51063685D01*
X91672305Y-51119545D01*
X91672302Y-51119547D01*
X91529115Y-51209518D01*
X91529109Y-51209523D01*
X91409523Y-51329109D01*
X91409518Y-51329115D01*
X91319547Y-51472302D01*
X91319545Y-51472305D01*
X91263685Y-51631944D01*
X91252537Y-51730888D01*
X91225470Y-51795302D01*
X91167875Y-51834857D01*
X91098038Y-51836994D01*
X91038132Y-51801035D01*
X91024323Y-51782976D01*
X90995003Y-51736314D01*
X90990477Y-51729110D01*
X90870890Y-51609523D01*
X90870884Y-51609518D01*
X90727697Y-51519547D01*
X90727694Y-51519545D01*
X90568056Y-51463685D01*
X90400003Y-51444751D01*
X90399997Y-51444751D01*
X90231943Y-51463685D01*
X90072305Y-51519545D01*
X90072302Y-51519547D01*
X89929115Y-51609518D01*
X89929109Y-51609523D01*
X89809523Y-51729109D01*
X89809518Y-51729115D01*
X89719547Y-51872302D01*
X89719545Y-51872305D01*
X89663685Y-52031943D01*
X89644751Y-52199997D01*
X82244778Y-52199997D01*
X82236207Y-52102023D01*
X82196879Y-51955249D01*
X82179577Y-51890677D01*
X82179576Y-51890676D01*
X82179575Y-51890670D01*
X82087102Y-51692362D01*
X82087100Y-51692359D01*
X82087099Y-51692357D01*
X81961599Y-51513124D01*
X81893226Y-51444751D01*
X81806877Y-51358402D01*
X81627639Y-51232898D01*
X81476414Y-51162381D01*
X81423977Y-51116210D01*
X81404825Y-51049016D01*
X81419642Y-50999997D01*
X86288556Y-50999997D01*
X86288556Y-51000002D01*
X86307490Y-51168056D01*
X86363350Y-51327694D01*
X86363352Y-51327697D01*
X86453323Y-51470884D01*
X86453328Y-51470890D01*
X86572914Y-51590476D01*
X86572920Y-51590481D01*
X86716107Y-51680452D01*
X86716110Y-51680454D01*
X86716114Y-51680455D01*
X86716115Y-51680456D01*
X86750138Y-51692361D01*
X86875748Y-51736314D01*
X87043802Y-51755249D01*
X87043805Y-51755249D01*
X87043808Y-51755249D01*
X87211861Y-51736314D01*
X87227368Y-51730888D01*
X87371495Y-51680456D01*
X87371497Y-51680454D01*
X87371499Y-51680454D01*
X87371502Y-51680452D01*
X87514689Y-51590481D01*
X87514690Y-51590480D01*
X87514695Y-51590477D01*
X87634282Y-51470890D01*
X87638809Y-51463685D01*
X87724257Y-51327697D01*
X87724259Y-51327694D01*
X87724259Y-51327692D01*
X87724261Y-51327690D01*
X87780118Y-51168059D01*
X87780118Y-51168058D01*
X87780119Y-51168056D01*
X87799054Y-51000002D01*
X87799054Y-50999999D01*
X87797901Y-50989775D01*
X87795611Y-50969444D01*
X87807665Y-50900623D01*
X87855013Y-50849243D01*
X87922623Y-50831618D01*
X87989029Y-50853344D01*
X88006512Y-50867879D01*
X88129109Y-50990476D01*
X88129115Y-50990481D01*
X88272302Y-51080452D01*
X88272305Y-51080454D01*
X88272309Y-51080455D01*
X88272310Y-51080456D01*
X88281847Y-51083793D01*
X88431943Y-51136314D01*
X88599997Y-51155249D01*
X88600000Y-51155249D01*
X88600003Y-51155249D01*
X88768056Y-51136314D01*
X88768059Y-51136313D01*
X88927690Y-51080456D01*
X88927692Y-51080454D01*
X88927694Y-51080454D01*
X88927697Y-51080452D01*
X89055739Y-50999997D01*
X93044751Y-50999997D01*
X93044751Y-51000002D01*
X93063685Y-51168056D01*
X93119545Y-51327694D01*
X93119547Y-51327697D01*
X93209518Y-51470884D01*
X93209523Y-51470890D01*
X93329109Y-51590476D01*
X93329115Y-51590481D01*
X93472302Y-51680452D01*
X93472305Y-51680454D01*
X93472309Y-51680455D01*
X93472310Y-51680456D01*
X93506333Y-51692361D01*
X93631943Y-51736314D01*
X93799997Y-51755249D01*
X93800000Y-51755249D01*
X93800003Y-51755249D01*
X93968056Y-51736314D01*
X93983563Y-51730888D01*
X94127690Y-51680456D01*
X94127692Y-51680454D01*
X94127694Y-51680454D01*
X94127697Y-51680452D01*
X94270884Y-51590481D01*
X94270885Y-51590480D01*
X94270890Y-51590477D01*
X94390477Y-51470890D01*
X94395004Y-51463685D01*
X94480452Y-51327697D01*
X94480454Y-51327694D01*
X94480454Y-51327692D01*
X94480456Y-51327690D01*
X94536313Y-51168059D01*
X94536313Y-51168058D01*
X94536314Y-51168056D01*
X94555249Y-51000002D01*
X94555249Y-50999997D01*
X94536314Y-50831943D01*
X94480454Y-50672305D01*
X94480452Y-50672302D01*
X94390481Y-50529115D01*
X94390476Y-50529109D01*
X94270890Y-50409523D01*
X94270884Y-50409518D01*
X94127697Y-50319547D01*
X94127694Y-50319545D01*
X93968056Y-50263685D01*
X93800003Y-50244751D01*
X93799997Y-50244751D01*
X93631943Y-50263685D01*
X93472305Y-50319545D01*
X93472302Y-50319547D01*
X93329115Y-50409518D01*
X93329109Y-50409523D01*
X93209523Y-50529109D01*
X93209518Y-50529115D01*
X93119547Y-50672302D01*
X93119545Y-50672305D01*
X93063685Y-50831943D01*
X93044751Y-50999997D01*
X89055739Y-50999997D01*
X89070884Y-50990481D01*
X89070885Y-50990480D01*
X89070890Y-50990477D01*
X89190477Y-50870890D01*
X89214949Y-50831943D01*
X89280452Y-50727697D01*
X89280454Y-50727694D01*
X89280454Y-50727692D01*
X89280456Y-50727690D01*
X89336313Y-50568059D01*
X89336313Y-50568058D01*
X89336314Y-50568056D01*
X89355249Y-50400002D01*
X89355249Y-50399997D01*
X89336314Y-50231943D01*
X89280454Y-50072305D01*
X89280452Y-50072302D01*
X89190481Y-49929115D01*
X89190476Y-49929109D01*
X89070890Y-49809523D01*
X89070884Y-49809518D01*
X88927697Y-49719547D01*
X88927694Y-49719545D01*
X88768056Y-49663685D01*
X88600003Y-49644751D01*
X88599997Y-49644751D01*
X88431943Y-49663685D01*
X88272305Y-49719545D01*
X88272302Y-49719547D01*
X88129115Y-49809518D01*
X88129109Y-49809523D01*
X88009523Y-49929109D01*
X88009518Y-49929115D01*
X87919547Y-50072302D01*
X87919545Y-50072305D01*
X87863685Y-50231943D01*
X87844751Y-50399997D01*
X87844751Y-50400005D01*
X87848193Y-50430557D01*
X87836138Y-50499379D01*
X87788788Y-50550757D01*
X87721178Y-50568381D01*
X87654772Y-50546654D01*
X87637292Y-50532120D01*
X87514695Y-50409523D01*
X87514689Y-50409518D01*
X87371502Y-50319547D01*
X87371499Y-50319545D01*
X87211861Y-50263685D01*
X87043808Y-50244751D01*
X87043802Y-50244751D01*
X86875748Y-50263685D01*
X86716110Y-50319545D01*
X86716107Y-50319547D01*
X86572920Y-50409518D01*
X86572914Y-50409523D01*
X86453328Y-50529109D01*
X86453323Y-50529115D01*
X86363352Y-50672302D01*
X86363350Y-50672305D01*
X86307490Y-50831943D01*
X86288556Y-50999997D01*
X81419642Y-50999997D01*
X81425041Y-50982135D01*
X81476414Y-50937618D01*
X81627639Y-50867102D01*
X81806877Y-50741598D01*
X81961598Y-50586877D01*
X82087102Y-50407639D01*
X82179575Y-50209330D01*
X82236207Y-49997977D01*
X82254360Y-49790481D01*
X82255277Y-49780002D01*
X82255277Y-49779997D01*
X82245731Y-49670889D01*
X82236207Y-49562023D01*
X82179575Y-49350670D01*
X82087102Y-49152362D01*
X82087100Y-49152359D01*
X82087099Y-49152357D01*
X81980416Y-48999997D01*
X93844751Y-48999997D01*
X93844751Y-49000002D01*
X93863685Y-49168056D01*
X93919545Y-49327694D01*
X93919547Y-49327697D01*
X94009518Y-49470884D01*
X94009523Y-49470890D01*
X94129109Y-49590476D01*
X94129115Y-49590481D01*
X94272302Y-49680452D01*
X94272305Y-49680454D01*
X94272309Y-49680455D01*
X94272310Y-49680456D01*
X94344913Y-49705860D01*
X94431943Y-49736314D01*
X94599997Y-49755249D01*
X94600000Y-49755249D01*
X94600003Y-49755249D01*
X94768056Y-49736314D01*
X94768059Y-49736313D01*
X94927690Y-49680456D01*
X95029063Y-49616759D01*
X95096299Y-49597759D01*
X95163135Y-49618127D01*
X95200029Y-49655781D01*
X95209522Y-49670889D01*
X95329109Y-49790476D01*
X95329115Y-49790481D01*
X95472302Y-49880452D01*
X95472305Y-49880454D01*
X95472309Y-49880455D01*
X95472310Y-49880456D01*
X95544913Y-49905860D01*
X95631943Y-49936314D01*
X95799997Y-49955249D01*
X95800000Y-49955249D01*
X95800003Y-49955249D01*
X95968056Y-49936314D01*
X95968059Y-49936313D01*
X96127690Y-49880456D01*
X96127692Y-49880454D01*
X96127694Y-49880454D01*
X96127697Y-49880452D01*
X96270884Y-49790481D01*
X96270885Y-49790480D01*
X96270890Y-49790477D01*
X96390477Y-49670890D01*
X96399971Y-49655781D01*
X96480452Y-49527697D01*
X96480454Y-49527694D01*
X96480454Y-49527692D01*
X96480456Y-49527690D01*
X96536313Y-49368059D01*
X96536313Y-49368058D01*
X96536314Y-49368056D01*
X96555249Y-49200002D01*
X96555249Y-49199997D01*
X96536314Y-49031943D01*
X96480454Y-48872305D01*
X96480452Y-48872302D01*
X96390481Y-48729115D01*
X96390476Y-48729109D01*
X96270890Y-48609523D01*
X96270884Y-48609518D01*
X96127697Y-48519547D01*
X96127694Y-48519545D01*
X95968056Y-48463685D01*
X95800003Y-48444751D01*
X95799997Y-48444751D01*
X95631943Y-48463685D01*
X95472307Y-48519545D01*
X95370936Y-48583241D01*
X95303699Y-48602241D01*
X95236864Y-48581873D01*
X95199971Y-48544220D01*
X95190477Y-48529110D01*
X95070890Y-48409523D01*
X95070884Y-48409518D01*
X94927697Y-48319547D01*
X94927694Y-48319545D01*
X94768056Y-48263685D01*
X94600003Y-48244751D01*
X94599997Y-48244751D01*
X94431943Y-48263685D01*
X94272305Y-48319545D01*
X94272302Y-48319547D01*
X94129115Y-48409518D01*
X94129109Y-48409523D01*
X94009523Y-48529109D01*
X94009518Y-48529115D01*
X93919547Y-48672302D01*
X93919545Y-48672305D01*
X93863685Y-48831943D01*
X93844751Y-48999997D01*
X81980416Y-48999997D01*
X81961599Y-48973124D01*
X81961596Y-48973121D01*
X81806877Y-48818402D01*
X81627639Y-48692898D01*
X81476414Y-48622381D01*
X81423977Y-48576210D01*
X81404825Y-48509016D01*
X81425041Y-48442135D01*
X81476414Y-48397618D01*
X81627639Y-48327102D01*
X81806877Y-48201598D01*
X81961598Y-48046877D01*
X82087102Y-47867639D01*
X82179575Y-47669330D01*
X82236207Y-47457977D01*
X82255277Y-47240000D01*
X82251777Y-47199997D01*
X88044751Y-47199997D01*
X88044751Y-47200002D01*
X88063685Y-47368056D01*
X88119545Y-47527694D01*
X88119547Y-47527697D01*
X88209518Y-47670884D01*
X88209523Y-47670890D01*
X88329109Y-47790476D01*
X88329115Y-47790481D01*
X88472302Y-47880452D01*
X88472305Y-47880454D01*
X88472309Y-47880455D01*
X88472310Y-47880456D01*
X88544913Y-47905860D01*
X88631943Y-47936314D01*
X88799997Y-47955249D01*
X88800000Y-47955249D01*
X88800003Y-47955249D01*
X88968056Y-47936314D01*
X88968059Y-47936313D01*
X89127690Y-47880456D01*
X89127692Y-47880454D01*
X89127694Y-47880454D01*
X89127697Y-47880452D01*
X89270884Y-47790481D01*
X89270885Y-47790480D01*
X89270890Y-47790477D01*
X89390477Y-47670890D01*
X89436179Y-47598154D01*
X89488513Y-47551863D01*
X89527287Y-47540906D01*
X89568059Y-47536313D01*
X89727690Y-47480456D01*
X89727693Y-47480453D01*
X89727697Y-47480452D01*
X89870884Y-47390481D01*
X89870885Y-47390480D01*
X89870890Y-47390477D01*
X89990477Y-47270890D01*
X89990481Y-47270884D01*
X90035023Y-47199997D01*
X95044751Y-47199997D01*
X95044751Y-47200002D01*
X95063685Y-47368056D01*
X95119545Y-47527694D01*
X95119547Y-47527697D01*
X95209518Y-47670884D01*
X95209523Y-47670890D01*
X95329109Y-47790476D01*
X95329115Y-47790481D01*
X95472302Y-47880452D01*
X95472305Y-47880454D01*
X95472309Y-47880455D01*
X95472310Y-47880456D01*
X95544913Y-47905860D01*
X95631943Y-47936314D01*
X95799997Y-47955249D01*
X95800000Y-47955249D01*
X95800003Y-47955249D01*
X95968056Y-47936314D01*
X95968059Y-47936313D01*
X96127690Y-47880456D01*
X96127692Y-47880454D01*
X96127694Y-47880454D01*
X96127697Y-47880452D01*
X96270884Y-47790481D01*
X96270885Y-47790480D01*
X96270890Y-47790477D01*
X96390477Y-47670890D01*
X96467951Y-47547592D01*
X96480452Y-47527697D01*
X96480454Y-47527694D01*
X96480454Y-47527692D01*
X96480456Y-47527690D01*
X96536313Y-47368059D01*
X96536313Y-47368058D01*
X96536314Y-47368056D01*
X96555249Y-47200002D01*
X96555249Y-47199997D01*
X96536313Y-47031940D01*
X96536313Y-47031938D01*
X96488571Y-46895500D01*
X96485009Y-46825721D01*
X96519737Y-46765094D01*
X96564658Y-46737503D01*
X96568059Y-46736313D01*
X96727690Y-46680456D01*
X96727693Y-46680453D01*
X96727697Y-46680452D01*
X96870884Y-46590481D01*
X96870885Y-46590480D01*
X96870890Y-46590477D01*
X96990477Y-46470890D01*
X97002091Y-46452407D01*
X97080452Y-46327697D01*
X97080454Y-46327694D01*
X97080454Y-46327692D01*
X97080456Y-46327690D01*
X97136313Y-46168059D01*
X97136313Y-46168058D01*
X97136314Y-46168056D01*
X97155249Y-46000002D01*
X97155249Y-45999997D01*
X97136314Y-45831943D01*
X97089993Y-45699565D01*
X97080456Y-45672310D01*
X97080455Y-45672309D01*
X97080454Y-45672305D01*
X97080452Y-45672302D01*
X96990481Y-45529115D01*
X96990476Y-45529109D01*
X96870890Y-45409523D01*
X96870884Y-45409518D01*
X96727697Y-45319547D01*
X96727694Y-45319545D01*
X96568056Y-45263685D01*
X96400003Y-45244751D01*
X96399997Y-45244751D01*
X96231943Y-45263685D01*
X96072305Y-45319545D01*
X96072302Y-45319547D01*
X95929115Y-45409518D01*
X95929109Y-45409523D01*
X95809523Y-45529109D01*
X95809518Y-45529115D01*
X95719547Y-45672302D01*
X95719545Y-45672305D01*
X95663685Y-45831943D01*
X95644751Y-45999997D01*
X95644751Y-46000002D01*
X95663686Y-46168059D01*
X95663686Y-46168061D01*
X95711429Y-46304500D01*
X95714991Y-46374279D01*
X95680263Y-46434906D01*
X95635342Y-46462497D01*
X95472308Y-46519544D01*
X95472302Y-46519547D01*
X95329115Y-46609518D01*
X95329109Y-46609523D01*
X95209523Y-46729109D01*
X95209518Y-46729115D01*
X95119547Y-46872302D01*
X95119545Y-46872305D01*
X95063685Y-47031943D01*
X95044751Y-47199997D01*
X90035023Y-47199997D01*
X90080452Y-47127697D01*
X90080454Y-47127694D01*
X90080454Y-47127692D01*
X90080456Y-47127690D01*
X90136313Y-46968059D01*
X90136313Y-46968058D01*
X90136314Y-46968056D01*
X90155249Y-46800002D01*
X90155249Y-46799997D01*
X90136314Y-46631943D01*
X90080454Y-46472305D01*
X90080452Y-46472302D01*
X89990481Y-46329115D01*
X89990476Y-46329109D01*
X89870890Y-46209523D01*
X89870884Y-46209518D01*
X89727697Y-46119547D01*
X89727694Y-46119545D01*
X89568056Y-46063685D01*
X89400003Y-46044751D01*
X89399997Y-46044751D01*
X89231943Y-46063685D01*
X89072305Y-46119545D01*
X89072302Y-46119547D01*
X88929115Y-46209518D01*
X88929109Y-46209523D01*
X88809524Y-46329108D01*
X88763819Y-46401846D01*
X88711483Y-46448136D01*
X88672711Y-46459092D01*
X88631946Y-46463685D01*
X88472307Y-46519544D01*
X88472302Y-46519547D01*
X88329115Y-46609518D01*
X88329109Y-46609523D01*
X88209523Y-46729109D01*
X88209518Y-46729115D01*
X88119547Y-46872302D01*
X88119545Y-46872305D01*
X88063685Y-47031943D01*
X88044751Y-47199997D01*
X82251777Y-47199997D01*
X82236207Y-47022023D01*
X82179575Y-46810670D01*
X82087102Y-46612362D01*
X82087100Y-46612359D01*
X82087099Y-46612357D01*
X81961599Y-46433124D01*
X81902754Y-46374279D01*
X81806877Y-46278402D01*
X81627639Y-46152898D01*
X81627640Y-46152898D01*
X81627638Y-46152897D01*
X81528484Y-46106661D01*
X81429330Y-46060425D01*
X81429326Y-46060424D01*
X81429322Y-46060422D01*
X81217977Y-46003793D01*
X81000002Y-45984723D01*
X80999998Y-45984723D01*
X80854682Y-45997436D01*
X80782023Y-46003793D01*
X80782020Y-46003793D01*
X80570677Y-46060422D01*
X80570668Y-46060426D01*
X80372361Y-46152898D01*
X80372357Y-46152900D01*
X80193121Y-46278402D01*
X80038402Y-46433121D01*
X79912900Y-46612357D01*
X79912898Y-46612361D01*
X79820426Y-46810668D01*
X79820422Y-46810677D01*
X79763793Y-47022020D01*
X79763793Y-47022024D01*
X79744723Y-47239997D01*
X79744723Y-47240002D01*
X79763793Y-47457975D01*
X79763793Y-47457979D01*
X79820422Y-47669322D01*
X79820424Y-47669326D01*
X79820425Y-47669330D01*
X79851660Y-47736313D01*
X79912897Y-47867638D01*
X79937998Y-47903486D01*
X80038402Y-48046877D01*
X80193123Y-48201598D01*
X80361567Y-48319544D01*
X80372361Y-48327102D01*
X80523583Y-48397618D01*
X80576022Y-48443790D01*
X80595174Y-48510984D01*
X80574958Y-48577865D01*
X80523583Y-48622382D01*
X80372361Y-48692898D01*
X80372357Y-48692900D01*
X80193121Y-48818402D01*
X80038402Y-48973121D01*
X79912900Y-49152357D01*
X79912898Y-49152361D01*
X79820426Y-49350668D01*
X79820422Y-49350677D01*
X79763793Y-49562020D01*
X79763793Y-49562024D01*
X79744723Y-49779997D01*
X79744723Y-49780002D01*
X79763793Y-49997975D01*
X79763793Y-49997979D01*
X79820422Y-50209322D01*
X79820424Y-50209326D01*
X79820425Y-50209330D01*
X79830969Y-50231941D01*
X79912897Y-50407638D01*
X79914217Y-50409523D01*
X80038402Y-50586877D01*
X80193123Y-50741598D01*
X80322149Y-50831943D01*
X80372361Y-50867102D01*
X80523583Y-50937618D01*
X80576022Y-50983790D01*
X80595174Y-51050984D01*
X80574958Y-51117865D01*
X80523583Y-51162382D01*
X80372361Y-51232898D01*
X80372357Y-51232900D01*
X80193121Y-51358402D01*
X80038402Y-51513121D01*
X79912900Y-51692357D01*
X79912898Y-51692361D01*
X79820426Y-51890668D01*
X79820422Y-51890677D01*
X79763793Y-52102020D01*
X79763793Y-52102023D01*
X79761547Y-52127694D01*
X79744723Y-52319997D01*
X79744723Y-52320002D01*
X79750151Y-52382045D01*
X79763647Y-52536313D01*
X79763793Y-52537975D01*
X79763793Y-52537979D01*
X79820422Y-52749322D01*
X79820424Y-52749326D01*
X79820425Y-52749330D01*
X79835336Y-52781306D01*
X79912897Y-52947638D01*
X79937998Y-52983486D01*
X80038402Y-53126877D01*
X80193123Y-53281598D01*
X80348220Y-53390198D01*
X80372361Y-53407102D01*
X80523583Y-53477618D01*
X80576022Y-53523790D01*
X80595174Y-53590984D01*
X80574958Y-53657865D01*
X80523583Y-53702382D01*
X80372361Y-53772898D01*
X80372357Y-53772900D01*
X80193121Y-53898402D01*
X80038402Y-54053121D01*
X79912900Y-54232357D01*
X79912898Y-54232361D01*
X79820426Y-54430668D01*
X79820422Y-54430677D01*
X79763793Y-54642020D01*
X79763793Y-54642024D01*
X79744723Y-54859997D01*
X79744723Y-54860002D01*
X79763793Y-55077975D01*
X79763793Y-55077979D01*
X79820422Y-55289322D01*
X79820424Y-55289326D01*
X79820425Y-55289330D01*
X79866661Y-55388484D01*
X79912897Y-55487638D01*
X79912898Y-55487639D01*
X80038402Y-55666877D01*
X80193123Y-55821598D01*
X80364265Y-55941433D01*
X80372361Y-55947102D01*
X80523583Y-56017618D01*
X80576022Y-56063790D01*
X80595174Y-56130984D01*
X80574958Y-56197865D01*
X80523583Y-56242382D01*
X80372361Y-56312898D01*
X80372357Y-56312900D01*
X80193121Y-56438402D01*
X80038402Y-56593121D01*
X79912900Y-56772357D01*
X79912898Y-56772361D01*
X79820426Y-56970668D01*
X79820422Y-56970677D01*
X79763793Y-57182020D01*
X79763793Y-57182023D01*
X79761138Y-57212369D01*
X79744723Y-57399997D01*
X79744723Y-57400002D01*
X79763793Y-57617975D01*
X79763793Y-57617979D01*
X79820422Y-57829322D01*
X79820424Y-57829326D01*
X79820425Y-57829330D01*
X79850931Y-57894751D01*
X79912897Y-58027638D01*
X79912898Y-58027639D01*
X80038402Y-58206877D01*
X80193123Y-58361598D01*
X80362864Y-58480452D01*
X80372361Y-58487102D01*
X80523583Y-58557618D01*
X80576022Y-58603790D01*
X80595174Y-58670984D01*
X80574958Y-58737865D01*
X80523583Y-58782382D01*
X80372361Y-58852898D01*
X80372357Y-58852900D01*
X80193121Y-58978402D01*
X80038402Y-59133121D01*
X79912900Y-59312357D01*
X79912898Y-59312361D01*
X79820426Y-59510668D01*
X79820422Y-59510677D01*
X79763793Y-59722020D01*
X79763793Y-59722024D01*
X79744723Y-59939997D01*
X79744723Y-59940002D01*
X79763793Y-60157975D01*
X79763793Y-60157979D01*
X79820422Y-60369322D01*
X79820424Y-60369326D01*
X79820425Y-60369330D01*
X79864423Y-60463685D01*
X79912897Y-60567638D01*
X79912898Y-60567639D01*
X80038402Y-60746877D01*
X80193123Y-60901598D01*
X80331872Y-60998751D01*
X80372361Y-61027102D01*
X80523583Y-61097618D01*
X80576022Y-61143790D01*
X80595174Y-61210984D01*
X80574958Y-61277865D01*
X80523583Y-61322382D01*
X80372361Y-61392898D01*
X80372357Y-61392900D01*
X80193121Y-61518402D01*
X80038402Y-61673121D01*
X79912900Y-61852357D01*
X79912898Y-61852361D01*
X79820426Y-62050668D01*
X79820422Y-62050677D01*
X79763793Y-62262020D01*
X79763793Y-62262024D01*
X79744723Y-62479997D01*
X79744723Y-62480002D01*
X79763793Y-62697975D01*
X79763793Y-62697979D01*
X79799548Y-62831419D01*
X79797885Y-62901269D01*
X79758722Y-62959131D01*
X79694494Y-62986635D01*
X79693658Y-62986732D01*
X79631943Y-62993686D01*
X79472305Y-63049545D01*
X79472302Y-63049547D01*
X79329115Y-63139518D01*
X79329109Y-63139523D01*
X79209523Y-63259109D01*
X79209518Y-63259115D01*
X79119547Y-63402302D01*
X79119545Y-63402305D01*
X79063685Y-63561943D01*
X79044751Y-63729997D01*
X79044751Y-63730002D01*
X79063685Y-63898056D01*
X79119545Y-64057694D01*
X79119547Y-64057697D01*
X79209518Y-64200884D01*
X79209523Y-64200890D01*
X79329109Y-64320476D01*
X79329115Y-64320481D01*
X79472302Y-64410452D01*
X79472305Y-64410454D01*
X79472309Y-64410455D01*
X79472310Y-64410456D01*
X79607189Y-64457652D01*
X79631944Y-64466314D01*
X79704060Y-64474439D01*
X79768474Y-64501505D01*
X79808029Y-64559099D01*
X79810168Y-64628936D01*
X79809952Y-64629752D01*
X79763793Y-64802020D01*
X79763793Y-64802024D01*
X79744723Y-65019997D01*
X79744723Y-65020002D01*
X79763793Y-65237975D01*
X79763793Y-65237979D01*
X79820422Y-65449322D01*
X79820424Y-65449326D01*
X79820425Y-65449330D01*
X79839802Y-65490884D01*
X79912897Y-65647638D01*
X79912898Y-65647639D01*
X80038402Y-65826877D01*
X80193123Y-65981598D01*
X80364990Y-66101941D01*
X80372361Y-66107102D01*
X80523583Y-66177618D01*
X80576022Y-66223790D01*
X80595174Y-66290984D01*
X80574958Y-66357865D01*
X80523583Y-66402382D01*
X80372361Y-66472898D01*
X80372357Y-66472900D01*
X80193121Y-66598402D01*
X80038402Y-66753121D01*
X79912900Y-66932357D01*
X79912898Y-66932361D01*
X79820426Y-67130668D01*
X79820422Y-67130677D01*
X79763793Y-67342020D01*
X79763793Y-67342024D01*
X79744723Y-67559997D01*
X79744723Y-67560002D01*
X79763793Y-67777975D01*
X79763793Y-67777979D01*
X79820422Y-67989322D01*
X79820427Y-67989336D01*
X79889956Y-68138441D01*
X79900448Y-68207518D01*
X79871928Y-68271302D01*
X79813451Y-68309541D01*
X79743584Y-68310095D01*
X79689893Y-68278526D01*
X79670890Y-68259523D01*
X79670884Y-68259518D01*
X79527697Y-68169547D01*
X79527694Y-68169545D01*
X79368056Y-68113685D01*
X79200003Y-68094751D01*
X79199997Y-68094751D01*
X79031943Y-68113685D01*
X78872305Y-68169545D01*
X78872302Y-68169547D01*
X78729115Y-68259518D01*
X78729109Y-68259523D01*
X78609523Y-68379109D01*
X78609518Y-68379115D01*
X78519547Y-68522302D01*
X78519545Y-68522305D01*
X78463685Y-68681943D01*
X78444751Y-68849997D01*
X66170805Y-68849997D01*
X66164825Y-68829016D01*
X66185041Y-68762135D01*
X66236414Y-68717618D01*
X66387639Y-68647102D01*
X66566877Y-68521598D01*
X66721598Y-68366877D01*
X66847102Y-68187639D01*
X66939575Y-67989330D01*
X66996207Y-67777977D01*
X67015277Y-67560000D01*
X66996207Y-67342023D01*
X66939575Y-67130670D01*
X66847102Y-66932362D01*
X66847100Y-66932359D01*
X66847099Y-66932357D01*
X66721599Y-66753124D01*
X66673975Y-66705500D01*
X66566877Y-66598402D01*
X66387639Y-66472898D01*
X66236414Y-66402381D01*
X66183977Y-66356210D01*
X66164825Y-66289016D01*
X66170574Y-66269997D01*
X69574751Y-66269997D01*
X69574751Y-66270002D01*
X69593685Y-66438056D01*
X69649545Y-66597694D01*
X69649547Y-66597697D01*
X69739518Y-66740884D01*
X69739523Y-66740890D01*
X69859109Y-66860476D01*
X69859115Y-66860481D01*
X70002302Y-66950452D01*
X70002305Y-66950454D01*
X70002309Y-66950455D01*
X70002310Y-66950456D01*
X70056801Y-66969523D01*
X70161943Y-67006314D01*
X70329997Y-67025249D01*
X70330000Y-67025249D01*
X70330003Y-67025249D01*
X70498056Y-67006314D01*
X70498059Y-67006313D01*
X70657690Y-66950456D01*
X70657692Y-66950454D01*
X70657694Y-66950454D01*
X70657697Y-66950452D01*
X70800884Y-66860481D01*
X70800885Y-66860480D01*
X70800890Y-66860477D01*
X70920477Y-66740890D01*
X70967332Y-66666321D01*
X71010452Y-66597697D01*
X71010454Y-66597694D01*
X71010454Y-66597692D01*
X71010456Y-66597690D01*
X71066313Y-66438059D01*
X71066313Y-66438058D01*
X71066314Y-66438056D01*
X71085249Y-66270002D01*
X71085249Y-66269997D01*
X71066314Y-66101943D01*
X71010454Y-65942305D01*
X71010452Y-65942302D01*
X70920481Y-65799115D01*
X70920476Y-65799109D01*
X70800890Y-65679523D01*
X70800884Y-65679518D01*
X70657697Y-65589547D01*
X70657694Y-65589545D01*
X70498056Y-65533685D01*
X70330003Y-65514751D01*
X70329997Y-65514751D01*
X70161943Y-65533685D01*
X70002305Y-65589545D01*
X70002302Y-65589547D01*
X69859115Y-65679518D01*
X69859109Y-65679523D01*
X69739523Y-65799109D01*
X69739518Y-65799115D01*
X69649547Y-65942302D01*
X69649545Y-65942305D01*
X69593685Y-66101943D01*
X69574751Y-66269997D01*
X66170574Y-66269997D01*
X66185041Y-66222135D01*
X66236414Y-66177618D01*
X66387639Y-66107102D01*
X66566877Y-65981598D01*
X66721598Y-65826877D01*
X66847102Y-65647639D01*
X66939575Y-65449330D01*
X66996207Y-65237977D01*
X67015277Y-65020000D01*
X67013131Y-64995476D01*
X67002669Y-64875890D01*
X66996207Y-64802023D01*
X66939575Y-64590670D01*
X66847102Y-64392362D01*
X66847100Y-64392359D01*
X66847099Y-64392357D01*
X66721599Y-64213124D01*
X66671586Y-64163111D01*
X66566877Y-64058402D01*
X66387639Y-63932898D01*
X66236414Y-63862381D01*
X66183977Y-63816210D01*
X66164825Y-63749016D01*
X66185041Y-63682135D01*
X66236414Y-63637618D01*
X66387639Y-63567102D01*
X66566877Y-63441598D01*
X66721598Y-63286877D01*
X66847102Y-63107639D01*
X66939575Y-62909330D01*
X66996207Y-62697977D01*
X67015277Y-62480000D01*
X66996207Y-62262023D01*
X66939575Y-62050670D01*
X66847102Y-61852362D01*
X66847100Y-61852359D01*
X66847099Y-61852357D01*
X66721599Y-61673124D01*
X66664048Y-61615573D01*
X66566877Y-61518402D01*
X66387639Y-61392898D01*
X66236414Y-61322381D01*
X66183977Y-61276210D01*
X66164825Y-61209016D01*
X66167551Y-61199997D01*
X67644751Y-61199997D01*
X67644751Y-61200002D01*
X67663685Y-61368056D01*
X67719545Y-61527694D01*
X67719547Y-61527697D01*
X67809518Y-61670884D01*
X67809523Y-61670890D01*
X67929109Y-61790476D01*
X67929115Y-61790481D01*
X68072302Y-61880452D01*
X68072305Y-61880454D01*
X68072309Y-61880455D01*
X68072310Y-61880456D01*
X68138678Y-61903679D01*
X68231943Y-61936314D01*
X68399997Y-61955249D01*
X68400000Y-61955249D01*
X68400003Y-61955249D01*
X68568056Y-61936314D01*
X68568059Y-61936313D01*
X68727690Y-61880456D01*
X68727692Y-61880454D01*
X68727694Y-61880454D01*
X68727697Y-61880452D01*
X68870884Y-61790481D01*
X68870885Y-61790480D01*
X68870890Y-61790477D01*
X68990477Y-61670890D01*
X68990481Y-61670884D01*
X69080452Y-61527697D01*
X69080454Y-61527694D01*
X69080454Y-61527692D01*
X69080456Y-61527690D01*
X69136313Y-61368059D01*
X69136313Y-61368058D01*
X69136314Y-61368056D01*
X69155249Y-61200002D01*
X69155249Y-61199997D01*
X69136314Y-61031943D01*
X69090704Y-60901598D01*
X69080456Y-60872310D01*
X69080455Y-60872309D01*
X69080454Y-60872305D01*
X69080452Y-60872302D01*
X68990481Y-60729115D01*
X68990476Y-60729109D01*
X68870890Y-60609523D01*
X68870884Y-60609518D01*
X68727697Y-60519547D01*
X68727694Y-60519545D01*
X68568056Y-60463685D01*
X68400003Y-60444751D01*
X68399997Y-60444751D01*
X68231943Y-60463685D01*
X68072305Y-60519545D01*
X68072302Y-60519547D01*
X67929115Y-60609518D01*
X67929109Y-60609523D01*
X67809523Y-60729109D01*
X67809518Y-60729115D01*
X67719547Y-60872302D01*
X67719545Y-60872305D01*
X67663685Y-61031943D01*
X67644751Y-61199997D01*
X66167551Y-61199997D01*
X66185041Y-61142135D01*
X66236414Y-61097618D01*
X66387639Y-61027102D01*
X66566877Y-60901598D01*
X66721598Y-60746877D01*
X66847102Y-60567639D01*
X66939575Y-60369330D01*
X66996207Y-60157977D01*
X67015277Y-59940000D01*
X66996207Y-59722023D01*
X66939575Y-59510670D01*
X66847102Y-59312362D01*
X66847100Y-59312359D01*
X66847099Y-59312357D01*
X66721599Y-59133124D01*
X66709359Y-59120884D01*
X66566877Y-58978402D01*
X66387639Y-58852898D01*
X66236414Y-58782381D01*
X66183977Y-58736210D01*
X66164825Y-58669016D01*
X66170574Y-58649997D01*
X69444751Y-58649997D01*
X69444751Y-58650002D01*
X69463685Y-58818056D01*
X69519545Y-58977694D01*
X69519547Y-58977697D01*
X69609518Y-59120884D01*
X69609523Y-59120890D01*
X69729109Y-59240476D01*
X69729115Y-59240481D01*
X69872302Y-59330452D01*
X69872305Y-59330454D01*
X69872309Y-59330455D01*
X69872310Y-59330456D01*
X69883656Y-59334426D01*
X70031943Y-59386314D01*
X70199997Y-59405249D01*
X70200000Y-59405249D01*
X70200003Y-59405249D01*
X70368056Y-59386314D01*
X70368059Y-59386313D01*
X70527690Y-59330456D01*
X70527692Y-59330454D01*
X70527694Y-59330454D01*
X70527697Y-59330452D01*
X70670884Y-59240481D01*
X70670885Y-59240480D01*
X70670890Y-59240477D01*
X70790477Y-59120890D01*
X70880452Y-58977697D01*
X70880454Y-58977694D01*
X70880454Y-58977692D01*
X70880456Y-58977690D01*
X70936313Y-58818059D01*
X70936313Y-58818058D01*
X70936314Y-58818056D01*
X70955249Y-58650002D01*
X70955249Y-58649997D01*
X70936314Y-58481943D01*
X70880454Y-58322305D01*
X70880452Y-58322302D01*
X70790481Y-58179115D01*
X70790476Y-58179109D01*
X70670890Y-58059523D01*
X70670884Y-58059518D01*
X70527697Y-57969547D01*
X70527694Y-57969545D01*
X70368056Y-57913685D01*
X70200003Y-57894751D01*
X70199997Y-57894751D01*
X70031943Y-57913685D01*
X69872305Y-57969545D01*
X69872302Y-57969547D01*
X69729115Y-58059518D01*
X69729109Y-58059523D01*
X69609523Y-58179109D01*
X69609518Y-58179115D01*
X69519547Y-58322302D01*
X69519545Y-58322305D01*
X69463685Y-58481943D01*
X69444751Y-58649997D01*
X66170574Y-58649997D01*
X66185041Y-58602135D01*
X66236414Y-58557618D01*
X66387639Y-58487102D01*
X66566877Y-58361598D01*
X66721598Y-58206877D01*
X66847102Y-58027639D01*
X66939575Y-57829330D01*
X66996207Y-57617977D01*
X67015277Y-57400000D01*
X66996207Y-57182023D01*
X66939575Y-56970670D01*
X66847102Y-56772362D01*
X66847100Y-56772359D01*
X66847099Y-56772357D01*
X66721599Y-56593124D01*
X66721596Y-56593121D01*
X66566877Y-56438402D01*
X66387639Y-56312898D01*
X66236414Y-56242381D01*
X66183977Y-56196210D01*
X66164825Y-56129016D01*
X66185041Y-56062135D01*
X66236414Y-56017618D01*
X66387639Y-55947102D01*
X66566877Y-55821598D01*
X66721598Y-55666877D01*
X66847102Y-55487639D01*
X66939575Y-55289330D01*
X66996207Y-55077977D01*
X67015277Y-54860000D01*
X66996207Y-54642023D01*
X66939575Y-54430670D01*
X66847102Y-54232362D01*
X66847100Y-54232359D01*
X66847099Y-54232357D01*
X66721599Y-54053124D01*
X66721596Y-54053121D01*
X66566877Y-53898402D01*
X66387639Y-53772898D01*
X66236414Y-53702381D01*
X66183977Y-53656210D01*
X66170805Y-53609997D01*
X74644751Y-53609997D01*
X74644751Y-53610002D01*
X74663685Y-53778056D01*
X74719545Y-53937694D01*
X74719547Y-53937697D01*
X74809518Y-54080884D01*
X74809523Y-54080890D01*
X74929109Y-54200476D01*
X74929115Y-54200481D01*
X75072302Y-54290452D01*
X75072305Y-54290454D01*
X75072309Y-54290455D01*
X75072310Y-54290456D01*
X75144913Y-54315860D01*
X75231943Y-54346314D01*
X75399997Y-54365249D01*
X75400000Y-54365249D01*
X75400003Y-54365249D01*
X75568056Y-54346314D01*
X75568059Y-54346313D01*
X75727690Y-54290456D01*
X75727692Y-54290454D01*
X75727694Y-54290454D01*
X75727697Y-54290452D01*
X75870884Y-54200481D01*
X75870885Y-54200480D01*
X75870890Y-54200477D01*
X75990477Y-54080890D01*
X75995868Y-54072310D01*
X76080452Y-53937697D01*
X76080454Y-53937694D01*
X76080454Y-53937692D01*
X76080456Y-53937690D01*
X76136313Y-53778059D01*
X76136313Y-53778058D01*
X76136314Y-53778056D01*
X76155249Y-53610002D01*
X76155249Y-53609997D01*
X76136314Y-53441943D01*
X76080454Y-53282305D01*
X76080452Y-53282302D01*
X75990481Y-53139115D01*
X75990476Y-53139109D01*
X75870890Y-53019523D01*
X75870884Y-53019518D01*
X75727697Y-52929547D01*
X75727694Y-52929545D01*
X75568056Y-52873685D01*
X75400003Y-52854751D01*
X75399997Y-52854751D01*
X75231943Y-52873685D01*
X75072305Y-52929545D01*
X75072302Y-52929547D01*
X74929115Y-53019518D01*
X74929109Y-53019523D01*
X74809523Y-53139109D01*
X74809518Y-53139115D01*
X74719547Y-53282302D01*
X74719545Y-53282305D01*
X74663685Y-53441943D01*
X74644751Y-53609997D01*
X66170805Y-53609997D01*
X66164825Y-53589016D01*
X66185041Y-53522135D01*
X66236414Y-53477618D01*
X66387639Y-53407102D01*
X66566877Y-53281598D01*
X66721598Y-53126877D01*
X66847102Y-52947639D01*
X66939575Y-52749330D01*
X66996207Y-52537977D01*
X67015277Y-52320000D01*
X67004778Y-52199997D01*
X76644751Y-52199997D01*
X76644751Y-52200002D01*
X76663685Y-52368056D01*
X76719545Y-52527694D01*
X76719547Y-52527697D01*
X76809518Y-52670884D01*
X76809523Y-52670890D01*
X76929109Y-52790476D01*
X76929115Y-52790481D01*
X77072302Y-52880452D01*
X77072305Y-52880454D01*
X77072309Y-52880455D01*
X77072310Y-52880456D01*
X77112280Y-52894442D01*
X77231943Y-52936314D01*
X77399997Y-52955249D01*
X77400000Y-52955249D01*
X77400003Y-52955249D01*
X77568056Y-52936314D01*
X77587401Y-52929545D01*
X77727690Y-52880456D01*
X77727692Y-52880454D01*
X77727694Y-52880454D01*
X77727697Y-52880452D01*
X77870884Y-52790481D01*
X77870885Y-52790480D01*
X77870890Y-52790477D01*
X77990477Y-52670890D01*
X78038464Y-52594520D01*
X78080452Y-52527697D01*
X78080454Y-52527694D01*
X78080454Y-52527692D01*
X78080456Y-52527690D01*
X78136313Y-52368059D01*
X78136313Y-52368058D01*
X78136314Y-52368056D01*
X78155249Y-52200002D01*
X78155249Y-52199997D01*
X78136314Y-52031943D01*
X78083306Y-51880456D01*
X78080456Y-51872310D01*
X78080455Y-51872309D01*
X78080454Y-51872305D01*
X78080452Y-51872302D01*
X77990481Y-51729115D01*
X77990476Y-51729109D01*
X77870890Y-51609523D01*
X77870884Y-51609518D01*
X77727697Y-51519547D01*
X77727694Y-51519545D01*
X77568056Y-51463685D01*
X77400003Y-51444751D01*
X77399997Y-51444751D01*
X77231943Y-51463685D01*
X77072305Y-51519545D01*
X77072302Y-51519547D01*
X76929115Y-51609518D01*
X76929109Y-51609523D01*
X76809523Y-51729109D01*
X76809518Y-51729115D01*
X76719547Y-51872302D01*
X76719545Y-51872305D01*
X76663685Y-52031943D01*
X76644751Y-52199997D01*
X67004778Y-52199997D01*
X66996207Y-52102023D01*
X66956879Y-51955249D01*
X66939577Y-51890677D01*
X66939576Y-51890676D01*
X66939575Y-51890670D01*
X66847102Y-51692362D01*
X66847100Y-51692359D01*
X66847099Y-51692357D01*
X66721599Y-51513124D01*
X66653226Y-51444751D01*
X66566877Y-51358402D01*
X66387639Y-51232898D01*
X66387640Y-51232898D01*
X66387638Y-51232897D01*
X66248591Y-51168059D01*
X66189330Y-51140425D01*
X66189326Y-51140424D01*
X66189322Y-51140422D01*
X65977977Y-51083793D01*
X65760002Y-51064723D01*
X65759998Y-51064723D01*
X65614682Y-51077436D01*
X65542023Y-51083793D01*
X65542020Y-51083793D01*
X65330677Y-51140422D01*
X65330668Y-51140426D01*
X65132361Y-51232898D01*
X65132357Y-51232900D01*
X64953121Y-51358402D01*
X64798402Y-51513121D01*
X64672900Y-51692357D01*
X64672898Y-51692361D01*
X64580426Y-51890668D01*
X64580422Y-51890677D01*
X64523793Y-52102020D01*
X64523793Y-52102023D01*
X64521547Y-52127694D01*
X64504723Y-52319997D01*
X61954958Y-52319997D01*
X61963045Y-47239997D01*
X64504723Y-47239997D01*
X64504723Y-47240002D01*
X64523793Y-47457975D01*
X64523793Y-47457979D01*
X64580422Y-47669322D01*
X64580424Y-47669326D01*
X64580425Y-47669330D01*
X64611660Y-47736313D01*
X64672897Y-47867638D01*
X64697998Y-47903486D01*
X64798402Y-48046877D01*
X64953123Y-48201598D01*
X65132361Y-48327102D01*
X65330670Y-48419575D01*
X65542023Y-48476207D01*
X65724926Y-48492208D01*
X65759998Y-48495277D01*
X65760000Y-48495277D01*
X65760002Y-48495277D01*
X65788254Y-48492805D01*
X65977977Y-48476207D01*
X66189330Y-48419575D01*
X66387639Y-48327102D01*
X66566877Y-48201598D01*
X66721598Y-48046877D01*
X66847102Y-47867639D01*
X66939575Y-47669330D01*
X66996207Y-47457977D01*
X67015277Y-47240000D01*
X66996207Y-47022023D01*
X66990305Y-46999997D01*
X68444751Y-46999997D01*
X68444751Y-47000002D01*
X68463685Y-47168056D01*
X68519545Y-47327694D01*
X68519547Y-47327697D01*
X68609518Y-47470884D01*
X68609523Y-47470890D01*
X68729109Y-47590476D01*
X68729115Y-47590481D01*
X68872302Y-47680452D01*
X68872305Y-47680454D01*
X68872309Y-47680455D01*
X68872310Y-47680456D01*
X68944913Y-47705860D01*
X69031943Y-47736314D01*
X69199997Y-47755249D01*
X69200000Y-47755249D01*
X69200003Y-47755249D01*
X69368056Y-47736314D01*
X69368059Y-47736313D01*
X69527690Y-47680456D01*
X69527692Y-47680454D01*
X69527694Y-47680454D01*
X69527697Y-47680452D01*
X69670884Y-47590481D01*
X69670885Y-47590480D01*
X69670890Y-47590477D01*
X69790477Y-47470890D01*
X69841005Y-47390476D01*
X69880452Y-47327697D01*
X69880454Y-47327694D01*
X69880454Y-47327692D01*
X69880456Y-47327690D01*
X69936313Y-47168059D01*
X69936313Y-47168058D01*
X69936314Y-47168056D01*
X69955249Y-47000002D01*
X69955249Y-46999997D01*
X69936314Y-46831943D01*
X69880454Y-46672305D01*
X69880452Y-46672302D01*
X69790481Y-46529115D01*
X69790476Y-46529109D01*
X69670890Y-46409523D01*
X69670884Y-46409518D01*
X69527697Y-46319547D01*
X69527694Y-46319545D01*
X69368056Y-46263685D01*
X69200003Y-46244751D01*
X69199997Y-46244751D01*
X69031943Y-46263685D01*
X68872305Y-46319545D01*
X68872302Y-46319547D01*
X68729115Y-46409518D01*
X68729109Y-46409523D01*
X68609523Y-46529109D01*
X68609518Y-46529115D01*
X68519547Y-46672302D01*
X68519545Y-46672305D01*
X68463685Y-46831943D01*
X68444751Y-46999997D01*
X66990305Y-46999997D01*
X66939575Y-46810670D01*
X66847102Y-46612362D01*
X66847100Y-46612359D01*
X66847099Y-46612357D01*
X66721599Y-46433124D01*
X66662754Y-46374279D01*
X66566877Y-46278402D01*
X66387639Y-46152898D01*
X66387640Y-46152898D01*
X66387638Y-46152897D01*
X66288484Y-46106661D01*
X66189330Y-46060425D01*
X66189326Y-46060424D01*
X66189322Y-46060422D01*
X65977977Y-46003793D01*
X65760002Y-45984723D01*
X65759998Y-45984723D01*
X65614682Y-45997436D01*
X65542023Y-46003793D01*
X65542020Y-46003793D01*
X65330677Y-46060422D01*
X65330668Y-46060426D01*
X65132361Y-46152898D01*
X65132357Y-46152900D01*
X64953121Y-46278402D01*
X64798402Y-46433121D01*
X64672900Y-46612357D01*
X64672898Y-46612361D01*
X64580426Y-46810668D01*
X64580422Y-46810677D01*
X64523793Y-47022020D01*
X64523793Y-47022024D01*
X64504723Y-47239997D01*
X61963045Y-47239997D01*
X61965391Y-45766572D01*
X61985182Y-45699565D01*
X62038059Y-45653894D01*
X62107233Y-45644060D01*
X62170743Y-45673186D01*
X62194384Y-45700797D01*
X62209521Y-45724888D01*
X62329109Y-45844476D01*
X62329115Y-45844481D01*
X62472302Y-45934452D01*
X62472305Y-45934454D01*
X62472309Y-45934455D01*
X62472310Y-45934456D01*
X62544913Y-45959860D01*
X62631943Y-45990314D01*
X62799997Y-46009249D01*
X62800000Y-46009249D01*
X62800003Y-46009249D01*
X62968056Y-45990314D01*
X62984034Y-45984723D01*
X63127690Y-45934456D01*
X63127692Y-45934454D01*
X63127694Y-45934454D01*
X63127697Y-45934452D01*
X63270884Y-45844481D01*
X63270885Y-45844480D01*
X63270890Y-45844477D01*
X63390477Y-45724890D01*
X63422965Y-45673186D01*
X63480452Y-45581697D01*
X63480454Y-45581694D01*
X63480454Y-45581692D01*
X63480456Y-45581690D01*
X63536313Y-45422059D01*
X63536313Y-45422058D01*
X63536314Y-45422056D01*
X63555249Y-45254002D01*
X63555249Y-45253997D01*
X63536314Y-45085943D01*
X63480454Y-44926305D01*
X63480452Y-44926302D01*
X63390481Y-44783115D01*
X63390476Y-44783109D01*
X63270890Y-44663523D01*
X63270884Y-44663518D01*
X63127697Y-44573547D01*
X63127694Y-44573545D01*
X62968056Y-44517685D01*
X62800003Y-44498751D01*
X62799997Y-44498751D01*
X62631943Y-44517685D01*
X62472305Y-44573545D01*
X62472302Y-44573547D01*
X62329115Y-44663518D01*
X62329109Y-44663523D01*
X62209521Y-44783111D01*
X62196019Y-44804600D01*
X62143683Y-44850890D01*
X62074629Y-44861536D01*
X62010782Y-44833159D01*
X61972411Y-44774768D01*
X61967027Y-44738432D01*
X61968203Y-43999997D01*
X65044751Y-43999997D01*
X65044751Y-44000002D01*
X65063685Y-44168056D01*
X65119545Y-44327694D01*
X65119547Y-44327697D01*
X65209518Y-44470884D01*
X65209523Y-44470890D01*
X65329109Y-44590476D01*
X65329115Y-44590481D01*
X65472302Y-44680452D01*
X65472305Y-44680454D01*
X65472309Y-44680455D01*
X65472310Y-44680456D01*
X65544913Y-44705860D01*
X65631943Y-44736314D01*
X65799997Y-44755249D01*
X65800000Y-44755249D01*
X65800003Y-44755249D01*
X65968056Y-44736314D01*
X65968059Y-44736313D01*
X66127690Y-44680456D01*
X66127692Y-44680454D01*
X66127694Y-44680454D01*
X66127697Y-44680452D01*
X66270884Y-44590481D01*
X66270885Y-44590480D01*
X66270890Y-44590477D01*
X66390477Y-44470890D01*
X66480452Y-44327697D01*
X66480454Y-44327694D01*
X66480454Y-44327692D01*
X66480456Y-44327690D01*
X66536313Y-44168059D01*
X66536313Y-44168058D01*
X66536314Y-44168056D01*
X66555249Y-44000002D01*
X66555249Y-43999997D01*
X66536314Y-43831943D01*
X66483306Y-43680456D01*
X66480456Y-43672310D01*
X66480455Y-43672309D01*
X66480454Y-43672305D01*
X66480452Y-43672302D01*
X66390481Y-43529115D01*
X66390476Y-43529109D01*
X66270890Y-43409523D01*
X66270884Y-43409518D01*
X66127697Y-43319547D01*
X66127694Y-43319545D01*
X65968056Y-43263685D01*
X65800003Y-43244751D01*
X65799997Y-43244751D01*
X65631943Y-43263685D01*
X65472305Y-43319545D01*
X65472302Y-43319547D01*
X65329115Y-43409518D01*
X65329109Y-43409523D01*
X65209523Y-43529109D01*
X65209518Y-43529115D01*
X65119547Y-43672302D01*
X65119545Y-43672305D01*
X65063685Y-43831943D01*
X65044751Y-43999997D01*
X61968203Y-43999997D01*
X61970432Y-42599997D01*
X75644751Y-42599997D01*
X75644751Y-42600002D01*
X75663685Y-42768056D01*
X75719545Y-42927694D01*
X75719547Y-42927697D01*
X75809518Y-43070884D01*
X75809523Y-43070890D01*
X75929109Y-43190476D01*
X75929115Y-43190481D01*
X76072302Y-43280452D01*
X76072305Y-43280454D01*
X76072309Y-43280455D01*
X76072310Y-43280456D01*
X76144913Y-43305860D01*
X76231943Y-43336314D01*
X76399997Y-43355249D01*
X76400000Y-43355249D01*
X76400003Y-43355249D01*
X76568056Y-43336314D01*
X76592682Y-43327697D01*
X76727690Y-43280456D01*
X76727692Y-43280454D01*
X76727694Y-43280454D01*
X76727697Y-43280452D01*
X76855739Y-43199997D01*
X78088512Y-43199997D01*
X78088512Y-43200002D01*
X78107446Y-43368056D01*
X78163306Y-43527694D01*
X78163308Y-43527697D01*
X78253279Y-43670884D01*
X78253284Y-43670890D01*
X78372870Y-43790476D01*
X78372876Y-43790481D01*
X78516063Y-43880452D01*
X78516066Y-43880454D01*
X78516070Y-43880455D01*
X78516071Y-43880456D01*
X78588674Y-43905860D01*
X78675704Y-43936314D01*
X78843758Y-43955249D01*
X78843761Y-43955249D01*
X78843764Y-43955249D01*
X79011817Y-43936314D01*
X79011820Y-43936313D01*
X79171451Y-43880456D01*
X79171453Y-43880454D01*
X79171455Y-43880454D01*
X79171458Y-43880452D01*
X79314645Y-43790481D01*
X79314646Y-43790480D01*
X79314651Y-43790477D01*
X79434238Y-43670890D01*
X79523325Y-43529110D01*
X79524213Y-43527697D01*
X79524215Y-43527694D01*
X79524215Y-43527692D01*
X79524217Y-43527690D01*
X79580074Y-43368059D01*
X79580074Y-43368058D01*
X79580075Y-43368056D01*
X79599010Y-43200002D01*
X79599010Y-43199997D01*
X79580075Y-43031943D01*
X79568897Y-42999997D01*
X90444751Y-42999997D01*
X90444751Y-43000002D01*
X90463685Y-43168056D01*
X90519545Y-43327694D01*
X90519547Y-43327697D01*
X90609518Y-43470884D01*
X90609523Y-43470890D01*
X90729109Y-43590476D01*
X90729115Y-43590481D01*
X90872302Y-43680452D01*
X90872305Y-43680454D01*
X90872309Y-43680455D01*
X90872310Y-43680456D01*
X90944913Y-43705860D01*
X91031943Y-43736314D01*
X91199997Y-43755249D01*
X91200000Y-43755249D01*
X91200003Y-43755249D01*
X91368056Y-43736314D01*
X91368059Y-43736313D01*
X91527690Y-43680456D01*
X91527692Y-43680454D01*
X91527694Y-43680454D01*
X91527697Y-43680452D01*
X91670884Y-43590481D01*
X91670885Y-43590480D01*
X91670890Y-43590477D01*
X91790477Y-43470890D01*
X91829040Y-43409518D01*
X91880452Y-43327697D01*
X91880454Y-43327694D01*
X91880454Y-43327692D01*
X91880456Y-43327690D01*
X91936313Y-43168059D01*
X91936313Y-43168058D01*
X91936314Y-43168056D01*
X91955249Y-43000002D01*
X91955249Y-42999997D01*
X91936314Y-42831943D01*
X91883306Y-42680456D01*
X91880456Y-42672310D01*
X91880455Y-42672309D01*
X91880454Y-42672305D01*
X91880452Y-42672302D01*
X91790481Y-42529115D01*
X91790476Y-42529109D01*
X91670890Y-42409523D01*
X91670884Y-42409518D01*
X91527697Y-42319547D01*
X91527694Y-42319545D01*
X91368056Y-42263685D01*
X91200003Y-42244751D01*
X91199997Y-42244751D01*
X91031943Y-42263685D01*
X90872305Y-42319545D01*
X90872302Y-42319547D01*
X90729115Y-42409518D01*
X90729109Y-42409523D01*
X90609523Y-42529109D01*
X90609518Y-42529115D01*
X90519547Y-42672302D01*
X90519545Y-42672305D01*
X90463685Y-42831943D01*
X90444751Y-42999997D01*
X79568897Y-42999997D01*
X79524215Y-42872305D01*
X79524213Y-42872302D01*
X79434242Y-42729115D01*
X79434237Y-42729109D01*
X79314651Y-42609523D01*
X79314645Y-42609518D01*
X79171458Y-42519547D01*
X79171455Y-42519545D01*
X79011817Y-42463685D01*
X78843764Y-42444751D01*
X78843758Y-42444751D01*
X78675704Y-42463685D01*
X78516066Y-42519545D01*
X78516063Y-42519547D01*
X78372876Y-42609518D01*
X78372870Y-42609523D01*
X78253284Y-42729109D01*
X78253279Y-42729115D01*
X78163308Y-42872302D01*
X78163306Y-42872305D01*
X78107446Y-43031943D01*
X78088512Y-43199997D01*
X76855739Y-43199997D01*
X76870884Y-43190481D01*
X76870885Y-43190480D01*
X76870890Y-43190477D01*
X76990477Y-43070890D01*
X77014949Y-43031943D01*
X77080452Y-42927697D01*
X77080454Y-42927694D01*
X77080454Y-42927692D01*
X77080456Y-42927690D01*
X77136313Y-42768059D01*
X77136313Y-42768058D01*
X77136314Y-42768056D01*
X77155249Y-42600002D01*
X77155249Y-42599997D01*
X77136314Y-42431943D01*
X77080454Y-42272305D01*
X77080452Y-42272302D01*
X76990481Y-42129115D01*
X76990476Y-42129109D01*
X76870890Y-42009523D01*
X76870884Y-42009518D01*
X76727697Y-41919547D01*
X76727694Y-41919545D01*
X76568056Y-41863685D01*
X76400003Y-41844751D01*
X76399997Y-41844751D01*
X76231943Y-41863685D01*
X76072305Y-41919545D01*
X76072302Y-41919547D01*
X75929115Y-42009518D01*
X75929109Y-42009523D01*
X75809523Y-42129109D01*
X75809518Y-42129115D01*
X75719547Y-42272302D01*
X75719545Y-42272305D01*
X75663685Y-42431943D01*
X75644751Y-42599997D01*
X61970432Y-42599997D01*
X61972342Y-41399997D01*
X91644751Y-41399997D01*
X91644751Y-41400002D01*
X91663685Y-41568056D01*
X91719545Y-41727694D01*
X91719547Y-41727697D01*
X91809518Y-41870884D01*
X91809523Y-41870890D01*
X91929109Y-41990476D01*
X91929115Y-41990481D01*
X92072302Y-42080452D01*
X92072305Y-42080454D01*
X92072309Y-42080455D01*
X92072310Y-42080456D01*
X92144913Y-42105860D01*
X92231943Y-42136314D01*
X92399997Y-42155249D01*
X92400000Y-42155249D01*
X92400003Y-42155249D01*
X92568056Y-42136314D01*
X92568059Y-42136313D01*
X92727690Y-42080456D01*
X92727692Y-42080454D01*
X92727694Y-42080454D01*
X92727697Y-42080452D01*
X92855739Y-41999997D01*
X97244751Y-41999997D01*
X97244751Y-42000002D01*
X97263685Y-42168056D01*
X97319545Y-42327694D01*
X97319547Y-42327697D01*
X97409518Y-42470884D01*
X97409523Y-42470890D01*
X97529109Y-42590476D01*
X97529115Y-42590481D01*
X97672302Y-42680452D01*
X97672305Y-42680454D01*
X97672309Y-42680455D01*
X97672310Y-42680456D01*
X97744913Y-42705860D01*
X97831943Y-42736314D01*
X97999997Y-42755249D01*
X98000000Y-42755249D01*
X98000003Y-42755249D01*
X98168056Y-42736314D01*
X98168059Y-42736313D01*
X98327690Y-42680456D01*
X98327692Y-42680454D01*
X98327694Y-42680454D01*
X98327697Y-42680452D01*
X98470884Y-42590481D01*
X98470885Y-42590480D01*
X98470890Y-42590477D01*
X98590477Y-42470890D01*
X98595004Y-42463685D01*
X98680452Y-42327697D01*
X98680454Y-42327694D01*
X98680454Y-42327692D01*
X98680456Y-42327690D01*
X98736313Y-42168059D01*
X98736313Y-42168058D01*
X98736314Y-42168056D01*
X98755249Y-42000002D01*
X98755249Y-41999996D01*
X98745426Y-41912814D01*
X98757480Y-41843993D01*
X98804830Y-41792613D01*
X98872440Y-41774989D01*
X98934617Y-41793937D01*
X99072307Y-41880454D01*
X99072305Y-41880454D01*
X99072309Y-41880455D01*
X99072310Y-41880456D01*
X99144913Y-41905860D01*
X99231943Y-41936314D01*
X99399997Y-41955249D01*
X99400000Y-41955249D01*
X99400003Y-41955249D01*
X99568056Y-41936314D01*
X99568059Y-41936313D01*
X99727690Y-41880456D01*
X99727692Y-41880454D01*
X99727694Y-41880454D01*
X99727697Y-41880452D01*
X99870884Y-41790481D01*
X99870885Y-41790480D01*
X99870890Y-41790477D01*
X99990477Y-41670890D01*
X99990481Y-41670884D01*
X100080452Y-41527697D01*
X100080454Y-41527694D01*
X100080454Y-41527692D01*
X100080456Y-41527690D01*
X100136313Y-41368059D01*
X100136313Y-41368058D01*
X100136314Y-41368056D01*
X100155249Y-41200002D01*
X100155249Y-41199997D01*
X100136314Y-41031943D01*
X100080454Y-40872305D01*
X100080452Y-40872302D01*
X99990481Y-40729115D01*
X99990476Y-40729109D01*
X99870890Y-40609523D01*
X99870884Y-40609518D01*
X99727697Y-40519547D01*
X99727694Y-40519545D01*
X99568056Y-40463685D01*
X99400003Y-40444751D01*
X99399997Y-40444751D01*
X99231943Y-40463685D01*
X99072305Y-40519545D01*
X99072302Y-40519547D01*
X98929115Y-40609518D01*
X98929109Y-40609523D01*
X98809523Y-40729109D01*
X98809518Y-40729115D01*
X98719547Y-40872302D01*
X98719545Y-40872305D01*
X98663685Y-41031943D01*
X98644751Y-41199997D01*
X98644751Y-41200005D01*
X98654573Y-41287186D01*
X98642518Y-41356007D01*
X98595168Y-41407386D01*
X98527558Y-41425010D01*
X98465380Y-41406061D01*
X98455729Y-41399997D01*
X98327692Y-41319545D01*
X98327694Y-41319545D01*
X98168056Y-41263685D01*
X98000003Y-41244751D01*
X97999997Y-41244751D01*
X97831943Y-41263685D01*
X97672305Y-41319545D01*
X97672302Y-41319547D01*
X97529115Y-41409518D01*
X97529109Y-41409523D01*
X97409523Y-41529109D01*
X97409518Y-41529115D01*
X97319547Y-41672302D01*
X97319545Y-41672305D01*
X97263685Y-41831943D01*
X97244751Y-41999997D01*
X92855739Y-41999997D01*
X92870884Y-41990481D01*
X92870885Y-41990480D01*
X92870890Y-41990477D01*
X92990477Y-41870890D01*
X92995004Y-41863685D01*
X93080452Y-41727697D01*
X93080454Y-41727694D01*
X93080454Y-41727692D01*
X93080456Y-41727690D01*
X93136313Y-41568059D01*
X93136313Y-41568058D01*
X93136314Y-41568056D01*
X93155249Y-41400002D01*
X93155249Y-41399997D01*
X93136314Y-41231943D01*
X93125136Y-41199997D01*
X93644751Y-41199997D01*
X93644751Y-41200002D01*
X93663685Y-41368056D01*
X93719545Y-41527694D01*
X93719547Y-41527697D01*
X93809518Y-41670884D01*
X93809523Y-41670890D01*
X93929109Y-41790476D01*
X93929115Y-41790481D01*
X94072302Y-41880452D01*
X94072305Y-41880454D01*
X94072309Y-41880455D01*
X94072310Y-41880456D01*
X94144913Y-41905860D01*
X94231943Y-41936314D01*
X94399997Y-41955249D01*
X94400000Y-41955249D01*
X94400003Y-41955249D01*
X94568056Y-41936314D01*
X94568059Y-41936313D01*
X94727690Y-41880456D01*
X94727692Y-41880454D01*
X94727694Y-41880454D01*
X94727697Y-41880452D01*
X94870884Y-41790481D01*
X94870885Y-41790480D01*
X94870890Y-41790477D01*
X94990477Y-41670890D01*
X94990481Y-41670884D01*
X95080452Y-41527697D01*
X95080454Y-41527694D01*
X95080454Y-41527692D01*
X95080456Y-41527690D01*
X95136313Y-41368059D01*
X95136313Y-41368058D01*
X95136314Y-41368056D01*
X95155249Y-41200002D01*
X95155249Y-41199997D01*
X95136314Y-41031943D01*
X95080454Y-40872305D01*
X95080452Y-40872302D01*
X94990481Y-40729115D01*
X94990476Y-40729109D01*
X94870890Y-40609523D01*
X94870884Y-40609518D01*
X94727697Y-40519547D01*
X94727694Y-40519545D01*
X94568056Y-40463685D01*
X94400003Y-40444751D01*
X94399997Y-40444751D01*
X94231943Y-40463685D01*
X94072305Y-40519545D01*
X94072302Y-40519547D01*
X93929115Y-40609518D01*
X93929109Y-40609523D01*
X93809523Y-40729109D01*
X93809518Y-40729115D01*
X93719547Y-40872302D01*
X93719545Y-40872305D01*
X93663685Y-41031943D01*
X93644751Y-41199997D01*
X93125136Y-41199997D01*
X93080454Y-41072305D01*
X93080452Y-41072302D01*
X92990481Y-40929115D01*
X92990476Y-40929109D01*
X92870890Y-40809523D01*
X92870884Y-40809518D01*
X92727697Y-40719547D01*
X92727694Y-40719545D01*
X92568056Y-40663685D01*
X92400003Y-40644751D01*
X92399997Y-40644751D01*
X92231943Y-40663685D01*
X92072305Y-40719545D01*
X92072302Y-40719547D01*
X91929115Y-40809518D01*
X91929109Y-40809523D01*
X91809523Y-40929109D01*
X91809518Y-40929115D01*
X91719547Y-41072302D01*
X91719545Y-41072305D01*
X91663685Y-41231943D01*
X91644751Y-41399997D01*
X61972342Y-41399997D01*
X61973401Y-40734488D01*
X61974016Y-40722354D01*
X61981777Y-40644751D01*
X61991683Y-40545677D01*
X61996452Y-40521876D01*
X62046431Y-40357879D01*
X62055750Y-40335460D01*
X62136733Y-40184349D01*
X62150240Y-40164180D01*
X62259120Y-40031753D01*
X62276301Y-40014598D01*
X62408906Y-39905926D01*
X62429092Y-39892456D01*
X62580340Y-39811709D01*
X62602761Y-39802432D01*
X62766842Y-39752712D01*
X62790648Y-39747982D01*
X62967352Y-39730596D01*
X62979494Y-39730000D01*
X66399997Y-39730000D01*
X66400000Y-39730000D01*
X67400000Y-39730000D01*
X67400000Y-37599997D01*
X75644751Y-37599997D01*
X75644751Y-37600002D01*
X75663685Y-37768056D01*
X75719545Y-37927694D01*
X75719547Y-37927697D01*
X75809518Y-38070884D01*
X75809523Y-38070890D01*
X75929109Y-38190476D01*
X75929115Y-38190481D01*
X76072302Y-38280452D01*
X76072305Y-38280454D01*
X76072309Y-38280455D01*
X76072310Y-38280456D01*
X76144913Y-38305860D01*
X76231943Y-38336314D01*
X76399997Y-38355249D01*
X76400000Y-38355249D01*
X76400003Y-38355249D01*
X76568056Y-38336314D01*
X76626996Y-38315690D01*
X76727690Y-38280456D01*
X76727692Y-38280454D01*
X76727694Y-38280454D01*
X76727697Y-38280452D01*
X76870884Y-38190481D01*
X76870885Y-38190480D01*
X76870890Y-38190477D01*
X76990477Y-38070890D01*
X76990481Y-38070884D01*
X77080452Y-37927697D01*
X77080454Y-37927694D01*
X77080454Y-37927692D01*
X77080456Y-37927690D01*
X77136313Y-37768059D01*
X77136313Y-37768058D01*
X77136314Y-37768056D01*
X77155249Y-37600002D01*
X77155249Y-37599997D01*
X77136314Y-37431943D01*
X77080454Y-37272305D01*
X77080452Y-37272302D01*
X76990481Y-37129115D01*
X76990476Y-37129109D01*
X76870890Y-37009523D01*
X76870884Y-37009518D01*
X76727697Y-36919547D01*
X76727694Y-36919545D01*
X76568056Y-36863685D01*
X76400003Y-36844751D01*
X76399997Y-36844751D01*
X76231943Y-36863685D01*
X76072305Y-36919545D01*
X76072302Y-36919547D01*
X75929115Y-37009518D01*
X75929109Y-37009523D01*
X75809523Y-37129109D01*
X75809518Y-37129115D01*
X75719547Y-37272302D01*
X75719545Y-37272305D01*
X75663685Y-37431943D01*
X75644751Y-37599997D01*
X67400000Y-37599997D01*
X67400000Y-33799997D01*
X71844751Y-33799997D01*
X71844751Y-33800002D01*
X71863685Y-33968056D01*
X71919545Y-34127694D01*
X71919547Y-34127697D01*
X72009518Y-34270884D01*
X72009523Y-34270890D01*
X72129109Y-34390476D01*
X72129115Y-34390481D01*
X72272302Y-34480452D01*
X72272305Y-34480454D01*
X72272309Y-34480455D01*
X72272310Y-34480456D01*
X72344913Y-34505860D01*
X72431943Y-34536314D01*
X72599997Y-34555249D01*
X72600000Y-34555249D01*
X72600003Y-34555249D01*
X72768056Y-34536314D01*
X72768059Y-34536313D01*
X72927690Y-34480456D01*
X72927692Y-34480454D01*
X72927694Y-34480454D01*
X72927697Y-34480452D01*
X73070884Y-34390481D01*
X73070885Y-34390480D01*
X73070890Y-34390477D01*
X73190477Y-34270890D01*
X73280452Y-34127697D01*
X73280454Y-34127694D01*
X73280454Y-34127692D01*
X73280456Y-34127690D01*
X73336313Y-33968059D01*
X73336313Y-33968058D01*
X73336314Y-33968056D01*
X73355249Y-33800002D01*
X73355249Y-33799997D01*
X73336314Y-33631943D01*
X73305860Y-33544913D01*
X73280456Y-33472310D01*
X73280455Y-33472309D01*
X73280454Y-33472305D01*
X73280452Y-33472302D01*
X73190481Y-33329115D01*
X73190476Y-33329109D01*
X73070890Y-33209523D01*
X73070884Y-33209518D01*
X72927697Y-33119547D01*
X72927694Y-33119545D01*
X72768056Y-33063685D01*
X72600003Y-33044751D01*
X72599997Y-33044751D01*
X72431943Y-33063685D01*
X72272305Y-33119545D01*
X72272302Y-33119547D01*
X72129115Y-33209518D01*
X72129109Y-33209523D01*
X72009523Y-33329109D01*
X72009518Y-33329115D01*
X71919547Y-33472302D01*
X71919545Y-33472305D01*
X71863685Y-33631943D01*
X71844751Y-33799997D01*
X67400000Y-33799997D01*
X67400000Y-31799997D01*
X70644751Y-31799997D01*
X70644751Y-31800002D01*
X70663685Y-31968056D01*
X70719545Y-32127694D01*
X70719547Y-32127697D01*
X70809518Y-32270884D01*
X70809523Y-32270890D01*
X70929109Y-32390476D01*
X70929115Y-32390481D01*
X71072302Y-32480452D01*
X71072305Y-32480454D01*
X71072309Y-32480455D01*
X71072310Y-32480456D01*
X71144913Y-32505860D01*
X71231943Y-32536314D01*
X71399997Y-32555249D01*
X71400000Y-32555249D01*
X71400003Y-32555249D01*
X71568056Y-32536314D01*
X71568059Y-32536313D01*
X71727690Y-32480456D01*
X71727692Y-32480454D01*
X71727694Y-32480454D01*
X71727697Y-32480452D01*
X71870884Y-32390481D01*
X71870885Y-32390480D01*
X71870890Y-32390477D01*
X71990477Y-32270890D01*
X72080452Y-32127697D01*
X72080454Y-32127694D01*
X72080454Y-32127692D01*
X72080456Y-32127690D01*
X72136313Y-31968059D01*
X72136313Y-31968058D01*
X72136314Y-31968056D01*
X72155249Y-31800002D01*
X72155249Y-31799997D01*
X72150815Y-31760645D01*
X90074500Y-31760645D01*
X90074500Y-33039363D01*
X90089953Y-33156753D01*
X90089956Y-33156762D01*
X90150464Y-33302841D01*
X90246718Y-33428282D01*
X90372159Y-33524536D01*
X90518238Y-33585044D01*
X90635639Y-33600500D01*
X90664584Y-33600499D01*
X90731621Y-33620182D01*
X90777378Y-33672984D01*
X90787323Y-33742142D01*
X90758300Y-33805699D01*
X90720881Y-33834983D01*
X90645803Y-33873238D01*
X90569364Y-33928775D01*
X90492927Y-33984310D01*
X90492925Y-33984312D01*
X90492924Y-33984312D01*
X90359312Y-34117924D01*
X90359312Y-34117925D01*
X90359310Y-34117927D01*
X90352217Y-34127690D01*
X90248240Y-34270800D01*
X90162454Y-34439163D01*
X90104059Y-34618881D01*
X90074500Y-34805513D01*
X90074500Y-34994486D01*
X90104059Y-35181118D01*
X90162454Y-35360836D01*
X90248240Y-35529199D01*
X90359310Y-35682073D01*
X90492927Y-35815690D01*
X90645801Y-35926760D01*
X90725347Y-35967290D01*
X90814163Y-36012545D01*
X90814165Y-36012545D01*
X90814168Y-36012547D01*
X90874251Y-36032069D01*
X90931926Y-36071507D01*
X90959124Y-36135866D01*
X90947209Y-36204712D01*
X90899965Y-36256188D01*
X90874253Y-36267930D01*
X90855756Y-36273939D01*
X90814163Y-36287454D01*
X90645800Y-36373240D01*
X90558579Y-36436610D01*
X90492927Y-36484310D01*
X90492925Y-36484312D01*
X90492924Y-36484312D01*
X90359312Y-36617924D01*
X90359312Y-36617925D01*
X90359310Y-36617927D01*
X90311610Y-36683579D01*
X90248240Y-36770800D01*
X90162454Y-36939163D01*
X90104059Y-37118881D01*
X90074500Y-37305513D01*
X90074500Y-37494486D01*
X90104059Y-37681118D01*
X90162454Y-37860836D01*
X90196522Y-37927697D01*
X90248240Y-38029199D01*
X90359310Y-38182073D01*
X90492927Y-38315690D01*
X90645801Y-38426760D01*
X90725347Y-38467290D01*
X90814163Y-38512545D01*
X90814165Y-38512545D01*
X90814168Y-38512547D01*
X90910497Y-38543846D01*
X90993881Y-38570940D01*
X91180514Y-38600500D01*
X91180519Y-38600500D01*
X91619486Y-38600500D01*
X91806118Y-38570940D01*
X91985832Y-38512547D01*
X92154199Y-38426760D01*
X92307073Y-38315690D01*
X92440690Y-38182073D01*
X92551760Y-38029199D01*
X92637547Y-37860832D01*
X92695940Y-37681118D01*
X92725500Y-37494486D01*
X92725500Y-37305513D01*
X92695940Y-37118881D01*
X92637545Y-36939163D01*
X92551759Y-36770800D01*
X92440690Y-36617927D01*
X92307073Y-36484310D01*
X92154199Y-36373240D01*
X91985832Y-36287453D01*
X91925748Y-36267930D01*
X91868073Y-36228493D01*
X91840875Y-36164135D01*
X91852790Y-36095288D01*
X91900034Y-36043813D01*
X91925746Y-36032069D01*
X91985832Y-36012547D01*
X92154199Y-35926760D01*
X92307073Y-35815690D01*
X92440690Y-35682073D01*
X92551760Y-35529199D01*
X92637547Y-35360832D01*
X92695940Y-35181118D01*
X92725500Y-34994486D01*
X92725500Y-34805513D01*
X92695940Y-34618881D01*
X92637545Y-34439163D01*
X92551759Y-34270800D01*
X92440690Y-34117927D01*
X92307073Y-33984310D01*
X92154199Y-33873240D01*
X92079116Y-33834983D01*
X92028321Y-33787009D01*
X92011526Y-33719189D01*
X92034063Y-33653054D01*
X92088778Y-33609602D01*
X92135411Y-33600499D01*
X92164360Y-33600499D01*
X92164363Y-33600499D01*
X92281753Y-33585046D01*
X92281757Y-33585044D01*
X92281762Y-33585044D01*
X92427841Y-33524536D01*
X92553282Y-33428282D01*
X92649536Y-33302841D01*
X92710044Y-33156762D01*
X92725500Y-33039361D01*
X92725499Y-31760645D01*
X97074500Y-31760645D01*
X97074500Y-33039363D01*
X97089953Y-33156753D01*
X97089956Y-33156762D01*
X97150464Y-33302841D01*
X97246718Y-33428282D01*
X97372159Y-33524536D01*
X97518238Y-33585044D01*
X97635639Y-33600500D01*
X97664584Y-33600499D01*
X97731621Y-33620182D01*
X97777378Y-33672984D01*
X97787323Y-33742142D01*
X97758300Y-33805699D01*
X97720881Y-33834983D01*
X97645803Y-33873238D01*
X97569364Y-33928775D01*
X97492927Y-33984310D01*
X97492925Y-33984312D01*
X97492924Y-33984312D01*
X97359312Y-34117924D01*
X97359312Y-34117925D01*
X97359310Y-34117927D01*
X97352217Y-34127690D01*
X97248240Y-34270800D01*
X97162454Y-34439163D01*
X97104059Y-34618881D01*
X97074500Y-34805513D01*
X97074500Y-34994486D01*
X97104059Y-35181118D01*
X97162454Y-35360836D01*
X97248240Y-35529199D01*
X97359310Y-35682073D01*
X97492927Y-35815690D01*
X97645801Y-35926760D01*
X97725347Y-35967290D01*
X97814163Y-36012545D01*
X97814165Y-36012545D01*
X97814168Y-36012547D01*
X97874251Y-36032069D01*
X97931926Y-36071507D01*
X97959124Y-36135866D01*
X97947209Y-36204712D01*
X97899965Y-36256188D01*
X97874253Y-36267930D01*
X97855756Y-36273939D01*
X97814163Y-36287454D01*
X97645800Y-36373240D01*
X97558579Y-36436610D01*
X97492927Y-36484310D01*
X97492925Y-36484312D01*
X97492924Y-36484312D01*
X97359312Y-36617924D01*
X97359312Y-36617925D01*
X97359310Y-36617927D01*
X97311610Y-36683579D01*
X97248240Y-36770800D01*
X97162454Y-36939163D01*
X97104059Y-37118881D01*
X97074500Y-37305513D01*
X97074500Y-37494486D01*
X97104059Y-37681118D01*
X97162454Y-37860836D01*
X97196522Y-37927697D01*
X97248240Y-38029199D01*
X97359310Y-38182073D01*
X97492927Y-38315690D01*
X97645801Y-38426760D01*
X97725347Y-38467290D01*
X97814163Y-38512545D01*
X97814165Y-38512545D01*
X97814168Y-38512547D01*
X97910497Y-38543846D01*
X97993881Y-38570940D01*
X98180514Y-38600500D01*
X98180519Y-38600500D01*
X98619486Y-38600500D01*
X98806118Y-38570940D01*
X98985832Y-38512547D01*
X99154199Y-38426760D01*
X99307073Y-38315690D01*
X99440690Y-38182073D01*
X99551760Y-38029199D01*
X99637547Y-37860832D01*
X99695940Y-37681118D01*
X99725500Y-37494486D01*
X99725500Y-37305513D01*
X99695940Y-37118881D01*
X99637545Y-36939163D01*
X99551759Y-36770800D01*
X99440690Y-36617927D01*
X99307073Y-36484310D01*
X99154199Y-36373240D01*
X98985832Y-36287453D01*
X98925748Y-36267930D01*
X98868073Y-36228493D01*
X98840875Y-36164135D01*
X98852790Y-36095288D01*
X98900034Y-36043813D01*
X98925746Y-36032069D01*
X98985832Y-36012547D01*
X99154199Y-35926760D01*
X99307073Y-35815690D01*
X99440690Y-35682073D01*
X99551760Y-35529199D01*
X99637547Y-35360832D01*
X99695940Y-35181118D01*
X99725500Y-34994486D01*
X99725500Y-34805513D01*
X99695940Y-34618881D01*
X99637545Y-34439163D01*
X99551759Y-34270800D01*
X99440690Y-34117927D01*
X99307073Y-33984310D01*
X99154199Y-33873240D01*
X99079116Y-33834983D01*
X99028321Y-33787009D01*
X99011526Y-33719189D01*
X99034063Y-33653054D01*
X99088778Y-33609602D01*
X99135411Y-33600499D01*
X99164360Y-33600499D01*
X99164363Y-33600499D01*
X99281753Y-33585046D01*
X99281757Y-33585044D01*
X99281762Y-33585044D01*
X99427841Y-33524536D01*
X99553282Y-33428282D01*
X99649536Y-33302841D01*
X99710044Y-33156762D01*
X99725500Y-33039361D01*
X99725499Y-31760640D01*
X99725499Y-31760639D01*
X99725499Y-31760636D01*
X99710046Y-31643246D01*
X99710044Y-31643239D01*
X99710044Y-31643238D01*
X99649536Y-31497159D01*
X99553282Y-31371718D01*
X99427841Y-31275464D01*
X99281762Y-31214956D01*
X99281760Y-31214955D01*
X99164370Y-31199501D01*
X99164367Y-31199500D01*
X99164361Y-31199500D01*
X99164354Y-31199500D01*
X97635636Y-31199500D01*
X97518246Y-31214953D01*
X97518237Y-31214956D01*
X97372160Y-31275463D01*
X97246718Y-31371718D01*
X97150463Y-31497160D01*
X97089956Y-31643237D01*
X97089955Y-31643239D01*
X97074501Y-31760629D01*
X97074501Y-31760636D01*
X97074500Y-31760645D01*
X92725499Y-31760645D01*
X92725499Y-31760640D01*
X92725499Y-31760639D01*
X92725499Y-31760636D01*
X92710046Y-31643246D01*
X92710044Y-31643239D01*
X92710044Y-31643238D01*
X92649536Y-31497159D01*
X92553282Y-31371718D01*
X92427841Y-31275464D01*
X92281762Y-31214956D01*
X92281760Y-31214955D01*
X92164370Y-31199501D01*
X92164367Y-31199500D01*
X92164361Y-31199500D01*
X92164354Y-31199500D01*
X90635636Y-31199500D01*
X90518246Y-31214953D01*
X90518237Y-31214956D01*
X90372160Y-31275463D01*
X90246718Y-31371718D01*
X90150463Y-31497160D01*
X90089956Y-31643237D01*
X90089955Y-31643239D01*
X90074501Y-31760629D01*
X90074501Y-31760636D01*
X90074500Y-31760645D01*
X72150815Y-31760645D01*
X72136314Y-31631943D01*
X72080454Y-31472305D01*
X72080452Y-31472302D01*
X71990481Y-31329115D01*
X71990476Y-31329109D01*
X71870890Y-31209523D01*
X71870884Y-31209518D01*
X71727697Y-31119547D01*
X71727694Y-31119545D01*
X71568056Y-31063685D01*
X71400003Y-31044751D01*
X71399997Y-31044751D01*
X71231943Y-31063685D01*
X71072305Y-31119545D01*
X71072302Y-31119547D01*
X70929115Y-31209518D01*
X70929109Y-31209523D01*
X70809523Y-31329109D01*
X70809518Y-31329115D01*
X70719547Y-31472302D01*
X70719545Y-31472305D01*
X70663685Y-31631943D01*
X70644751Y-31799997D01*
X67400000Y-31799997D01*
X67400000Y-30999997D01*
X77644751Y-30999997D01*
X77644751Y-31000002D01*
X77663685Y-31168056D01*
X77719545Y-31327694D01*
X77719547Y-31327697D01*
X77809518Y-31470884D01*
X77809523Y-31470890D01*
X77929109Y-31590476D01*
X77929115Y-31590481D01*
X78072302Y-31680452D01*
X78072305Y-31680454D01*
X78072309Y-31680455D01*
X78072310Y-31680456D01*
X78144913Y-31705860D01*
X78231943Y-31736314D01*
X78399997Y-31755249D01*
X78400000Y-31755249D01*
X78400003Y-31755249D01*
X78568056Y-31736314D01*
X78568059Y-31736313D01*
X78727690Y-31680456D01*
X78727692Y-31680454D01*
X78727694Y-31680454D01*
X78727697Y-31680452D01*
X78870884Y-31590481D01*
X78870885Y-31590480D01*
X78870890Y-31590477D01*
X78990477Y-31470890D01*
X78990481Y-31470884D01*
X79080452Y-31327697D01*
X79080454Y-31327694D01*
X79080454Y-31327692D01*
X79080456Y-31327690D01*
X79136313Y-31168059D01*
X79136313Y-31168058D01*
X79136314Y-31168056D01*
X79155249Y-31000002D01*
X79155249Y-30999997D01*
X79136314Y-30831943D01*
X79080454Y-30672305D01*
X79080452Y-30672302D01*
X78990481Y-30529115D01*
X78990476Y-30529109D01*
X78870890Y-30409523D01*
X78870884Y-30409518D01*
X78727697Y-30319547D01*
X78727694Y-30319545D01*
X78568056Y-30263685D01*
X78400003Y-30244751D01*
X78399997Y-30244751D01*
X78231943Y-30263685D01*
X78072305Y-30319545D01*
X78072302Y-30319547D01*
X77929115Y-30409518D01*
X77929109Y-30409523D01*
X77809523Y-30529109D01*
X77809518Y-30529115D01*
X77719547Y-30672302D01*
X77719545Y-30672305D01*
X77663685Y-30831943D01*
X77644751Y-30999997D01*
X67400000Y-30999997D01*
X67400000Y-24168926D01*
X67419685Y-24101887D01*
X67472489Y-24056132D01*
X67499800Y-24047310D01*
X67648082Y-24017816D01*
X67802863Y-23953703D01*
X67942162Y-23860626D01*
X68060626Y-23742162D01*
X68153703Y-23602863D01*
X68217816Y-23448082D01*
X68250500Y-23283767D01*
X68250500Y-23116233D01*
X68217816Y-22951918D01*
X68153703Y-22797137D01*
X68145132Y-22784310D01*
X68081302Y-22688780D01*
X68060424Y-22622103D01*
X68078909Y-22554723D01*
X68130888Y-22508033D01*
X68199858Y-22496857D01*
X68231854Y-22505328D01*
X68243238Y-22510044D01*
X68360639Y-22525500D01*
X69639360Y-22525499D01*
X69639363Y-22525499D01*
X69756753Y-22510046D01*
X69756757Y-22510044D01*
X69756762Y-22510044D01*
X69902841Y-22449536D01*
X70028282Y-22353282D01*
X70124536Y-22227841D01*
X70185044Y-22081762D01*
X70200500Y-21964361D01*
X70200499Y-21935414D01*
X70220182Y-21868378D01*
X70272984Y-21822621D01*
X70342142Y-21812676D01*
X70405699Y-21841699D01*
X70434983Y-21879118D01*
X70473238Y-21954196D01*
X70473240Y-21954199D01*
X70584310Y-22107073D01*
X70717927Y-22240690D01*
X70870801Y-22351760D01*
X70930508Y-22382182D01*
X71039163Y-22437545D01*
X71039165Y-22437545D01*
X71039168Y-22437547D01*
X71135497Y-22468846D01*
X71218881Y-22495940D01*
X71405514Y-22525500D01*
X71405519Y-22525500D01*
X71594486Y-22525500D01*
X71781118Y-22495940D01*
X71960832Y-22437547D01*
X72129199Y-22351760D01*
X72282073Y-22240690D01*
X72415690Y-22107073D01*
X72526760Y-21954199D01*
X72612547Y-21785832D01*
X72632069Y-21725748D01*
X72671507Y-21668073D01*
X72735865Y-21640875D01*
X72804712Y-21652790D01*
X72856187Y-21700034D01*
X72867930Y-21725746D01*
X72887453Y-21785832D01*
X72973240Y-21954199D01*
X73084310Y-22107073D01*
X73217927Y-22240690D01*
X73370801Y-22351760D01*
X73430508Y-22382182D01*
X73539163Y-22437545D01*
X73539165Y-22437545D01*
X73539168Y-22437547D01*
X73635497Y-22468846D01*
X73718881Y-22495940D01*
X73905514Y-22525500D01*
X73905519Y-22525500D01*
X74094486Y-22525500D01*
X74281118Y-22495940D01*
X74460832Y-22437547D01*
X74629199Y-22351760D01*
X74782073Y-22240690D01*
X74915690Y-22107073D01*
X75026760Y-21954199D01*
X75112547Y-21785832D01*
X75132069Y-21725748D01*
X75171507Y-21668073D01*
X75235865Y-21640875D01*
X75304712Y-21652790D01*
X75356187Y-21700034D01*
X75367930Y-21725746D01*
X75387453Y-21785832D01*
X75473240Y-21954199D01*
X75584310Y-22107073D01*
X75717927Y-22240690D01*
X75870801Y-22351760D01*
X75930508Y-22382182D01*
X76039163Y-22437545D01*
X76039165Y-22437545D01*
X76039168Y-22437547D01*
X76135497Y-22468846D01*
X76218881Y-22495940D01*
X76405514Y-22525500D01*
X76405519Y-22525500D01*
X76594486Y-22525500D01*
X76781118Y-22495940D01*
X76960832Y-22437547D01*
X77129199Y-22351760D01*
X77282073Y-22240690D01*
X77415690Y-22107073D01*
X77526760Y-21954199D01*
X77612547Y-21785832D01*
X77670940Y-21606118D01*
X77700500Y-21419486D01*
X77700500Y-20980513D01*
X77670940Y-20793881D01*
X77612545Y-20614163D01*
X77585276Y-20560645D01*
X83074500Y-20560645D01*
X83074500Y-21839363D01*
X83089953Y-21956753D01*
X83089956Y-21956762D01*
X83124170Y-22039363D01*
X83150464Y-22102841D01*
X83246718Y-22228282D01*
X83372159Y-22324536D01*
X83518238Y-22385044D01*
X83635639Y-22400500D01*
X83664584Y-22400499D01*
X83731621Y-22420182D01*
X83777378Y-22472984D01*
X83787323Y-22542142D01*
X83758300Y-22605699D01*
X83720881Y-22634983D01*
X83645803Y-22673238D01*
X83624412Y-22688780D01*
X83492927Y-22784310D01*
X83492925Y-22784312D01*
X83492924Y-22784312D01*
X83359312Y-22917924D01*
X83359312Y-22917925D01*
X83359310Y-22917927D01*
X83334615Y-22951917D01*
X83248240Y-23070800D01*
X83162454Y-23239163D01*
X83104059Y-23418881D01*
X83074500Y-23605513D01*
X83074500Y-23794486D01*
X83104059Y-23981118D01*
X83162454Y-24160836D01*
X83248240Y-24329199D01*
X83359310Y-24482073D01*
X83492927Y-24615690D01*
X83645801Y-24726760D01*
X83725347Y-24767290D01*
X83814163Y-24812545D01*
X83814165Y-24812545D01*
X83814168Y-24812547D01*
X83874251Y-24832069D01*
X83931926Y-24871507D01*
X83959124Y-24935866D01*
X83947209Y-25004712D01*
X83899965Y-25056188D01*
X83874253Y-25067930D01*
X83855756Y-25073939D01*
X83814163Y-25087454D01*
X83645800Y-25173240D01*
X83569752Y-25228493D01*
X83492927Y-25284310D01*
X83492925Y-25284312D01*
X83492924Y-25284312D01*
X83359312Y-25417924D01*
X83359312Y-25417925D01*
X83359310Y-25417927D01*
X83311610Y-25483579D01*
X83248240Y-25570800D01*
X83162454Y-25739163D01*
X83104059Y-25918881D01*
X83074500Y-26105513D01*
X83074500Y-26294486D01*
X83104059Y-26481118D01*
X83162454Y-26660836D01*
X83248240Y-26829199D01*
X83359310Y-26982073D01*
X83492927Y-27115690D01*
X83645801Y-27226760D01*
X83725347Y-27267290D01*
X83814163Y-27312545D01*
X83814165Y-27312545D01*
X83814168Y-27312547D01*
X83910497Y-27343846D01*
X83993881Y-27370940D01*
X84180514Y-27400500D01*
X84180519Y-27400500D01*
X84619486Y-27400500D01*
X84806118Y-27370940D01*
X84985832Y-27312547D01*
X85154199Y-27226760D01*
X85307073Y-27115690D01*
X85440690Y-26982073D01*
X85551760Y-26829199D01*
X85637547Y-26660832D01*
X85695940Y-26481118D01*
X85725500Y-26294486D01*
X85725500Y-26105513D01*
X85695940Y-25918881D01*
X85637545Y-25739163D01*
X85551759Y-25570800D01*
X85440690Y-25417927D01*
X85307073Y-25284310D01*
X85154199Y-25173240D01*
X84985832Y-25087453D01*
X84925748Y-25067930D01*
X84868073Y-25028493D01*
X84840875Y-24964135D01*
X84852790Y-24895288D01*
X84900034Y-24843813D01*
X84925746Y-24832069D01*
X84985832Y-24812547D01*
X85154199Y-24726760D01*
X85307073Y-24615690D01*
X85440690Y-24482073D01*
X85551760Y-24329199D01*
X85637547Y-24160832D01*
X85695940Y-23981118D01*
X85715024Y-23860626D01*
X85725500Y-23794486D01*
X85725500Y-23605513D01*
X85695940Y-23418881D01*
X85668699Y-23335044D01*
X85637547Y-23239168D01*
X85637545Y-23239165D01*
X85637545Y-23239163D01*
X85575770Y-23117924D01*
X85551760Y-23070801D01*
X85440690Y-22917927D01*
X85307073Y-22784310D01*
X85154199Y-22673240D01*
X85079116Y-22634983D01*
X85028321Y-22587009D01*
X85011526Y-22519189D01*
X85034063Y-22453054D01*
X85088778Y-22409602D01*
X85135411Y-22400499D01*
X85164360Y-22400499D01*
X85164363Y-22400499D01*
X85281753Y-22385046D01*
X85281757Y-22385044D01*
X85281762Y-22385044D01*
X85427841Y-22324536D01*
X85553282Y-22228282D01*
X85649536Y-22102841D01*
X85710044Y-21956762D01*
X85725500Y-21839361D01*
X85725499Y-20760645D01*
X90074500Y-20760645D01*
X90074500Y-22039363D01*
X90089953Y-22156753D01*
X90089956Y-22156762D01*
X90145222Y-22290187D01*
X90150464Y-22302841D01*
X90246718Y-22428282D01*
X90372159Y-22524536D01*
X90518238Y-22585044D01*
X90635639Y-22600500D01*
X90664584Y-22600499D01*
X90731621Y-22620182D01*
X90777378Y-22672984D01*
X90787323Y-22742142D01*
X90758300Y-22805699D01*
X90720881Y-22834983D01*
X90645803Y-22873238D01*
X90616861Y-22894266D01*
X90492927Y-22984310D01*
X90492925Y-22984312D01*
X90492924Y-22984312D01*
X90359312Y-23117924D01*
X90359312Y-23117925D01*
X90359310Y-23117927D01*
X90326401Y-23163222D01*
X90248240Y-23270800D01*
X90162454Y-23439163D01*
X90104059Y-23618881D01*
X90074500Y-23805513D01*
X90074500Y-23994486D01*
X90104059Y-24181118D01*
X90162454Y-24360836D01*
X90224229Y-24482075D01*
X90248240Y-24529199D01*
X90359310Y-24682073D01*
X90492927Y-24815690D01*
X90645801Y-24926760D01*
X90663673Y-24935866D01*
X90814163Y-25012545D01*
X90814165Y-25012545D01*
X90814168Y-25012547D01*
X90874251Y-25032069D01*
X90931926Y-25071507D01*
X90959124Y-25135866D01*
X90947209Y-25204712D01*
X90899965Y-25256188D01*
X90874253Y-25267930D01*
X90855756Y-25273939D01*
X90814163Y-25287454D01*
X90645800Y-25373240D01*
X90584295Y-25417927D01*
X90492927Y-25484310D01*
X90492925Y-25484312D01*
X90492924Y-25484312D01*
X90359312Y-25617924D01*
X90359312Y-25617925D01*
X90359310Y-25617927D01*
X90311610Y-25683579D01*
X90248240Y-25770800D01*
X90162454Y-25939163D01*
X90104059Y-26118881D01*
X90074500Y-26305513D01*
X90074500Y-26494486D01*
X90104059Y-26681118D01*
X90162454Y-26860836D01*
X90224229Y-26982075D01*
X90248240Y-27029199D01*
X90359310Y-27182073D01*
X90492927Y-27315690D01*
X90645801Y-27426760D01*
X90725347Y-27467290D01*
X90814163Y-27512545D01*
X90814165Y-27512545D01*
X90814168Y-27512547D01*
X90910497Y-27543846D01*
X90993881Y-27570940D01*
X91180514Y-27600500D01*
X91180519Y-27600500D01*
X91619486Y-27600500D01*
X91806118Y-27570940D01*
X91985832Y-27512547D01*
X92154199Y-27426760D01*
X92307073Y-27315690D01*
X92440690Y-27182073D01*
X92551760Y-27029199D01*
X92637547Y-26860832D01*
X92695940Y-26681118D01*
X92699153Y-26660832D01*
X92725500Y-26494486D01*
X92725500Y-26305513D01*
X92695940Y-26118881D01*
X92637545Y-25939163D01*
X92551759Y-25770800D01*
X92528777Y-25739168D01*
X92440690Y-25617927D01*
X92307073Y-25484310D01*
X92154199Y-25373240D01*
X91985832Y-25287453D01*
X91925748Y-25267930D01*
X91868073Y-25228493D01*
X91840875Y-25164135D01*
X91852790Y-25095288D01*
X91900034Y-25043813D01*
X91925746Y-25032069D01*
X91985832Y-25012547D01*
X92154199Y-24926760D01*
X92307073Y-24815690D01*
X92440690Y-24682073D01*
X92551760Y-24529199D01*
X92637547Y-24360832D01*
X92695940Y-24181118D01*
X92716628Y-24050500D01*
X92725500Y-23994486D01*
X92725500Y-23805513D01*
X92695940Y-23618881D01*
X92640443Y-23448082D01*
X92637547Y-23439168D01*
X92637545Y-23439165D01*
X92637545Y-23439163D01*
X92576236Y-23318838D01*
X92551760Y-23270801D01*
X92440690Y-23117927D01*
X92307073Y-22984310D01*
X92154199Y-22873240D01*
X92079116Y-22834983D01*
X92028321Y-22787009D01*
X92011526Y-22719189D01*
X92034063Y-22653054D01*
X92088778Y-22609602D01*
X92135411Y-22600499D01*
X92164360Y-22600499D01*
X92164363Y-22600499D01*
X92281753Y-22585046D01*
X92281757Y-22585044D01*
X92281762Y-22585044D01*
X92427841Y-22524536D01*
X92553282Y-22428282D01*
X92649536Y-22302841D01*
X92710044Y-22156762D01*
X92725500Y-22039361D01*
X92725499Y-21378711D01*
X96649500Y-21378711D01*
X96649500Y-21621288D01*
X96681161Y-21861785D01*
X96743947Y-22096104D01*
X96803837Y-22240690D01*
X96836776Y-22320212D01*
X96958064Y-22530289D01*
X96958066Y-22530292D01*
X96958067Y-22530293D01*
X97105733Y-22722736D01*
X97105739Y-22722743D01*
X97277256Y-22894260D01*
X97277262Y-22894265D01*
X97469711Y-23041936D01*
X97679788Y-23163224D01*
X97903900Y-23256054D01*
X98138211Y-23318838D01*
X98318586Y-23342584D01*
X98378711Y-23350500D01*
X98378712Y-23350500D01*
X98621289Y-23350500D01*
X98669388Y-23344167D01*
X98861789Y-23318838D01*
X99096100Y-23256054D01*
X99320212Y-23163224D01*
X99530289Y-23041936D01*
X99722738Y-22894265D01*
X99894265Y-22722738D01*
X100041936Y-22530289D01*
X100163224Y-22320212D01*
X100256054Y-22096100D01*
X100318838Y-21861789D01*
X100350500Y-21621288D01*
X100350500Y-21378712D01*
X100318838Y-21138211D01*
X100256054Y-20903900D01*
X100163224Y-20679788D01*
X100041936Y-20469711D01*
X99981018Y-20390321D01*
X99894266Y-20277263D01*
X99894260Y-20277256D01*
X99722743Y-20105739D01*
X99722736Y-20105733D01*
X99530293Y-19958067D01*
X99530292Y-19958066D01*
X99530289Y-19958064D01*
X99320212Y-19836776D01*
X99320205Y-19836773D01*
X99096104Y-19743947D01*
X98861785Y-19681161D01*
X98621289Y-19649500D01*
X98621288Y-19649500D01*
X98378712Y-19649500D01*
X98378711Y-19649500D01*
X98138214Y-19681161D01*
X97903895Y-19743947D01*
X97679794Y-19836773D01*
X97679785Y-19836777D01*
X97469706Y-19958067D01*
X97277263Y-20105733D01*
X97277256Y-20105739D01*
X97105739Y-20277256D01*
X97105733Y-20277263D01*
X96958067Y-20469706D01*
X96836777Y-20679785D01*
X96836773Y-20679794D01*
X96743947Y-20903895D01*
X96681161Y-21138214D01*
X96649500Y-21378711D01*
X92725499Y-21378711D01*
X92725499Y-20760640D01*
X92725499Y-20760639D01*
X92725499Y-20760636D01*
X92710046Y-20643246D01*
X92710044Y-20643239D01*
X92710044Y-20643238D01*
X92649536Y-20497159D01*
X92553282Y-20371718D01*
X92427841Y-20275464D01*
X92281762Y-20214956D01*
X92281760Y-20214955D01*
X92164370Y-20199501D01*
X92164367Y-20199500D01*
X92164361Y-20199500D01*
X92164354Y-20199500D01*
X90635636Y-20199500D01*
X90518246Y-20214953D01*
X90518237Y-20214956D01*
X90372160Y-20275463D01*
X90246718Y-20371718D01*
X90150463Y-20497160D01*
X90089956Y-20643237D01*
X90089955Y-20643239D01*
X90078280Y-20731926D01*
X90074501Y-20760636D01*
X90074500Y-20760645D01*
X85725499Y-20760645D01*
X85725499Y-20560640D01*
X85725499Y-20560639D01*
X85725499Y-20560636D01*
X85710046Y-20443246D01*
X85710044Y-20443239D01*
X85710044Y-20443238D01*
X85649536Y-20297159D01*
X85553282Y-20171718D01*
X85427841Y-20075464D01*
X85281762Y-20014956D01*
X85281760Y-20014955D01*
X85164370Y-19999501D01*
X85164367Y-19999500D01*
X85164361Y-19999500D01*
X85164354Y-19999500D01*
X83635636Y-19999500D01*
X83518246Y-20014953D01*
X83518237Y-20014956D01*
X83372160Y-20075463D01*
X83246718Y-20171718D01*
X83150463Y-20297160D01*
X83089956Y-20443237D01*
X83089955Y-20443239D01*
X83081006Y-20511220D01*
X83074501Y-20560636D01*
X83074500Y-20560645D01*
X77585276Y-20560645D01*
X77565016Y-20520882D01*
X77526760Y-20445801D01*
X77415690Y-20292927D01*
X77282073Y-20159310D01*
X77129199Y-20048240D01*
X77126212Y-20046718D01*
X76960836Y-19962454D01*
X76781118Y-19904059D01*
X76594486Y-19874500D01*
X76594481Y-19874500D01*
X76405519Y-19874500D01*
X76405514Y-19874500D01*
X76218881Y-19904059D01*
X76039163Y-19962454D01*
X75870800Y-20048240D01*
X75791669Y-20105733D01*
X75717927Y-20159310D01*
X75717925Y-20159312D01*
X75717924Y-20159312D01*
X75584312Y-20292924D01*
X75584312Y-20292925D01*
X75584310Y-20292927D01*
X75565920Y-20318239D01*
X75473240Y-20445800D01*
X75387454Y-20614163D01*
X75367931Y-20674251D01*
X75328493Y-20731926D01*
X75264134Y-20759124D01*
X75195288Y-20747209D01*
X75143812Y-20699965D01*
X75132069Y-20674251D01*
X75121995Y-20643246D01*
X75112547Y-20614168D01*
X75112545Y-20614165D01*
X75112545Y-20614163D01*
X75065016Y-20520882D01*
X75026760Y-20445801D01*
X74915690Y-20292927D01*
X74782073Y-20159310D01*
X74629199Y-20048240D01*
X74626212Y-20046718D01*
X74460836Y-19962454D01*
X74281118Y-19904059D01*
X74094486Y-19874500D01*
X74094481Y-19874500D01*
X73905519Y-19874500D01*
X73905514Y-19874500D01*
X73718881Y-19904059D01*
X73539163Y-19962454D01*
X73370800Y-20048240D01*
X73291669Y-20105733D01*
X73217927Y-20159310D01*
X73217925Y-20159312D01*
X73217924Y-20159312D01*
X73084312Y-20292924D01*
X73084312Y-20292925D01*
X73084310Y-20292927D01*
X73065920Y-20318239D01*
X72973240Y-20445800D01*
X72887454Y-20614163D01*
X72867931Y-20674251D01*
X72828493Y-20731926D01*
X72764134Y-20759124D01*
X72695288Y-20747209D01*
X72643812Y-20699965D01*
X72632069Y-20674251D01*
X72621995Y-20643246D01*
X72612547Y-20614168D01*
X72612545Y-20614165D01*
X72612545Y-20614163D01*
X72565016Y-20520882D01*
X72526760Y-20445801D01*
X72415690Y-20292927D01*
X72282073Y-20159310D01*
X72129199Y-20048240D01*
X72126212Y-20046718D01*
X71960836Y-19962454D01*
X71781118Y-19904059D01*
X71594486Y-19874500D01*
X71594481Y-19874500D01*
X71405519Y-19874500D01*
X71405514Y-19874500D01*
X71218881Y-19904059D01*
X71039163Y-19962454D01*
X70870800Y-20048240D01*
X70791669Y-20105733D01*
X70717927Y-20159310D01*
X70717925Y-20159312D01*
X70717924Y-20159312D01*
X70584312Y-20292924D01*
X70584312Y-20292925D01*
X70584310Y-20292927D01*
X70565920Y-20318239D01*
X70473240Y-20445800D01*
X70434984Y-20520882D01*
X70387009Y-20571678D01*
X70319188Y-20588473D01*
X70253053Y-20565935D01*
X70209602Y-20511220D01*
X70200499Y-20464587D01*
X70200499Y-20435636D01*
X70185046Y-20318246D01*
X70185044Y-20318239D01*
X70185044Y-20318238D01*
X70124536Y-20172159D01*
X70028282Y-20046718D01*
X69902841Y-19950464D01*
X69756762Y-19889956D01*
X69756760Y-19889955D01*
X69639370Y-19874501D01*
X69639367Y-19874500D01*
X69639361Y-19874500D01*
X69639354Y-19874500D01*
X68360636Y-19874500D01*
X68243246Y-19889953D01*
X68243237Y-19889956D01*
X68097160Y-19950463D01*
X67971718Y-20046718D01*
X67875463Y-20172160D01*
X67814956Y-20318237D01*
X67814955Y-20318239D01*
X67807915Y-20371718D01*
X67799501Y-20435636D01*
X67799500Y-20435645D01*
X67799500Y-21964363D01*
X67814953Y-22081753D01*
X67814956Y-22081762D01*
X67875465Y-22227843D01*
X67879528Y-22234881D01*
X67877552Y-22236021D01*
X67898494Y-22290187D01*
X67884457Y-22358632D01*
X67835644Y-22408623D01*
X67767553Y-22424288D01*
X67727471Y-22415068D01*
X67648082Y-22382184D01*
X67648074Y-22382182D01*
X67499809Y-22352690D01*
X67437898Y-22320305D01*
X67403324Y-22259589D01*
X67400000Y-22231073D01*
X67400000Y-20006092D01*
X67400597Y-19993938D01*
X67404879Y-19950463D01*
X67418018Y-19817056D01*
X67422757Y-19793232D01*
X67472577Y-19628994D01*
X67481875Y-19606549D01*
X67562775Y-19455195D01*
X67576272Y-19434995D01*
X67685149Y-19302328D01*
X67702328Y-19285149D01*
X67834995Y-19176272D01*
X67855195Y-19162775D01*
X68006549Y-19081875D01*
X68028994Y-19072577D01*
X68193232Y-19022757D01*
X68217056Y-19018018D01*
X68393939Y-19000597D01*
X68406093Y-19000000D01*
X99993907Y-19000000D01*
X100006061Y-19000597D01*
G37*
%TD.AperFunction*%
M02*
