%TF.GenerationSoftware,KiCad,Pcbnew,8.0.9-8.0.9-0~ubuntu24.04.1*%
%TF.CreationDate,2025-05-28T15:36:23+02:00*%
%TF.ProjectId,UniMixHeadFd,556e694d-6978-4486-9561-6446642e6b69,1.0*%
%TF.SameCoordinates,Original*%
%TF.FileFunction,Soldermask,Top*%
%TF.FilePolarity,Negative*%
%FSLAX46Y46*%
G04 Gerber Fmt 4.6, Leading zero omitted, Abs format (unit mm)*
G04 Created by KiCad (PCBNEW 8.0.9-8.0.9-0~ubuntu24.04.1) date 2025-05-28 15:36:23*
%MOMM*%
%LPD*%
G01*
G04 APERTURE LIST*
G04 Aperture macros list*
%AMRoundRect*
0 Rectangle with rounded corners*
0 $1 Rounding radius*
0 $2 $3 $4 $5 $6 $7 $8 $9 X,Y pos of 4 corners*
0 Add a 4 corners polygon primitive as box body*
4,1,4,$2,$3,$4,$5,$6,$7,$8,$9,$2,$3,0*
0 Add four circle primitives for the rounded corners*
1,1,$1+$1,$2,$3*
1,1,$1+$1,$4,$5*
1,1,$1+$1,$6,$7*
1,1,$1+$1,$8,$9*
0 Add four rect primitives between the rounded corners*
20,1,$1+$1,$2,$3,$4,$5,0*
20,1,$1+$1,$4,$5,$6,$7,0*
20,1,$1+$1,$6,$7,$8,$9,0*
20,1,$1+$1,$8,$9,$2,$3,0*%
%AMFreePoly0*
4,1,19,0.500000,-0.750000,0.000000,-0.750000,0.000000,-0.744911,-0.071157,-0.744911,-0.207708,-0.704816,-0.327430,-0.627875,-0.420627,-0.520320,-0.479746,-0.390866,-0.500000,-0.250000,-0.500000,0.250000,-0.479746,0.390866,-0.420627,0.520320,-0.327430,0.627875,-0.207708,0.704816,-0.071157,0.744911,0.000000,0.744911,0.000000,0.750000,0.500000,0.750000,0.500000,-0.750000,0.500000,-0.750000,
$1*%
%AMFreePoly1*
4,1,19,0.000000,0.744911,0.071157,0.744911,0.207708,0.704816,0.327430,0.627875,0.420627,0.520320,0.479746,0.390866,0.500000,0.250000,0.500000,-0.250000,0.479746,-0.390866,0.420627,-0.520320,0.327430,-0.627875,0.207708,-0.704816,0.071157,-0.744911,0.000000,-0.744911,0.000000,-0.750000,-0.500000,-0.750000,-0.500000,0.750000,0.000000,0.750000,0.000000,0.744911,0.000000,0.744911,
$1*%
%AMFreePoly2*
4,1,19,0.550000,-0.750000,0.000000,-0.750000,0.000000,-0.744911,-0.071157,-0.744911,-0.207708,-0.704816,-0.327430,-0.627875,-0.420627,-0.520320,-0.479746,-0.390866,-0.500000,-0.250000,-0.500000,0.250000,-0.479746,0.390866,-0.420627,0.520320,-0.327430,0.627875,-0.207708,0.704816,-0.071157,0.744911,0.000000,0.744911,0.000000,0.750000,0.550000,0.750000,0.550000,-0.750000,0.550000,-0.750000,
$1*%
%AMFreePoly3*
4,1,19,0.000000,0.744911,0.071157,0.744911,0.207708,0.704816,0.327430,0.627875,0.420627,0.520320,0.479746,0.390866,0.500000,0.250000,0.500000,-0.250000,0.479746,-0.390866,0.420627,-0.520320,0.327430,-0.627875,0.207708,-0.704816,0.071157,-0.744911,0.000000,-0.744911,0.000000,-0.750000,-0.550000,-0.750000,-0.550000,0.750000,0.000000,0.750000,0.000000,0.744911,0.000000,0.744911,
$1*%
G04 Aperture macros list end*
%ADD10RoundRect,0.225000X-0.225000X-0.250000X0.225000X-0.250000X0.225000X0.250000X-0.225000X0.250000X0*%
%ADD11RoundRect,0.225000X-0.250000X0.225000X-0.250000X-0.225000X0.250000X-0.225000X0.250000X0.225000X0*%
%ADD12R,1.600000X1.600000*%
%ADD13O,1.600000X1.600000*%
%ADD14RoundRect,0.250000X0.600000X0.750000X-0.600000X0.750000X-0.600000X-0.750000X0.600000X-0.750000X0*%
%ADD15O,1.700000X2.000000*%
%ADD16R,2.750000X0.950000*%
%ADD17R,2.750000X3.250000*%
%ADD18RoundRect,0.100000X0.100000X-0.225000X0.100000X0.225000X-0.100000X0.225000X-0.100000X-0.225000X0*%
%ADD19RoundRect,0.250000X-1.000000X-0.900000X1.000000X-0.900000X1.000000X0.900000X-1.000000X0.900000X0*%
%ADD20C,2.004000*%
%ADD21RoundRect,0.200000X0.275000X-0.200000X0.275000X0.200000X-0.275000X0.200000X-0.275000X-0.200000X0*%
%ADD22RoundRect,0.200000X-0.200000X-0.275000X0.200000X-0.275000X0.200000X0.275000X-0.200000X0.275000X0*%
%ADD23RoundRect,0.200000X-0.275000X0.200000X-0.275000X-0.200000X0.275000X-0.200000X0.275000X0.200000X0*%
%ADD24RoundRect,0.250000X-0.725000X0.600000X-0.725000X-0.600000X0.725000X-0.600000X0.725000X0.600000X0*%
%ADD25O,1.950000X1.700000*%
%ADD26C,1.200000*%
%ADD27RoundRect,0.250000X-0.600000X-0.725000X0.600000X-0.725000X0.600000X0.725000X-0.600000X0.725000X0*%
%ADD28O,1.700000X1.950000*%
%ADD29RoundRect,0.200000X0.200000X0.275000X-0.200000X0.275000X-0.200000X-0.275000X0.200000X-0.275000X0*%
%ADD30C,1.600000*%
%ADD31FreePoly0,180.000000*%
%ADD32FreePoly1,180.000000*%
%ADD33FreePoly2,180.000000*%
%ADD34R,1.000000X1.500000*%
%ADD35FreePoly3,180.000000*%
%ADD36RoundRect,0.250000X0.725000X-0.600000X0.725000X0.600000X-0.725000X0.600000X-0.725000X-0.600000X0*%
%ADD37C,3.200000*%
%ADD38RoundRect,0.102000X0.754000X-0.754000X0.754000X0.754000X-0.754000X0.754000X-0.754000X-0.754000X0*%
%ADD39C,1.712000*%
%ADD40RoundRect,0.225000X0.250000X-0.225000X0.250000X0.225000X-0.250000X0.225000X-0.250000X-0.225000X0*%
%ADD41RoundRect,0.250000X0.312500X0.625000X-0.312500X0.625000X-0.312500X-0.625000X0.312500X-0.625000X0*%
%ADD42RoundRect,0.100000X-0.100000X0.225000X-0.100000X-0.225000X0.100000X-0.225000X0.100000X0.225000X0*%
%ADD43RoundRect,0.150000X0.150000X-0.512500X0.150000X0.512500X-0.150000X0.512500X-0.150000X-0.512500X0*%
%ADD44RoundRect,0.225000X0.225000X0.250000X-0.225000X0.250000X-0.225000X-0.250000X0.225000X-0.250000X0*%
%ADD45RoundRect,0.150000X0.150000X-0.825000X0.150000X0.825000X-0.150000X0.825000X-0.150000X-0.825000X0*%
G04 APERTURE END LIST*
D10*
X97625000Y-82600000D03*
X99175000Y-82600000D03*
D11*
X92200000Y-83850000D03*
X92200000Y-85400000D03*
D12*
X88865000Y-60475000D03*
D13*
X88865000Y-63015000D03*
X88865000Y-65555000D03*
X99025000Y-65555000D03*
X99025000Y-63015000D03*
X99025000Y-60475000D03*
D14*
X43000000Y-22000000D03*
D15*
X40500000Y-22000000D03*
D10*
X31400000Y-86600000D03*
X32950000Y-86600000D03*
D16*
X29750000Y-31400000D03*
X29750000Y-33700000D03*
X29750000Y-36000000D03*
D17*
X34950000Y-33700000D03*
D18*
X96400000Y-45000000D03*
X97050000Y-45000000D03*
X97700000Y-45000000D03*
X97700000Y-43100000D03*
X97050000Y-43100000D03*
X96400000Y-43100000D03*
D19*
X48600000Y-27500000D03*
X52900000Y-27500000D03*
D20*
X68300000Y-87880000D03*
X65760000Y-90420000D03*
X65760000Y-87880000D03*
X65760000Y-85340000D03*
X65760000Y-82800000D03*
X65760000Y-80260000D03*
X65760000Y-77720000D03*
X65760000Y-75180000D03*
X65760000Y-72640000D03*
X65760000Y-70100000D03*
X65760000Y-67560000D03*
X65760000Y-65020000D03*
X65760000Y-62480000D03*
X65760000Y-59940000D03*
X65760000Y-57400000D03*
X65760000Y-54860000D03*
X65760000Y-52320000D03*
X65760000Y-49780000D03*
X65760000Y-47240000D03*
X81000000Y-82800000D03*
X81000000Y-80260000D03*
X81000000Y-77720000D03*
X81000000Y-75180000D03*
X81000000Y-72640000D03*
X81000000Y-70100000D03*
X81000000Y-67560000D03*
X81000000Y-65020000D03*
X81000000Y-62480000D03*
X81000000Y-59940000D03*
X81000000Y-57400000D03*
X81000000Y-54860000D03*
X81000000Y-52320000D03*
X81000000Y-49780000D03*
X81000000Y-47240000D03*
D21*
X94600000Y-44025000D03*
X94600000Y-42375000D03*
D22*
X94375000Y-57200000D03*
X96025000Y-57200000D03*
D23*
X87600000Y-45575000D03*
X87600000Y-47225000D03*
D22*
X95925000Y-52200000D03*
X97575000Y-52200000D03*
D21*
X87600000Y-44050000D03*
X87600000Y-42400000D03*
D10*
X31400000Y-88200000D03*
X32950000Y-88200000D03*
D24*
X91400000Y-21400000D03*
D25*
X91400000Y-23900000D03*
X91400000Y-26400000D03*
D26*
X67400000Y-23200000D03*
D27*
X69000000Y-21200000D03*
D28*
X71500000Y-21200000D03*
X74000000Y-21200000D03*
X76500000Y-21200000D03*
D29*
X95425000Y-82200000D03*
X93775000Y-82200000D03*
D12*
X53525000Y-88000000D03*
D30*
X57025000Y-88000000D03*
D23*
X98400000Y-26375000D03*
X98400000Y-28025000D03*
D21*
X99400000Y-43825000D03*
X99400000Y-42175000D03*
D19*
X30850000Y-27500000D03*
X35150000Y-27500000D03*
X39950000Y-27500000D03*
X44250000Y-27500000D03*
D23*
X99400000Y-45400000D03*
X99400000Y-47050000D03*
D29*
X96600000Y-28200000D03*
X94950000Y-28200000D03*
D12*
X88865000Y-74475000D03*
D13*
X88865000Y-77015000D03*
X88865000Y-79555000D03*
X99025000Y-79555000D03*
X99025000Y-77015000D03*
X99025000Y-74475000D03*
D23*
X68600000Y-78200000D03*
X68600000Y-79850000D03*
D16*
X39400000Y-31400000D03*
X39400000Y-33700000D03*
X39400000Y-36000000D03*
D17*
X44600000Y-33700000D03*
D31*
X77800000Y-27200000D03*
D32*
X76500000Y-27200000D03*
D14*
X34000000Y-22000000D03*
D15*
X31500000Y-22000000D03*
D23*
X94600000Y-45550000D03*
X94600000Y-47200000D03*
D33*
X39300000Y-63500000D03*
D34*
X38000000Y-63500000D03*
D35*
X36700000Y-63500000D03*
D26*
X24500000Y-69600000D03*
D36*
X22500000Y-68000000D03*
D25*
X22500000Y-65500000D03*
X22500000Y-63000000D03*
X22500000Y-60500000D03*
D23*
X100200000Y-26375000D03*
X100200000Y-28025000D03*
D29*
X95425000Y-83800000D03*
X93775000Y-83800000D03*
D10*
X32225000Y-54200000D03*
X33775000Y-54200000D03*
D14*
X52000000Y-22000000D03*
D15*
X49500000Y-22000000D03*
D24*
X98400000Y-32400000D03*
D25*
X98400000Y-34900000D03*
X98400000Y-37400000D03*
D26*
X24500000Y-55500000D03*
D36*
X22500000Y-53900000D03*
D25*
X22500000Y-51400000D03*
X22500000Y-48900000D03*
X22500000Y-46400000D03*
D29*
X96025000Y-68800000D03*
X94375000Y-68800000D03*
D37*
X98500000Y-90000000D03*
D16*
X48800000Y-31400000D03*
X48800000Y-33700000D03*
X48800000Y-36000000D03*
D17*
X54000000Y-33700000D03*
D38*
X31135000Y-90350000D03*
D39*
X33675000Y-90350000D03*
X36215000Y-90350000D03*
X38755000Y-90350000D03*
X41295000Y-90350000D03*
X43835000Y-90350000D03*
X46375000Y-90350000D03*
X48915000Y-90350000D03*
X31135000Y-77650000D03*
X33675000Y-77650000D03*
X36215000Y-77650000D03*
X38755000Y-77650000D03*
X41295000Y-77650000D03*
X43835000Y-77650000D03*
X46375000Y-77650000D03*
X48915000Y-77650000D03*
X48915000Y-82730000D03*
X48915000Y-80190000D03*
D22*
X94375000Y-55600000D03*
X96025000Y-55600000D03*
D40*
X92800000Y-53975000D03*
X92800000Y-52425000D03*
D10*
X76800000Y-30000000D03*
X78350000Y-30000000D03*
D29*
X96025000Y-70600000D03*
X94375000Y-70600000D03*
D16*
X58150000Y-31450000D03*
X58150000Y-33750000D03*
X58150000Y-36050000D03*
D17*
X63350000Y-33750000D03*
D10*
X99150000Y-52200000D03*
X100700000Y-52200000D03*
D33*
X38600000Y-80500000D03*
D34*
X37300000Y-80500000D03*
D35*
X36000000Y-80500000D03*
D37*
X23000000Y-90000000D03*
D12*
X54025000Y-54000000D03*
D30*
X57525000Y-54000000D03*
D41*
X74400000Y-27200000D03*
X71475000Y-27200000D03*
D10*
X32025000Y-69200000D03*
X33575000Y-69200000D03*
D33*
X39550000Y-46750000D03*
D34*
X38250000Y-46750000D03*
D35*
X36950000Y-46750000D03*
D42*
X90800000Y-43800000D03*
X90150000Y-43800000D03*
X89500000Y-43800000D03*
X89500000Y-45700000D03*
X90150000Y-45700000D03*
X90800000Y-45700000D03*
D22*
X94550000Y-53800000D03*
X96200000Y-53800000D03*
D21*
X92600000Y-44025000D03*
X92600000Y-42375000D03*
D26*
X24500000Y-84100000D03*
D36*
X22500000Y-82500000D03*
D25*
X22500000Y-80000000D03*
X22500000Y-77500000D03*
X22500000Y-75000000D03*
D43*
X97850000Y-56600000D03*
X98800000Y-56600000D03*
X99750000Y-56600000D03*
X99750000Y-54325000D03*
X98800000Y-54325000D03*
X97850000Y-54325000D03*
D22*
X89375000Y-57400000D03*
X91025000Y-57400000D03*
D10*
X73825000Y-37600000D03*
X75375000Y-37600000D03*
D23*
X87000000Y-52375000D03*
X87000000Y-54025000D03*
D29*
X96650000Y-26400000D03*
X95000000Y-26400000D03*
D23*
X92600000Y-45575000D03*
X92600000Y-47225000D03*
D12*
X53872349Y-70500000D03*
D30*
X57372349Y-70500000D03*
D44*
X99375000Y-68200000D03*
X97825000Y-68200000D03*
D24*
X84400000Y-21200000D03*
D25*
X84400000Y-23700000D03*
X84400000Y-26200000D03*
D23*
X87000000Y-55550000D03*
X87000000Y-57200000D03*
D38*
X31635000Y-73350000D03*
D39*
X34175000Y-73350000D03*
X36715000Y-73350000D03*
X39255000Y-73350000D03*
X41795000Y-73350000D03*
X44335000Y-73350000D03*
X46875000Y-73350000D03*
X49415000Y-73350000D03*
X31635000Y-60650000D03*
X34175000Y-60650000D03*
X36715000Y-60650000D03*
X39255000Y-60650000D03*
X41795000Y-60650000D03*
X44335000Y-60650000D03*
X46875000Y-60650000D03*
X49415000Y-60650000D03*
X49415000Y-65730000D03*
X49415000Y-63190000D03*
D19*
X57350000Y-27500000D03*
X61650000Y-27500000D03*
D43*
X89250000Y-55537500D03*
X90200000Y-55537500D03*
X91150000Y-55537500D03*
X91150000Y-53262500D03*
X90200000Y-53262500D03*
X89250000Y-53262500D03*
D45*
X71390000Y-35350000D03*
X72660000Y-35350000D03*
X73930000Y-35350000D03*
X75200000Y-35350000D03*
X75200000Y-30400000D03*
X73930000Y-30400000D03*
X72660000Y-30400000D03*
X71390000Y-30400000D03*
D10*
X32000000Y-70800000D03*
X33550000Y-70800000D03*
D24*
X91400000Y-32400000D03*
D25*
X91400000Y-34900000D03*
X91400000Y-37400000D03*
D11*
X92600000Y-68825000D03*
X92600000Y-70375000D03*
D23*
X90400000Y-68800000D03*
X90400000Y-70450000D03*
D10*
X32225000Y-52600000D03*
X33775000Y-52600000D03*
D38*
X31985000Y-56850000D03*
D39*
X34525000Y-56850000D03*
X37065000Y-56850000D03*
X39605000Y-56850000D03*
X42145000Y-56850000D03*
X44685000Y-56850000D03*
X47225000Y-56850000D03*
X49765000Y-56850000D03*
X31985000Y-44150000D03*
X34525000Y-44150000D03*
X37065000Y-44150000D03*
X39605000Y-44150000D03*
X42145000Y-44150000D03*
X44685000Y-44150000D03*
X47225000Y-44150000D03*
X49765000Y-44150000D03*
X49765000Y-49230000D03*
X49765000Y-46690000D03*
D37*
X23000000Y-21500000D03*
D26*
X21500000Y-27150000D03*
D24*
X23500000Y-28750000D03*
D25*
X23500000Y-31250000D03*
X23500000Y-33750000D03*
X23500000Y-36250000D03*
D37*
X98500000Y-21500000D03*
D14*
X61000000Y-22000000D03*
D15*
X58500000Y-22000000D03*
M02*
