M48
; DRILL file {KiCad 6.0.8-f2edbf62ab~116~ubuntu20.04.1} date sob, 3 gru 2022, 19:21:25
; FORMAT={-:-/ absolute / inch / decimal}
; #@! TF.CreationDate,2022-12-03T19:21:25+01:00
; #@! TF.GenerationSoftware,Kicad,Pcbnew,6.0.8-f2edbf62ab~116~ubuntu20.04.1
; #@! TF.FileFunction,Plated,1,2,PTH
FMAT,2
INCH
; #@! TA.AperFunction,Plated,PTH,ViaDrill
T1C0.0118
; #@! TA.AperFunction,Plated,PTH,ViaDrill
T2C0.0157
; #@! TA.AperFunction,Plated,PTH,ComponentDrill
T3C0.0374
; #@! TA.AperFunction,Plated,PTH,ComponentDrill
T4C0.0394
; #@! TA.AperFunction,Plated,PTH,ComponentDrill
T5C0.0472
; #@! TA.AperFunction,Plated,PTH,ComponentDrill
T6C0.0512
; #@! TA.AperFunction,Plated,PTH,ComponentDrill
T7C0.0669
%
G90
G05
T1
X2.2323Y-2.6654
X2.3932Y-2.6652
X2.4134Y-2.3701
X2.4134Y-2.4016
X2.5846Y-2.7579
X2.624Y-2.7579
X2.6526Y-4.9528
X2.6959Y-4.9488
X2.7Y-2.3532
X2.7Y-2.3847
X2.7677Y-5.248
X2.815Y-5.248
X2.8583Y-2.7067
X2.8957Y-2.7067
X2.9114Y-3.3287
X2.935Y-3.6496
X2.939Y-3.9567
X2.9744Y-3.6476
X2.9783Y-3.9567
X2.99Y-2.3532
X2.99Y-2.3847
X3.0748Y-3.3858
X3.0827Y-4.3071
X3.1063Y-4.3307
X3.1732Y-3.4409
X3.18Y-2.62
X3.2008Y-4.5748
X3.2087Y-3.4055
X3.21Y-2.62
X3.28Y-2.3532
X3.28Y-2.3847
X3.3346Y-4.315
X3.3346Y-4.8071
X3.4449Y-3.7756
X3.4646Y-2.528
X3.5Y-2.53
X3.57Y-2.3532
X3.57Y-2.3847
X3.5945Y-3.8307
X3.7205Y-5.178
X3.7543Y-2.2913
X3.7803Y-5.178
X3.7936Y-2.2913
X3.7992Y-3.6811
X3.86Y-2.3642
X3.86Y-2.3957
X3.9134Y-3.1181
X3.9646Y-3.0433
X4.0157Y-2.9213
X4.3898Y-3.874
X4.5118Y-3.6063
X4.5591Y-3.6457
X4.6028Y-3.5186
X4.6378Y-3.5591
X4.6634Y-3.5199
X4.7087Y-3.5512
X6.0551Y-5.5787
X6.1181Y-5.5827
X6.1496Y-3.063
X6.1811Y-3.1575
X6.2047Y-3.2677
X6.2421Y-3.3406
X6.3878Y-3.811
X6.752Y-3.7008
X7.0709Y-4.937
X7.1575Y-3.4882
X7.1654Y-4.7008
X7.2047Y-3.5197
X7.3583Y-3.0118
X7.3622Y-2.7047
X7.4094Y-3.0118
X7.4567Y-3.5394
X7.5118Y-3.0118
X7.5394Y-3.5669
X7.5591Y-2.7008
X7.5607Y-3.6104
X7.6339Y-3.6417
X7.6438Y-2.8524
X7.685Y-3.4114
X7.8346Y-3.4724
X7.84Y-3.41
X7.8583Y-2.622
X7.8898Y-3.0
X7.9921Y-2.2126
X8.0906Y-4.2126
X8.1381Y-4.1223
X8.3179Y-4.4006
X8.3268Y-4.435
X8.3661Y-4.3504
X8.3701Y-2.8504
X8.4252Y-4.3504
X8.4646Y-2.9764
X8.4646Y-3.2831
X8.4882Y-4.2756
X8.5157Y-3.3071
X8.5236Y-3.0118
X8.563Y-3.3465
X8.5941Y-2.7051
X8.6142Y-4.8819
X9.0551Y-3.8583
T2
X1.8504Y-4.2756
X1.8504Y-4.3307
X2.6378Y-2.9528
X2.6772Y-2.9921
X2.7362Y-2.9134
X2.7953Y-2.9134
X2.9724Y-2.9134
X3.0315Y-2.9134
X3.1949Y-3.9035
X3.2677Y-2.9134
X3.2677Y-3.9035
X3.3268Y-2.9134
X3.3268Y-3.8976
X3.4449Y-2.6772
X3.5236Y-2.9134
X3.5809Y-4.0691
X3.5827Y-2.9134
X3.6024Y-3.5197
X3.6181Y-4.0315
X3.6181Y-5.2362
X3.6575Y-3.9882
X3.6796Y-3.5157
X3.7047Y-3.9449
X3.7205Y-2.9134
X3.7205Y-5.3228
X3.7559Y-5.5236
X3.7795Y-2.9134
X3.7875Y-5.3111
X3.8002Y-3.6063
X3.8386Y-3.5433
X3.9333Y-2.7717
X3.9764Y-2.815
X4.0157Y-2.815
X4.0945Y-5.2362
X5.7598Y-3.9409
X5.8268Y-3.9409
X5.8858Y-3.9409
X5.9409Y-3.9409
X6.0197Y-4.8937
X6.0551Y-4.9685
X6.0669Y-4.4646
X6.1378Y-4.5394
X6.32Y-3.24
X6.439Y-3.779
X6.4685Y-3.4213
X6.7165Y-3.4528
X7.74Y-3.52
X7.7933Y-3.8189
X7.7933Y-3.8602
T3
X7.1496Y-2.4803
X7.248Y-2.4803
X7.3465Y-2.4803
X7.4449Y-2.4803
X7.5433Y-2.4803
X7.6417Y-2.4803
X7.7402Y-2.4803
X7.7933Y-4.814
X7.8386Y-2.4803
X7.8917Y-4.814
X7.937Y-2.4803
X7.9902Y-4.814
X8.0886Y-4.814
X8.187Y-4.814
X8.189Y-2.4803
X8.2854Y-4.814
X8.2874Y-2.4803
X8.3858Y-2.4803
X8.4843Y-2.4803
X8.5827Y-2.4803
X8.6811Y-2.4803
X8.7795Y-2.4803
X8.878Y-2.4803
X8.9764Y-2.4803
T4
X2.8661Y-5.3921
X2.8661Y-5.4921
X2.9661Y-5.3921
X2.9661Y-5.4921
X3.0661Y-5.3921
X3.0661Y-5.4921
X3.1661Y-5.3921
X3.1661Y-5.4921
X3.2661Y-5.3921
X3.2661Y-5.4921
X3.3661Y-5.3921
X3.3661Y-5.4921
X3.3937Y-3.1496
X3.4661Y-5.3921
X3.4661Y-5.4921
X3.5661Y-5.3921
X3.5661Y-5.4921
X3.6929Y-3.1496
X4.1732Y-2.3228
X4.1732Y-2.4228
X4.1732Y-2.5228
X4.1732Y-2.6228
X4.1732Y-2.7228
X4.1732Y-2.8228
X4.1732Y-2.9228
X4.1732Y-3.0228
X4.1732Y-3.1228
X4.1732Y-3.2228
X4.1732Y-4.1339
X4.1732Y-4.2339
X4.1732Y-4.3339
X4.1732Y-4.4339
X4.1732Y-4.5339
X4.1732Y-4.6339
X4.1732Y-4.7339
X4.1732Y-4.8339
X4.1732Y-4.9339
X4.1732Y-5.0339
X4.2732Y-2.3228
X4.2732Y-2.4228
X4.2732Y-2.5228
X4.2732Y-2.6228
X4.2732Y-2.7228
X4.2732Y-2.8228
X4.2732Y-2.9228
X4.2732Y-3.0228
X4.2732Y-3.1228
X4.2732Y-3.2228
X4.2732Y-4.1339
X4.2732Y-4.2339
X4.2732Y-4.3339
X4.2732Y-4.4339
X4.2732Y-4.5339
X4.2732Y-4.6339
X4.2732Y-4.7339
X4.2732Y-4.8339
X4.2732Y-4.9339
X4.2732Y-5.0339
X6.5748Y-4.2126
X6.5748Y-4.3126
X6.5748Y-4.4126
X6.5748Y-4.5126
X6.5748Y-4.6126
X6.5748Y-4.7126
X6.5748Y-4.8126
X6.5748Y-4.9126
X6.5748Y-5.0126
X6.5748Y-5.1126
X6.6142Y-2.3228
X6.6142Y-2.4228
X6.6142Y-2.5228
X6.6142Y-2.6228
X6.6142Y-2.7228
X6.6142Y-2.8228
X6.6142Y-2.9228
X6.6142Y-3.0228
X6.6142Y-3.1228
X6.6142Y-3.2228
X6.6748Y-4.2126
X6.6748Y-4.3126
X6.6748Y-4.4126
X6.6748Y-4.5126
X6.6748Y-4.6126
X6.6748Y-4.7126
X6.6748Y-4.8126
X6.6748Y-4.9126
X6.6748Y-5.0126
X6.6748Y-5.1126
X6.7142Y-2.3228
X6.7142Y-2.4228
X6.7142Y-2.5228
X6.7142Y-2.6228
X6.7142Y-2.7228
X6.7142Y-2.8228
X6.7142Y-2.9228
X6.7142Y-3.0228
X6.7142Y-3.1228
X6.7142Y-3.2228
X7.3602Y-4.814
X7.4587Y-4.814
X8.2646Y-3.1102
X8.2646Y-3.2102
X8.2724Y-3.651
X8.2724Y-3.751
X8.3646Y-3.1102
X8.3646Y-3.2102
X8.3724Y-3.651
X8.3724Y-3.751
X8.4646Y-3.1102
X8.4646Y-3.2102
X8.4724Y-3.651
X8.4724Y-3.751
X8.5646Y-3.1102
X8.5646Y-3.2102
X8.5724Y-3.651
X8.5724Y-3.751
X8.6646Y-3.1102
X8.6646Y-3.2102
X8.6724Y-3.651
X8.6724Y-3.751
X8.878Y-1.9291
X8.9764Y-1.9291
T5
X2.021Y-2.2949
X2.021Y-2.4327
X2.021Y-2.5705
X2.021Y-2.7083
X2.021Y-2.8461
X2.021Y-2.9839
X2.021Y-3.1217
X2.021Y-3.2594
X2.021Y-3.3972
X2.021Y-3.535
X2.021Y-3.7713
X2.021Y-3.9091
X2.021Y-4.0469
X2.021Y-4.1846
X2.021Y-4.3224
X2.021Y-4.4602
X2.021Y-4.598
X2.021Y-4.7358
X2.021Y-4.8736
X2.021Y-5.0114
X7.2555Y-5.3176
X7.3075Y-2.0446
X7.3933Y-5.3176
X7.4453Y-2.0446
X7.5311Y-5.3176
X7.5831Y-2.0446
X7.6689Y-5.3176
X7.7209Y-2.0446
X7.8067Y-5.3176
X7.8587Y-2.0446
X7.9445Y-5.3176
X7.9965Y-2.0446
X8.0823Y-5.3176
X8.1343Y-2.0446
X8.2201Y-5.3176
X8.272Y-2.0446
X8.3579Y-5.3176
X8.4098Y-2.0446
X8.4957Y-5.3176
X8.5476Y-2.0446
X9.252Y-2.2917
X9.252Y-2.4295
X9.252Y-2.5673
X9.252Y-2.7051
X9.252Y-2.8429
X9.252Y-2.9807
X9.252Y-3.1185
X9.252Y-3.2563
X9.252Y-3.3941
X9.252Y-3.5319
X9.252Y-3.7795
X9.252Y-3.9173
X9.252Y-4.0551
X9.252Y-4.1929
X9.252Y-4.3307
X9.252Y-4.4685
X9.252Y-4.6063
X9.252Y-4.7441
X9.252Y-4.8819
X9.252Y-5.0197
T6
X8.7974Y-5.4057
X8.9974Y-5.4057
T7
X2.1307Y-1.9488
X2.2866Y-1.9488
X2.439Y-3.0048
X2.439Y-3.1607
X2.439Y-3.3166
X2.439Y-3.4725
X2.439Y-3.6284
X2.439Y-3.7844
X2.439Y-4.2434
X2.439Y-4.3993
X2.439Y-4.5552
X2.439Y-4.7111
X2.4425Y-1.9488
X2.5984Y-1.9488
X2.937Y-1.937
X3.0929Y-1.937
X3.2488Y-1.937
X3.4047Y-1.937
X3.5606Y-1.937
X3.7165Y-1.937
T0
M30
