%TF.GenerationSoftware,KiCad,Pcbnew,6.0.8-f2edbf62ab~116~ubuntu20.04.1*%
%TF.CreationDate,2022-12-03T19:21:23+01:00*%
%TF.ProjectId,shield_chm36VA,73686965-6c64-45f6-9368-6d333656412e,rev?*%
%TF.SameCoordinates,Original*%
%TF.FileFunction,Legend,Top*%
%TF.FilePolarity,Positive*%
%FSLAX46Y46*%
G04 Gerber Fmt 4.6, Leading zero omitted, Abs format (unit mm)*
G04 Created by KiCad (PCBNEW 6.0.8-f2edbf62ab~116~ubuntu20.04.1) date 2022-12-03 19:21:23*
%MOMM*%
%LPD*%
G01*
G04 APERTURE LIST*
%ADD10C,0.100000*%
%ADD11C,0.300000*%
%ADD12C,0.150000*%
%ADD13C,0.120000*%
G04 APERTURE END LIST*
D10*
X177500000Y-141000000D02*
X99500000Y-141000000D01*
X99500000Y-44500000D02*
X177500000Y-44500000D01*
X99500000Y-141000000D02*
X99500000Y-44500000D01*
X177500000Y-44500000D02*
X177500000Y-141000000D01*
D11*
X52214285Y-135678571D02*
X52714285Y-137178571D01*
X53214285Y-135678571D01*
X54285714Y-137107142D02*
X54142857Y-137178571D01*
X53857142Y-137178571D01*
X53714285Y-137107142D01*
X53642857Y-136964285D01*
X53642857Y-136392857D01*
X53714285Y-136250000D01*
X53857142Y-136178571D01*
X54142857Y-136178571D01*
X54285714Y-136250000D01*
X54357142Y-136392857D01*
X54357142Y-136535714D01*
X53642857Y-136678571D01*
X55000000Y-137178571D02*
X55000000Y-136178571D01*
X55000000Y-136464285D02*
X55071428Y-136321428D01*
X55142857Y-136250000D01*
X55285714Y-136178571D01*
X55428571Y-136178571D01*
X55857142Y-137107142D02*
X56000000Y-137178571D01*
X56285714Y-137178571D01*
X56428571Y-137107142D01*
X56500000Y-136964285D01*
X56500000Y-136892857D01*
X56428571Y-136750000D01*
X56285714Y-136678571D01*
X56071428Y-136678571D01*
X55928571Y-136607142D01*
X55857142Y-136464285D01*
X55857142Y-136392857D01*
X55928571Y-136250000D01*
X56071428Y-136178571D01*
X56285714Y-136178571D01*
X56428571Y-136250000D01*
X57142857Y-137178571D02*
X57142857Y-136178571D01*
X57142857Y-135678571D02*
X57071428Y-135750000D01*
X57142857Y-135821428D01*
X57214285Y-135750000D01*
X57142857Y-135678571D01*
X57142857Y-135821428D01*
X58071428Y-137178571D02*
X57928571Y-137107142D01*
X57857142Y-137035714D01*
X57785714Y-136892857D01*
X57785714Y-136464285D01*
X57857142Y-136321428D01*
X57928571Y-136250000D01*
X58071428Y-136178571D01*
X58285714Y-136178571D01*
X58428571Y-136250000D01*
X58500000Y-136321428D01*
X58571428Y-136464285D01*
X58571428Y-136892857D01*
X58500000Y-137035714D01*
X58428571Y-137107142D01*
X58285714Y-137178571D01*
X58071428Y-137178571D01*
X59214285Y-136178571D02*
X59214285Y-137178571D01*
X59214285Y-136321428D02*
X59285714Y-136250000D01*
X59428571Y-136178571D01*
X59642857Y-136178571D01*
X59785714Y-136250000D01*
X59857142Y-136392857D01*
X59857142Y-137178571D01*
X62500000Y-137178571D02*
X61642857Y-137178571D01*
X62071428Y-137178571D02*
X62071428Y-135678571D01*
X61928571Y-135892857D01*
X61785714Y-136035714D01*
X61642857Y-136107142D01*
X63142857Y-137035714D02*
X63214285Y-137107142D01*
X63142857Y-137178571D01*
X63071428Y-137107142D01*
X63142857Y-137035714D01*
X63142857Y-137178571D01*
X64642857Y-137178571D02*
X63785714Y-137178571D01*
X64214285Y-137178571D02*
X64214285Y-135678571D01*
X64071428Y-135892857D01*
X63928571Y-136035714D01*
X63785714Y-136107142D01*
X48678571Y-140535714D02*
X48607142Y-140607142D01*
X48392857Y-140678571D01*
X48249999Y-140678571D01*
X48035714Y-140607142D01*
X47892857Y-140464285D01*
X47821428Y-140321428D01*
X47749999Y-140035714D01*
X47749999Y-139821428D01*
X47821428Y-139535714D01*
X47892857Y-139392857D01*
X48035714Y-139250000D01*
X48249999Y-139178571D01*
X48392857Y-139178571D01*
X48607142Y-139250000D01*
X48678571Y-139321428D01*
X49321428Y-140678571D02*
X49321428Y-139178571D01*
X49321428Y-139892857D02*
X50178571Y-139892857D01*
X50178571Y-140678571D02*
X50178571Y-139178571D01*
X50892857Y-140678571D02*
X50892857Y-139178571D01*
X51392857Y-140250000D01*
X51892857Y-139178571D01*
X51892857Y-140678571D01*
X52607142Y-140107142D02*
X53749999Y-140107142D01*
X54249999Y-139178571D02*
X55107142Y-139178571D01*
X54678571Y-140678571D02*
X54678571Y-139178571D01*
X55464285Y-139178571D02*
X56392857Y-139178571D01*
X55892857Y-139750000D01*
X56107142Y-139750000D01*
X56249999Y-139821428D01*
X56321428Y-139892857D01*
X56392857Y-140035714D01*
X56392857Y-140392857D01*
X56321428Y-140535714D01*
X56249999Y-140607142D01*
X56107142Y-140678571D01*
X55678571Y-140678571D01*
X55535714Y-140607142D01*
X55464285Y-140535714D01*
X57678571Y-139178571D02*
X57392857Y-139178571D01*
X57249999Y-139250000D01*
X57178571Y-139321428D01*
X57035714Y-139535714D01*
X56964285Y-139821428D01*
X56964285Y-140392857D01*
X57035714Y-140535714D01*
X57107142Y-140607142D01*
X57249999Y-140678571D01*
X57535714Y-140678571D01*
X57678571Y-140607142D01*
X57749999Y-140535714D01*
X57821428Y-140392857D01*
X57821428Y-140035714D01*
X57749999Y-139892857D01*
X57678571Y-139821428D01*
X57535714Y-139750000D01*
X57249999Y-139750000D01*
X57107142Y-139821428D01*
X57035714Y-139892857D01*
X56964285Y-140035714D01*
X58250000Y-139178571D02*
X58750000Y-140678571D01*
X59250000Y-139178571D01*
X59678571Y-140250000D02*
X60392857Y-140250000D01*
X59535714Y-140678571D02*
X60035714Y-139178571D01*
X60535714Y-140678571D01*
X62107142Y-140607142D02*
X62250000Y-140678571D01*
X62535714Y-140678571D01*
X62678571Y-140607142D01*
X62750000Y-140464285D01*
X62750000Y-140392857D01*
X62678571Y-140250000D01*
X62535714Y-140178571D01*
X62321428Y-140178571D01*
X62178571Y-140107142D01*
X62107142Y-139964285D01*
X62107142Y-139892857D01*
X62178571Y-139750000D01*
X62321428Y-139678571D01*
X62535714Y-139678571D01*
X62678571Y-139750000D01*
X63392857Y-140678571D02*
X63392857Y-139178571D01*
X64035714Y-140678571D02*
X64035714Y-139892857D01*
X63964285Y-139750000D01*
X63821428Y-139678571D01*
X63607142Y-139678571D01*
X63464285Y-139750000D01*
X63392857Y-139821428D01*
X64750000Y-140678571D02*
X64750000Y-139678571D01*
X64750000Y-139178571D02*
X64678571Y-139250000D01*
X64750000Y-139321428D01*
X64821428Y-139250000D01*
X64750000Y-139178571D01*
X64750000Y-139321428D01*
X66035714Y-140607142D02*
X65892857Y-140678571D01*
X65607142Y-140678571D01*
X65464285Y-140607142D01*
X65392857Y-140464285D01*
X65392857Y-139892857D01*
X65464285Y-139750000D01*
X65607142Y-139678571D01*
X65892857Y-139678571D01*
X66035714Y-139750000D01*
X66107142Y-139892857D01*
X66107142Y-140035714D01*
X65392857Y-140178571D01*
X66964285Y-140678571D02*
X66821428Y-140607142D01*
X66750000Y-140464285D01*
X66750000Y-139178571D01*
X68178571Y-140678571D02*
X68178571Y-139178571D01*
X68178571Y-140607142D02*
X68035714Y-140678571D01*
X67750000Y-140678571D01*
X67607142Y-140607142D01*
X67535714Y-140535714D01*
X67464285Y-140392857D01*
X67464285Y-139964285D01*
X67535714Y-139821428D01*
X67607142Y-139750000D01*
X67750000Y-139678571D01*
X68035714Y-139678571D01*
X68178571Y-139750000D01*
D12*
X85809047Y-77531428D02*
X86570952Y-77531428D01*
X86190000Y-77912380D02*
X86190000Y-77150476D01*
D13*
X97600000Y-80000000D02*
G75*
G03*
X97600000Y-80000000I-7600000J0D01*
G01*
X85550000Y-96650000D02*
X79850000Y-96650000D01*
X85550000Y-96650000D02*
X85550000Y-92350000D01*
X85550000Y-92350000D02*
X79850000Y-92350000D01*
X83050000Y-121950000D02*
X77350000Y-121950000D01*
X83050000Y-117650000D02*
X77350000Y-117650000D01*
X83050000Y-121950000D02*
X83050000Y-117650000D01*
X217237258Y-119022500D02*
X216762742Y-119022500D01*
X217237258Y-117977500D02*
X216762742Y-117977500D01*
X88505000Y-113325000D02*
X87005000Y-113325000D01*
X87005000Y-119955000D02*
X85905000Y-119955000D01*
X87005000Y-120225000D02*
X87005000Y-119955000D01*
X87005000Y-113325000D02*
X87005000Y-113595000D01*
X88505000Y-120225000D02*
X87005000Y-120225000D01*
X87005000Y-113595000D02*
X84175000Y-113595000D01*
X221410000Y-82870000D02*
X221410000Y-77670000D01*
X208590000Y-77670000D02*
X221410000Y-77670000D01*
X211190000Y-82870000D02*
X211190000Y-80270000D01*
X208590000Y-80270000D02*
X208590000Y-77670000D01*
X211190000Y-82870000D02*
X221410000Y-82870000D01*
X209920000Y-82870000D02*
X208590000Y-82870000D01*
X208590000Y-82870000D02*
X208590000Y-81540000D01*
X211190000Y-80270000D02*
X208590000Y-80270000D01*
X211390000Y-96605000D02*
X211390000Y-94005000D01*
X208790000Y-94005000D02*
X208790000Y-91405000D01*
X211390000Y-94005000D02*
X208790000Y-94005000D01*
X211390000Y-96605000D02*
X221610000Y-96605000D01*
X208790000Y-91405000D02*
X221610000Y-91405000D01*
X210120000Y-96605000D02*
X208790000Y-96605000D01*
X208790000Y-96605000D02*
X208790000Y-95275000D01*
X221610000Y-96605000D02*
X221610000Y-91405000D01*
X224750000Y-51450000D02*
X224750000Y-50700000D01*
X228750000Y-51450000D02*
X230550000Y-51450000D01*
X222950000Y-50700000D02*
X222950000Y-51450000D01*
X227250000Y-51450000D02*
X227250000Y-50700000D01*
X230550000Y-50700000D02*
X228750000Y-50700000D01*
X230560000Y-45490000D02*
X222940000Y-45490000D01*
X224750000Y-50700000D02*
X222950000Y-50700000D01*
X229600000Y-51750000D02*
X230850000Y-51750000D01*
X222940000Y-51460000D02*
X230560000Y-51460000D01*
X230850000Y-51750000D02*
X230850000Y-50500000D01*
X223700000Y-49200000D02*
X223700000Y-46250000D01*
X223700000Y-46250000D02*
X226750000Y-46250000D01*
X228750000Y-50700000D02*
X228750000Y-51450000D01*
X226250000Y-51450000D02*
X227250000Y-51450000D01*
X222950000Y-51450000D02*
X224750000Y-51450000D01*
X230550000Y-49200000D02*
X229800000Y-49200000D01*
X229800000Y-49200000D02*
X229800000Y-46250000D01*
X227250000Y-50700000D02*
X226250000Y-50700000D01*
X226250000Y-50700000D02*
X226250000Y-51450000D01*
X222940000Y-45490000D02*
X222940000Y-51460000D01*
X222950000Y-49200000D02*
X223700000Y-49200000D01*
X230550000Y-51450000D02*
X230550000Y-50700000D01*
X229800000Y-46250000D02*
X226750000Y-46250000D01*
X230560000Y-51460000D02*
X230560000Y-45490000D01*
X192000000Y-119825000D02*
X190200000Y-119825000D01*
X185350000Y-119525000D02*
X184100000Y-119525000D01*
X186200000Y-120575000D02*
X186200000Y-119825000D01*
X184400000Y-119825000D02*
X184400000Y-120575000D01*
X190200000Y-120575000D02*
X192000000Y-120575000D01*
X184390000Y-125785000D02*
X192010000Y-125785000D01*
X184400000Y-122075000D02*
X185150000Y-122075000D01*
X184400000Y-120575000D02*
X186200000Y-120575000D01*
X184100000Y-119525000D02*
X184100000Y-120775000D01*
X184390000Y-119815000D02*
X184390000Y-125785000D01*
X192010000Y-125785000D02*
X192010000Y-119815000D01*
X188700000Y-120575000D02*
X188700000Y-119825000D01*
X191250000Y-125025000D02*
X188200000Y-125025000D01*
X187700000Y-120575000D02*
X188700000Y-120575000D01*
X192010000Y-119815000D02*
X184390000Y-119815000D01*
X191250000Y-122075000D02*
X191250000Y-125025000D01*
X185150000Y-125025000D02*
X188200000Y-125025000D01*
X186200000Y-119825000D02*
X184400000Y-119825000D01*
X192000000Y-120575000D02*
X192000000Y-119825000D01*
X187700000Y-119825000D02*
X187700000Y-120575000D01*
X185150000Y-122075000D02*
X185150000Y-125025000D01*
X192000000Y-122075000D02*
X191250000Y-122075000D01*
X190200000Y-119825000D02*
X190200000Y-120575000D01*
X188700000Y-119825000D02*
X187700000Y-119825000D01*
X233720000Y-93470000D02*
X233720000Y-94950000D01*
X243080000Y-93470000D02*
X233720000Y-93470000D01*
X233000000Y-127500000D02*
X232400000Y-127800000D01*
X233720000Y-122950000D02*
X233720000Y-121550000D01*
X243080000Y-130030000D02*
X243080000Y-93470000D01*
X233720000Y-98450000D02*
X233720000Y-97050000D01*
X233720000Y-105450000D02*
X233720000Y-104050000D01*
X233720000Y-130030000D02*
X233720000Y-128550000D01*
X233720000Y-130030000D02*
X243080000Y-130030000D01*
X239800000Y-130030000D02*
X239800000Y-93470000D01*
X233720000Y-119450000D02*
X233720000Y-118050000D01*
X233720000Y-126450000D02*
X233720000Y-125050000D01*
X233720000Y-115950000D02*
X233720000Y-114550000D01*
X233720000Y-112450000D02*
X233720000Y-111050000D01*
X232400000Y-127800000D02*
X232400000Y-127200000D01*
X233720000Y-101950000D02*
X233720000Y-100550000D01*
X233720000Y-108950000D02*
X233720000Y-107550000D01*
X232400000Y-127200000D02*
X233000000Y-127500000D01*
X81772500Y-114987258D02*
X81772500Y-114512742D01*
X80727500Y-114987258D02*
X80727500Y-114512742D01*
X83460000Y-112510000D02*
X83460000Y-109490000D01*
X79250000Y-112510000D02*
X83460000Y-112510000D01*
X83460000Y-109490000D02*
X79250000Y-109490000D01*
X196300000Y-88560000D02*
X197700000Y-88560000D01*
X197700000Y-86240000D02*
X195800000Y-86240000D01*
X196460000Y-72600000D02*
X196460000Y-74550000D01*
X196460000Y-72600000D02*
X196460000Y-69150000D01*
X186340000Y-72600000D02*
X186340000Y-70650000D01*
X186340000Y-72600000D02*
X186340000Y-74550000D01*
X67350000Y-70650000D02*
X71650000Y-70650000D01*
X67350000Y-70650000D02*
X67350000Y-64950000D01*
X71650000Y-70650000D02*
X71650000Y-64950000D01*
X180162742Y-121922500D02*
X180637258Y-121922500D01*
X180162742Y-120877500D02*
X180637258Y-120877500D01*
X180162742Y-129077500D02*
X180637258Y-129077500D01*
X180162742Y-130122500D02*
X180637258Y-130122500D01*
X166670000Y-83190000D02*
X171870000Y-83190000D01*
X166670000Y-60270000D02*
X169270000Y-60270000D01*
X166670000Y-60270000D02*
X166670000Y-83190000D01*
X169270000Y-60270000D02*
X169270000Y-57670000D01*
X166670000Y-59000000D02*
X166670000Y-57670000D01*
X166670000Y-57670000D02*
X168000000Y-57670000D01*
X171870000Y-57670000D02*
X171870000Y-83190000D01*
X169270000Y-57670000D02*
X171870000Y-57670000D01*
X64060000Y-96982500D02*
X64060000Y-98182500D01*
X61950000Y-74062500D02*
X61650000Y-73462500D01*
X57040000Y-98182500D02*
X57040000Y-74262500D01*
X64060000Y-74262500D02*
X64060000Y-75462500D01*
X64060000Y-75462500D02*
X65760000Y-75462500D01*
X65760000Y-75462500D02*
X65760000Y-96982500D01*
X61650000Y-73462500D02*
X62250000Y-73462500D01*
X57040000Y-74262500D02*
X64060000Y-74262500D01*
X62250000Y-73462500D02*
X61950000Y-74062500D01*
X64060000Y-98182500D02*
X57040000Y-98182500D01*
X65760000Y-96982500D02*
X64060000Y-96982500D01*
X91910000Y-140830000D02*
X91910000Y-135630000D01*
X74070000Y-140830000D02*
X74070000Y-138230000D01*
X74070000Y-138230000D02*
X71470000Y-138230000D01*
X71470000Y-140830000D02*
X71470000Y-139500000D01*
X74070000Y-140830000D02*
X91910000Y-140830000D01*
X71470000Y-135630000D02*
X91910000Y-135630000D01*
X71470000Y-138230000D02*
X71470000Y-135630000D01*
X72800000Y-140830000D02*
X71470000Y-140830000D01*
X107270000Y-60270000D02*
X107270000Y-57670000D01*
X109870000Y-57670000D02*
X109870000Y-83190000D01*
X104670000Y-60270000D02*
X107270000Y-60270000D01*
X107270000Y-57670000D02*
X109870000Y-57670000D01*
X104670000Y-83190000D02*
X109870000Y-83190000D01*
X104670000Y-59000000D02*
X104670000Y-57670000D01*
X104670000Y-57670000D02*
X106000000Y-57670000D01*
X104670000Y-60270000D02*
X104670000Y-83190000D01*
X195840000Y-133787500D02*
X197240000Y-133787500D01*
X185340000Y-133787500D02*
X186740000Y-133787500D01*
X218320000Y-133787500D02*
X216840000Y-133787500D01*
X181760000Y-139867500D02*
X218320000Y-139867500D01*
X184590000Y-132467500D02*
X184290000Y-133067500D01*
X192340000Y-133787500D02*
X193740000Y-133787500D01*
X188840000Y-133787500D02*
X190240000Y-133787500D01*
X199340000Y-133787500D02*
X200740000Y-133787500D01*
X206340000Y-133787500D02*
X207740000Y-133787500D01*
X184290000Y-133067500D02*
X183990000Y-132467500D01*
X181760000Y-133787500D02*
X181760000Y-143147500D01*
X183990000Y-132467500D02*
X184590000Y-132467500D01*
X209840000Y-133787500D02*
X211240000Y-133787500D01*
X181760000Y-143147500D02*
X218320000Y-143147500D01*
X213340000Y-133787500D02*
X214740000Y-133787500D01*
X181760000Y-133787500D02*
X183240000Y-133787500D01*
X218320000Y-143147500D02*
X218320000Y-133787500D01*
X202840000Y-133787500D02*
X204240000Y-133787500D01*
X205560000Y-53212500D02*
X204160000Y-53212500D01*
X212560000Y-53212500D02*
X211160000Y-53212500D01*
X188060000Y-53212500D02*
X186660000Y-53212500D01*
X183080000Y-43852500D02*
X183080000Y-53212500D01*
X183080000Y-53212500D02*
X184560000Y-53212500D01*
X219640000Y-47132500D02*
X183080000Y-47132500D01*
X217110000Y-53932500D02*
X217410000Y-54532500D01*
X217410000Y-54532500D02*
X216810000Y-54532500D01*
X219640000Y-53212500D02*
X219640000Y-43852500D01*
X198560000Y-53212500D02*
X197160000Y-53212500D01*
X191560000Y-53212500D02*
X190160000Y-53212500D01*
X195060000Y-53212500D02*
X193660000Y-53212500D01*
X216060000Y-53212500D02*
X214660000Y-53212500D01*
X219640000Y-43852500D02*
X183080000Y-43852500D01*
X216810000Y-54532500D02*
X217110000Y-53932500D01*
X209060000Y-53212500D02*
X207660000Y-53212500D01*
X219640000Y-53212500D02*
X218160000Y-53212500D01*
X202060000Y-53212500D02*
X200660000Y-53212500D01*
X198659420Y-76710000D02*
X198940580Y-76710000D01*
X198659420Y-75690000D02*
X198940580Y-75690000D01*
X91802000Y-60850000D02*
X91802000Y-57090000D01*
X84982000Y-63100000D02*
X84982000Y-57090000D01*
X84982000Y-57090000D02*
X86242000Y-57090000D01*
X91802000Y-57090000D02*
X90542000Y-57090000D01*
X104670000Y-103670000D02*
X106000000Y-103670000D01*
X104670000Y-106270000D02*
X107270000Y-106270000D01*
X104670000Y-106270000D02*
X104670000Y-129190000D01*
X104670000Y-105000000D02*
X104670000Y-103670000D01*
X104670000Y-129190000D02*
X109870000Y-129190000D01*
X107270000Y-103670000D02*
X109870000Y-103670000D01*
X107270000Y-106270000D02*
X107270000Y-103670000D01*
X109870000Y-103670000D02*
X109870000Y-129190000D01*
X205450000Y-65450000D02*
X207250000Y-65450000D01*
X229800000Y-63200000D02*
X229800000Y-60250000D01*
X227250000Y-65450000D02*
X227250000Y-64700000D01*
X230850000Y-65750000D02*
X230850000Y-64500000D01*
X208750000Y-64700000D02*
X208750000Y-65450000D01*
X230550000Y-64700000D02*
X228750000Y-64700000D01*
X228750000Y-65450000D02*
X230550000Y-65450000D01*
X230560000Y-59490000D02*
X205440000Y-59490000D01*
X228750000Y-64700000D02*
X228750000Y-65450000D01*
X205450000Y-63200000D02*
X206200000Y-63200000D01*
X230560000Y-65460000D02*
X230560000Y-59490000D01*
X206200000Y-60250000D02*
X218000000Y-60250000D01*
X227250000Y-64700000D02*
X208750000Y-64700000D01*
X207250000Y-65450000D02*
X207250000Y-64700000D01*
X207250000Y-64700000D02*
X205450000Y-64700000D01*
X206200000Y-63200000D02*
X206200000Y-60250000D01*
X229800000Y-60250000D02*
X218000000Y-60250000D01*
X205450000Y-64700000D02*
X205450000Y-65450000D01*
X205440000Y-65460000D02*
X230560000Y-65460000D01*
X230550000Y-65450000D02*
X230550000Y-64700000D01*
X229600000Y-65750000D02*
X230850000Y-65750000D01*
X208750000Y-65450000D02*
X227250000Y-65450000D01*
X230550000Y-63200000D02*
X229800000Y-63200000D01*
X205440000Y-59490000D02*
X205440000Y-65460000D01*
X225235000Y-127870000D02*
X225235000Y-120130000D01*
X225235000Y-120130000D02*
X223000000Y-120130000D01*
X218765000Y-127870000D02*
X225235000Y-127870000D01*
X218765000Y-120130000D02*
X218765000Y-127870000D01*
X221000000Y-120130000D02*
X218765000Y-120130000D01*
X221000000Y-120130000D02*
G75*
G03*
X223000000Y-120130000I1000000J0D01*
G01*
X180637258Y-118877500D02*
X180162742Y-118877500D01*
X180637258Y-119922500D02*
X180162742Y-119922500D01*
X73740000Y-53010000D02*
X73740000Y-51310000D01*
X72540000Y-51310000D02*
X72540000Y-44290000D01*
X96660000Y-49200000D02*
X97260000Y-48900000D01*
X97260000Y-48900000D02*
X97260000Y-49500000D01*
X95260000Y-53010000D02*
X73740000Y-53010000D01*
X96460000Y-44290000D02*
X96460000Y-51310000D01*
X72540000Y-44290000D02*
X96460000Y-44290000D01*
X97260000Y-49500000D02*
X96660000Y-49200000D01*
X96460000Y-51310000D02*
X95260000Y-51310000D01*
X73740000Y-51310000D02*
X72540000Y-51310000D01*
X95260000Y-51310000D02*
X95260000Y-53010000D01*
X203200000Y-65750000D02*
X204450000Y-65750000D01*
X200850000Y-64700000D02*
X182350000Y-64700000D01*
X179040000Y-59490000D02*
X179040000Y-65460000D01*
X204160000Y-65460000D02*
X204160000Y-59490000D01*
X200850000Y-65450000D02*
X200850000Y-64700000D01*
X204450000Y-65750000D02*
X204450000Y-64500000D01*
X179050000Y-64700000D02*
X179050000Y-65450000D01*
X179800000Y-60250000D02*
X191600000Y-60250000D01*
X204150000Y-65450000D02*
X204150000Y-64700000D01*
X180850000Y-65450000D02*
X180850000Y-64700000D01*
X180850000Y-64700000D02*
X179050000Y-64700000D01*
X179050000Y-63200000D02*
X179800000Y-63200000D01*
X182350000Y-64700000D02*
X182350000Y-65450000D01*
X182350000Y-65450000D02*
X200850000Y-65450000D01*
X202350000Y-65450000D02*
X204150000Y-65450000D01*
X204160000Y-59490000D02*
X179040000Y-59490000D01*
X202350000Y-64700000D02*
X202350000Y-65450000D01*
X204150000Y-64700000D02*
X202350000Y-64700000D01*
X179800000Y-63200000D02*
X179800000Y-60250000D01*
X203400000Y-63200000D02*
X203400000Y-60250000D01*
X179040000Y-65460000D02*
X204160000Y-65460000D01*
X204150000Y-63200000D02*
X203400000Y-63200000D01*
X179050000Y-65450000D02*
X180850000Y-65450000D01*
X203400000Y-60250000D02*
X191600000Y-60250000D01*
X96200000Y-88840000D02*
X94300000Y-88840000D01*
X94800000Y-91160000D02*
X96200000Y-91160000D01*
X197200000Y-119825000D02*
X195400000Y-119825000D01*
X197200000Y-120575000D02*
X197200000Y-119825000D01*
X213000000Y-119825000D02*
X211200000Y-119825000D01*
X196350000Y-119525000D02*
X195100000Y-119525000D01*
X213000000Y-120575000D02*
X213000000Y-119825000D01*
X213010000Y-125785000D02*
X213010000Y-119815000D01*
X211200000Y-120575000D02*
X213000000Y-120575000D01*
X212250000Y-122075000D02*
X212250000Y-125025000D01*
X213000000Y-122075000D02*
X212250000Y-122075000D01*
X209700000Y-119825000D02*
X198700000Y-119825000D01*
X195390000Y-119815000D02*
X195390000Y-125785000D01*
X195400000Y-119825000D02*
X195400000Y-120575000D01*
X195400000Y-122075000D02*
X196150000Y-122075000D01*
X211200000Y-119825000D02*
X211200000Y-120575000D01*
X196150000Y-125025000D02*
X204200000Y-125025000D01*
X213010000Y-119815000D02*
X195390000Y-119815000D01*
X195390000Y-125785000D02*
X213010000Y-125785000D01*
X209700000Y-120575000D02*
X209700000Y-119825000D01*
X195400000Y-120575000D02*
X197200000Y-120575000D01*
X198700000Y-119825000D02*
X198700000Y-120575000D01*
X212250000Y-125025000D02*
X204200000Y-125025000D01*
X195100000Y-119525000D02*
X195100000Y-120775000D01*
X196150000Y-122075000D02*
X196150000Y-125025000D01*
X198700000Y-120575000D02*
X209700000Y-120575000D01*
X62884000Y-57090000D02*
X64144000Y-57090000D01*
X62884000Y-63100000D02*
X62884000Y-57090000D01*
X69704000Y-57090000D02*
X68444000Y-57090000D01*
X69704000Y-60850000D02*
X69704000Y-57090000D01*
X180162742Y-122677500D02*
X180637258Y-122677500D01*
X180162742Y-123722500D02*
X180637258Y-123722500D01*
X60350000Y-70650000D02*
X64650000Y-70650000D01*
X60350000Y-70650000D02*
X60350000Y-64950000D01*
X64650000Y-70650000D02*
X64650000Y-64950000D01*
X92062742Y-91122500D02*
X92537258Y-91122500D01*
X92062742Y-90077500D02*
X92537258Y-90077500D01*
X77616000Y-57090000D02*
X78876000Y-57090000D01*
X84436000Y-60850000D02*
X84436000Y-57090000D01*
X84436000Y-57090000D02*
X83176000Y-57090000D01*
X77616000Y-63100000D02*
X77616000Y-57090000D01*
X43252500Y-92320000D02*
X52612500Y-92320000D01*
X53332500Y-58290000D02*
X53932500Y-57990000D01*
X53932500Y-57990000D02*
X53932500Y-58590000D01*
X52612500Y-80340000D02*
X52612500Y-81740000D01*
X52612500Y-92320000D02*
X52612500Y-90840000D01*
X52612500Y-83840000D02*
X52612500Y-85240000D01*
X52612500Y-87340000D02*
X52612500Y-88740000D01*
X52612500Y-66340000D02*
X52612500Y-67740000D01*
X52612500Y-62840000D02*
X52612500Y-64240000D01*
X52612500Y-55760000D02*
X52612500Y-57240000D01*
X52612500Y-73340000D02*
X52612500Y-74740000D01*
X43252500Y-55760000D02*
X43252500Y-92320000D01*
X52612500Y-59340000D02*
X52612500Y-60740000D01*
X52612500Y-55760000D02*
X43252500Y-55760000D01*
X52612500Y-69840000D02*
X52612500Y-71240000D01*
X46532500Y-55760000D02*
X46532500Y-92320000D01*
X52612500Y-76840000D02*
X52612500Y-78240000D01*
X53932500Y-58590000D02*
X53332500Y-58290000D01*
X186877500Y-56637258D02*
X186877500Y-56162742D01*
X187922500Y-56637258D02*
X187922500Y-56162742D01*
X62410000Y-60850000D02*
X62410000Y-57090000D01*
X55590000Y-63100000D02*
X55590000Y-57090000D01*
X62410000Y-57090000D02*
X61150000Y-57090000D01*
X55590000Y-57090000D02*
X56850000Y-57090000D01*
X52612500Y-117840000D02*
X52612500Y-119240000D01*
X52612500Y-93260000D02*
X43252500Y-93260000D01*
X52612500Y-129820000D02*
X52612500Y-128340000D01*
X52612500Y-103840000D02*
X52612500Y-105240000D01*
X53932500Y-95490000D02*
X53932500Y-96090000D01*
X43252500Y-93260000D02*
X43252500Y-129820000D01*
X43252500Y-129820000D02*
X52612500Y-129820000D01*
X52612500Y-107340000D02*
X52612500Y-108740000D01*
X52612500Y-114340000D02*
X52612500Y-115740000D01*
X52612500Y-121340000D02*
X52612500Y-122740000D01*
X52612500Y-93260000D02*
X52612500Y-94740000D01*
X46532500Y-93260000D02*
X46532500Y-129820000D01*
X52612500Y-96840000D02*
X52612500Y-98240000D01*
X52612500Y-100340000D02*
X52612500Y-101740000D01*
X53932500Y-96090000D02*
X53332500Y-95790000D01*
X53332500Y-95790000D02*
X53932500Y-95490000D01*
X52612500Y-110840000D02*
X52612500Y-112240000D01*
X52612500Y-124840000D02*
X52612500Y-126240000D01*
X75600000Y-99340000D02*
X71840000Y-99340000D01*
X77850000Y-106160000D02*
X71840000Y-106160000D01*
X71840000Y-99340000D02*
X71840000Y-100600000D01*
X71840000Y-106160000D02*
X71840000Y-104900000D01*
X79150000Y-70650000D02*
X79150000Y-64950000D01*
X74850000Y-70650000D02*
X79150000Y-70650000D01*
X74850000Y-70650000D02*
X74850000Y-64950000D01*
X214877500Y-56162742D02*
X214877500Y-56637258D01*
X215922500Y-56162742D02*
X215922500Y-56637258D01*
X88850000Y-70650000D02*
X93150000Y-70650000D01*
X88850000Y-70650000D02*
X88850000Y-64950000D01*
X93150000Y-70650000D02*
X93150000Y-64950000D01*
X85550000Y-105150000D02*
X79850000Y-105150000D01*
X85550000Y-100850000D02*
X79850000Y-100850000D01*
X85550000Y-105150000D02*
X85550000Y-100850000D01*
X86650000Y-71050000D02*
X86650000Y-65350000D01*
X82350000Y-71050000D02*
X86650000Y-71050000D01*
X82350000Y-71050000D02*
X82350000Y-65350000D01*
X82477500Y-114512742D02*
X82477500Y-114987258D01*
X83522500Y-114512742D02*
X83522500Y-114987258D01*
X168270000Y-105670000D02*
X170870000Y-105670000D01*
X165670000Y-108270000D02*
X165670000Y-131190000D01*
X168270000Y-108270000D02*
X168270000Y-105670000D01*
X165670000Y-131190000D02*
X170870000Y-131190000D01*
X165670000Y-107000000D02*
X165670000Y-105670000D01*
X165670000Y-108270000D02*
X168270000Y-108270000D01*
X165670000Y-105670000D02*
X167000000Y-105670000D01*
X170870000Y-105670000D02*
X170870000Y-131190000D01*
X93850000Y-70650000D02*
X93850000Y-64950000D01*
X93850000Y-70650000D02*
X98150000Y-70650000D01*
X98150000Y-70650000D02*
X98150000Y-64950000D01*
X180637258Y-128322500D02*
X180162742Y-128322500D01*
X180637258Y-127277500D02*
X180162742Y-127277500D01*
X220855000Y-141405000D02*
X231135000Y-141405000D01*
X220855000Y-132044000D02*
X231135000Y-132044000D01*
X220615000Y-141465000D02*
X220615000Y-142205000D01*
X227308000Y-138328000D02*
X227261000Y-138374000D01*
X229810000Y-136236000D02*
X229763000Y-136282000D01*
X220615000Y-142205000D02*
X221115000Y-142205000D01*
X220855000Y-141965000D02*
X231135000Y-141965000D01*
X227501000Y-138544000D02*
X227466000Y-138579000D01*
X220855000Y-139905000D02*
X231135000Y-139905000D01*
X231135000Y-132044000D02*
X231135000Y-141965000D01*
X220855000Y-135004000D02*
X231135000Y-135004000D01*
X229605000Y-136030000D02*
X229570000Y-136066000D01*
X220855000Y-132044000D02*
X220855000Y-141965000D01*
X224139000Y-135770000D02*
G75*
G03*
X222771958Y-135769573I-684001J-1534993D01*
G01*
X221920000Y-136621000D02*
G75*
G03*
X221919573Y-137988042I1534993J-684001D01*
G01*
X223455000Y-138985000D02*
G75*
G03*
X224138318Y-138839756I0J1680000D01*
G01*
X224990001Y-137989000D02*
G75*
G03*
X224990427Y-136621958I-1535001J684000D01*
G01*
X222771000Y-138840000D02*
G75*
G03*
X223483805Y-138985253I683999J1535001D01*
G01*
X230215000Y-137305000D02*
G75*
G03*
X230215000Y-137305000I-1680000J0D01*
G01*
X92348000Y-63100000D02*
X92348000Y-57090000D01*
X99168000Y-60850000D02*
X99168000Y-57090000D01*
X92348000Y-57090000D02*
X93608000Y-57090000D01*
X99168000Y-57090000D02*
X97908000Y-57090000D01*
X68650000Y-125950000D02*
X72950000Y-125950000D01*
X72950000Y-125950000D02*
X72950000Y-120250000D01*
X68650000Y-125950000D02*
X68650000Y-120250000D01*
X180162742Y-125477500D02*
X180637258Y-125477500D01*
X180162742Y-126522500D02*
X180637258Y-126522500D01*
X77750000Y-98410000D02*
X71740000Y-98410000D01*
X71740000Y-91590000D02*
X71740000Y-92850000D01*
X75500000Y-91590000D02*
X71740000Y-91590000D01*
X71740000Y-98410000D02*
X71740000Y-97150000D01*
X85640580Y-120990000D02*
X85359420Y-120990000D01*
X85640580Y-122010000D02*
X85359420Y-122010000D01*
X84500000Y-112510000D02*
X88710000Y-112510000D01*
X88710000Y-109490000D02*
X84500000Y-109490000D01*
X88710000Y-112510000D02*
X88710000Y-109490000D01*
X239800000Y-92240000D02*
X239800000Y-55680000D01*
X232400000Y-89410000D02*
X233000000Y-89710000D01*
X233720000Y-71160000D02*
X233720000Y-69760000D01*
X233720000Y-55680000D02*
X233720000Y-57160000D01*
X233720000Y-92240000D02*
X243080000Y-92240000D01*
X243080000Y-92240000D02*
X243080000Y-55680000D01*
X233720000Y-60660000D02*
X233720000Y-59260000D01*
X243080000Y-55680000D02*
X233720000Y-55680000D01*
X233720000Y-85160000D02*
X233720000Y-83760000D01*
X233720000Y-64160000D02*
X233720000Y-62760000D01*
X233720000Y-78160000D02*
X233720000Y-76760000D01*
X233720000Y-74660000D02*
X233720000Y-73260000D01*
X233720000Y-88660000D02*
X233720000Y-87260000D01*
X233720000Y-67660000D02*
X233720000Y-66260000D01*
X233720000Y-81660000D02*
X233720000Y-80260000D01*
X233720000Y-92240000D02*
X233720000Y-90760000D01*
X233000000Y-89710000D02*
X232400000Y-90010000D01*
X232400000Y-90010000D02*
X232400000Y-89410000D01*
X194922500Y-56437258D02*
X194922500Y-55962742D01*
X193877500Y-56437258D02*
X193877500Y-55962742D01*
X70250000Y-63100000D02*
X70250000Y-57090000D01*
X77070000Y-57090000D02*
X75810000Y-57090000D01*
X77070000Y-60850000D02*
X77070000Y-57090000D01*
X70250000Y-57090000D02*
X71510000Y-57090000D01*
X209122500Y-56162742D02*
X209122500Y-56637258D01*
X208077500Y-56162742D02*
X208077500Y-56637258D01*
X66860000Y-51610000D02*
X66860000Y-53310000D01*
X53260000Y-51610000D02*
X52060000Y-51610000D01*
X66860000Y-53310000D02*
X53260000Y-53310000D01*
X68260000Y-49500000D02*
X68860000Y-49200000D01*
X68060000Y-51610000D02*
X66860000Y-51610000D01*
X53260000Y-53310000D02*
X53260000Y-51610000D01*
X52060000Y-51610000D02*
X52060000Y-44590000D01*
X68860000Y-49800000D02*
X68260000Y-49500000D01*
X68860000Y-49200000D02*
X68860000Y-49800000D01*
X52060000Y-44590000D02*
X68060000Y-44590000D01*
X68060000Y-44590000D02*
X68060000Y-51610000D01*
X64060000Y-105722500D02*
X64060000Y-106922500D01*
X61950000Y-105522500D02*
X61650000Y-104922500D01*
X62250000Y-104922500D02*
X61950000Y-105522500D01*
X65760000Y-120522500D02*
X64060000Y-120522500D01*
X61650000Y-104922500D02*
X62250000Y-104922500D01*
X64060000Y-106922500D02*
X65760000Y-106922500D01*
X64060000Y-121722500D02*
X57040000Y-121722500D01*
X57040000Y-121722500D02*
X57040000Y-105722500D01*
X65760000Y-106922500D02*
X65760000Y-120522500D01*
X64060000Y-120522500D02*
X64060000Y-121722500D01*
X57040000Y-105722500D02*
X64060000Y-105722500D01*
M02*
