%TF.GenerationSoftware,KiCad,Pcbnew,6.0.8-f2edbf62ab~116~ubuntu20.04.1*%
%TF.CreationDate,2022-12-03T19:21:23+01:00*%
%TF.ProjectId,shield_chm36VA,73686965-6c64-45f6-9368-6d333656412e,rev?*%
%TF.SameCoordinates,Original*%
%TF.FileFunction,Copper,L1,Top*%
%TF.FilePolarity,Positive*%
%FSLAX46Y46*%
G04 Gerber Fmt 4.6, Leading zero omitted, Abs format (unit mm)*
G04 Created by KiCad (PCBNEW 6.0.8-f2edbf62ab~116~ubuntu20.04.1) date 2022-12-03 19:21:23*
%MOMM*%
%LPD*%
G01*
G04 APERTURE LIST*
G04 Aperture macros list*
%AMRoundRect*
0 Rectangle with rounded corners*
0 $1 Rounding radius*
0 $2 $3 $4 $5 $6 $7 $8 $9 X,Y pos of 4 corners*
0 Add a 4 corners polygon primitive as box body*
4,1,4,$2,$3,$4,$5,$6,$7,$8,$9,$2,$3,0*
0 Add four circle primitives for the rounded corners*
1,1,$1+$1,$2,$3*
1,1,$1+$1,$4,$5*
1,1,$1+$1,$6,$7*
1,1,$1+$1,$8,$9*
0 Add four rect primitives between the rounded corners*
20,1,$1+$1,$2,$3,$4,$5,0*
20,1,$1+$1,$4,$5,$6,$7,0*
20,1,$1+$1,$6,$7,$8,$9,0*
20,1,$1+$1,$8,$9,$2,$3,0*%
G04 Aperture macros list end*
%TA.AperFunction,ComponentPad*%
%ADD10R,2.000000X2.000000*%
%TD*%
%TA.AperFunction,ComponentPad*%
%ADD11C,2.000000*%
%TD*%
%TA.AperFunction,SMDPad,CuDef*%
%ADD12R,2.500000X2.300000*%
%TD*%
%TA.AperFunction,SMDPad,CuDef*%
%ADD13RoundRect,0.200000X0.200000X0.275000X-0.200000X0.275000X-0.200000X-0.275000X0.200000X-0.275000X0*%
%TD*%
%TA.AperFunction,SMDPad,CuDef*%
%ADD14R,2.200000X1.200000*%
%TD*%
%TA.AperFunction,SMDPad,CuDef*%
%ADD15R,6.400000X5.800000*%
%TD*%
%TA.AperFunction,ComponentPad*%
%ADD16R,1.700000X1.700000*%
%TD*%
%TA.AperFunction,ComponentPad*%
%ADD17O,1.700000X1.700000*%
%TD*%
%TA.AperFunction,ComponentPad*%
%ADD18RoundRect,0.250000X0.600000X0.750000X-0.600000X0.750000X-0.600000X-0.750000X0.600000X-0.750000X0*%
%TD*%
%TA.AperFunction,ComponentPad*%
%ADD19O,1.700000X2.000000*%
%TD*%
%TA.AperFunction,ComponentPad*%
%ADD20RoundRect,0.250000X-0.600000X-0.750000X0.600000X-0.750000X0.600000X0.750000X-0.600000X0.750000X0*%
%TD*%
%TA.AperFunction,ComponentPad*%
%ADD21R,3.600000X1.800000*%
%TD*%
%TA.AperFunction,ComponentPad*%
%ADD22O,3.600000X1.800000*%
%TD*%
%TA.AperFunction,SMDPad,CuDef*%
%ADD23RoundRect,0.200000X0.275000X-0.200000X0.275000X0.200000X-0.275000X0.200000X-0.275000X-0.200000X0*%
%TD*%
%TA.AperFunction,SMDPad,CuDef*%
%ADD24RoundRect,0.250000X0.412500X0.925000X-0.412500X0.925000X-0.412500X-0.925000X0.412500X-0.925000X0*%
%TD*%
%TA.AperFunction,SMDPad,CuDef*%
%ADD25R,0.650000X0.400000*%
%TD*%
%TA.AperFunction,SMDPad,CuDef*%
%ADD26RoundRect,0.150000X-0.150000X0.825000X-0.150000X-0.825000X0.150000X-0.825000X0.150000X0.825000X0*%
%TD*%
%TA.AperFunction,SMDPad,CuDef*%
%ADD27R,2.300000X2.500000*%
%TD*%
%TA.AperFunction,SMDPad,CuDef*%
%ADD28RoundRect,0.200000X-0.200000X-0.275000X0.200000X-0.275000X0.200000X0.275000X-0.200000X0.275000X0*%
%TD*%
%TA.AperFunction,ComponentPad*%
%ADD29RoundRect,0.250001X-1.099999X1.099999X-1.099999X-1.099999X1.099999X-1.099999X1.099999X1.099999X0*%
%TD*%
%TA.AperFunction,ComponentPad*%
%ADD30C,2.700000*%
%TD*%
%TA.AperFunction,ComponentPad*%
%ADD31R,1.800000X3.600000*%
%TD*%
%TA.AperFunction,ComponentPad*%
%ADD32O,1.800000X3.600000*%
%TD*%
%TA.AperFunction,SMDPad,CuDef*%
%ADD33RoundRect,0.225000X-0.225000X-0.250000X0.225000X-0.250000X0.225000X0.250000X-0.225000X0.250000X0*%
%TD*%
%TA.AperFunction,SMDPad,CuDef*%
%ADD34R,1.500000X2.000000*%
%TD*%
%TA.AperFunction,SMDPad,CuDef*%
%ADD35R,3.800000X2.000000*%
%TD*%
%TA.AperFunction,ComponentPad*%
%ADD36RoundRect,0.250000X0.600000X0.725000X-0.600000X0.725000X-0.600000X-0.725000X0.600000X-0.725000X0*%
%TD*%
%TA.AperFunction,ComponentPad*%
%ADD37O,1.700000X1.950000*%
%TD*%
%TA.AperFunction,SMDPad,CuDef*%
%ADD38R,2.000000X1.780000*%
%TD*%
%TA.AperFunction,ComponentPad*%
%ADD39RoundRect,0.250001X1.099999X1.099999X-1.099999X1.099999X-1.099999X-1.099999X1.099999X-1.099999X0*%
%TD*%
%TA.AperFunction,ComponentPad*%
%ADD40RoundRect,0.250000X-0.600000X-0.725000X0.600000X-0.725000X0.600000X0.725000X-0.600000X0.725000X0*%
%TD*%
%TA.AperFunction,SMDPad,CuDef*%
%ADD41R,2.000000X1.500000*%
%TD*%
%TA.AperFunction,SMDPad,CuDef*%
%ADD42R,2.000000X3.800000*%
%TD*%
%TA.AperFunction,SMDPad,CuDef*%
%ADD43RoundRect,0.200000X-0.275000X0.200000X-0.275000X-0.200000X0.275000X-0.200000X0.275000X0.200000X0*%
%TD*%
%TA.AperFunction,ComponentPad*%
%ADD44R,2.600000X2.600000*%
%TD*%
%TA.AperFunction,ComponentPad*%
%ADD45C,2.600000*%
%TD*%
%TA.AperFunction,SMDPad,CuDef*%
%ADD46RoundRect,0.225000X0.225000X0.250000X-0.225000X0.250000X-0.225000X-0.250000X0.225000X-0.250000X0*%
%TD*%
%TA.AperFunction,ViaPad*%
%ADD47C,0.800000*%
%TD*%
%TA.AperFunction,ViaPad*%
%ADD48C,0.600000*%
%TD*%
%TA.AperFunction,Conductor*%
%ADD49C,0.300000*%
%TD*%
%TA.AperFunction,Conductor*%
%ADD50C,1.500000*%
%TD*%
%TA.AperFunction,Conductor*%
%ADD51C,2.000000*%
%TD*%
%TA.AperFunction,Conductor*%
%ADD52C,0.200000*%
%TD*%
%TA.AperFunction,Conductor*%
%ADD53C,1.000000*%
%TD*%
%TA.AperFunction,Conductor*%
%ADD54C,0.250000*%
%TD*%
%TA.AperFunction,Conductor*%
%ADD55C,0.500000*%
%TD*%
%TA.AperFunction,Conductor*%
%ADD56C,0.400000*%
%TD*%
G04 APERTURE END LIST*
D10*
X86200000Y-80000000D03*
D11*
X93800000Y-80000000D03*
D12*
X84150000Y-94500000D03*
X79850000Y-94500000D03*
X81650000Y-119800000D03*
X77350000Y-119800000D03*
D13*
X217825000Y-118500000D03*
X216175000Y-118500000D03*
D14*
X85275000Y-114495000D03*
D15*
X91575000Y-116775000D03*
D14*
X85275000Y-119055000D03*
D16*
X209920000Y-81540000D03*
D17*
X209920000Y-79000000D03*
X212460000Y-81540000D03*
X212460000Y-79000000D03*
X215000000Y-81540000D03*
X215000000Y-79000000D03*
X217540000Y-81540000D03*
X217540000Y-79000000D03*
X220080000Y-81540000D03*
X220080000Y-79000000D03*
D16*
X210120000Y-95275000D03*
D17*
X210120000Y-92735000D03*
X212660000Y-95275000D03*
X212660000Y-92735000D03*
X215200000Y-95275000D03*
X215200000Y-92735000D03*
X217740000Y-95275000D03*
X217740000Y-92735000D03*
X220280000Y-95275000D03*
X220280000Y-92735000D03*
D18*
X228000000Y-49000000D03*
D19*
X225500000Y-49000000D03*
D20*
X186950000Y-122275000D03*
D19*
X189450000Y-122275000D03*
D21*
X235000000Y-127500000D03*
D22*
X235000000Y-124000000D03*
X235000000Y-120500000D03*
X235000000Y-117000000D03*
X235000000Y-113500000D03*
X235000000Y-110000000D03*
X235000000Y-106500000D03*
X235000000Y-103000000D03*
X235000000Y-99500000D03*
X235000000Y-96000000D03*
D23*
X81250000Y-115575000D03*
X81250000Y-113925000D03*
D24*
X82537500Y-111000000D03*
X79462500Y-111000000D03*
D25*
X196050000Y-86750000D03*
X196050000Y-87400000D03*
X196050000Y-88050000D03*
X197950000Y-88050000D03*
X197950000Y-87400000D03*
X197950000Y-86750000D03*
D26*
X195845000Y-70125000D03*
X194575000Y-70125000D03*
X193305000Y-70125000D03*
X192035000Y-70125000D03*
X190765000Y-70125000D03*
X189495000Y-70125000D03*
X188225000Y-70125000D03*
X186955000Y-70125000D03*
X186955000Y-75075000D03*
X188225000Y-75075000D03*
X189495000Y-75075000D03*
X190765000Y-75075000D03*
X192035000Y-75075000D03*
X193305000Y-75075000D03*
X194575000Y-75075000D03*
X195845000Y-75075000D03*
D27*
X69500000Y-69250000D03*
X69500000Y-64950000D03*
D28*
X179575000Y-121400000D03*
X181225000Y-121400000D03*
X179575000Y-129600000D03*
X181225000Y-129600000D03*
D16*
X168000000Y-59000000D03*
D17*
X170540000Y-59000000D03*
X168000000Y-61540000D03*
X170540000Y-61540000D03*
X168000000Y-64080000D03*
X170540000Y-64080000D03*
X168000000Y-66620000D03*
X170540000Y-66620000D03*
X168000000Y-69160000D03*
X170540000Y-69160000D03*
X168000000Y-71700000D03*
X170540000Y-71700000D03*
X168000000Y-74240000D03*
X170540000Y-74240000D03*
X168000000Y-76780000D03*
X170540000Y-76780000D03*
X168000000Y-79320000D03*
X170540000Y-79320000D03*
X168000000Y-81860000D03*
X170540000Y-81860000D03*
D29*
X61950000Y-76322500D03*
D30*
X61950000Y-80282500D03*
X61950000Y-84242500D03*
X61950000Y-88202500D03*
X61950000Y-92162500D03*
X61950000Y-96122500D03*
D16*
X72800000Y-139500000D03*
D17*
X72800000Y-136960000D03*
X75340000Y-139500000D03*
X75340000Y-136960000D03*
X77880000Y-139500000D03*
X77880000Y-136960000D03*
X80420000Y-139500000D03*
X80420000Y-136960000D03*
X82960000Y-139500000D03*
X82960000Y-136960000D03*
X85500000Y-139500000D03*
X85500000Y-136960000D03*
X88040000Y-139500000D03*
X88040000Y-136960000D03*
X90580000Y-139500000D03*
X90580000Y-136960000D03*
D16*
X106000000Y-59000000D03*
D17*
X108540000Y-59000000D03*
X106000000Y-61540000D03*
X108540000Y-61540000D03*
X106000000Y-64080000D03*
X108540000Y-64080000D03*
X106000000Y-66620000D03*
X108540000Y-66620000D03*
X106000000Y-69160000D03*
X108540000Y-69160000D03*
X106000000Y-71700000D03*
X108540000Y-71700000D03*
X106000000Y-74240000D03*
X108540000Y-74240000D03*
X106000000Y-76780000D03*
X108540000Y-76780000D03*
X106000000Y-79320000D03*
X108540000Y-79320000D03*
X106000000Y-81860000D03*
X108540000Y-81860000D03*
D31*
X184290000Y-135067500D03*
D32*
X187790000Y-135067500D03*
X191290000Y-135067500D03*
X194790000Y-135067500D03*
X198290000Y-135067500D03*
X201790000Y-135067500D03*
X205290000Y-135067500D03*
X208790000Y-135067500D03*
X212290000Y-135067500D03*
X215790000Y-135067500D03*
D31*
X217110000Y-51932500D03*
D32*
X213610000Y-51932500D03*
X210110000Y-51932500D03*
X206610000Y-51932500D03*
X203110000Y-51932500D03*
X199610000Y-51932500D03*
X196110000Y-51932500D03*
X192610000Y-51932500D03*
X189110000Y-51932500D03*
X185610000Y-51932500D03*
D33*
X198025000Y-76200000D03*
X199575000Y-76200000D03*
D34*
X86092000Y-62150000D03*
X88392000Y-62150000D03*
X90692000Y-62150000D03*
D35*
X88392000Y-55850000D03*
D16*
X106000000Y-105000000D03*
D17*
X108540000Y-105000000D03*
X106000000Y-107540000D03*
X108540000Y-107540000D03*
X106000000Y-110080000D03*
X108540000Y-110080000D03*
X106000000Y-112620000D03*
X108540000Y-112620000D03*
X106000000Y-115160000D03*
X108540000Y-115160000D03*
X106000000Y-117700000D03*
X108540000Y-117700000D03*
X106000000Y-120240000D03*
X108540000Y-120240000D03*
X106000000Y-122780000D03*
X108540000Y-122780000D03*
X106000000Y-125320000D03*
X108540000Y-125320000D03*
X106000000Y-127860000D03*
X108540000Y-127860000D03*
D36*
X228000000Y-63000000D03*
D37*
X225500000Y-63000000D03*
X223000000Y-63000000D03*
X220500000Y-63000000D03*
X218000000Y-63000000D03*
X215500000Y-63000000D03*
X213000000Y-63000000D03*
X210500000Y-63000000D03*
X208000000Y-63000000D03*
D38*
X217235000Y-121460000D03*
X217235000Y-124000000D03*
X217235000Y-126540000D03*
X226765000Y-126540000D03*
X226765000Y-124000000D03*
X226765000Y-121460000D03*
D13*
X181225000Y-119400000D03*
X179575000Y-119400000D03*
D39*
X94400000Y-49200000D03*
D30*
X90440000Y-49200000D03*
X86480000Y-49200000D03*
X82520000Y-49200000D03*
X78560000Y-49200000D03*
X74600000Y-49200000D03*
D36*
X201600000Y-63000000D03*
D37*
X199100000Y-63000000D03*
X196600000Y-63000000D03*
X194100000Y-63000000D03*
X191600000Y-63000000D03*
X189100000Y-63000000D03*
X186600000Y-63000000D03*
X184100000Y-63000000D03*
X181600000Y-63000000D03*
D25*
X94550000Y-89350000D03*
X94550000Y-90000000D03*
X94550000Y-90650000D03*
X96450000Y-90650000D03*
X96450000Y-90000000D03*
X96450000Y-89350000D03*
D40*
X197950000Y-122275000D03*
D37*
X200450000Y-122275000D03*
X202950000Y-122275000D03*
X205450000Y-122275000D03*
X207950000Y-122275000D03*
X210450000Y-122275000D03*
D34*
X63994000Y-62150000D03*
X66294000Y-62150000D03*
X68594000Y-62150000D03*
D35*
X66294000Y-55850000D03*
D28*
X179575000Y-123200000D03*
X181225000Y-123200000D03*
D27*
X62500000Y-69250000D03*
X62500000Y-64950000D03*
D28*
X91475000Y-90600000D03*
X93125000Y-90600000D03*
D34*
X78726000Y-62150000D03*
X81026000Y-62150000D03*
X83326000Y-62150000D03*
D35*
X81026000Y-55850000D03*
D21*
X51332500Y-58290000D03*
D22*
X51332500Y-61790000D03*
X51332500Y-65290000D03*
X51332500Y-68790000D03*
X51332500Y-72290000D03*
X51332500Y-75790000D03*
X51332500Y-79290000D03*
X51332500Y-82790000D03*
X51332500Y-86290000D03*
X51332500Y-89790000D03*
D23*
X187400000Y-57225000D03*
X187400000Y-55575000D03*
D34*
X56700000Y-62150000D03*
X59000000Y-62150000D03*
X61300000Y-62150000D03*
D35*
X59000000Y-55850000D03*
D21*
X51332500Y-95790000D03*
D22*
X51332500Y-99290000D03*
X51332500Y-102790000D03*
X51332500Y-106290000D03*
X51332500Y-109790000D03*
X51332500Y-113290000D03*
X51332500Y-116790000D03*
X51332500Y-120290000D03*
X51332500Y-123790000D03*
X51332500Y-127290000D03*
D41*
X76900000Y-105050000D03*
X76900000Y-102750000D03*
X76900000Y-100450000D03*
D42*
X70600000Y-102750000D03*
D27*
X77000000Y-69250000D03*
X77000000Y-64950000D03*
D43*
X215400000Y-55575000D03*
X215400000Y-57225000D03*
D27*
X91000000Y-69250000D03*
X91000000Y-64950000D03*
D12*
X84150000Y-103000000D03*
X79850000Y-103000000D03*
D27*
X84500000Y-69650000D03*
X84500000Y-65350000D03*
D43*
X83000000Y-113925000D03*
X83000000Y-115575000D03*
D16*
X167000000Y-107000000D03*
D17*
X169540000Y-107000000D03*
X167000000Y-109540000D03*
X169540000Y-109540000D03*
X167000000Y-112080000D03*
X169540000Y-112080000D03*
X167000000Y-114620000D03*
X169540000Y-114620000D03*
X167000000Y-117160000D03*
X169540000Y-117160000D03*
X167000000Y-119700000D03*
X169540000Y-119700000D03*
X167000000Y-122240000D03*
X169540000Y-122240000D03*
X167000000Y-124780000D03*
X169540000Y-124780000D03*
X167000000Y-127320000D03*
X169540000Y-127320000D03*
X167000000Y-129860000D03*
X169540000Y-129860000D03*
D27*
X96000000Y-69250000D03*
X96000000Y-64950000D03*
D13*
X181225000Y-127800000D03*
X179575000Y-127800000D03*
D44*
X223455000Y-137305000D03*
D45*
X228535000Y-137305000D03*
D34*
X93458000Y-62150000D03*
X95758000Y-62150000D03*
X98058000Y-62150000D03*
D35*
X95758000Y-55850000D03*
D27*
X70800000Y-124550000D03*
X70800000Y-120250000D03*
D28*
X179575000Y-126000000D03*
X181225000Y-126000000D03*
D41*
X76800000Y-97300000D03*
X76800000Y-95000000D03*
X76800000Y-92700000D03*
D42*
X70500000Y-95000000D03*
D46*
X86275000Y-121500000D03*
X84725000Y-121500000D03*
D24*
X87787500Y-111000000D03*
X84712500Y-111000000D03*
D21*
X235000000Y-89710000D03*
D22*
X235000000Y-86210000D03*
X235000000Y-82710000D03*
X235000000Y-79210000D03*
X235000000Y-75710000D03*
X235000000Y-72210000D03*
X235000000Y-68710000D03*
X235000000Y-65210000D03*
X235000000Y-61710000D03*
X235000000Y-58210000D03*
D23*
X194400000Y-57025000D03*
X194400000Y-55375000D03*
D34*
X71360000Y-62150000D03*
X73660000Y-62150000D03*
X75960000Y-62150000D03*
D35*
X73660000Y-55850000D03*
D43*
X208600000Y-55575000D03*
X208600000Y-57225000D03*
D39*
X66000000Y-49500000D03*
D30*
X62040000Y-49500000D03*
X58080000Y-49500000D03*
X54120000Y-49500000D03*
D29*
X61950000Y-107782500D03*
D30*
X61950000Y-111742500D03*
X61950000Y-115702500D03*
X61950000Y-119662500D03*
D47*
X84500000Y-74000000D03*
X71000000Y-74000000D03*
X67000000Y-75000000D03*
X91000000Y-74000000D03*
X89500000Y-74000000D03*
X83000000Y-99150000D03*
X68000000Y-76000000D03*
X84500000Y-99000000D03*
X94500000Y-74000000D03*
X81150000Y-99150000D03*
X69500000Y-74000000D03*
X96000000Y-74000000D03*
X77000000Y-74000000D03*
X83000000Y-74000000D03*
X75500000Y-74000000D03*
D48*
X68475000Y-125700000D03*
X98044000Y-60050000D03*
X75946000Y-60572000D03*
X190800000Y-76500000D03*
X195200000Y-86649500D03*
X75550000Y-92650000D03*
X61300000Y-61000000D03*
X187000000Y-68700000D03*
X68580000Y-59772000D03*
X182000000Y-119400000D03*
X83312000Y-59772000D03*
X75946000Y-59772000D03*
X218800000Y-124000000D03*
X200400000Y-76200000D03*
X67375000Y-125800000D03*
X68580000Y-60572000D03*
D47*
X97500000Y-90000000D03*
D48*
X81300000Y-116200000D03*
X179600000Y-125400000D03*
X61300000Y-60200000D03*
X98044000Y-60850000D03*
X74650000Y-100499500D03*
X84700000Y-109600000D03*
X75650000Y-100499500D03*
X84700000Y-122100000D03*
X90678000Y-59772000D03*
D47*
X96524500Y-91600000D03*
X93461833Y-89298221D03*
D48*
X192000000Y-68600000D03*
X74550000Y-92700000D03*
X83312000Y-60572000D03*
X78300000Y-109400000D03*
X78900000Y-110000000D03*
X199000000Y-88200000D03*
D47*
X91500000Y-89400000D03*
D48*
X90678000Y-60572000D03*
X94500000Y-131520000D03*
X71500000Y-133300000D03*
D47*
X197950000Y-97000000D03*
D48*
X96020000Y-131520000D03*
X203000000Y-56200000D03*
D47*
X101000000Y-71500000D03*
D48*
X70300000Y-133300000D03*
D47*
X102000000Y-71500000D03*
X197950000Y-98050000D03*
X47000000Y-108600000D03*
X47000000Y-110000000D03*
D48*
X95358000Y-58200000D03*
X96358000Y-58200000D03*
X88900000Y-64262000D03*
X88000000Y-64212000D03*
X80772000Y-66548000D03*
X81534000Y-66548000D03*
X73550000Y-68750000D03*
X72600000Y-68750000D03*
X66650000Y-70050000D03*
X65650000Y-70050000D03*
X206706499Y-104706499D03*
X157600000Y-83000000D03*
X157000000Y-80200000D03*
X156200000Y-77800000D03*
X188200000Y-76500000D03*
X186900000Y-76500000D03*
X194152319Y-72450999D03*
X199600000Y-66600000D03*
X230000000Y-98000000D03*
X111500000Y-98400000D03*
X216500000Y-76500000D03*
X218290000Y-68710000D03*
X215000000Y-83389500D03*
X212600000Y-72400000D03*
X216300000Y-84000000D03*
X215000000Y-75600000D03*
X217500000Y-85000000D03*
X199136000Y-86614000D03*
X212500000Y-110500000D03*
X205500000Y-107000000D03*
X211500000Y-112649500D03*
X211275500Y-111775500D03*
D47*
X196596000Y-89408000D03*
D48*
X214000000Y-110500000D03*
D47*
X154100000Y-113400000D03*
D48*
X153800000Y-141700000D03*
X183000000Y-89400000D03*
X118449500Y-89405681D03*
X119600000Y-90200000D03*
X189400000Y-89900000D03*
X181800000Y-88600000D03*
X116911755Y-89371669D03*
X117800000Y-90400000D03*
X191500000Y-90600000D03*
X115800000Y-92600000D03*
X193900000Y-92500000D03*
D47*
X87500000Y-68000000D03*
D48*
X114600000Y-91600000D03*
X192041218Y-91703046D03*
D47*
X99907077Y-70400500D03*
X155900000Y-115300000D03*
D48*
X155400000Y-141800000D03*
D47*
X95400000Y-140300000D03*
X152900000Y-124300000D03*
X104000000Y-133000000D03*
X153800000Y-126200000D03*
X91900000Y-133000000D03*
D48*
X102000000Y-74200000D03*
X100700000Y-77300000D03*
X99400000Y-79200000D03*
D47*
X94500000Y-135200000D03*
X96201494Y-134901494D03*
D48*
X158550000Y-84850000D03*
X78100000Y-86000000D03*
D47*
X160528000Y-82296000D03*
D48*
X73950000Y-84550000D03*
X60786592Y-67695124D03*
X56700000Y-67700000D03*
X162250000Y-96800000D03*
X91300000Y-97300000D03*
D47*
X163550000Y-95986000D03*
D48*
X87500000Y-95900000D03*
D47*
X164300000Y-86900000D03*
D48*
X81500000Y-86500000D03*
X80600000Y-87400000D03*
D47*
X170600000Y-87700000D03*
D48*
X215600000Y-108600000D03*
X171500000Y-94000000D03*
X96500000Y-93500000D03*
D47*
X148000000Y-100100000D03*
X150900000Y-100100000D03*
X91900000Y-102400000D03*
X146300000Y-100100000D03*
X149500000Y-100100000D03*
X90955000Y-103355000D03*
X92900000Y-101300000D03*
X94100000Y-100200000D03*
D49*
X215200000Y-83589500D02*
X215000000Y-83389500D01*
X215200000Y-92735000D02*
X215200000Y-83589500D01*
D50*
X106100000Y-55000000D02*
X107600000Y-56500000D01*
X107600000Y-56500000D02*
X108540000Y-57440000D01*
X108540000Y-57440000D02*
X108540000Y-61540000D01*
X61950000Y-76322500D02*
X63422500Y-76322500D01*
X66550000Y-91700000D02*
X69850000Y-95000000D01*
D51*
X51422500Y-95700000D02*
X51332500Y-95790000D01*
X69400000Y-95000000D02*
X64900000Y-99500000D01*
X76800000Y-95000000D02*
X79350000Y-95000000D01*
X54800000Y-95700000D02*
X51422500Y-95700000D01*
X64900000Y-99500000D02*
X58600000Y-99500000D01*
X70500000Y-95000000D02*
X69400000Y-95000000D01*
D50*
X65000000Y-77900000D02*
X65000000Y-81000000D01*
D51*
X79350000Y-95000000D02*
X79850000Y-94500000D01*
D50*
X65000000Y-81000000D02*
X66550000Y-82550000D01*
D51*
X70500000Y-95000000D02*
X76800000Y-95000000D01*
D50*
X63422500Y-76322500D02*
X65000000Y-77900000D01*
D51*
X58600000Y-99500000D02*
X54800000Y-95700000D01*
D50*
X66550000Y-82550000D02*
X66550000Y-91700000D01*
X69850000Y-95000000D02*
X70500000Y-95000000D01*
X77000000Y-74000000D02*
X75500000Y-74000000D01*
X62500000Y-69150000D02*
X62500000Y-70500000D01*
D51*
X61950000Y-80282500D02*
X61950000Y-84242500D01*
X84150000Y-99150000D02*
X81150000Y-99150000D01*
X60557500Y-84242500D02*
X55010000Y-89790000D01*
X64500000Y-93572500D02*
X61950000Y-96122500D01*
D50*
X91000000Y-69150000D02*
X91000000Y-74000000D01*
D51*
X56200000Y-117600000D02*
X58262500Y-119662500D01*
X53510000Y-120290000D02*
X51332500Y-120290000D01*
X69350000Y-113500000D02*
X69350000Y-117550000D01*
D50*
X84500000Y-74000000D02*
X83000000Y-74000000D01*
X96000000Y-74000000D02*
X94500000Y-74000000D01*
D51*
X61950000Y-84242500D02*
X60557500Y-84242500D01*
X60457500Y-111742500D02*
X56200000Y-116000000D01*
X56200000Y-117600000D02*
X53510000Y-120290000D01*
D50*
X47090000Y-89790000D02*
X51332500Y-89790000D01*
D51*
X84150000Y-94500000D02*
X84150000Y-99150000D01*
X67592500Y-111742500D02*
X69350000Y-113500000D01*
X58262500Y-119662500D02*
X61950000Y-119662500D01*
X61950000Y-111742500D02*
X64542500Y-111742500D01*
X56200000Y-115700000D02*
X53790000Y-113290000D01*
D50*
X54120000Y-49500000D02*
X54120000Y-52080000D01*
X69500000Y-74000000D02*
X71000000Y-74000000D01*
D51*
X75250000Y-119800000D02*
X77350000Y-119800000D01*
D50*
X48950000Y-56400000D02*
X46350000Y-59000000D01*
X46350000Y-89050000D02*
X47090000Y-89790000D01*
X96000000Y-69150000D02*
X96000000Y-74000000D01*
X77000000Y-69150000D02*
X77000000Y-74000000D01*
X69500000Y-69150000D02*
X69500000Y-74000000D01*
D51*
X56200000Y-125200000D02*
X54110000Y-127290000D01*
D50*
X91000000Y-74000000D02*
X89500000Y-74000000D01*
D51*
X64542500Y-111742500D02*
X67592500Y-111742500D01*
D50*
X46350000Y-59000000D02*
X46350000Y-89050000D01*
D51*
X74000000Y-119000000D02*
X75250000Y-120250000D01*
X81000000Y-99000000D02*
X81150000Y-99150000D01*
X54110000Y-127290000D02*
X51332500Y-127290000D01*
D50*
X62500000Y-70500000D02*
X68000000Y-76000000D01*
D51*
X56200000Y-116000000D02*
X56200000Y-117600000D01*
X61950000Y-84242500D02*
X64500000Y-86792500D01*
X56200000Y-117600000D02*
X56200000Y-125200000D01*
D52*
X63700000Y-69800000D02*
X63625000Y-69875000D01*
D51*
X64542500Y-111742500D02*
X60457500Y-111742500D01*
X55010000Y-89790000D02*
X51332500Y-89790000D01*
X84150000Y-99150000D02*
X84150000Y-103000000D01*
D50*
X84500000Y-69650000D02*
X84500000Y-74000000D01*
X49719000Y-56400000D02*
X48950000Y-56400000D01*
D51*
X69350000Y-117550000D02*
X70800000Y-119000000D01*
X56200000Y-116000000D02*
X56200000Y-115700000D01*
X53790000Y-113290000D02*
X51332500Y-113290000D01*
X64500000Y-86792500D02*
X64500000Y-93572500D01*
D50*
X49759500Y-56440500D02*
X49719000Y-56400000D01*
X54120000Y-52080000D02*
X49759500Y-56440500D01*
D51*
X70800000Y-119000000D02*
X74000000Y-119000000D01*
X70600000Y-102750000D02*
X62731891Y-102750000D01*
X55710000Y-106290000D02*
X51332500Y-106290000D01*
X46400000Y-104200000D02*
X46400000Y-93800000D01*
D50*
X79600000Y-102750000D02*
X79850000Y-103000000D01*
D51*
X47400000Y-92800000D02*
X55600000Y-92800000D01*
X46400000Y-93800000D02*
X47400000Y-92800000D01*
X60200000Y-88200000D02*
X61947500Y-88200000D01*
X55710000Y-106290000D02*
X48490000Y-106290000D01*
X55600000Y-92800000D02*
X60200000Y-88200000D01*
D50*
X76900000Y-102750000D02*
X70600000Y-102750000D01*
D51*
X59191891Y-106290000D02*
X55710000Y-106290000D01*
X48490000Y-106290000D02*
X46400000Y-104200000D01*
X61947500Y-88200000D02*
X61950000Y-88202500D01*
X62731891Y-102750000D02*
X59191891Y-106290000D01*
D50*
X76900000Y-102750000D02*
X79600000Y-102750000D01*
D49*
X198850000Y-88050000D02*
X199000000Y-88200000D01*
D53*
X98044000Y-60050000D02*
X98044000Y-62000000D01*
X75946000Y-59772000D02*
X75946000Y-61722000D01*
X79462500Y-110662500D02*
X79462500Y-111000000D01*
X84712500Y-109612500D02*
X84700000Y-109600000D01*
D50*
X74699500Y-100450000D02*
X74650000Y-100499500D01*
X67375000Y-125800000D02*
X69825000Y-125800000D01*
D49*
X91475000Y-89425000D02*
X91500000Y-89400000D01*
D54*
X181225000Y-119400000D02*
X182000000Y-119400000D01*
D53*
X61300000Y-60200000D02*
X61300000Y-62150000D01*
D49*
X96450000Y-91525500D02*
X96524500Y-91600000D01*
X196050000Y-86750000D02*
X195300500Y-86750000D01*
X93513612Y-89350000D02*
X93461833Y-89298221D01*
D55*
X81250000Y-115575000D02*
X81250000Y-116150000D01*
D50*
X76900000Y-100450000D02*
X74699500Y-100450000D01*
D53*
X83312000Y-59772000D02*
X83312000Y-61722000D01*
D49*
X197950000Y-88050000D02*
X198850000Y-88050000D01*
D53*
X84712500Y-111000000D02*
X84712500Y-109612500D01*
X68580000Y-59772000D02*
X68580000Y-61722000D01*
D55*
X84700000Y-122100000D02*
X84725000Y-121500000D01*
D49*
X192035000Y-70125000D02*
X192035000Y-69050000D01*
X190765000Y-76150000D02*
X190765000Y-74835000D01*
D53*
X90678000Y-59772000D02*
X90678000Y-61722000D01*
D49*
X96450000Y-90000000D02*
X97500000Y-90000000D01*
X190765000Y-74835000D02*
X190800000Y-74800000D01*
X200375000Y-76175000D02*
X200400000Y-76200000D01*
D53*
X78300000Y-109400000D02*
X79462500Y-110662500D01*
D49*
X96450000Y-90650000D02*
X96450000Y-91525500D01*
X187000000Y-68700000D02*
X186955000Y-69050000D01*
X192000000Y-68600000D02*
X192035000Y-70125000D01*
D53*
X217235000Y-124000000D02*
X218800000Y-124000000D01*
D49*
X199600000Y-76175000D02*
X200375000Y-76175000D01*
X94550000Y-89350000D02*
X93513612Y-89350000D01*
X190800000Y-76500000D02*
X190765000Y-76735000D01*
D55*
X81250000Y-116150000D02*
X81300000Y-116200000D01*
D49*
X91475000Y-90600000D02*
X91475000Y-89425000D01*
X190765000Y-76735000D02*
X190765000Y-75075000D01*
D50*
X76800000Y-92700000D02*
X74550000Y-92700000D01*
D49*
X195300500Y-86750000D02*
X195200000Y-86649500D01*
D54*
X179600000Y-125400000D02*
X179575000Y-126000000D01*
D53*
X72800000Y-139500000D02*
X71400000Y-139500000D01*
X102300000Y-104100000D02*
X102300000Y-80800000D01*
X103000000Y-61000000D02*
X103000000Y-60000000D01*
X70200000Y-133300000D02*
X71600000Y-133300000D01*
D50*
X98800000Y-51800000D02*
X98800000Y-48254000D01*
D49*
X195845000Y-75075000D02*
X196900000Y-75075000D01*
D53*
X96020000Y-131520000D02*
X94500000Y-131520000D01*
X102000000Y-71500000D02*
X101000000Y-71500000D01*
D50*
X202200000Y-77800000D02*
X202200000Y-63600000D01*
D53*
X103000000Y-62900000D02*
X102000000Y-63900000D01*
D49*
X198025000Y-76200000D02*
X198025000Y-77425000D01*
D53*
X101000000Y-71500000D02*
X95400000Y-77100000D01*
X103300000Y-72800000D02*
X102000000Y-71500000D01*
D50*
X65540000Y-46000000D02*
X62040000Y-49500000D01*
X108540000Y-57440000D02*
X108540000Y-59000000D01*
D49*
X198400000Y-77800000D02*
X202200000Y-77800000D01*
D53*
X102100000Y-125440000D02*
X102100000Y-104300000D01*
X90580000Y-136960000D02*
X96970000Y-130570000D01*
D50*
X103000000Y-55000000D02*
X106100000Y-55000000D01*
D53*
X103300000Y-79800000D02*
X103300000Y-72800000D01*
X102000000Y-63900000D02*
X102000000Y-71500000D01*
D50*
X203110000Y-51932500D02*
X203110000Y-54700000D01*
D53*
X86200000Y-78800000D02*
X86200000Y-80000000D01*
D50*
X197950000Y-124050000D02*
X197950000Y-122275000D01*
X96546000Y-46000000D02*
X65540000Y-46000000D01*
D53*
X96970000Y-130570000D02*
X96020000Y-131520000D01*
D50*
X96546000Y-46000000D02*
X98800000Y-48254000D01*
X203110000Y-61490000D02*
X201600000Y-63000000D01*
D53*
X95400000Y-77100000D02*
X87900000Y-77100000D01*
D50*
X202200000Y-91800000D02*
X202200000Y-77800000D01*
X102000000Y-55000000D02*
X103000000Y-55000000D01*
X197950000Y-96050000D02*
X202200000Y-91800000D01*
X98800000Y-51800000D02*
X102000000Y-55000000D01*
D49*
X198025000Y-77425000D02*
X198400000Y-77800000D01*
D50*
X191290000Y-135067500D02*
X191290000Y-130710000D01*
X203110000Y-56090000D02*
X203110000Y-61490000D01*
D53*
X96970000Y-130570000D02*
X102100000Y-125440000D01*
D50*
X202200000Y-63600000D02*
X201600000Y-63000000D01*
D53*
X71400000Y-139500000D02*
X70200000Y-138300000D01*
X87900000Y-77100000D02*
X86200000Y-78800000D01*
X103000000Y-60000000D02*
X103000000Y-55000000D01*
X103000000Y-60000000D02*
X103000000Y-62900000D01*
D50*
X203110000Y-54700000D02*
X203110000Y-56090000D01*
D49*
X196900000Y-75075000D02*
X198025000Y-76200000D01*
D50*
X197950000Y-122275000D02*
X197950000Y-96050000D01*
X191290000Y-130710000D02*
X197800000Y-124200000D01*
D53*
X70200000Y-138300000D02*
X70200000Y-133300000D01*
D55*
X197950000Y-124050000D02*
X197800000Y-124200000D01*
D53*
X102100000Y-104300000D02*
X102300000Y-104100000D01*
X102300000Y-80800000D02*
X103300000Y-79800000D01*
D49*
X196110000Y-56910000D02*
X194515000Y-56910000D01*
X196600000Y-63000000D02*
X196600000Y-71052107D01*
X194515000Y-56910000D02*
X194400000Y-57025000D01*
X196600000Y-71052107D02*
X195752107Y-71900000D01*
X194575000Y-71175000D02*
X194575000Y-70125000D01*
D55*
X196110000Y-56910000D02*
X196110000Y-62510000D01*
X196110000Y-51932500D02*
X196110000Y-56910000D01*
D49*
X195995000Y-57025000D02*
X196110000Y-56910000D01*
X195300000Y-71900000D02*
X194575000Y-71175000D01*
X195752107Y-71900000D02*
X195300000Y-71900000D01*
D55*
X196110000Y-62510000D02*
X196600000Y-63000000D01*
X194385000Y-55390000D02*
X194400000Y-55375000D01*
X195845000Y-66645000D02*
X195845000Y-69050000D01*
X194100000Y-63000000D02*
X194100000Y-64900000D01*
X192610000Y-61510000D02*
X194100000Y-63000000D01*
X192610000Y-51932500D02*
X192610000Y-55390000D01*
X194100000Y-64900000D02*
X195845000Y-66645000D01*
X192610000Y-55390000D02*
X192610000Y-61510000D01*
X192610000Y-55390000D02*
X194385000Y-55390000D01*
D49*
X189495000Y-69050000D02*
X189495000Y-66305000D01*
D55*
X189110000Y-55490000D02*
X189110000Y-60510000D01*
D49*
X189110000Y-55490000D02*
X187485000Y-55490000D01*
X191600000Y-64200000D02*
X191600000Y-63000000D01*
X189025000Y-55575000D02*
X189110000Y-55490000D01*
X187485000Y-55490000D02*
X187400000Y-55575000D01*
D55*
X189110000Y-51932500D02*
X189110000Y-55490000D01*
D49*
X189495000Y-66305000D02*
X191600000Y-64200000D01*
D55*
X189110000Y-60510000D02*
X191600000Y-63000000D01*
X185610000Y-51932500D02*
X185610000Y-57210000D01*
D49*
X188225000Y-69050000D02*
X188225000Y-63875000D01*
D55*
X185610000Y-57210000D02*
X185610000Y-59510000D01*
D49*
X188225000Y-63875000D02*
X189100000Y-63000000D01*
D55*
X185610000Y-59510000D02*
X189100000Y-63000000D01*
X187385000Y-57210000D02*
X187400000Y-57225000D01*
X185610000Y-57210000D02*
X187385000Y-57210000D01*
D50*
X47000000Y-126473795D02*
X47400000Y-126873795D01*
X47000000Y-111400000D02*
X47000000Y-126473795D01*
X47000000Y-110000000D02*
X47000000Y-111400000D01*
X87787500Y-112987500D02*
X91575000Y-116775000D01*
X82000000Y-130400000D02*
X91575000Y-120825000D01*
X87787500Y-111000000D02*
X87787500Y-112987500D01*
X47000000Y-111400000D02*
X47000000Y-108400000D01*
D55*
X83000000Y-115575000D02*
X86795000Y-115575000D01*
X86795000Y-115575000D02*
X87995000Y-116775000D01*
D50*
X50000000Y-130400000D02*
X82000000Y-130400000D01*
X91575000Y-120825000D02*
X91575000Y-116775000D01*
X91575000Y-111275000D02*
X91575000Y-116775000D01*
X47400000Y-127800000D02*
X50000000Y-130400000D01*
D55*
X87995000Y-116775000D02*
X91575000Y-116775000D01*
D50*
X47400000Y-126873795D02*
X47400000Y-127800000D01*
X96000000Y-64850000D02*
X96000000Y-62392000D01*
D51*
X95758000Y-58250000D02*
X95758000Y-55850000D01*
D50*
X96000000Y-62392000D02*
X95758000Y-62150000D01*
D51*
X96158000Y-55450000D02*
X95758000Y-55850000D01*
X94400000Y-49200000D02*
X95758000Y-55850000D01*
X95758000Y-62150000D02*
X95758000Y-58250000D01*
D50*
X88392000Y-62150000D02*
X88392000Y-63500000D01*
D51*
X90440000Y-52308000D02*
X90440000Y-49200000D01*
D50*
X88392000Y-63500000D02*
X89742000Y-64850000D01*
D51*
X88350000Y-54398000D02*
X90440000Y-52308000D01*
X88350000Y-63912000D02*
X88350000Y-54398000D01*
D50*
X89742000Y-64850000D02*
X91000000Y-64850000D01*
D51*
X88400000Y-63962000D02*
X88350000Y-63912000D01*
X86480000Y-51696000D02*
X82326000Y-55850000D01*
X81017639Y-63491639D02*
X81035177Y-64964823D01*
D50*
X81420354Y-65350000D02*
X81035177Y-64964823D01*
D51*
X81026000Y-63483278D02*
X81026000Y-55850000D01*
D50*
X83500000Y-65350000D02*
X81420354Y-65350000D01*
D51*
X86480000Y-49200000D02*
X86480000Y-51696000D01*
X81017639Y-63491639D02*
X81026000Y-63483278D01*
X81035177Y-64964823D02*
X81051000Y-66294000D01*
X82326000Y-55850000D02*
X81026000Y-55850000D01*
X81001000Y-62094000D02*
X81017639Y-63491639D01*
D50*
X77000000Y-64850000D02*
X73662000Y-64850000D01*
D51*
X77724000Y-52832000D02*
X81280000Y-52832000D01*
X73406000Y-58420000D02*
X73406000Y-57150000D01*
X73406000Y-58420000D02*
X73406000Y-61824000D01*
X73406000Y-57150000D02*
X77724000Y-52832000D01*
X73406000Y-62382000D02*
X73406000Y-64594000D01*
X73000000Y-68450000D02*
X73100000Y-68550000D01*
X81280000Y-52832000D02*
X82520000Y-51592000D01*
X73406000Y-64594000D02*
X73406000Y-68682000D01*
X82520000Y-51592000D02*
X82520000Y-49200000D01*
D50*
X73662000Y-64850000D02*
X73406000Y-64594000D01*
X69500000Y-64850000D02*
X66430000Y-64850000D01*
D51*
X78205554Y-49200000D02*
X78560000Y-49200000D01*
D50*
X66430000Y-64850000D02*
X66040000Y-64460000D01*
D51*
X78206245Y-49200000D02*
X74320245Y-53086000D01*
X66000000Y-55850000D02*
X66000000Y-62150000D01*
X72898000Y-53340000D02*
X70870000Y-53340000D01*
X68360000Y-55850000D02*
X66294000Y-55850000D01*
X73152000Y-53086000D02*
X72898000Y-53340000D01*
X66040000Y-62150000D02*
X66040000Y-64460000D01*
X78560000Y-49200000D02*
X78206245Y-49200000D01*
X66000000Y-69750000D02*
X66050000Y-69800000D01*
X74320245Y-53086000D02*
X73152000Y-53086000D01*
X70870000Y-53340000D02*
X68360000Y-55850000D01*
X66000000Y-55850000D02*
X68850000Y-55850000D01*
X66040000Y-64460000D02*
X66040000Y-69750000D01*
X59000000Y-55850000D02*
X59000000Y-62150000D01*
D50*
X62500000Y-64850000D02*
X59150000Y-64850000D01*
X59150000Y-64850000D02*
X59000000Y-65000000D01*
D51*
X57210000Y-75790000D02*
X51332500Y-75790000D01*
X70549930Y-49200000D02*
X66749930Y-53000000D01*
X59000000Y-74000000D02*
X57210000Y-75790000D01*
X61850000Y-53000000D02*
X59000000Y-55850000D01*
X66749930Y-53000000D02*
X61850000Y-53000000D01*
X59000000Y-65000000D02*
X59000000Y-74000000D01*
X59000000Y-62150000D02*
X59000000Y-65000000D01*
X74600000Y-49200000D02*
X70549930Y-49200000D01*
D54*
X206706499Y-92793501D02*
X206706499Y-104706499D01*
X209920000Y-81540000D02*
X209920000Y-89580000D01*
X209920000Y-89580000D02*
X206706499Y-92793501D01*
X184180000Y-129600000D02*
X184290000Y-129490000D01*
D55*
X186950000Y-122275000D02*
X184290000Y-124935000D01*
X184290000Y-124935000D02*
X184290000Y-129490000D01*
X184290000Y-129490000D02*
X184290000Y-135067500D01*
D54*
X181225000Y-129600000D02*
X184180000Y-129600000D01*
D55*
X189450000Y-124550000D02*
X187790000Y-126210000D01*
X189450000Y-122275000D02*
X189450000Y-124550000D01*
X188000000Y-120825000D02*
X183600000Y-120825000D01*
X189450000Y-122275000D02*
X188000000Y-120825000D01*
X183600000Y-120825000D02*
X181225000Y-123200000D01*
X187790000Y-126210000D02*
X187790000Y-135067500D01*
D52*
X158548004Y-115122400D02*
X158548004Y-125775952D01*
X157600000Y-114174396D02*
X158548004Y-115122400D01*
D55*
X202950000Y-124050000D02*
X198290000Y-128710000D01*
D52*
X157600000Y-83000000D02*
X157600000Y-114174396D01*
D55*
X198290000Y-128710000D02*
X198290000Y-135067500D01*
D52*
X158548004Y-125775952D02*
X173767549Y-140995497D01*
D55*
X202950000Y-122275000D02*
X202950000Y-124050000D01*
D52*
X192362003Y-140995497D02*
X198290000Y-135067500D01*
X173767549Y-140995497D02*
X192362003Y-140995497D01*
X205450000Y-124550000D02*
X201790000Y-128210000D01*
X201790000Y-128210000D02*
X201790000Y-135067500D01*
X158148503Y-115287879D02*
X158148503Y-132654905D01*
X158148503Y-132654905D02*
X166988596Y-141494998D01*
X166988596Y-141494998D02*
X195362502Y-141494998D01*
X157000000Y-80200000D02*
X157000000Y-114139376D01*
X195362502Y-141494998D02*
X201790000Y-135067500D01*
X157000000Y-114139376D02*
X158148503Y-115287879D01*
X205450000Y-122275000D02*
X205450000Y-124550000D01*
X156200000Y-113904356D02*
X157749002Y-115453358D01*
X166576901Y-141994499D02*
X198363001Y-141994499D01*
D55*
X207950000Y-122275000D02*
X207950000Y-125050000D01*
X205290000Y-127710000D02*
X205290000Y-135067500D01*
D52*
X157749002Y-115453358D02*
X157749002Y-133166600D01*
D55*
X207950000Y-125050000D02*
X205290000Y-127710000D01*
D52*
X198363001Y-141994499D02*
X205290000Y-135067500D01*
X157749002Y-133166600D02*
X166576901Y-141994499D01*
X156200000Y-77800000D02*
X156200000Y-113904356D01*
D49*
X166400402Y-142494000D02*
X156699501Y-132793099D01*
D55*
X210450000Y-125550000D02*
X208790000Y-127210000D01*
D49*
X151839954Y-110080000D02*
X108540000Y-110080000D01*
D55*
X208790000Y-127210000D02*
X208790000Y-135067500D01*
X210450000Y-122275000D02*
X210450000Y-125550000D01*
D49*
X201363500Y-142494000D02*
X166400402Y-142494000D01*
X154849500Y-113089546D02*
X151839954Y-110080000D01*
X208790000Y-135067500D02*
X201363500Y-142494000D01*
X154849500Y-113189546D02*
X154849500Y-113089546D01*
X156699501Y-132793099D02*
X156699501Y-115039547D01*
X156699501Y-115039547D02*
X154849500Y-113189546D01*
D55*
X217400000Y-57400000D02*
X223000000Y-63000000D01*
X217110000Y-57110000D02*
X217400000Y-57400000D01*
D49*
X217225000Y-57225000D02*
X217400000Y-57400000D01*
X188200000Y-75100000D02*
X188225000Y-75075000D01*
X217400000Y-57400000D02*
X215575000Y-57400000D01*
X188200000Y-76500000D02*
X188200000Y-75100000D01*
D55*
X217110000Y-51932500D02*
X217110000Y-57110000D01*
D49*
X215575000Y-57400000D02*
X215400000Y-57225000D01*
D56*
X214000000Y-55575000D02*
X214000000Y-57148528D01*
D49*
X186900000Y-75130000D02*
X186955000Y-75075000D01*
D56*
X213610000Y-55185000D02*
X214000000Y-55575000D01*
X213610000Y-51932500D02*
X213610000Y-55185000D01*
X214000000Y-57148528D02*
X218476472Y-61625000D01*
D55*
X214000000Y-55575000D02*
X215400000Y-55575000D01*
D49*
X186900000Y-76500000D02*
X186900000Y-75130000D01*
D56*
X218476472Y-61625000D02*
X219125000Y-61625000D01*
X219125000Y-61625000D02*
X220500000Y-63000000D01*
D49*
X210175000Y-57225000D02*
X210200000Y-57200000D01*
D55*
X214400000Y-59400000D02*
X218000000Y-63000000D01*
D49*
X210200000Y-57200000D02*
X208625000Y-57200000D01*
D55*
X210110000Y-55110000D02*
X210200000Y-55200000D01*
X210200000Y-58600000D02*
X211000000Y-59400000D01*
D49*
X193305000Y-73298318D02*
X193305000Y-75075000D01*
D55*
X210200000Y-57200000D02*
X210200000Y-58600000D01*
X211000000Y-59400000D02*
X214400000Y-59400000D01*
D49*
X208625000Y-57200000D02*
X208600000Y-57225000D01*
X193305000Y-73298318D02*
X194152319Y-72450999D01*
D55*
X210110000Y-51932500D02*
X210110000Y-55110000D01*
X210200000Y-55200000D02*
X210200000Y-57200000D01*
D49*
X199600000Y-69000000D02*
X194575000Y-74025000D01*
X206610000Y-55610000D02*
X208565000Y-55610000D01*
D55*
X213450000Y-60950000D02*
X215500000Y-63000000D01*
X206610000Y-55610000D02*
X206610000Y-57410000D01*
X206610000Y-57410000D02*
X210150000Y-60950000D01*
D49*
X206645000Y-55575000D02*
X206610000Y-55610000D01*
X199600000Y-66600000D02*
X199600000Y-69000000D01*
X208565000Y-55610000D02*
X208600000Y-55575000D01*
D55*
X206610000Y-51932500D02*
X206610000Y-55610000D01*
X210150000Y-60950000D02*
X213450000Y-60950000D01*
D49*
X194575000Y-74025000D02*
X194575000Y-75075000D01*
D55*
X228314183Y-140000000D02*
X223000000Y-140000000D01*
X226765000Y-124000000D02*
X230000000Y-127235000D01*
X223000000Y-140000000D02*
X222000000Y-140000000D01*
X223455000Y-139545000D02*
X223000000Y-140000000D01*
X230000000Y-127235000D02*
X230000000Y-131000000D01*
X212290000Y-135067500D02*
X217222500Y-140000000D01*
X230284511Y-131284511D02*
X230284511Y-138029672D01*
X223455000Y-138545000D02*
X223455000Y-137305000D01*
X217222500Y-140000000D02*
X222000000Y-140000000D01*
X230284511Y-138029672D02*
X228314183Y-140000000D01*
X223455000Y-137305000D02*
X223455000Y-139545000D01*
X230000000Y-131000000D02*
X230284511Y-131284511D01*
X226765000Y-135235000D02*
X226615000Y-135385000D01*
X226297500Y-135067500D02*
X226615000Y-135385000D01*
X226765000Y-126540000D02*
X226765000Y-135235000D01*
X215790000Y-135067500D02*
X226297500Y-135067500D01*
X226615000Y-135385000D02*
X228535000Y-137305000D01*
D52*
X108540000Y-112620000D02*
X107390000Y-111470000D01*
D49*
X236810000Y-58210000D02*
X240600000Y-62000000D01*
D52*
X107696000Y-108712000D02*
X110388000Y-108712000D01*
D49*
X232900000Y-92400000D02*
X230000000Y-95300000D01*
D55*
X235000000Y-53000000D02*
X235000000Y-58210000D01*
X225500000Y-49000000D02*
X226949520Y-47550480D01*
X229550480Y-47550480D02*
X235000000Y-53000000D01*
D49*
X237900000Y-92400000D02*
X232900000Y-92400000D01*
D52*
X110388000Y-99512000D02*
X111500000Y-98400000D01*
X110388000Y-108712000D02*
X110388000Y-99512000D01*
D49*
X230000000Y-95300000D02*
X230000000Y-98000000D01*
X240600000Y-62000000D02*
X240600000Y-89700000D01*
X235000000Y-58210000D02*
X236810000Y-58210000D01*
D55*
X226949520Y-47550480D02*
X229550480Y-47550480D01*
D49*
X240600000Y-89700000D02*
X237900000Y-92400000D01*
D52*
X107390000Y-109018000D02*
X107696000Y-108712000D01*
X107390000Y-111470000D02*
X107390000Y-109018000D01*
D49*
X216500000Y-76500000D02*
X216500000Y-70500000D01*
X216200000Y-80340000D02*
X215000000Y-81540000D01*
X216500000Y-76500000D02*
X216200000Y-76800000D01*
X216200000Y-76800000D02*
X216200000Y-80340000D01*
X216500000Y-70500000D02*
X218290000Y-68710000D01*
D54*
X212460000Y-72540000D02*
X212600000Y-72400000D01*
X212460000Y-79000000D02*
X212460000Y-72540000D01*
D49*
X216400000Y-94075000D02*
X216400000Y-84100000D01*
X215200000Y-95275000D02*
X216400000Y-94075000D01*
X216400000Y-84100000D02*
X216300000Y-84000000D01*
D54*
X215000000Y-71000000D02*
X220790000Y-65210000D01*
X220790000Y-65210000D02*
X235000000Y-65210000D01*
X215000000Y-79000000D02*
X215000000Y-71000000D01*
X235000000Y-61710000D02*
X238000000Y-64710000D01*
X217540000Y-79000000D02*
X217540000Y-81540000D01*
X217540000Y-70860000D02*
X217540000Y-79000000D01*
D49*
X217540000Y-84960000D02*
X217500000Y-85000000D01*
D54*
X221000000Y-67400000D02*
X217540000Y-70860000D01*
X236200000Y-67400000D02*
X221000000Y-67400000D01*
D49*
X217540000Y-81540000D02*
X217540000Y-84960000D01*
D54*
X197950000Y-86750000D02*
X199000000Y-86750000D01*
X238000000Y-65600000D02*
X236200000Y-67400000D01*
X238000000Y-64710000D02*
X238000000Y-65600000D01*
X199000000Y-86750000D02*
X199136000Y-86614000D01*
D49*
X212660000Y-110340000D02*
X212500000Y-110500000D01*
X212660000Y-95275000D02*
X212660000Y-110340000D01*
X206000000Y-91500000D02*
X205500000Y-92000000D01*
X208000000Y-80500000D02*
X208000000Y-90000000D01*
X205500000Y-92000000D02*
X205500000Y-107000000D01*
X208000000Y-90000000D02*
X206500000Y-91500000D01*
X208420000Y-80500000D02*
X208000000Y-80500000D01*
X206500000Y-91500000D02*
X206000000Y-91500000D01*
X209920000Y-79000000D02*
X208420000Y-80500000D01*
D54*
X211500000Y-112500000D02*
X211500000Y-112649500D01*
X211116823Y-112500000D02*
X211500000Y-112500000D01*
X210120000Y-111503177D02*
X211116823Y-112500000D01*
X210120000Y-95275000D02*
X210120000Y-111503177D01*
D49*
X211320000Y-111731000D02*
X211275500Y-111775500D01*
X211320000Y-93935000D02*
X211320000Y-100720000D01*
X211320000Y-100720000D02*
X211320000Y-111731000D01*
X210120000Y-92735000D02*
X211320000Y-93935000D01*
X196050000Y-88862000D02*
X196050000Y-88050000D01*
X196596000Y-89408000D02*
X196050000Y-88862000D01*
X235000000Y-99500000D02*
X221965000Y-99500000D01*
X221965000Y-99500000D02*
X217740000Y-95275000D01*
X217740000Y-92735000D02*
X217740000Y-95275000D01*
X213860000Y-110360000D02*
X213860000Y-93935000D01*
X214000000Y-110500000D02*
X213860000Y-110360000D01*
X213860000Y-93935000D02*
X212660000Y-92735000D01*
X212660000Y-93370690D02*
X212660000Y-92735000D01*
X154850000Y-140650000D02*
X153800000Y-141700000D01*
X154850000Y-114150000D02*
X154100000Y-113400000D01*
X154850000Y-126550000D02*
X154850000Y-140650000D01*
X154850000Y-126550000D02*
X154850000Y-114150000D01*
D50*
X106000000Y-59000000D02*
X106000000Y-61540000D01*
D49*
X106000000Y-64080000D02*
X107220000Y-65300000D01*
X111700000Y-65300000D02*
X112200000Y-65800000D01*
X191350000Y-72850000D02*
X187150000Y-72850000D01*
X187150000Y-72850000D02*
X183000000Y-77000000D01*
X118449500Y-72049500D02*
X118449500Y-89405681D01*
X183000000Y-77000000D02*
X183000000Y-89400000D01*
X193305000Y-70125000D02*
X193305000Y-70895000D01*
X107220000Y-65300000D02*
X111700000Y-65300000D01*
X112200000Y-65800000D02*
X118449500Y-72049500D01*
X193305000Y-70895000D02*
X191350000Y-72850000D01*
X189400000Y-89900000D02*
X189400000Y-85890000D01*
X189495000Y-76150000D02*
X189495000Y-85795000D01*
X112280000Y-64080000D02*
X113050000Y-64850000D01*
X189400000Y-85890000D02*
X189495000Y-85795000D01*
X189495000Y-85795000D02*
X189495000Y-86277084D01*
X119600000Y-71400000D02*
X119600000Y-90200000D01*
X108540000Y-64080000D02*
X112280000Y-64080000D01*
X113050000Y-64850000D02*
X119600000Y-71400000D01*
X106000000Y-66620000D02*
X107340000Y-67960000D01*
X116911755Y-75811755D02*
X116911755Y-89371669D01*
X107340000Y-67960000D02*
X109060000Y-67960000D01*
X185300000Y-72100000D02*
X189900000Y-72100000D01*
X109060000Y-67960000D02*
X116911755Y-75811755D01*
X190765000Y-71235000D02*
X190765000Y-70125000D01*
X181800000Y-75600000D02*
X185300000Y-72100000D01*
X189900000Y-72100000D02*
X190765000Y-71235000D01*
X181800000Y-88600000D02*
X181800000Y-75600000D01*
X192100000Y-88500000D02*
X192100000Y-90000000D01*
X192035000Y-84565000D02*
X192035000Y-84715500D01*
X110620000Y-66620000D02*
X117800000Y-73800000D01*
X192035000Y-76150000D02*
X192035000Y-84565000D01*
X192100000Y-90000000D02*
X191500000Y-90600000D01*
X192035000Y-84565000D02*
X192100000Y-84630000D01*
X117800000Y-73800000D02*
X117800000Y-90400000D01*
X192100000Y-84630000D02*
X192100000Y-88500000D01*
X108540000Y-66620000D02*
X110620000Y-66620000D01*
X196050000Y-87400000D02*
X193900000Y-87400000D01*
X115800000Y-76600000D02*
X115800000Y-92600000D01*
X109700000Y-70500000D02*
X115800000Y-76600000D01*
X107340000Y-70500000D02*
X109700000Y-70500000D01*
X193900000Y-92500000D02*
X193900000Y-87400000D01*
X106000000Y-69160000D02*
X107340000Y-70500000D01*
D52*
X87500000Y-68000000D02*
X87500000Y-66000000D01*
X86092000Y-64592000D02*
X86092000Y-62150000D01*
X87500000Y-66000000D02*
X86092000Y-64592000D01*
D49*
X192599501Y-91144763D02*
X192041218Y-91703046D01*
X197325000Y-87400000D02*
X196800000Y-86875000D01*
X196800000Y-86000000D02*
X194400000Y-86000000D01*
X197950000Y-87400000D02*
X197325000Y-87400000D01*
X109740000Y-72900000D02*
X107200000Y-72900000D01*
X194400000Y-86000000D02*
X192599501Y-87800499D01*
X192599501Y-87800499D02*
X192599501Y-91144763D01*
X196800000Y-86875000D02*
X196800000Y-86000000D01*
X114600000Y-91600000D02*
X114600000Y-77760000D01*
X107200000Y-72900000D02*
X106000000Y-71700000D01*
X114600000Y-77760000D02*
X109740000Y-72900000D01*
D52*
X93472000Y-61977000D02*
X93472000Y-65922000D01*
X99907077Y-70189077D02*
X99907077Y-70400500D01*
X93472000Y-65922000D02*
X94250000Y-66700000D01*
X94250000Y-66700000D02*
X96418000Y-66700000D01*
X96418000Y-66700000D02*
X99907077Y-70189077D01*
D49*
X156000000Y-115400000D02*
X155900000Y-115300000D01*
X155400000Y-128200000D02*
X156200000Y-127400000D01*
X156200000Y-127400000D02*
X156000000Y-127400000D01*
X156000000Y-127700000D02*
X156000000Y-127400000D01*
X155400000Y-141800000D02*
X155400000Y-128200000D01*
X156000000Y-127400000D02*
X156000000Y-127100000D01*
X156000000Y-127100000D02*
X156000000Y-115400000D01*
X103800000Y-131900000D02*
X107610565Y-131900000D01*
X95400000Y-140300000D02*
X103800000Y-131900000D01*
X111400000Y-124300000D02*
X152900000Y-124300000D01*
X110739501Y-128771063D02*
X110739501Y-124960499D01*
X107610565Y-131900000D02*
X110739501Y-128771063D01*
X110739501Y-124960499D02*
X111400000Y-124300000D01*
X104599501Y-132400499D02*
X104000000Y-133000000D01*
X153800000Y-126200000D02*
X147699501Y-132400499D01*
X91900000Y-133100000D02*
X91900000Y-133000000D01*
X147699501Y-132400499D02*
X104599501Y-132400499D01*
X88040000Y-136960000D02*
X91900000Y-133100000D01*
X102100000Y-78000000D02*
X102100000Y-74300000D01*
X85500000Y-136960000D02*
X101250499Y-121209501D01*
X101250499Y-103249501D02*
X101300000Y-103200000D01*
X102040000Y-74240000D02*
X102000000Y-74200000D01*
X101250499Y-121209501D02*
X101250499Y-103249501D01*
X102100000Y-74300000D02*
X102000000Y-74200000D01*
X101250499Y-103249501D02*
X101250499Y-78849501D01*
X101250499Y-78849501D02*
X102100000Y-78000000D01*
X100200000Y-103200000D02*
X100200000Y-77800000D01*
X100200000Y-118200000D02*
X100200000Y-103200000D01*
X82960000Y-135440000D02*
X100200000Y-118200000D01*
X82960000Y-136960000D02*
X82960000Y-135440000D01*
X100200000Y-77800000D02*
X100700000Y-77300000D01*
X99400000Y-92000000D02*
X99400000Y-79200000D01*
X98900000Y-92500000D02*
X99400000Y-92000000D01*
X98000000Y-119380000D02*
X98000000Y-102800000D01*
X98000000Y-102800000D02*
X98000000Y-93400000D01*
X98000000Y-93400000D02*
X98900000Y-92500000D01*
X80420000Y-136960000D02*
X98000000Y-119380000D01*
X103700000Y-118993598D02*
X103600499Y-119093099D01*
X104540000Y-116360000D02*
X103700000Y-117200000D01*
X108540000Y-115160000D02*
X107340000Y-116360000D01*
X107340000Y-116360000D02*
X104540000Y-116360000D01*
X103600499Y-119093099D02*
X103600499Y-126099501D01*
X103700000Y-117200000D02*
X103700000Y-118993598D01*
X103600499Y-126099501D02*
X94500000Y-135200000D01*
X104200000Y-127100000D02*
X96398506Y-134901494D01*
X108540000Y-117700000D02*
X107340000Y-118900000D01*
X104100000Y-119300000D02*
X104200000Y-119400000D01*
X104500000Y-118900000D02*
X104100000Y-119300000D01*
X107340000Y-118900000D02*
X104500000Y-118900000D01*
X104200000Y-119400000D02*
X104200000Y-127100000D01*
X96398506Y-134901494D02*
X96201494Y-134901494D01*
D52*
X169180000Y-67800000D02*
X161816000Y-67800000D01*
X160528000Y-69088000D02*
X160600000Y-69160000D01*
D49*
X69000000Y-75200000D02*
X69800000Y-75200000D01*
D52*
X158550000Y-73714000D02*
X158550000Y-71066000D01*
D49*
X70300000Y-75700000D02*
X70300000Y-78000000D01*
D52*
X170540000Y-69160000D02*
X169180000Y-67800000D01*
D49*
X78100000Y-86000000D02*
X76400000Y-84300000D01*
X69800000Y-75200000D02*
X70300000Y-75700000D01*
X63994000Y-62150000D02*
X64500000Y-62656000D01*
D52*
X158550000Y-84850000D02*
X158550000Y-73714000D01*
D49*
X70300000Y-78000000D02*
X76400000Y-84100000D01*
X64500000Y-62656000D02*
X64500000Y-70700000D01*
D52*
X158550000Y-71066000D02*
X160528000Y-69088000D01*
D49*
X76400000Y-84300000D02*
X76400000Y-84100000D01*
X76400000Y-84100000D02*
X76500000Y-84200000D01*
X64500000Y-70700000D02*
X69000000Y-75200000D01*
D52*
X161816000Y-67800000D02*
X160528000Y-69088000D01*
X56700000Y-62150000D02*
X56700000Y-65150000D01*
X56500000Y-67500000D02*
X56500000Y-65350000D01*
X160964000Y-71700000D02*
X160482000Y-72182000D01*
X160274000Y-82042000D02*
X160528000Y-82296000D01*
X160274000Y-72390000D02*
X160274000Y-82042000D01*
X162164000Y-70500000D02*
X160482000Y-72182000D01*
X169340000Y-70500000D02*
X162164000Y-70500000D01*
X56700000Y-65150000D02*
X56500000Y-65350000D01*
X56700000Y-67700000D02*
X56500000Y-67500000D01*
D49*
X60786592Y-71386592D02*
X73950000Y-84550000D01*
D52*
X160482000Y-72182000D02*
X160274000Y-72390000D01*
D49*
X60786592Y-67695124D02*
X60786592Y-71386592D01*
D52*
X170540000Y-71700000D02*
X169340000Y-70500000D01*
X82000000Y-95500000D02*
X80200000Y-97300000D01*
X82000000Y-93000000D02*
X82000000Y-95500000D01*
X83000000Y-92000000D02*
X82000000Y-93000000D01*
X79300000Y-97300000D02*
X79350000Y-97350000D01*
X165416000Y-73090000D02*
X164266000Y-74240000D01*
X170540000Y-74240000D02*
X169390000Y-73090000D01*
X162250000Y-96800000D02*
X162250000Y-76256000D01*
X86000000Y-92000000D02*
X83000000Y-92000000D01*
X78976000Y-97300000D02*
X79300000Y-97300000D01*
X76800000Y-97300000D02*
X78976000Y-97300000D01*
X80200000Y-97300000D02*
X78976000Y-97300000D01*
D49*
X91300000Y-97300000D02*
X86000000Y-92000000D01*
D52*
X169390000Y-73090000D02*
X165416000Y-73090000D01*
X162250000Y-76256000D02*
X164266000Y-74240000D01*
X163550000Y-80250000D02*
X163550000Y-79782000D01*
D49*
X87400000Y-103100000D02*
X85400000Y-105100000D01*
D52*
X163550000Y-95986000D02*
X163550000Y-80250000D01*
X170540000Y-76780000D02*
X169360000Y-75600000D01*
X163550000Y-78450000D02*
X163550000Y-80250000D01*
D49*
X80450000Y-105050000D02*
X85450000Y-105050000D01*
D52*
X166400000Y-75600000D02*
X163550000Y-78450000D01*
D49*
X80450000Y-105050000D02*
X80800000Y-105050000D01*
X87500000Y-95900000D02*
X87400000Y-96000000D01*
X76900000Y-105050000D02*
X80450000Y-105050000D01*
X87400000Y-96000000D02*
X87400000Y-103100000D01*
D52*
X169360000Y-75600000D02*
X166400000Y-75600000D01*
D49*
X169320000Y-78100000D02*
X170540000Y-79320000D01*
X78726000Y-75226000D02*
X78726000Y-62150000D01*
X164300000Y-86900000D02*
X165000000Y-86200000D01*
X81500000Y-86500000D02*
X81500000Y-79400000D01*
X166400000Y-78100000D02*
X169320000Y-78100000D01*
X165000000Y-79500000D02*
X166400000Y-78100000D01*
X81500000Y-79400000D02*
X81300000Y-79200000D01*
X165000000Y-86200000D02*
X165000000Y-79500000D01*
X78726000Y-76626000D02*
X78726000Y-75226000D01*
X81300000Y-79200000D02*
X78726000Y-76626000D01*
X80550000Y-79750000D02*
X77650000Y-76850000D01*
D52*
X170600000Y-87700000D02*
X170540000Y-84240000D01*
D49*
X80600000Y-79800000D02*
X80600000Y-87400000D01*
D52*
X170540000Y-84240000D02*
X170540000Y-81860000D01*
D49*
X80550000Y-79750000D02*
X80600000Y-79800000D01*
X71360000Y-71760000D02*
X76450000Y-76850000D01*
X77650000Y-76850000D02*
X76450000Y-76850000D01*
X71360000Y-62150000D02*
X71360000Y-71760000D01*
D54*
X215600000Y-108600000D02*
X215600000Y-117925000D01*
X215600000Y-117925000D02*
X216175000Y-118500000D01*
D49*
X95775000Y-90600000D02*
X95775000Y-92275000D01*
X95775000Y-92275000D02*
X96500000Y-93000000D01*
X93725000Y-90000000D02*
X93125000Y-90600000D01*
X171500000Y-107580000D02*
X169540000Y-109540000D01*
X96500000Y-93000000D02*
X96500000Y-93500000D01*
X95175000Y-90000000D02*
X95775000Y-90600000D01*
X94550000Y-90000000D02*
X95175000Y-90000000D01*
X94550000Y-90000000D02*
X93725000Y-90000000D01*
X171500000Y-94000000D02*
X171500000Y-107580000D01*
X103199501Y-131400499D02*
X92100000Y-142500000D01*
X92100000Y-142500000D02*
X78340000Y-142500000D01*
X107403664Y-131400499D02*
X103199501Y-131400499D01*
X108540000Y-120240000D02*
X110240000Y-121940000D01*
X78340000Y-142500000D02*
X75340000Y-139500000D01*
X110240000Y-121940000D02*
X110240000Y-128564163D01*
X110240000Y-128564163D02*
X107403664Y-131400499D01*
X80380499Y-142000499D02*
X77880000Y-139500000D01*
X102393100Y-130900499D02*
X91293100Y-142000499D01*
X108540000Y-122780000D02*
X109740000Y-123980000D01*
X91293100Y-142000499D02*
X80380499Y-142000499D01*
X109740000Y-123980000D02*
X109740000Y-128357057D01*
X107196558Y-130900499D02*
X102393100Y-130900499D01*
X109740000Y-128357057D02*
X107196558Y-130900499D01*
X107200000Y-126660000D02*
X105502943Y-126660000D01*
X82100000Y-141500000D02*
X82100000Y-141180000D01*
X105502943Y-126660000D02*
X90662943Y-141500000D01*
X90662943Y-141500000D02*
X82100000Y-141500000D01*
X108540000Y-125320000D02*
X107200000Y-126660000D01*
X82100000Y-141180000D02*
X80420000Y-139500000D01*
D51*
X168000000Y-59000000D02*
X168000000Y-61540000D01*
X165950500Y-61722000D02*
X166132500Y-61540000D01*
X150876000Y-68072000D02*
X150876000Y-95476000D01*
X150876000Y-97876000D02*
X150876000Y-100076000D01*
X150876000Y-99976000D02*
X151000000Y-100100000D01*
X87310000Y-107000000D02*
X77150000Y-107000000D01*
X170540000Y-60558000D02*
X170540000Y-59000000D01*
X150900000Y-100100000D02*
X146300000Y-100100000D01*
X166132500Y-61540000D02*
X170540000Y-61540000D01*
X81650000Y-119750000D02*
X81650000Y-119800000D01*
X170540000Y-61540000D02*
X170540000Y-60558000D01*
D50*
X82845000Y-119055000D02*
X85275000Y-119055000D01*
D51*
X75692000Y-108458000D02*
X75692000Y-113792000D01*
X94488000Y-99822000D02*
X90955000Y-103355000D01*
D55*
X86275000Y-121500000D02*
X86275000Y-120055000D01*
X86275000Y-120055000D02*
X85275000Y-119055000D01*
D51*
X168982000Y-59000000D02*
X170540000Y-59000000D01*
X165950500Y-61722000D02*
X157226000Y-61722000D01*
X77150000Y-107000000D02*
X75692000Y-108458000D01*
X75692000Y-113792000D02*
X81650000Y-119750000D01*
X90955000Y-103355000D02*
X87310000Y-107000000D01*
X150876000Y-97876000D02*
X150876000Y-99976000D01*
X157226000Y-61722000D02*
X150876000Y-68072000D01*
X170540000Y-60558000D02*
X168982000Y-59000000D01*
D50*
X81650000Y-120250000D02*
X82845000Y-119055000D01*
D51*
X168982000Y-59000000D02*
X168000000Y-59000000D01*
X150876000Y-100076000D02*
X150900000Y-100100000D01*
X150876000Y-95476000D02*
X150876000Y-97876000D01*
D54*
X179575000Y-129600000D02*
X179575000Y-127800000D01*
X176000000Y-127800000D02*
X179575000Y-127800000D01*
X168402000Y-123444000D02*
X168336000Y-123444000D01*
X174341000Y-126141000D02*
X176000000Y-127800000D01*
X168346501Y-123642501D02*
X168402000Y-123444000D01*
X174341000Y-126141000D02*
X168813000Y-126141000D01*
X168813000Y-126141000D02*
X168346501Y-125674501D01*
X168346501Y-125674501D02*
X168346501Y-123642501D01*
X168336000Y-123444000D02*
X169540000Y-122240000D01*
X179575000Y-123200000D02*
X177995000Y-124780000D01*
X177995000Y-124780000D02*
X169540000Y-124780000D01*
X179575000Y-123050000D02*
X181225000Y-121400000D01*
X179575000Y-123200000D02*
X179575000Y-123050000D01*
D49*
X217825000Y-118500000D02*
X217235000Y-119090000D01*
X217235000Y-119090000D02*
X217235000Y-121460000D01*
D55*
X96450000Y-87850000D02*
X96500000Y-87800000D01*
X96450000Y-89350000D02*
X96450000Y-87850000D01*
X96500000Y-87800000D02*
X96500000Y-82700000D01*
X96500000Y-82700000D02*
X93800000Y-80000000D01*
X83000000Y-113925000D02*
X84705000Y-113925000D01*
X83000000Y-111462500D02*
X82537500Y-111000000D01*
X83000000Y-113925000D02*
X83000000Y-111462500D01*
X81250000Y-113925000D02*
X83000000Y-113925000D01*
X84705000Y-113925000D02*
X85275000Y-114495000D01*
D54*
X181225000Y-127800000D02*
X181225000Y-126000000D01*
X179575000Y-121400000D02*
X179575000Y-119400000D01*
M02*
