%TF.GenerationSoftware,KiCad,Pcbnew,5.99.0-unknown-b90e72ed07~107~ubuntu18.04.1*%
%TF.CreationDate,2021-02-01T09:40:27+01:00*%
%TF.ProjectId,Uni_Printer,556e695f-5072-4696-9e74-65722e6b6963,rev?*%
%TF.SameCoordinates,PX48009e0PY88da2e0*%
%TF.FileFunction,Copper,L1,Top*%
%TF.FilePolarity,Positive*%
%FSLAX46Y46*%
G04 Gerber Fmt 4.6, Leading zero omitted, Abs format (unit mm)*
G04 Created by KiCad (PCBNEW 5.99.0-unknown-b90e72ed07~107~ubuntu18.04.1) date 2021-02-01 09:40:27*
%MOMM*%
%LPD*%
G01*
G04 APERTURE LIST*
G04 Aperture macros list*
%AMRoundRect*
0 Rectangle with rounded corners*
0 $1 Rounding radius*
0 $2 $3 $4 $5 $6 $7 $8 $9 X,Y pos of 4 corners*
0 Add a 4 corners polygon primitive as box body*
4,1,4,$2,$3,$4,$5,$6,$7,$8,$9,$2,$3,0*
0 Add four circle primitives for the rounded corners*
1,1,$1+$1,$2,$3*
1,1,$1+$1,$4,$5*
1,1,$1+$1,$6,$7*
1,1,$1+$1,$8,$9*
0 Add four rect primitives between the rounded corners*
20,1,$1+$1,$2,$3,$4,$5,0*
20,1,$1+$1,$4,$5,$6,$7,0*
20,1,$1+$1,$6,$7,$8,$9,0*
20,1,$1+$1,$8,$9,$2,$3,0*%
G04 Aperture macros list end*
%TA.AperFunction,SMDPad,CuDef*%
%ADD10R,0.900000X1.700000*%
%TD*%
%TA.AperFunction,SMDPad,CuDef*%
%ADD11RoundRect,0.225000X-0.250000X0.225000X-0.250000X-0.225000X0.250000X-0.225000X0.250000X0.225000X0*%
%TD*%
%TA.AperFunction,SMDPad,CuDef*%
%ADD12RoundRect,0.218750X-0.218750X-0.256250X0.218750X-0.256250X0.218750X0.256250X-0.218750X0.256250X0*%
%TD*%
%TA.AperFunction,SMDPad,CuDef*%
%ADD13RoundRect,0.218750X0.218750X0.256250X-0.218750X0.256250X-0.218750X-0.256250X0.218750X-0.256250X0*%
%TD*%
%TA.AperFunction,SMDPad,CuDef*%
%ADD14RoundRect,0.218750X-0.256250X0.218750X-0.256250X-0.218750X0.256250X-0.218750X0.256250X0.218750X0*%
%TD*%
%TA.AperFunction,SMDPad,CuDef*%
%ADD15RoundRect,0.218750X0.256250X-0.218750X0.256250X0.218750X-0.256250X0.218750X-0.256250X-0.218750X0*%
%TD*%
%TA.AperFunction,SMDPad,CuDef*%
%ADD16RoundRect,0.243750X-0.243750X-0.456250X0.243750X-0.456250X0.243750X0.456250X-0.243750X0.456250X0*%
%TD*%
%TA.AperFunction,SMDPad,CuDef*%
%ADD17RoundRect,0.225000X0.250000X-0.225000X0.250000X0.225000X-0.250000X0.225000X-0.250000X-0.225000X0*%
%TD*%
%TA.AperFunction,SMDPad,CuDef*%
%ADD18RoundRect,0.225000X-0.225000X-0.250000X0.225000X-0.250000X0.225000X0.250000X-0.225000X0.250000X0*%
%TD*%
%TA.AperFunction,SMDPad,CuDef*%
%ADD19R,2.032000X0.660400*%
%TD*%
%TA.AperFunction,SMDPad,CuDef*%
%ADD20R,0.800000X0.500000*%
%TD*%
%TA.AperFunction,SMDPad,CuDef*%
%ADD21R,0.800000X0.400000*%
%TD*%
%TA.AperFunction,SMDPad,CuDef*%
%ADD22R,0.500000X0.800000*%
%TD*%
%TA.AperFunction,SMDPad,CuDef*%
%ADD23R,0.400000X0.800000*%
%TD*%
%TA.AperFunction,SMDPad,CuDef*%
%ADD24RoundRect,0.150000X0.825000X0.150000X-0.825000X0.150000X-0.825000X-0.150000X0.825000X-0.150000X0*%
%TD*%
%TA.AperFunction,SMDPad,CuDef*%
%ADD25R,0.600000X0.600000*%
%TD*%
%TA.AperFunction,SMDPad,CuDef*%
%ADD26R,0.400000X0.600000*%
%TD*%
%TA.AperFunction,ComponentPad*%
%ADD27R,1.800000X3.600000*%
%TD*%
%TA.AperFunction,ComponentPad*%
%ADD28O,1.800000X3.600000*%
%TD*%
%TA.AperFunction,SMDPad,CuDef*%
%ADD29R,0.600000X0.400000*%
%TD*%
%TA.AperFunction,SMDPad,CuDef*%
%ADD30C,1.000000*%
%TD*%
%TA.AperFunction,SMDPad,CuDef*%
%ADD31R,1.950000X2.950000*%
%TD*%
%TA.AperFunction,ComponentPad*%
%ADD32R,1.500000X1.500000*%
%TD*%
%TA.AperFunction,ComponentPad*%
%ADD33C,1.500000*%
%TD*%
%TA.AperFunction,ComponentPad*%
%ADD34R,3.600000X1.800000*%
%TD*%
%TA.AperFunction,ComponentPad*%
%ADD35O,3.600000X1.800000*%
%TD*%
%TA.AperFunction,SMDPad,CuDef*%
%ADD36RoundRect,0.150000X-0.150000X0.825000X-0.150000X-0.825000X0.150000X-0.825000X0.150000X0.825000X0*%
%TD*%
%TA.AperFunction,SMDPad,CuDef*%
%ADD37R,3.300000X2.500000*%
%TD*%
%TA.AperFunction,SMDPad,CuDef*%
%ADD38R,0.850000X0.300000*%
%TD*%
%TA.AperFunction,ComponentPad*%
%ADD39R,1.700000X1.700000*%
%TD*%
%TA.AperFunction,ComponentPad*%
%ADD40O,1.700000X1.700000*%
%TD*%
%TA.AperFunction,SMDPad,CuDef*%
%ADD41RoundRect,0.250000X-0.325000X-1.100000X0.325000X-1.100000X0.325000X1.100000X-0.325000X1.100000X0*%
%TD*%
%TA.AperFunction,SMDPad,CuDef*%
%ADD42R,0.900000X1.500000*%
%TD*%
%TA.AperFunction,SMDPad,CuDef*%
%ADD43R,3.200000X1.500000*%
%TD*%
%TA.AperFunction,SMDPad,CuDef*%
%ADD44RoundRect,0.250000X1.100000X-0.325000X1.100000X0.325000X-1.100000X0.325000X-1.100000X-0.325000X0*%
%TD*%
%TA.AperFunction,SMDPad,CuDef*%
%ADD45R,0.300000X0.700000*%
%TD*%
%TA.AperFunction,SMDPad,CuDef*%
%ADD46R,0.700000X0.300000*%
%TD*%
%TA.AperFunction,SMDPad,CuDef*%
%ADD47R,2.950000X2.950000*%
%TD*%
%TA.AperFunction,ComponentPad*%
%ADD48R,1.778000X1.778000*%
%TD*%
%TA.AperFunction,ComponentPad*%
%ADD49C,1.778000*%
%TD*%
%TA.AperFunction,ComponentPad*%
%ADD50C,2.032000*%
%TD*%
%TA.AperFunction,ComponentPad*%
%ADD51C,2.540000*%
%TD*%
%TA.AperFunction,ComponentPad*%
%ADD52C,1.700000*%
%TD*%
%TA.AperFunction,ComponentPad*%
%ADD53C,3.500000*%
%TD*%
%TA.AperFunction,SMDPad,CuDef*%
%ADD54RoundRect,0.200000X-0.200000X-0.275000X0.200000X-0.275000X0.200000X0.275000X-0.200000X0.275000X0*%
%TD*%
%TA.AperFunction,SMDPad,CuDef*%
%ADD55R,1.525000X0.650000*%
%TD*%
%TA.AperFunction,SMDPad,CuDef*%
%ADD56RoundRect,0.075000X0.075000X-0.725000X0.075000X0.725000X-0.075000X0.725000X-0.075000X-0.725000X0*%
%TD*%
%TA.AperFunction,SMDPad,CuDef*%
%ADD57RoundRect,0.075000X0.725000X-0.075000X0.725000X0.075000X-0.725000X0.075000X-0.725000X-0.075000X0*%
%TD*%
%TA.AperFunction,SMDPad,CuDef*%
%ADD58RoundRect,0.225000X0.225000X0.250000X-0.225000X0.250000X-0.225000X-0.250000X0.225000X-0.250000X0*%
%TD*%
%TA.AperFunction,SMDPad,CuDef*%
%ADD59R,2.000000X1.500000*%
%TD*%
%TA.AperFunction,SMDPad,CuDef*%
%ADD60R,2.000000X3.800000*%
%TD*%
%TA.AperFunction,SMDPad,CuDef*%
%ADD61R,3.500000X2.300000*%
%TD*%
%TA.AperFunction,SMDPad,CuDef*%
%ADD62RoundRect,0.062500X-0.062500X0.350000X-0.062500X-0.350000X0.062500X-0.350000X0.062500X0.350000X0*%
%TD*%
%TA.AperFunction,SMDPad,CuDef*%
%ADD63RoundRect,0.062500X-0.350000X0.062500X-0.350000X-0.062500X0.350000X-0.062500X0.350000X0.062500X0*%
%TD*%
%TA.AperFunction,SMDPad,CuDef*%
%ADD64R,2.600000X2.600000*%
%TD*%
%TA.AperFunction,SMDPad,CuDef*%
%ADD65RoundRect,0.250000X0.787500X0.925000X-0.787500X0.925000X-0.787500X-0.925000X0.787500X-0.925000X0*%
%TD*%
%TA.AperFunction,ViaPad*%
%ADD66C,0.600000*%
%TD*%
%TA.AperFunction,ViaPad*%
%ADD67C,1.000000*%
%TD*%
%TA.AperFunction,ViaPad*%
%ADD68C,0.800000*%
%TD*%
%TA.AperFunction,Conductor*%
%ADD69C,0.300000*%
%TD*%
%TA.AperFunction,Conductor*%
%ADD70C,1.000000*%
%TD*%
%TA.AperFunction,Conductor*%
%ADD71C,0.200000*%
%TD*%
%TA.AperFunction,Conductor*%
%ADD72C,0.400000*%
%TD*%
%TA.AperFunction,Conductor*%
%ADD73C,0.800000*%
%TD*%
%TA.AperFunction,Conductor*%
%ADD74C,2.000000*%
%TD*%
G04 APERTURE END LIST*
D10*
X23200000Y45400000D03*
X26600000Y45400000D03*
X23200000Y52200000D03*
X26600000Y52200000D03*
D11*
X46350000Y52875000D03*
X46350000Y51325000D03*
D12*
X62012500Y93700000D03*
X63587500Y93700000D03*
X62912500Y108500000D03*
X64487500Y108500000D03*
X62012500Y88900000D03*
X63587500Y88900000D03*
D13*
X68587500Y108500000D03*
X67012500Y108500000D03*
X63587500Y95900000D03*
X62012500Y95900000D03*
D12*
X66312500Y88900000D03*
X67887500Y88900000D03*
D13*
X67887500Y95900000D03*
X66312500Y95900000D03*
D14*
X47850000Y52887500D03*
X47850000Y51312500D03*
D15*
X33700000Y74712500D03*
X33700000Y76287500D03*
D12*
X19612500Y62300000D03*
X21187500Y62300000D03*
D16*
X17062500Y59300000D03*
X18937500Y59300000D03*
D14*
X36300000Y52487500D03*
X36300000Y50912500D03*
D13*
X29587500Y57300000D03*
X28012500Y57300000D03*
D17*
X35300000Y74725000D03*
X35300000Y76275000D03*
D14*
X34300000Y52500000D03*
X34300000Y50925000D03*
D18*
X51725000Y68800000D03*
X53275000Y68800000D03*
X51750000Y70350000D03*
X53300000Y70350000D03*
D12*
X51781250Y71950000D03*
X53356250Y71950000D03*
D14*
X12500000Y38587500D03*
X12500000Y37012500D03*
X64100000Y46987500D03*
X64100000Y45412500D03*
D13*
X53687500Y38900000D03*
X52112500Y38900000D03*
X35775000Y48500000D03*
X34200000Y48500000D03*
D12*
X8212500Y20100000D03*
X9787500Y20100000D03*
D13*
X26687500Y49200000D03*
X25112500Y49200000D03*
D15*
X52900000Y15312500D03*
X52900000Y16887500D03*
D19*
X14426600Y48110000D03*
X14426600Y46840000D03*
X14426600Y45570000D03*
X14426600Y44300000D03*
X14426600Y43030000D03*
X14426600Y41760000D03*
X14426600Y40490000D03*
X20573400Y40490000D03*
X20573400Y41760000D03*
X20573400Y43030000D03*
X20573400Y44300000D03*
X20573400Y45570000D03*
X20573400Y46840000D03*
X20573400Y48110000D03*
D12*
X48512500Y13300000D03*
X50087500Y13300000D03*
D20*
X11500000Y45800000D03*
D21*
X11500000Y46600000D03*
X11500000Y47400000D03*
D20*
X11500000Y48200000D03*
X9700000Y48200000D03*
D21*
X9700000Y47400000D03*
X9700000Y46600000D03*
D20*
X9700000Y45800000D03*
X29400000Y65900000D03*
D21*
X29400000Y66700000D03*
X29400000Y67500000D03*
D20*
X29400000Y68300000D03*
X27600000Y68300000D03*
D21*
X27600000Y67500000D03*
X27600000Y66700000D03*
D20*
X27600000Y65900000D03*
D22*
X37700000Y82600000D03*
D23*
X38500000Y82600000D03*
X39300000Y82600000D03*
D22*
X40100000Y82600000D03*
X40100000Y84400000D03*
D23*
X39300000Y84400000D03*
X38500000Y84400000D03*
D22*
X37700000Y84400000D03*
D20*
X50300000Y36500000D03*
D21*
X50300000Y37300000D03*
X50300000Y38100000D03*
D20*
X50300000Y38900000D03*
X48500000Y38900000D03*
D21*
X48500000Y38100000D03*
X48500000Y37300000D03*
D20*
X48500000Y36500000D03*
X21300000Y58500000D03*
D21*
X21300000Y57700000D03*
X21300000Y56900000D03*
D20*
X21300000Y56100000D03*
X23100000Y56100000D03*
D21*
X23100000Y56900000D03*
X23100000Y57700000D03*
D20*
X23100000Y58500000D03*
D12*
X57112500Y13100000D03*
X58687500Y13100000D03*
D20*
X11500000Y40900000D03*
D21*
X11500000Y41700000D03*
X11500000Y42500000D03*
D20*
X11500000Y43300000D03*
X9700000Y43300000D03*
D21*
X9700000Y42500000D03*
X9700000Y41700000D03*
D20*
X9700000Y40900000D03*
D14*
X9800000Y38587500D03*
X9800000Y37012500D03*
D13*
X68600000Y105900000D03*
X67025000Y105900000D03*
D14*
X16600000Y64587500D03*
X16600000Y63012500D03*
D24*
X24575000Y64395000D03*
X24575000Y65665000D03*
X24575000Y66935000D03*
X24575000Y68205000D03*
X19625000Y68205000D03*
X19625000Y66935000D03*
X19625000Y65665000D03*
X19625000Y64395000D03*
D12*
X38012500Y48500000D03*
X39587500Y48500000D03*
D13*
X43400000Y48500000D03*
X41825000Y48500000D03*
D24*
X26975000Y78895000D03*
X26975000Y80165000D03*
X26975000Y81435000D03*
X26975000Y82705000D03*
X22025000Y82705000D03*
X22025000Y81435000D03*
X22025000Y80165000D03*
X22025000Y78895000D03*
D13*
X63587500Y91400000D03*
X62012500Y91400000D03*
D12*
X66712500Y47000000D03*
X68287500Y47000000D03*
D15*
X61400000Y15200000D03*
X61400000Y16775000D03*
D13*
X68275000Y43800000D03*
X66700000Y43800000D03*
D25*
X59450000Y93400000D03*
D26*
X58700000Y93400000D03*
D25*
X57950000Y93400000D03*
X57950000Y91600000D03*
D26*
X58700000Y91600000D03*
D25*
X59450000Y91600000D03*
D27*
X4700000Y7500000D03*
D28*
X8200000Y7500000D03*
X11700000Y7500000D03*
X15200000Y7500000D03*
X18700000Y7500000D03*
X22200000Y7500000D03*
X25700000Y7500000D03*
X29200000Y7500000D03*
X32700000Y7500000D03*
X36200000Y7500000D03*
D12*
X66312500Y93700000D03*
X67887500Y93700000D03*
D13*
X67887500Y91400000D03*
X66312500Y91400000D03*
D12*
X66712500Y49900000D03*
X68287500Y49900000D03*
D25*
X60800000Y108350000D03*
D29*
X60800000Y109100000D03*
D25*
X60800000Y109850000D03*
X59000000Y109850000D03*
D29*
X59000000Y109100000D03*
D25*
X59000000Y108350000D03*
D13*
X64387500Y105800000D03*
X62812500Y105800000D03*
D30*
X2500000Y1750000D03*
X79500000Y125500000D03*
D31*
X38550000Y51300000D03*
X42850000Y51300000D03*
D32*
X10300000Y79900000D03*
D33*
X12840000Y78630000D03*
X10300000Y77360000D03*
X12840000Y76090000D03*
X10300000Y74820000D03*
X12840000Y73550000D03*
X10300000Y72280000D03*
X12840000Y71010000D03*
D34*
X73100000Y42500000D03*
D35*
X73100000Y46000000D03*
X73100000Y49500000D03*
X73100000Y53000000D03*
X73100000Y56500000D03*
X73100000Y60000000D03*
X73100000Y63500000D03*
X73100000Y67000000D03*
X73100000Y70500000D03*
X73100000Y74000000D03*
D36*
X51305000Y20775000D03*
X50035000Y20775000D03*
X48765000Y20775000D03*
X47495000Y20775000D03*
X47495000Y15825000D03*
X48765000Y15825000D03*
X50035000Y15825000D03*
X51305000Y15825000D03*
X59705000Y20675000D03*
X58435000Y20675000D03*
X57165000Y20675000D03*
X55895000Y20675000D03*
X55895000Y15725000D03*
X57165000Y15725000D03*
X58435000Y15725000D03*
X59705000Y15725000D03*
D13*
X39387500Y11300000D03*
X37812500Y11300000D03*
D37*
X3700000Y106700000D03*
X3700000Y113500000D03*
D38*
X21000000Y95600000D03*
X21000000Y96100000D03*
X21000000Y96600000D03*
X19400000Y96600000D03*
X19400000Y96100000D03*
X19400000Y95600000D03*
D15*
X18300000Y81312500D03*
X18300000Y82887500D03*
D39*
X3500000Y47120000D03*
D40*
X6040000Y47120000D03*
X3500000Y44580000D03*
X6040000Y44580000D03*
X3500000Y42040000D03*
X6040000Y42040000D03*
X3500000Y39500000D03*
X6040000Y39500000D03*
X3500000Y36960000D03*
X6040000Y36960000D03*
X3500000Y34420000D03*
X6040000Y34420000D03*
X3500000Y31880000D03*
X6040000Y31880000D03*
X3500000Y29340000D03*
X6040000Y29340000D03*
X3500000Y26800000D03*
X6040000Y26800000D03*
X3500000Y24260000D03*
X6040000Y24260000D03*
X3500000Y21720000D03*
X6040000Y21720000D03*
X3500000Y19180000D03*
X6040000Y19180000D03*
X3500000Y16640000D03*
X6040000Y16640000D03*
X3500000Y14100000D03*
X6040000Y14100000D03*
D13*
X67887500Y78600000D03*
X66312500Y78600000D03*
X66387500Y114400000D03*
X64812500Y114400000D03*
D41*
X28525000Y103800000D03*
X31475000Y103800000D03*
%TA.AperFunction,SMDPad,CuDef*%
G36*
X17350000Y67200000D02*
G01*
X17350000Y66700000D01*
X17345033Y66700000D01*
X17343568Y66620059D01*
X17301293Y66484744D01*
X17222738Y66366734D01*
X17114219Y66275514D01*
X16984460Y66218419D01*
X16850000Y66200836D01*
X16850000Y66200000D01*
X16350000Y66200000D01*
X16350000Y66200836D01*
X16343891Y66200037D01*
X16203814Y66221848D01*
X16075489Y66282096D01*
X15969231Y66375940D01*
X15893583Y66495835D01*
X15854626Y66632142D01*
X15855041Y66700000D01*
X15850000Y66700000D01*
X15850000Y67200000D01*
X17350000Y67200000D01*
G37*
%TD.AperFunction*%
%TA.AperFunction,SMDPad,CuDef*%
G36*
X15855041Y68000000D02*
G01*
X15855492Y68073905D01*
X15896111Y68209726D01*
X15973218Y68328688D01*
X16080615Y68421226D01*
X16209667Y68479903D01*
X16350000Y68500000D01*
X16850000Y68500000D01*
X16862216Y68499851D01*
X17002017Y68476331D01*
X17129596Y68414519D01*
X17234700Y68319384D01*
X17308877Y68198574D01*
X17346166Y68061801D01*
X17345033Y68000000D01*
X17350000Y68000000D01*
X17350000Y67500000D01*
X15850000Y67500000D01*
X15850000Y68000000D01*
X15855041Y68000000D01*
G37*
%TD.AperFunction*%
D15*
X60700000Y44812500D03*
X60700000Y46387500D03*
D42*
X14600000Y113950000D03*
X12300000Y113950000D03*
X10000000Y113950000D03*
D43*
X12300000Y107450000D03*
D12*
X21512500Y85200000D03*
X23087500Y85200000D03*
D42*
X30800000Y113950000D03*
X28500000Y113950000D03*
X26200000Y113950000D03*
D43*
X28500000Y107450000D03*
D13*
X68587500Y111200000D03*
X67012500Y111200000D03*
D17*
X50500000Y31225000D03*
X50500000Y32775000D03*
D42*
X22800000Y113950000D03*
X20500000Y113950000D03*
X18200000Y113950000D03*
D43*
X20500000Y107450000D03*
D14*
X59600000Y24687500D03*
X59600000Y23112500D03*
D27*
X77900000Y119900000D03*
D28*
X74400000Y119900000D03*
X70900000Y119900000D03*
X67400000Y119900000D03*
X63900000Y119900000D03*
X60400000Y119900000D03*
X56900000Y119900000D03*
X53400000Y119900000D03*
X49900000Y119900000D03*
X46400000Y119900000D03*
D12*
X66312500Y65700000D03*
X67887500Y65700000D03*
D36*
X32405000Y21775000D03*
X31135000Y21775000D03*
X29865000Y21775000D03*
X28595000Y21775000D03*
X28595000Y16825000D03*
X29865000Y16825000D03*
X31135000Y16825000D03*
X32405000Y16825000D03*
D15*
X61800000Y29712500D03*
X61800000Y31287500D03*
D13*
X64087500Y65700000D03*
X62512500Y65700000D03*
D20*
X73400000Y17800000D03*
D21*
X73400000Y17000000D03*
X73400000Y16200000D03*
D20*
X73400000Y15400000D03*
X75200000Y15400000D03*
D21*
X75200000Y16200000D03*
X75200000Y17000000D03*
D20*
X75200000Y17800000D03*
D13*
X64487500Y111200000D03*
X62912500Y111200000D03*
D42*
X38800000Y113950000D03*
X36500000Y113950000D03*
X34200000Y113950000D03*
D43*
X36500000Y107450000D03*
D42*
X55000000Y113950000D03*
X52700000Y113950000D03*
X50400000Y113950000D03*
D43*
X52700000Y107450000D03*
D12*
X37812500Y37200000D03*
X39387500Y37200000D03*
D13*
X20587500Y50100000D03*
X19012500Y50100000D03*
D20*
X21100000Y90900000D03*
D21*
X21100000Y91700000D03*
X21100000Y92500000D03*
D20*
X21100000Y93300000D03*
X19300000Y93300000D03*
D21*
X19300000Y92500000D03*
X19300000Y91700000D03*
D20*
X19300000Y90900000D03*
D16*
X17062500Y55200000D03*
X18937500Y55200000D03*
D27*
X34500000Y119900000D03*
D28*
X31000000Y119900000D03*
X27500000Y119900000D03*
X24000000Y119900000D03*
X20500000Y119900000D03*
X17000000Y119900000D03*
X13500000Y119900000D03*
X10000000Y119900000D03*
X6500000Y119900000D03*
X3000000Y119900000D03*
D25*
X15600000Y22150000D03*
D29*
X15600000Y21400000D03*
D25*
X15600000Y20650000D03*
X17400000Y20650000D03*
D29*
X17400000Y21400000D03*
D25*
X17400000Y22150000D03*
D14*
X63900000Y57287500D03*
X63900000Y55712500D03*
D27*
X45100000Y7500000D03*
D28*
X48600000Y7500000D03*
X52100000Y7500000D03*
X55600000Y7500000D03*
X59100000Y7500000D03*
X62600000Y7500000D03*
X66100000Y7500000D03*
X69600000Y7500000D03*
X73100000Y7500000D03*
X76600000Y7500000D03*
D15*
X57800000Y44812500D03*
X57800000Y46387500D03*
D44*
X44050000Y92925000D03*
X44050000Y95875000D03*
D34*
X73100000Y79900000D03*
D35*
X73100000Y83400000D03*
X73100000Y86900000D03*
X73100000Y90400000D03*
X73100000Y93900000D03*
X73100000Y97400000D03*
X73100000Y100900000D03*
X73100000Y104400000D03*
X73100000Y107900000D03*
X73100000Y111400000D03*
D20*
X44400000Y77300000D03*
D21*
X44400000Y76500000D03*
X44400000Y75700000D03*
D20*
X44400000Y74900000D03*
X46200000Y74900000D03*
D21*
X46200000Y75700000D03*
X46200000Y76500000D03*
D20*
X46200000Y77300000D03*
D12*
X28512500Y13400000D03*
X30087500Y13400000D03*
X66312500Y81200000D03*
X67887500Y81200000D03*
D45*
X32200000Y100300000D03*
X31700000Y100300000D03*
X31200000Y100300000D03*
X30700000Y100300000D03*
X30200000Y100300000D03*
D46*
X29150000Y99250000D03*
X29150000Y98750000D03*
X29150000Y98250000D03*
X29150000Y97750000D03*
X29150000Y97250000D03*
D45*
X30200000Y96200000D03*
X30700000Y96200000D03*
X31200000Y96200000D03*
X31700000Y96200000D03*
X32200000Y96200000D03*
D46*
X33250000Y97250000D03*
X33250000Y97750000D03*
X33250000Y98250000D03*
X33250000Y98750000D03*
X33250000Y99250000D03*
D47*
X31200000Y98250000D03*
D31*
X52662500Y33150000D03*
X56962500Y33150000D03*
D48*
X68100000Y24600000D03*
D49*
X65560000Y25870000D03*
X68100000Y27140000D03*
X65560000Y28410000D03*
X68100000Y29680000D03*
X65560000Y30950000D03*
X68100000Y32220000D03*
X65560000Y33490000D03*
D50*
X78564800Y22395400D03*
X78564800Y24935000D03*
X78564800Y33130000D03*
X78564800Y35669200D03*
D51*
X71400000Y36795000D03*
X71400000Y21295000D03*
D20*
X47350000Y31200000D03*
D21*
X47350000Y32000000D03*
X47350000Y32800000D03*
D20*
X47350000Y33600000D03*
X45550000Y33600000D03*
D21*
X45550000Y32800000D03*
X45550000Y32000000D03*
D20*
X45550000Y31200000D03*
D13*
X57987500Y30300000D03*
X56412500Y30300000D03*
D14*
X61800000Y27987500D03*
X61800000Y26412500D03*
D15*
X59600000Y26412500D03*
X59600000Y27987500D03*
D39*
X15500000Y95500000D03*
D52*
X15500000Y98000000D03*
X13500000Y98000000D03*
X13500000Y95500000D03*
D53*
X10790000Y102770000D03*
X10790000Y90730000D03*
D54*
X10875000Y87400000D03*
X12525000Y87400000D03*
D55*
X43512000Y12955000D03*
X43512000Y14225000D03*
X43512000Y15495000D03*
X43512000Y16765000D03*
X43512000Y18035000D03*
X43512000Y19305000D03*
X43512000Y20575000D03*
X43512000Y21845000D03*
X38088000Y21845000D03*
X38088000Y20575000D03*
X38088000Y19305000D03*
X38088000Y18035000D03*
X38088000Y16765000D03*
X38088000Y15495000D03*
X38088000Y14225000D03*
X38088000Y12955000D03*
D14*
X27100000Y100187500D03*
X27100000Y98612500D03*
D13*
X53687500Y36000000D03*
X52112500Y36000000D03*
D25*
X66800000Y52450000D03*
D29*
X66800000Y53200000D03*
D25*
X66800000Y53950000D03*
X65000000Y53950000D03*
D29*
X65000000Y53200000D03*
D25*
X65000000Y52450000D03*
D39*
X36000000Y88000000D03*
D40*
X38540000Y88000000D03*
X41080000Y88000000D03*
X43620000Y88000000D03*
D12*
X9312500Y12300000D03*
X10887500Y12300000D03*
D14*
X62300000Y21187500D03*
X62300000Y19612500D03*
D42*
X47000000Y113950000D03*
X44700000Y113950000D03*
X42400000Y113950000D03*
D43*
X44700000Y107450000D03*
D12*
X47112500Y27275000D03*
X48687500Y27275000D03*
X18700000Y12200000D03*
X20275000Y12200000D03*
X60812500Y114400000D03*
X62387500Y114400000D03*
D32*
X10300000Y62100000D03*
D33*
X12840000Y60830000D03*
X10300000Y59560000D03*
X12840000Y58290000D03*
X10300000Y57020000D03*
X12840000Y55750000D03*
X10300000Y54480000D03*
X12840000Y53210000D03*
D54*
X38475000Y30600000D03*
X40125000Y30600000D03*
D17*
X29900000Y81225000D03*
X29900000Y82775000D03*
D12*
X55912500Y36000000D03*
X57487500Y36000000D03*
%TA.AperFunction,SMDPad,CuDef*%
G36*
X17550000Y78850000D02*
G01*
X17550000Y79350000D01*
X17554967Y79350000D01*
X17556432Y79429941D01*
X17598707Y79565256D01*
X17677262Y79683266D01*
X17785781Y79774486D01*
X17915540Y79831581D01*
X18050000Y79849164D01*
X18050000Y79850000D01*
X18550000Y79850000D01*
X18550000Y79849164D01*
X18556109Y79849963D01*
X18696186Y79828152D01*
X18824511Y79767904D01*
X18930769Y79674060D01*
X19006417Y79554165D01*
X19045374Y79417858D01*
X19044959Y79350000D01*
X19050000Y79350000D01*
X19050000Y78850000D01*
X17550000Y78850000D01*
G37*
%TD.AperFunction*%
%TA.AperFunction,SMDPad,CuDef*%
G36*
X19044959Y78050000D02*
G01*
X19044508Y77976095D01*
X19003889Y77840274D01*
X18926782Y77721312D01*
X18819385Y77628774D01*
X18690333Y77570097D01*
X18550000Y77550000D01*
X18050000Y77550000D01*
X18037784Y77550149D01*
X17897983Y77573669D01*
X17770404Y77635481D01*
X17665300Y77730616D01*
X17591123Y77851426D01*
X17553834Y77988199D01*
X17554967Y78050000D01*
X17550000Y78050000D01*
X17550000Y78550000D01*
X19050000Y78550000D01*
X19050000Y78050000D01*
X19044959Y78050000D01*
G37*
%TD.AperFunction*%
D14*
X25900000Y95487500D03*
X25900000Y93912500D03*
D18*
X8250000Y21700000D03*
X9800000Y21700000D03*
D13*
X62387500Y33500000D03*
X60812500Y33500000D03*
X42587500Y28600000D03*
X41012500Y28600000D03*
D56*
X34800000Y56025000D03*
X35300000Y56025000D03*
X35800000Y56025000D03*
X36300000Y56025000D03*
X36800000Y56025000D03*
X37300000Y56025000D03*
X37800000Y56025000D03*
X38300000Y56025000D03*
X38800000Y56025000D03*
X39300000Y56025000D03*
X39800000Y56025000D03*
X40300000Y56025000D03*
X40800000Y56025000D03*
X41300000Y56025000D03*
X41800000Y56025000D03*
X42300000Y56025000D03*
X42800000Y56025000D03*
X43300000Y56025000D03*
X43800000Y56025000D03*
X44300000Y56025000D03*
X44800000Y56025000D03*
X45300000Y56025000D03*
X45800000Y56025000D03*
X46300000Y56025000D03*
X46800000Y56025000D03*
D57*
X48475000Y57700000D03*
X48475000Y58200000D03*
X48475000Y58700000D03*
X48475000Y59200000D03*
X48475000Y59700000D03*
X48475000Y60200000D03*
X48475000Y60700000D03*
X48475000Y61200000D03*
X48475000Y61700000D03*
X48475000Y62200000D03*
X48475000Y62700000D03*
X48475000Y63200000D03*
X48475000Y63700000D03*
X48475000Y64200000D03*
X48475000Y64700000D03*
X48475000Y65200000D03*
X48475000Y65700000D03*
X48475000Y66200000D03*
X48475000Y66700000D03*
X48475000Y67200000D03*
X48475000Y67700000D03*
X48475000Y68200000D03*
X48475000Y68700000D03*
X48475000Y69200000D03*
X48475000Y69700000D03*
D56*
X46800000Y71375000D03*
X46300000Y71375000D03*
X45800000Y71375000D03*
X45300000Y71375000D03*
X44800000Y71375000D03*
X44300000Y71375000D03*
X43800000Y71375000D03*
X43300000Y71375000D03*
X42800000Y71375000D03*
X42300000Y71375000D03*
X41800000Y71375000D03*
X41300000Y71375000D03*
X40800000Y71375000D03*
X40300000Y71375000D03*
X39800000Y71375000D03*
X39300000Y71375000D03*
X38800000Y71375000D03*
X38300000Y71375000D03*
X37800000Y71375000D03*
X37300000Y71375000D03*
X36800000Y71375000D03*
X36300000Y71375000D03*
X35800000Y71375000D03*
X35300000Y71375000D03*
X34800000Y71375000D03*
D57*
X33125000Y69700000D03*
X33125000Y69200000D03*
X33125000Y68700000D03*
X33125000Y68200000D03*
X33125000Y67700000D03*
X33125000Y67200000D03*
X33125000Y66700000D03*
X33125000Y66200000D03*
X33125000Y65700000D03*
X33125000Y65200000D03*
X33125000Y64700000D03*
X33125000Y64200000D03*
X33125000Y63700000D03*
X33125000Y63200000D03*
X33125000Y62700000D03*
X33125000Y62200000D03*
X33125000Y61700000D03*
X33125000Y61200000D03*
X33125000Y60700000D03*
X33125000Y60200000D03*
X33125000Y59700000D03*
X33125000Y59200000D03*
X33125000Y58700000D03*
X33125000Y58200000D03*
X33125000Y57700000D03*
D58*
X56975000Y23200000D03*
X55425000Y23200000D03*
D12*
X66312500Y86500000D03*
X67887500Y86500000D03*
X66312500Y58100000D03*
X67887500Y58100000D03*
D13*
X33287500Y94000000D03*
X31712500Y94000000D03*
D12*
X66312500Y68200000D03*
X67887500Y68200000D03*
D25*
X63000000Y77150000D03*
D29*
X63000000Y77900000D03*
D25*
X63000000Y78650000D03*
X61200000Y78650000D03*
D29*
X61200000Y77900000D03*
D25*
X61200000Y77150000D03*
D12*
X66312500Y84000000D03*
X67887500Y84000000D03*
X35512500Y102500000D03*
X37087500Y102500000D03*
D15*
X34100000Y16312500D03*
X34100000Y17887500D03*
D13*
X29687500Y94000000D03*
X28112500Y94000000D03*
D59*
X44250000Y104300000D03*
D60*
X50550000Y102000000D03*
D59*
X44250000Y102000000D03*
X44250000Y99700000D03*
D12*
X52012500Y58400000D03*
X53587500Y58400000D03*
D17*
X48900000Y31225000D03*
X48900000Y32775000D03*
D61*
X38400000Y99500000D03*
X38400000Y93500000D03*
D20*
X50550000Y81100000D03*
D21*
X50550000Y81900000D03*
X50550000Y82700000D03*
D20*
X50550000Y83500000D03*
X48750000Y83500000D03*
D21*
X48750000Y82700000D03*
X48750000Y81900000D03*
D20*
X48750000Y81100000D03*
D16*
X19462500Y89100000D03*
X21337500Y89100000D03*
D62*
X54050000Y28937500D03*
X53550000Y28937500D03*
X53050000Y28937500D03*
X52550000Y28937500D03*
X52050000Y28937500D03*
X51550000Y28937500D03*
D63*
X50862500Y28250000D03*
X50862500Y27750000D03*
X50862500Y27250000D03*
X50862500Y26750000D03*
X50862500Y26250000D03*
X50862500Y25750000D03*
D62*
X51550000Y25062500D03*
X52050000Y25062500D03*
X52550000Y25062500D03*
X53050000Y25062500D03*
X53550000Y25062500D03*
X54050000Y25062500D03*
D63*
X54737500Y25750000D03*
X54737500Y26250000D03*
X54737500Y26750000D03*
X54737500Y27250000D03*
X54737500Y27750000D03*
X54737500Y28250000D03*
D64*
X52800000Y27000000D03*
D20*
X11000000Y15800000D03*
D21*
X11000000Y16600000D03*
X11000000Y17400000D03*
D20*
X11000000Y18200000D03*
X9200000Y18200000D03*
D21*
X9200000Y17400000D03*
X9200000Y16600000D03*
D20*
X9200000Y15800000D03*
D18*
X9775000Y25200000D03*
X11325000Y25200000D03*
D12*
X62512500Y68200000D03*
X64087500Y68200000D03*
X66312500Y60600000D03*
X67887500Y60600000D03*
D13*
X67887500Y55700000D03*
X66312500Y55700000D03*
D18*
X9775000Y23500000D03*
X11325000Y23500000D03*
D36*
X17105000Y17675000D03*
X15835000Y17675000D03*
X14565000Y17675000D03*
X13295000Y17675000D03*
X13295000Y12725000D03*
X14565000Y12725000D03*
X15835000Y12725000D03*
X17105000Y12725000D03*
D65*
X52962500Y94900000D03*
X48037500Y94900000D03*
D66*
X54400000Y105600000D03*
X60700000Y47000000D03*
X33800000Y74100000D03*
X36900000Y82600000D03*
D67*
X54600000Y94900000D03*
D66*
X49800000Y57900000D03*
X51400000Y58400000D03*
X51300000Y14600000D03*
X22300000Y52200000D03*
X39650000Y54795581D03*
X11500000Y38600000D03*
X37490280Y54775125D03*
D67*
X51200000Y94900000D03*
D66*
X60400000Y77900000D03*
X15014505Y21391297D03*
X51150000Y70350000D03*
X32400000Y15600000D03*
X59900000Y109900000D03*
X19600000Y63500000D03*
X16800000Y21400000D03*
X53000000Y14600000D03*
X33700000Y15700000D03*
X9300000Y23200000D03*
X60500000Y92800000D03*
X35300000Y52500000D03*
X24000000Y57700000D03*
X46350000Y53500000D03*
X51168750Y71950000D03*
X21500000Y84300000D03*
X31700000Y57700000D03*
X67800000Y53200000D03*
X30400000Y57300000D03*
X17100000Y11500000D03*
X57900000Y92500000D03*
X65900000Y53200000D03*
X18700000Y12900000D03*
X44800000Y54800000D03*
X9200000Y25150000D03*
X22000000Y83500000D03*
X61400000Y14587500D03*
X47850000Y53550000D03*
X18700000Y62300000D03*
D67*
X53000000Y93100000D03*
D66*
X8800000Y38600000D03*
D67*
X53000000Y96700000D03*
D66*
X34200000Y71400000D03*
X59700000Y14500000D03*
X49900000Y69850000D03*
X37074998Y52500000D03*
X17900000Y50100000D03*
X11950000Y23500000D03*
X12900000Y40500000D03*
X36300000Y50400000D03*
X27000000Y93900000D03*
X20900000Y12200000D03*
X55900000Y14200000D03*
X14600000Y16500000D03*
X53800000Y28000000D03*
X36900000Y18500000D03*
D67*
X46200000Y104300000D03*
D66*
X48800000Y19600000D03*
X34600000Y49150000D03*
X53600000Y16900000D03*
X42300000Y16800000D03*
X53968750Y71950000D03*
X31100000Y20100000D03*
X33300000Y96500000D03*
X58600000Y30900000D03*
X23900000Y85200000D03*
X33700000Y76900000D03*
X64000000Y77100000D03*
X51800000Y26000000D03*
X47100000Y76500000D03*
X50040000Y19600000D03*
X28300000Y100200000D03*
X13300000Y87500000D03*
D67*
X52700000Y115100000D03*
D66*
X50700000Y69350000D03*
X51500000Y36000000D03*
X39600000Y47800000D03*
X69100000Y95900000D03*
X56800000Y91600000D03*
X31900000Y95200000D03*
D67*
X28500000Y115100000D03*
D66*
X24100000Y45400000D03*
D67*
X1700000Y105800000D03*
D66*
X29900000Y83800000D03*
X27500000Y16800000D03*
X57000000Y22500000D03*
D68*
X30200000Y97200000D03*
D66*
X19600000Y69000000D03*
X58400000Y19500000D03*
X61400000Y17387500D03*
X39400000Y38200000D03*
X15800000Y16600000D03*
D67*
X1750000Y107750000D03*
D66*
X44080000Y57370000D03*
X62100000Y78700000D03*
X51800000Y28000000D03*
X48900000Y33450000D03*
D67*
X36500000Y115100000D03*
D66*
X47850000Y50700000D03*
X39620000Y57400000D03*
D67*
X12300000Y115100000D03*
D66*
X28500000Y80200000D03*
X47900000Y83500000D03*
X12800000Y12800000D03*
X22100000Y62300000D03*
X22034411Y96200010D03*
X47100000Y28400000D03*
X35200000Y72600000D03*
X63800000Y80800000D03*
X69600000Y105900000D03*
D67*
X43250000Y96800000D03*
D66*
X69100000Y91400000D03*
X47900000Y82700000D03*
X10500000Y21700000D03*
D67*
X5600000Y105900000D03*
D66*
X47100000Y77300000D03*
X40000000Y11300000D03*
X57800000Y47000000D03*
X48500000Y57000000D03*
X59000000Y110500000D03*
D68*
X32300000Y99349998D03*
D66*
X16000000Y59300000D03*
X67800000Y52400000D03*
X60200000Y33500000D03*
X17400000Y20100000D03*
X50550000Y33450000D03*
X34500000Y50400000D03*
X41100000Y29300000D03*
X62800000Y69300000D03*
X53900000Y70300000D03*
X47900000Y81900000D03*
D68*
X30100000Y99349998D03*
D66*
X57200000Y19500000D03*
X18800000Y89200000D03*
X47100000Y74900000D03*
X57500000Y36600000D03*
X52100000Y39600000D03*
D67*
X44700000Y115100000D03*
D66*
X47100000Y75700000D03*
X61900000Y109900000D03*
X41800000Y47900000D03*
X34100000Y18500000D03*
D67*
X44650000Y96850000D03*
D66*
X63400000Y46300000D03*
X54200000Y58400000D03*
D67*
X33000000Y103800000D03*
D66*
X47900000Y81100000D03*
X47500000Y17000000D03*
X43100000Y22700000D03*
X35300000Y76900000D03*
X12000000Y25150000D03*
X10500000Y20100000D03*
X27400000Y57900000D03*
X16100000Y22200000D03*
X29900000Y20100000D03*
X24000000Y49200000D03*
X32800000Y95200000D03*
D68*
X32300000Y97200000D03*
D66*
X62300000Y18700000D03*
X53900000Y68800000D03*
X46350000Y50650000D03*
D67*
X20500000Y115100000D03*
D66*
X20600000Y78900000D03*
X16000000Y55200000D03*
X53800000Y26000000D03*
X60434358Y93650000D03*
X62900000Y57300000D03*
X65900000Y54000003D03*
X28100000Y93000000D03*
X30800000Y94700000D03*
D67*
X46600000Y93400000D03*
D66*
X31800000Y58600000D03*
X68600000Y112200000D03*
D68*
X58900000Y105100000D03*
X56700000Y113900000D03*
X69000000Y98400000D03*
D66*
X30600000Y87100000D03*
X31700000Y87100000D03*
X28500000Y87100000D03*
X28400000Y91400000D03*
X30600000Y91400000D03*
X31700000Y91400000D03*
X29500000Y87100000D03*
D68*
X67700000Y97900000D03*
D66*
X29400000Y91400000D03*
X50300000Y35500000D03*
X40700000Y35500000D03*
X39407114Y27692886D03*
X43700000Y27692886D03*
X36600000Y48500000D03*
X41700000Y53500000D03*
X29500000Y100300000D03*
X41140000Y57480000D03*
X35400000Y63100000D03*
X26000000Y38100000D03*
X56000000Y63200000D03*
X59900000Y63100000D03*
X56000000Y64800000D03*
X59875735Y65524265D03*
X59900000Y64700000D03*
X56000000Y64000000D03*
X26600000Y37500000D03*
X37787851Y64860000D03*
D68*
X64200000Y83700000D03*
D67*
X55000000Y110500000D03*
D68*
X64600000Y59900000D03*
X64600000Y50000000D03*
X60700000Y112200000D03*
D67*
X54900000Y107400000D03*
X55000000Y109000000D03*
D68*
X64900000Y69300000D03*
X64600000Y90200000D03*
X63600000Y97000000D03*
D67*
X55000000Y112000000D03*
D68*
X57800000Y108900000D03*
D66*
X57100000Y93400000D03*
X49900000Y59500000D03*
X56700000Y90700000D03*
X50200000Y58700000D03*
X59500000Y112600000D03*
X50300000Y62400000D03*
X59800000Y104900000D03*
X51100000Y62100000D03*
X33865019Y39932041D03*
X23000000Y41500003D03*
X16900000Y42400000D03*
X42640000Y67400000D03*
X66500000Y82300000D03*
X23000000Y42300006D03*
X43240000Y64200000D03*
X16300000Y43500000D03*
X34664965Y39922604D03*
X18800000Y45600000D03*
X12250000Y42500000D03*
X18900000Y41100000D03*
X32200000Y39900000D03*
X41400000Y63600000D03*
X23000000Y39900000D03*
X45200000Y12900000D03*
X45000000Y14900000D03*
X45800000Y18000000D03*
X42040000Y68140000D03*
X16200000Y41900000D03*
X23000000Y40700000D03*
X33024265Y39924265D03*
X45000000Y19300000D03*
X36200000Y20500000D03*
X25554837Y55973367D03*
X19000000Y44300000D03*
X36850000Y19298437D03*
X19100000Y46900000D03*
X40480000Y68740000D03*
X36100000Y16800000D03*
X34500000Y15200000D03*
X44375735Y24775735D03*
X44074265Y30900000D03*
X45000000Y23899980D03*
X44113494Y31709300D03*
X45700000Y23299980D03*
X44085662Y32585662D03*
X8100000Y17400000D03*
X8124265Y18224265D03*
X68300000Y45100000D03*
X69100000Y55700000D03*
X66700000Y44900000D03*
X65300000Y44900000D03*
X65300000Y58500000D03*
X65200000Y55700000D03*
X66800000Y67000000D03*
X65500000Y67000000D03*
X65200000Y79700000D03*
X68100000Y64500000D03*
X65700000Y111200000D03*
X39020000Y58280000D03*
X37914579Y54000000D03*
X29200000Y54200000D03*
X48700000Y28400000D03*
X57800000Y44200000D03*
X55400000Y23800000D03*
X60300000Y23100000D03*
X61200000Y26400000D03*
X54500000Y29800000D03*
X63000000Y33500000D03*
X46450000Y33600000D03*
X60700000Y44200000D03*
X50000000Y27200000D03*
X46450000Y32000000D03*
X62300000Y21800000D03*
X54800000Y25000000D03*
X61100000Y31300000D03*
X60200000Y28000000D03*
X55800000Y30300000D03*
X51100000Y38900000D03*
X38790000Y54000000D03*
X29200000Y53400000D03*
X40310000Y58890000D03*
X39587851Y64830000D03*
X67800000Y79700000D03*
X59100000Y89900000D03*
X30475735Y54824265D03*
X34715735Y59364265D03*
X40190000Y65500000D03*
X40790000Y66110000D03*
X59100000Y97000000D03*
X66700000Y61600000D03*
X66800000Y69800000D03*
X66300000Y85400000D03*
X25400000Y38700000D03*
X37620000Y65660000D03*
X24800000Y39300000D03*
X36940000Y66150000D03*
X43840001Y61840001D03*
X28490000Y67080000D03*
X66300000Y92700000D03*
X61800000Y94900000D03*
X61100000Y94100000D03*
X23000000Y65650000D03*
X31659265Y65669265D03*
X59400000Y115400000D03*
X66200000Y112300000D03*
X70100000Y114400000D03*
X53700000Y37800000D03*
X55000000Y28900000D03*
X29700000Y95200000D03*
X27200000Y95200000D03*
X66400000Y89924990D03*
X61500000Y92500000D03*
X57800000Y89900000D03*
X61400000Y106800000D03*
X46350000Y31200000D03*
X50375735Y24275735D03*
X45550000Y34900000D03*
X40100000Y34900000D03*
D67*
X68600000Y109800000D03*
D66*
X72400000Y17000000D03*
X53199265Y30550735D03*
X72400000Y16200000D03*
X54000000Y30600000D03*
X74400000Y16200000D03*
X76100000Y17800000D03*
X65400000Y105300000D03*
X64100000Y107000000D03*
X40200000Y76400000D03*
X34430000Y68030000D03*
X50400000Y112600000D03*
X51500000Y81900000D03*
X34200000Y112600000D03*
X43500000Y74900000D03*
X18200000Y112600000D03*
X45300000Y76500000D03*
X42100000Y76000000D03*
X46300000Y65500000D03*
X51500000Y81100000D03*
X42400000Y112600000D03*
X26200000Y112600000D03*
X45300000Y75700000D03*
X44400000Y78100000D03*
X10000000Y112600000D03*
X47100000Y65500000D03*
X29150000Y61550000D03*
X24290000Y52200000D03*
X33100000Y70400000D03*
X38500000Y81700000D03*
X36224989Y73400000D03*
X39300000Y81700000D03*
X47140000Y59700000D03*
X36771014Y45240000D03*
X36180000Y45840000D03*
X45400000Y59200000D03*
X36075735Y61924265D03*
X27200000Y36900000D03*
X32400000Y35600000D03*
X38097571Y57400000D03*
X8700000Y40900000D03*
X35775468Y59824532D03*
X38387851Y66100000D03*
X13600000Y37000000D03*
X38987851Y66985421D03*
X10900000Y37000000D03*
X8600000Y37000000D03*
X66700000Y51000000D03*
X42800000Y70000000D03*
X28500973Y68018811D03*
D69*
X23200000Y52200000D02*
X22300000Y52200000D01*
D70*
X52962500Y94900000D02*
X52962500Y93137500D01*
D69*
X16800000Y21400000D02*
X16919998Y21400000D01*
X58700000Y93400000D02*
X58700000Y93000000D01*
X58950010Y92749990D02*
X60449990Y92749990D01*
X22025000Y83475000D02*
X22000000Y83500000D01*
D70*
X52962500Y94900000D02*
X52962500Y96662500D01*
D69*
X58700000Y91600000D02*
X58700000Y92200000D01*
X29587500Y57300000D02*
X30400000Y57300000D01*
X19625000Y63525000D02*
X19600000Y63500000D01*
X58400000Y92500000D02*
X57900000Y92500000D01*
X58700000Y92200000D02*
X58400000Y92500000D01*
X60700000Y46387500D02*
X60700000Y47000000D01*
X65000000Y53200000D02*
X65900000Y53200000D01*
X34225000Y71375000D02*
X34200000Y71400000D01*
D70*
X52962500Y93137500D02*
X53000000Y93100000D01*
D69*
X51781250Y71950000D02*
X51168750Y71950000D01*
D70*
X52962500Y96662500D02*
X53000000Y96700000D01*
D69*
X37062498Y52487500D02*
X37074998Y52500000D01*
X11512500Y38587500D02*
X11500000Y38600000D01*
X37700000Y82600000D02*
X36900000Y82600000D01*
X59700000Y14500000D02*
X59705000Y15725000D01*
D70*
X50550000Y97312500D02*
X52962500Y94900000D01*
D69*
X39800000Y56025000D02*
X39800000Y54945581D01*
X66800000Y53200000D02*
X67800000Y53200000D01*
X39800000Y54945581D02*
X39650000Y54795581D01*
X15023208Y21400000D02*
X15014505Y21391297D01*
X21512500Y84312500D02*
X21500000Y84300000D01*
X49500000Y58200000D02*
X49800000Y57900000D01*
X63000000Y77900000D02*
X60400000Y77900000D01*
X49750000Y69700000D02*
X49900000Y69850000D01*
X37300000Y56025000D02*
X37300000Y54965405D01*
X37300000Y54965405D02*
X37490280Y54775125D01*
X12500000Y38587500D02*
X11512500Y38587500D01*
D70*
X50550000Y102000000D02*
X50550000Y97312500D01*
D69*
X36300000Y52487500D02*
X37062498Y52487500D01*
X23100000Y57700000D02*
X24000000Y57700000D01*
X44800000Y56025000D02*
X44800000Y54800000D01*
D70*
X52962500Y94900000D02*
X51200000Y94900000D01*
D71*
X60800000Y109100000D02*
X59800000Y109100000D01*
D69*
X16919998Y21400000D02*
X17400000Y21400000D01*
D71*
X59900000Y109200000D02*
X59900000Y109900000D01*
X59800000Y109100000D02*
X59000000Y109100000D01*
D70*
X44250000Y102000000D02*
X50550000Y102000000D01*
D69*
X21512500Y85200000D02*
X21512500Y84312500D01*
X8812500Y38587500D02*
X8800000Y38600000D01*
X9800000Y38587500D02*
X8812500Y38587500D01*
D70*
X52962500Y94900000D02*
X54600000Y94900000D01*
D69*
X52012500Y58400000D02*
X51400000Y58400000D01*
X34300000Y52500000D02*
X35300000Y52500000D01*
X48475000Y58200000D02*
X49500000Y58200000D01*
X61200000Y77900000D02*
X60400000Y77900000D01*
D71*
X59800000Y109100000D02*
X59900000Y109200000D01*
D69*
X19612500Y62300000D02*
X18700000Y62300000D01*
X33125000Y57700000D02*
X31700000Y57700000D01*
X15600000Y21400000D02*
X15023208Y21400000D01*
X60449990Y92749990D02*
X60500000Y92800000D01*
X34800000Y71375000D02*
X34225000Y71375000D01*
X62100000Y77900000D02*
X60400000Y77900000D01*
X19625000Y64395000D02*
X19625000Y63525000D01*
X48475000Y69700000D02*
X49750000Y69700000D01*
X22025000Y82705000D02*
X22025000Y83475000D01*
X58700000Y93000000D02*
X58950010Y92749990D01*
D71*
X39300000Y56025000D02*
X39300000Y57080000D01*
D69*
X38088000Y18035000D02*
X37365000Y18035000D01*
X33250000Y97250000D02*
X33250000Y96550000D01*
X31135000Y21775000D02*
X31135000Y20135000D01*
D70*
X20500000Y113950000D02*
X20500000Y115100000D01*
D69*
X25900000Y93912500D02*
X26987500Y93912500D01*
X12910000Y40490000D02*
X12900000Y40500000D01*
X22025000Y78895000D02*
X20605000Y78895000D01*
D70*
X36500000Y113950000D02*
X36500000Y115100000D01*
D69*
X29900000Y82775000D02*
X29900000Y83800000D01*
X21000000Y96100000D02*
X21934401Y96100000D01*
X57950000Y91600000D02*
X56800000Y91600000D01*
X31700000Y95400000D02*
X31900000Y95200000D01*
D72*
X31199998Y98250000D02*
X30100000Y99349998D01*
D69*
X65849997Y53950000D02*
X65900000Y54000003D01*
X52100000Y39600000D02*
X52112500Y38900000D01*
X28112500Y93012500D02*
X28100000Y93000000D01*
D71*
X41100000Y29300000D02*
X41012500Y28600000D01*
D70*
X28500000Y113950000D02*
X28500000Y115100000D01*
D69*
X17062500Y59300000D02*
X16000000Y59300000D01*
X33250000Y96550000D02*
X33300000Y96500000D01*
X26987500Y93912500D02*
X27000000Y93900000D01*
D71*
X43800000Y57090000D02*
X44080000Y57370000D01*
D69*
X65000000Y53950000D02*
X65849997Y53950000D01*
X67887500Y91400000D02*
X69100000Y91400000D01*
X52800000Y27000000D02*
X53800000Y26000000D01*
D72*
X31200000Y98250000D02*
X31550000Y98250000D01*
D71*
X48750000Y81900000D02*
X47900000Y81900000D01*
D69*
X34600000Y49150000D02*
X34200000Y48521881D01*
X43512000Y16765000D02*
X42335000Y16765000D01*
X61624980Y109624980D02*
X61900000Y109900000D01*
X33125000Y58200000D02*
X32200000Y58200000D01*
D72*
X31250000Y98250000D02*
X32300000Y97200000D01*
D69*
X62912500Y57287500D02*
X62900000Y57300000D01*
X23200000Y45400000D02*
X24100000Y45400000D01*
X61587500Y16975000D02*
X61600000Y16987500D01*
X27525000Y16825000D02*
X27500000Y16800000D01*
X43512000Y22288000D02*
X43100000Y22700000D01*
D70*
X48037500Y94900000D02*
X48037500Y94837500D01*
D69*
X63000000Y77150000D02*
X63950000Y77150000D01*
D72*
X31200000Y98250000D02*
X31200000Y98200000D01*
D69*
X32200000Y58200000D02*
X31800000Y58600000D01*
X68587500Y111200000D02*
X68587500Y112187500D01*
D70*
X31475000Y103800000D02*
X33000000Y103800000D01*
D71*
X48750000Y81100000D02*
X47900000Y81100000D01*
D69*
X37365000Y18035000D02*
X36900000Y18500000D01*
D70*
X44700000Y113950000D02*
X44700000Y115100000D01*
D71*
X46200000Y75700000D02*
X47100000Y75700000D01*
D69*
X28112500Y94000000D02*
X28112500Y93012500D01*
X33700000Y76287500D02*
X33700000Y76900000D01*
X26975000Y80165000D02*
X28465000Y80165000D01*
X58000000Y30300000D02*
X57987500Y30300000D01*
X48475000Y57025000D02*
X48500000Y57000000D01*
X39387500Y37200000D02*
X39387500Y38187500D01*
X61624980Y108824980D02*
X61624980Y109624980D01*
X31200000Y95100000D02*
X30800000Y94700000D01*
X60800000Y108350000D02*
X61150000Y108350000D01*
D70*
X48037500Y94837500D02*
X46600000Y93400000D01*
D69*
X29865000Y20135000D02*
X29900000Y20100000D01*
X48475000Y57700000D02*
X48475000Y57025000D01*
X39600000Y47800000D02*
X39587500Y48500000D01*
X52800000Y27000000D02*
X53800000Y28000000D01*
D71*
X47112500Y27275000D02*
X47112500Y28387500D01*
X46200000Y77300000D02*
X47100000Y77300000D01*
D69*
X57500000Y36012500D02*
X57487500Y36000000D01*
X25112500Y49200000D02*
X24000000Y49200000D01*
X21934401Y96100000D02*
X22034411Y96200010D01*
X55895000Y15725000D02*
X55895000Y14205000D01*
D71*
X47112500Y28387500D02*
X47100000Y28400000D01*
D69*
X61150000Y108350000D02*
X61624980Y108824980D01*
X23087500Y85200000D02*
X23900000Y85200000D01*
X56975000Y22425000D02*
X56975000Y23200000D01*
X31135000Y20135000D02*
X31100000Y20100000D01*
X20605000Y78895000D02*
X20600000Y78900000D01*
X66800000Y52450000D02*
X67750000Y52450000D01*
X32200000Y95800000D02*
X32800000Y95200000D01*
X34300000Y50925000D02*
X34500000Y50400000D01*
X66312500Y81200000D02*
X64200000Y81200000D01*
X17062500Y55200000D02*
X16000000Y55200000D01*
X48475000Y69200000D02*
X50550000Y69200000D01*
X62050000Y78650000D02*
X62100000Y78700000D01*
X64100000Y46987500D02*
X63400000Y46300000D01*
X57500000Y36600000D02*
X57500000Y36012500D01*
X53587500Y58400000D02*
X54200000Y58400000D01*
X19625000Y68205000D02*
X19625000Y68975000D01*
X17400000Y20650000D02*
X17400000Y20100000D01*
X64200000Y81200000D02*
X63800000Y80800000D01*
D71*
X51500000Y36000000D02*
X52100000Y36012500D01*
D69*
X39387500Y38187500D02*
X39400000Y38200000D01*
D72*
X31200000Y98200000D02*
X30200000Y97200000D01*
D69*
X31200000Y96200000D02*
X31200000Y95100000D01*
X14565000Y17675000D02*
X14600000Y16500000D01*
D71*
X39300000Y57080000D02*
X39620000Y57400000D01*
D69*
X50040000Y19600000D02*
X50035000Y20775000D01*
D71*
X52100000Y36012500D02*
X52112500Y36000000D01*
D69*
X34200000Y48521881D02*
X34200000Y48500000D01*
X62512500Y68200000D02*
X62512500Y69012500D01*
X19625000Y68975000D02*
X19600000Y69000000D01*
X52800000Y27000000D02*
X51800000Y26000000D01*
X60184358Y93400000D02*
X60434358Y93650000D01*
X62512500Y69012500D02*
X62800000Y69300000D01*
X42335000Y16765000D02*
X42300000Y16800000D01*
D70*
X44250000Y104300000D02*
X46200000Y104300000D01*
D69*
X28287500Y100187500D02*
X28300000Y100200000D01*
X63900000Y57287500D02*
X62912500Y57287500D01*
X55895000Y14205000D02*
X55900000Y14200000D01*
X16100000Y22200000D02*
X16250000Y22150000D01*
X27100000Y100187500D02*
X28287500Y100187500D01*
X20275000Y12200000D02*
X20900000Y12200000D01*
D70*
X52700000Y113950000D02*
X52700000Y115100000D01*
D69*
X28465000Y80165000D02*
X28500000Y80200000D01*
X52800000Y27000000D02*
X51800000Y28000000D01*
X59450000Y93400000D02*
X60184358Y93400000D01*
X14426600Y40490000D02*
X12910000Y40490000D01*
X47495000Y15825000D02*
X47495000Y17265000D01*
X36300000Y50912500D02*
X36300000Y50400000D01*
X53356250Y71950000D02*
X53968750Y71950000D01*
X68600000Y105900000D02*
X69600000Y105900000D01*
D70*
X12300000Y113950000D02*
X12300000Y115100000D01*
D69*
X59000000Y109850000D02*
X59000000Y110500000D01*
X61200000Y78650000D02*
X62050000Y78650000D01*
X13300000Y87500000D02*
X12525000Y87400000D01*
X68587500Y112187500D02*
X68600000Y112200000D01*
X28595000Y16825000D02*
X27525000Y16825000D01*
X13295000Y12725000D02*
X12675000Y12725000D01*
X31700000Y96200000D02*
X31700000Y95400000D01*
X19012500Y50100000D02*
X17900000Y50100000D01*
X43512000Y21845000D02*
X43512000Y22288000D01*
X58400000Y19500000D02*
X58435000Y20675000D01*
X41800000Y47900000D02*
X41825000Y48500000D01*
X58600000Y30900000D02*
X58000000Y30300000D01*
D71*
X48750000Y83500000D02*
X47900000Y83500000D01*
D69*
X60812500Y33500000D02*
X60200000Y33500000D01*
X35300000Y72500000D02*
X35200000Y72600000D01*
X29865000Y21775000D02*
X29865000Y20135000D01*
D71*
X46200000Y76500000D02*
X47100000Y76500000D01*
D69*
X67887500Y95900000D02*
X69100000Y95900000D01*
X57000000Y22500000D02*
X56975000Y22425000D01*
X16250000Y22150000D02*
X15600000Y22150000D01*
D71*
X46200000Y74900000D02*
X47100000Y74900000D01*
D72*
X31200000Y98250000D02*
X31200002Y98250000D01*
X31200000Y98250000D02*
X31250000Y98250000D01*
D69*
X67750000Y52450000D02*
X67800000Y52400000D01*
X32200000Y96200000D02*
X32200000Y95800000D01*
X57165000Y20675000D02*
X57200000Y19500000D01*
X50550000Y69200000D02*
X50700000Y69350000D01*
X28012500Y57300000D02*
X27400000Y57900000D01*
X15800000Y16600000D02*
X15835000Y17675000D01*
D72*
X31200000Y98250000D02*
X31199998Y98250000D01*
X31200002Y98250000D02*
X32300000Y99349998D01*
D69*
X48765000Y20775000D02*
X48800000Y19600000D01*
D71*
X48750000Y82700000D02*
X47900000Y82700000D01*
X43800000Y56025000D02*
X43800000Y57090000D01*
D69*
X39412500Y11212500D02*
X39400000Y11200000D01*
X11475000Y24925000D02*
X11500000Y24900000D01*
X21187500Y62300000D02*
X22100000Y62300000D01*
X63950000Y77150000D02*
X64000000Y77100000D01*
X35300000Y71375000D02*
X35300000Y72500000D01*
X62300000Y19612500D02*
X62300000Y18700000D01*
D72*
X4700000Y7500000D02*
X2000000Y10200000D01*
X2000000Y17900000D02*
X3280000Y19180000D01*
D73*
X20587500Y50100000D02*
X20587500Y48124100D01*
D69*
X37812500Y4512500D02*
X37800000Y4500000D01*
D70*
X46099990Y94824990D02*
X46099990Y97100010D01*
D72*
X2000000Y10200000D02*
X2000000Y17900000D01*
D73*
X4700000Y7000000D02*
X4700000Y7500000D01*
D69*
X31600000Y81900000D02*
X31600000Y84400000D01*
D70*
X38975000Y92925000D02*
X38400000Y93500000D01*
D69*
X30925000Y81225000D02*
X31600000Y81900000D01*
D73*
X62600000Y98900000D02*
X63500000Y98900000D01*
D69*
X37800000Y12979500D02*
X37800000Y11600000D01*
D73*
X20400000Y51400000D02*
X7100000Y51400000D01*
X6800000Y4900000D02*
X4700000Y7000000D01*
X56700000Y106800000D02*
X56700000Y113900000D01*
D70*
X46099990Y97100010D02*
X44250000Y98950000D01*
D73*
X20587500Y48124100D02*
X20573400Y48110000D01*
D69*
X38088000Y11575500D02*
X37812500Y11300000D01*
D72*
X3500000Y19180000D02*
X6040000Y19180000D01*
D73*
X20587500Y51212500D02*
X20400000Y51400000D01*
X20587500Y50100000D02*
X20587500Y51212500D01*
D69*
X37800000Y4500000D02*
X37600000Y4500000D01*
X33287500Y94000000D02*
X37900000Y94000000D01*
D73*
X56700000Y98900000D02*
X62600000Y98900000D01*
D69*
X37900000Y94000000D02*
X38400000Y93500000D01*
D73*
X56700000Y106800000D02*
X56700000Y106100000D01*
D72*
X3280000Y19180000D02*
X3500000Y19180000D01*
D73*
X20587500Y50100000D02*
X20587500Y50199981D01*
X45100000Y6900000D02*
X45100000Y7500000D01*
X56700000Y106100000D02*
X56700000Y98900000D01*
D74*
X38400000Y93500000D02*
X38100000Y93200000D01*
D73*
X64500000Y97900000D02*
X67700000Y97900000D01*
X63500000Y98900000D02*
X64500000Y97900000D01*
D69*
X29690000Y81435000D02*
X29900000Y81225000D01*
D70*
X44200000Y92925000D02*
X46099990Y94824990D01*
D69*
X26975000Y81435000D02*
X29690000Y81435000D01*
X37812500Y11300000D02*
X37812500Y4512500D01*
X29900000Y81225000D02*
X30925000Y81225000D01*
D70*
X44250000Y98950000D02*
X44250000Y99700000D01*
D71*
X46300000Y55000000D02*
X46500000Y54800000D01*
X46500000Y54800000D02*
X52600000Y54800000D01*
X43680888Y28600000D02*
X44299990Y27980898D01*
X44731386Y45099990D02*
X40815698Y41184302D01*
X40700000Y35500000D02*
X40700000Y41068604D01*
X40700000Y41068604D02*
X40815698Y41184302D01*
X45450000Y25750000D02*
X50862500Y25750000D01*
X53700000Y50800000D02*
X48200000Y45300000D01*
X48200000Y45300000D02*
X47999990Y45099990D01*
X44300000Y27980888D02*
X44299990Y27980898D01*
X52600000Y54800000D02*
X53700000Y53700000D01*
X47999990Y45099990D02*
X44731386Y45099990D01*
X53700000Y53700000D02*
X53700000Y50800000D01*
X44300000Y26900000D02*
X45450000Y25750000D01*
X46300000Y56025000D02*
X46300000Y55000000D01*
X42587500Y29746801D02*
X40700000Y31634301D01*
X42587500Y28600000D02*
X42587500Y29746801D01*
X44300000Y26900000D02*
X44300000Y27980888D01*
X40700000Y35500000D02*
X40700000Y31634301D01*
X50300000Y36500000D02*
X50300000Y35500000D01*
X42587500Y28600000D02*
X43680888Y28600000D01*
D69*
X19900000Y56162500D02*
X20637500Y56900000D01*
X18937500Y55200000D02*
X19900000Y56162500D01*
X20637500Y56900000D02*
X21300000Y56900000D01*
X23100000Y56900000D02*
X23100000Y56100000D01*
X33250000Y99250000D02*
X33250000Y101450000D01*
X34300000Y102500000D02*
X35512500Y102500000D01*
X33250000Y101450000D02*
X34300000Y102500000D01*
D71*
X42300000Y56025000D02*
X42300000Y55194654D01*
X45334302Y25300000D02*
X43700000Y26934302D01*
X42300000Y55194654D02*
X44300000Y53194654D01*
X51550000Y25062500D02*
X51312500Y25300000D01*
X46200000Y25300000D02*
X45334302Y25300000D01*
X44300000Y45800000D02*
X38050000Y39550000D01*
X37500000Y29600000D02*
X39407114Y27692886D01*
X37812500Y37200000D02*
X37500000Y36887500D01*
X44300000Y53194654D02*
X44300000Y45800000D01*
X43700000Y26934302D02*
X43700000Y27692886D01*
X51312500Y25300000D02*
X46200000Y25300000D01*
X37500000Y36887500D02*
X37500000Y29600000D01*
X37812500Y37200000D02*
X37812500Y39312500D01*
X37812500Y39312500D02*
X38050000Y39550000D01*
D69*
X48475000Y68700000D02*
X51500000Y68700000D01*
D71*
X35800000Y71375000D02*
X35800000Y72936987D01*
X35624988Y73111999D02*
X35624988Y74975012D01*
X35800000Y72936987D02*
X35624988Y73111999D01*
X35624988Y74975012D02*
X35500000Y75100000D01*
D69*
X40300000Y54100000D02*
X40300000Y53050000D01*
X40300000Y53050000D02*
X38550000Y51300000D01*
X38012500Y48500000D02*
X38012500Y50762500D01*
X38012500Y50762500D02*
X38550000Y51300000D01*
X40300000Y56025000D02*
X40300000Y54100000D01*
D71*
X34000000Y45400000D02*
X35775000Y47175000D01*
X36600000Y48500000D02*
X35775000Y48500000D01*
X26600000Y45400000D02*
X34000000Y45400000D01*
X41300000Y53900000D02*
X41700000Y53500000D01*
X41300000Y56025000D02*
X41300000Y53900000D01*
X41300000Y56025000D02*
X41300000Y57320000D01*
X30200000Y100300000D02*
X29500000Y100300000D01*
X41300000Y57320000D02*
X41140000Y57480000D01*
X35775000Y47175000D02*
X35775000Y48500000D01*
X12400000Y16600000D02*
X13500000Y15500000D01*
X25999999Y38099999D02*
X25999999Y27799999D01*
X21000000Y22800000D02*
X15100000Y22800000D01*
X14500000Y22200000D02*
X14500000Y21764809D01*
X11000000Y16600000D02*
X12400000Y16600000D01*
X15200000Y19200000D02*
X15600000Y19600000D01*
X14414494Y21679303D02*
X14414494Y20797504D01*
X15200000Y15911998D02*
X15200000Y19200000D01*
X15600000Y19600000D02*
X15600000Y20650000D01*
X26000000Y38100000D02*
X25999999Y38099999D01*
X13500000Y15500000D02*
X14788002Y15500000D01*
X25999999Y27799999D02*
X21000000Y22800000D01*
X33125000Y63200000D02*
X35300000Y63200000D01*
X35300000Y63200000D02*
X35400000Y63100000D01*
X14500000Y21764809D02*
X14414494Y21679303D01*
X14788002Y15500000D02*
X15200000Y15911998D01*
X14414494Y20797504D02*
X14561998Y20650000D01*
X14561998Y20650000D02*
X15600000Y20650000D01*
X15100000Y22800000D02*
X14500000Y22200000D01*
X12770210Y41129790D02*
X16629790Y41129790D01*
X16629790Y41129790D02*
X18530000Y43030000D01*
X11500000Y41700000D02*
X12200000Y41700000D01*
X12200000Y41700000D02*
X12770210Y41129790D01*
X18530000Y43030000D02*
X20573400Y43030000D01*
D69*
X40800000Y53900000D02*
X40800000Y53350000D01*
X40800000Y56025000D02*
X40800000Y53900000D01*
X43400000Y48500000D02*
X43400000Y50750000D01*
X43400000Y50750000D02*
X42850000Y51300000D01*
X40800000Y53350000D02*
X42850000Y51300000D01*
X18937500Y59300000D02*
X22300000Y59300000D01*
X22300000Y59300000D02*
X23100000Y58500000D01*
X66800000Y55212500D02*
X66312500Y55700000D01*
X66800000Y53950000D02*
X66800000Y55212500D01*
X66700000Y43900000D02*
X65996439Y44603561D01*
X65400000Y46392878D02*
X65400000Y52050000D01*
D71*
X65000000Y52450000D02*
X62350000Y52450000D01*
D69*
X65400000Y52050000D02*
X65000000Y52450000D01*
D71*
X59900000Y54900000D02*
X62350000Y52450000D01*
X59900000Y63100000D02*
X59900000Y54900000D01*
D69*
X66700000Y43800000D02*
X66700000Y43900000D01*
X65996439Y44603561D02*
X65996439Y45796439D01*
D71*
X48475000Y63200000D02*
X56000000Y63200000D01*
D69*
X65996439Y45796439D02*
X65400000Y46392878D01*
D71*
X59800000Y76300000D02*
X60400000Y75700000D01*
X48475000Y65700000D02*
X55100000Y65700000D01*
X60400000Y75700000D02*
X60400000Y66048530D01*
X55100000Y65700000D02*
X56000000Y64800000D01*
X59800000Y78700000D02*
X59800000Y76300000D01*
X61100000Y80000000D02*
X59800000Y78700000D01*
X63000000Y79300000D02*
X62300000Y80000000D01*
D69*
X63000000Y78650000D02*
X66262500Y78650000D01*
D71*
X60400000Y66048530D02*
X59875735Y65524265D01*
D69*
X66262500Y78650000D02*
X66312500Y78600000D01*
D71*
X62300000Y80000000D02*
X61100000Y80000000D01*
X63000000Y78650000D02*
X63000000Y79300000D01*
D69*
X62800000Y75550000D02*
X62800000Y70300000D01*
D71*
X61600000Y66400000D02*
X59900000Y64700000D01*
D69*
X62512500Y66787500D02*
X62512500Y65700000D01*
X61200000Y77150000D02*
X62800000Y75550000D01*
D71*
X48475000Y64700000D02*
X49900000Y64700000D01*
D69*
X61600000Y67700000D02*
X62512500Y66787500D01*
X61600000Y69100000D02*
X61600000Y67700000D01*
D71*
X61600000Y67700000D02*
X61600000Y66400000D01*
X50600000Y64000000D02*
X56000000Y64000000D01*
D69*
X62800000Y70300000D02*
X61600000Y69100000D01*
D71*
X49900000Y64700000D02*
X50600000Y64000000D01*
X35140000Y68230000D02*
X34645000Y68725000D01*
X16435010Y15635010D02*
X16435010Y18264990D01*
X17690002Y22150000D02*
X17400000Y22150000D01*
X33125000Y69200000D02*
X34030000Y69200000D01*
X33125000Y69200000D02*
X34170000Y69200000D01*
X26599999Y27799999D02*
X26599999Y37499999D01*
X18300000Y20000000D02*
X18300000Y21540002D01*
X15800000Y15000000D02*
X16435010Y15635010D01*
X11000000Y15800000D02*
X11900000Y15800000D01*
X18300000Y21540002D02*
X17690002Y22150000D01*
X17400000Y22150000D02*
X20950000Y22150000D01*
X16435010Y18735010D02*
X16800000Y19100000D01*
X18300000Y19700000D02*
X18300000Y20000000D01*
X11900000Y15800000D02*
X12700000Y15000000D01*
X26599999Y37499999D02*
X26600000Y37500000D01*
X34645000Y68725000D02*
X34170000Y69200000D01*
X37787851Y64860000D02*
X35650000Y64860000D01*
X16435010Y18264990D02*
X16435010Y18735010D01*
X20950000Y22150000D02*
X26599999Y27799999D01*
X35650000Y64860000D02*
X35140000Y65370000D01*
X17700000Y19100000D02*
X18300000Y19700000D01*
X16800000Y19100000D02*
X17700000Y19100000D01*
X12700000Y15000000D02*
X15800000Y15000000D01*
X35140000Y65370000D02*
X35140000Y68230000D01*
X17834300Y95600000D02*
X19400000Y95600000D01*
X15500000Y98000000D02*
X15500000Y97934300D01*
X15500000Y97934300D02*
X17834300Y95600000D01*
D70*
X28525000Y102475000D02*
X29600000Y101400000D01*
D69*
X32200000Y100300000D02*
X32200000Y101150000D01*
X31700000Y100300000D02*
X31700000Y101150000D01*
D70*
X9750000Y107450000D02*
X12300000Y107450000D01*
X52700000Y107450000D02*
X54850000Y107450000D01*
D69*
X30700000Y100300000D02*
X30700000Y101150000D01*
D70*
X54850000Y109050000D02*
X54900000Y109000000D01*
X28500000Y103825000D02*
X28525000Y103800000D01*
X28500000Y107450000D02*
X36500000Y107450000D01*
X54850000Y109050000D02*
X54900000Y109000000D01*
X29650000Y101350000D02*
X31850000Y101350000D01*
X36500000Y107450000D02*
X44700000Y107450000D01*
D69*
X31200000Y100300000D02*
X31200000Y101150000D01*
D70*
X54850000Y107450000D02*
X54900000Y107400000D01*
X54850000Y109050000D02*
X54900000Y109000000D01*
X44700000Y107450000D02*
X52700000Y107450000D01*
X12300000Y107450000D02*
X20500000Y107450000D01*
X20500000Y107450000D02*
X28500000Y107450000D01*
X28500000Y107450000D02*
X28500000Y103825000D01*
X28525000Y103800000D02*
X28525000Y102475000D01*
X29600000Y101400000D02*
X29650000Y101350000D01*
X3700000Y113500000D02*
X9750000Y107450000D01*
D71*
X36824999Y74447153D02*
X36824999Y79456801D01*
X32706800Y89475000D02*
X27506800Y89475000D01*
X36800000Y71375000D02*
X36824999Y71399999D01*
X35406800Y79775000D02*
X33275000Y81906800D01*
X36824999Y71399999D02*
X36824999Y79456801D01*
X36506800Y79775000D02*
X35406800Y79775000D01*
X36824999Y79456801D02*
X36506800Y79775000D01*
X22981800Y95600000D02*
X21000000Y95600000D01*
X33275000Y81906800D02*
X33275000Y88906800D01*
X27506800Y89475000D02*
X23875000Y93106800D01*
X33275000Y88906800D02*
X32706800Y89475000D01*
X23875000Y94706800D02*
X22981800Y95600000D01*
X23875000Y93106800D02*
X23875000Y94706800D01*
D69*
X22200000Y92100000D02*
X22200000Y89962500D01*
X21800000Y92500000D02*
X22200000Y92100000D01*
X21100000Y92500000D02*
X21800000Y92500000D01*
X22200000Y89962500D02*
X21337500Y89100000D01*
X62012500Y95900000D02*
X59100000Y95900000D01*
X59100000Y95900000D02*
X57950000Y94750000D01*
D71*
X48475000Y59200000D02*
X49600000Y59200000D01*
D69*
X57950000Y94750000D02*
X57950000Y93400000D01*
D71*
X57100000Y93400000D02*
X57950000Y93400000D01*
X49600000Y59200000D02*
X49900000Y59500000D01*
D69*
X59450000Y91600000D02*
X61812500Y91600000D01*
D71*
X56700000Y90700000D02*
X59000000Y90700000D01*
X59000000Y90700000D02*
X59450000Y91150000D01*
D69*
X61812500Y91600000D02*
X62012500Y91400000D01*
D71*
X59450000Y91150000D02*
X59450000Y91600000D01*
X48475000Y58700000D02*
X50200000Y58700000D01*
X60800000Y109850000D02*
X59500000Y111150000D01*
D69*
X62150000Y111200000D02*
X60800000Y109850000D01*
D71*
X59500000Y111150000D02*
X59500000Y112600000D01*
X50100000Y62200000D02*
X48475000Y62200000D01*
D69*
X62912500Y111200000D02*
X62150000Y111200000D01*
D71*
X50300000Y62400000D02*
X50100000Y62200000D01*
X48475000Y61700000D02*
X50700000Y61700000D01*
D69*
X62124990Y109124990D02*
X62500000Y109500000D01*
X66012500Y109500000D02*
X62500000Y109500000D01*
X62124990Y107924990D02*
X62124990Y108424990D01*
D71*
X50700000Y61700000D02*
X51100000Y62100000D01*
D69*
X61200000Y107500000D02*
X59850000Y107500000D01*
X67012500Y108500000D02*
X66012500Y109500000D01*
D71*
X59800000Y104900000D02*
X59850000Y107500000D01*
D69*
X59850000Y107500000D02*
X59000000Y108350000D01*
X61200000Y107500000D02*
X61700000Y107500000D01*
X62124990Y108424990D02*
X62124990Y109124990D01*
X61700000Y107500000D02*
X62124990Y107924990D01*
D71*
X43512000Y12955000D02*
X42045000Y12955000D01*
X33865019Y39932041D02*
X32797060Y41000000D01*
X42045000Y12955000D02*
X41200000Y13800000D01*
X41200000Y13800000D02*
X41200000Y16170000D01*
X40600000Y67400000D02*
X39800000Y68200000D01*
X33865019Y39932041D02*
X34000010Y39797050D01*
X16900000Y42400000D02*
X16900000Y47200000D01*
X32797060Y41000000D02*
X25448530Y41000000D01*
X24100000Y41000000D02*
X23599997Y41500003D01*
X15990000Y48110000D02*
X14426600Y48110000D01*
X25448530Y41000000D02*
X24100000Y41000000D01*
X16900000Y47200000D02*
X15990000Y48110000D01*
X23599997Y41500003D02*
X23000000Y41500003D01*
X41200000Y22665698D02*
X41200000Y16170000D01*
X34000010Y39797050D02*
X34000010Y29865688D01*
X41700000Y67400000D02*
X40600000Y67400000D01*
X34000010Y29865688D02*
X41200000Y22665698D01*
X41700000Y67400000D02*
X42640000Y67400000D01*
X39800000Y68200000D02*
X39800000Y71375000D01*
X27693200Y89925000D02*
X24325000Y93293200D01*
X21546384Y96600000D02*
X21800000Y96853616D01*
X35593200Y80225000D02*
X33725000Y82093200D01*
X36693200Y80225000D02*
X35593200Y80225000D01*
X21000000Y96600000D02*
X21546384Y96600000D01*
X21800000Y96853616D02*
X21800000Y96900000D01*
X22418189Y96800011D02*
X22509100Y96709100D01*
X37275001Y79643199D02*
X36693200Y80225000D01*
X21800000Y96900000D02*
X22318200Y96900000D01*
X22318200Y96900000D02*
X22509100Y96709100D01*
X32893200Y89925000D02*
X27693200Y89925000D01*
X24325000Y94893200D02*
X22509100Y96709100D01*
X24325000Y93293200D02*
X24325000Y94893200D01*
X33725000Y89093200D02*
X32893200Y89925000D01*
X37300000Y71375000D02*
X37275001Y71399999D01*
X33725000Y82093200D02*
X33725000Y89093200D01*
X37275001Y79643199D02*
X37209100Y79709100D01*
X37275001Y71399999D02*
X37275001Y79643199D01*
D69*
X66500000Y83812500D02*
X66312500Y84000000D01*
X66500000Y82300000D02*
X66500000Y83812500D01*
D71*
X42340000Y64200000D02*
X40900000Y64200000D01*
X42340000Y64200000D02*
X43240000Y64200000D01*
X34664965Y39922604D02*
X34400020Y39657659D01*
X34664965Y39922604D02*
X34664965Y40346868D01*
X41600010Y22400000D02*
X41600010Y21279990D01*
X23365692Y42300006D02*
X23000000Y42300006D01*
X16300000Y45000000D02*
X15730000Y45570000D01*
X41600010Y22831387D02*
X41600010Y22400000D01*
X34400020Y30031376D02*
X41600010Y22831387D01*
X15730000Y45570000D02*
X14426600Y45570000D01*
X16300000Y43500000D02*
X16300000Y45000000D01*
X40900000Y64200000D02*
X33125000Y64200000D01*
X34400020Y39657659D02*
X34400020Y30031376D01*
X34664965Y40346868D02*
X33611833Y41400000D01*
X25897060Y41400000D02*
X24265698Y41400000D01*
X41600010Y21279990D02*
X42305000Y20575000D01*
X24265698Y41400000D02*
X23365692Y42300006D01*
X42305000Y20575000D02*
X43512000Y20575000D01*
X33611833Y41400000D02*
X25897060Y41400000D01*
X19190000Y40490000D02*
X18300000Y39600000D01*
X12800000Y39600000D02*
X18200000Y39600000D01*
X18300000Y39600000D02*
X18200000Y39600000D01*
X11500000Y40900000D02*
X12800000Y39600000D01*
X20573400Y40490000D02*
X19190000Y40490000D01*
D69*
X12300000Y44500000D02*
X12300000Y45300000D01*
X12300000Y45300000D02*
X11800000Y45800000D01*
X11800000Y45800000D02*
X11500000Y45800000D01*
X12900000Y43900000D02*
X12300000Y44500000D01*
X14426600Y41760000D02*
X13440000Y41760000D01*
X12900000Y42300000D02*
X12900000Y43900000D01*
X13440000Y41760000D02*
X12900000Y42300000D01*
X12900000Y44700000D02*
X13300000Y44300000D01*
X13300000Y44300000D02*
X14426600Y44300000D01*
X12900000Y45900000D02*
X12900000Y44700000D01*
X11500000Y46600000D02*
X12200000Y46600000D01*
X12200000Y46600000D02*
X12900000Y45900000D01*
D71*
X20543400Y45600000D02*
X20573400Y45570000D01*
X11500000Y42500000D02*
X12250000Y42500000D01*
X18800000Y45600000D02*
X20543400Y45600000D01*
X38088000Y21845000D02*
X38088000Y24612000D01*
X38800000Y63700000D02*
X41060000Y63700000D01*
X19560000Y41760000D02*
X20573400Y41760000D01*
X41060000Y63700000D02*
X41300000Y63700000D01*
X24800000Y39900000D02*
X23000000Y39900000D01*
X33125000Y63700000D02*
X38800000Y63700000D01*
X41300000Y63700000D02*
X41400000Y63600000D01*
X33200000Y29500000D02*
X33200000Y38900000D01*
X38088000Y24612000D02*
X33200000Y29500000D01*
X32200000Y39900000D02*
X24800000Y39900000D01*
X18900000Y41100000D02*
X19560000Y41760000D01*
X33200000Y38900000D02*
X32200000Y39900000D01*
D69*
X11500000Y47400000D02*
X12400000Y47400000D01*
X12400000Y47400000D02*
X12960000Y46840000D01*
X12960000Y46840000D02*
X14426600Y46840000D01*
X44675000Y14225000D02*
X43512000Y14225000D01*
X45200000Y13700000D02*
X44675000Y14225000D01*
X45200000Y12900000D02*
X45200000Y13700000D01*
X43512000Y15495000D02*
X44405000Y15495000D01*
X44405000Y15495000D02*
X45000000Y14900000D01*
X45800000Y18000000D02*
X43547000Y18000000D01*
X43547000Y18000000D02*
X43512000Y18035000D01*
D71*
X42040000Y68140000D02*
X42415698Y68140000D01*
X45800000Y70470000D02*
X45800000Y71375000D01*
X40800000Y15800000D02*
X40800000Y22500000D01*
X25099999Y40500001D02*
X23199999Y40500001D01*
X16200000Y42600000D02*
X15770000Y43030000D01*
X33600000Y39348530D02*
X33024265Y39924265D01*
X33600000Y29700000D02*
X33600000Y38900000D01*
X33600000Y38900000D02*
X33600000Y39348530D01*
X43915688Y69639990D02*
X44969990Y69639990D01*
X39225000Y14225000D02*
X40800000Y15800000D01*
X38088000Y14225000D02*
X39225000Y14225000D01*
X33024265Y39924265D02*
X32448529Y40500001D01*
X32448529Y40500001D02*
X25099999Y40500001D01*
X40800000Y22500000D02*
X33600000Y29700000D01*
X42415698Y68140000D02*
X43915688Y69639990D01*
X15770000Y43030000D02*
X14426600Y43030000D01*
X23199999Y40500001D02*
X23000000Y40700000D01*
X16200000Y41900000D02*
X16200000Y42600000D01*
X44969990Y69639990D02*
X45800000Y70470000D01*
D69*
X20175010Y94224990D02*
X21100000Y93300000D01*
X20175010Y95924990D02*
X20175010Y94224990D01*
X19400000Y96100000D02*
X20000000Y96100000D01*
X16775010Y94224990D02*
X20175010Y94224990D01*
X15500000Y95500000D02*
X16775010Y94224990D01*
X20000000Y96100000D02*
X20175010Y95924990D01*
X16100000Y96100000D02*
X15500000Y95500000D01*
X45000000Y19300000D02*
X43517000Y19300000D01*
X43517000Y19300000D02*
X43512000Y19305000D01*
D71*
X17900000Y96600000D02*
X17400000Y96600000D01*
X17400000Y96600000D02*
X16900000Y97100000D01*
X16052006Y99150011D02*
X14650011Y99150011D01*
X16900000Y97100000D02*
X16900000Y98302017D01*
X14650011Y99150011D02*
X13500000Y98000000D01*
X16900000Y98302017D02*
X16052006Y99150011D01*
X19400000Y96600000D02*
X17400000Y96600000D01*
D69*
X36200000Y20500000D02*
X38013000Y20500000D01*
X38013000Y20500000D02*
X38088000Y20575000D01*
D71*
X26103938Y55424266D02*
X26175734Y55424266D01*
X35905346Y54800000D02*
X31500000Y54800000D01*
X36300000Y55194654D02*
X36005346Y54900000D01*
X36300000Y56025000D02*
X36300000Y55194654D01*
X25554837Y55973367D02*
X26103938Y55424266D01*
X31500000Y54800000D02*
X30875734Y55424266D01*
X20573400Y44300000D02*
X19000000Y44300000D01*
X36005346Y54900000D02*
X35905346Y54800000D01*
X30875734Y55424266D02*
X26175734Y55424266D01*
D69*
X38088000Y19305000D02*
X36856563Y19305000D01*
X36856563Y19305000D02*
X36850000Y19298437D01*
D71*
X20573400Y46840000D02*
X19160000Y46840000D01*
X19160000Y46840000D02*
X19100000Y46900000D01*
X40480000Y68740000D02*
X42450000Y68740000D01*
X42450000Y68740000D02*
X43750000Y70040000D01*
X44800000Y71375000D02*
X44800000Y70500000D01*
X43750000Y70040000D02*
X44340000Y70040000D01*
X44340000Y70040000D02*
X44800000Y70500000D01*
D69*
X36100000Y16800000D02*
X38053000Y16800000D01*
X38053000Y16800000D02*
X38088000Y16765000D01*
X35800000Y15200000D02*
X36095000Y15495000D01*
X38088000Y15495000D02*
X36095000Y15495000D01*
X34500000Y15200000D02*
X35800000Y15200000D01*
D71*
X50862500Y28250000D02*
X50862500Y29837500D01*
X57000019Y59231377D02*
X57000017Y52337225D01*
X57000017Y52337225D02*
X48981396Y44318604D01*
X48475000Y61200000D02*
X55031397Y61200000D01*
X50400000Y30300000D02*
X43900000Y30300000D01*
X43800000Y30300000D02*
X42100000Y32000000D01*
X42100000Y40771510D02*
X42214245Y40885755D01*
X43900000Y30300000D02*
X43800000Y30300000D01*
X55031397Y61200000D02*
X57000019Y59231377D01*
X42100000Y32000000D02*
X42100000Y40771510D01*
X48981396Y44318604D02*
X48562754Y43899960D01*
X45228450Y43899960D02*
X42214245Y40885755D01*
X50862500Y29837500D02*
X50400000Y30300000D01*
X48562754Y43899960D02*
X45228450Y43899960D01*
X54965698Y60700000D02*
X56600010Y59065689D01*
X50000000Y28100000D02*
X50000000Y29100000D01*
X48475000Y60700000D02*
X54965698Y60700000D01*
X41700000Y31800000D02*
X41700000Y40937208D01*
X41700000Y40937208D02*
X41831396Y41068604D01*
X45062762Y44299970D02*
X41831396Y41068604D01*
X50000000Y29100000D02*
X49200000Y29900000D01*
X49200000Y29900000D02*
X43900000Y29900000D01*
X50350000Y27750000D02*
X50000000Y28100000D01*
X56600010Y59065689D02*
X56600009Y52502915D01*
X48798547Y44701453D02*
X48397065Y44299970D01*
X50862500Y27750000D02*
X50350000Y27750000D01*
X43900000Y29900000D02*
X43600000Y29900000D01*
X56600009Y52502915D02*
X48798547Y44701453D01*
X43600000Y29900000D02*
X41700000Y31800000D01*
X48397065Y44299970D02*
X45062762Y44299970D01*
X48365698Y44834302D02*
X48231376Y44699980D01*
X41998547Y41801453D02*
X41300000Y41102906D01*
X44897074Y44699980D02*
X41998547Y41801453D01*
X48231376Y44699980D02*
X44897074Y44699980D01*
X56200000Y52668604D02*
X48365698Y44834302D01*
X54900000Y60200000D02*
X56200000Y58900000D01*
X41300000Y31600000D02*
X44700000Y28200000D01*
X50862500Y26250000D02*
X45550000Y26250000D01*
X41300000Y41102906D02*
X41300000Y31600000D01*
X48475000Y60200000D02*
X54900000Y60200000D01*
X56200000Y58900000D02*
X56200000Y52668604D01*
X44700000Y28200000D02*
X44700000Y27100000D01*
X44700000Y27100000D02*
X45550000Y26250000D01*
X50100000Y68200000D02*
X51200000Y67100000D01*
X50250030Y23549970D02*
X49300020Y24499980D01*
X48964245Y43735752D02*
X48728443Y43499950D01*
X55100000Y67100000D02*
X57400028Y64799972D01*
X51200000Y67100000D02*
X55100000Y67100000D01*
X53050000Y24505936D02*
X52094034Y23549970D01*
X48964245Y43735755D02*
X48964245Y43735752D01*
X53050000Y25062500D02*
X53050000Y24505936D01*
X57400028Y52171538D02*
X48964245Y43735755D01*
X48728443Y43499950D02*
X45399950Y43499950D01*
X49300020Y24499980D02*
X44651490Y24499980D01*
X57400028Y64799972D02*
X57400028Y52171538D01*
X44651490Y24499980D02*
X44375735Y24775735D01*
X42500010Y32474255D02*
X42500010Y40600010D01*
X42500010Y40600010D02*
X45399950Y43499950D01*
X44074265Y30900000D02*
X42500010Y32474255D01*
X48475000Y68200000D02*
X50100000Y68200000D01*
X52094034Y23549970D02*
X50250030Y23549970D01*
X49300000Y74700000D02*
X49300000Y75600000D01*
X42900020Y40434322D02*
X45565638Y43099940D01*
X42900020Y32922774D02*
X42900020Y40434322D01*
X53550000Y24440238D02*
X52259723Y23149960D01*
X48899940Y43099940D02*
X45565638Y43099940D01*
X44113494Y31709300D02*
X42900020Y32922774D01*
X46800000Y72200000D02*
X49300000Y74700000D01*
X49300000Y43500000D02*
X48899940Y43099940D01*
X49300000Y75600000D02*
X50700000Y77000000D01*
X53550000Y25062500D02*
X53550000Y24440238D01*
X50050040Y23149960D02*
X49300020Y23899980D01*
X50700000Y77000000D02*
X55900000Y77000000D01*
X52259723Y23149960D02*
X50050040Y23149960D01*
X57800038Y75099962D02*
X57800038Y52000038D01*
X49300020Y23899980D02*
X45000000Y23899980D01*
X46800000Y71375000D02*
X46800000Y72200000D01*
X57800038Y52000038D02*
X49300000Y43500000D01*
X55900000Y77000000D02*
X57800038Y75099962D01*
X48900000Y74900000D02*
X48900000Y75800000D01*
X58200047Y51834349D02*
X49482849Y43117151D01*
X50500000Y77400000D02*
X56065698Y77400000D01*
X56065698Y77400000D02*
X58200048Y75265651D01*
X43300030Y40268634D02*
X45731326Y42699930D01*
X46300000Y71375000D02*
X46300000Y72300000D01*
X44085662Y32585662D02*
X43300030Y33371294D01*
X49065629Y42699930D02*
X45731326Y42699930D01*
X58200048Y75265651D02*
X58200047Y51834349D01*
X49300020Y23299980D02*
X45700000Y23299980D01*
X49482849Y43117151D02*
X49065629Y42699930D01*
X49850050Y22749950D02*
X49300020Y23299980D01*
X54050000Y25062500D02*
X54050000Y24374539D01*
X48900000Y75800000D02*
X50500000Y77400000D01*
X43300030Y33371294D02*
X43300030Y40268634D01*
X54050000Y24374539D02*
X52425412Y22749950D01*
X52425412Y22749950D02*
X49850050Y22749950D01*
X46300000Y72300000D02*
X48900000Y74900000D01*
D70*
X14600000Y113950000D02*
X14600000Y116600000D01*
X17000000Y119000000D02*
X17000000Y119900000D01*
X14600000Y116600000D02*
X17000000Y119000000D01*
X47000000Y113950000D02*
X47000000Y115700000D01*
X47000000Y115700000D02*
X47000000Y115900000D01*
X47000000Y115900000D02*
X48100000Y117000000D01*
X48100000Y117000000D02*
X50500000Y117000000D01*
X50500000Y117000000D02*
X53400000Y119900000D01*
X58300000Y116700000D02*
X60400000Y118800000D01*
X56100000Y116700000D02*
X58300000Y116700000D01*
X60400000Y118800000D02*
X60400000Y119900000D01*
X55000000Y113950000D02*
X55000000Y115600000D01*
X55000000Y115600000D02*
X56100000Y116700000D01*
X22800000Y118700000D02*
X24000000Y119900000D01*
X22800000Y113950000D02*
X22800000Y118700000D01*
D71*
X9200000Y17400000D02*
X8100000Y17400000D01*
D70*
X30800000Y113950000D02*
X30800000Y119700000D01*
X30800000Y119700000D02*
X31000000Y119900000D01*
D71*
X8148530Y18200000D02*
X8124265Y18224265D01*
X9200000Y18200000D02*
X8148530Y18200000D01*
D70*
X38800000Y113950000D02*
X38800000Y117900000D01*
X38800000Y117900000D02*
X40800000Y119900000D01*
X40800000Y119900000D02*
X46400000Y119900000D01*
D69*
X68675000Y44200000D02*
X71300000Y44200000D01*
X68275000Y43800000D02*
X68275000Y45075000D01*
X71300000Y44200000D02*
X73100000Y46000000D01*
X68275000Y45075000D02*
X68300000Y45100000D01*
X68275000Y43800000D02*
X68675000Y44200000D01*
X68287500Y49900000D02*
X72700000Y49900000D01*
X72700000Y49900000D02*
X73100000Y49500000D01*
X68287500Y47000000D02*
X68287500Y49900000D01*
X37700000Y84400000D02*
X37700000Y86300000D01*
X37700000Y86300000D02*
X36000000Y88000000D01*
X38500000Y87960000D02*
X38540000Y88000000D01*
X38500000Y84400000D02*
X38500000Y87960000D01*
X69100000Y55700000D02*
X72300000Y55700000D01*
X72300000Y55700000D02*
X73100000Y56500000D01*
X67887500Y55700000D02*
X69100000Y55700000D01*
X67887500Y60600000D02*
X72500000Y60600000D01*
X72500000Y60600000D02*
X73100000Y60000000D01*
X67887500Y58100000D02*
X67887500Y60600000D01*
X66700000Y44900000D02*
X66712500Y45787500D01*
X66712500Y45787500D02*
X66712500Y47000000D01*
X64787500Y45412500D02*
X65300000Y44900000D01*
X64100000Y45412500D02*
X64787500Y45412500D01*
X65700000Y58100000D02*
X65300000Y58500000D01*
X66312500Y58100000D02*
X65700000Y58100000D01*
X63900000Y55712500D02*
X65187500Y55712500D01*
X65187500Y55712500D02*
X65200000Y55700000D01*
X66800000Y66187500D02*
X66312500Y65700000D01*
X66800000Y67000000D02*
X66800000Y66187500D01*
X64300000Y68200000D02*
X64087500Y68200000D01*
X65500000Y67000000D02*
X64600000Y67900000D01*
X64600000Y67900000D02*
X64300000Y68200000D01*
X66387500Y79700000D02*
X67887500Y81200000D01*
X65200000Y79700000D02*
X66387500Y79700000D01*
X16600000Y66700000D02*
X16600000Y64587500D01*
X18300000Y79350000D02*
X18300000Y81312500D01*
X64087500Y65700000D02*
X65287500Y64500000D01*
X73100000Y67000000D02*
X70900000Y67000000D01*
X65287500Y64500000D02*
X68100000Y64500000D01*
X70900000Y67000000D02*
X68400000Y64500000D01*
X68400000Y64500000D02*
X68100000Y64500000D01*
X67887500Y65700000D02*
X67887500Y68200000D01*
X70800000Y68200000D02*
X73100000Y70500000D01*
X67887500Y68200000D02*
X70800000Y68200000D01*
X75800000Y117800000D02*
X77900000Y119900000D01*
X69500000Y107600000D02*
X71500000Y109600000D01*
X74500000Y109600000D02*
X75800000Y110900000D01*
X71500000Y109600000D02*
X74500000Y109600000D01*
X65400000Y108500000D02*
X66300000Y107600000D01*
X62812500Y106825000D02*
X64487500Y108500000D01*
X64487500Y108500000D02*
X65400000Y108500000D01*
X62812500Y105800000D02*
X62812500Y106825000D01*
X75800000Y110900000D02*
X75800000Y117800000D01*
X66300000Y107600000D02*
X69500000Y107600000D01*
X65700000Y111200000D02*
X64487500Y111200000D01*
X64812500Y116512500D02*
X67400000Y119100000D01*
X62387500Y114400000D02*
X64812500Y114400000D01*
X67400000Y119100000D02*
X67400000Y119900000D01*
X64812500Y114400000D02*
X64812500Y116512500D01*
D71*
X53687500Y34175000D02*
X53687500Y36000000D01*
X52050000Y28937500D02*
X52050000Y32537500D01*
X52662500Y33150000D02*
X53687500Y34175000D01*
X52050000Y32537500D02*
X52662500Y33150000D01*
X56962500Y33150000D02*
X55912500Y34200000D01*
X55912500Y34200000D02*
X55912500Y36000000D01*
X52550000Y28937500D02*
X52550000Y30750000D01*
X55012500Y31200000D02*
X56962500Y33150000D01*
X53000000Y31200000D02*
X55012500Y31200000D01*
X52550000Y30750000D02*
X53000000Y31200000D01*
X30700018Y53999982D02*
X30400018Y53999982D01*
X41800000Y57850000D02*
X41800000Y56025000D01*
X37914579Y54000000D02*
X37011998Y54000000D01*
X39020000Y58280000D02*
X41370000Y58280000D01*
X29200000Y54200000D02*
X30200000Y54200000D01*
X30200000Y54200000D02*
X30400018Y53999982D01*
X37011980Y53999982D02*
X30700018Y53999982D01*
X41370000Y58280000D02*
X41800000Y57850000D01*
X37011998Y54000000D02*
X37011980Y53999982D01*
D69*
X21300000Y57700000D02*
X21300000Y58500000D01*
D71*
X60200000Y28000000D02*
X59600000Y27987500D01*
D69*
X50300000Y38900000D02*
X51100000Y38900000D01*
X57800000Y44812500D02*
X57800000Y44200000D01*
D71*
X47350000Y32000000D02*
X46450000Y32000000D01*
D69*
X55425000Y23875000D02*
X55425000Y23200000D01*
D71*
X61200000Y26400000D02*
X61800000Y26412500D01*
D69*
X54737500Y25750000D02*
X54737500Y25062500D01*
D71*
X47350000Y33600000D02*
X47350000Y32800000D01*
D69*
X62387500Y33500000D02*
X62800000Y33500000D01*
X54050000Y29350000D02*
X54500000Y29800000D01*
X54737500Y25062500D02*
X54800000Y25000000D01*
D71*
X48687500Y28387500D02*
X48700000Y28400000D01*
D69*
X50050000Y27250000D02*
X50000000Y27200000D01*
X50862500Y27250000D02*
X50050000Y27250000D01*
D71*
X47350000Y31200000D02*
X47350000Y32000000D01*
X48687500Y27275000D02*
X48687500Y28387500D01*
D69*
X54050000Y28937500D02*
X54050000Y29350000D01*
X62300000Y21187500D02*
X62300000Y21800000D01*
X55400000Y23800000D02*
X55425000Y23875000D01*
X56412500Y30300000D02*
X55800000Y30300000D01*
D71*
X47350000Y33600000D02*
X46450000Y33600000D01*
X61100000Y31300000D02*
X61800000Y31287500D01*
X48500000Y37300000D02*
X48500000Y36500000D01*
X37300000Y53400000D02*
X38190000Y53400000D01*
X42410000Y58890000D02*
X43300000Y58000000D01*
X38190000Y53400000D02*
X38790000Y54000000D01*
X43300000Y58000000D02*
X43300000Y56025000D01*
X40310000Y58890000D02*
X42410000Y58890000D01*
X29200000Y53400000D02*
X37300000Y53400000D01*
X44583945Y64818247D02*
X45965698Y66200000D01*
X41281412Y64818247D02*
X44583945Y64818247D01*
X41281412Y64818247D02*
X39599604Y64818247D01*
X45965698Y66200000D02*
X48475000Y66200000D01*
X39599604Y64818247D02*
X39587851Y64830000D01*
D69*
X67887500Y78600000D02*
X71800000Y78600000D01*
X71800000Y78600000D02*
X73100000Y79900000D01*
X67800000Y78687500D02*
X67887500Y78600000D01*
X67800000Y79700000D02*
X67800000Y78687500D01*
X72500000Y84000000D02*
X73100000Y83400000D01*
X67887500Y86500000D02*
X67887500Y84000000D01*
X67887500Y84000000D02*
X72500000Y84000000D01*
X72925010Y90574990D02*
X73100000Y90400000D01*
X59600000Y90400000D02*
X59100000Y89900000D01*
X65335012Y90574990D02*
X72925010Y90574990D01*
X63587500Y90987500D02*
X63000000Y90400000D01*
X63000000Y90400000D02*
X59600000Y90400000D01*
X63587500Y91400000D02*
X63587500Y90987500D01*
X63587500Y91400000D02*
X64510002Y91400000D01*
X64510002Y91400000D02*
X65335012Y90574990D01*
X75800000Y89700000D02*
X75800000Y92200000D01*
X67887500Y88900000D02*
X75000000Y88900000D01*
X64700000Y88900000D02*
X65600000Y88000000D01*
X65600000Y88000000D02*
X67100000Y88000000D01*
X74100000Y93900000D02*
X73100000Y93900000D01*
X67100000Y88000000D02*
X67887500Y88787500D01*
X75800000Y92200000D02*
X74100000Y93900000D01*
X75000000Y88900000D02*
X75800000Y89700000D01*
X67887500Y88787500D02*
X67887500Y88900000D01*
X63587500Y88900000D02*
X64700000Y88900000D01*
D71*
X30900020Y54400000D02*
X30900010Y54399990D01*
X36071044Y54400000D02*
X30900020Y54400000D01*
X36800000Y56025000D02*
X36800000Y55128956D01*
X36800000Y55128956D02*
X36071044Y54400000D01*
X36800000Y56025000D02*
X36800000Y55300000D01*
X30475735Y54824265D02*
X30900010Y54399990D01*
X34800000Y56025000D02*
X34800000Y59280000D01*
X34800000Y59280000D02*
X34715735Y59364265D01*
X41700000Y65500000D02*
X44700000Y65500000D01*
X44700000Y65500000D02*
X45900000Y66700000D01*
X45900000Y66700000D02*
X48475000Y66700000D01*
X41700000Y65500000D02*
X40190000Y65500000D01*
X40790000Y66110000D02*
X44710000Y66110000D01*
X44710000Y66110000D02*
X44845000Y66245000D01*
X44845000Y66245000D02*
X45800000Y67200000D01*
X45800000Y67200000D02*
X48475000Y67200000D01*
D69*
X10775000Y87500000D02*
X10775000Y90715000D01*
X10875000Y87400000D02*
X10775000Y87500000D01*
X10790000Y90730000D02*
X10790000Y102770000D01*
X10775000Y90715000D02*
X10790000Y90730000D01*
X9200000Y15800000D02*
X8800000Y15400000D01*
X4740000Y15400000D02*
X3500000Y16640000D01*
X8800000Y15400000D02*
X4740000Y15400000D01*
X6040000Y16640000D02*
X6080000Y16600000D01*
X6080000Y16600000D02*
X9200000Y16600000D01*
X19300000Y92500000D02*
X19300000Y93300000D01*
X69300000Y97100000D02*
X73100000Y100900000D01*
X63587500Y95900000D02*
X64787500Y97100000D01*
X59100000Y97000000D02*
X62487500Y97000000D01*
X62487500Y97000000D02*
X63587500Y95900000D01*
X64787500Y97100000D02*
X69300000Y97100000D01*
X39300000Y86220000D02*
X41080000Y88000000D01*
X39300000Y84400000D02*
X39300000Y86220000D01*
X33250000Y98250000D02*
X34050000Y98250000D01*
X37087500Y102500000D02*
X37087500Y100187500D01*
D70*
X34350000Y98550000D02*
X34350000Y98050000D01*
D69*
X37087500Y100187500D02*
X36400000Y99500000D01*
X33250000Y97750000D02*
X34050000Y97750000D01*
D70*
X35300000Y99500000D02*
X34350000Y98550000D01*
D69*
X33250000Y98750000D02*
X34550000Y98750000D01*
D70*
X38400000Y99500000D02*
X36400000Y99500000D01*
X38400000Y99500000D02*
X35300000Y99500000D01*
D69*
X27237500Y98750000D02*
X27100000Y98612500D01*
X29150000Y98750000D02*
X27237500Y98750000D01*
X66700000Y60987500D02*
X66312500Y60600000D01*
X66700000Y61600000D02*
X66700000Y60987500D01*
X66800000Y69800000D02*
X66800000Y68687500D01*
X66800000Y68687500D02*
X66312500Y68200000D01*
X66312500Y85412500D02*
X66300000Y85400000D01*
X66312500Y86500000D02*
X66312500Y85412500D01*
X28000000Y97500000D02*
X28000000Y95300000D01*
X29687500Y94000000D02*
X31712500Y94000000D01*
X29150000Y97750000D02*
X28250000Y97750000D01*
X28200000Y95100000D02*
X28587500Y95100000D01*
X28000000Y95300000D02*
X28200000Y95100000D01*
X28250000Y97750000D02*
X28000000Y97500000D01*
X28587500Y95100000D02*
X29687500Y94000000D01*
D71*
X37620000Y66300000D02*
X38200000Y66880000D01*
X25400000Y27800000D02*
X20800000Y23200000D01*
X25400000Y38700000D02*
X25400000Y27800000D01*
X20800000Y23200000D02*
X14900000Y23200000D01*
X11365700Y17400000D02*
X11000000Y17400000D01*
X38300000Y71375000D02*
X38300000Y67576780D01*
X12965689Y18999989D02*
X11365700Y17400000D01*
X14900000Y23200000D02*
X14000010Y22300010D01*
X37620000Y65660000D02*
X37620000Y66300000D01*
X14000010Y19834310D02*
X13165689Y18999989D01*
X38300000Y66980000D02*
X38200000Y66880000D01*
X38300000Y67576780D02*
X38300000Y66980000D01*
X14000010Y22300010D02*
X14000010Y19834310D01*
X13165689Y18999989D02*
X12965689Y18999989D01*
X37800000Y68201406D02*
X37800000Y67070000D01*
X14700000Y23600000D02*
X13600000Y22500000D01*
X13600000Y20000000D02*
X13000000Y19400000D01*
X37800000Y71375000D02*
X37800000Y68201406D01*
X24800000Y39300000D02*
X24799999Y39299999D01*
X13900000Y22800000D02*
X13600000Y22500000D01*
X13600000Y22500000D02*
X13600000Y20000000D01*
X20600000Y23600000D02*
X14700000Y23600000D01*
X37800000Y67070000D02*
X37699374Y66969374D01*
X24799999Y27799999D02*
X20600000Y23600000D01*
X13000000Y19400000D02*
X12200000Y19400000D01*
X36940000Y66150000D02*
X36940000Y66210000D01*
X24799999Y39299999D02*
X24799999Y27799999D01*
X36940000Y66210000D02*
X37699374Y66969374D01*
X12200000Y19400000D02*
X11000000Y18200000D01*
X46800000Y57800000D02*
X46800000Y56025000D01*
X27600000Y67500000D02*
X28070000Y67500000D01*
D69*
X27000000Y67500000D02*
X27600000Y67500000D01*
D71*
X43840001Y59769999D02*
X43840001Y61840001D01*
X45020000Y58590000D02*
X43840001Y59769999D01*
X28070000Y67500000D02*
X28490000Y67080000D01*
D69*
X25695000Y64395000D02*
X26300000Y65000000D01*
X24575000Y64395000D02*
X25695000Y64395000D01*
D71*
X45990000Y58590000D02*
X46000000Y58600000D01*
X46000000Y58600000D02*
X46800000Y57800000D01*
X45020000Y58590000D02*
X45990000Y58590000D01*
X46800000Y56025000D02*
X46800000Y57300000D01*
D69*
X26300000Y65000000D02*
X26300000Y66800000D01*
X26300000Y66800000D02*
X27000000Y67500000D01*
D71*
X26975000Y82705000D02*
X25905000Y82705000D01*
X25300000Y82100000D02*
X25300000Y80000000D01*
X32294654Y67200000D02*
X31870000Y67624654D01*
X31870000Y68695698D02*
X31400010Y69165688D01*
X33125000Y67200000D02*
X32294654Y67200000D01*
X31870000Y67624654D02*
X31870000Y68695698D01*
X25300000Y80000000D02*
X25804990Y79495010D01*
X25905000Y82705000D02*
X25300000Y82100000D01*
X29104990Y79495010D02*
X30600000Y78000000D01*
X30600000Y69965698D02*
X30600000Y72300000D01*
X31400010Y69165688D02*
X30600000Y69965698D01*
X25804990Y79495010D02*
X29104990Y79495010D01*
X30600000Y78000000D02*
X30600000Y72300000D01*
D69*
X66312500Y92712500D02*
X66300000Y92700000D01*
X66312500Y93700000D02*
X66312500Y92712500D01*
X64875001Y94900000D02*
X61800000Y94900000D01*
X65875001Y95900000D02*
X64875001Y94900000D01*
X66312500Y95900000D02*
X65875001Y95900000D01*
X61612500Y94100000D02*
X62012500Y93700000D01*
X61100000Y94100000D02*
X61612500Y94100000D01*
D71*
X30200000Y72000000D02*
X30200000Y77800000D01*
X31470000Y67458956D02*
X31470000Y68530000D01*
X31470000Y68530000D02*
X31000001Y68999999D01*
X32228956Y66700000D02*
X31470000Y67458956D01*
X30200000Y69800000D02*
X30200000Y72000000D01*
X30200000Y77800000D02*
X29105000Y78895000D01*
X31000001Y68999999D02*
X30200000Y69800000D01*
X29105000Y78895000D02*
X26975000Y78895000D01*
X33125000Y66700000D02*
X32228956Y66700000D01*
X24560000Y65650000D02*
X24575000Y65665000D01*
X32128530Y65200000D02*
X31659265Y65669265D01*
D69*
X24575000Y66935000D02*
X24575000Y65665000D01*
D71*
X33125000Y65200000D02*
X32128530Y65200000D01*
X23000000Y65650000D02*
X24560000Y65650000D01*
X30600000Y68830000D02*
X31040000Y68390000D01*
X31040000Y65440000D02*
X31040000Y68390000D01*
X31780000Y64700000D02*
X31040000Y65440000D01*
X27960000Y69390000D02*
X30040000Y69390000D01*
X33125000Y64700000D02*
X31780000Y64700000D01*
X27600000Y69030000D02*
X27960000Y69390000D01*
X27600000Y68300000D02*
X27600000Y69030000D01*
D69*
X27505000Y68205000D02*
X24575000Y68205000D01*
D71*
X30040000Y69390000D02*
X30600000Y68830000D01*
D69*
X27600000Y68300000D02*
X27505000Y68205000D01*
X59812500Y115400000D02*
X60812500Y114400000D01*
X59400000Y115400000D02*
X59812500Y115400000D01*
X66200000Y112012500D02*
X67012500Y111200000D01*
X66200000Y112300000D02*
X66200000Y112012500D01*
X66387500Y114400000D02*
X70100000Y114400000D01*
D71*
X51550000Y28937500D02*
X51550000Y30250000D01*
X50500000Y31225000D02*
X48900000Y31225000D01*
X50900000Y30900000D02*
X50500000Y31225000D01*
X51550000Y30250000D02*
X50900000Y30900000D01*
X54737500Y28637500D02*
X55000000Y28900000D01*
X53700000Y38887500D02*
X53687500Y38900000D01*
X53700000Y37800000D02*
X53700000Y38887500D01*
X54737500Y28250000D02*
X54737500Y28637500D01*
X64387500Y32300000D02*
X66043722Y32300000D01*
X60525000Y29712500D02*
X61800000Y29712500D01*
X54737500Y27750000D02*
X54762500Y27725000D01*
X59194300Y29712500D02*
X60525000Y29712500D01*
X65560000Y28860000D02*
X65560000Y28410000D01*
X66043722Y32300000D02*
X66900000Y31443722D01*
X61800000Y29712500D02*
X64387500Y32300000D01*
X66900000Y31443722D02*
X66900000Y30200000D01*
X57206800Y27725000D02*
X59194300Y29712500D01*
X54762500Y27725000D02*
X57206800Y27725000D01*
X66900000Y30200000D02*
X65560000Y28860000D01*
X64402075Y29032574D02*
X64402075Y28965396D01*
X62654068Y29218100D02*
X62683215Y29157574D01*
X63538272Y29988935D02*
X64316092Y29211116D01*
X64137550Y28700870D02*
X64070372Y28700871D01*
X63783994Y30499180D02*
X63716815Y30499180D01*
X62597500Y27987500D02*
X62114666Y27987500D01*
X63452290Y30234657D02*
X63452290Y30167478D01*
X54737500Y27250000D02*
X54762500Y27275000D01*
X63452290Y30167478D02*
X63467239Y30101984D01*
X63962536Y30413199D02*
X63910014Y30455084D01*
X64004877Y28715819D02*
X63944352Y28744967D01*
X64316092Y29211116D02*
X64357978Y29158595D01*
X63049828Y28450467D02*
X63007943Y28397945D01*
X63944352Y28744967D02*
X63891828Y28786852D01*
X64591951Y30023968D02*
X64526457Y30009019D01*
X54762500Y27275000D02*
X57393200Y27275000D01*
X64357978Y28839375D02*
X64316092Y28786852D01*
X62725101Y29105051D02*
X63007943Y28822209D01*
X64333258Y30053115D02*
X64280735Y30095000D01*
X62639119Y29350773D02*
X62639119Y29283594D01*
X63467239Y30300151D02*
X63452290Y30234657D01*
X63007943Y28822209D02*
X63049828Y28769686D01*
X63467239Y30101984D02*
X63496386Y30041458D01*
X63093925Y28643666D02*
X63093925Y28576487D01*
X63496386Y30041458D02*
X63538272Y29988935D01*
X63007943Y28397945D02*
X62597500Y27987500D01*
X63496386Y30360677D02*
X63467239Y30300151D01*
X63036316Y29600348D02*
X62970822Y29615297D01*
X57393200Y27275000D02*
X59380700Y29262500D01*
X64393784Y30023968D02*
X64333258Y30053115D01*
X65560000Y30950000D02*
X64705000Y30095000D01*
X62838149Y29600348D02*
X62777623Y29571200D01*
X63149365Y29529315D02*
X63096842Y29571200D01*
X63096842Y29571200D02*
X63036316Y29600348D01*
X64203045Y28715820D02*
X64137550Y28700870D01*
X63651321Y30484232D02*
X63590795Y30455084D01*
X62683215Y29157574D02*
X62725101Y29105051D01*
X62683215Y29476793D02*
X62654068Y29416267D01*
X59380700Y29262500D02*
X60525000Y29262500D01*
X62639119Y29283594D02*
X62654068Y29218100D01*
X63849488Y30484232D02*
X63783994Y30499180D01*
X63716815Y30499180D02*
X63651321Y30484232D01*
X63093925Y28576487D02*
X63078976Y28510993D01*
X60525000Y29262500D02*
X61800000Y27987500D01*
X62903643Y29615297D02*
X62838149Y29600348D01*
X64280735Y30095000D02*
X63962536Y30413199D01*
X62654068Y29416267D02*
X62639119Y29350773D01*
X64387126Y29098069D02*
X64402075Y29032574D01*
X64652477Y30053115D02*
X64591951Y30023968D01*
X62114666Y27987500D02*
X61800000Y27987500D01*
X64459278Y30009019D02*
X64393784Y30023968D01*
X64357978Y29158595D02*
X64387126Y29098069D01*
X64263570Y28744966D02*
X64203045Y28715820D01*
X64526457Y30009019D02*
X64459278Y30009019D01*
X62725101Y29529315D02*
X62683215Y29476793D01*
X63590795Y30455084D02*
X63538272Y30413199D01*
X63078976Y28510993D02*
X63049828Y28450467D01*
X64705000Y30095000D02*
X64652477Y30053115D01*
X62777623Y29571200D02*
X62725101Y29529315D01*
X64316092Y28786852D02*
X64263570Y28744966D01*
X63078976Y28709160D02*
X63093925Y28643666D01*
X62970822Y29615297D02*
X62903643Y29615297D01*
X64070372Y28700871D02*
X64004877Y28715819D01*
X63538272Y30413199D02*
X63496386Y30360677D01*
X64402075Y28965396D02*
X64387126Y28899901D01*
X64387126Y28899901D02*
X64357978Y28839375D01*
X63891828Y28786852D02*
X63149365Y29529315D01*
X63049828Y28769686D02*
X63078976Y28709160D01*
X63910014Y30455084D02*
X63849488Y30484232D01*
X62996892Y23379709D02*
X63053773Y23415450D01*
X66165450Y23935149D02*
X66212953Y23887646D01*
X66692478Y24055439D02*
X66700000Y24122195D01*
X63336561Y26420291D02*
X63399970Y26442479D01*
X62333483Y24592478D02*
X62396892Y24570290D01*
X59600000Y26412500D02*
X61412500Y24600000D01*
X63832177Y24712954D02*
X63879680Y24665451D01*
X63533483Y26442479D02*
X63596892Y26420291D01*
X66670290Y23992030D02*
X66692478Y24055439D01*
X66212953Y23887646D02*
X66269834Y23851905D01*
X63766727Y24900000D02*
X63774248Y24833244D01*
X63701276Y26337047D02*
X63737017Y26280166D01*
X65800000Y24600000D02*
X65866756Y24592479D01*
X63766727Y26150000D02*
X63766727Y24900000D01*
X62679680Y23415450D02*
X62736561Y23379709D01*
X58511397Y26412500D02*
X59600000Y26412500D01*
X66933243Y24592479D02*
X67000000Y24600000D01*
X62566727Y24300000D02*
X62566727Y23650000D01*
X65987046Y24534550D02*
X66034549Y24487047D01*
X65930165Y24570291D02*
X65987046Y24534550D01*
X62632177Y23462953D02*
X62679680Y23415450D01*
X63653773Y26384550D02*
X63701276Y26337047D01*
X62596436Y23519834D02*
X62632177Y23462953D01*
X66333243Y23829717D02*
X66400000Y23822195D01*
X62266727Y24600000D02*
X62333483Y24592478D01*
X63196436Y26280166D02*
X63232177Y26337047D01*
X67000000Y24600000D02*
X68100000Y24600000D01*
X64066727Y24600000D02*
X65800000Y24600000D01*
X62566727Y23650000D02*
X62574248Y23583243D01*
X66587046Y23887646D02*
X66634549Y23935149D01*
X54737500Y26750000D02*
X54762500Y26725000D01*
X63159205Y23583243D02*
X63166727Y23650000D01*
X63596892Y26420291D02*
X63653773Y26384550D01*
X63174248Y26216757D02*
X63196436Y26280166D01*
X66530165Y23851905D02*
X66587046Y23887646D01*
X63166727Y26150000D02*
X63174248Y26216757D01*
X62453773Y24534549D02*
X62501276Y24487046D01*
X63279680Y26384550D02*
X63336561Y26420291D01*
X66070290Y24430166D02*
X66092478Y24366757D01*
X63737017Y26280166D02*
X63759205Y26216757D01*
X63101276Y23462953D02*
X63137017Y23519834D01*
X61412500Y24600000D02*
X62266727Y24600000D01*
X66700000Y24300000D02*
X66707521Y24366757D01*
X66729709Y24430166D02*
X66765450Y24487047D01*
X66400000Y23822195D02*
X66466756Y23829717D01*
X66700000Y24122195D02*
X66700000Y24300000D01*
X63774248Y24833244D02*
X63796436Y24769835D01*
X63879680Y24665451D02*
X63936561Y24629710D01*
X66129709Y23992030D02*
X66165450Y23935149D01*
X62396892Y24570290D02*
X62453773Y24534549D01*
X63759205Y26216757D02*
X63766727Y26150000D01*
X66269834Y23851905D02*
X66333243Y23829717D01*
X62559205Y24366756D02*
X62566727Y24300000D01*
X66707521Y24366757D02*
X66729709Y24430166D01*
X66765450Y24487047D02*
X66812953Y24534550D01*
X66100000Y24122195D02*
X66107521Y24055439D01*
X62799970Y23357521D02*
X62866727Y23350000D01*
X66092478Y24366757D02*
X66100000Y24300000D01*
X62501276Y24487046D02*
X62537017Y24430165D01*
X66812953Y24534550D02*
X66869834Y24570291D01*
X62933483Y23357521D02*
X62996892Y23379709D01*
X63399970Y26442479D02*
X63466727Y26450000D01*
X54762500Y26725000D02*
X58198897Y26725000D01*
X66100000Y24300000D02*
X66100000Y24122195D01*
X66034549Y24487047D02*
X66070290Y24430166D01*
X65866756Y24592479D02*
X65930165Y24570291D01*
X63166727Y23650000D02*
X63166727Y26150000D01*
X62866727Y23350000D02*
X62933483Y23357521D01*
X63137017Y23519834D02*
X63159205Y23583243D01*
X63999970Y24607522D02*
X64066727Y24600000D01*
X63053773Y23415450D02*
X63101276Y23462953D01*
X66107521Y24055439D02*
X66129709Y23992030D01*
X62736561Y23379709D02*
X62799970Y23357521D01*
X62537017Y24430165D02*
X62559205Y24366756D01*
X58198897Y26725000D02*
X58511397Y26412500D01*
X63466727Y26450000D02*
X63533483Y26442479D01*
X63936561Y24629710D02*
X63999970Y24607522D01*
X66869834Y24570291D02*
X66933243Y24592479D01*
X66466756Y23829717D02*
X66530165Y23851905D01*
X66634549Y23935149D02*
X66670290Y23992030D01*
X63796436Y24769835D02*
X63832177Y24712954D01*
X63232177Y26337047D02*
X63279680Y26384550D01*
X62574248Y23583243D02*
X62596436Y23519834D01*
X61387500Y22900000D02*
X67700000Y22900000D01*
X54737500Y26250000D02*
X54762500Y26275000D01*
X59600000Y24687500D02*
X61387500Y22900000D01*
X67700000Y22900000D02*
X68672992Y22900000D01*
X68672992Y22900000D02*
X69100000Y22900000D01*
X58012500Y26275000D02*
X58193198Y26094302D01*
X69100000Y22900000D02*
X69700000Y23500000D01*
X69700000Y23500000D02*
X69700000Y25540000D01*
X69700000Y25540000D02*
X68100000Y27140000D01*
X54762500Y26275000D02*
X58012500Y26275000D01*
X58193198Y26094302D02*
X59600000Y24687500D01*
D69*
X27200000Y95200000D02*
X26187500Y95200000D01*
X30700000Y96200000D02*
X30700000Y95600000D01*
X30700000Y95600000D02*
X30300000Y95200000D01*
X30300000Y95200000D02*
X29700000Y95200000D01*
X26187500Y95200000D02*
X25900000Y95487500D01*
X66312500Y88900000D02*
X66312500Y89837490D01*
X66312500Y89837490D02*
X66400000Y89924990D01*
X66312500Y91400000D02*
X65212500Y92500000D01*
X65212500Y92500000D02*
X61500000Y92500000D01*
X59408458Y88900000D02*
X58800000Y88900000D01*
X62012500Y88900000D02*
X61256435Y89656065D01*
X58800000Y88900000D02*
X57800000Y89900000D01*
X60164523Y89656065D02*
X59408458Y88900000D01*
X61256435Y89656065D02*
X60164523Y89656065D01*
X61400000Y106800000D02*
X61900000Y106800000D01*
X62912500Y107812500D02*
X62912500Y108500000D01*
X61900000Y106800000D02*
X62912500Y107812500D01*
D71*
X46350000Y31200000D02*
X45550000Y31200000D01*
X45550000Y32000000D02*
X45550000Y31200000D01*
X52550000Y24571636D02*
X51928345Y23949980D01*
X52550000Y25062500D02*
X52550000Y24571636D01*
X50701490Y23949980D02*
X50950020Y23949980D01*
X51928345Y23949980D02*
X50950020Y23949980D01*
X50375735Y24275735D02*
X50701490Y23949980D01*
X45900010Y24899990D02*
X45299990Y24899990D01*
X45550000Y32800000D02*
X45550000Y33600000D01*
X40100000Y30625000D02*
X40125000Y30600000D01*
X50600010Y24899990D02*
X45900010Y24899990D01*
X40125000Y30600000D02*
X40125000Y27875000D01*
X52050000Y25062500D02*
X52050000Y24637334D01*
X40100000Y34900000D02*
X40100000Y30625000D01*
X52050000Y24637334D02*
X51762656Y24349990D01*
X40125000Y27875000D02*
X40900000Y27100000D01*
X45550000Y33600000D02*
X45550000Y34900000D01*
X51762656Y24349990D02*
X51150010Y24349990D01*
X42900000Y27100000D02*
X45100010Y24899990D01*
X40900000Y27100000D02*
X42900000Y27100000D01*
X51150010Y24349990D02*
X50600010Y24899990D01*
X45100010Y24899990D02*
X45299990Y24899990D01*
D69*
X75800000Y96400000D02*
X75800000Y103600000D01*
X67887500Y93700000D02*
X69000000Y93700000D01*
X64800000Y93700000D02*
X63587500Y93700000D01*
X75800000Y103600000D02*
X75000000Y104400000D01*
X70900000Y95600000D02*
X75000000Y95600000D01*
X69000000Y93700000D02*
X70900000Y95600000D01*
X75000000Y95600000D02*
X75800000Y96400000D01*
X67887500Y93700000D02*
X66887500Y94700000D01*
X66887500Y94700000D02*
X65800000Y94700000D01*
X75000000Y104400000D02*
X73100000Y104400000D01*
X65800000Y94700000D02*
X64800000Y93700000D01*
X68600000Y109800000D02*
X68600000Y108512500D01*
X71487500Y111400000D02*
X68587500Y108500000D01*
X68600000Y108512500D02*
X68587500Y108500000D01*
X73100000Y111400000D02*
X71487500Y111400000D01*
X48512500Y13300000D02*
X48512500Y7587500D01*
X48765000Y13552500D02*
X48512500Y13300000D01*
X48765000Y15825000D02*
X48765000Y13552500D01*
X48512500Y7587500D02*
X48600000Y7500000D01*
D71*
X53050000Y28937500D02*
X53050000Y30401470D01*
X53050000Y30401470D02*
X53199265Y30550735D01*
X72400000Y17000000D02*
X73400000Y17000000D01*
X73400000Y17000000D02*
X73400000Y17800000D01*
X54000000Y30400000D02*
X54000000Y30600000D01*
X72400000Y16200000D02*
X73400000Y16200000D01*
X53550000Y28937500D02*
X53550000Y29950000D01*
X73400000Y16200000D02*
X73400000Y15400000D01*
X53550000Y29950000D02*
X54000000Y30400000D01*
X75200000Y16200000D02*
X75200000Y15400000D01*
X75200000Y16200000D02*
X74400000Y16200000D01*
X75200000Y17800000D02*
X76100000Y17800000D01*
X75200000Y17800000D02*
X75200000Y17000000D01*
D69*
X66425000Y105300000D02*
X67025000Y105900000D01*
X65400000Y105300000D02*
X66425000Y105300000D01*
X50035000Y15825000D02*
X50035000Y13352500D01*
X50087500Y13300000D02*
X50087500Y9512500D01*
X50087500Y9512500D02*
X52100000Y7500000D01*
X50035000Y13352500D02*
X50087500Y13300000D01*
D71*
X48500000Y38100000D02*
X48500000Y38900000D01*
X50300000Y38100000D02*
X50300000Y37300000D01*
D69*
X64387500Y105800000D02*
X64387500Y106712500D01*
X64387500Y106712500D02*
X64100000Y107000000D01*
D71*
X34024369Y65700000D02*
X34424375Y66100006D01*
X48600000Y79400000D02*
X49700000Y80500000D01*
X34424375Y66100006D02*
X34424375Y68024375D01*
X43300000Y79400000D02*
X48600000Y79400000D01*
X33125000Y65700000D02*
X34024369Y65700000D01*
X49700000Y81500000D02*
X50100000Y81900000D01*
X50550000Y81900000D02*
X51500000Y81900000D01*
X34424375Y68024375D02*
X34430000Y68030000D01*
X50400000Y113950000D02*
X50400000Y112600000D01*
X40200000Y76400000D02*
X43300000Y79400000D01*
X50100000Y81900000D02*
X50550000Y81900000D01*
X49700000Y80500000D02*
X49700000Y81500000D01*
X43800000Y74000000D02*
X44400000Y74600000D01*
X44400000Y74900000D02*
X43500000Y74900000D01*
X44400000Y74600000D02*
X44400000Y74900000D01*
X43800000Y71375000D02*
X43800000Y74000000D01*
X34200000Y113950000D02*
X34200000Y112600000D01*
X46300000Y65411998D02*
X46300000Y65500000D01*
X18200000Y113950000D02*
X18200000Y112600000D01*
X42100000Y76000000D02*
X42600000Y76500000D01*
X48475000Y64200000D02*
X47511998Y64200000D01*
X42600000Y76500000D02*
X44400000Y76500000D01*
X47511998Y64200000D02*
X46300000Y65411998D01*
X44400000Y76500000D02*
X45300000Y76500000D01*
X49400000Y79000000D02*
X50550000Y80150000D01*
X41500000Y74700000D02*
X41500000Y76900000D01*
X50550000Y80150000D02*
X50550000Y81100000D01*
X42700000Y78100000D02*
X43600000Y79000000D01*
X43300000Y71375000D02*
X43300000Y72900000D01*
X43600000Y79000000D02*
X49400000Y79000000D01*
X41500000Y76900000D02*
X42700000Y78100000D01*
X43300000Y72900000D02*
X41500000Y74700000D01*
X50550000Y81100000D02*
X51500000Y81100000D01*
X42400000Y113950000D02*
X42400000Y112600000D01*
X26200000Y113950000D02*
X26200000Y112600000D01*
X44400000Y75700000D02*
X45300000Y75700000D01*
X45300000Y74400000D02*
X45300000Y75700000D01*
X44300000Y73400000D02*
X45300000Y74400000D01*
X44300000Y71375000D02*
X44300000Y73400000D01*
X48475000Y65200000D02*
X47400000Y65200000D01*
X44400000Y78100000D02*
X44400000Y77300000D01*
X47400000Y65200000D02*
X47100000Y65500000D01*
X10000000Y113950000D02*
X10000000Y112600000D01*
X30000000Y60700000D02*
X29150000Y61550000D01*
D69*
X26687500Y52112500D02*
X26600000Y52200000D01*
D71*
X33125000Y60700000D02*
X30000000Y60700000D01*
X24290000Y52200000D02*
X26600000Y52200000D01*
D69*
X26687500Y49200000D02*
X26687500Y52112500D01*
X57112500Y9012500D02*
X55600000Y7500000D01*
X57165000Y15725000D02*
X57165000Y13152500D01*
X57165000Y13152500D02*
X57112500Y13100000D01*
X57112500Y13100000D02*
X57112500Y9012500D01*
X58687500Y13100000D02*
X58687500Y7912500D01*
X58687500Y7912500D02*
X59100000Y7500000D01*
X58435000Y15725000D02*
X58435000Y13352500D01*
X58435000Y13352500D02*
X58687500Y13100000D01*
X13865000Y14400000D02*
X14565000Y13700000D01*
X9312500Y12300000D02*
X9312500Y8612500D01*
X9312500Y12300000D02*
X11412500Y14400000D01*
X9312500Y8612500D02*
X8200000Y7500000D01*
X14565000Y13700000D02*
X14565000Y12725000D01*
X11412500Y14400000D02*
X13865000Y14400000D01*
X10887500Y12300000D02*
X10887500Y8312500D01*
X15835000Y11750000D02*
X15835000Y12725000D01*
X15285000Y11200000D02*
X15835000Y11750000D01*
X10887500Y12300000D02*
X11987500Y11200000D01*
X10887500Y8312500D02*
X11700000Y7500000D01*
X11987500Y11200000D02*
X15285000Y11200000D01*
X29865000Y16825000D02*
X29865000Y14752500D01*
X18400000Y10700000D02*
X25812500Y10700000D01*
X15200000Y7500000D02*
X18400000Y10700000D01*
X25812500Y10700000D02*
X28512500Y13400000D01*
X29865000Y14752500D02*
X28512500Y13400000D01*
D71*
X21300000Y56100000D02*
X22000000Y55400000D01*
X26100000Y59200000D02*
X33125000Y59200000D01*
X22000000Y55400000D02*
X23700000Y55400000D01*
X23700000Y55400000D02*
X25000000Y56700000D01*
X25000000Y58100000D02*
X26100000Y59200000D01*
X25000000Y56700000D02*
X25000000Y58100000D01*
X33125000Y70375000D02*
X33100000Y70400000D01*
X38500000Y81700000D02*
X38500000Y82600000D01*
X33125000Y69700000D02*
X33125000Y70375000D01*
X36300000Y71375000D02*
X36300000Y73324989D01*
X39300000Y81700000D02*
X39300000Y82600000D01*
X36300000Y73324989D02*
X36224989Y73400000D01*
D69*
X26687500Y10000000D02*
X30087500Y13400000D01*
X25400000Y10000000D02*
X26687500Y10000000D01*
X18700000Y7500000D02*
X21200000Y10000000D01*
X31135000Y14447500D02*
X30087500Y13400000D01*
X31135000Y16825000D02*
X31135000Y14447500D01*
X21200000Y10000000D02*
X25400000Y10000000D01*
X20765000Y80165000D02*
X22025000Y80165000D01*
X19900000Y78500000D02*
X19900000Y79300000D01*
X19450000Y78050000D02*
X19900000Y78500000D01*
X12100000Y77400000D02*
X10300000Y79200000D01*
X17650000Y77400000D02*
X12100000Y77400000D01*
X18300000Y78050000D02*
X17650000Y77400000D01*
X10300000Y79200000D02*
X10300000Y79900000D01*
X18300000Y78050000D02*
X19450000Y78050000D01*
X19900000Y79300000D02*
X20765000Y80165000D01*
X17097500Y82887500D02*
X12840000Y78630000D01*
X22025000Y81435000D02*
X20365000Y81435000D01*
X20000000Y82300000D02*
X19412500Y82887500D01*
X20000000Y81800000D02*
X20000000Y82300000D01*
X18300000Y82887500D02*
X17097500Y82887500D01*
X20365000Y81435000D02*
X20000000Y81800000D01*
X19412500Y82887500D02*
X18300000Y82887500D01*
X18665000Y66935000D02*
X17600000Y68000000D01*
X16600000Y68000000D02*
X16600000Y70000000D01*
X17600000Y68000000D02*
X16600000Y68000000D01*
X14400000Y72200000D02*
X10380000Y72200000D01*
X10380000Y72200000D02*
X10300000Y72280000D01*
X16600000Y70000000D02*
X14400000Y72200000D01*
X19625000Y66935000D02*
X18665000Y66935000D01*
X16600000Y63012500D02*
X14687500Y63012500D01*
X12840000Y64860000D02*
X12840000Y71010000D01*
X14687500Y63012500D02*
X12840000Y64860000D01*
X17312500Y63012500D02*
X16600000Y63012500D01*
X18865000Y65665000D02*
X17900000Y64700000D01*
X17900000Y64700000D02*
X17900000Y63600000D01*
X19625000Y65665000D02*
X18865000Y65665000D01*
X17900000Y63600000D02*
X17312500Y63012500D01*
X7692880Y45800000D02*
X9292880Y47400000D01*
X9292880Y47400000D02*
X9700000Y47400000D01*
X4720000Y45800000D02*
X7692880Y45800000D01*
X3500000Y44580000D02*
X4720000Y45800000D01*
D71*
X35200040Y38844342D02*
X35730010Y39374311D01*
X47840000Y18570000D02*
X46270000Y20140000D01*
X46270000Y20140000D02*
X44820000Y21590000D01*
X35200040Y30431356D02*
X35200040Y38844342D01*
X35730010Y39374311D02*
X35730010Y43989990D01*
X44820000Y21590000D02*
X44820000Y22300000D01*
X44820000Y22300000D02*
X43580000Y23540000D01*
X36771014Y45240000D02*
X35730010Y44198996D01*
X47140000Y59700000D02*
X48475000Y59700000D01*
X35730010Y44198996D02*
X35730010Y43989990D01*
X50530000Y18570000D02*
X47840000Y18570000D01*
X51305000Y19345000D02*
X50530000Y18570000D01*
X43580000Y23540000D02*
X42091396Y23540000D01*
X51305000Y20775000D02*
X51305000Y19345000D01*
X42091396Y23540000D02*
X35200040Y30431356D01*
X42000010Y21845210D02*
X42000010Y23065688D01*
X42000010Y23065688D02*
X35000010Y30065688D01*
X35330000Y44990000D02*
X36180000Y45840000D01*
X59705000Y19185000D02*
X58689990Y18169990D01*
X47670010Y18169990D02*
X44620010Y21219990D01*
X35000010Y30065688D02*
X34800030Y30265668D01*
X34800030Y39010030D02*
X35330000Y39540000D01*
X58689990Y18169990D02*
X47670010Y18169990D01*
X44620010Y21219990D02*
X42625230Y21219990D01*
X45400000Y59200000D02*
X45400000Y61800000D01*
X35330000Y39540000D02*
X35330000Y44990000D01*
X35475734Y62200000D02*
X36175734Y62900000D01*
X59705000Y20675000D02*
X59705000Y19185000D01*
X33125000Y62200000D02*
X35475734Y62200000D01*
X45400000Y61800000D02*
X44300000Y62900000D01*
X42625230Y21219990D02*
X42000010Y21845210D01*
X34800030Y30265668D02*
X34800030Y39010030D01*
X36175734Y62900000D02*
X44300000Y62900000D01*
X36075735Y61924265D02*
X35851470Y61700000D01*
X27200000Y27770000D02*
X27200000Y36900000D01*
X17105000Y17675000D02*
X27200000Y27770000D01*
X35851470Y61700000D02*
X33125000Y61700000D01*
X38097571Y60202429D02*
X37100000Y61200000D01*
X32405000Y35595000D02*
X32400000Y35600000D01*
X37100000Y61200000D02*
X33125000Y61200000D01*
X32405000Y21775000D02*
X32405000Y35595000D01*
X38097571Y57400000D02*
X38097571Y60202429D01*
D69*
X7180000Y44580000D02*
X6040000Y44580000D01*
X9700000Y46600000D02*
X9200000Y46600000D01*
X9200000Y46600000D02*
X7180000Y44580000D01*
X4760000Y43300000D02*
X6607120Y43300000D01*
X9107120Y45800000D02*
X9700000Y45800000D01*
X6607120Y43300000D02*
X9107120Y45800000D01*
X3500000Y42040000D02*
X4760000Y43300000D01*
X8700000Y40900000D02*
X9700000Y40900000D01*
D71*
X35800000Y56025000D02*
X35800000Y59800000D01*
X35800000Y59800000D02*
X35775468Y59824532D01*
X38387851Y66100000D02*
X39200000Y66100000D01*
X12500000Y37012500D02*
X13587500Y37012500D01*
X13587500Y37012500D02*
X13600000Y37000000D01*
D69*
X6775010Y36224990D02*
X11712490Y36224990D01*
D71*
X39300000Y71375000D02*
X39300000Y67800000D01*
D69*
X6040000Y36960000D02*
X6775010Y36224990D01*
D71*
X39200000Y66100000D02*
X39587852Y66487852D01*
X39587852Y67512148D02*
X39300000Y67800000D01*
D69*
X11712490Y36224990D02*
X12500000Y37012500D01*
D71*
X39587852Y66487852D02*
X39587852Y67512148D01*
D69*
X8600000Y37000000D02*
X9787500Y37000000D01*
D71*
X38800000Y71375000D02*
X38800000Y67173272D01*
X9800000Y37012500D02*
X10887500Y37012500D01*
X10887500Y37012500D02*
X10900000Y37000000D01*
X38800000Y67173272D02*
X38987851Y66985421D01*
D69*
X9787500Y37000000D02*
X9800000Y37012500D01*
X3500000Y39500000D02*
X4800000Y38200000D01*
X10600000Y40500000D02*
X10600000Y41144990D01*
X10100000Y40000000D02*
X10600000Y40500000D01*
X4800000Y38200000D02*
X6516002Y38200000D01*
X8316002Y40000000D02*
X10100000Y40000000D01*
X10600000Y41144990D02*
X10044990Y41700000D01*
X10044990Y41700000D02*
X9700000Y41700000D01*
X6516002Y38200000D02*
X8316002Y40000000D01*
X6040000Y39500000D02*
X9040000Y42500000D01*
X9040000Y42500000D02*
X9700000Y42500000D01*
X66700000Y51000000D02*
X66700000Y49912500D01*
X66700000Y49912500D02*
X66712500Y49900000D01*
D71*
X38475000Y34575000D02*
X40300000Y36400000D01*
X53300000Y51000000D02*
X49500000Y47200000D01*
X53300000Y53500000D02*
X53300000Y51000000D01*
X49500000Y47200000D02*
X47800000Y45500000D01*
X40300000Y41234302D02*
X40532849Y41467151D01*
X45800000Y54934301D02*
X46334311Y54399990D01*
X44565698Y45500000D02*
X40532849Y41467151D01*
X45800000Y56025000D02*
X45800000Y54934301D01*
X40300000Y36400000D02*
X40300000Y41234302D01*
X52400010Y54399990D02*
X53300000Y53500000D01*
X47800000Y45500000D02*
X44565698Y45500000D01*
X46334311Y54399990D02*
X52400010Y54399990D01*
X38475000Y30600000D02*
X38475000Y34575000D01*
X42800000Y71375000D02*
X42800000Y70000000D01*
X29019784Y67500000D02*
X28500973Y68018811D01*
X29400000Y67500000D02*
X29019784Y67500000D01*
X30630000Y65310000D02*
X28500000Y63180000D01*
X30109990Y68300000D02*
X30630000Y67779990D01*
X28500000Y63180000D02*
X28500000Y60970000D01*
X33125000Y60200000D02*
X29270000Y60200000D01*
X30630000Y67779990D02*
X30630000Y65310000D01*
X29270000Y60200000D02*
X28500000Y60970000D01*
X29400000Y68300000D02*
X30109990Y68300000D01*
%TA.AperFunction,Conductor*%
G36*
X6590629Y122499523D02*
G01*
X6771175Y122481741D01*
X6790205Y122477955D01*
X6874673Y122452333D01*
X6959140Y122426710D01*
X6977070Y122419283D01*
X7132756Y122336067D01*
X7148893Y122325285D01*
X7289129Y122210196D01*
X7296328Y122203672D01*
X7708116Y121791884D01*
X7714556Y121784787D01*
X7828275Y121646595D01*
X7838952Y121630708D01*
X7921662Y121477442D01*
X7929080Y121459801D01*
X7931399Y121452337D01*
X7980741Y121293485D01*
X7984625Y121274742D01*
X7985744Y121264374D01*
X8003826Y121096790D01*
X8004391Y121087223D01*
X8100000Y112100000D01*
X9320285Y112110233D01*
X9614489Y112112700D01*
X9675585Y112092247D01*
X9697250Y112075622D01*
X9843285Y112015132D01*
X10000000Y111994500D01*
X10156715Y112015132D01*
X10302750Y112075622D01*
X10332917Y112098770D01*
X10392349Y112119223D01*
X17725843Y112180720D01*
X17786940Y112160265D01*
X17840428Y112119223D01*
X17897250Y112075622D01*
X18043285Y112015132D01*
X18200000Y111994500D01*
X18356715Y112015132D01*
X18502750Y112075622D01*
X18623519Y112168291D01*
X18682956Y112188746D01*
X25664305Y112247290D01*
X25722651Y112228871D01*
X25743674Y112208563D01*
X25771847Y112171847D01*
X25897250Y112075622D01*
X26043285Y112015132D01*
X26200000Y111994500D01*
X26356715Y112015132D01*
X26502750Y112075622D01*
X26628153Y112171847D01*
X26663252Y112217589D01*
X26713676Y112252245D01*
X26740960Y112256318D01*
X33613158Y112313947D01*
X33671504Y112295528D01*
X33692527Y112275219D01*
X33771847Y112171847D01*
X33897250Y112075622D01*
X34043285Y112015132D01*
X34200000Y111994500D01*
X34356715Y112015132D01*
X34502750Y112075622D01*
X34628153Y112171847D01*
X34686042Y112247290D01*
X34715062Y112285109D01*
X34765486Y112319765D01*
X34792773Y112323839D01*
X37130089Y112343439D01*
X41773380Y112382376D01*
X41831727Y112363957D01*
X41865673Y112321267D01*
X41872672Y112304373D01*
X41875622Y112297250D01*
X41971847Y112171847D01*
X42097250Y112075622D01*
X42243285Y112015132D01*
X42400000Y111994500D01*
X42556715Y112015132D01*
X42702750Y112075622D01*
X42828153Y112171847D01*
X42924378Y112297250D01*
X42926860Y112303241D01*
X42926863Y112303247D01*
X42938688Y112331797D01*
X42978424Y112378323D01*
X43029320Y112392908D01*
X48468435Y112438519D01*
X49745689Y112449230D01*
X49804036Y112430811D01*
X49837982Y112388120D01*
X49875622Y112297250D01*
X49971847Y112171847D01*
X50097250Y112075622D01*
X50243285Y112015132D01*
X50400000Y111994500D01*
X50556715Y112015132D01*
X50702750Y112075622D01*
X50828153Y112171847D01*
X50924378Y112297250D01*
X50966574Y112399119D01*
X51006310Y112445643D01*
X51057204Y112460228D01*
X54786726Y112491503D01*
X54796485Y112491103D01*
X54978127Y112474653D01*
X54997290Y112470987D01*
X55167466Y112420628D01*
X55185538Y112413275D01*
X55212396Y112399118D01*
X55342539Y112330517D01*
X55358807Y112319770D01*
X55496534Y112207823D01*
X55510381Y112194091D01*
X55524515Y112176997D01*
X55623469Y112057318D01*
X55634359Y112041130D01*
X55718431Y111884830D01*
X55725936Y111866820D01*
X55777720Y111697071D01*
X55781546Y111677940D01*
X55799518Y111496448D01*
X55800000Y111486692D01*
X55800000Y107304861D01*
X55799523Y107295157D01*
X55781741Y107114614D01*
X55777955Y107095580D01*
X55726710Y106926647D01*
X55719283Y106908717D01*
X55636067Y106753031D01*
X55625285Y106736894D01*
X55513290Y106600427D01*
X55499573Y106586710D01*
X55418163Y106519898D01*
X55363106Y106474715D01*
X55346969Y106463933D01*
X55191283Y106380717D01*
X55173353Y106373290D01*
X55088886Y106347667D01*
X55004418Y106322045D01*
X54985388Y106318259D01*
X54805412Y106300533D01*
X54804843Y106300477D01*
X54795139Y106300000D01*
X8145811Y106300000D01*
X8135557Y106300533D01*
X7944881Y106320390D01*
X7924811Y106324616D01*
X7747234Y106381755D01*
X7728467Y106390025D01*
X7566473Y106482527D01*
X7549812Y106494487D01*
X7406491Y106621815D01*
X7399178Y106629024D01*
X4799083Y109472878D01*
X4799082Y109472879D01*
X4797354Y109474769D01*
X4500000Y109800000D01*
X2542947Y109800000D01*
X2532751Y109800526D01*
X2529621Y109800850D01*
X2343139Y109820159D01*
X2323188Y109824335D01*
X2146518Y109880833D01*
X2127840Y109889011D01*
X1966502Y109980503D01*
X1949894Y109992335D01*
X1806866Y110118339D01*
X1799563Y110125474D01*
X1168319Y110809322D01*
X1162395Y110816372D01*
X1057860Y110953243D01*
X1048093Y110968853D01*
X972812Y111118578D01*
X966104Y111135735D01*
X919868Y111296810D01*
X916454Y111314913D01*
X900429Y111486392D01*
X900000Y111495604D01*
X900000Y121052469D01*
X900536Y121062759D01*
X920530Y121254087D01*
X924785Y121274221D01*
X982306Y121452337D01*
X990631Y121471156D01*
X1083735Y121633536D01*
X1095772Y121650229D01*
X1223893Y121793723D01*
X1231145Y121801041D01*
X1710555Y122236868D01*
X1717585Y122242690D01*
X1827234Y122325285D01*
X1853747Y122345257D01*
X1869260Y122354839D01*
X2017807Y122428646D01*
X2034814Y122435222D01*
X2040472Y122436829D01*
X2194399Y122480539D01*
X2212311Y122483880D01*
X2382055Y122499579D01*
X2391172Y122500000D01*
X6580925Y122500000D01*
X6590629Y122499523D01*
G37*
%TD.AperFunction*%
%TA.AperFunction,Conductor*%
G36*
X31404393Y88478512D02*
G01*
X31586963Y88461394D01*
X31606215Y88457637D01*
X31777084Y88406285D01*
X31795217Y88398806D01*
X31952605Y88314775D01*
X31968908Y88303868D01*
X32106641Y88190457D01*
X32120473Y88176550D01*
X32233147Y88038204D01*
X32243960Y88021853D01*
X32327152Y87864000D01*
X32334528Y87845839D01*
X32383885Y87678352D01*
X32384964Y87674690D01*
X32388617Y87655418D01*
X32404752Y87472773D01*
X32405130Y87462961D01*
X32377398Y84967066D01*
X32376829Y84957508D01*
X32357579Y84779737D01*
X32353692Y84761009D01*
X32302047Y84594863D01*
X32294631Y84577231D01*
X32211999Y84424119D01*
X32201332Y84408243D01*
X32090797Y84273875D01*
X32077275Y84260346D01*
X31942960Y84149741D01*
X31927089Y84139066D01*
X31774021Y84056358D01*
X31756393Y84048933D01*
X31590270Y83997203D01*
X31571544Y83993307D01*
X31495679Y83985053D01*
X31393781Y83973967D01*
X31384235Y83973393D01*
X30831592Y83966973D01*
X30549280Y83963694D01*
X30490874Y83981924D01*
X30456666Y84024801D01*
X30426861Y84096755D01*
X30424378Y84102750D01*
X30328153Y84228153D01*
X30202750Y84324378D01*
X30056715Y84384868D01*
X29900000Y84405500D01*
X29743285Y84384868D01*
X29597250Y84324378D01*
X29471847Y84228153D01*
X29375622Y84102750D01*
X29343159Y84024378D01*
X29337067Y84009670D01*
X29297330Y83963145D01*
X29246753Y83948563D01*
X22522409Y83870447D01*
X22464003Y83888677D01*
X22442716Y83909174D01*
X22432103Y83923006D01*
X22432101Y83923008D01*
X22428153Y83928153D01*
X22302750Y84024378D01*
X22156715Y84084868D01*
X22157291Y84086257D01*
X22112322Y84115462D01*
X22090397Y84172584D01*
X22091108Y84190685D01*
X22095363Y84223000D01*
X22105500Y84300000D01*
X22084868Y84456715D01*
X22082383Y84462715D01*
X22080576Y84467078D01*
X22075776Y84528075D01*
X22104982Y84574364D01*
X22103548Y84575710D01*
X22108168Y84580629D01*
X22113412Y84584876D01*
X22176137Y84673139D01*
X22191935Y84695369D01*
X22191936Y84695370D01*
X22195842Y84700867D01*
X22207450Y84733109D01*
X22244952Y84781455D01*
X22303708Y84798524D01*
X22361276Y84777797D01*
X22391454Y84738891D01*
X22420325Y84672174D01*
X22509876Y84561588D01*
X22515375Y84557680D01*
X22613687Y84487814D01*
X22625867Y84479158D01*
X22632212Y84476874D01*
X22632215Y84476872D01*
X22754135Y84432978D01*
X22754137Y84432978D01*
X22759752Y84430956D01*
X22765687Y84430332D01*
X22765688Y84430332D01*
X22775237Y84429329D01*
X22821178Y84424500D01*
X23342751Y84424500D01*
X23346094Y84424958D01*
X23346095Y84424958D01*
X23440545Y84437896D01*
X23440546Y84437896D01*
X23447231Y84438812D01*
X23577826Y84495325D01*
X23688412Y84584876D01*
X23688975Y84584180D01*
X23737480Y84610846D01*
X23768951Y84611753D01*
X23900000Y84594500D01*
X24056715Y84615132D01*
X24202750Y84675622D01*
X24328153Y84771847D01*
X24424378Y84897250D01*
X24484868Y85043285D01*
X24505500Y85200000D01*
X24484868Y85356715D01*
X24424378Y85502750D01*
X24328153Y85628153D01*
X24202750Y85724378D01*
X24056715Y85784868D01*
X23900000Y85805500D01*
X23766803Y85787964D01*
X23706644Y85799114D01*
X23676944Y85823815D01*
X23669370Y85833169D01*
X23669369Y85833170D01*
X23665124Y85838412D01*
X23659625Y85842320D01*
X23554631Y85916935D01*
X23554630Y85916936D01*
X23549133Y85920842D01*
X23542788Y85923126D01*
X23542785Y85923128D01*
X23420865Y85967022D01*
X23420863Y85967022D01*
X23415248Y85969044D01*
X23409313Y85969668D01*
X23409312Y85969668D01*
X23399763Y85970671D01*
X23353822Y85975500D01*
X22832249Y85975500D01*
X22828906Y85975042D01*
X22828905Y85975042D01*
X22734455Y85962104D01*
X22734454Y85962104D01*
X22727769Y85961188D01*
X22597174Y85904675D01*
X22486588Y85815124D01*
X22482680Y85809625D01*
X22422099Y85724378D01*
X22404158Y85699133D01*
X22401873Y85692786D01*
X22392550Y85666891D01*
X22355048Y85618545D01*
X22296292Y85601476D01*
X22238724Y85622203D01*
X22208545Y85661110D01*
X22206044Y85666891D01*
X22179675Y85727826D01*
X22090124Y85838412D01*
X22084625Y85842320D01*
X21979631Y85916935D01*
X21979630Y85916936D01*
X21974133Y85920842D01*
X21967788Y85923126D01*
X21967785Y85923128D01*
X21845865Y85967022D01*
X21845863Y85967022D01*
X21840248Y85969044D01*
X21834313Y85969668D01*
X21834312Y85969668D01*
X21824763Y85970671D01*
X21778822Y85975500D01*
X21257249Y85975500D01*
X21253906Y85975042D01*
X21253905Y85975042D01*
X21159455Y85962104D01*
X21159454Y85962104D01*
X21152769Y85961188D01*
X21022174Y85904675D01*
X20911588Y85815124D01*
X20907680Y85809625D01*
X20847099Y85724378D01*
X20829158Y85699133D01*
X20826874Y85692788D01*
X20826872Y85692785D01*
X20782978Y85570865D01*
X20780956Y85565248D01*
X20774500Y85503822D01*
X20774500Y84907249D01*
X20774958Y84903906D01*
X20774958Y84903905D01*
X20776017Y84896178D01*
X20788812Y84802769D01*
X20845325Y84672174D01*
X20913488Y84588000D01*
X20935413Y84530880D01*
X20928013Y84487814D01*
X20917617Y84462715D01*
X20915132Y84456715D01*
X20894500Y84300000D01*
X20915132Y84143285D01*
X20975586Y83997337D01*
X20975622Y83997250D01*
X20975606Y83997243D01*
X20987743Y83940128D01*
X20962854Y83884233D01*
X20909864Y83853643D01*
X20890442Y83851489D01*
X7850000Y83700000D01*
X7854242Y82707327D01*
X7854242Y82707325D01*
X7854252Y82704904D01*
X7854252Y82704896D01*
X7995759Y49592220D01*
X7995331Y49582593D01*
X7978600Y49403412D01*
X7974955Y49384508D01*
X7925237Y49216599D01*
X7918006Y49198766D01*
X7836727Y49043643D01*
X7826179Y49027545D01*
X7716421Y48891095D01*
X7702954Y48877339D01*
X7568863Y48764710D01*
X7552987Y48753820D01*
X7399633Y48669272D01*
X7381951Y48661661D01*
X7215139Y48608393D01*
X7196322Y48604348D01*
X7017522Y48583817D01*
X7007917Y48583185D01*
X5789268Y48562530D01*
X3094316Y48516853D01*
X3094308Y48516852D01*
X2100000Y48500000D01*
X2300000Y26200000D01*
X2515033Y26200000D01*
X2621351Y26049563D01*
X2772820Y25902008D01*
X2948643Y25784527D01*
X2952810Y25782737D01*
X2952815Y25782734D01*
X3022042Y25752992D01*
X3142931Y25701054D01*
X3349177Y25654385D01*
X3474150Y25649475D01*
X3555941Y25646262D01*
X3555942Y25646262D01*
X3560474Y25646084D01*
X3769746Y25676427D01*
X3774045Y25677886D01*
X3774048Y25677887D01*
X3965683Y25742938D01*
X3969984Y25744398D01*
X3979002Y25749448D01*
X4150521Y25845504D01*
X4154482Y25847722D01*
X4317062Y25982938D01*
X4452278Y26145518D01*
X4454498Y26149483D01*
X4457067Y26153220D01*
X4457945Y26152617D01*
X4499368Y26190907D01*
X4540814Y26200000D01*
X5003771Y26200000D01*
X5061962Y26181093D01*
X5084617Y26158139D01*
X5161351Y26049563D01*
X5312820Y25902008D01*
X5488643Y25784527D01*
X5492810Y25782737D01*
X5492815Y25782734D01*
X5562042Y25752992D01*
X5682931Y25701054D01*
X5889177Y25654385D01*
X6014150Y25649475D01*
X6095941Y25646262D01*
X6095942Y25646262D01*
X6100474Y25646084D01*
X6309746Y25676427D01*
X6314045Y25677886D01*
X6314048Y25677887D01*
X6505683Y25742938D01*
X6509984Y25744398D01*
X6519002Y25749448D01*
X6690521Y25845504D01*
X6694482Y25847722D01*
X6857062Y25982938D01*
X6992278Y26145518D01*
X6994498Y26149483D01*
X6997067Y26153220D01*
X6997945Y26152617D01*
X7039368Y26190907D01*
X7080814Y26200000D01*
X7599836Y26200000D01*
X7609511Y26199526D01*
X7789526Y26181850D01*
X7808505Y26178086D01*
X7976979Y26127141D01*
X7994860Y26119760D01*
X8150219Y26037011D01*
X8166311Y26026298D01*
X8302600Y25914918D01*
X8316314Y25901269D01*
X8428337Y25765502D01*
X8439131Y25749448D01*
X8522599Y25594493D01*
X8530067Y25576643D01*
X8581801Y25408411D01*
X8585654Y25389450D01*
X8602180Y25228912D01*
X8601853Y25205852D01*
X8595347Y25156434D01*
X8594500Y25150000D01*
X8595347Y25143566D01*
X8595347Y25143565D01*
X8604498Y25074051D01*
X8605344Y25061595D01*
X8634787Y18790430D01*
X8616153Y18732151D01*
X8566822Y18695955D01*
X8505638Y18695668D01*
X8475521Y18711423D01*
X8459819Y18723472D01*
X8427015Y18748643D01*
X8280980Y18809133D01*
X8124265Y18829765D01*
X7967550Y18809133D01*
X7821515Y18748643D01*
X7696112Y18652418D01*
X7599887Y18527015D01*
X7539397Y18380980D01*
X7518765Y18224265D01*
X7539397Y18067550D01*
X7599887Y17921515D01*
X7603836Y17916369D01*
X7603838Y17916365D01*
X7625442Y17888210D01*
X7645866Y17830534D01*
X7625443Y17767678D01*
X7575622Y17702750D01*
X7515132Y17556715D01*
X7494500Y17400000D01*
X7515132Y17243285D01*
X7517616Y17237287D01*
X7517617Y17237285D01*
X7538286Y17187385D01*
X7543087Y17126389D01*
X7511117Y17074220D01*
X7454589Y17050805D01*
X7446822Y17050500D01*
X7182086Y17050500D01*
X7123895Y17069407D01*
X7093296Y17105714D01*
X7027237Y17239670D01*
X7027235Y17239674D01*
X7025226Y17243747D01*
X6904213Y17405803D01*
X6901420Y17409543D01*
X6901419Y17409544D01*
X6898704Y17413180D01*
X6743424Y17556720D01*
X6733928Y17562712D01*
X6568423Y17667137D01*
X6564586Y17669558D01*
X6368180Y17747916D01*
X6160783Y17789170D01*
X6055062Y17790554D01*
X5953880Y17791879D01*
X5953875Y17791879D01*
X5949341Y17791938D01*
X5944866Y17791169D01*
X5944865Y17791169D01*
X5778739Y17762623D01*
X5740935Y17756127D01*
X5686847Y17736173D01*
X5546807Y17684510D01*
X5546804Y17684509D01*
X5542544Y17682937D01*
X5538641Y17680615D01*
X5538639Y17680614D01*
X5505103Y17660662D01*
X5360814Y17574819D01*
X5357399Y17571824D01*
X5357396Y17571822D01*
X5236036Y17465392D01*
X5201830Y17435394D01*
X5070916Y17269330D01*
X5068803Y17265315D01*
X5068803Y17265314D01*
X4976377Y17089641D01*
X4972457Y17082191D01*
X4966755Y17063827D01*
X4919102Y16910359D01*
X4909750Y16880242D01*
X4909216Y16875732D01*
X4909216Y16875731D01*
X4887146Y16689254D01*
X4884896Y16670247D01*
X4890302Y16587761D01*
X4897807Y16473265D01*
X4898726Y16459240D01*
X4899842Y16454847D01*
X4899842Y16454845D01*
X4928175Y16343285D01*
X4950778Y16254286D01*
X5039308Y16062250D01*
X5049834Y16047356D01*
X5078611Y16006637D01*
X5096755Y15948204D01*
X5077087Y15890266D01*
X5027120Y15854953D01*
X4997763Y15850500D01*
X4967610Y15850500D01*
X4909419Y15869407D01*
X4897606Y15879497D01*
X4612180Y16164924D01*
X4584403Y16219440D01*
X4588438Y16266749D01*
X4622113Y16365952D01*
X4622114Y16365955D01*
X4623573Y16370254D01*
X4635838Y16454845D01*
X4653496Y16576626D01*
X4653497Y16576634D01*
X4653916Y16579526D01*
X4655500Y16640000D01*
X4655199Y16643285D01*
X4636566Y16846055D01*
X4636151Y16850573D01*
X4578752Y17054094D01*
X4531703Y17149500D01*
X4487237Y17239670D01*
X4487235Y17239674D01*
X4485226Y17243747D01*
X4364213Y17405803D01*
X4361420Y17409543D01*
X4361419Y17409544D01*
X4358704Y17413180D01*
X4203424Y17556720D01*
X4193928Y17562712D01*
X4028423Y17667137D01*
X4024586Y17669558D01*
X3828180Y17747916D01*
X3620783Y17789170D01*
X3515062Y17790554D01*
X3413880Y17791879D01*
X3413875Y17791879D01*
X3409341Y17791938D01*
X3404866Y17791169D01*
X3404865Y17791169D01*
X3238739Y17762623D01*
X3200935Y17756127D01*
X3146847Y17736173D01*
X3006807Y17684510D01*
X3006804Y17684509D01*
X3002544Y17682937D01*
X2998641Y17680615D01*
X2998639Y17680614D01*
X2965103Y17660662D01*
X2820814Y17574819D01*
X2817399Y17571824D01*
X2817396Y17571822D01*
X2696036Y17465392D01*
X2661830Y17435394D01*
X2530916Y17269330D01*
X2528803Y17265315D01*
X2528803Y17265314D01*
X2436377Y17089641D01*
X2432457Y17082191D01*
X2426755Y17063827D01*
X2379102Y16910359D01*
X2369750Y16880242D01*
X2369216Y16875732D01*
X2369216Y16875731D01*
X2347146Y16689254D01*
X2344896Y16670247D01*
X2350302Y16587761D01*
X2357807Y16473265D01*
X2358726Y16459240D01*
X2359842Y16454847D01*
X2359842Y16454845D01*
X2388175Y16343285D01*
X2410778Y16254286D01*
X2499308Y16062250D01*
X2621351Y15889563D01*
X2772820Y15742008D01*
X2776595Y15739486D01*
X2776597Y15739484D01*
X2837981Y15698469D01*
X2948643Y15624527D01*
X2952810Y15622737D01*
X2952815Y15622734D01*
X3043107Y15583942D01*
X3142931Y15541054D01*
X3349177Y15494385D01*
X3474150Y15489475D01*
X3555941Y15486262D01*
X3555942Y15486262D01*
X3560474Y15486084D01*
X3769746Y15516427D01*
X3873252Y15551562D01*
X3934430Y15552363D01*
X3975076Y15527820D01*
X4378259Y15124637D01*
X4406036Y15070120D01*
X4403379Y15053344D01*
X4423342Y15057315D01*
X4467995Y15040443D01*
X4476782Y15034370D01*
X4479312Y15032562D01*
X4520903Y15001843D01*
X4526858Y14997445D01*
X4533668Y14995054D01*
X4539608Y14990948D01*
X4546661Y14988717D01*
X4546666Y14988715D01*
X4573579Y14980204D01*
X4595971Y14973122D01*
X4598856Y14972160D01*
X4654648Y14952568D01*
X4660688Y14952331D01*
X4663367Y14951809D01*
X4668744Y14950108D01*
X4674365Y14949666D01*
X4674368Y14949665D01*
X4674454Y14949659D01*
X4676469Y14949500D01*
X4730787Y14949500D01*
X4734673Y14949424D01*
X4782590Y14947541D01*
X4782593Y14947541D01*
X4789984Y14947251D01*
X4796551Y14948992D01*
X4805776Y14949500D01*
X5040375Y14949500D01*
X5098566Y14930593D01*
X5134530Y14881093D01*
X5134530Y14819907D01*
X5118123Y14789212D01*
X5070916Y14729330D01*
X5068803Y14725315D01*
X5068803Y14725314D01*
X4976566Y14550000D01*
X4972457Y14542191D01*
X4971113Y14537862D01*
X4923328Y14383969D01*
X4909750Y14340242D01*
X4909216Y14335732D01*
X4909216Y14335731D01*
X4906239Y14310573D01*
X4884896Y14130247D01*
X4889507Y14059894D01*
X4898235Y13926735D01*
X4898726Y13919240D01*
X4899842Y13914847D01*
X4899842Y13914845D01*
X4920284Y13834354D01*
X4950778Y13714286D01*
X5039308Y13522250D01*
X5161351Y13349563D01*
X5312820Y13202008D01*
X5488643Y13084527D01*
X5492810Y13082737D01*
X5492815Y13082734D01*
X5576883Y13046616D01*
X5682931Y13001054D01*
X5889177Y12954385D01*
X6014150Y12949475D01*
X6095941Y12946262D01*
X6095942Y12946262D01*
X6100474Y12946084D01*
X6309746Y12976427D01*
X6314045Y12977886D01*
X6314048Y12977887D01*
X6505683Y13042938D01*
X6509984Y13044398D01*
X6694482Y13147722D01*
X6757464Y13200103D01*
X6853563Y13280028D01*
X6857062Y13282938D01*
X6992278Y13445518D01*
X7057317Y13561653D01*
X7093384Y13626055D01*
X7093385Y13626057D01*
X7095602Y13630016D01*
X7131771Y13736566D01*
X7162113Y13825952D01*
X7162114Y13825955D01*
X7163573Y13830254D01*
X7175838Y13914845D01*
X7193496Y14036626D01*
X7193497Y14036634D01*
X7193916Y14039526D01*
X7195500Y14100000D01*
X7195071Y14104675D01*
X7176566Y14306055D01*
X7176151Y14310573D01*
X7118752Y14514094D01*
X7093828Y14564636D01*
X7027237Y14699670D01*
X7027235Y14699674D01*
X7025226Y14703747D01*
X6959872Y14791267D01*
X6940204Y14849204D01*
X6958348Y14907637D01*
X7007373Y14944246D01*
X7039196Y14949500D01*
X8554283Y14949500D01*
X8612474Y14930593D01*
X8648438Y14881093D01*
X8653282Y14850965D01*
X8662543Y12878172D01*
X8644243Y12820360D01*
X8642150Y12817415D01*
X8629158Y12799133D01*
X8626873Y12792785D01*
X8626872Y12792784D01*
X8592471Y12697231D01*
X8580956Y12665248D01*
X8574500Y12603822D01*
X8574500Y12007249D01*
X8574958Y12003906D01*
X8574958Y12003905D01*
X8587120Y11915124D01*
X8588812Y11902769D01*
X8645325Y11772174D01*
X8649574Y11766927D01*
X8653069Y11761156D01*
X8650229Y11759436D01*
X8668030Y11709542D01*
X8677707Y9648380D01*
X8659073Y9590101D01*
X8609742Y9553905D01*
X8550589Y9552992D01*
X8546596Y9554175D01*
X8542380Y9555857D01*
X8537933Y9556742D01*
X8537928Y9556743D01*
X8330463Y9598010D01*
X8326009Y9598896D01*
X8217318Y9600319D01*
X8109958Y9601725D01*
X8109953Y9601725D01*
X8105418Y9601784D01*
X8100945Y9601015D01*
X8100940Y9601015D01*
X7993033Y9582473D01*
X7887994Y9564424D01*
X7681019Y9488067D01*
X7491425Y9375270D01*
X7488010Y9372275D01*
X7488007Y9372273D01*
X7329369Y9233151D01*
X7325561Y9229811D01*
X7188983Y9056562D01*
X7086263Y8861325D01*
X7020843Y8650638D01*
X6999500Y8470311D01*
X6999500Y6545585D01*
X7014686Y6380315D01*
X7074569Y6167987D01*
X7172142Y5970128D01*
X7304139Y5793363D01*
X7466138Y5643613D01*
X7469971Y5641195D01*
X7469973Y5641193D01*
X7633633Y5537931D01*
X7652714Y5525892D01*
X7857620Y5444143D01*
X8073991Y5401104D01*
X8182682Y5399681D01*
X8290042Y5398275D01*
X8290047Y5398275D01*
X8294582Y5398216D01*
X8299055Y5398985D01*
X8299060Y5398985D01*
X8406967Y5417527D01*
X8512006Y5435576D01*
X8516263Y5437146D01*
X8516265Y5437147D01*
X8688074Y5500530D01*
X8697179Y5500888D01*
X8700000Y4900000D01*
X9704043Y4908807D01*
X9704047Y4908807D01*
X9706480Y4908828D01*
X9706489Y4908828D01*
X30042854Y5087218D01*
X41908772Y5191305D01*
X42900000Y5200000D01*
X42900000Y8780489D01*
X42900515Y8790577D01*
X42919734Y8978201D01*
X42923825Y8997958D01*
X42979147Y9172934D01*
X42987158Y9191451D01*
X43006637Y9226244D01*
X43076808Y9351581D01*
X43088404Y9368085D01*
X43208657Y9506714D01*
X43223361Y9520528D01*
X43369222Y9631900D01*
X43386419Y9642445D01*
X43551835Y9721935D01*
X43570813Y9728773D01*
X43748900Y9773073D01*
X43768873Y9775923D01*
X43777566Y9776268D01*
X43957335Y9783401D01*
X43967416Y9783286D01*
X45535248Y9685297D01*
X45925804Y9660887D01*
X45935282Y9659835D01*
X46111123Y9631679D01*
X46129555Y9626871D01*
X46292230Y9567216D01*
X46309400Y9558968D01*
X46457654Y9469252D01*
X46472918Y9457875D01*
X46601248Y9341423D01*
X46614052Y9327329D01*
X46717693Y9188468D01*
X46727565Y9172177D01*
X46802696Y9016031D01*
X46809266Y8998151D01*
X46853100Y8830509D01*
X46856123Y8811701D01*
X46867340Y8633989D01*
X46867482Y8624455D01*
X46632311Y1569342D01*
X46631540Y1559877D01*
X46608678Y1384017D01*
X46604441Y1365526D01*
X46549964Y1201790D01*
X46542279Y1184449D01*
X46491792Y1094844D01*
X46457573Y1034111D01*
X46446720Y1018551D01*
X46334891Y887127D01*
X46321270Y873924D01*
X46186427Y766243D01*
X46170538Y755880D01*
X46017627Y675893D01*
X46000060Y668755D01*
X45834705Y619405D01*
X45816092Y615746D01*
X45639607Y598372D01*
X45630123Y597896D01*
X1503611Y502177D01*
X1493914Y502632D01*
X1313469Y519995D01*
X1294441Y523734D01*
X1125519Y574533D01*
X1107590Y581907D01*
X951810Y664662D01*
X935660Y675391D01*
X799002Y786924D01*
X785252Y800597D01*
X742788Y852037D01*
X672954Y936633D01*
X662138Y952718D01*
X578513Y1108037D01*
X571037Y1125930D01*
X519296Y1294565D01*
X515451Y1313570D01*
X501751Y1448052D01*
X497078Y1493923D01*
X496570Y1503608D01*
X496459Y1536165D01*
X496064Y1651880D01*
X1499299Y1651880D01*
X1539468Y1452666D01*
X1618874Y1265597D01*
X1621719Y1261473D01*
X1621720Y1261471D01*
X1731426Y1102441D01*
X1731430Y1102437D01*
X1734273Y1098315D01*
X1737890Y1094847D01*
X1737892Y1094844D01*
X1822222Y1013975D01*
X1880952Y957655D01*
X2052919Y849362D01*
X2057616Y847597D01*
X2057619Y847595D01*
X2219032Y786924D01*
X2243149Y777859D01*
X2248105Y777074D01*
X2438912Y746853D01*
X2438916Y746853D01*
X2443871Y746068D01*
X2525746Y749786D01*
X2641874Y755059D01*
X2641878Y755060D01*
X2646886Y755287D01*
X2736091Y777859D01*
X2839036Y803908D01*
X2843901Y805139D01*
X3013501Y887127D01*
X3022359Y891409D01*
X3022361Y891410D01*
X3026868Y893589D01*
X3188312Y1017022D01*
X3191599Y1020803D01*
X3191603Y1020807D01*
X3318346Y1166609D01*
X3321639Y1170397D01*
X3339329Y1201790D01*
X3418942Y1343081D01*
X3418943Y1343083D01*
X3421403Y1347449D01*
X3483527Y1540945D01*
X3505475Y1742980D01*
X3505500Y1750000D01*
X3494825Y1855103D01*
X3485470Y1947197D01*
X3485469Y1947201D01*
X3484963Y1952184D01*
X3424191Y2146109D01*
X3325666Y2323852D01*
X3193412Y2478155D01*
X3032834Y2602712D01*
X2850489Y2692437D01*
X2736309Y2722179D01*
X2658685Y2742399D01*
X2658681Y2742400D01*
X2653827Y2743664D01*
X2648815Y2743927D01*
X2648813Y2743927D01*
X2577342Y2747672D01*
X2450882Y2754300D01*
X2445923Y2753550D01*
X2254899Y2724660D01*
X2254896Y2724659D01*
X2249942Y2723910D01*
X2059218Y2653737D01*
X1886499Y2546647D01*
X1738841Y2407014D01*
X1735967Y2402909D01*
X1735964Y2402906D01*
X1680610Y2323852D01*
X1622277Y2240543D01*
X1541567Y2054033D01*
X1500008Y1855103D01*
X1499299Y1651880D01*
X496064Y1651880D01*
X484966Y4900000D01*
X453428Y14130247D01*
X2344896Y14130247D01*
X2349507Y14059894D01*
X2358235Y13926735D01*
X2358726Y13919240D01*
X2359842Y13914847D01*
X2359842Y13914845D01*
X2380284Y13834354D01*
X2410778Y13714286D01*
X2499308Y13522250D01*
X2621351Y13349563D01*
X2772820Y13202008D01*
X2948643Y13084527D01*
X2952810Y13082737D01*
X2952815Y13082734D01*
X3036883Y13046616D01*
X3142931Y13001054D01*
X3349177Y12954385D01*
X3474150Y12949475D01*
X3555941Y12946262D01*
X3555942Y12946262D01*
X3560474Y12946084D01*
X3769746Y12976427D01*
X3774045Y12977886D01*
X3774048Y12977887D01*
X3965683Y13042938D01*
X3969984Y13044398D01*
X4154482Y13147722D01*
X4217464Y13200103D01*
X4313563Y13280028D01*
X4317062Y13282938D01*
X4452278Y13445518D01*
X4517317Y13561653D01*
X4553384Y13626055D01*
X4553385Y13626057D01*
X4555602Y13630016D01*
X4591771Y13736566D01*
X4622113Y13825952D01*
X4622114Y13825955D01*
X4623573Y13830254D01*
X4635838Y13914845D01*
X4653496Y14036626D01*
X4653497Y14036634D01*
X4653916Y14039526D01*
X4655500Y14100000D01*
X4655071Y14104675D01*
X4636566Y14306055D01*
X4636151Y14310573D01*
X4578752Y14514094D01*
X4553828Y14564636D01*
X4487237Y14699670D01*
X4487235Y14699674D01*
X4485226Y14703747D01*
X4398485Y14819907D01*
X4361420Y14869543D01*
X4361419Y14869544D01*
X4358704Y14873180D01*
X4344507Y14886303D01*
X4314611Y14939685D01*
X4317098Y14960705D01*
X4292768Y14956852D01*
X4241054Y14981935D01*
X4206754Y15013642D01*
X4206753Y15013643D01*
X4203424Y15016720D01*
X4180011Y15031493D01*
X4028423Y15127137D01*
X4024586Y15129558D01*
X3828180Y15207916D01*
X3620783Y15249170D01*
X3515062Y15250554D01*
X3413880Y15251879D01*
X3413875Y15251879D01*
X3409341Y15251938D01*
X3404866Y15251169D01*
X3404865Y15251169D01*
X3205404Y15216895D01*
X3200935Y15216127D01*
X3164675Y15202750D01*
X3006807Y15144510D01*
X3006804Y15144509D01*
X3002544Y15142937D01*
X2998641Y15140615D01*
X2998639Y15140614D01*
X2955926Y15115202D01*
X2820814Y15034819D01*
X2817399Y15031824D01*
X2817396Y15031822D01*
X2701967Y14930593D01*
X2661830Y14895394D01*
X2530916Y14729330D01*
X2528803Y14725315D01*
X2528803Y14725314D01*
X2436566Y14550000D01*
X2432457Y14542191D01*
X2431113Y14537862D01*
X2383328Y14383969D01*
X2369750Y14340242D01*
X2369216Y14335732D01*
X2369216Y14335731D01*
X2366239Y14310573D01*
X2344896Y14130247D01*
X453428Y14130247D01*
X427392Y21750247D01*
X2344896Y21750247D01*
X2348189Y21700000D01*
X2357581Y21556715D01*
X2358726Y21539240D01*
X2359842Y21534847D01*
X2359842Y21534845D01*
X2381326Y21450254D01*
X2410778Y21334286D01*
X2499308Y21142250D01*
X2621351Y20969563D01*
X2772820Y20822008D01*
X2776595Y20819486D01*
X2776597Y20819484D01*
X2812905Y20795224D01*
X2948643Y20704527D01*
X2952810Y20702737D01*
X2952815Y20702734D01*
X2994400Y20684868D01*
X3142931Y20621054D01*
X3349177Y20574385D01*
X3474150Y20569475D01*
X3555941Y20566262D01*
X3555942Y20566262D01*
X3560474Y20566084D01*
X3769746Y20596427D01*
X3774045Y20597886D01*
X3774048Y20597887D01*
X3965683Y20662938D01*
X3969984Y20664398D01*
X4022791Y20693971D01*
X4150521Y20765504D01*
X4154482Y20767722D01*
X4211487Y20815132D01*
X4313563Y20900028D01*
X4317062Y20902938D01*
X4452278Y21065518D01*
X4513939Y21175622D01*
X4553384Y21246055D01*
X4553385Y21246057D01*
X4555602Y21250016D01*
X4585702Y21338688D01*
X4622113Y21445952D01*
X4622114Y21445955D01*
X4623573Y21450254D01*
X4635838Y21534845D01*
X4653496Y21656626D01*
X4653497Y21656634D01*
X4653916Y21659526D01*
X4654068Y21665308D01*
X4655424Y21717087D01*
X4655424Y21717092D01*
X4655500Y21720000D01*
X4652790Y21749500D01*
X4652721Y21750247D01*
X4884896Y21750247D01*
X4888189Y21700000D01*
X4897581Y21556715D01*
X4898726Y21539240D01*
X4899842Y21534847D01*
X4899842Y21534845D01*
X4921326Y21450254D01*
X4950778Y21334286D01*
X5039308Y21142250D01*
X5161351Y20969563D01*
X5312820Y20822008D01*
X5316595Y20819486D01*
X5316597Y20819484D01*
X5352905Y20795224D01*
X5488643Y20704527D01*
X5492810Y20702737D01*
X5492815Y20702734D01*
X5534400Y20684868D01*
X5682931Y20621054D01*
X5889177Y20574385D01*
X6014150Y20569475D01*
X6095941Y20566262D01*
X6095942Y20566262D01*
X6100474Y20566084D01*
X6309746Y20596427D01*
X6314045Y20597886D01*
X6314048Y20597887D01*
X6505683Y20662938D01*
X6509984Y20664398D01*
X6562791Y20693971D01*
X6690521Y20765504D01*
X6694482Y20767722D01*
X6751487Y20815132D01*
X6853563Y20900028D01*
X6857062Y20902938D01*
X6992278Y21065518D01*
X7053939Y21175622D01*
X7093384Y21246055D01*
X7093385Y21246057D01*
X7095602Y21250016D01*
X7125702Y21338688D01*
X7162113Y21445952D01*
X7162114Y21445955D01*
X7163573Y21450254D01*
X7175838Y21534845D01*
X7193496Y21656626D01*
X7193497Y21656634D01*
X7193916Y21659526D01*
X7194068Y21665308D01*
X7195424Y21717087D01*
X7195424Y21717092D01*
X7195500Y21720000D01*
X7192790Y21749500D01*
X7176566Y21926055D01*
X7176151Y21930573D01*
X7118752Y22134094D01*
X7101045Y22170000D01*
X7027237Y22319670D01*
X7027235Y22319674D01*
X7025226Y22323747D01*
X6898704Y22493180D01*
X6789097Y22594500D01*
X6746754Y22633642D01*
X6746753Y22633643D01*
X6743424Y22636720D01*
X6725715Y22647894D01*
X6568423Y22747137D01*
X6564586Y22749558D01*
X6368180Y22827916D01*
X6160783Y22869170D01*
X6055062Y22870554D01*
X5953880Y22871879D01*
X5953875Y22871879D01*
X5949341Y22871938D01*
X5944866Y22871169D01*
X5944865Y22871169D01*
X5745404Y22836895D01*
X5740935Y22836127D01*
X5650037Y22802593D01*
X5546807Y22764510D01*
X5546804Y22764509D01*
X5542544Y22762937D01*
X5538641Y22760615D01*
X5538639Y22760614D01*
X5502380Y22739042D01*
X5360814Y22654819D01*
X5357399Y22651824D01*
X5357396Y22651822D01*
X5299919Y22601416D01*
X5201830Y22515394D01*
X5070916Y22349330D01*
X5068803Y22345315D01*
X5068803Y22345314D01*
X4976566Y22170000D01*
X4972457Y22162191D01*
X4909750Y21960242D01*
X4909216Y21955732D01*
X4909216Y21955731D01*
X4906239Y21930573D01*
X4884896Y21750247D01*
X4652721Y21750247D01*
X4636566Y21926055D01*
X4636151Y21930573D01*
X4578752Y22134094D01*
X4561045Y22170000D01*
X4487237Y22319670D01*
X4487235Y22319674D01*
X4485226Y22323747D01*
X4358704Y22493180D01*
X4249097Y22594500D01*
X4206754Y22633642D01*
X4206753Y22633643D01*
X4203424Y22636720D01*
X4185715Y22647894D01*
X4028423Y22747137D01*
X4024586Y22749558D01*
X3828180Y22827916D01*
X3620783Y22869170D01*
X3515062Y22870554D01*
X3413880Y22871879D01*
X3413875Y22871879D01*
X3409341Y22871938D01*
X3404866Y22871169D01*
X3404865Y22871169D01*
X3205404Y22836895D01*
X3200935Y22836127D01*
X3110037Y22802593D01*
X3006807Y22764510D01*
X3006804Y22764509D01*
X3002544Y22762937D01*
X2998641Y22760615D01*
X2998639Y22760614D01*
X2962380Y22739042D01*
X2820814Y22654819D01*
X2817399Y22651824D01*
X2817396Y22651822D01*
X2759919Y22601416D01*
X2661830Y22515394D01*
X2530916Y22349330D01*
X2528803Y22345315D01*
X2528803Y22345314D01*
X2436566Y22170000D01*
X2432457Y22162191D01*
X2369750Y21960242D01*
X2369216Y21955732D01*
X2369216Y21955731D01*
X2366239Y21930573D01*
X2344896Y21750247D01*
X427392Y21750247D01*
X418713Y24290247D01*
X2344896Y24290247D01*
X2358726Y24079240D01*
X2359842Y24074847D01*
X2359842Y24074845D01*
X2406111Y23892662D01*
X2410778Y23874286D01*
X2499308Y23682250D01*
X2621351Y23509563D01*
X2772820Y23362008D01*
X2776595Y23359486D01*
X2776597Y23359484D01*
X2800841Y23343285D01*
X2948643Y23244527D01*
X2952810Y23242737D01*
X2952815Y23242734D01*
X3020862Y23213499D01*
X3142931Y23161054D01*
X3349177Y23114385D01*
X3474150Y23109475D01*
X3555941Y23106262D01*
X3555942Y23106262D01*
X3560474Y23106084D01*
X3769746Y23136427D01*
X3774045Y23137886D01*
X3774048Y23137887D01*
X3965683Y23202938D01*
X3969984Y23204398D01*
X4154482Y23307722D01*
X4317062Y23442938D01*
X4452278Y23605518D01*
X4555602Y23790016D01*
X4590445Y23892662D01*
X4622113Y23985952D01*
X4622114Y23985955D01*
X4623573Y23990254D01*
X4628652Y24025286D01*
X4653496Y24196626D01*
X4653497Y24196634D01*
X4653916Y24199526D01*
X4654028Y24203771D01*
X4655424Y24257087D01*
X4655424Y24257092D01*
X4655500Y24260000D01*
X4636151Y24470573D01*
X4578752Y24674094D01*
X4529147Y24774684D01*
X4487237Y24859670D01*
X4487235Y24859674D01*
X4485226Y24863747D01*
X4358704Y25033180D01*
X4239291Y25143565D01*
X4206754Y25173642D01*
X4206753Y25173643D01*
X4203424Y25176720D01*
X4171056Y25197143D01*
X4028423Y25287137D01*
X4024586Y25289558D01*
X3828180Y25367916D01*
X3620783Y25409170D01*
X3515062Y25410554D01*
X3413880Y25411879D01*
X3413875Y25411879D01*
X3409341Y25411938D01*
X3404866Y25411169D01*
X3404865Y25411169D01*
X3205404Y25376895D01*
X3200935Y25376127D01*
X3110037Y25342593D01*
X3006807Y25304510D01*
X3006804Y25304509D01*
X3002544Y25302937D01*
X2998641Y25300615D01*
X2998639Y25300614D01*
X2937000Y25263943D01*
X2820814Y25194819D01*
X2817399Y25191824D01*
X2817396Y25191822D01*
X2762370Y25143565D01*
X2661830Y25055394D01*
X2530916Y24889330D01*
X2528803Y24885315D01*
X2528803Y24885314D01*
X2442799Y24721847D01*
X2432457Y24702191D01*
X2408682Y24625622D01*
X2374127Y24514337D01*
X2369750Y24500242D01*
X2369216Y24495732D01*
X2369216Y24495731D01*
X2360786Y24424500D01*
X2344896Y24290247D01*
X418713Y24290247D01*
X335631Y48605451D01*
X324533Y51853561D01*
X2046462Y51853561D01*
X2046883Y51850005D01*
X2046883Y51850003D01*
X2053301Y51795779D01*
X2078878Y51579679D01*
X2079808Y51576220D01*
X2079809Y51576215D01*
X2084195Y51559905D01*
X2150491Y51313345D01*
X2151913Y51310052D01*
X2151914Y51310048D01*
X2168240Y51272231D01*
X2259801Y51060138D01*
X2404518Y50825363D01*
X2406817Y50822618D01*
X2406818Y50822617D01*
X2568862Y50629158D01*
X2581610Y50613938D01*
X2787368Y50430292D01*
X3017482Y50278272D01*
X3020721Y50276751D01*
X3020725Y50276749D01*
X3095467Y50241658D01*
X3267130Y50161062D01*
X3531083Y50081119D01*
X3803812Y50040116D01*
X3807388Y50040100D01*
X3807393Y50040100D01*
X3953446Y50039463D01*
X4079603Y50038913D01*
X4186406Y50054018D01*
X4349125Y50077031D01*
X4349130Y50077032D01*
X4352679Y50077534D01*
X4617320Y50155171D01*
X4867982Y50270198D01*
X4986859Y50347250D01*
X5096396Y50418248D01*
X5096400Y50418251D01*
X5099413Y50420204D01*
X5102117Y50422575D01*
X5304071Y50599683D01*
X5304075Y50599687D01*
X5306766Y50602047D01*
X5485696Y50811919D01*
X5594325Y50984752D01*
X5630550Y51042387D01*
X5630553Y51042393D01*
X5632457Y51045422D01*
X5637615Y51057088D01*
X5742519Y51294379D01*
X5743972Y51297665D01*
X5804007Y51513412D01*
X5816945Y51559905D01*
X5816946Y51559912D01*
X5817907Y51563364D01*
X5843998Y51768456D01*
X5852400Y51834498D01*
X5852400Y51834504D01*
X5852712Y51836953D01*
X5853065Y51850003D01*
X5855434Y51937547D01*
X5855434Y51937554D01*
X5855500Y51940000D01*
X5835541Y52215071D01*
X5834382Y52220325D01*
X5795337Y52397174D01*
X5776084Y52484379D01*
X5774814Y52487732D01*
X5679644Y52738928D01*
X5679641Y52738934D01*
X5678372Y52742284D01*
X5585226Y52909978D01*
X5546198Y52980243D01*
X5546195Y52980247D01*
X5544454Y52983382D01*
X5486081Y53059870D01*
X5379311Y53199772D01*
X5379310Y53199774D01*
X5377135Y53202623D01*
X5179920Y53395413D01*
X5177023Y53397522D01*
X5177019Y53397525D01*
X4959831Y53555611D01*
X4956939Y53557716D01*
X4953776Y53559380D01*
X4953773Y53559382D01*
X4716039Y53684459D01*
X4716040Y53684459D01*
X4712865Y53686129D01*
X4526569Y53751917D01*
X4456200Y53776767D01*
X4456198Y53776767D01*
X4452810Y53777964D01*
X4449288Y53778658D01*
X4449285Y53778659D01*
X4185748Y53830602D01*
X4182222Y53831297D01*
X3906769Y53845010D01*
X3903207Y53844670D01*
X3903201Y53844670D01*
X3635793Y53819156D01*
X3635789Y53819155D01*
X3632222Y53818815D01*
X3364332Y53753263D01*
X3108711Y53649726D01*
X3105618Y53647915D01*
X3105614Y53647913D01*
X2873809Y53512185D01*
X2870713Y53510372D01*
X2655325Y53338122D01*
X2641640Y53323472D01*
X2477322Y53147571D01*
X2467058Y53136584D01*
X2309856Y52909978D01*
X2308261Y52906773D01*
X2308258Y52906767D01*
X2188612Y52666269D01*
X2187013Y52663054D01*
X2185895Y52659643D01*
X2185894Y52659641D01*
X2125952Y52476788D01*
X2101101Y52400982D01*
X2053922Y52129254D01*
X2046462Y51853561D01*
X324533Y51853561D01*
X300006Y59031578D01*
X300021Y59031625D01*
X300006Y59031625D01*
X300001Y59033333D01*
X300000Y59035041D01*
X300000Y63283561D01*
X2046462Y63283561D01*
X2046883Y63280005D01*
X2046883Y63280003D01*
X2051211Y63243434D01*
X2078878Y63009679D01*
X2079808Y63006220D01*
X2079809Y63006215D01*
X2131337Y62814580D01*
X2150491Y62743345D01*
X2151913Y62740052D01*
X2151914Y62740048D01*
X2208080Y62609945D01*
X2259801Y62490138D01*
X2404518Y62255363D01*
X2406817Y62252618D01*
X2406818Y62252617D01*
X2538873Y62094961D01*
X2581610Y62043938D01*
X2634518Y61996716D01*
X2783279Y61863942D01*
X2787368Y61860292D01*
X3017482Y61708272D01*
X3020721Y61706751D01*
X3020725Y61706749D01*
X3070700Y61683286D01*
X3267130Y61591062D01*
X3531083Y61511119D01*
X3803812Y61470116D01*
X3807388Y61470100D01*
X3807393Y61470100D01*
X3953446Y61469463D01*
X4079603Y61468913D01*
X4186406Y61484018D01*
X4349125Y61507031D01*
X4349130Y61507032D01*
X4352679Y61507534D01*
X4617320Y61585171D01*
X4867982Y61700198D01*
X4984347Y61775622D01*
X5096396Y61848248D01*
X5096400Y61848251D01*
X5099413Y61850204D01*
X5102117Y61852575D01*
X5304071Y62029683D01*
X5304075Y62029687D01*
X5306766Y62032047D01*
X5485696Y62241919D01*
X5555147Y62352418D01*
X5630550Y62472387D01*
X5630553Y62472393D01*
X5632457Y62475422D01*
X5637615Y62487088D01*
X5742519Y62724379D01*
X5743972Y62727665D01*
X5783475Y62869627D01*
X5816945Y62989905D01*
X5816946Y62989912D01*
X5817907Y62993364D01*
X5851993Y63261302D01*
X5852400Y63264498D01*
X5852400Y63264504D01*
X5852712Y63266953D01*
X5853065Y63280003D01*
X5855434Y63367547D01*
X5855434Y63367554D01*
X5855500Y63370000D01*
X5835541Y63645071D01*
X5834457Y63649984D01*
X5804294Y63786603D01*
X5776084Y63914379D01*
X5774814Y63917732D01*
X5679644Y64168928D01*
X5679641Y64168934D01*
X5678372Y64172284D01*
X5585226Y64339978D01*
X5546198Y64410243D01*
X5546195Y64410247D01*
X5544454Y64413382D01*
X5533603Y64427601D01*
X5379311Y64629772D01*
X5379310Y64629774D01*
X5377135Y64632623D01*
X5179920Y64825413D01*
X5177023Y64827522D01*
X5177019Y64827525D01*
X4959831Y64985611D01*
X4956939Y64987716D01*
X4953776Y64989380D01*
X4953773Y64989382D01*
X4716039Y65114459D01*
X4716040Y65114459D01*
X4712865Y65116129D01*
X4526569Y65181917D01*
X4456200Y65206767D01*
X4456198Y65206767D01*
X4452810Y65207964D01*
X4449288Y65208658D01*
X4449285Y65208659D01*
X4185748Y65260602D01*
X4182222Y65261297D01*
X3906769Y65275010D01*
X3903207Y65274670D01*
X3903201Y65274670D01*
X3635793Y65249156D01*
X3635789Y65249155D01*
X3632222Y65248815D01*
X3364332Y65183263D01*
X3253237Y65138265D01*
X3137748Y65091487D01*
X3108711Y65079726D01*
X3105618Y65077915D01*
X3105614Y65077913D01*
X2939014Y64980364D01*
X2870713Y64940372D01*
X2655325Y64768122D01*
X2572011Y64678935D01*
X2479518Y64579922D01*
X2467058Y64566584D01*
X2309856Y64339978D01*
X2308261Y64336773D01*
X2308258Y64336767D01*
X2188612Y64096269D01*
X2187013Y64093054D01*
X2185895Y64089643D01*
X2185894Y64089641D01*
X2107172Y63849500D01*
X2101101Y63830982D01*
X2053922Y63559254D01*
X2046462Y63283561D01*
X300000Y63283561D01*
X300000Y69653561D01*
X2046462Y69653561D01*
X2078878Y69379679D01*
X2079808Y69376220D01*
X2079809Y69376215D01*
X2116574Y69239483D01*
X2150491Y69113345D01*
X2151913Y69110052D01*
X2151914Y69110048D01*
X2199422Y69000000D01*
X2259801Y68860138D01*
X2404518Y68625363D01*
X2406817Y68622618D01*
X2406818Y68622617D01*
X2551495Y68449892D01*
X2581610Y68413938D01*
X2787368Y68230292D01*
X3017482Y68078272D01*
X3020721Y68076751D01*
X3020725Y68076749D01*
X3037867Y68068701D01*
X3267130Y67961062D01*
X3531083Y67881119D01*
X3803812Y67840116D01*
X3807388Y67840100D01*
X3807393Y67840100D01*
X3953446Y67839463D01*
X4079603Y67838913D01*
X4186406Y67854018D01*
X4349125Y67877031D01*
X4349130Y67877032D01*
X4352679Y67877534D01*
X4617320Y67955171D01*
X4867982Y68070198D01*
X5016660Y68166566D01*
X5096396Y68218248D01*
X5096400Y68218251D01*
X5099413Y68220204D01*
X5102117Y68222575D01*
X5304071Y68399683D01*
X5304075Y68399687D01*
X5306766Y68402047D01*
X5485696Y68611919D01*
X5576137Y68755814D01*
X5630550Y68842387D01*
X5630553Y68842393D01*
X5632457Y68845422D01*
X5636337Y68854197D01*
X5700795Y69000000D01*
X5743972Y69097665D01*
X5786179Y69249344D01*
X5816945Y69359905D01*
X5816946Y69359912D01*
X5817907Y69363364D01*
X5844343Y69571165D01*
X5852400Y69634498D01*
X5852400Y69634504D01*
X5852712Y69636953D01*
X5853065Y69650003D01*
X5855434Y69737547D01*
X5855434Y69737554D01*
X5855500Y69740000D01*
X5835541Y70015071D01*
X5825978Y70058390D01*
X5804269Y70156715D01*
X5776084Y70284379D01*
X5773949Y70290015D01*
X5679644Y70538928D01*
X5679641Y70538934D01*
X5678372Y70542284D01*
X5585226Y70709978D01*
X5546198Y70780243D01*
X5546195Y70780247D01*
X5544454Y70783382D01*
X5520949Y70814182D01*
X5379311Y70999772D01*
X5379310Y70999774D01*
X5377135Y71002623D01*
X5179920Y71195413D01*
X5177023Y71197522D01*
X5177019Y71197525D01*
X4959831Y71355611D01*
X4956939Y71357716D01*
X4953776Y71359380D01*
X4953773Y71359382D01*
X4716039Y71484459D01*
X4716040Y71484459D01*
X4712865Y71486129D01*
X4526569Y71551917D01*
X4456200Y71576767D01*
X4456198Y71576767D01*
X4452810Y71577964D01*
X4449288Y71578658D01*
X4449285Y71578659D01*
X4185748Y71630602D01*
X4182222Y71631297D01*
X3906769Y71645010D01*
X3903207Y71644670D01*
X3903201Y71644670D01*
X3635793Y71619156D01*
X3635789Y71619155D01*
X3632222Y71618815D01*
X3364332Y71553263D01*
X3108711Y71449726D01*
X3105618Y71447915D01*
X3105614Y71447913D01*
X2873809Y71312185D01*
X2870713Y71310372D01*
X2655325Y71138122D01*
X2549406Y71024737D01*
X2512163Y70984868D01*
X2467058Y70936584D01*
X2309856Y70709978D01*
X2308261Y70706773D01*
X2308258Y70706767D01*
X2188612Y70466269D01*
X2187013Y70463054D01*
X2185895Y70459643D01*
X2185894Y70459641D01*
X2111156Y70231653D01*
X2101101Y70200982D01*
X2053922Y69929254D01*
X2046462Y69653561D01*
X300000Y69653561D01*
X300000Y81083561D01*
X2046462Y81083561D01*
X2046883Y81080005D01*
X2046883Y81080003D01*
X2052512Y81032445D01*
X2078878Y80809679D01*
X2079808Y80806220D01*
X2079809Y80806215D01*
X2136348Y80595942D01*
X2150491Y80543345D01*
X2151913Y80540052D01*
X2151914Y80540048D01*
X2222534Y80376464D01*
X2259801Y80290138D01*
X2404518Y80055363D01*
X2406817Y80052618D01*
X2406818Y80052617D01*
X2573927Y79853111D01*
X2581610Y79843938D01*
X2600260Y79827292D01*
X2783279Y79663942D01*
X2787368Y79660292D01*
X3017482Y79508272D01*
X3020721Y79506751D01*
X3020725Y79506749D01*
X3148106Y79446944D01*
X3267130Y79391062D01*
X3531083Y79311119D01*
X3803812Y79270116D01*
X3807388Y79270100D01*
X3807393Y79270100D01*
X3953446Y79269463D01*
X4079603Y79268913D01*
X4186406Y79284018D01*
X4349125Y79307031D01*
X4349130Y79307032D01*
X4352679Y79307534D01*
X4617320Y79385171D01*
X4867982Y79500198D01*
X5008824Y79591487D01*
X5096396Y79648248D01*
X5096400Y79648251D01*
X5099413Y79650204D01*
X5102117Y79652575D01*
X5304071Y79829683D01*
X5304075Y79829687D01*
X5306766Y79832047D01*
X5485696Y80041919D01*
X5585053Y80200000D01*
X5630550Y80272387D01*
X5630553Y80272393D01*
X5632457Y80275422D01*
X5637615Y80287088D01*
X5709166Y80448935D01*
X5743972Y80527665D01*
X5783714Y80670486D01*
X5816945Y80789905D01*
X5816946Y80789912D01*
X5817907Y80793364D01*
X5845169Y81007659D01*
X5852400Y81064498D01*
X5852400Y81064504D01*
X5852712Y81066953D01*
X5853065Y81080003D01*
X5855434Y81167547D01*
X5855434Y81167554D01*
X5855500Y81170000D01*
X5835541Y81445071D01*
X5814877Y81538670D01*
X5797305Y81618258D01*
X5776084Y81714379D01*
X5753445Y81774133D01*
X5679644Y81968928D01*
X5679641Y81968934D01*
X5678372Y81972284D01*
X5585226Y82139978D01*
X5546198Y82210243D01*
X5546195Y82210247D01*
X5544454Y82213382D01*
X5539156Y82220325D01*
X5379311Y82429772D01*
X5379310Y82429774D01*
X5377135Y82432623D01*
X5179920Y82625413D01*
X5177023Y82627522D01*
X5177019Y82627525D01*
X4959831Y82785611D01*
X4956939Y82787716D01*
X4953776Y82789380D01*
X4953773Y82789382D01*
X4716039Y82914459D01*
X4716040Y82914459D01*
X4712865Y82916129D01*
X4526569Y82981917D01*
X4456200Y83006767D01*
X4456198Y83006767D01*
X4452810Y83007964D01*
X4449288Y83008658D01*
X4449285Y83008659D01*
X4185748Y83060602D01*
X4182222Y83061297D01*
X3906769Y83075010D01*
X3903207Y83074670D01*
X3903201Y83074670D01*
X3635793Y83049156D01*
X3635789Y83049155D01*
X3632222Y83048815D01*
X3364332Y82983263D01*
X3361008Y82981917D01*
X3361009Y82981917D01*
X3129776Y82888258D01*
X3108711Y82879726D01*
X3105618Y82877915D01*
X3105614Y82877913D01*
X2873809Y82742185D01*
X2870713Y82740372D01*
X2655325Y82568122D01*
X2535362Y82439703D01*
X2486428Y82387319D01*
X2467058Y82366584D01*
X2309856Y82139978D01*
X2308261Y82136773D01*
X2308258Y82136767D01*
X2197141Y81913412D01*
X2187013Y81893054D01*
X2185895Y81889643D01*
X2185894Y81889641D01*
X2104139Y81640248D01*
X2101101Y81630982D01*
X2053922Y81359254D01*
X2046462Y81083561D01*
X300000Y81083561D01*
X300000Y87301446D01*
X300473Y87311114D01*
X304261Y87349721D01*
X318126Y87491014D01*
X321885Y87509981D01*
X372763Y87678352D01*
X380137Y87696226D01*
X462774Y87851500D01*
X473481Y87867599D01*
X584725Y88003846D01*
X598355Y88017555D01*
X733965Y88129581D01*
X749999Y88140377D01*
X904797Y88223905D01*
X922626Y88231381D01*
X1090703Y88283224D01*
X1109651Y88287092D01*
X1164235Y88292764D01*
X1289454Y88305777D01*
X1299113Y88306305D01*
X7511472Y88341941D01*
X10224932Y88357506D01*
X10283230Y88338933D01*
X10319478Y88289640D01*
X10324500Y88258508D01*
X10324500Y88077774D01*
X10305593Y88019583D01*
X10300105Y88012696D01*
X10299416Y88011906D01*
X10294074Y88007303D01*
X10216118Y87887033D01*
X10214097Y87880275D01*
X10214096Y87880273D01*
X10205491Y87851500D01*
X10175052Y87749718D01*
X10174500Y87742289D01*
X10174500Y87090086D01*
X10175000Y87086596D01*
X10175000Y87086593D01*
X10185421Y87013827D01*
X10189818Y86983123D01*
X10192736Y86976705D01*
X10192737Y86976702D01*
X10221716Y86912967D01*
X10249140Y86852651D01*
X10342697Y86744074D01*
X10462967Y86666118D01*
X10469725Y86664097D01*
X10469727Y86664096D01*
X10518579Y86649486D01*
X10600282Y86625052D01*
X10607711Y86624500D01*
X11109914Y86624500D01*
X11113404Y86625000D01*
X11113407Y86625000D01*
X11209894Y86638818D01*
X11216877Y86639818D01*
X11223295Y86642736D01*
X11223298Y86642737D01*
X11340927Y86696220D01*
X11340928Y86696220D01*
X11347349Y86699140D01*
X11455926Y86792697D01*
X11533882Y86912967D01*
X11537252Y86924233D01*
X11555283Y86984527D01*
X11574948Y87050282D01*
X11575500Y87057711D01*
X11575500Y87709914D01*
X11569064Y87754859D01*
X11561182Y87809894D01*
X11560182Y87816877D01*
X11538757Y87864000D01*
X11503780Y87940927D01*
X11503780Y87940928D01*
X11500860Y87947349D01*
X11407303Y88055926D01*
X11330821Y88105500D01*
X11292950Y88130047D01*
X11292949Y88130048D01*
X11287033Y88133882D01*
X11282273Y88135306D01*
X11238080Y88176230D01*
X11225500Y88224526D01*
X11225500Y88264813D01*
X11244407Y88323004D01*
X11293907Y88358968D01*
X11323927Y88363810D01*
X12251996Y88369134D01*
X12310294Y88350561D01*
X12346542Y88301268D01*
X12346893Y88240084D01*
X12311213Y88190378D01*
X12266599Y88172136D01*
X12183123Y88160182D01*
X12176705Y88157264D01*
X12176702Y88157263D01*
X12062856Y88105500D01*
X12052651Y88100860D01*
X11944074Y88007303D01*
X11866118Y87887033D01*
X11864097Y87880275D01*
X11864096Y87880273D01*
X11855491Y87851500D01*
X11825052Y87749718D01*
X11824500Y87742289D01*
X11824500Y87090086D01*
X11825000Y87086596D01*
X11825000Y87086593D01*
X11835421Y87013827D01*
X11839818Y86983123D01*
X11842736Y86976705D01*
X11842737Y86976702D01*
X11871716Y86912967D01*
X11899140Y86852651D01*
X11992697Y86744074D01*
X12112967Y86666118D01*
X12119725Y86664097D01*
X12119727Y86664096D01*
X12168579Y86649486D01*
X12250282Y86625052D01*
X12257711Y86624500D01*
X12759914Y86624500D01*
X12763404Y86625000D01*
X12763407Y86625000D01*
X12859894Y86638818D01*
X12866877Y86639818D01*
X12873295Y86642736D01*
X12873298Y86642737D01*
X12990927Y86696220D01*
X12990928Y86696220D01*
X12997349Y86699140D01*
X13105926Y86792697D01*
X13147975Y86857570D01*
X13195491Y86896117D01*
X13243972Y86901876D01*
X13293566Y86895347D01*
X13300000Y86894500D01*
X13312283Y86896117D01*
X13356026Y86901876D01*
X13456715Y86915132D01*
X13478622Y86924206D01*
X13527369Y86944398D01*
X13602750Y86975622D01*
X13728153Y87071847D01*
X13824378Y87197250D01*
X13884868Y87343285D01*
X13905500Y87500000D01*
X13884868Y87656715D01*
X13824378Y87802750D01*
X13728153Y87928153D01*
X13602750Y88024378D01*
X13456715Y88084868D01*
X13300000Y88105500D01*
X13143285Y88084868D01*
X13111654Y88071766D01*
X13050659Y88066965D01*
X13019926Y88080153D01*
X12937033Y88133882D01*
X12930275Y88135903D01*
X12930273Y88135904D01*
X12804859Y88173411D01*
X12804855Y88173412D01*
X12799718Y88174948D01*
X12794370Y88175345D01*
X12790983Y88175970D01*
X12737187Y88205119D01*
X12710799Y88260322D01*
X12721898Y88320492D01*
X12766244Y88362647D01*
X12808371Y88372325D01*
X17910293Y88401592D01*
X18665377Y88405923D01*
X18723675Y88387350D01*
X18748283Y88360744D01*
X18748941Y88359224D01*
X18842763Y88243364D01*
X18848262Y88239456D01*
X18958405Y88161182D01*
X18964285Y88157003D01*
X18970630Y88154719D01*
X18970633Y88154717D01*
X19098938Y88108524D01*
X19098940Y88108524D01*
X19104555Y88106502D01*
X19110490Y88105878D01*
X19110491Y88105878D01*
X19122148Y88104653D01*
X19171177Y88099500D01*
X19742751Y88099500D01*
X19746094Y88099958D01*
X19746095Y88099958D01*
X19759984Y88101861D01*
X19853954Y88114733D01*
X19860140Y88117410D01*
X19860144Y88117411D01*
X19952235Y88157263D01*
X19990776Y88173941D01*
X20106636Y88267763D01*
X20130447Y88301268D01*
X20181731Y88373432D01*
X20230852Y88409912D01*
X20261861Y88415081D01*
X20262529Y88415085D01*
X20533888Y88416641D01*
X20592184Y88398069D01*
X20619136Y88368928D01*
X20621258Y88365425D01*
X20623941Y88359224D01*
X20717763Y88243364D01*
X20723262Y88239456D01*
X20833405Y88161182D01*
X20839285Y88157003D01*
X20845630Y88154719D01*
X20845633Y88154717D01*
X20973938Y88108524D01*
X20973940Y88108524D01*
X20979555Y88106502D01*
X20985490Y88105878D01*
X20985491Y88105878D01*
X20997148Y88104653D01*
X21046177Y88099500D01*
X21617751Y88099500D01*
X21621094Y88099958D01*
X21621095Y88099958D01*
X21634984Y88101861D01*
X21728954Y88114733D01*
X21735140Y88117410D01*
X21735144Y88117411D01*
X21827235Y88157263D01*
X21865776Y88173941D01*
X21981636Y88267763D01*
X22064406Y88384231D01*
X22113526Y88420711D01*
X22144535Y88425880D01*
X28758036Y88463818D01*
X31394592Y88478942D01*
X31404393Y88478512D01*
G37*
%TD.AperFunction*%
%TA.AperFunction,Conductor*%
G36*
X59401431Y105785648D02*
G01*
X59415773Y105750060D01*
X59411342Y105519623D01*
X59408649Y105379622D01*
X59393634Y105345256D01*
X59389488Y105341690D01*
X59376614Y105331811D01*
X59371847Y105328153D01*
X59275622Y105202750D01*
X59274395Y105199787D01*
X59274393Y105199784D01*
X59216360Y105059681D01*
X59216359Y105059677D01*
X59215132Y105056715D01*
X59214713Y105053534D01*
X59214713Y105053533D01*
X59204547Y104976312D01*
X59194500Y104900000D01*
X59215132Y104743285D01*
X59216359Y104740323D01*
X59216360Y104740319D01*
X59274393Y104600216D01*
X59275622Y104597250D01*
X59371847Y104471847D01*
X59497250Y104375622D01*
X59500213Y104374395D01*
X59500216Y104374393D01*
X59640319Y104316360D01*
X59640323Y104316359D01*
X59643285Y104315132D01*
X59646466Y104314713D01*
X59646467Y104314713D01*
X59796817Y104294919D01*
X59800000Y104294500D01*
X59803183Y104294919D01*
X59953533Y104314713D01*
X59953534Y104314713D01*
X59956715Y104315132D01*
X59959677Y104316359D01*
X59959681Y104316360D01*
X60099784Y104374393D01*
X60099787Y104374395D01*
X60102750Y104375622D01*
X60228153Y104471847D01*
X60324378Y104597250D01*
X60325607Y104600216D01*
X60383640Y104740319D01*
X60383641Y104740323D01*
X60384868Y104743285D01*
X60405500Y104900000D01*
X60395453Y104976312D01*
X60385287Y105053533D01*
X60385287Y105053534D01*
X60384868Y105056715D01*
X60383641Y105059677D01*
X60383640Y105059681D01*
X60325607Y105199784D01*
X60325605Y105199787D01*
X60324378Y105202750D01*
X60251866Y105297250D01*
X60230108Y105325606D01*
X60230105Y105325609D01*
X60228153Y105328153D01*
X60225609Y105330105D01*
X60223903Y105331811D01*
X60209562Y105367400D01*
X60209712Y105375155D01*
X60211780Y105482688D01*
X60226796Y105517053D01*
X60261714Y105530736D01*
X60291856Y105519623D01*
X60303376Y105510169D01*
X60310169Y105503376D01*
X60428410Y105359298D01*
X60433746Y105351311D01*
X60521604Y105186940D01*
X60525280Y105178066D01*
X60579384Y104999708D01*
X60581258Y104990287D01*
X60599764Y104802396D01*
X60600000Y104797593D01*
X60600000Y99300000D01*
X61611233Y99311362D01*
X61611235Y99311362D01*
X68443247Y99388126D01*
X68448214Y99387930D01*
X68465743Y99386344D01*
X68642562Y99370344D01*
X68652299Y99368454D01*
X68836718Y99312777D01*
X68845877Y99308961D01*
X69015281Y99217258D01*
X69023487Y99211673D01*
X69170937Y99087698D01*
X69177841Y99080580D01*
X69278189Y98953584D01*
X69297268Y98929438D01*
X69302603Y98921065D01*
X69389117Y98748947D01*
X69392654Y98739670D01*
X69442696Y98553650D01*
X69444290Y98543851D01*
X69455959Y98349079D01*
X69456005Y98344109D01*
X69440029Y97960701D01*
X69439610Y97956039D01*
X69429154Y97880313D01*
X69415263Y97852367D01*
X69127748Y97564852D01*
X69093100Y97550500D01*
X64816423Y97550500D01*
X64810664Y97550840D01*
X64773192Y97555275D01*
X64769589Y97554617D01*
X64714277Y97544516D01*
X64712759Y97544264D01*
X64657736Y97535991D01*
X64653565Y97535364D01*
X64650264Y97533779D01*
X64646896Y97532743D01*
X64643557Y97531600D01*
X64639955Y97530942D01*
X64636704Y97529254D01*
X64636703Y97529253D01*
X64623553Y97522422D01*
X64586804Y97503332D01*
X64585453Y97502658D01*
X64564308Y97492504D01*
X64534773Y97478321D01*
X64534771Y97478320D01*
X64531471Y97476735D01*
X64528782Y97474249D01*
X64525752Y97472190D01*
X64525560Y97472472D01*
X64524367Y97471634D01*
X64524556Y97471354D01*
X64522240Y97469793D01*
X64519764Y97468507D01*
X64513871Y97463475D01*
X64474758Y97424362D01*
X64473371Y97423028D01*
X64434705Y97387286D01*
X64434704Y97387284D01*
X64432014Y97384798D01*
X64430175Y97381631D01*
X64427883Y97378771D01*
X64427811Y97378829D01*
X64423089Y97372693D01*
X64320572Y97270176D01*
X64285924Y97255824D01*
X64251276Y97270176D01*
X64240087Y97287503D01*
X64226261Y97324092D01*
X64225217Y97326855D01*
X64129203Y97466556D01*
X64126998Y97468521D01*
X64126995Y97468524D01*
X64004848Y97577352D01*
X64002638Y97579321D01*
X63852829Y97658641D01*
X63688423Y97699937D01*
X63601470Y97700392D01*
X63521865Y97700809D01*
X63521861Y97700809D01*
X63518912Y97700824D01*
X63516043Y97700135D01*
X63516041Y97700135D01*
X63356956Y97661942D01*
X63354082Y97661252D01*
X63351454Y97659896D01*
X63351455Y97659896D01*
X63206091Y97584868D01*
X63203450Y97583505D01*
X63075711Y97472072D01*
X63074013Y97469657D01*
X63074012Y97469655D01*
X63044844Y97428153D01*
X62978240Y97333385D01*
X62977169Y97330637D01*
X62977167Y97330634D01*
X62953030Y97268724D01*
X62927073Y97241656D01*
X62889578Y97240870D01*
X62872729Y97251875D01*
X62826503Y97298101D01*
X62822679Y97302403D01*
X62799311Y97332045D01*
X62795408Y97334743D01*
X62765762Y97355232D01*
X62750075Y97366074D01*
X62748829Y97366964D01*
X62741073Y97372693D01*
X62730985Y97380144D01*
X62703587Y97400380D01*
X62703586Y97400380D01*
X62700642Y97402555D01*
X62697185Y97403769D01*
X62694075Y97405415D01*
X62690909Y97406966D01*
X62687892Y97409052D01*
X62684398Y97410157D01*
X62684396Y97410158D01*
X62630791Y97427111D01*
X62629372Y97427584D01*
X62572852Y97447432D01*
X62569192Y97447576D01*
X62565593Y97448262D01*
X62565658Y97448601D01*
X62564226Y97448850D01*
X62564161Y97448515D01*
X62561421Y97449049D01*
X62558756Y97449892D01*
X62551031Y97450500D01*
X62495718Y97450500D01*
X62493794Y97450538D01*
X62490314Y97450675D01*
X62437516Y97452749D01*
X62433973Y97451810D01*
X62430336Y97451408D01*
X62430326Y97451500D01*
X62422650Y97450500D01*
X59515662Y97450500D01*
X59485833Y97460626D01*
X59483015Y97462789D01*
X59402750Y97524378D01*
X59399787Y97525605D01*
X59399784Y97525607D01*
X59259681Y97583640D01*
X59259677Y97583641D01*
X59256715Y97584868D01*
X59253534Y97585287D01*
X59253533Y97585287D01*
X59103183Y97605081D01*
X59100000Y97605500D01*
X59096817Y97605081D01*
X58946467Y97585287D01*
X58946466Y97585287D01*
X58943285Y97584868D01*
X58940323Y97583641D01*
X58940319Y97583640D01*
X58800216Y97525607D01*
X58800213Y97525605D01*
X58797250Y97524378D01*
X58764823Y97499496D01*
X58702154Y97451408D01*
X58671847Y97428153D01*
X58669891Y97425604D01*
X58654040Y97404946D01*
X58575622Y97302750D01*
X58574395Y97299787D01*
X58574393Y97299784D01*
X58516360Y97159681D01*
X58516359Y97159677D01*
X58515132Y97156715D01*
X58514713Y97153534D01*
X58514713Y97153533D01*
X58500109Y97042604D01*
X58481357Y97010126D01*
X58451528Y97000000D01*
X56500000Y97000000D01*
X56485510Y96014708D01*
X56485510Y96014704D01*
X56459710Y94260287D01*
X56427861Y92094582D01*
X56413001Y92060149D01*
X56408696Y92056429D01*
X56389276Y92041527D01*
X56371847Y92028153D01*
X56275622Y91902750D01*
X56274395Y91899787D01*
X56274393Y91899784D01*
X56216360Y91759681D01*
X56216359Y91759677D01*
X56215132Y91756715D01*
X56194500Y91600000D01*
X56215132Y91443285D01*
X56216359Y91440323D01*
X56216360Y91440319D01*
X56233061Y91400000D01*
X56275622Y91297250D01*
X56326063Y91231515D01*
X56335769Y91195291D01*
X56317017Y91162813D01*
X56271847Y91128153D01*
X56175622Y91002750D01*
X56174395Y90999787D01*
X56174393Y90999784D01*
X56116360Y90859681D01*
X56116359Y90859677D01*
X56115132Y90856715D01*
X56094500Y90700000D01*
X56115132Y90543285D01*
X56116360Y90540320D01*
X56116361Y90540317D01*
X56119702Y90532251D01*
X56119702Y90494748D01*
X56105347Y90475484D01*
X55971042Y90366265D01*
X55963130Y90361016D01*
X55800460Y90274526D01*
X55791684Y90270902D01*
X55615391Y90217410D01*
X55606081Y90215546D01*
X55420399Y90196818D01*
X55415653Y90196571D01*
X33285597Y90119462D01*
X33250778Y90133814D01*
X33221284Y90163308D01*
X33221263Y90163332D01*
X33221256Y90163347D01*
X33131547Y90253056D01*
X33128110Y90254807D01*
X33128106Y90254810D01*
X33106549Y90265794D01*
X33099992Y90269811D01*
X33080411Y90284038D01*
X33080409Y90284039D01*
X33077293Y90286303D01*
X33050605Y90294974D01*
X33043506Y90297915D01*
X33018506Y90310653D01*
X32990790Y90315043D01*
X32983316Y90316838D01*
X32960303Y90324315D01*
X32956634Y90325507D01*
X32829766Y90325507D01*
X32829751Y90325502D01*
X32829721Y90325500D01*
X28096817Y90325500D01*
X28065807Y90336561D01*
X27997866Y90392096D01*
X27991053Y90398886D01*
X27881262Y90532251D01*
X27872329Y90543102D01*
X27866973Y90551095D01*
X27778736Y90715744D01*
X27775048Y90724626D01*
X27720707Y90903346D01*
X27718825Y90912786D01*
X27700237Y91101089D01*
X27700000Y91105903D01*
X27700000Y92404932D01*
X27700234Y92409712D01*
X27702905Y92436965D01*
X27704423Y92452449D01*
X27722086Y92485531D01*
X27757969Y92496434D01*
X27783018Y92486543D01*
X27797250Y92475622D01*
X27800213Y92474395D01*
X27800216Y92474393D01*
X27940319Y92416360D01*
X27940323Y92416359D01*
X27943285Y92415132D01*
X27946466Y92414713D01*
X27946467Y92414713D01*
X28096817Y92394919D01*
X28100000Y92394500D01*
X28103183Y92394919D01*
X28253533Y92414713D01*
X28253534Y92414713D01*
X28256715Y92415132D01*
X28259677Y92416359D01*
X28259681Y92416360D01*
X28399784Y92474393D01*
X28399787Y92474395D01*
X28402750Y92475622D01*
X28528153Y92571847D01*
X28554835Y92606619D01*
X28613076Y92682521D01*
X28624378Y92697250D01*
X28625607Y92700216D01*
X28683640Y92840319D01*
X28683641Y92840323D01*
X28684868Y92843285D01*
X28693199Y92906561D01*
X28705081Y92996817D01*
X28705500Y93000000D01*
X28697754Y93058840D01*
X28685287Y93153533D01*
X28685287Y93153534D01*
X28684868Y93156715D01*
X28683641Y93159677D01*
X28683640Y93159681D01*
X28635270Y93276454D01*
X28635270Y93313957D01*
X28649703Y93333286D01*
X28713412Y93384876D01*
X28715347Y93387599D01*
X28717633Y93390033D01*
X28718434Y93389281D01*
X28746791Y93407069D01*
X28754602Y93407754D01*
X28937861Y93409102D01*
X29047018Y93409905D01*
X29081769Y93395808D01*
X29085456Y93391744D01*
X29109876Y93361588D01*
X29225867Y93279158D01*
X29229007Y93278027D01*
X29229010Y93278026D01*
X29266203Y93264636D01*
X29359752Y93230956D01*
X29362688Y93230647D01*
X29362690Y93230647D01*
X29419910Y93224633D01*
X29419915Y93224633D01*
X29421178Y93224500D01*
X29942751Y93224500D01*
X29944398Y93224726D01*
X29944404Y93224726D01*
X29997196Y93231958D01*
X30047231Y93238812D01*
X30057568Y93243285D01*
X30174760Y93293998D01*
X30174761Y93293999D01*
X30177826Y93295325D01*
X30201113Y93314182D01*
X30241948Y93347250D01*
X30288412Y93384876D01*
X30298295Y93398783D01*
X30330066Y93418711D01*
X30337876Y93419396D01*
X30526050Y93420780D01*
X31060033Y93424706D01*
X31094783Y93410610D01*
X31098471Y93406544D01*
X31122601Y93376746D01*
X31134876Y93361588D01*
X31250867Y93279158D01*
X31254007Y93278027D01*
X31254010Y93278026D01*
X31291203Y93264636D01*
X31384752Y93230956D01*
X31387688Y93230647D01*
X31387690Y93230647D01*
X31444910Y93224633D01*
X31444915Y93224633D01*
X31446178Y93224500D01*
X31967751Y93224500D01*
X31969398Y93224726D01*
X31969404Y93224726D01*
X32022196Y93231958D01*
X32072231Y93238812D01*
X32082568Y93243285D01*
X32199760Y93293998D01*
X32199761Y93293999D01*
X32202826Y93295325D01*
X32225835Y93313957D01*
X32310812Y93382770D01*
X32310817Y93382775D01*
X32313412Y93384876D01*
X32333932Y93413751D01*
X32365700Y93433679D01*
X32373512Y93434364D01*
X41296568Y93499975D01*
X45750446Y93532724D01*
X45785199Y93518627D01*
X45799806Y93483553D01*
X45799705Y93454745D01*
X45799319Y93448777D01*
X45796279Y93424706D01*
X45794579Y93411247D01*
X45794846Y93408524D01*
X45794846Y93408523D01*
X45799140Y93364726D01*
X45799374Y93359774D01*
X45799307Y93340493D01*
X45799211Y93313006D01*
X45799808Y93310335D01*
X45807464Y93276080D01*
X45808410Y93270174D01*
X45808647Y93267761D01*
X45812102Y93232527D01*
X45822634Y93200867D01*
X45826858Y93188169D01*
X45828183Y93183392D01*
X45838384Y93137755D01*
X45839556Y93135287D01*
X45839558Y93135281D01*
X45854614Y93103573D01*
X45856845Y93098023D01*
X45868785Y93062131D01*
X45893015Y93022122D01*
X45895352Y93017780D01*
X45915411Y92975537D01*
X45917102Y92973388D01*
X45917104Y92973385D01*
X45938805Y92945808D01*
X45942210Y92940890D01*
X45960389Y92910875D01*
X45960392Y92910872D01*
X45961811Y92908528D01*
X45994295Y92874891D01*
X45997548Y92871161D01*
X46001202Y92866518D01*
X46026464Y92834416D01*
X46028593Y92832692D01*
X46028594Y92832691D01*
X46055863Y92810609D01*
X46060274Y92806567D01*
X46086555Y92779352D01*
X46088843Y92777854D01*
X46088844Y92777854D01*
X46125673Y92753753D01*
X46129678Y92750832D01*
X46163889Y92723129D01*
X46163893Y92723127D01*
X46166020Y92721404D01*
X46168473Y92720197D01*
X46199971Y92704698D01*
X46205165Y92701735D01*
X46236818Y92681022D01*
X46266851Y92669853D01*
X46280642Y92664724D01*
X46285195Y92662763D01*
X46324684Y92643332D01*
X46324691Y92643329D01*
X46327147Y92642121D01*
X46363950Y92633353D01*
X46369666Y92631616D01*
X46405132Y92618427D01*
X46407841Y92618066D01*
X46407843Y92618065D01*
X46428628Y92615292D01*
X46451484Y92612242D01*
X46456349Y92611340D01*
X46474096Y92607112D01*
X46499167Y92601139D01*
X46499170Y92601139D01*
X46501834Y92600504D01*
X46504575Y92600475D01*
X46504577Y92600475D01*
X46539664Y92600107D01*
X46545630Y92599680D01*
X46565770Y92596993D01*
X46583131Y92594677D01*
X46585856Y92594925D01*
X46585858Y92594925D01*
X46629687Y92598914D01*
X46634641Y92599113D01*
X46681401Y92598623D01*
X46684078Y92599202D01*
X46684080Y92599202D01*
X46694669Y92601492D01*
X46718390Y92606620D01*
X46724291Y92607523D01*
X46741154Y92609058D01*
X46759236Y92610703D01*
X46759239Y92610704D01*
X46761968Y92610952D01*
X46806440Y92625402D01*
X46811221Y92626691D01*
X46838824Y92632659D01*
X46854245Y92635993D01*
X46854247Y92635994D01*
X46856922Y92636572D01*
X46859398Y92637727D01*
X46859402Y92637728D01*
X46891212Y92652562D01*
X46896780Y92654755D01*
X46930146Y92665596D01*
X46932756Y92666444D01*
X46972926Y92690390D01*
X46977297Y92692704D01*
X47017190Y92711306D01*
X47017195Y92711309D01*
X47019674Y92712465D01*
X47021834Y92714141D01*
X47021838Y92714143D01*
X47049565Y92735651D01*
X47054507Y92739022D01*
X47084652Y92756992D01*
X47084654Y92756994D01*
X47087005Y92758395D01*
X47120871Y92790644D01*
X47124619Y92793869D01*
X47130541Y92798463D01*
X47159282Y92827204D01*
X47160139Y92828040D01*
X47215065Y92880345D01*
X47215068Y92880348D01*
X47217049Y92882235D01*
X47218562Y92884512D01*
X47218566Y92884517D01*
X47219761Y92886316D01*
X47225926Y92893848D01*
X47742226Y93410148D01*
X47776874Y93424500D01*
X48861501Y93424500D01*
X48863148Y93424726D01*
X48863154Y93424726D01*
X48928510Y93433679D01*
X48974385Y93439963D01*
X49001621Y93451749D01*
X49109698Y93498518D01*
X49109699Y93498519D01*
X49112764Y93499845D01*
X49171220Y93547182D01*
X49201696Y93558101D01*
X51768998Y93576978D01*
X51797742Y93567920D01*
X51883033Y93507307D01*
X51912630Y93486274D01*
X51917639Y93482714D01*
X51920779Y93481583D01*
X51920782Y93481582D01*
X51991249Y93456213D01*
X52059505Y93431639D01*
X52062441Y93431330D01*
X52062443Y93431330D01*
X52118122Y93425478D01*
X52151080Y93407583D01*
X52162000Y93376746D01*
X52162000Y93140057D01*
X52161997Y93139544D01*
X52161123Y93056099D01*
X52161702Y93053423D01*
X52161702Y93053419D01*
X52171003Y93010402D01*
X52171805Y93005509D01*
X52175581Y92971847D01*
X52177017Y92959043D01*
X52186798Y92930956D01*
X52189458Y92923318D01*
X52191076Y92917559D01*
X52193029Y92908528D01*
X52199072Y92880578D01*
X52200231Y92878093D01*
X52218834Y92838198D01*
X52220699Y92833605D01*
X52235065Y92792353D01*
X52236074Y92789455D01*
X52237523Y92787136D01*
X52237525Y92787132D01*
X52256120Y92757375D01*
X52258975Y92752117D01*
X52274965Y92717826D01*
X52276640Y92715667D01*
X52276644Y92715660D01*
X52303627Y92680874D01*
X52306463Y92676808D01*
X52320823Y92653828D01*
X52331235Y92637165D01*
X52333164Y92635223D01*
X52333166Y92635220D01*
X52358970Y92609236D01*
X52360299Y92607815D01*
X52360963Y92606959D01*
X52399502Y92568420D01*
X52437077Y92530581D01*
X52437519Y92530129D01*
X52486555Y92479352D01*
X52488852Y92477849D01*
X52488853Y92477848D01*
X52528164Y92452123D01*
X52531899Y92449420D01*
X52570768Y92418391D01*
X52573230Y92417201D01*
X52573233Y92417199D01*
X52602153Y92403219D01*
X52607658Y92400104D01*
X52620183Y92391908D01*
X52636818Y92381022D01*
X52672254Y92367844D01*
X52683429Y92363688D01*
X52687659Y92361884D01*
X52732444Y92340234D01*
X52766407Y92332393D01*
X52772462Y92330577D01*
X52805132Y92318427D01*
X52807843Y92318065D01*
X52807844Y92318065D01*
X52833490Y92314643D01*
X52854427Y92311850D01*
X52858962Y92311025D01*
X52887312Y92304480D01*
X52904750Y92300454D01*
X52904752Y92300454D01*
X52907419Y92299838D01*
X52910153Y92299828D01*
X52910157Y92299828D01*
X52942277Y92299716D01*
X52948586Y92299286D01*
X52949358Y92299183D01*
X52983131Y92294677D01*
X52985856Y92294925D01*
X52985858Y92294925D01*
X53022287Y92298241D01*
X53032642Y92299183D01*
X53037252Y92299385D01*
X53086994Y92299211D01*
X53089664Y92299808D01*
X53089666Y92299808D01*
X53121017Y92306815D01*
X53127263Y92307793D01*
X53159236Y92310703D01*
X53159239Y92310704D01*
X53161968Y92310952D01*
X53209269Y92326321D01*
X53213702Y92327533D01*
X53262245Y92338384D01*
X53293741Y92353340D01*
X53299602Y92355672D01*
X53332756Y92366444D01*
X53375473Y92391909D01*
X53379545Y92394083D01*
X53380424Y92394500D01*
X53424463Y92415411D01*
X53451853Y92436965D01*
X53457065Y92440547D01*
X53484653Y92456993D01*
X53487005Y92458395D01*
X53523025Y92492697D01*
X53526513Y92495718D01*
X53531955Y92500000D01*
X53565584Y92526464D01*
X53568918Y92530581D01*
X53587519Y92553551D01*
X53591802Y92558193D01*
X53617049Y92582235D01*
X53644574Y92623664D01*
X53647292Y92627364D01*
X53678596Y92666020D01*
X53693988Y92697302D01*
X53697141Y92702783D01*
X53714910Y92729527D01*
X53714912Y92729530D01*
X53716425Y92731808D01*
X53717396Y92734364D01*
X53717398Y92734368D01*
X53734084Y92778297D01*
X53735926Y92782532D01*
X53756667Y92824681D01*
X53756671Y92824692D01*
X53757879Y92827147D01*
X53765955Y92861045D01*
X53767814Y92867089D01*
X53774434Y92884517D01*
X53780194Y92899680D01*
X53787116Y92948929D01*
X53787972Y92953463D01*
X53788686Y92956457D01*
X53799496Y93001834D01*
X53799535Y93005509D01*
X53799861Y93036685D01*
X53800335Y93042991D01*
X53804971Y93075975D01*
X53804972Y93075984D01*
X53805186Y93077509D01*
X53805500Y93100000D01*
X53801282Y93137607D01*
X53800980Y93143574D01*
X53801085Y93153533D01*
X53801377Y93181401D01*
X53797169Y93200867D01*
X53791497Y93227098D01*
X53790695Y93231991D01*
X53785789Y93275733D01*
X53785788Y93275737D01*
X53785483Y93278457D01*
X53773041Y93314184D01*
X53771424Y93319940D01*
X53764107Y93353780D01*
X53763000Y93364136D01*
X53763000Y93378535D01*
X53777352Y93413183D01*
X53805350Y93427082D01*
X53899385Y93439963D01*
X53926621Y93451749D01*
X54034698Y93498518D01*
X54034699Y93498519D01*
X54037764Y93499845D01*
X54154678Y93594520D01*
X54900000Y93600000D01*
X54904568Y94157285D01*
X54930149Y94165597D01*
X54932756Y94166444D01*
X54935109Y94167847D01*
X54935114Y94167849D01*
X54935769Y94168240D01*
X54944734Y94172421D01*
X54945460Y94172674D01*
X54945459Y94172674D01*
X54948045Y94173574D01*
X54950364Y94175023D01*
X54950368Y94175025D01*
X55016620Y94216424D01*
X55017496Y94216959D01*
X55084652Y94256992D01*
X55084654Y94256993D01*
X55087005Y94258395D01*
X55088987Y94260283D01*
X55088993Y94260287D01*
X55089541Y94260809D01*
X55097365Y94266878D01*
X55098009Y94267281D01*
X55098012Y94267283D01*
X55100335Y94268735D01*
X55157748Y94325749D01*
X55158463Y94326445D01*
X55199211Y94365248D01*
X55217049Y94382235D01*
X55218988Y94385153D01*
X55225270Y94392801D01*
X55225815Y94393342D01*
X55225816Y94393343D01*
X55227757Y94395271D01*
X55271119Y94463598D01*
X55271678Y94464458D01*
X55314910Y94529527D01*
X55314912Y94529530D01*
X55316425Y94531808D01*
X55317396Y94534364D01*
X55317399Y94534370D01*
X55317669Y94535081D01*
X55322103Y94543936D01*
X55322512Y94544580D01*
X55322513Y94544582D01*
X55323979Y94546892D01*
X55328544Y94559710D01*
X55351127Y94623133D01*
X55351482Y94624096D01*
X55379220Y94697116D01*
X55380194Y94699680D01*
X55380682Y94703150D01*
X55383042Y94712761D01*
X55384218Y94716063D01*
X55385862Y94729845D01*
X55393793Y94796365D01*
X55393925Y94797382D01*
X55404970Y94875974D01*
X55405186Y94877509D01*
X55405414Y94893821D01*
X55405480Y94894377D01*
X55405428Y94894868D01*
X55405500Y94900000D01*
X55395820Y94986297D01*
X55395786Y94986614D01*
X55393125Y95011933D01*
X55386710Y95072969D01*
X55385831Y95075550D01*
X55385790Y95075735D01*
X55385786Y95075751D01*
X55385483Y95078457D01*
X55356876Y95160605D01*
X55328838Y95242965D01*
X55327408Y95245288D01*
X55327323Y95245469D01*
X55326426Y95248045D01*
X55280400Y95321703D01*
X55280266Y95321919D01*
X55236179Y95393581D01*
X55236178Y95393582D01*
X55234743Y95395915D01*
X55232835Y95397864D01*
X55232709Y95398023D01*
X55231265Y95400335D01*
X55169979Y95462050D01*
X55109100Y95524218D01*
X55106805Y95525697D01*
X55106653Y95525820D01*
X55104729Y95527757D01*
X55073281Y95547715D01*
X55031463Y95574254D01*
X55031176Y95574438D01*
X54960460Y95620010D01*
X54960459Y95620010D01*
X54958154Y95621496D01*
X54955589Y95622429D01*
X54955415Y95622514D01*
X54953108Y95623979D01*
X54949544Y95625248D01*
X54949232Y95625530D01*
X54948061Y95626101D01*
X54948226Y95626439D01*
X54921717Y95650390D01*
X54916982Y95671811D01*
X54931569Y97451408D01*
X54991850Y104805801D01*
X54992122Y104810571D01*
X55011969Y104997349D01*
X55013901Y105006707D01*
X55030357Y105059681D01*
X55068903Y105183771D01*
X55072614Y105192577D01*
X55160936Y105355599D01*
X55166285Y105363517D01*
X55284573Y105506304D01*
X55291358Y105513033D01*
X55435104Y105630141D01*
X55443065Y105635425D01*
X55606806Y105722409D01*
X55615642Y105726048D01*
X55793154Y105779598D01*
X55802527Y105781453D01*
X55989459Y105799767D01*
X55994237Y105800000D01*
X59366783Y105800000D01*
X59401431Y105785648D01*
G37*
%TD.AperFunction*%
M02*
