%TF.GenerationSoftware,KiCad,Pcbnew,8.0.8-8.0.8-0~ubuntu24.04.1*%
%TF.CreationDate,2025-03-05T09:14:19+01:00*%
%TF.ProjectId,UniMixFeeders,556e694d-6978-4466-9565-646572732e6b,rev?*%
%TF.SameCoordinates,Original*%
%TF.FileFunction,Soldermask,Bot*%
%TF.FilePolarity,Negative*%
%FSLAX46Y46*%
G04 Gerber Fmt 4.6, Leading zero omitted, Abs format (unit mm)*
G04 Created by KiCad (PCBNEW 8.0.8-8.0.8-0~ubuntu24.04.1) date 2025-03-05 09:14:19*
%MOMM*%
%LPD*%
G01*
G04 APERTURE LIST*
G04 Aperture macros list*
%AMRoundRect*
0 Rectangle with rounded corners*
0 $1 Rounding radius*
0 $2 $3 $4 $5 $6 $7 $8 $9 X,Y pos of 4 corners*
0 Add a 4 corners polygon primitive as box body*
4,1,4,$2,$3,$4,$5,$6,$7,$8,$9,$2,$3,0*
0 Add four circle primitives for the rounded corners*
1,1,$1+$1,$2,$3*
1,1,$1+$1,$4,$5*
1,1,$1+$1,$6,$7*
1,1,$1+$1,$8,$9*
0 Add four rect primitives between the rounded corners*
20,1,$1+$1,$2,$3,$4,$5,0*
20,1,$1+$1,$4,$5,$6,$7,0*
20,1,$1+$1,$6,$7,$8,$9,0*
20,1,$1+$1,$8,$9,$2,$3,0*%
%AMFreePoly0*
4,1,19,0.500000,-0.750000,0.000000,-0.750000,0.000000,-0.744911,-0.071157,-0.744911,-0.207708,-0.704816,-0.327430,-0.627875,-0.420627,-0.520320,-0.479746,-0.390866,-0.500000,-0.250000,-0.500000,0.250000,-0.479746,0.390866,-0.420627,0.520320,-0.327430,0.627875,-0.207708,0.704816,-0.071157,0.744911,0.000000,0.744911,0.000000,0.750000,0.500000,0.750000,0.500000,-0.750000,0.500000,-0.750000,
$1*%
%AMFreePoly1*
4,1,19,0.000000,0.744911,0.071157,0.744911,0.207708,0.704816,0.327430,0.627875,0.420627,0.520320,0.479746,0.390866,0.500000,0.250000,0.500000,-0.250000,0.479746,-0.390866,0.420627,-0.520320,0.327430,-0.627875,0.207708,-0.704816,0.071157,-0.744911,0.000000,-0.744911,0.000000,-0.750000,-0.500000,-0.750000,-0.500000,0.750000,0.000000,0.750000,0.000000,0.744911,0.000000,0.744911,
$1*%
G04 Aperture macros list end*
%ADD10C,3.200000*%
%ADD11R,1.700000X1.700000*%
%ADD12O,1.700000X1.700000*%
%ADD13C,1.200000*%
%ADD14RoundRect,0.250000X-0.725000X0.600000X-0.725000X-0.600000X0.725000X-0.600000X0.725000X0.600000X0*%
%ADD15O,1.950000X1.700000*%
%ADD16RoundRect,0.250000X0.725000X-0.600000X0.725000X0.600000X-0.725000X0.600000X-0.725000X-0.600000X0*%
%ADD17RoundRect,0.225000X-0.225000X-0.250000X0.225000X-0.250000X0.225000X0.250000X-0.225000X0.250000X0*%
%ADD18R,1.150000X0.600000*%
%ADD19RoundRect,0.225000X0.225000X0.250000X-0.225000X0.250000X-0.225000X-0.250000X0.225000X-0.250000X0*%
%ADD20RoundRect,0.250000X-0.650000X0.325000X-0.650000X-0.325000X0.650000X-0.325000X0.650000X0.325000X0*%
%ADD21RoundRect,0.225000X-0.250000X0.225000X-0.250000X-0.225000X0.250000X-0.225000X0.250000X0.225000X0*%
%ADD22FreePoly0,0.000000*%
%ADD23FreePoly1,0.000000*%
%ADD24FreePoly0,180.000000*%
%ADD25FreePoly1,180.000000*%
G04 APERTURE END LIST*
D10*
X174700000Y-131500000D03*
X65500000Y-131500000D03*
X320300000Y-131500000D03*
X138300000Y-132000000D03*
X393100000Y-131500000D03*
X283900000Y-131500000D03*
X211100000Y-131500000D03*
X356700000Y-131500000D03*
D11*
X402200000Y-134500000D03*
D12*
X402200000Y-131960000D03*
X402200000Y-129420000D03*
X402200000Y-126880000D03*
D10*
X101900000Y-131500000D03*
D13*
X409500000Y-125900000D03*
D14*
X411500000Y-127500000D03*
D15*
X411500000Y-130000000D03*
X411500000Y-132500000D03*
X411500000Y-135000000D03*
D10*
X248200000Y-131500000D03*
D11*
X153060000Y-129500000D03*
D12*
X153060000Y-126960000D03*
X155600000Y-129500000D03*
X155600000Y-126960000D03*
X158140000Y-129500000D03*
X158140000Y-126960000D03*
D13*
X9500000Y-136500000D03*
D16*
X7500000Y-134900000D03*
D15*
X7500000Y-132400000D03*
X7500000Y-129900000D03*
X7500000Y-127400000D03*
D10*
X29100000Y-131500000D03*
D11*
X41440000Y-138300000D03*
D12*
X43980000Y-138300000D03*
X46520000Y-138300000D03*
X49060000Y-138300000D03*
X51600000Y-138300000D03*
X54140000Y-138300000D03*
D17*
X215400000Y-125125000D03*
X216950000Y-125125000D03*
D18*
X213600000Y-124925000D03*
X213600000Y-125875000D03*
X213600000Y-126825000D03*
X211000000Y-126825000D03*
X211000000Y-124925000D03*
D11*
X129200000Y-134500000D03*
D12*
X129200000Y-131960000D03*
X129200000Y-129420000D03*
X129200000Y-126880000D03*
D11*
X347600000Y-134500000D03*
D12*
X347600000Y-131960000D03*
X347600000Y-129420000D03*
X347600000Y-126880000D03*
D19*
X195175000Y-127300000D03*
X193625000Y-127300000D03*
D11*
X202000000Y-134500000D03*
D12*
X202000000Y-131960000D03*
X202000000Y-129420000D03*
X202000000Y-126880000D03*
D11*
X274800000Y-134500000D03*
D12*
X274800000Y-131960000D03*
X274800000Y-129420000D03*
X274800000Y-126880000D03*
D11*
X384000000Y-134500000D03*
D12*
X384000000Y-131960000D03*
X384000000Y-129420000D03*
X384000000Y-126880000D03*
D11*
X238400000Y-134500000D03*
D12*
X238400000Y-131960000D03*
X238400000Y-129420000D03*
X238400000Y-126880000D03*
D19*
X194600000Y-132000000D03*
X193050000Y-132000000D03*
D20*
X208400000Y-123825000D03*
X208400000Y-126775000D03*
D17*
X215375000Y-126925000D03*
X216925000Y-126925000D03*
D19*
X195150000Y-128900000D03*
X193600000Y-128900000D03*
D11*
X293000000Y-134500000D03*
D12*
X293000000Y-131960000D03*
X293000000Y-129420000D03*
X293000000Y-126880000D03*
D11*
X220200000Y-134500000D03*
D12*
X220200000Y-131960000D03*
X220200000Y-129420000D03*
X220200000Y-126880000D03*
D11*
X55600000Y-134500000D03*
D12*
X55600000Y-131960000D03*
X55600000Y-129420000D03*
X55600000Y-126880000D03*
D11*
X74600000Y-134500000D03*
D12*
X74600000Y-131960000D03*
X74600000Y-129420000D03*
X74600000Y-126880000D03*
D19*
X194950000Y-130500000D03*
X193400000Y-130500000D03*
D11*
X365800000Y-134500000D03*
D12*
X365800000Y-131960000D03*
X365800000Y-129420000D03*
X365800000Y-126880000D03*
D11*
X183800000Y-134500000D03*
D12*
X183800000Y-131960000D03*
X183800000Y-129420000D03*
X183800000Y-126880000D03*
D21*
X191200000Y-130650000D03*
X191200000Y-132200000D03*
D11*
X311200000Y-134500000D03*
D12*
X311200000Y-131960000D03*
X311200000Y-129420000D03*
X311200000Y-126880000D03*
D11*
X147400000Y-134500000D03*
D12*
X147400000Y-131960000D03*
X147400000Y-129420000D03*
X147400000Y-126880000D03*
D11*
X20000000Y-134500000D03*
D12*
X20000000Y-131960000D03*
X20000000Y-129420000D03*
X20000000Y-126880000D03*
D11*
X111000000Y-134500000D03*
D12*
X111000000Y-131960000D03*
X111000000Y-129420000D03*
X111000000Y-126880000D03*
D22*
X193200000Y-124700000D03*
D23*
X194500000Y-124700000D03*
D11*
X38200000Y-134500000D03*
D12*
X38200000Y-131960000D03*
X38200000Y-129420000D03*
X38200000Y-126880000D03*
D11*
X165600000Y-134500000D03*
D12*
X165600000Y-131960000D03*
X165600000Y-129420000D03*
X165600000Y-126880000D03*
D21*
X191800000Y-127525000D03*
X191800000Y-129075000D03*
D11*
X329400000Y-134500000D03*
D12*
X329400000Y-131960000D03*
X329400000Y-129420000D03*
X329400000Y-126880000D03*
D24*
X190050000Y-124700000D03*
D25*
X188750000Y-124700000D03*
D11*
X256600000Y-134500000D03*
D12*
X256600000Y-131960000D03*
X256600000Y-129420000D03*
X256600000Y-126880000D03*
D11*
X92800000Y-134500000D03*
D12*
X92800000Y-131960000D03*
X92800000Y-129420000D03*
X92800000Y-126880000D03*
M02*
