%TF.GenerationSoftware,KiCad,Pcbnew,8.0.8-8.0.8-0~ubuntu24.04.1*%
%TF.CreationDate,2025-03-05T09:14:19+01:00*%
%TF.ProjectId,UniMixFeeders,556e694d-6978-4466-9565-646572732e6b,rev?*%
%TF.SameCoordinates,Original*%
%TF.FileFunction,Copper,L1,Top*%
%TF.FilePolarity,Positive*%
%FSLAX46Y46*%
G04 Gerber Fmt 4.6, Leading zero omitted, Abs format (unit mm)*
G04 Created by KiCad (PCBNEW 8.0.8-8.0.8-0~ubuntu24.04.1) date 2025-03-05 09:14:19*
%MOMM*%
%LPD*%
G01*
G04 APERTURE LIST*
G04 Aperture macros list*
%AMRoundRect*
0 Rectangle with rounded corners*
0 $1 Rounding radius*
0 $2 $3 $4 $5 $6 $7 $8 $9 X,Y pos of 4 corners*
0 Add a 4 corners polygon primitive as box body*
4,1,4,$2,$3,$4,$5,$6,$7,$8,$9,$2,$3,0*
0 Add four circle primitives for the rounded corners*
1,1,$1+$1,$2,$3*
1,1,$1+$1,$4,$5*
1,1,$1+$1,$6,$7*
1,1,$1+$1,$8,$9*
0 Add four rect primitives between the rounded corners*
20,1,$1+$1,$2,$3,$4,$5,0*
20,1,$1+$1,$4,$5,$6,$7,0*
20,1,$1+$1,$6,$7,$8,$9,0*
20,1,$1+$1,$8,$9,$2,$3,0*%
G04 Aperture macros list end*
%TA.AperFunction,SMDPad,CuDef*%
%ADD10RoundRect,0.250000X0.650000X-0.325000X0.650000X0.325000X-0.650000X0.325000X-0.650000X-0.325000X0*%
%TD*%
%TA.AperFunction,SMDPad,CuDef*%
%ADD11RoundRect,0.225000X0.225000X0.250000X-0.225000X0.250000X-0.225000X-0.250000X0.225000X-0.250000X0*%
%TD*%
%TA.AperFunction,SMDPad,CuDef*%
%ADD12RoundRect,0.200000X-0.275000X0.200000X-0.275000X-0.200000X0.275000X-0.200000X0.275000X0.200000X0*%
%TD*%
%TA.AperFunction,SMDPad,CuDef*%
%ADD13RoundRect,0.200000X0.200000X0.275000X-0.200000X0.275000X-0.200000X-0.275000X0.200000X-0.275000X0*%
%TD*%
%TA.AperFunction,SMDPad,CuDef*%
%ADD14R,0.300000X1.450000*%
%TD*%
%TA.AperFunction,SMDPad,CuDef*%
%ADD15R,1.450000X0.300000*%
%TD*%
%TA.AperFunction,SMDPad,CuDef*%
%ADD16RoundRect,0.250000X0.900000X-1.000000X0.900000X1.000000X-0.900000X1.000000X-0.900000X-1.000000X0*%
%TD*%
%TA.AperFunction,SMDPad,CuDef*%
%ADD17R,1.950000X2.950000*%
%TD*%
%TA.AperFunction,SMDPad,CuDef*%
%ADD18RoundRect,0.225000X-0.250000X0.225000X-0.250000X-0.225000X0.250000X-0.225000X0.250000X0.225000X0*%
%TD*%
%TA.AperFunction,SMDPad,CuDef*%
%ADD19RoundRect,0.250000X-1.075000X0.375000X-1.075000X-0.375000X1.075000X-0.375000X1.075000X0.375000X0*%
%TD*%
%TA.AperFunction,ComponentPad*%
%ADD20R,1.700000X1.700000*%
%TD*%
%TA.AperFunction,ComponentPad*%
%ADD21O,1.700000X1.700000*%
%TD*%
%TA.AperFunction,SMDPad,CuDef*%
%ADD22RoundRect,0.200000X0.275000X-0.200000X0.275000X0.200000X-0.275000X0.200000X-0.275000X-0.200000X0*%
%TD*%
%TA.AperFunction,ComponentPad*%
%ADD23RoundRect,0.250000X-0.725000X0.600000X-0.725000X-0.600000X0.725000X-0.600000X0.725000X0.600000X0*%
%TD*%
%TA.AperFunction,ComponentPad*%
%ADD24O,1.950000X1.700000*%
%TD*%
%TA.AperFunction,SMDPad,CuDef*%
%ADD25RoundRect,0.200000X-0.200000X-0.275000X0.200000X-0.275000X0.200000X0.275000X-0.200000X0.275000X0*%
%TD*%
%TA.AperFunction,ComponentPad*%
%ADD26RoundRect,0.250000X0.725000X-0.600000X0.725000X0.600000X-0.725000X0.600000X-0.725000X-0.600000X0*%
%TD*%
%TA.AperFunction,ViaPad*%
%ADD27C,0.600000*%
%TD*%
%TA.AperFunction,Conductor*%
%ADD28C,2.000000*%
%TD*%
%TA.AperFunction,Conductor*%
%ADD29C,0.300000*%
%TD*%
%TA.AperFunction,Conductor*%
%ADD30C,0.200000*%
%TD*%
%TA.AperFunction,Conductor*%
%ADD31C,1.800000*%
%TD*%
G04 APERTURE END LIST*
D10*
X344400000Y-129400000D03*
X344400000Y-126450000D03*
D11*
X156975000Y-133700000D03*
X155425000Y-133700000D03*
D12*
X169000000Y-131675000D03*
X169000000Y-133325000D03*
X78000000Y-132350000D03*
X78000000Y-134000000D03*
D13*
X157000000Y-132100000D03*
X155350000Y-132100000D03*
D10*
X169000000Y-128975000D03*
X169000000Y-126025000D03*
X42000000Y-129475000D03*
X42000000Y-126525000D03*
D12*
X235500000Y-132175000D03*
X235500000Y-133825000D03*
D10*
X235200000Y-129475000D03*
X235200000Y-126525000D03*
D14*
X190292804Y-133967856D03*
X190792804Y-133967856D03*
X191292804Y-133967856D03*
X191792804Y-133967856D03*
X192292804Y-133967856D03*
X192792804Y-133967856D03*
X193292804Y-133967856D03*
X193792804Y-133967856D03*
X194292804Y-133967856D03*
X194792804Y-133967856D03*
X195292804Y-133967856D03*
X195792804Y-133967856D03*
D15*
X197267804Y-132492856D03*
X197267804Y-131992856D03*
X197267804Y-131492856D03*
X197267804Y-130992856D03*
X197267804Y-130492856D03*
X197267804Y-129992856D03*
X197267804Y-129492856D03*
X197267804Y-128992856D03*
X197267804Y-128492856D03*
X197267804Y-127992856D03*
X197267804Y-127492856D03*
X197267804Y-126992856D03*
D14*
X195792804Y-125517856D03*
X195292804Y-125517856D03*
X194792804Y-125517856D03*
X194292804Y-125517856D03*
X193792804Y-125517856D03*
X193292804Y-125517856D03*
X192792804Y-125517856D03*
X192292804Y-125517856D03*
X191792804Y-125517856D03*
X191292804Y-125517856D03*
X190792804Y-125517856D03*
X190292804Y-125517856D03*
D15*
X188817804Y-126992856D03*
X188817804Y-127492856D03*
X188817804Y-127992856D03*
X188817804Y-128492856D03*
X188817804Y-128992856D03*
X188817804Y-129492856D03*
X188817804Y-129992856D03*
X188817804Y-130492856D03*
X188817804Y-130992856D03*
X188817804Y-131492856D03*
X188817804Y-131992856D03*
X188817804Y-132492856D03*
D16*
X14500000Y-130500000D03*
X14500000Y-126200000D03*
D10*
X223500000Y-129875000D03*
X223500000Y-126925000D03*
D12*
X272000000Y-132275000D03*
X272000000Y-133925000D03*
D17*
X190350000Y-137500000D03*
X194650000Y-137500000D03*
D10*
X205300000Y-129000000D03*
X205300000Y-126050000D03*
D12*
X144000000Y-133175000D03*
X144000000Y-134825000D03*
D18*
X188200000Y-137525000D03*
X188200000Y-139075000D03*
D12*
X23500000Y-131850000D03*
X23500000Y-133500000D03*
D13*
X58325000Y-138100000D03*
X56675000Y-138100000D03*
D10*
X114500000Y-129475000D03*
X114500000Y-126525000D03*
D12*
X132500000Y-132350000D03*
X132500000Y-134000000D03*
X326500000Y-132175000D03*
X326500000Y-133825000D03*
X399500000Y-132175000D03*
X399500000Y-133825000D03*
X290100000Y-132175000D03*
X290100000Y-133825000D03*
D19*
X405600000Y-124700000D03*
X405600000Y-127500000D03*
D10*
X132500000Y-129500000D03*
X132500000Y-126550000D03*
X144000000Y-128975000D03*
X144000000Y-126025000D03*
X59000000Y-129475000D03*
X59000000Y-126525000D03*
D19*
X14000000Y-133100000D03*
X14000000Y-135900000D03*
D12*
X217300000Y-131975000D03*
X217300000Y-133625000D03*
X96000000Y-131850000D03*
X96000000Y-133500000D03*
X180500000Y-132175000D03*
X180500000Y-133825000D03*
D10*
X380700000Y-129475000D03*
X380700000Y-126525000D03*
D12*
X344800000Y-132375000D03*
X344800000Y-134025000D03*
D10*
X253400000Y-129450000D03*
X253400000Y-126500000D03*
D12*
X41500000Y-132000000D03*
X41500000Y-133650000D03*
D20*
X402200000Y-134500000D03*
D21*
X402200000Y-131960000D03*
X402200000Y-129420000D03*
X402200000Y-126880000D03*
D22*
X153000000Y-133700000D03*
X153000000Y-132050000D03*
D23*
X411500000Y-127500000D03*
D24*
X411500000Y-130000000D03*
X411500000Y-132500000D03*
X411500000Y-135000000D03*
D12*
X114000000Y-132000000D03*
X114000000Y-133650000D03*
D10*
X307800000Y-129450000D03*
X307800000Y-126500000D03*
D12*
X59000000Y-132175000D03*
X59000000Y-133825000D03*
D10*
X289700000Y-129450000D03*
X289700000Y-126500000D03*
X24000000Y-129475000D03*
X24000000Y-126525000D03*
D20*
X153060000Y-129500000D03*
D21*
X153060000Y-126960000D03*
X155600000Y-129500000D03*
X155600000Y-126960000D03*
X158140000Y-129500000D03*
X158140000Y-126960000D03*
D12*
X308400000Y-132275000D03*
X308400000Y-133925000D03*
D25*
X59750000Y-139600000D03*
X61400000Y-139600000D03*
D26*
X7500000Y-134900000D03*
D24*
X7500000Y-132400000D03*
X7500000Y-129900000D03*
X7500000Y-127400000D03*
D10*
X180500000Y-129475000D03*
X180500000Y-126525000D03*
D18*
X197000000Y-136450000D03*
X197000000Y-138000000D03*
D22*
X204900000Y-132225000D03*
X204900000Y-130575000D03*
D10*
X271700000Y-129475000D03*
X271700000Y-126525000D03*
X326100000Y-129450000D03*
X326100000Y-126500000D03*
X78000000Y-129475000D03*
X78000000Y-126525000D03*
D20*
X41440000Y-138300000D03*
D21*
X43980000Y-138300000D03*
X46520000Y-138300000D03*
X49060000Y-138300000D03*
X51600000Y-138300000D03*
X54140000Y-138300000D03*
D10*
X362500000Y-129375000D03*
X362500000Y-126425000D03*
X399000000Y-129475000D03*
X399000000Y-126525000D03*
D12*
X381200000Y-132300000D03*
X381200000Y-133950000D03*
D10*
X96500000Y-129475000D03*
X96500000Y-126525000D03*
D12*
X253700000Y-132300000D03*
X253700000Y-133950000D03*
X363100000Y-132175000D03*
X363100000Y-133825000D03*
D20*
X129200000Y-134500000D03*
D21*
X129200000Y-131960000D03*
X129200000Y-129420000D03*
X129200000Y-126880000D03*
D20*
X347600000Y-134500000D03*
D21*
X347600000Y-131960000D03*
X347600000Y-129420000D03*
X347600000Y-126880000D03*
D20*
X202000000Y-134500000D03*
D21*
X202000000Y-131960000D03*
X202000000Y-129420000D03*
X202000000Y-126880000D03*
D20*
X274800000Y-134500000D03*
D21*
X274800000Y-131960000D03*
X274800000Y-129420000D03*
X274800000Y-126880000D03*
D20*
X384000000Y-134500000D03*
D21*
X384000000Y-131960000D03*
X384000000Y-129420000D03*
X384000000Y-126880000D03*
D20*
X238400000Y-134500000D03*
D21*
X238400000Y-131960000D03*
X238400000Y-129420000D03*
X238400000Y-126880000D03*
D20*
X293000000Y-134500000D03*
D21*
X293000000Y-131960000D03*
X293000000Y-129420000D03*
X293000000Y-126880000D03*
D20*
X220200000Y-134500000D03*
D21*
X220200000Y-131960000D03*
X220200000Y-129420000D03*
X220200000Y-126880000D03*
D20*
X55600000Y-134500000D03*
D21*
X55600000Y-131960000D03*
X55600000Y-129420000D03*
X55600000Y-126880000D03*
D20*
X74600000Y-134500000D03*
D21*
X74600000Y-131960000D03*
X74600000Y-129420000D03*
X74600000Y-126880000D03*
D20*
X365800000Y-134500000D03*
D21*
X365800000Y-131960000D03*
X365800000Y-129420000D03*
X365800000Y-126880000D03*
D20*
X183800000Y-134500000D03*
D21*
X183800000Y-131960000D03*
X183800000Y-129420000D03*
X183800000Y-126880000D03*
D20*
X311200000Y-134500000D03*
D21*
X311200000Y-131960000D03*
X311200000Y-129420000D03*
X311200000Y-126880000D03*
D20*
X147400000Y-134500000D03*
D21*
X147400000Y-131960000D03*
X147400000Y-129420000D03*
X147400000Y-126880000D03*
D20*
X20000000Y-134500000D03*
D21*
X20000000Y-131960000D03*
X20000000Y-129420000D03*
X20000000Y-126880000D03*
D20*
X111000000Y-134500000D03*
D21*
X111000000Y-131960000D03*
X111000000Y-129420000D03*
X111000000Y-126880000D03*
D20*
X38200000Y-134500000D03*
D21*
X38200000Y-131960000D03*
X38200000Y-129420000D03*
X38200000Y-126880000D03*
D20*
X165600000Y-134500000D03*
D21*
X165600000Y-131960000D03*
X165600000Y-129420000D03*
X165600000Y-126880000D03*
D20*
X329400000Y-134500000D03*
D21*
X329400000Y-131960000D03*
X329400000Y-129420000D03*
X329400000Y-126880000D03*
D20*
X256600000Y-134500000D03*
D21*
X256600000Y-131960000D03*
X256600000Y-129420000D03*
X256600000Y-126880000D03*
D20*
X92800000Y-134500000D03*
D21*
X92800000Y-131960000D03*
X92800000Y-129420000D03*
X92800000Y-126880000D03*
D27*
X192700000Y-130500000D03*
X190000000Y-128900000D03*
X208400000Y-125500000D03*
X192242845Y-132842885D03*
X217600000Y-126925000D03*
X154200000Y-133700000D03*
X190200000Y-132300000D03*
X192800000Y-128900000D03*
X187800000Y-124700000D03*
X212300000Y-125900000D03*
X155500000Y-134350000D03*
X187400000Y-138900000D03*
X192775000Y-127354739D03*
X217700000Y-125125000D03*
X196114935Y-128584148D03*
X197000000Y-138900000D03*
X190800000Y-129100000D03*
X196100000Y-127900000D03*
X197100000Y-125000000D03*
X192200000Y-132000000D03*
X215000000Y-127700000D03*
X213600000Y-124100000D03*
X16850000Y-129300000D03*
X401400000Y-123700000D03*
X16850000Y-127300000D03*
X16800000Y-130300000D03*
X404400000Y-123700000D03*
X403400000Y-123700000D03*
X213600000Y-127700000D03*
X402400000Y-123700000D03*
X16850000Y-128300000D03*
X198800000Y-128500000D03*
X215000000Y-126100000D03*
X215200000Y-124100000D03*
X196429887Y-126355771D03*
X187800000Y-125700000D03*
X190000000Y-130500000D03*
X190600000Y-129900000D03*
X196000000Y-130400000D03*
X195600000Y-131100000D03*
X195300000Y-132300000D03*
X197000000Y-125900000D03*
X193900000Y-132700000D03*
X190600000Y-127500000D03*
X198800000Y-129300000D03*
X198350000Y-139300000D03*
X199200000Y-130300000D03*
X199000000Y-140900000D03*
X154100000Y-132100000D03*
X157900000Y-140100000D03*
X192100000Y-135300000D03*
X192000000Y-139900000D03*
X157184620Y-134265380D03*
X156500000Y-140100000D03*
X191200000Y-135400000D03*
X190415352Y-139565407D03*
X187200000Y-131700000D03*
X183550000Y-139500000D03*
X184322991Y-139293869D03*
X187124265Y-132624265D03*
X190800000Y-124100000D03*
X180500000Y-131400000D03*
X192200000Y-124100000D03*
X187000000Y-128100000D03*
D28*
X380700000Y-126525000D02*
X383645000Y-126525000D01*
D29*
X192292804Y-133967856D02*
X192292804Y-132892844D01*
D30*
X187400000Y-138900000D02*
X187575000Y-139075000D01*
D28*
X169000000Y-126025000D02*
X166455000Y-126025000D01*
D29*
X196192794Y-127992856D02*
X197267804Y-127992856D01*
D30*
X187575000Y-139075000D02*
X188200000Y-139075000D01*
X189907144Y-128992856D02*
X190000000Y-128900000D01*
D28*
X235200000Y-126525000D02*
X238045000Y-126525000D01*
X253400000Y-126500000D02*
X256220000Y-126500000D01*
X41645000Y-126880000D02*
X42000000Y-126525000D01*
X223455000Y-126880000D02*
X223500000Y-126925000D01*
X326100000Y-126500000D02*
X329020000Y-126500000D01*
X362500000Y-126425000D02*
X365345000Y-126425000D01*
X96145000Y-126880000D02*
X96500000Y-126525000D01*
X14500000Y-126200000D02*
X8700000Y-126200000D01*
D29*
X155425000Y-134275000D02*
X155500000Y-134350000D01*
D28*
X114145000Y-126880000D02*
X114500000Y-126525000D01*
X183445000Y-126525000D02*
X183800000Y-126880000D01*
D30*
X197000000Y-138900000D02*
X197000000Y-138000000D01*
D28*
X132170000Y-126880000D02*
X132500000Y-126550000D01*
X38200000Y-126880000D02*
X41645000Y-126880000D01*
X77645000Y-126880000D02*
X78000000Y-126525000D01*
X289700000Y-126500000D02*
X292620000Y-126500000D01*
X20000000Y-126880000D02*
X23645000Y-126880000D01*
X401845000Y-126525000D02*
X402200000Y-126880000D01*
D29*
X196100000Y-127900000D02*
X196192794Y-127992856D01*
D28*
X292620000Y-126500000D02*
X293000000Y-126880000D01*
D29*
X192292804Y-132892844D02*
X192242845Y-132842885D01*
D28*
X220200000Y-126880000D02*
X223455000Y-126880000D01*
X92800000Y-126880000D02*
X96145000Y-126880000D01*
X144000000Y-126025000D02*
X146545000Y-126025000D01*
X58645000Y-126880000D02*
X59000000Y-126525000D01*
X365345000Y-126425000D02*
X365800000Y-126880000D01*
D29*
X197267804Y-128492856D02*
X196206227Y-128492856D01*
D28*
X74600000Y-126880000D02*
X77645000Y-126880000D01*
X202000000Y-126880000D02*
X202680000Y-126200000D01*
X274445000Y-126525000D02*
X274800000Y-126880000D01*
X347170000Y-126450000D02*
X347600000Y-126880000D01*
X307800000Y-126500000D02*
X310820000Y-126500000D01*
D29*
X155425000Y-133700000D02*
X155425000Y-134275000D01*
D28*
X238045000Y-126525000D02*
X238400000Y-126880000D01*
X344400000Y-126450000D02*
X347170000Y-126450000D01*
X129200000Y-126880000D02*
X132170000Y-126880000D01*
X146545000Y-126025000D02*
X147400000Y-126880000D01*
X8700000Y-126200000D02*
X7500000Y-127400000D01*
X399000000Y-126525000D02*
X401845000Y-126525000D01*
D30*
X153000000Y-133700000D02*
X154200000Y-133700000D01*
D28*
X310820000Y-126500000D02*
X311200000Y-126880000D01*
X202680000Y-126200000D02*
X205300000Y-126200000D01*
D30*
X188817804Y-128992856D02*
X189907144Y-128992856D01*
D28*
X329020000Y-126500000D02*
X329400000Y-126880000D01*
D29*
X196206227Y-128492856D02*
X196114935Y-128584148D01*
D28*
X55600000Y-126880000D02*
X58645000Y-126880000D01*
X271700000Y-126525000D02*
X274445000Y-126525000D01*
X256220000Y-126500000D02*
X256600000Y-126880000D01*
X23645000Y-126880000D02*
X24000000Y-126525000D01*
X383645000Y-126525000D02*
X384000000Y-126880000D01*
X166455000Y-126025000D02*
X165600000Y-126880000D01*
X180500000Y-126525000D02*
X183445000Y-126525000D01*
X111000000Y-126880000D02*
X114145000Y-126880000D01*
X202000000Y-129420000D02*
X203594558Y-129420000D01*
X144000000Y-128975000D02*
X144445000Y-129420000D01*
X168555000Y-129420000D02*
X169000000Y-128975000D01*
X329370000Y-129450000D02*
X329400000Y-129420000D01*
X223045000Y-129420000D02*
X223500000Y-129875000D01*
X129200000Y-129420000D02*
X132420000Y-129420000D01*
X77945000Y-129420000D02*
X78000000Y-129475000D01*
X203594558Y-129420000D02*
X204039558Y-128975000D01*
X326100000Y-129450000D02*
X329370000Y-129450000D01*
X20000000Y-129420000D02*
X23945000Y-129420000D01*
X402200000Y-129420000D02*
X399055000Y-129420000D01*
X220200000Y-129420000D02*
X223045000Y-129420000D01*
X132420000Y-129420000D02*
X132500000Y-129500000D01*
X96445000Y-129420000D02*
X96500000Y-129475000D01*
X399055000Y-129420000D02*
X399000000Y-129475000D01*
X204039558Y-128975000D02*
X205275000Y-128975000D01*
X311170000Y-129450000D02*
X311200000Y-129420000D01*
D29*
X197267804Y-128992856D02*
X198187905Y-128992856D01*
D28*
X235200000Y-129475000D02*
X238345000Y-129475000D01*
X111000000Y-129420000D02*
X114445000Y-129420000D01*
X307800000Y-129450000D02*
X311170000Y-129450000D01*
X362500000Y-129375000D02*
X365755000Y-129375000D01*
X274800000Y-129420000D02*
X271755000Y-129420000D01*
X404600000Y-123700000D02*
X401400000Y-123700000D01*
X144445000Y-129420000D02*
X147400000Y-129420000D01*
D31*
X183745000Y-129475000D02*
X183800000Y-129420000D01*
D28*
X41945000Y-129420000D02*
X42000000Y-129475000D01*
X114445000Y-129420000D02*
X114500000Y-129475000D01*
X380700000Y-129475000D02*
X383945000Y-129475000D01*
X14500000Y-130500000D02*
X16600000Y-130500000D01*
X405600000Y-124700000D02*
X404600000Y-123700000D01*
X344420000Y-129420000D02*
X344400000Y-129400000D01*
X16600000Y-130500000D02*
X16600000Y-130100000D01*
X165600000Y-129420000D02*
X168555000Y-129420000D01*
X74600000Y-129420000D02*
X77945000Y-129420000D01*
X16850000Y-129850000D02*
X16850000Y-127300000D01*
X38200000Y-129420000D02*
X41945000Y-129420000D01*
X383945000Y-129475000D02*
X384000000Y-129420000D01*
X14000000Y-131000000D02*
X14500000Y-130500000D01*
X289700000Y-129450000D02*
X292970000Y-129450000D01*
X292970000Y-129450000D02*
X293000000Y-129420000D01*
X58945000Y-129420000D02*
X59000000Y-129475000D01*
X256570000Y-129450000D02*
X256600000Y-129420000D01*
X347600000Y-129420000D02*
X344420000Y-129420000D01*
D29*
X198680761Y-128500000D02*
X198800000Y-128500000D01*
D28*
X16600000Y-130100000D02*
X16850000Y-129850000D01*
X365755000Y-129375000D02*
X365800000Y-129420000D01*
D29*
X198187905Y-128992856D02*
X198680761Y-128500000D01*
D28*
X253400000Y-129450000D02*
X256570000Y-129450000D01*
X14000000Y-133100000D02*
X14000000Y-131000000D01*
X23945000Y-129420000D02*
X24000000Y-129475000D01*
X238345000Y-129475000D02*
X238400000Y-129420000D01*
X271755000Y-129420000D02*
X271700000Y-129475000D01*
X92800000Y-129420000D02*
X96445000Y-129420000D01*
X55600000Y-129420000D02*
X58945000Y-129420000D01*
D31*
X180500000Y-129475000D02*
X183745000Y-129475000D01*
D30*
X193792804Y-133967856D02*
X193792804Y-132807196D01*
D29*
X186700000Y-125500000D02*
X186900000Y-125700000D01*
X154260000Y-131010000D02*
X155350000Y-132100000D01*
X156100000Y-128160000D02*
X156940000Y-129000000D01*
X160500000Y-130700000D02*
X163700000Y-127500000D01*
X154260000Y-128160000D02*
X154260000Y-131010000D01*
X153060000Y-126960000D02*
X154260000Y-128160000D01*
D30*
X197267804Y-130492856D02*
X196292804Y-130492856D01*
D29*
X154260000Y-128160000D02*
X156100000Y-128160000D01*
D30*
X193792804Y-132807196D02*
X193900000Y-132700000D01*
D29*
X163700000Y-124900000D02*
X164600000Y-124000000D01*
X163700000Y-127500000D02*
X163700000Y-124900000D01*
X156940000Y-129997057D02*
X157642943Y-130700000D01*
X157642943Y-130700000D02*
X160500000Y-130700000D01*
X186900000Y-125700000D02*
X187800000Y-125700000D01*
D30*
X188817804Y-130492856D02*
X189992856Y-130492856D01*
D29*
X185100000Y-124000000D02*
X186600000Y-125500000D01*
X156940000Y-129000000D02*
X156940000Y-129997057D01*
D30*
X189992856Y-130492856D02*
X190000000Y-130500000D01*
D29*
X164600000Y-124000000D02*
X185100000Y-124000000D01*
X186600000Y-125500000D02*
X186700000Y-125500000D01*
D28*
X7500000Y-134900000D02*
X7750000Y-134650000D01*
X14000000Y-135900000D02*
X11516295Y-135900000D01*
X11516295Y-135900000D02*
X10266295Y-134650000D01*
X7750000Y-134650000D02*
X10266295Y-134650000D01*
D29*
X10800000Y-140900000D02*
X88200000Y-140900000D01*
X6150000Y-136450000D02*
X9450000Y-139750000D01*
X7500000Y-132400000D02*
X7300000Y-132400000D01*
X411500000Y-130000000D02*
X401600000Y-139900000D01*
X9450000Y-139750000D02*
X9600000Y-139900000D01*
X198350000Y-139750000D02*
X198200000Y-139900000D01*
X9650000Y-139750000D02*
X10700000Y-140800000D01*
X7300000Y-132400000D02*
X6150000Y-133550000D01*
X198200000Y-139900000D02*
X401600000Y-139900000D01*
X198200000Y-139900000D02*
X197150000Y-140950000D01*
X6150000Y-133550000D02*
X6150000Y-136450000D01*
X10700000Y-140800000D02*
X10800000Y-140900000D01*
X88250000Y-140950000D02*
X88200000Y-140900000D01*
X198607144Y-129492856D02*
X198800000Y-129300000D01*
X197267804Y-129492856D02*
X198607144Y-129492856D01*
X198350000Y-139300000D02*
X198350000Y-139750000D01*
X197150000Y-140950000D02*
X88250000Y-140950000D01*
X9450000Y-139750000D02*
X9650000Y-139750000D01*
X5600000Y-131675000D02*
X5600000Y-136607107D01*
X199200000Y-140900000D02*
X199700000Y-140400000D01*
X199000000Y-140900000D02*
X199200000Y-140900000D01*
X199200000Y-130300000D02*
X198892856Y-129992856D01*
X198892856Y-129992856D02*
X197267804Y-129992856D01*
X5600000Y-136607107D02*
X10442893Y-141450000D01*
X199700000Y-140400000D02*
X403600000Y-140400000D01*
X7375000Y-129900000D02*
X5600000Y-131675000D01*
X403600000Y-140400000D02*
X411500000Y-132500000D01*
X198450000Y-141450000D02*
X199000000Y-140900000D01*
X7500000Y-129900000D02*
X7375000Y-129900000D01*
X10442893Y-141450000D02*
X198450000Y-141450000D01*
D30*
X200681372Y-137650000D02*
X322675000Y-137650000D01*
X197267804Y-133231364D02*
X197267804Y-132492856D01*
X199600000Y-136568628D02*
X199600000Y-135563560D01*
X200681372Y-137650000D02*
X199600000Y-136568628D01*
X322675000Y-137650000D02*
X326500000Y-133825000D01*
X199600000Y-135563560D02*
X197267804Y-133231364D01*
X158300000Y-140500000D02*
X191400000Y-140500000D01*
X153050000Y-132100000D02*
X153000000Y-132050000D01*
X192000000Y-139900000D02*
X191400000Y-140500000D01*
X153060000Y-129500000D02*
X153060000Y-131990000D01*
X154100000Y-132100000D02*
X153050000Y-132100000D01*
X191792804Y-134992804D02*
X192100000Y-135300000D01*
X191792804Y-133967856D02*
X191792804Y-134992804D01*
X158300000Y-140500000D02*
X157900000Y-140100000D01*
X153060000Y-131990000D02*
X153000000Y-132050000D01*
X81065685Y-137065685D02*
X163365685Y-137065685D01*
X186318872Y-131618872D02*
X186346813Y-131618872D01*
X187040659Y-130925026D02*
X187774974Y-130925026D01*
X185831370Y-135900001D02*
X185831370Y-133500000D01*
X163600000Y-137300000D02*
X184431371Y-137300000D01*
X186346813Y-131618872D02*
X187040659Y-130925026D01*
X187842804Y-130992856D02*
X188817804Y-130992856D01*
X78000000Y-134000000D02*
X81065685Y-137065685D01*
X184431371Y-137300000D02*
X185831370Y-135900001D01*
X186318872Y-133012498D02*
X186318872Y-131618872D01*
X163365685Y-137065685D02*
X163600000Y-137300000D01*
X185831370Y-133500000D02*
X186318872Y-133012498D01*
X187774974Y-130925026D02*
X187842804Y-130992856D01*
X195430257Y-135080309D02*
X195292804Y-134942856D01*
X198400000Y-136060618D02*
X197419691Y-135080309D01*
X200200000Y-138900000D02*
X198400000Y-137100000D01*
X197419691Y-135080309D02*
X195430257Y-135080309D01*
X195292804Y-134942856D02*
X195292804Y-133967856D01*
X198400000Y-137100000D02*
X198400000Y-136060618D01*
X376250000Y-138900000D02*
X200200000Y-138900000D01*
X381200000Y-133950000D02*
X376250000Y-138900000D01*
X181850000Y-132250000D02*
X183425000Y-130675000D01*
X186507144Y-127492856D02*
X188817804Y-127492856D01*
X145475000Y-133350000D02*
X148550000Y-133350000D01*
X183425000Y-130675000D02*
X185000000Y-130675000D01*
X181850000Y-134415686D02*
X181850000Y-132250000D01*
X163615686Y-135000000D02*
X164265686Y-135650000D01*
X148550000Y-133350000D02*
X150200000Y-135000000D01*
X185375000Y-130300000D02*
X185375000Y-128625000D01*
X180615686Y-135650000D02*
X181850000Y-134415686D01*
X144000000Y-134825000D02*
X145475000Y-133350000D01*
X185375000Y-128625000D02*
X186507144Y-127492856D01*
X150200000Y-135000000D02*
X163615686Y-135000000D01*
X185000000Y-130675000D02*
X185375000Y-130300000D01*
X164265686Y-135650000D02*
X180615686Y-135650000D01*
X179100000Y-128300000D02*
X179100000Y-131962648D01*
X179100000Y-131962648D02*
X180237352Y-133100000D01*
X185120000Y-128180000D02*
X186307144Y-126992856D01*
X179220000Y-128180000D02*
X185120000Y-128180000D01*
X170287500Y-134612500D02*
X169000000Y-133325000D01*
X179220000Y-128180000D02*
X179100000Y-128300000D01*
X188817804Y-126992856D02*
X186307144Y-126992856D01*
X181087500Y-134612500D02*
X170287500Y-134612500D01*
X180237352Y-133100000D02*
X180962648Y-133100000D01*
X181450000Y-133587352D02*
X181450000Y-134250000D01*
X181450000Y-134250000D02*
X181087500Y-134612500D01*
X180962648Y-133100000D02*
X181450000Y-133587352D01*
X191275000Y-136300000D02*
X190350000Y-137225000D01*
X192737500Y-135762500D02*
X192200000Y-136300000D01*
X192792804Y-133967856D02*
X192792804Y-134782196D01*
X188200000Y-137525000D02*
X190325000Y-137525000D01*
X192200000Y-136300000D02*
X191275000Y-136300000D01*
X190325000Y-137525000D02*
X190350000Y-137500000D01*
X192792804Y-134782196D02*
X192737500Y-134837500D01*
X192737500Y-134837500D02*
X192737500Y-135762500D01*
X156975000Y-134055760D02*
X157184620Y-134265380D01*
X190415352Y-139565407D02*
X189880759Y-140100000D01*
X157134315Y-139465685D02*
X156500000Y-140100000D01*
X191292804Y-135307196D02*
X191200000Y-135400000D01*
X182900000Y-139700000D02*
X161934315Y-139700000D01*
D29*
X157000000Y-132100000D02*
X157000000Y-130900000D01*
D30*
X161934315Y-139700000D02*
X161700000Y-139465685D01*
D29*
X157000000Y-130900000D02*
X155600000Y-129500000D01*
D30*
X189880759Y-140100000D02*
X183300000Y-140100000D01*
X156975000Y-133700000D02*
X156975000Y-134055760D01*
D29*
X156975000Y-132125000D02*
X157000000Y-132100000D01*
D30*
X161700000Y-139465685D02*
X157134315Y-139465685D01*
D29*
X156975000Y-133700000D02*
X156975000Y-132125000D01*
D30*
X191292804Y-133967856D02*
X191292804Y-135307196D01*
X183300000Y-140100000D02*
X182900000Y-139700000D01*
X200720000Y-130720000D02*
X200500000Y-130500000D01*
X200500000Y-128400000D02*
X199092856Y-126992856D01*
X204755000Y-130720000D02*
X200720000Y-130720000D01*
X200500000Y-130500000D02*
X200500000Y-128400000D01*
X204900000Y-130575000D02*
X204755000Y-130720000D01*
X199092856Y-126992856D02*
X197267804Y-126992856D01*
X358425000Y-138500000D02*
X200400000Y-138500000D01*
X195792804Y-133967856D02*
X196872924Y-133967856D01*
X196872924Y-133967856D02*
X198800000Y-135894932D01*
X363100000Y-133825000D02*
X358425000Y-138500000D01*
X198800000Y-136900000D02*
X198800000Y-135894932D01*
X200400000Y-138500000D02*
X198800000Y-136900000D01*
X183400000Y-139300000D02*
X162268629Y-139300000D01*
X162034315Y-139065685D02*
X61934315Y-139065685D01*
X187200000Y-131700000D02*
X187807144Y-131492856D01*
X61934315Y-139065685D02*
X61400000Y-139600000D01*
X162268629Y-139300000D02*
X162034315Y-139065685D01*
X187807144Y-131492856D02*
X188817804Y-131492856D01*
X183550000Y-139450000D02*
X183400000Y-139300000D01*
X179875000Y-125225000D02*
X178700000Y-126400000D01*
X178700000Y-126400000D02*
X178700000Y-132600000D01*
X179925000Y-133825000D02*
X180500000Y-133825000D01*
X190292804Y-125607196D02*
X189600000Y-126300000D01*
X185525000Y-125225000D02*
X179875000Y-125225000D01*
X178700000Y-132600000D02*
X179925000Y-133825000D01*
X190292804Y-125517856D02*
X190292804Y-125607196D01*
X189600000Y-126300000D02*
X186600000Y-126300000D01*
X186600000Y-126300000D02*
X185525000Y-125225000D01*
X185000000Y-138500000D02*
X184800000Y-138500000D01*
X190742804Y-134992856D02*
X188507144Y-134992856D01*
X64165686Y-136900000D02*
X26900000Y-136900000D01*
X78253186Y-138265685D02*
X78037500Y-138050000D01*
X162500000Y-138265685D02*
X78253186Y-138265685D01*
X190792804Y-133967856D02*
X190792804Y-134942856D01*
X162734315Y-138500000D02*
X162500000Y-138265685D01*
X190792804Y-134942856D02*
X190742804Y-134992856D01*
X26900000Y-136900000D02*
X23500000Y-133500000D01*
X65315686Y-138050000D02*
X64165686Y-136900000D01*
X184800000Y-138500000D02*
X162734315Y-138500000D01*
X78037500Y-138050000D02*
X65315686Y-138050000D01*
X188507144Y-134992856D02*
X185000000Y-138500000D01*
X199200000Y-135729246D02*
X196413610Y-132942856D01*
X344800000Y-134025000D02*
X340725000Y-138100000D01*
X340725000Y-138100000D02*
X200565686Y-138100000D01*
X199200000Y-136734314D02*
X199200000Y-135729246D01*
X196413610Y-132942856D02*
X194842804Y-132942856D01*
X194792804Y-132992856D02*
X194792804Y-133967856D01*
X200565686Y-138100000D02*
X199200000Y-136734314D01*
X194842804Y-132942856D02*
X194792804Y-132992856D01*
X216525000Y-132850000D02*
X216525000Y-131562352D01*
X216525000Y-131562352D02*
X217587352Y-130500000D01*
X217600000Y-123500000D02*
X197235660Y-123500000D01*
X218400000Y-124300000D02*
X217600000Y-123500000D01*
X195792804Y-124942856D02*
X195792804Y-125517856D01*
X217587352Y-130500000D02*
X218400000Y-130500000D01*
X218400000Y-130500000D02*
X218400000Y-124300000D01*
X197235660Y-123500000D02*
X195792804Y-124942856D01*
X217300000Y-133625000D02*
X216525000Y-132850000D01*
X224775000Y-123100000D02*
X196735660Y-123100000D01*
X235500000Y-133825000D02*
X224775000Y-123100000D01*
X196735660Y-123100000D02*
X195292804Y-124542856D01*
X195292804Y-124542856D02*
X195292804Y-125517856D01*
X185500000Y-132700000D02*
X185500000Y-131306372D01*
X186175000Y-129825000D02*
X186507144Y-129492856D01*
X131050000Y-136050000D02*
X145400000Y-136050000D01*
X163984314Y-136500000D02*
X184100000Y-136500000D01*
X186175000Y-130631372D02*
X186175000Y-129825000D01*
X163584314Y-136100000D02*
X163984314Y-136500000D01*
X186507144Y-129492856D02*
X188817804Y-129492856D01*
X145400000Y-136050000D02*
X145450000Y-136100000D01*
X184100000Y-136500000D02*
X185000000Y-135600000D01*
X185500000Y-131306372D02*
X186175000Y-130631372D01*
X114000000Y-133650000D02*
X116350000Y-136000000D01*
X185000000Y-135600000D02*
X185000000Y-133200000D01*
X116350000Y-136000000D02*
X131000000Y-136000000D01*
X145450000Y-136100000D02*
X163584314Y-136100000D01*
X145400000Y-136050000D02*
X145500000Y-136050000D01*
X185000000Y-133200000D02*
X185500000Y-132700000D01*
X131000000Y-136000000D02*
X131050000Y-136050000D01*
X200800000Y-135700001D02*
X201199999Y-136100001D01*
X201549999Y-136450000D02*
X269475000Y-136450000D01*
X197267804Y-130992856D02*
X198692856Y-130992856D01*
X200800000Y-134900000D02*
X200800000Y-135700001D01*
X198692856Y-130992856D02*
X199200000Y-131500000D01*
X201199999Y-136100001D02*
X201200000Y-136100001D01*
X201200000Y-136100001D02*
X201549999Y-136450000D01*
X272000000Y-133925000D02*
X269475000Y-136450000D01*
X199200000Y-131500000D02*
X199200000Y-133300000D01*
X199200000Y-133300000D02*
X200800000Y-134900000D01*
X64600000Y-138100000D02*
X58325000Y-138100000D01*
X65165685Y-138665685D02*
X64600000Y-138100000D01*
X184322991Y-139293869D02*
X183929122Y-138900000D01*
X162434315Y-138900000D02*
X162200000Y-138665685D01*
X187755674Y-131992856D02*
X187124265Y-132624265D01*
X188817804Y-131992856D02*
X187755674Y-131992856D01*
X183929122Y-138900000D02*
X162434315Y-138900000D01*
X162200000Y-138665685D02*
X65165685Y-138665685D01*
X200500000Y-135965687D02*
X200500000Y-136337256D01*
X287075000Y-136850000D02*
X290100000Y-133825000D01*
X201012744Y-136850000D02*
X287075000Y-136850000D01*
X198308489Y-131492856D02*
X198800000Y-131984367D01*
X200500000Y-136337256D02*
X201012744Y-136850000D01*
X198800000Y-131984367D02*
X198800000Y-133465686D01*
X200400000Y-135065686D02*
X200400000Y-135865687D01*
X200400000Y-135865687D02*
X200500000Y-135965687D01*
X198800000Y-133465686D02*
X200400000Y-135065686D01*
X197267804Y-131492856D02*
X198308489Y-131492856D01*
X200847058Y-137250000D02*
X305075000Y-137250000D01*
X305075000Y-137250000D02*
X308400000Y-133925000D01*
X197267804Y-131992856D02*
X198242804Y-131992856D01*
X200000000Y-136265685D02*
X200100000Y-136365685D01*
X200000000Y-135300000D02*
X200000000Y-136265685D01*
X198242804Y-131992856D02*
X198400000Y-132150052D01*
X198400000Y-133700000D02*
X200000000Y-135300000D01*
X200100000Y-136365685D02*
X200100000Y-136502942D01*
X200100000Y-136502942D02*
X200847058Y-137250000D01*
X198400000Y-132150052D02*
X198400000Y-133700000D01*
X185900000Y-131472058D02*
X186572058Y-130800000D01*
X185400000Y-133365685D02*
X185900000Y-132865686D01*
X186572058Y-130800000D02*
X186600000Y-130800000D01*
X187767830Y-130067830D02*
X187842804Y-129992856D01*
X163765685Y-136900000D02*
X184265686Y-136900000D01*
X187842804Y-129992856D02*
X188817804Y-129992856D01*
X186600000Y-130300000D02*
X186832170Y-130067830D01*
X185400000Y-135765686D02*
X185400000Y-133365685D01*
X184265686Y-136900000D02*
X185400000Y-135765686D01*
X185900000Y-132865686D02*
X185900000Y-131472058D01*
X186600000Y-130800000D02*
X186600000Y-130300000D01*
X163531371Y-136665685D02*
X163765685Y-136900000D01*
X99165685Y-136665685D02*
X163531371Y-136665685D01*
X186832170Y-130067830D02*
X187767830Y-130067830D01*
X96000000Y-133500000D02*
X99165685Y-136665685D01*
X191292804Y-124592804D02*
X190800000Y-124100000D01*
X191292804Y-125517856D02*
X191292804Y-124592804D01*
X194792804Y-124477171D02*
X194792804Y-125517856D01*
X248600000Y-122700000D02*
X196569975Y-122700000D01*
X253700000Y-133950000D02*
X252100000Y-132350000D01*
X252100000Y-132350000D02*
X252100000Y-126200000D01*
X252100000Y-126200000D02*
X248600000Y-122700000D01*
X196569975Y-122700000D02*
X194792804Y-124477171D01*
X185100000Y-132286346D02*
X185100000Y-131100000D01*
X182650000Y-134181372D02*
X182650000Y-133350000D01*
X185775000Y-130465686D02*
X185775000Y-129225000D01*
X185100000Y-131100000D02*
X185140686Y-131100000D01*
X187892132Y-128492856D02*
X188817804Y-128492856D01*
X185140686Y-131100000D02*
X185775000Y-130465686D01*
X182650000Y-133350000D02*
X184036346Y-133350000D01*
X187292494Y-129092494D02*
X187892132Y-128492856D01*
X164100000Y-136050000D02*
X180781372Y-136050000D01*
X134150000Y-135650000D02*
X163700000Y-135650000D01*
X184036346Y-133350000D02*
X185100000Y-132286346D01*
X180781372Y-136050000D02*
X182650000Y-134181372D01*
X185775000Y-129225000D02*
X185907506Y-129092494D01*
X185907506Y-129092494D02*
X187292494Y-129092494D01*
X132500000Y-134000000D02*
X134150000Y-135650000D01*
X163700000Y-135650000D02*
X164100000Y-136050000D01*
X163165685Y-137465685D02*
X79565685Y-137465685D01*
X188817804Y-133482196D02*
X184600000Y-137700000D01*
X79565685Y-137465685D02*
X78000000Y-135900000D01*
X184600000Y-137700000D02*
X163400000Y-137700000D01*
X62222058Y-133825000D02*
X59000000Y-133825000D01*
X64297058Y-135900000D02*
X62222058Y-133825000D01*
X163400000Y-137700000D02*
X163165685Y-137465685D01*
X78000000Y-135900000D02*
X64297058Y-135900000D01*
X188817804Y-132492856D02*
X188817804Y-133482196D01*
X399500000Y-133825000D02*
X394025000Y-139300000D01*
X194292804Y-134942856D02*
X194292804Y-133967856D01*
X198000000Y-136226304D02*
X197254005Y-135480309D01*
X394025000Y-139300000D02*
X200000000Y-139300000D01*
X200000000Y-139300000D02*
X198000000Y-137300000D01*
X198000000Y-137300000D02*
X198000000Y-136226304D01*
X197254005Y-135480309D02*
X194830257Y-135480309D01*
X194830257Y-135480309D02*
X194292804Y-134942856D01*
X190292804Y-133967856D02*
X188966458Y-133967856D01*
X78515685Y-137865685D02*
X78300000Y-137650000D01*
X78300000Y-137650000D02*
X65481372Y-137650000D01*
X64331372Y-136500000D02*
X44350000Y-136500000D01*
X65481372Y-137650000D02*
X64331372Y-136500000D01*
X44350000Y-136500000D02*
X41500000Y-133650000D01*
X188966458Y-133967856D02*
X184834314Y-138100000D01*
X184834314Y-138100000D02*
X163034315Y-138100000D01*
X162800000Y-137865685D02*
X78515685Y-137865685D01*
X163034315Y-138100000D02*
X162800000Y-137865685D01*
X23390000Y-131960000D02*
X23500000Y-131850000D01*
X20000000Y-131960000D02*
X23390000Y-131960000D01*
X111000000Y-131960000D02*
X113960000Y-131960000D01*
X113960000Y-131960000D02*
X114000000Y-132000000D01*
X38240000Y-132000000D02*
X38200000Y-131960000D01*
X41500000Y-132000000D02*
X38240000Y-132000000D01*
X129590000Y-132350000D02*
X129200000Y-131960000D01*
X132500000Y-132350000D02*
X129590000Y-132350000D01*
X58785000Y-131960000D02*
X59000000Y-132175000D01*
X55600000Y-131960000D02*
X58785000Y-131960000D01*
X145215000Y-131960000D02*
X144000000Y-133175000D01*
X147400000Y-131960000D02*
X145215000Y-131960000D01*
X77610000Y-131960000D02*
X78000000Y-132350000D01*
X74600000Y-131960000D02*
X77610000Y-131960000D01*
X169000000Y-131675000D02*
X165885000Y-131675000D01*
X165885000Y-131675000D02*
X165600000Y-131960000D01*
X92800000Y-131960000D02*
X95890000Y-131960000D01*
X95890000Y-131960000D02*
X96000000Y-131850000D01*
X180500000Y-131400000D02*
X180500000Y-132175000D01*
X381540000Y-131960000D02*
X381200000Y-132300000D01*
X384000000Y-131960000D02*
X381540000Y-131960000D01*
X191792804Y-124507196D02*
X192200000Y-124100000D01*
X191792804Y-125517856D02*
X191792804Y-124507196D01*
X204635000Y-131960000D02*
X204900000Y-132225000D01*
X202000000Y-131960000D02*
X204635000Y-131960000D01*
X187107144Y-127992856D02*
X187000000Y-128100000D01*
X188817804Y-127992856D02*
X187107144Y-127992856D01*
X290315000Y-131960000D02*
X290100000Y-132175000D01*
X293000000Y-131960000D02*
X290315000Y-131960000D01*
X193792804Y-124542856D02*
X192749948Y-123500000D01*
X160600000Y-129500000D02*
X158140000Y-129500000D01*
X162920000Y-127180000D02*
X160600000Y-129500000D01*
X193792804Y-125517856D02*
X193792804Y-124542856D01*
X163700000Y-123500000D02*
X162920000Y-124280000D01*
X162920000Y-124280000D02*
X162920000Y-127180000D01*
X192749948Y-123500000D02*
X163700000Y-123500000D01*
X217315000Y-131960000D02*
X217300000Y-131975000D01*
X220200000Y-131960000D02*
X217315000Y-131960000D01*
X308715000Y-131960000D02*
X308400000Y-132275000D01*
X311200000Y-131960000D02*
X308715000Y-131960000D01*
X238400000Y-131960000D02*
X235715000Y-131960000D01*
X235715000Y-131960000D02*
X235500000Y-132175000D01*
X256600000Y-131960000D02*
X254040000Y-131960000D01*
X254040000Y-131960000D02*
X253700000Y-132300000D01*
X347600000Y-131960000D02*
X345215000Y-131960000D01*
X345215000Y-131960000D02*
X344800000Y-132375000D01*
X274800000Y-131960000D02*
X272315000Y-131960000D01*
X272315000Y-131960000D02*
X272000000Y-132275000D01*
X365800000Y-131960000D02*
X363315000Y-131960000D01*
X363315000Y-131960000D02*
X363100000Y-132175000D01*
X329400000Y-131960000D02*
X326715000Y-131960000D01*
X326715000Y-131960000D02*
X326500000Y-132175000D01*
X55325000Y-139450000D02*
X56675000Y-138100000D01*
X52750000Y-139450000D02*
X55325000Y-139450000D01*
X51600000Y-138300000D02*
X52750000Y-139450000D01*
X59500000Y-139850000D02*
X59750000Y-139600000D01*
X49060000Y-138300000D02*
X50610000Y-139850000D01*
X50610000Y-139850000D02*
X59500000Y-139850000D01*
X193292804Y-134892856D02*
X193150000Y-135035660D01*
X193150000Y-135035660D02*
X193150000Y-135725000D01*
X195700000Y-136450000D02*
X194650000Y-137500000D01*
X193150000Y-135725000D02*
X194650000Y-137225000D01*
X193292804Y-133967856D02*
X193292804Y-134892856D01*
X197000000Y-136450000D02*
X195700000Y-136450000D01*
X402200000Y-131960000D02*
X399715000Y-131960000D01*
X399715000Y-131960000D02*
X399500000Y-132175000D01*
D28*
X405850000Y-127750000D02*
X405600000Y-127500000D01*
X411250000Y-127750000D02*
X405850000Y-127750000D01*
X411500000Y-127500000D02*
X411250000Y-127750000D01*
M02*
