M48
; DRILL file {KiCad 8.0.8-8.0.8-0~ubuntu24.04.1} date 2025-03-05T09:14:20+0100
; FORMAT={-:-/ absolute / inch / decimal}
; #@! TF.CreationDate,2025-03-05T09:14:20+01:00
; #@! TF.GenerationSoftware,Kicad,Pcbnew,8.0.8-8.0.8-0~ubuntu24.04.1
; #@! TF.FileFunction,Plated,1,4,PTH
FMAT,2
INCH
; #@! TA.AperFunction,Plated,PTH,ViaDrill
T1C0.0118
; #@! TA.AperFunction,Plated,PTH,ComponentDrill
T2C0.0374
; #@! TA.AperFunction,Plated,PTH,ComponentDrill
T3C0.0394
%
G90
G05
T1
X0.6614Y-5.1299
X0.6634Y-5.0118
X0.6634Y-5.0512
X0.6634Y-5.0906
X6.0669Y-5.2008
X6.0709Y-5.2638
X6.122Y-5.2894
X6.1614Y-5.5157
X6.1884Y-5.286
X6.2165Y-5.5157
X7.1063Y-5.1732
X7.2264Y-5.4921
X7.2568Y-5.484
X7.3622Y-5.0433
X7.3671Y-5.2214
X7.3701Y-5.185
X7.378Y-5.4685
X7.3937Y-4.9094
X7.3937Y-4.9488
X7.4803Y-5.0748
X7.4803Y-5.1378
X7.4882Y-5.2087
X7.4967Y-5.4947
X7.5039Y-5.0197
X7.5039Y-5.1142
X7.5118Y-4.8858
X7.5118Y-5.0827
X7.5276Y-5.3307
X7.5591Y-5.5079
X7.563Y-5.3268
X7.5669Y-4.8858
X7.5669Y-5.1969
X7.5686Y-5.23
X7.5866Y-5.1378
X7.5896Y-5.014
X7.5906Y-5.0748
X7.6339Y-5.2244
X7.689Y-5.2087
X7.7008Y-5.1614
X7.7165Y-5.1339
X7.7205Y-5.0354
X7.7211Y-5.0624
X7.7335Y-4.9746
X7.7559Y-4.9567
X7.7559Y-5.4685
X7.7598Y-4.9213
X7.8091Y-5.4843
X7.8268Y-5.0591
X7.8268Y-5.0906
X7.8346Y-5.5472
X7.8425Y-5.1299
X8.2047Y-4.9409
X8.3583Y-4.9567
X8.4094Y-4.8858
X8.4094Y-5.0276
X8.4646Y-4.9646
X8.4646Y-5.0276
X8.4724Y-4.8858
X8.5669Y-4.997
X8.5709Y-4.9262
X15.8031Y-4.8701
X15.8425Y-4.8701
X15.8819Y-4.8701
X15.9213Y-4.8701
T2
X0.2953Y-5.0157
X0.2953Y-5.1142
X0.2953Y-5.2126
X0.2953Y-5.311
X16.2008Y-5.0197
X16.2008Y-5.1181
X16.2008Y-5.2165
X16.2008Y-5.315
T3
X0.7874Y-4.9953
X0.7874Y-5.0953
X0.7874Y-5.1953
X0.7874Y-5.2953
X1.5039Y-4.9953
X1.5039Y-5.0953
X1.5039Y-5.1953
X1.5039Y-5.2953
X1.6315Y-5.4449
X1.7315Y-5.4449
X1.8315Y-5.4449
X1.9315Y-5.4449
X2.0315Y-5.4449
X2.1315Y-5.4449
X2.189Y-4.9953
X2.189Y-5.0953
X2.189Y-5.1953
X2.189Y-5.2953
X2.937Y-4.9953
X2.937Y-5.0953
X2.937Y-5.1953
X2.937Y-5.2953
X3.6535Y-4.9953
X3.6535Y-5.0953
X3.6535Y-5.1953
X3.6535Y-5.2953
X4.3701Y-4.9953
X4.3701Y-5.0953
X4.3701Y-5.1953
X4.3701Y-5.2953
X5.0866Y-4.9953
X5.0866Y-5.0953
X5.0866Y-5.1953
X5.0866Y-5.2953
X5.8031Y-4.9953
X5.8031Y-5.0953
X5.8031Y-5.1953
X5.8031Y-5.2953
X6.026Y-4.9984
X6.026Y-5.0984
X6.126Y-4.9984
X6.126Y-5.0984
X6.226Y-4.9984
X6.226Y-5.0984
X6.5197Y-4.9953
X6.5197Y-5.0953
X6.5197Y-5.1953
X6.5197Y-5.2953
X7.2362Y-4.9953
X7.2362Y-5.0953
X7.2362Y-5.1953
X7.2362Y-5.2953
X7.9528Y-4.9953
X7.9528Y-5.0953
X7.9528Y-5.1953
X7.9528Y-5.2953
X8.6693Y-4.9953
X8.6693Y-5.0953
X8.6693Y-5.1953
X8.6693Y-5.2953
X9.3858Y-4.9953
X9.3858Y-5.0953
X9.3858Y-5.1953
X9.3858Y-5.2953
X10.1024Y-4.9953
X10.1024Y-5.0953
X10.1024Y-5.1953
X10.1024Y-5.2953
X10.8189Y-4.9953
X10.8189Y-5.0953
X10.8189Y-5.1953
X10.8189Y-5.2953
X11.5354Y-4.9953
X11.5354Y-5.0953
X11.5354Y-5.1953
X11.5354Y-5.2953
X12.252Y-4.9953
X12.252Y-5.0953
X12.252Y-5.1953
X12.252Y-5.2953
X12.9685Y-4.9953
X12.9685Y-5.0953
X12.9685Y-5.1953
X12.9685Y-5.2953
X13.685Y-4.9953
X13.685Y-5.0953
X13.685Y-5.1953
X13.685Y-5.2953
X14.4016Y-4.9953
X14.4016Y-5.0953
X14.4016Y-5.1953
X14.4016Y-5.2953
X15.1181Y-4.9953
X15.1181Y-5.0953
X15.1181Y-5.1953
X15.1181Y-5.2953
X15.8346Y-4.9953
X15.8346Y-5.0953
X15.8346Y-5.1953
X15.8346Y-5.2953
M30
