%TF.GenerationSoftware,KiCad,Pcbnew,8.0.8-8.0.8-0~ubuntu24.04.1*%
%TF.CreationDate,2025-03-05T09:14:19+01:00*%
%TF.ProjectId,UniMixFeeders,556e694d-6978-4466-9565-646572732e6b,rev?*%
%TF.SameCoordinates,Original*%
%TF.FileFunction,Copper,L4,Bot*%
%TF.FilePolarity,Positive*%
%FSLAX46Y46*%
G04 Gerber Fmt 4.6, Leading zero omitted, Abs format (unit mm)*
G04 Created by KiCad (PCBNEW 8.0.8-8.0.8-0~ubuntu24.04.1) date 2025-03-05 09:14:19*
%MOMM*%
%LPD*%
G01*
G04 APERTURE LIST*
G04 Aperture macros list*
%AMRoundRect*
0 Rectangle with rounded corners*
0 $1 Rounding radius*
0 $2 $3 $4 $5 $6 $7 $8 $9 X,Y pos of 4 corners*
0 Add a 4 corners polygon primitive as box body*
4,1,4,$2,$3,$4,$5,$6,$7,$8,$9,$2,$3,0*
0 Add four circle primitives for the rounded corners*
1,1,$1+$1,$2,$3*
1,1,$1+$1,$4,$5*
1,1,$1+$1,$6,$7*
1,1,$1+$1,$8,$9*
0 Add four rect primitives between the rounded corners*
20,1,$1+$1,$2,$3,$4,$5,0*
20,1,$1+$1,$4,$5,$6,$7,0*
20,1,$1+$1,$6,$7,$8,$9,0*
20,1,$1+$1,$8,$9,$2,$3,0*%
%AMFreePoly0*
4,1,19,0.500000,-0.750000,0.000000,-0.750000,0.000000,-0.744911,-0.071157,-0.744911,-0.207708,-0.704816,-0.327430,-0.627875,-0.420627,-0.520320,-0.479746,-0.390866,-0.500000,-0.250000,-0.500000,0.250000,-0.479746,0.390866,-0.420627,0.520320,-0.327430,0.627875,-0.207708,0.704816,-0.071157,0.744911,0.000000,0.744911,0.000000,0.750000,0.500000,0.750000,0.500000,-0.750000,0.500000,-0.750000,
$1*%
%AMFreePoly1*
4,1,19,0.000000,0.744911,0.071157,0.744911,0.207708,0.704816,0.327430,0.627875,0.420627,0.520320,0.479746,0.390866,0.500000,0.250000,0.500000,-0.250000,0.479746,-0.390866,0.420627,-0.520320,0.327430,-0.627875,0.207708,-0.704816,0.071157,-0.744911,0.000000,-0.744911,0.000000,-0.750000,-0.500000,-0.750000,-0.500000,0.750000,0.000000,0.750000,0.000000,0.744911,0.000000,0.744911,
$1*%
G04 Aperture macros list end*
%TA.AperFunction,ComponentPad*%
%ADD10R,1.700000X1.700000*%
%TD*%
%TA.AperFunction,ComponentPad*%
%ADD11O,1.700000X1.700000*%
%TD*%
%TA.AperFunction,ComponentPad*%
%ADD12RoundRect,0.250000X-0.725000X0.600000X-0.725000X-0.600000X0.725000X-0.600000X0.725000X0.600000X0*%
%TD*%
%TA.AperFunction,ComponentPad*%
%ADD13O,1.950000X1.700000*%
%TD*%
%TA.AperFunction,ComponentPad*%
%ADD14RoundRect,0.250000X0.725000X-0.600000X0.725000X0.600000X-0.725000X0.600000X-0.725000X-0.600000X0*%
%TD*%
%TA.AperFunction,SMDPad,CuDef*%
%ADD15RoundRect,0.225000X-0.225000X-0.250000X0.225000X-0.250000X0.225000X0.250000X-0.225000X0.250000X0*%
%TD*%
%TA.AperFunction,SMDPad,CuDef*%
%ADD16R,1.150000X0.600000*%
%TD*%
%TA.AperFunction,SMDPad,CuDef*%
%ADD17RoundRect,0.225000X0.225000X0.250000X-0.225000X0.250000X-0.225000X-0.250000X0.225000X-0.250000X0*%
%TD*%
%TA.AperFunction,SMDPad,CuDef*%
%ADD18RoundRect,0.250000X-0.650000X0.325000X-0.650000X-0.325000X0.650000X-0.325000X0.650000X0.325000X0*%
%TD*%
%TA.AperFunction,SMDPad,CuDef*%
%ADD19RoundRect,0.225000X-0.250000X0.225000X-0.250000X-0.225000X0.250000X-0.225000X0.250000X0.225000X0*%
%TD*%
%TA.AperFunction,SMDPad,CuDef*%
%ADD20FreePoly0,0.000000*%
%TD*%
%TA.AperFunction,SMDPad,CuDef*%
%ADD21FreePoly1,0.000000*%
%TD*%
%TA.AperFunction,SMDPad,CuDef*%
%ADD22FreePoly0,180.000000*%
%TD*%
%TA.AperFunction,SMDPad,CuDef*%
%ADD23FreePoly1,180.000000*%
%TD*%
%TA.AperFunction,ViaPad*%
%ADD24C,0.600000*%
%TD*%
%TA.AperFunction,Conductor*%
%ADD25C,0.500000*%
%TD*%
%TA.AperFunction,Conductor*%
%ADD26C,0.300000*%
%TD*%
%TA.AperFunction,Conductor*%
%ADD27C,0.200000*%
%TD*%
%TA.AperFunction,Conductor*%
%ADD28C,1.000000*%
%TD*%
G04 APERTURE END LIST*
D10*
X402200000Y-134500000D03*
D11*
X402200000Y-131960000D03*
X402200000Y-129420000D03*
X402200000Y-126880000D03*
D12*
X411500000Y-127500000D03*
D13*
X411500000Y-130000000D03*
X411500000Y-132500000D03*
X411500000Y-135000000D03*
D10*
X153060000Y-129500000D03*
D11*
X153060000Y-126960000D03*
X155600000Y-129500000D03*
X155600000Y-126960000D03*
X158140000Y-129500000D03*
X158140000Y-126960000D03*
D14*
X7500000Y-134900000D03*
D13*
X7500000Y-132400000D03*
X7500000Y-129900000D03*
X7500000Y-127400000D03*
D10*
X41440000Y-138300000D03*
D11*
X43980000Y-138300000D03*
X46520000Y-138300000D03*
X49060000Y-138300000D03*
X51600000Y-138300000D03*
X54140000Y-138300000D03*
D15*
X215400000Y-125125000D03*
X216950000Y-125125000D03*
D16*
X213600000Y-124925000D03*
X213600000Y-125875000D03*
X213600000Y-126825000D03*
X211000000Y-126825000D03*
X211000000Y-124925000D03*
D10*
X129200000Y-134500000D03*
D11*
X129200000Y-131960000D03*
X129200000Y-129420000D03*
X129200000Y-126880000D03*
D10*
X347600000Y-134500000D03*
D11*
X347600000Y-131960000D03*
X347600000Y-129420000D03*
X347600000Y-126880000D03*
D17*
X195175000Y-127300000D03*
X193625000Y-127300000D03*
D10*
X202000000Y-134500000D03*
D11*
X202000000Y-131960000D03*
X202000000Y-129420000D03*
X202000000Y-126880000D03*
D10*
X274800000Y-134500000D03*
D11*
X274800000Y-131960000D03*
X274800000Y-129420000D03*
X274800000Y-126880000D03*
D10*
X384000000Y-134500000D03*
D11*
X384000000Y-131960000D03*
X384000000Y-129420000D03*
X384000000Y-126880000D03*
D10*
X238400000Y-134500000D03*
D11*
X238400000Y-131960000D03*
X238400000Y-129420000D03*
X238400000Y-126880000D03*
D17*
X194600000Y-132000000D03*
X193050000Y-132000000D03*
D18*
X208400000Y-123825000D03*
X208400000Y-126775000D03*
D15*
X215375000Y-126925000D03*
X216925000Y-126925000D03*
D17*
X195150000Y-128900000D03*
X193600000Y-128900000D03*
D10*
X293000000Y-134500000D03*
D11*
X293000000Y-131960000D03*
X293000000Y-129420000D03*
X293000000Y-126880000D03*
D10*
X220200000Y-134500000D03*
D11*
X220200000Y-131960000D03*
X220200000Y-129420000D03*
X220200000Y-126880000D03*
D10*
X55600000Y-134500000D03*
D11*
X55600000Y-131960000D03*
X55600000Y-129420000D03*
X55600000Y-126880000D03*
D10*
X74600000Y-134500000D03*
D11*
X74600000Y-131960000D03*
X74600000Y-129420000D03*
X74600000Y-126880000D03*
D17*
X194950000Y-130500000D03*
X193400000Y-130500000D03*
D10*
X365800000Y-134500000D03*
D11*
X365800000Y-131960000D03*
X365800000Y-129420000D03*
X365800000Y-126880000D03*
D10*
X183800000Y-134500000D03*
D11*
X183800000Y-131960000D03*
X183800000Y-129420000D03*
X183800000Y-126880000D03*
D19*
X191200000Y-130650000D03*
X191200000Y-132200000D03*
D10*
X311200000Y-134500000D03*
D11*
X311200000Y-131960000D03*
X311200000Y-129420000D03*
X311200000Y-126880000D03*
D10*
X147400000Y-134500000D03*
D11*
X147400000Y-131960000D03*
X147400000Y-129420000D03*
X147400000Y-126880000D03*
D10*
X20000000Y-134500000D03*
D11*
X20000000Y-131960000D03*
X20000000Y-129420000D03*
X20000000Y-126880000D03*
D10*
X111000000Y-134500000D03*
D11*
X111000000Y-131960000D03*
X111000000Y-129420000D03*
X111000000Y-126880000D03*
D20*
X193200000Y-124700000D03*
D21*
X194500000Y-124700000D03*
D10*
X38200000Y-134500000D03*
D11*
X38200000Y-131960000D03*
X38200000Y-129420000D03*
X38200000Y-126880000D03*
D10*
X165600000Y-134500000D03*
D11*
X165600000Y-131960000D03*
X165600000Y-129420000D03*
X165600000Y-126880000D03*
D19*
X191800000Y-127525000D03*
X191800000Y-129075000D03*
D10*
X329400000Y-134500000D03*
D11*
X329400000Y-131960000D03*
X329400000Y-129420000D03*
X329400000Y-126880000D03*
D22*
X190050000Y-124700000D03*
D23*
X188750000Y-124700000D03*
D10*
X256600000Y-134500000D03*
D11*
X256600000Y-131960000D03*
X256600000Y-129420000D03*
X256600000Y-126880000D03*
D10*
X92800000Y-134500000D03*
D11*
X92800000Y-131960000D03*
X92800000Y-129420000D03*
X92800000Y-126880000D03*
D24*
X192700000Y-130500000D03*
X190000000Y-128900000D03*
X208400000Y-125500000D03*
X192242845Y-132842885D03*
X217600000Y-126925000D03*
X154200000Y-133700000D03*
X190200000Y-132300000D03*
X192800000Y-128900000D03*
X187800000Y-124700000D03*
X212300000Y-125900000D03*
X155500000Y-134350000D03*
X187400000Y-138900000D03*
X192775000Y-127354739D03*
X217700000Y-125125000D03*
X196114935Y-128584148D03*
X197000000Y-138900000D03*
X190800000Y-129100000D03*
X196100000Y-127900000D03*
X197100000Y-125000000D03*
X192200000Y-132000000D03*
X215000000Y-127700000D03*
X213600000Y-124100000D03*
X16850000Y-129300000D03*
X401400000Y-123700000D03*
X16850000Y-127300000D03*
X16800000Y-130300000D03*
X404400000Y-123700000D03*
X403400000Y-123700000D03*
X213600000Y-127700000D03*
X402400000Y-123700000D03*
X16850000Y-128300000D03*
X198800000Y-128500000D03*
X215000000Y-126100000D03*
X215200000Y-124100000D03*
X196429887Y-126355771D03*
X187800000Y-125700000D03*
X190000000Y-130500000D03*
X190600000Y-129900000D03*
X196000000Y-130400000D03*
X195600000Y-131100000D03*
X195300000Y-132300000D03*
X197000000Y-125900000D03*
X193900000Y-132700000D03*
X190600000Y-127500000D03*
X198800000Y-129300000D03*
X198350000Y-139300000D03*
X199200000Y-130300000D03*
X199000000Y-140900000D03*
X154100000Y-132100000D03*
X157900000Y-140100000D03*
X192100000Y-135300000D03*
X192000000Y-139900000D03*
X157184620Y-134265380D03*
X156500000Y-140100000D03*
X191200000Y-135400000D03*
X190415352Y-139565407D03*
X187200000Y-131700000D03*
X183550000Y-139500000D03*
X184322991Y-139293869D03*
X187124265Y-132624265D03*
X190800000Y-124100000D03*
X180500000Y-131400000D03*
X192200000Y-124100000D03*
X187000000Y-128100000D03*
D25*
X213600000Y-125875000D02*
X212325000Y-125875000D01*
D26*
X191200000Y-132200000D02*
X190300000Y-132200000D01*
D27*
X188750000Y-124700000D02*
X187800000Y-124700000D01*
D26*
X190300000Y-132200000D02*
X190200000Y-132300000D01*
D27*
X193600000Y-128900000D02*
X192800000Y-128900000D01*
D25*
X212325000Y-125875000D02*
X212300000Y-125900000D01*
D27*
X192829739Y-127300000D02*
X192775000Y-127354739D01*
X193625000Y-127300000D02*
X192829739Y-127300000D01*
X191800000Y-129075000D02*
X190825000Y-129075000D01*
X194500000Y-124700000D02*
X196800000Y-124700000D01*
D28*
X208400000Y-126775000D02*
X208400000Y-125500000D01*
D25*
X217600000Y-126925000D02*
X216925000Y-126925000D01*
D26*
X193050000Y-132000000D02*
X192200000Y-132000000D01*
D27*
X196800000Y-124700000D02*
X197100000Y-125000000D01*
D25*
X217700000Y-125125000D02*
X216950000Y-125125000D01*
D26*
X192700000Y-130500000D02*
X193800000Y-130500000D01*
D27*
X190825000Y-129075000D02*
X190800000Y-129100000D01*
D26*
X198800000Y-128500000D02*
X201080000Y-128500000D01*
X197265852Y-129234148D02*
X198000000Y-128500000D01*
X195484148Y-129234148D02*
X197265852Y-129234148D01*
D25*
X213600000Y-124100000D02*
X213600000Y-124925000D01*
X213600000Y-126825000D02*
X213600000Y-127500000D01*
D26*
X195175000Y-128875000D02*
X195150000Y-128900000D01*
X201080000Y-128500000D02*
X202000000Y-129420000D01*
X198000000Y-128500000D02*
X198800000Y-128500000D01*
X195175000Y-127300000D02*
X195175000Y-128875000D01*
X195150000Y-128900000D02*
X195484148Y-129234148D01*
D25*
X215375000Y-127775000D02*
X215400000Y-127800000D01*
X215200000Y-124925000D02*
X215400000Y-125125000D01*
X215400000Y-125125000D02*
X215400000Y-124300000D01*
D28*
X209900000Y-123825000D02*
X211000000Y-124925000D01*
X208400000Y-123825000D02*
X209900000Y-123825000D01*
D26*
X190600000Y-129900000D02*
X190600000Y-130050000D01*
X194800000Y-132300000D02*
X194600000Y-132100000D01*
D27*
X194950000Y-130500000D02*
X195000000Y-130500000D01*
D26*
X191182194Y-130482194D02*
X190600000Y-129900000D01*
X190600000Y-130050000D02*
X191050000Y-130500000D01*
D28*
X196785658Y-126000000D02*
X196429887Y-126355771D01*
X199500000Y-126000000D02*
X196785658Y-126000000D01*
D26*
X195400000Y-132300000D02*
X194800000Y-132300000D01*
D28*
X208400000Y-123825000D02*
X201675000Y-123825000D01*
D27*
X195000000Y-130500000D02*
X195600000Y-131100000D01*
D28*
X201675000Y-123825000D02*
X199500000Y-126000000D01*
D26*
X190600000Y-127500000D02*
X191800000Y-127525000D01*
X198550000Y-129550000D02*
X198550000Y-134050000D01*
X198350000Y-134350000D02*
X198350000Y-139300000D01*
X198600000Y-134100000D02*
X198350000Y-134350000D01*
X198800000Y-129300000D02*
X198550000Y-129550000D01*
X198550000Y-134050000D02*
X198600000Y-134100000D01*
X199300000Y-134400000D02*
X199300000Y-130400000D01*
X199300000Y-134400000D02*
X199000000Y-134700000D01*
X199000000Y-134700000D02*
X199000000Y-140900000D01*
X199300000Y-130400000D02*
X199200000Y-130300000D01*
D27*
X155867769Y-132100000D02*
X154100000Y-132100000D01*
X192100000Y-139800000D02*
X192000000Y-139900000D01*
X157900000Y-140100000D02*
X157900000Y-134132231D01*
X192100000Y-135300000D02*
X192100000Y-139800000D01*
X157900000Y-134132231D02*
X155867769Y-132100000D01*
X191700000Y-138280759D02*
X190415352Y-139565407D01*
X191200000Y-135400000D02*
X191700000Y-135900000D01*
X191700000Y-135900000D02*
X191700000Y-138280759D01*
X157100000Y-134350000D02*
X157184620Y-134265380D01*
X157100000Y-139500000D02*
X157100000Y-134350000D01*
X156500000Y-140100000D02*
X157100000Y-139500000D01*
X185200000Y-135800000D02*
X183700000Y-137300000D01*
X187200000Y-131700000D02*
X185200000Y-133700000D01*
X183700000Y-139350000D02*
X183550000Y-139500000D01*
X183700000Y-137300000D02*
X183700000Y-139350000D01*
X185200000Y-133700000D02*
X185200000Y-135800000D01*
X185600000Y-136000000D02*
X184300000Y-137300000D01*
X185600000Y-133900000D02*
X185600000Y-136000000D01*
X187124265Y-132624265D02*
X186875735Y-132624265D01*
X186875735Y-132624265D02*
X185600000Y-133900000D01*
X184300000Y-137300000D02*
X184300000Y-139270878D01*
X184300000Y-139270878D02*
X184322991Y-139293869D01*
X190800000Y-124100000D02*
X190650000Y-124100000D01*
X190650000Y-124100000D02*
X190050000Y-124700000D01*
X181060000Y-131960000D02*
X180500000Y-131400000D01*
X183800000Y-131960000D02*
X181060000Y-131960000D01*
X192600000Y-124100000D02*
X193200000Y-124700000D01*
X192200000Y-124100000D02*
X192600000Y-124100000D01*
X155600000Y-126960000D02*
X158030000Y-124530000D01*
X179600000Y-128100000D02*
X187000000Y-128100000D01*
X176030000Y-124530000D02*
X179600000Y-128100000D01*
X158030000Y-124530000D02*
X176030000Y-124530000D01*
%TA.AperFunction,Conductor*%
G36*
X214806061Y-123500597D02*
G01*
X214982941Y-123518018D01*
X215006769Y-123522757D01*
X215171001Y-123572576D01*
X215193453Y-123581877D01*
X215344798Y-123662772D01*
X215365010Y-123676277D01*
X215497666Y-123785145D01*
X215514854Y-123802333D01*
X215623722Y-123934989D01*
X215637227Y-123955201D01*
X215718121Y-124106543D01*
X215727424Y-124129001D01*
X215777240Y-124293224D01*
X215781982Y-124317065D01*
X215799403Y-124493938D01*
X215800000Y-124506092D01*
X215800000Y-127193907D01*
X215799403Y-127206061D01*
X215781982Y-127382934D01*
X215777240Y-127406775D01*
X215727424Y-127570998D01*
X215718121Y-127593456D01*
X215637227Y-127744798D01*
X215623722Y-127765010D01*
X215514854Y-127897666D01*
X215497666Y-127914854D01*
X215365010Y-128023722D01*
X215344798Y-128037227D01*
X215193456Y-128118121D01*
X215170998Y-128127424D01*
X215006775Y-128177240D01*
X214982934Y-128181982D01*
X214806061Y-128199403D01*
X214793907Y-128200000D01*
X213082923Y-128200000D01*
X213058731Y-128197617D01*
X213029574Y-128191817D01*
X212984874Y-128173301D01*
X212970507Y-128163701D01*
X212936298Y-128129492D01*
X212926698Y-128115125D01*
X212908182Y-128070425D01*
X212902381Y-128041263D01*
X212900000Y-128017076D01*
X212900000Y-126699499D01*
X212919685Y-126632460D01*
X212972489Y-126586705D01*
X213023995Y-126575499D01*
X214206518Y-126575499D01*
X214300304Y-126560646D01*
X214413342Y-126503050D01*
X214503050Y-126413342D01*
X214560646Y-126300304D01*
X214560646Y-126300302D01*
X214560647Y-126300301D01*
X214575499Y-126206524D01*
X214575500Y-126206519D01*
X214575499Y-125543482D01*
X214560646Y-125449696D01*
X214503050Y-125336658D01*
X214503046Y-125336654D01*
X214503045Y-125336652D01*
X214413347Y-125246954D01*
X214413344Y-125246952D01*
X214413342Y-125246950D01*
X214320217Y-125199500D01*
X214300301Y-125189352D01*
X214206524Y-125174500D01*
X213024000Y-125174500D01*
X212956961Y-125154815D01*
X212911206Y-125102011D01*
X212900000Y-125050500D01*
X212900000Y-124506092D01*
X212900597Y-124493938D01*
X212918018Y-124317056D01*
X212922757Y-124293232D01*
X212972577Y-124128994D01*
X212981875Y-124106549D01*
X213062775Y-123955195D01*
X213076272Y-123934995D01*
X213185149Y-123802328D01*
X213202328Y-123785149D01*
X213334995Y-123676272D01*
X213355195Y-123662775D01*
X213506549Y-123581875D01*
X213528994Y-123572577D01*
X213693232Y-123522757D01*
X213717056Y-123518018D01*
X213893939Y-123500597D01*
X213906093Y-123500000D01*
X214793907Y-123500000D01*
X214806061Y-123500597D01*
G37*
%TD.AperFunction*%
M02*
