%TF.GenerationSoftware,KiCad,Pcbnew,5.99.0-unknown-b90e72ed07~107~ubuntu18.04.1*%
%TF.CreationDate,2021-02-01T09:40:27+01:00*%
%TF.ProjectId,Uni_Printer,556e695f-5072-4696-9e74-65722e6b6963,rev?*%
%TF.SameCoordinates,PX48009e0PY88da2e0*%
%TF.FileFunction,Copper,L4,Bot*%
%TF.FilePolarity,Positive*%
%FSLAX46Y46*%
G04 Gerber Fmt 4.6, Leading zero omitted, Abs format (unit mm)*
G04 Created by KiCad (PCBNEW 5.99.0-unknown-b90e72ed07~107~ubuntu18.04.1) date 2021-02-01 09:40:27*
%MOMM*%
%LPD*%
G01*
G04 APERTURE LIST*
%TA.AperFunction,ComponentPad*%
%ADD10R,1.800000X3.600000*%
%TD*%
%TA.AperFunction,ComponentPad*%
%ADD11O,1.800000X3.600000*%
%TD*%
%TA.AperFunction,ComponentPad*%
%ADD12R,1.500000X1.500000*%
%TD*%
%TA.AperFunction,ComponentPad*%
%ADD13C,1.500000*%
%TD*%
%TA.AperFunction,ComponentPad*%
%ADD14R,3.600000X1.800000*%
%TD*%
%TA.AperFunction,ComponentPad*%
%ADD15O,3.600000X1.800000*%
%TD*%
%TA.AperFunction,ComponentPad*%
%ADD16R,1.700000X1.700000*%
%TD*%
%TA.AperFunction,ComponentPad*%
%ADD17O,1.700000X1.700000*%
%TD*%
%TA.AperFunction,ComponentPad*%
%ADD18R,1.778000X1.778000*%
%TD*%
%TA.AperFunction,ComponentPad*%
%ADD19C,1.778000*%
%TD*%
%TA.AperFunction,ComponentPad*%
%ADD20C,2.032000*%
%TD*%
%TA.AperFunction,ComponentPad*%
%ADD21C,2.540000*%
%TD*%
%TA.AperFunction,ComponentPad*%
%ADD22C,1.700000*%
%TD*%
%TA.AperFunction,ComponentPad*%
%ADD23C,3.500000*%
%TD*%
%TA.AperFunction,SMDPad,CuDef*%
%ADD24R,1.000000X1.500000*%
%TD*%
%TA.AperFunction,SMDPad,CuDef*%
%ADD25R,1.500000X1.000000*%
%TD*%
%TA.AperFunction,ViaPad*%
%ADD26C,0.600000*%
%TD*%
%TA.AperFunction,ViaPad*%
%ADD27C,1.000000*%
%TD*%
%TA.AperFunction,ViaPad*%
%ADD28C,0.800000*%
%TD*%
%TA.AperFunction,Conductor*%
%ADD29C,0.800000*%
%TD*%
%TA.AperFunction,Conductor*%
%ADD30C,0.200000*%
%TD*%
%TA.AperFunction,Conductor*%
%ADD31C,1.000000*%
%TD*%
%TA.AperFunction,Conductor*%
%ADD32C,0.300000*%
%TD*%
G04 APERTURE END LIST*
D10*
X4700000Y7500000D03*
D11*
X8200000Y7500000D03*
X11700000Y7500000D03*
X15200000Y7500000D03*
X18700000Y7500000D03*
X22200000Y7500000D03*
X25700000Y7500000D03*
X29200000Y7500000D03*
X32700000Y7500000D03*
X36200000Y7500000D03*
D12*
X10300000Y79900000D03*
D13*
X12840000Y78630000D03*
X10300000Y77360000D03*
X12840000Y76090000D03*
X10300000Y74820000D03*
X12840000Y73550000D03*
X10300000Y72280000D03*
X12840000Y71010000D03*
D14*
X73100000Y42500000D03*
D15*
X73100000Y46000000D03*
X73100000Y49500000D03*
X73100000Y53000000D03*
X73100000Y56500000D03*
X73100000Y60000000D03*
X73100000Y63500000D03*
X73100000Y67000000D03*
X73100000Y70500000D03*
X73100000Y74000000D03*
D16*
X3500000Y47120000D03*
D17*
X6040000Y47120000D03*
X3500000Y44580000D03*
X6040000Y44580000D03*
X3500000Y42040000D03*
X6040000Y42040000D03*
X3500000Y39500000D03*
X6040000Y39500000D03*
X3500000Y36960000D03*
X6040000Y36960000D03*
X3500000Y34420000D03*
X6040000Y34420000D03*
X3500000Y31880000D03*
X6040000Y31880000D03*
X3500000Y29340000D03*
X6040000Y29340000D03*
X3500000Y26800000D03*
X6040000Y26800000D03*
X3500000Y24260000D03*
X6040000Y24260000D03*
X3500000Y21720000D03*
X6040000Y21720000D03*
X3500000Y19180000D03*
X6040000Y19180000D03*
X3500000Y16640000D03*
X6040000Y16640000D03*
X3500000Y14100000D03*
X6040000Y14100000D03*
D10*
X77900000Y119900000D03*
D11*
X74400000Y119900000D03*
X70900000Y119900000D03*
X67400000Y119900000D03*
X63900000Y119900000D03*
X60400000Y119900000D03*
X56900000Y119900000D03*
X53400000Y119900000D03*
X49900000Y119900000D03*
X46400000Y119900000D03*
D10*
X34500000Y119900000D03*
D11*
X31000000Y119900000D03*
X27500000Y119900000D03*
X24000000Y119900000D03*
X20500000Y119900000D03*
X17000000Y119900000D03*
X13500000Y119900000D03*
X10000000Y119900000D03*
X6500000Y119900000D03*
X3000000Y119900000D03*
D10*
X45100000Y7500000D03*
D11*
X48600000Y7500000D03*
X52100000Y7500000D03*
X55600000Y7500000D03*
X59100000Y7500000D03*
X62600000Y7500000D03*
X66100000Y7500000D03*
X69600000Y7500000D03*
X73100000Y7500000D03*
X76600000Y7500000D03*
D14*
X73100000Y79900000D03*
D15*
X73100000Y83400000D03*
X73100000Y86900000D03*
X73100000Y90400000D03*
X73100000Y93900000D03*
X73100000Y97400000D03*
X73100000Y100900000D03*
X73100000Y104400000D03*
X73100000Y107900000D03*
X73100000Y111400000D03*
D18*
X68100000Y24600000D03*
D19*
X65560000Y25870000D03*
X68100000Y27140000D03*
X65560000Y28410000D03*
X68100000Y29680000D03*
X65560000Y30950000D03*
X68100000Y32220000D03*
X65560000Y33490000D03*
D20*
X78564800Y22395400D03*
X78564800Y24935000D03*
X78564800Y33130000D03*
X78564800Y35669200D03*
D21*
X71400000Y36795000D03*
X71400000Y21295000D03*
D16*
X15500000Y95500000D03*
D22*
X15500000Y98000000D03*
X13500000Y98000000D03*
X13500000Y95500000D03*
D23*
X10790000Y102770000D03*
X10790000Y90730000D03*
D16*
X36000000Y88000000D03*
D17*
X38540000Y88000000D03*
X41080000Y88000000D03*
X43620000Y88000000D03*
D12*
X10300000Y62100000D03*
D13*
X12840000Y60830000D03*
X10300000Y59560000D03*
X12840000Y58290000D03*
X10300000Y57020000D03*
X12840000Y55750000D03*
X10300000Y54480000D03*
X12840000Y53210000D03*
%TA.AperFunction,SMDPad,CuDef*%
G36*
X65650000Y94650000D02*
G01*
X65100000Y94650000D01*
X65100000Y94654967D01*
X65020059Y94656432D01*
X64884744Y94698707D01*
X64766734Y94777262D01*
X64675514Y94885781D01*
X64618419Y95015540D01*
X64600836Y95150000D01*
X64600000Y95150000D01*
X64600000Y95650000D01*
X64600836Y95650000D01*
X64600037Y95656109D01*
X64621848Y95796186D01*
X64682096Y95924511D01*
X64775940Y96030769D01*
X64895835Y96106417D01*
X65032142Y96145374D01*
X65100000Y96144959D01*
X65100000Y96150000D01*
X65650000Y96150000D01*
X65650000Y94650000D01*
G37*
%TD.AperFunction*%
D24*
X66400000Y95400000D03*
%TA.AperFunction,SMDPad,CuDef*%
G36*
X67700000Y96144959D02*
G01*
X67773905Y96144508D01*
X67909726Y96103889D01*
X68028688Y96026782D01*
X68121226Y95919385D01*
X68179903Y95790333D01*
X68200000Y95650000D01*
X68200000Y95150000D01*
X68199851Y95137784D01*
X68176331Y94997983D01*
X68114519Y94870404D01*
X68019384Y94765300D01*
X67898574Y94691123D01*
X67761801Y94653834D01*
X67700000Y94654967D01*
X67700000Y94650000D01*
X67150000Y94650000D01*
X67150000Y96150000D01*
X67700000Y96150000D01*
X67700000Y96144959D01*
G37*
%TD.AperFunction*%
%TA.AperFunction,SMDPad,CuDef*%
G36*
X59850000Y91950000D02*
G01*
X60400000Y91950000D01*
X60400000Y91945033D01*
X60479941Y91943568D01*
X60615256Y91901293D01*
X60733266Y91822738D01*
X60824486Y91714219D01*
X60881581Y91584460D01*
X60899164Y91450000D01*
X60900000Y91450000D01*
X60900000Y90950000D01*
X60899164Y90950000D01*
X60899963Y90943891D01*
X60878152Y90803814D01*
X60817904Y90675489D01*
X60724060Y90569231D01*
X60604165Y90493583D01*
X60467858Y90454626D01*
X60400000Y90455041D01*
X60400000Y90450000D01*
X59850000Y90450000D01*
X59850000Y91950000D01*
G37*
%TD.AperFunction*%
X59100000Y91200000D03*
%TA.AperFunction,SMDPad,CuDef*%
G36*
X57800000Y90455041D02*
G01*
X57726095Y90455492D01*
X57590274Y90496111D01*
X57471312Y90573218D01*
X57378774Y90680615D01*
X57320097Y90809667D01*
X57300000Y90950000D01*
X57300000Y91450000D01*
X57300149Y91462216D01*
X57323669Y91602017D01*
X57385481Y91729596D01*
X57480616Y91834700D01*
X57601426Y91908877D01*
X57738199Y91946166D01*
X57800000Y91945033D01*
X57800000Y91950000D01*
X58350000Y91950000D01*
X58350000Y90450000D01*
X57800000Y90450000D01*
X57800000Y90455041D01*
G37*
%TD.AperFunction*%
%TA.AperFunction,SMDPad,CuDef*%
G36*
X65650000Y90450000D02*
G01*
X65100000Y90450000D01*
X65100000Y90454967D01*
X65020059Y90456432D01*
X64884744Y90498707D01*
X64766734Y90577262D01*
X64675514Y90685781D01*
X64618419Y90815540D01*
X64600836Y90950000D01*
X64600000Y90950000D01*
X64600000Y91450000D01*
X64600836Y91450000D01*
X64600037Y91456109D01*
X64621848Y91596186D01*
X64682096Y91724511D01*
X64775940Y91830769D01*
X64895835Y91906417D01*
X65032142Y91945374D01*
X65100000Y91944959D01*
X65100000Y91950000D01*
X65650000Y91950000D01*
X65650000Y90450000D01*
G37*
%TD.AperFunction*%
X66400000Y91200000D03*
%TA.AperFunction,SMDPad,CuDef*%
G36*
X67700000Y91944959D02*
G01*
X67773905Y91944508D01*
X67909726Y91903889D01*
X68028688Y91826782D01*
X68121226Y91719385D01*
X68179903Y91590333D01*
X68200000Y91450000D01*
X68200000Y90950000D01*
X68199851Y90937784D01*
X68176331Y90797983D01*
X68114519Y90670404D01*
X68019384Y90565300D01*
X67898574Y90491123D01*
X67761801Y90453834D01*
X67700000Y90454967D01*
X67700000Y90450000D01*
X67150000Y90450000D01*
X67150000Y91950000D01*
X67700000Y91950000D01*
X67700000Y91944959D01*
G37*
%TD.AperFunction*%
%TA.AperFunction,SMDPad,CuDef*%
G36*
X65650000Y82950000D02*
G01*
X65100000Y82950000D01*
X65100000Y82954967D01*
X65020059Y82956432D01*
X64884744Y82998707D01*
X64766734Y83077262D01*
X64675514Y83185781D01*
X64618419Y83315540D01*
X64600836Y83450000D01*
X64600000Y83450000D01*
X64600000Y83950000D01*
X64600836Y83950000D01*
X64600037Y83956109D01*
X64621848Y84096186D01*
X64682096Y84224511D01*
X64775940Y84330769D01*
X64895835Y84406417D01*
X65032142Y84445374D01*
X65100000Y84444959D01*
X65100000Y84450000D01*
X65650000Y84450000D01*
X65650000Y82950000D01*
G37*
%TD.AperFunction*%
X66400000Y83700000D03*
%TA.AperFunction,SMDPad,CuDef*%
G36*
X67700000Y84444959D02*
G01*
X67773905Y84444508D01*
X67909726Y84403889D01*
X68028688Y84326782D01*
X68121226Y84219385D01*
X68179903Y84090333D01*
X68200000Y83950000D01*
X68200000Y83450000D01*
X68199851Y83437784D01*
X68176331Y83297983D01*
X68114519Y83170404D01*
X68019384Y83065300D01*
X67898574Y82991123D01*
X67761801Y82953834D01*
X67700000Y82954967D01*
X67700000Y82950000D01*
X67150000Y82950000D01*
X67150000Y84450000D01*
X67700000Y84450000D01*
X67700000Y84444959D01*
G37*
%TD.AperFunction*%
%TA.AperFunction,SMDPad,CuDef*%
G36*
X67550000Y66450000D02*
G01*
X68100000Y66450000D01*
X68100000Y66445033D01*
X68179941Y66443568D01*
X68315256Y66401293D01*
X68433266Y66322738D01*
X68524486Y66214219D01*
X68581581Y66084460D01*
X68599164Y65950000D01*
X68600000Y65950000D01*
X68600000Y65450000D01*
X68599164Y65450000D01*
X68599963Y65443891D01*
X68578152Y65303814D01*
X68517904Y65175489D01*
X68424060Y65069231D01*
X68304165Y64993583D01*
X68167858Y64954626D01*
X68100000Y64955041D01*
X68100000Y64950000D01*
X67550000Y64950000D01*
X67550000Y66450000D01*
G37*
%TD.AperFunction*%
X66800000Y65700000D03*
%TA.AperFunction,SMDPad,CuDef*%
G36*
X65500000Y64955041D02*
G01*
X65426095Y64955492D01*
X65290274Y64996111D01*
X65171312Y65073218D01*
X65078774Y65180615D01*
X65020097Y65309667D01*
X65000000Y65450000D01*
X65000000Y65950000D01*
X65000149Y65962216D01*
X65023669Y66102017D01*
X65085481Y66229596D01*
X65180616Y66334700D01*
X65301426Y66408877D01*
X65438199Y66446166D01*
X65500000Y66445033D01*
X65500000Y66450000D01*
X66050000Y66450000D01*
X66050000Y64950000D01*
X65500000Y64950000D01*
X65500000Y64955041D01*
G37*
%TD.AperFunction*%
%TA.AperFunction,SMDPad,CuDef*%
G36*
X65950000Y59150000D02*
G01*
X65400000Y59150000D01*
X65400000Y59154967D01*
X65320059Y59156432D01*
X65184744Y59198707D01*
X65066734Y59277262D01*
X64975514Y59385781D01*
X64918419Y59515540D01*
X64900836Y59650000D01*
X64900000Y59650000D01*
X64900000Y60150000D01*
X64900836Y60150000D01*
X64900037Y60156109D01*
X64921848Y60296186D01*
X64982096Y60424511D01*
X65075940Y60530769D01*
X65195835Y60606417D01*
X65332142Y60645374D01*
X65400000Y60644959D01*
X65400000Y60650000D01*
X65950000Y60650000D01*
X65950000Y59150000D01*
G37*
%TD.AperFunction*%
X66700000Y59900000D03*
%TA.AperFunction,SMDPad,CuDef*%
G36*
X68000000Y60644959D02*
G01*
X68073905Y60644508D01*
X68209726Y60603889D01*
X68328688Y60526782D01*
X68421226Y60419385D01*
X68479903Y60290333D01*
X68500000Y60150000D01*
X68500000Y59650000D01*
X68499851Y59637784D01*
X68476331Y59497983D01*
X68414519Y59370404D01*
X68319384Y59265300D01*
X68198574Y59191123D01*
X68061801Y59153834D01*
X68000000Y59154967D01*
X68000000Y59150000D01*
X67450000Y59150000D01*
X67450000Y60650000D01*
X68000000Y60650000D01*
X68000000Y60644959D01*
G37*
%TD.AperFunction*%
%TA.AperFunction,SMDPad,CuDef*%
G36*
X67150000Y81650000D02*
G01*
X67700000Y81650000D01*
X67700000Y81645033D01*
X67779941Y81643568D01*
X67915256Y81601293D01*
X68033266Y81522738D01*
X68124486Y81414219D01*
X68181581Y81284460D01*
X68199164Y81150000D01*
X68200000Y81150000D01*
X68200000Y80650000D01*
X68199164Y80650000D01*
X68199963Y80643891D01*
X68178152Y80503814D01*
X68117904Y80375489D01*
X68024060Y80269231D01*
X67904165Y80193583D01*
X67767858Y80154626D01*
X67700000Y80155041D01*
X67700000Y80150000D01*
X67150000Y80150000D01*
X67150000Y81650000D01*
G37*
%TD.AperFunction*%
X66400000Y80900000D03*
%TA.AperFunction,SMDPad,CuDef*%
G36*
X65100000Y80155041D02*
G01*
X65026095Y80155492D01*
X64890274Y80196111D01*
X64771312Y80273218D01*
X64678774Y80380615D01*
X64620097Y80509667D01*
X64600000Y80650000D01*
X64600000Y81150000D01*
X64600149Y81162216D01*
X64623669Y81302017D01*
X64685481Y81429596D01*
X64780616Y81534700D01*
X64901426Y81608877D01*
X65038199Y81646166D01*
X65100000Y81645033D01*
X65100000Y81650000D01*
X65650000Y81650000D01*
X65650000Y80150000D01*
X65100000Y80150000D01*
X65100000Y80155041D01*
G37*
%TD.AperFunction*%
%TA.AperFunction,SMDPad,CuDef*%
G36*
X60150000Y114650000D02*
G01*
X60700000Y114650000D01*
X60700000Y114645033D01*
X60779941Y114643568D01*
X60915256Y114601293D01*
X61033266Y114522738D01*
X61124486Y114414219D01*
X61181581Y114284460D01*
X61199164Y114150000D01*
X61200000Y114150000D01*
X61200000Y113650000D01*
X61199164Y113650000D01*
X61199963Y113643891D01*
X61178152Y113503814D01*
X61117904Y113375489D01*
X61024060Y113269231D01*
X60904165Y113193583D01*
X60767858Y113154626D01*
X60700000Y113155041D01*
X60700000Y113150000D01*
X60150000Y113150000D01*
X60150000Y114650000D01*
G37*
%TD.AperFunction*%
X59400000Y113900000D03*
%TA.AperFunction,SMDPad,CuDef*%
G36*
X58100000Y113155041D02*
G01*
X58026095Y113155492D01*
X57890274Y113196111D01*
X57771312Y113273218D01*
X57678774Y113380615D01*
X57620097Y113509667D01*
X57600000Y113650000D01*
X57600000Y114150000D01*
X57600149Y114162216D01*
X57623669Y114302017D01*
X57685481Y114429596D01*
X57780616Y114534700D01*
X57901426Y114608877D01*
X58038199Y114646166D01*
X58100000Y114645033D01*
X58100000Y114650000D01*
X58650000Y114650000D01*
X58650000Y113150000D01*
X58100000Y113150000D01*
X58100000Y113155041D01*
G37*
%TD.AperFunction*%
%TA.AperFunction,SMDPad,CuDef*%
G36*
X65950000Y48350000D02*
G01*
X65400000Y48350000D01*
X65400000Y48354967D01*
X65320059Y48356432D01*
X65184744Y48398707D01*
X65066734Y48477262D01*
X64975514Y48585781D01*
X64918419Y48715540D01*
X64900836Y48850000D01*
X64900000Y48850000D01*
X64900000Y49350000D01*
X64900836Y49350000D01*
X64900037Y49356109D01*
X64921848Y49496186D01*
X64982096Y49624511D01*
X65075940Y49730769D01*
X65195835Y49806417D01*
X65332142Y49845374D01*
X65400000Y49844959D01*
X65400000Y49850000D01*
X65950000Y49850000D01*
X65950000Y48350000D01*
G37*
%TD.AperFunction*%
X66700000Y49100000D03*
%TA.AperFunction,SMDPad,CuDef*%
G36*
X68000000Y49844959D02*
G01*
X68073905Y49844508D01*
X68209726Y49803889D01*
X68328688Y49726782D01*
X68421226Y49619385D01*
X68479903Y49490333D01*
X68500000Y49350000D01*
X68500000Y48850000D01*
X68499851Y48837784D01*
X68476331Y48697983D01*
X68414519Y48570404D01*
X68319384Y48465300D01*
X68198574Y48391123D01*
X68061801Y48353834D01*
X68000000Y48354967D01*
X68000000Y48350000D01*
X67450000Y48350000D01*
X67450000Y49850000D01*
X68000000Y49850000D01*
X68000000Y49844959D01*
G37*
%TD.AperFunction*%
%TA.AperFunction,SMDPad,CuDef*%
G36*
X66050000Y67700000D02*
G01*
X65500000Y67700000D01*
X65500000Y67704967D01*
X65420059Y67706432D01*
X65284744Y67748707D01*
X65166734Y67827262D01*
X65075514Y67935781D01*
X65018419Y68065540D01*
X65000836Y68200000D01*
X65000000Y68200000D01*
X65000000Y68700000D01*
X65000836Y68700000D01*
X65000037Y68706109D01*
X65021848Y68846186D01*
X65082096Y68974511D01*
X65175940Y69080769D01*
X65295835Y69156417D01*
X65432142Y69195374D01*
X65500000Y69194959D01*
X65500000Y69200000D01*
X66050000Y69200000D01*
X66050000Y67700000D01*
G37*
%TD.AperFunction*%
X66800000Y68450000D03*
%TA.AperFunction,SMDPad,CuDef*%
G36*
X68100000Y69194959D02*
G01*
X68173905Y69194508D01*
X68309726Y69153889D01*
X68428688Y69076782D01*
X68521226Y68969385D01*
X68579903Y68840333D01*
X68600000Y68700000D01*
X68600000Y68200000D01*
X68599851Y68187784D01*
X68576331Y68047983D01*
X68514519Y67920404D01*
X68419384Y67815300D01*
X68298574Y67741123D01*
X68161801Y67703834D01*
X68100000Y67704967D01*
X68100000Y67700000D01*
X67550000Y67700000D01*
X67550000Y69200000D01*
X68100000Y69200000D01*
X68100000Y69194959D01*
G37*
%TD.AperFunction*%
%TA.AperFunction,SMDPad,CuDef*%
G36*
X66150000Y106850000D02*
G01*
X66150000Y106300000D01*
X66145033Y106300000D01*
X66143568Y106220059D01*
X66101293Y106084744D01*
X66022738Y105966734D01*
X65914219Y105875514D01*
X65784460Y105818419D01*
X65650000Y105800836D01*
X65650000Y105800000D01*
X65150000Y105800000D01*
X65150000Y105800836D01*
X65143891Y105800037D01*
X65003814Y105821848D01*
X64875489Y105882096D01*
X64769231Y105975940D01*
X64693583Y106095835D01*
X64654626Y106232142D01*
X64655041Y106300000D01*
X64650000Y106300000D01*
X64650000Y106850000D01*
X66150000Y106850000D01*
G37*
%TD.AperFunction*%
D25*
X65400000Y107600000D03*
%TA.AperFunction,SMDPad,CuDef*%
G36*
X64655041Y108900000D02*
G01*
X64655492Y108973905D01*
X64696111Y109109726D01*
X64773218Y109228688D01*
X64880615Y109321226D01*
X65009667Y109379903D01*
X65150000Y109400000D01*
X65650000Y109400000D01*
X65662216Y109399851D01*
X65802017Y109376331D01*
X65929596Y109314519D01*
X66034700Y109219384D01*
X66108877Y109098574D01*
X66146166Y108961801D01*
X66145033Y108900000D01*
X66150000Y108900000D01*
X66150000Y108350000D01*
X64650000Y108350000D01*
X64650000Y108900000D01*
X64655041Y108900000D01*
G37*
%TD.AperFunction*%
%TA.AperFunction,SMDPad,CuDef*%
G36*
X59850000Y96150000D02*
G01*
X60400000Y96150000D01*
X60400000Y96145033D01*
X60479941Y96143568D01*
X60615256Y96101293D01*
X60733266Y96022738D01*
X60824486Y95914219D01*
X60881581Y95784460D01*
X60899164Y95650000D01*
X60900000Y95650000D01*
X60900000Y95150000D01*
X60899164Y95150000D01*
X60899963Y95143891D01*
X60878152Y95003814D01*
X60817904Y94875489D01*
X60724060Y94769231D01*
X60604165Y94693583D01*
X60467858Y94654626D01*
X60400000Y94655041D01*
X60400000Y94650000D01*
X59850000Y94650000D01*
X59850000Y96150000D01*
G37*
%TD.AperFunction*%
D24*
X59100000Y95400000D03*
%TA.AperFunction,SMDPad,CuDef*%
G36*
X57800000Y94655041D02*
G01*
X57726095Y94655492D01*
X57590274Y94696111D01*
X57471312Y94773218D01*
X57378774Y94880615D01*
X57320097Y95009667D01*
X57300000Y95150000D01*
X57300000Y95650000D01*
X57300149Y95662216D01*
X57323669Y95802017D01*
X57385481Y95929596D01*
X57480616Y96034700D01*
X57601426Y96108877D01*
X57738199Y96146166D01*
X57800000Y96145033D01*
X57800000Y96150000D01*
X58350000Y96150000D01*
X58350000Y94650000D01*
X57800000Y94650000D01*
X57800000Y94655041D01*
G37*
%TD.AperFunction*%
%TA.AperFunction,SMDPad,CuDef*%
G36*
X67450000Y47050000D02*
G01*
X68000000Y47050000D01*
X68000000Y47045033D01*
X68079941Y47043568D01*
X68215256Y47001293D01*
X68333266Y46922738D01*
X68424486Y46814219D01*
X68481581Y46684460D01*
X68499164Y46550000D01*
X68500000Y46550000D01*
X68500000Y46050000D01*
X68499164Y46050000D01*
X68499963Y46043891D01*
X68478152Y45903814D01*
X68417904Y45775489D01*
X68324060Y45669231D01*
X68204165Y45593583D01*
X68067858Y45554626D01*
X68000000Y45555041D01*
X68000000Y45550000D01*
X67450000Y45550000D01*
X67450000Y47050000D01*
G37*
%TD.AperFunction*%
X66700000Y46300000D03*
%TA.AperFunction,SMDPad,CuDef*%
G36*
X65400000Y45555041D02*
G01*
X65326095Y45555492D01*
X65190274Y45596111D01*
X65071312Y45673218D01*
X64978774Y45780615D01*
X64920097Y45909667D01*
X64900000Y46050000D01*
X64900000Y46550000D01*
X64900149Y46562216D01*
X64923669Y46702017D01*
X64985481Y46829596D01*
X65080616Y46934700D01*
X65201426Y47008877D01*
X65338199Y47046166D01*
X65400000Y47045033D01*
X65400000Y47050000D01*
X65950000Y47050000D01*
X65950000Y45550000D01*
X65400000Y45550000D01*
X65400000Y45555041D01*
G37*
%TD.AperFunction*%
%TA.AperFunction,SMDPad,CuDef*%
G36*
X66750000Y113150000D02*
G01*
X66200000Y113150000D01*
X66200000Y113154967D01*
X66120059Y113156432D01*
X65984744Y113198707D01*
X65866734Y113277262D01*
X65775514Y113385781D01*
X65718419Y113515540D01*
X65700836Y113650000D01*
X65700000Y113650000D01*
X65700000Y114150000D01*
X65700836Y114150000D01*
X65700037Y114156109D01*
X65721848Y114296186D01*
X65782096Y114424511D01*
X65875940Y114530769D01*
X65995835Y114606417D01*
X66132142Y114645374D01*
X66200000Y114644959D01*
X66200000Y114650000D01*
X66750000Y114650000D01*
X66750000Y113150000D01*
G37*
%TD.AperFunction*%
X67500000Y113900000D03*
%TA.AperFunction,SMDPad,CuDef*%
G36*
X68800000Y114644959D02*
G01*
X68873905Y114644508D01*
X69009726Y114603889D01*
X69128688Y114526782D01*
X69221226Y114419385D01*
X69279903Y114290333D01*
X69300000Y114150000D01*
X69300000Y113650000D01*
X69299851Y113637784D01*
X69276331Y113497983D01*
X69214519Y113370404D01*
X69119384Y113265300D01*
X68998574Y113191123D01*
X68861801Y113153834D01*
X68800000Y113154967D01*
X68800000Y113150000D01*
X68250000Y113150000D01*
X68250000Y114650000D01*
X68800000Y114650000D01*
X68800000Y114644959D01*
G37*
%TD.AperFunction*%
%TA.AperFunction,SMDPad,CuDef*%
G36*
X67450000Y57850000D02*
G01*
X68000000Y57850000D01*
X68000000Y57845033D01*
X68079941Y57843568D01*
X68215256Y57801293D01*
X68333266Y57722738D01*
X68424486Y57614219D01*
X68481581Y57484460D01*
X68499164Y57350000D01*
X68500000Y57350000D01*
X68500000Y56850000D01*
X68499164Y56850000D01*
X68499963Y56843891D01*
X68478152Y56703814D01*
X68417904Y56575489D01*
X68324060Y56469231D01*
X68204165Y56393583D01*
X68067858Y56354626D01*
X68000000Y56355041D01*
X68000000Y56350000D01*
X67450000Y56350000D01*
X67450000Y57850000D01*
G37*
%TD.AperFunction*%
X66700000Y57100000D03*
%TA.AperFunction,SMDPad,CuDef*%
G36*
X65400000Y56355041D02*
G01*
X65326095Y56355492D01*
X65190274Y56396111D01*
X65071312Y56473218D01*
X64978774Y56580615D01*
X64920097Y56709667D01*
X64900000Y56850000D01*
X64900000Y57350000D01*
X64900149Y57362216D01*
X64923669Y57502017D01*
X64985481Y57629596D01*
X65080616Y57734700D01*
X65201426Y57808877D01*
X65338199Y57846166D01*
X65400000Y57845033D01*
X65400000Y57850000D01*
X65950000Y57850000D01*
X65950000Y56350000D01*
X65400000Y56350000D01*
X65400000Y56355041D01*
G37*
%TD.AperFunction*%
%TA.AperFunction,SMDPad,CuDef*%
G36*
X58950000Y108350000D02*
G01*
X58950000Y108900000D01*
X58954967Y108900000D01*
X58956432Y108979941D01*
X58998707Y109115256D01*
X59077262Y109233266D01*
X59185781Y109324486D01*
X59315540Y109381581D01*
X59450000Y109399164D01*
X59450000Y109400000D01*
X59950000Y109400000D01*
X59950000Y109399164D01*
X59956109Y109399963D01*
X60096186Y109378152D01*
X60224511Y109317904D01*
X60330769Y109224060D01*
X60406417Y109104165D01*
X60445374Y108967858D01*
X60444959Y108900000D01*
X60450000Y108900000D01*
X60450000Y108350000D01*
X58950000Y108350000D01*
G37*
%TD.AperFunction*%
D25*
X59700000Y107600000D03*
%TA.AperFunction,SMDPad,CuDef*%
G36*
X60444959Y106300000D02*
G01*
X60444508Y106226095D01*
X60403889Y106090274D01*
X60326782Y105971312D01*
X60219385Y105878774D01*
X60090333Y105820097D01*
X59950000Y105800000D01*
X59450000Y105800000D01*
X59437784Y105800149D01*
X59297983Y105823669D01*
X59170404Y105885481D01*
X59065300Y105980616D01*
X58991123Y106101426D01*
X58953834Y106238199D01*
X58954967Y106300000D01*
X58950000Y106300000D01*
X58950000Y106850000D01*
X60450000Y106850000D01*
X60450000Y106300000D01*
X60444959Y106300000D01*
G37*
%TD.AperFunction*%
D26*
X54400000Y105600000D03*
X60700000Y47000000D03*
X33800000Y74100000D03*
X36900000Y82600000D03*
D27*
X54600000Y94900000D03*
D26*
X49800000Y57900000D03*
X51400000Y58400000D03*
X51300000Y14600000D03*
X22300000Y52200000D03*
X39650000Y54795581D03*
X11500000Y38600000D03*
X37490280Y54775125D03*
D27*
X51200000Y94900000D03*
D26*
X60400000Y77900000D03*
X15014505Y21391297D03*
X51150000Y70350000D03*
X32400000Y15600000D03*
X59900000Y109900000D03*
X19600000Y63500000D03*
X16800000Y21400000D03*
X53000000Y14600000D03*
X33700000Y15700000D03*
X9300000Y23200000D03*
X60500000Y92800000D03*
X35300000Y52500000D03*
X24000000Y57700000D03*
X46350000Y53500000D03*
X51168750Y71950000D03*
X21500000Y84300000D03*
X31700000Y57700000D03*
X67800000Y53200000D03*
X30400000Y57300000D03*
X17100000Y11500000D03*
X57900000Y92500000D03*
X65900000Y53200000D03*
X18700000Y12900000D03*
X44800000Y54800000D03*
X9200000Y25150000D03*
X22000000Y83500000D03*
X61400000Y14587500D03*
X47850000Y53550000D03*
X18700000Y62300000D03*
D27*
X53000000Y93100000D03*
D26*
X8800000Y38600000D03*
D27*
X53000000Y96700000D03*
D26*
X34200000Y71400000D03*
X59700000Y14500000D03*
X49900000Y69850000D03*
X37074998Y52500000D03*
X17900000Y50100000D03*
X11950000Y23500000D03*
X12900000Y40500000D03*
X36300000Y50400000D03*
X27000000Y93900000D03*
X20900000Y12200000D03*
X55900000Y14200000D03*
X14600000Y16500000D03*
X53800000Y28000000D03*
X36900000Y18500000D03*
D27*
X46200000Y104300000D03*
D26*
X48800000Y19600000D03*
X34600000Y49150000D03*
X53600000Y16900000D03*
X42300000Y16800000D03*
X53968750Y71950000D03*
X31100000Y20100000D03*
X33300000Y96500000D03*
X58600000Y30900000D03*
X23900000Y85200000D03*
X33700000Y76900000D03*
X64000000Y77100000D03*
X51800000Y26000000D03*
X47100000Y76500000D03*
X50040000Y19600000D03*
X28300000Y100200000D03*
X13300000Y87500000D03*
D27*
X52700000Y115100000D03*
D26*
X50700000Y69350000D03*
X51500000Y36000000D03*
X39600000Y47800000D03*
X69100000Y95900000D03*
X56800000Y91600000D03*
X31900000Y95200000D03*
D27*
X28500000Y115100000D03*
D26*
X24100000Y45400000D03*
D27*
X1700000Y105800000D03*
D26*
X29900000Y83800000D03*
X27500000Y16800000D03*
X57000000Y22500000D03*
D28*
X30200000Y97200000D03*
D26*
X19600000Y69000000D03*
X58400000Y19500000D03*
X61400000Y17387500D03*
X39400000Y38200000D03*
X15800000Y16600000D03*
D27*
X1750000Y107750000D03*
D26*
X44080000Y57370000D03*
X62100000Y78700000D03*
X51800000Y28000000D03*
X48900000Y33450000D03*
D27*
X36500000Y115100000D03*
D26*
X47850000Y50700000D03*
X39620000Y57400000D03*
D27*
X12300000Y115100000D03*
D26*
X28500000Y80200000D03*
X47900000Y83500000D03*
X12800000Y12800000D03*
X22100000Y62300000D03*
X22034411Y96200010D03*
X47100000Y28400000D03*
X35200000Y72600000D03*
X63800000Y80800000D03*
X69600000Y105900000D03*
D27*
X43250000Y96800000D03*
D26*
X69100000Y91400000D03*
X47900000Y82700000D03*
X10500000Y21700000D03*
D27*
X5600000Y105900000D03*
D26*
X47100000Y77300000D03*
X40000000Y11300000D03*
X57800000Y47000000D03*
X48500000Y57000000D03*
X59000000Y110500000D03*
D28*
X32300000Y99349998D03*
D26*
X16000000Y59300000D03*
X67800000Y52400000D03*
X60200000Y33500000D03*
X17400000Y20100000D03*
X50550000Y33450000D03*
X34500000Y50400000D03*
X41100000Y29300000D03*
X62800000Y69300000D03*
X53900000Y70300000D03*
X47900000Y81900000D03*
D28*
X30100000Y99349998D03*
D26*
X57200000Y19500000D03*
X18800000Y89200000D03*
X47100000Y74900000D03*
X57500000Y36600000D03*
X52100000Y39600000D03*
D27*
X44700000Y115100000D03*
D26*
X47100000Y75700000D03*
X61900000Y109900000D03*
X41800000Y47900000D03*
X34100000Y18500000D03*
D27*
X44650000Y96850000D03*
D26*
X63400000Y46300000D03*
X54200000Y58400000D03*
D27*
X33000000Y103800000D03*
D26*
X47900000Y81100000D03*
X47500000Y17000000D03*
X43100000Y22700000D03*
X35300000Y76900000D03*
X12000000Y25150000D03*
X10500000Y20100000D03*
X27400000Y57900000D03*
X16100000Y22200000D03*
X29900000Y20100000D03*
X24000000Y49200000D03*
X32800000Y95200000D03*
D28*
X32300000Y97200000D03*
D26*
X62300000Y18700000D03*
X53900000Y68800000D03*
X46350000Y50650000D03*
D27*
X20500000Y115100000D03*
D26*
X20600000Y78900000D03*
X16000000Y55200000D03*
X53800000Y26000000D03*
X60434358Y93650000D03*
X62900000Y57300000D03*
X65900000Y54000003D03*
X28100000Y93000000D03*
X30800000Y94700000D03*
D27*
X46600000Y93400000D03*
D26*
X31800000Y58600000D03*
X68600000Y112200000D03*
D28*
X58900000Y105100000D03*
X56700000Y113900000D03*
X69000000Y98400000D03*
D26*
X30600000Y87100000D03*
X31700000Y87100000D03*
X28500000Y87100000D03*
X28400000Y91400000D03*
X30600000Y91400000D03*
X31700000Y91400000D03*
X29500000Y87100000D03*
D28*
X67700000Y97900000D03*
D26*
X29400000Y91400000D03*
X50300000Y35500000D03*
X40700000Y35500000D03*
X39407114Y27692886D03*
X43700000Y27692886D03*
X36600000Y48500000D03*
X41700000Y53500000D03*
X29500000Y100300000D03*
X41140000Y57480000D03*
X35400000Y63100000D03*
X26000000Y38100000D03*
X56000000Y63200000D03*
X59900000Y63100000D03*
X56000000Y64800000D03*
X59875735Y65524265D03*
X59900000Y64700000D03*
X56000000Y64000000D03*
X26600000Y37500000D03*
X37787851Y64860000D03*
D28*
X64200000Y83700000D03*
D27*
X55000000Y110500000D03*
D28*
X64600000Y59900000D03*
X64600000Y50000000D03*
X60700000Y112200000D03*
D27*
X54900000Y107400000D03*
X55000000Y109000000D03*
D28*
X64900000Y69300000D03*
X64600000Y90200000D03*
X63600000Y97000000D03*
D27*
X55000000Y112000000D03*
D28*
X57800000Y108900000D03*
D26*
X57100000Y93400000D03*
X49900000Y59500000D03*
X56700000Y90700000D03*
X50200000Y58700000D03*
X59500000Y112600000D03*
X50300000Y62400000D03*
X59800000Y104900000D03*
X51100000Y62100000D03*
X33865019Y39932041D03*
X23000000Y41500003D03*
X16900000Y42400000D03*
X42640000Y67400000D03*
X66500000Y82300000D03*
X23000000Y42300006D03*
X43240000Y64200000D03*
X16300000Y43500000D03*
X34664965Y39922604D03*
X18800000Y45600000D03*
X12250000Y42500000D03*
X18900000Y41100000D03*
X32200000Y39900000D03*
X41400000Y63600000D03*
X23000000Y39900000D03*
X45200000Y12900000D03*
X45000000Y14900000D03*
X45800000Y18000000D03*
X42040000Y68140000D03*
X16200000Y41900000D03*
X23000000Y40700000D03*
X33024265Y39924265D03*
X45000000Y19300000D03*
X36200000Y20500000D03*
X25554837Y55973367D03*
X19000000Y44300000D03*
X36850000Y19298437D03*
X19100000Y46900000D03*
X40480000Y68740000D03*
X36100000Y16800000D03*
X34500000Y15200000D03*
X44375735Y24775735D03*
X44074265Y30900000D03*
X45000000Y23899980D03*
X44113494Y31709300D03*
X45700000Y23299980D03*
X44085662Y32585662D03*
X8100000Y17400000D03*
X8124265Y18224265D03*
X68300000Y45100000D03*
X69100000Y55700000D03*
X66700000Y44900000D03*
X65300000Y44900000D03*
X65300000Y58500000D03*
X65200000Y55700000D03*
X66800000Y67000000D03*
X65500000Y67000000D03*
X65200000Y79700000D03*
X68100000Y64500000D03*
X65700000Y111200000D03*
X39020000Y58280000D03*
X37914579Y54000000D03*
X29200000Y54200000D03*
X48700000Y28400000D03*
X57800000Y44200000D03*
X55400000Y23800000D03*
X60300000Y23100000D03*
X61200000Y26400000D03*
X54500000Y29800000D03*
X63000000Y33500000D03*
X46450000Y33600000D03*
X60700000Y44200000D03*
X50000000Y27200000D03*
X46450000Y32000000D03*
X62300000Y21800000D03*
X54800000Y25000000D03*
X61100000Y31300000D03*
X60200000Y28000000D03*
X55800000Y30300000D03*
X51100000Y38900000D03*
X38790000Y54000000D03*
X29200000Y53400000D03*
X40310000Y58890000D03*
X39587851Y64830000D03*
X67800000Y79700000D03*
X59100000Y89900000D03*
X30475735Y54824265D03*
X34715735Y59364265D03*
X40190000Y65500000D03*
X40790000Y66110000D03*
X59100000Y97000000D03*
X66700000Y61600000D03*
X66800000Y69800000D03*
X66300000Y85400000D03*
X25400000Y38700000D03*
X37620000Y65660000D03*
X24800000Y39300000D03*
X36940000Y66150000D03*
X43840001Y61840001D03*
X28490000Y67080000D03*
X66300000Y92700000D03*
X61800000Y94900000D03*
X61100000Y94100000D03*
X23000000Y65650000D03*
X31659265Y65669265D03*
X59400000Y115400000D03*
X66200000Y112300000D03*
X70100000Y114400000D03*
X53700000Y37800000D03*
X55000000Y28900000D03*
X29700000Y95200000D03*
X27200000Y95200000D03*
X66400000Y89924990D03*
X61500000Y92500000D03*
X57800000Y89900000D03*
X61400000Y106800000D03*
X46350000Y31200000D03*
X50375735Y24275735D03*
X45550000Y34900000D03*
X40100000Y34900000D03*
D27*
X68600000Y109800000D03*
D26*
X72400000Y17000000D03*
X53199265Y30550735D03*
X72400000Y16200000D03*
X54000000Y30600000D03*
X74400000Y16200000D03*
X76100000Y17800000D03*
X65400000Y105300000D03*
X64100000Y107000000D03*
X40200000Y76400000D03*
X34430000Y68030000D03*
X50400000Y112600000D03*
X51500000Y81900000D03*
X34200000Y112600000D03*
X43500000Y74900000D03*
X18200000Y112600000D03*
X45300000Y76500000D03*
X42100000Y76000000D03*
X46300000Y65500000D03*
X51500000Y81100000D03*
X42400000Y112600000D03*
X26200000Y112600000D03*
X45300000Y75700000D03*
X44400000Y78100000D03*
X10000000Y112600000D03*
X47100000Y65500000D03*
X29150000Y61550000D03*
X24290000Y52200000D03*
X33100000Y70400000D03*
X38500000Y81700000D03*
X36224989Y73400000D03*
X39300000Y81700000D03*
X47140000Y59700000D03*
X36771014Y45240000D03*
X36180000Y45840000D03*
X45400000Y59200000D03*
X36075735Y61924265D03*
X27200000Y36900000D03*
X32400000Y35600000D03*
X38097571Y57400000D03*
X8700000Y40900000D03*
X35775468Y59824532D03*
X38387851Y66100000D03*
X13600000Y37000000D03*
X38987851Y66985421D03*
X10900000Y37000000D03*
X8600000Y37000000D03*
X66700000Y51000000D03*
X42800000Y70000000D03*
X28500973Y68018811D03*
D29*
X59700000Y106300000D02*
X58900000Y105500000D01*
X68150000Y68450000D02*
X68100000Y68450000D01*
X56700000Y113900000D02*
X58100000Y113900000D01*
X58900000Y105500000D02*
X58900000Y105027867D01*
D30*
X50300000Y35500000D02*
X40700000Y35500000D01*
X43700000Y27692886D02*
X39407114Y27692886D01*
X44800000Y49160000D02*
X44800000Y50250000D01*
X44799999Y62259999D02*
X44799999Y71100001D01*
X32800000Y100300000D02*
X34200000Y98900000D01*
X37950000Y84150000D02*
X35950000Y84150000D01*
X42240000Y46600000D02*
X38500000Y46600000D01*
X40800000Y75100000D02*
X40800000Y81300000D01*
X38500000Y46600000D02*
X36600000Y48500000D01*
X34200000Y98900000D02*
X34200000Y85900000D01*
X44200000Y53500000D02*
X44800000Y52900000D01*
X44800000Y52900000D02*
X44800000Y50250000D01*
X40800000Y81300000D02*
X37950000Y84150000D01*
X42240000Y46600000D02*
X44800000Y49160000D01*
X35950000Y84150000D02*
X34200000Y85900000D01*
X44799999Y61139999D02*
X44799999Y62259999D01*
X43900000Y72000000D02*
X44799999Y71100001D01*
X41140000Y57480000D02*
X44799999Y61139999D01*
X29500000Y100300000D02*
X32800000Y100300000D01*
X43900000Y72000000D02*
X40800000Y75100000D01*
X41700000Y53500000D02*
X44200000Y53500000D01*
X33000000Y62500000D02*
X34800000Y62500000D01*
X26700000Y38800000D02*
X26700000Y43200000D01*
X34800000Y62500000D02*
X35400000Y63100000D01*
X26000000Y38100000D02*
X26700000Y38800000D01*
X28900000Y58400000D02*
X33000000Y62500000D01*
X27000000Y51600000D02*
X26500000Y52100000D01*
X26500000Y54900000D02*
X28900000Y57300000D01*
X27000000Y43500000D02*
X27000000Y51600000D01*
X26700000Y43200000D02*
X27000000Y43500000D01*
X28900000Y57300000D02*
X28900000Y58400000D01*
X26500000Y52100000D02*
X26500000Y54900000D01*
X56000000Y63200000D02*
X59800000Y63200000D01*
X59800000Y63200000D02*
X59900000Y63100000D01*
X56000000Y64800000D02*
X59151470Y64800000D01*
X59151470Y64800000D02*
X59875735Y65524265D01*
X56000000Y64000000D02*
X59200000Y64000000D01*
X59200000Y64000000D02*
X59900000Y64700000D01*
X35800000Y62600000D02*
X37000000Y62600000D01*
X29300000Y57100000D02*
X29300000Y58200000D01*
X27100000Y38000000D02*
X27100000Y43000000D01*
X37900000Y64060000D02*
X37900000Y64747851D01*
X27400000Y51800000D02*
X26900000Y52300000D01*
X26600000Y37500000D02*
X27100000Y38000000D01*
X37000000Y62600000D02*
X37900000Y63500000D01*
X27400000Y43300000D02*
X27400000Y44300000D01*
X29300000Y58200000D02*
X33200000Y62100000D01*
X26900000Y52300000D02*
X26900000Y54700000D01*
X37900000Y64747851D02*
X37787851Y64860000D01*
X33200000Y62100000D02*
X35300000Y62100000D01*
X37900000Y63500000D02*
X37900000Y64060000D01*
X27400000Y44300000D02*
X27400000Y51800000D01*
X27100000Y43000000D02*
X27400000Y43300000D01*
X26900000Y54700000D02*
X29300000Y57100000D01*
X35300000Y62100000D02*
X35800000Y62600000D01*
D29*
X65400000Y59900000D02*
X64600000Y59900000D01*
X65100000Y91200000D02*
X65100000Y90700000D01*
D31*
X57800000Y108900000D02*
X58599998Y108900000D01*
D29*
X65100000Y95400000D02*
X65100000Y95500000D01*
X65100000Y90700000D02*
X64600000Y90200000D01*
X65400000Y49100000D02*
X64600000Y50000000D01*
X65100000Y95500000D02*
X63600000Y97000000D01*
X65500000Y68700000D02*
X64900000Y69300000D01*
D31*
X59700000Y108900000D02*
X59685000Y108885000D01*
D29*
X65100000Y83700000D02*
X64200000Y83700000D01*
X65500000Y68450000D02*
X65500000Y68700000D01*
D31*
X58599998Y108900000D02*
X59700000Y108900000D01*
D29*
X60700000Y113900000D02*
X60700000Y112200000D01*
D30*
X58900000Y86200000D02*
X56100000Y89000000D01*
X56100000Y91500000D02*
X56100000Y91800000D01*
X56100000Y89000000D02*
X56100000Y91500000D01*
X58900000Y69900000D02*
X58900000Y71500000D01*
X51900000Y61500000D02*
X51900000Y62334302D01*
X58900000Y69900000D02*
X58900008Y69899992D01*
X58900008Y69334310D02*
X51900000Y62334302D01*
X56100000Y91800000D02*
X57100000Y92800000D01*
X49900000Y59500000D02*
X51900000Y61500000D01*
X58900008Y69899992D02*
X58900008Y69334310D01*
X58900000Y71500000D02*
X58900000Y86000000D01*
X57100000Y92800000D02*
X57100000Y93400000D01*
X58900000Y86000000D02*
X58900000Y86200000D01*
X52300000Y62168604D02*
X52300008Y62168596D01*
X52300008Y61334310D02*
X52300008Y60800008D01*
X59300000Y86400000D02*
X56700000Y89000000D01*
X59300018Y71099982D02*
X59300017Y69168621D01*
X52300008Y60800008D02*
X50200000Y58700000D01*
X59300017Y69168621D02*
X52300000Y62168604D01*
X52300008Y62168596D02*
X52300008Y61334310D01*
X59300000Y71100000D02*
X59300018Y71099982D01*
X59300000Y71100000D02*
X59300000Y86400000D01*
X56700000Y89000000D02*
X56700000Y90700000D01*
X55099989Y88800011D02*
X55300000Y88600000D01*
X55099989Y91700011D02*
X55099989Y91999989D01*
X57200000Y112600000D02*
X56050000Y111450000D01*
X57600000Y112600000D02*
X57200000Y112600000D01*
X57400000Y69500000D02*
X58100000Y70200000D01*
X58100000Y70200000D02*
X58100000Y70700000D01*
X55300000Y88600000D02*
X58100000Y85800000D01*
X56100000Y101900000D02*
X56100000Y95100000D01*
X56100000Y101900000D02*
X56100000Y111400000D01*
X55099989Y91700011D02*
X55099989Y88800011D01*
X56100000Y111400000D02*
X56050000Y111450000D01*
X50600000Y62700000D02*
X50300000Y62400000D01*
X59500000Y112600000D02*
X57600000Y112600000D01*
X55099989Y91999989D02*
X56100000Y93000000D01*
X56100000Y93000000D02*
X56100000Y95100000D01*
X58100000Y85800000D02*
X58100000Y70700000D01*
X50600000Y62700000D02*
X57400000Y69500000D01*
X56500000Y99000000D02*
X56500000Y99400000D01*
X58500000Y70700000D02*
X58500000Y86000000D01*
X59800000Y104900000D02*
X56500000Y101900000D01*
X56500000Y94900000D02*
X56500000Y99000000D01*
X56500000Y101900000D02*
X56500000Y99000000D01*
X55499999Y91799999D02*
X56500000Y92800000D01*
X56500000Y92800000D02*
X56500000Y94900000D01*
X55499999Y91499999D02*
X55499999Y91799999D01*
X55499999Y89000001D02*
X55499999Y91499999D01*
X58500000Y86000000D02*
X55499999Y89000001D01*
X51100000Y62100000D02*
X58500000Y69500000D01*
X58500000Y69500000D02*
X58500000Y70700000D01*
X20099997Y41500003D02*
X19400000Y42200000D01*
X23000000Y41500003D02*
X20099997Y41500003D01*
X33000000Y47800000D02*
X33000000Y51900000D01*
X42640000Y67400000D02*
X42640000Y63386300D01*
X19400000Y42200000D02*
X17100000Y42200000D01*
X37000000Y57746300D02*
X42640000Y63386300D01*
X34200000Y40600000D02*
X34200000Y46600000D01*
X34200000Y46600000D02*
X33000000Y47800000D01*
X37000000Y56900000D02*
X37000000Y57270000D01*
X33000000Y52900000D02*
X37000000Y56900000D01*
X17100000Y42200000D02*
X16900000Y42400000D01*
X37000000Y57270000D02*
X37000000Y57746300D01*
X33000000Y51900000D02*
X33000000Y52900000D01*
X33865019Y40265019D02*
X34200000Y40600000D01*
X33865019Y39932041D02*
X33865019Y40265019D01*
D32*
X66500000Y80900000D02*
X66500000Y82300000D01*
D30*
X37497570Y57272430D02*
X37497570Y57678172D01*
X33400000Y51900000D02*
X33400000Y52700000D01*
X37497570Y56802430D02*
X37497570Y57272430D01*
X23000000Y42300006D02*
X19899994Y42300006D01*
X37500000Y56800000D02*
X37497570Y56802430D01*
X34664965Y39922604D02*
X34664965Y46735035D01*
X33400000Y52700000D02*
X37500000Y56800000D01*
X33400000Y48000000D02*
X33400000Y51900000D01*
X18700000Y43500000D02*
X16300000Y43500000D01*
X43240000Y64200000D02*
X43240000Y63420602D01*
X34664965Y46735035D02*
X33400000Y48000000D01*
X37497570Y57678172D02*
X43240000Y63420602D01*
X19899994Y42300006D02*
X18700000Y43500000D01*
X12250000Y42500000D02*
X15350000Y45600000D01*
X15350000Y45600000D02*
X18800000Y45600000D01*
X36200000Y57300000D02*
X36200000Y58200000D01*
X33400000Y41524264D02*
X33400000Y46200000D01*
X32200000Y39900000D02*
X32200000Y40324264D01*
X41400000Y63400000D02*
X41400000Y63600000D01*
X38200000Y60200000D02*
X38600000Y60600000D01*
X23000000Y39900000D02*
X20100000Y39900000D01*
X20100000Y39900000D02*
X18900000Y41100000D01*
X32200000Y53300000D02*
X36200000Y57300000D01*
X36350000Y58350000D02*
X38200000Y60200000D01*
X36200000Y58200000D02*
X36350000Y58350000D01*
X33400000Y46200000D02*
X32200000Y47400000D01*
X32200000Y40324264D02*
X33400000Y41524264D01*
X38600000Y60600000D02*
X41400000Y63400000D01*
X32200000Y47400000D02*
X32200000Y52700000D01*
X32200000Y52700000D02*
X32200000Y53300000D01*
D32*
X62900000Y10700000D02*
X45600000Y10700000D01*
X63400000Y10200000D02*
X62900000Y10700000D01*
X45600000Y10700000D02*
X45200000Y11100000D01*
X66100000Y7500000D02*
X63400000Y10200000D01*
X45200000Y11100000D02*
X45200000Y12900000D01*
X65900000Y11200000D02*
X46500000Y11200000D01*
X45900000Y11800000D02*
X45900000Y14000000D01*
X45900000Y14000000D02*
X45000000Y14900000D01*
X46500000Y11200000D02*
X45900000Y11800000D01*
X69600000Y7500000D02*
X65900000Y11200000D01*
X76600000Y7500000D02*
X71900000Y12200000D01*
X46900020Y13499980D02*
X46900020Y14699980D01*
X71900000Y12200000D02*
X48200000Y12200000D01*
X48200000Y12200000D02*
X46900020Y13499980D01*
X45800000Y15800000D02*
X45800000Y18000000D01*
X46900020Y14699980D02*
X45800000Y15800000D01*
D30*
X20300000Y40700000D02*
X19299999Y41700001D01*
X33024265Y40024265D02*
X33800000Y40800000D01*
X33800000Y46400000D02*
X32600000Y47600000D01*
X36600000Y57100000D02*
X36600000Y57320000D01*
X23000000Y40700000D02*
X20300000Y40700000D01*
X33800000Y40800000D02*
X33800000Y46400000D01*
X42040000Y63351998D02*
X42040000Y68140000D01*
X19299999Y41700001D02*
X16399999Y41700001D01*
X32600000Y52600000D02*
X32600000Y53100000D01*
X36600000Y57320000D02*
X36600000Y57911998D01*
X33024265Y39924265D02*
X33024265Y40024265D01*
X32600000Y47600000D02*
X32600000Y52600000D01*
X16399999Y41700001D02*
X16200000Y41900000D01*
X36600000Y57911998D02*
X42040000Y63351998D01*
X32600000Y53100000D02*
X36600000Y57100000D01*
D32*
X46400010Y12399990D02*
X46400010Y14461992D01*
X46400010Y14461992D02*
X45000000Y15862002D01*
X73100000Y7500000D02*
X68900000Y11700000D01*
X47100000Y11700000D02*
X46400010Y12399990D01*
X45000000Y15862002D02*
X45000000Y19300000D01*
X68900000Y11700000D02*
X47100000Y11700000D01*
X35457120Y11442880D02*
X35900010Y11885770D01*
X32700000Y7500000D02*
X32700000Y8685760D01*
X35900010Y15500010D02*
X36800000Y16400000D01*
X32700000Y8685760D02*
X35457120Y11442880D01*
X35900010Y11885770D02*
X35900010Y15500010D01*
X36800000Y16400000D02*
X36800000Y17600000D01*
X36200000Y18200000D02*
X36200000Y20500000D01*
X36800000Y17600000D02*
X36200000Y18200000D01*
D30*
X25290000Y51570000D02*
X25290000Y55708530D01*
X19000000Y44300000D02*
X24600000Y44300000D01*
X25800000Y51060000D02*
X25290000Y51570000D01*
X25800000Y45500000D02*
X25800000Y51060000D01*
X24600000Y44300000D02*
X25800000Y45500000D01*
X25290000Y55708530D02*
X25554837Y55973367D01*
D32*
X37550001Y19022700D02*
X37550001Y16442881D01*
X36400020Y15292900D02*
X36400020Y7700020D01*
X37550001Y16442881D02*
X36400020Y15292900D01*
X37274264Y19298437D02*
X37550001Y19022700D01*
X36850000Y19298437D02*
X37274264Y19298437D01*
X36400020Y7700020D02*
X36200000Y7500000D01*
D30*
X33880000Y63710000D02*
X34700000Y64530000D01*
X36320000Y66418002D02*
X37601998Y67700000D01*
X39440000Y67700000D02*
X40480000Y68740000D01*
X36320000Y65050000D02*
X36320000Y66150000D01*
X24890000Y56438002D02*
X32161998Y63710000D01*
X35800000Y64530000D02*
X36320000Y65050000D01*
X37601998Y67700000D02*
X39440000Y67700000D01*
X36320000Y66150000D02*
X36320000Y66418002D01*
X25400000Y50870000D02*
X24890000Y51380000D01*
X23900000Y46900000D02*
X25400000Y48400000D01*
X32161998Y63710000D02*
X33880000Y63710000D01*
X25400000Y48400000D02*
X25400000Y50870000D01*
X34700000Y64530000D02*
X35800000Y64530000D01*
X19100000Y46900000D02*
X23900000Y46900000D01*
X24890000Y51380000D02*
X24890000Y56438002D01*
D32*
X34603560Y11296440D02*
X35000010Y11692890D01*
X32600000Y10000000D02*
X32600008Y9999992D01*
X33307112Y9999992D02*
X34603560Y11296440D01*
X35000010Y13692890D02*
X35400000Y14092880D01*
X31700000Y10000000D02*
X29200000Y7500000D01*
X35400000Y14092880D02*
X35400000Y16100000D01*
X32600000Y10000000D02*
X31700000Y10000000D01*
X32600008Y9999992D02*
X33307112Y9999992D01*
X35400000Y16100000D02*
X36100000Y16800000D01*
X35000010Y11692890D02*
X35000010Y13692890D01*
X25700000Y7500000D02*
X28700000Y10500000D01*
X28700000Y10500000D02*
X33100000Y10500000D01*
X34500000Y11900000D02*
X33100000Y10500000D01*
X34500000Y13900000D02*
X34500000Y15200000D01*
X34500000Y13900000D02*
X34500000Y11900000D01*
D30*
X44375735Y24775735D02*
X44375735Y30598530D01*
X44375735Y30598530D02*
X44074265Y30900000D01*
X45000000Y30822794D02*
X44113494Y31709300D01*
X45000000Y23899980D02*
X45000000Y30822794D01*
X45700000Y31010796D02*
X44125134Y32585662D01*
X44125134Y32585662D02*
X44085662Y32585662D01*
X45700000Y23299980D02*
X45700000Y31010796D01*
D32*
X68300000Y45100000D02*
X68300000Y46000000D01*
X68300000Y46000000D02*
X68000000Y46300000D01*
X69100000Y55700000D02*
X69100000Y56000000D01*
X69100000Y56000000D02*
X68000000Y57100000D01*
X66700000Y44900000D02*
X66700000Y45800000D01*
X66700000Y45800000D02*
X66700000Y46300000D01*
X65300000Y46200000D02*
X65400000Y46300000D01*
X65300000Y44900000D02*
X65300000Y46200000D01*
X66700000Y57594990D02*
X66700000Y57100000D01*
X65794990Y58500000D02*
X66700000Y57594990D01*
X65300000Y58500000D02*
X65794990Y58500000D01*
X65200000Y55700000D02*
X65200000Y56900000D01*
X65200000Y56900000D02*
X65400000Y57100000D01*
X66800000Y65700000D02*
X66800000Y67000000D01*
X65500000Y65700000D02*
X65500000Y67000000D01*
X65200000Y80900000D02*
X65200000Y79700000D01*
X68100000Y64500000D02*
X68100000Y65700000D01*
X66400000Y111200000D02*
X65700000Y111200000D01*
X67500000Y116500000D02*
X70900000Y119900000D01*
X67500000Y112300000D02*
X66400000Y111200000D01*
X67500000Y113900000D02*
X67500000Y112300000D01*
X67500000Y113900000D02*
X67500000Y116500000D01*
D30*
X28599999Y53000001D02*
X28599999Y53699999D01*
X4780000Y35700000D02*
X6700000Y35700000D01*
X29000000Y52200000D02*
X29000000Y52600000D01*
X10500000Y31900000D02*
X24400000Y31900000D01*
X38230000Y54315421D02*
X38230000Y56270000D01*
X28700000Y42200000D02*
X29000000Y42500000D01*
X28599999Y53699999D02*
X29100000Y54200000D01*
X38230000Y56270000D02*
X39020000Y57060000D01*
X29100000Y54200000D02*
X29200000Y54200000D01*
X28700000Y36200000D02*
X28700000Y42200000D01*
X3500000Y34420000D02*
X4780000Y35700000D01*
X6700000Y35700000D02*
X10500000Y31900000D01*
X39020000Y57060000D02*
X39020000Y58280000D01*
X29000000Y52600000D02*
X28599999Y53000001D01*
X24400000Y31900000D02*
X28700000Y36200000D01*
X37914579Y54000000D02*
X38230000Y54315421D01*
X29000000Y42500000D02*
X29000000Y52200000D01*
X29400000Y42300000D02*
X29400000Y53200000D01*
X40310000Y56930000D02*
X40310000Y58890000D01*
X6377094Y34420000D02*
X9297094Y31500000D01*
X6040000Y34420000D02*
X6377094Y34420000D01*
X38790000Y54000000D02*
X38790000Y55410000D01*
X29100000Y42000000D02*
X29400000Y42300000D01*
X29100000Y36000000D02*
X29100000Y42000000D01*
X29400000Y53200000D02*
X29200000Y53400000D01*
X24600000Y31500000D02*
X29100000Y36000000D01*
X38790000Y55410000D02*
X40310000Y56930000D01*
X9297094Y31500000D02*
X24600000Y31500000D01*
X34463468Y60000000D02*
X34963468Y60500000D01*
X30224266Y55424266D02*
X31324266Y55424266D01*
X34963468Y60500000D02*
X36700000Y60500000D01*
X39587851Y63387851D02*
X38000000Y61800000D01*
X29800000Y55000000D02*
X30224266Y55424266D01*
X34100000Y58200000D02*
X34100000Y59636532D01*
X29800000Y42100000D02*
X29800000Y53500000D01*
X4820000Y33200000D02*
X7031396Y33200000D01*
X34100000Y59636532D02*
X34463468Y60000000D01*
X7031396Y33200000D02*
X9131396Y31100000D01*
X29800000Y53500000D02*
X29800000Y54200000D01*
X36700000Y60500000D02*
X38000000Y61800000D01*
X39587851Y64830000D02*
X39587851Y63387851D01*
X31324266Y55424266D02*
X34100000Y58200000D01*
X3500000Y31880000D02*
X4820000Y33200000D01*
X29500000Y41800000D02*
X29800000Y42100000D01*
X24800000Y31100000D02*
X29500000Y35800000D01*
X29500000Y35800000D02*
X29500000Y41800000D01*
X9131396Y31100000D02*
X24800000Y31100000D01*
X29800000Y54200000D02*
X29800000Y55000000D01*
D32*
X67800000Y80900000D02*
X67800000Y79700000D01*
X59100000Y89900000D02*
X59100000Y91200000D01*
D30*
X25000000Y30700000D02*
X29900000Y35600000D01*
X7785699Y31879999D02*
X8965698Y30700000D01*
X30200000Y54548530D02*
X30475735Y54824265D01*
X30200000Y53500000D02*
X30200000Y54548530D01*
X30200000Y41900000D02*
X30200000Y53500000D01*
X29900000Y41600000D02*
X30200000Y41900000D01*
X29900000Y35600000D02*
X29900000Y41600000D01*
X6040000Y31880000D02*
X7785699Y31879999D01*
X8965698Y30700000D02*
X25000000Y30700000D01*
X30300001Y41365699D02*
X30600000Y41665698D01*
X3500000Y29340000D02*
X4760000Y30600000D01*
X30600000Y53600000D02*
X30600000Y54100000D01*
X34600000Y58100000D02*
X34600000Y59248530D01*
X25200000Y30300000D02*
X30300000Y35400000D01*
X8800000Y30300000D02*
X25200000Y30300000D01*
X30600000Y54100000D02*
X34300000Y57800000D01*
X30600000Y53500000D02*
X30600000Y53600000D01*
X30300000Y35400000D02*
X30300001Y41365699D01*
X8500000Y30600000D02*
X8800000Y30300000D01*
X34300000Y57800000D02*
X34600000Y58100000D01*
X30600000Y41665698D02*
X30600000Y53500000D01*
X34600000Y59248530D02*
X34715735Y59364265D01*
X4760000Y30600000D02*
X8500000Y30600000D01*
X4700000Y28000000D02*
X7500000Y28000000D01*
X40190000Y63390534D02*
X40187852Y63388386D01*
X31100000Y41000000D02*
X31400000Y41300000D01*
X31400000Y53700000D02*
X35400000Y57700000D01*
X3500000Y26800000D02*
X4700000Y28000000D01*
X35400000Y57700000D02*
X35400000Y58600534D01*
X31400000Y41300000D02*
X31400000Y53200000D01*
X35699733Y58900267D02*
X37599466Y60800000D01*
X7500000Y28000000D02*
X9000000Y29500000D01*
X31100000Y35000000D02*
X31100000Y41000000D01*
X38199466Y61400000D02*
X40187852Y63388386D01*
X9000000Y29500000D02*
X25600000Y29500000D01*
X31400000Y53200000D02*
X31400000Y53700000D01*
X25600000Y29500000D02*
X31100000Y35000000D01*
X35400000Y58600534D02*
X35699733Y58900267D01*
X37599466Y60800000D02*
X38199466Y61400000D01*
X40190000Y65500000D02*
X40190000Y63390534D01*
X31800000Y53500000D02*
X35800000Y57500000D01*
X38400000Y61000000D02*
X40790000Y63390000D01*
X31500000Y40800000D02*
X31800000Y41100000D01*
X31800000Y53000000D02*
X31800000Y53500000D01*
X36050000Y58650000D02*
X38050000Y60650000D01*
X31500000Y34800000D02*
X31500000Y40800000D01*
X40790000Y63390000D02*
X40790000Y66110000D01*
X35800000Y57500000D02*
X35800000Y58400000D01*
X38050000Y60650000D02*
X38400000Y61000000D01*
X31800000Y41100000D02*
X31800000Y53000000D01*
X25800000Y29100000D02*
X31500000Y34800000D01*
X6040000Y26800000D02*
X6900000Y26800000D01*
X6900000Y26800000D02*
X9200000Y29100000D01*
X9200000Y29100000D02*
X25800000Y29100000D01*
X35800000Y58400000D02*
X36050000Y58650000D01*
D32*
X59100000Y95400000D02*
X59100000Y97000000D01*
X66700000Y59900000D02*
X66700000Y61600000D01*
X66800000Y68450000D02*
X66800000Y69800000D01*
X66300000Y85400000D02*
X66300000Y83800000D01*
X66300000Y83800000D02*
X66400000Y83700000D01*
D30*
X26100000Y55100000D02*
X28500000Y57500000D01*
X28500000Y58600000D02*
X32800000Y62900000D01*
X37150000Y65190000D02*
X37620000Y65660000D01*
X32800000Y62900000D02*
X34270000Y62900000D01*
X37150000Y64710000D02*
X37150000Y65190000D01*
X36140001Y63700001D02*
X37150000Y64710000D01*
X26600000Y43700000D02*
X26600000Y51434302D01*
X26300000Y39600000D02*
X26300000Y43400000D01*
X26100000Y51934302D02*
X26100000Y55100000D01*
X26300000Y43400000D02*
X26600000Y43700000D01*
X26600000Y51434302D02*
X26100000Y51934302D01*
X34270000Y62900000D02*
X35070001Y63700001D01*
X28500000Y57500000D02*
X28500000Y58600000D01*
X25400000Y38700000D02*
X26300000Y39600000D01*
X35070001Y63700001D02*
X36140001Y63700001D01*
X25690000Y55260000D02*
X28100000Y57670000D01*
X35960000Y64110000D02*
X36750000Y64900000D01*
X26200000Y43900000D02*
X26200000Y51260000D01*
X36940000Y65550000D02*
X36940000Y66150000D01*
X25900000Y40400000D02*
X25900000Y43600000D01*
X28100000Y58780000D02*
X32630000Y63310000D01*
X32630000Y63310000D02*
X34050000Y63310000D01*
X34050000Y63310000D02*
X34850000Y64110000D01*
X25900000Y43600000D02*
X26200000Y43900000D01*
X34850000Y64110000D02*
X35960000Y64110000D01*
X26200000Y51260000D02*
X25690000Y51770000D01*
X36750000Y65360000D02*
X36940000Y65550000D01*
X25690000Y51770000D02*
X25690000Y55260000D01*
X36750000Y64900000D02*
X36750000Y65360000D01*
X24800000Y39300000D02*
X25900000Y40400000D01*
X28100000Y57670000D02*
X28100000Y58780000D01*
X35950000Y66650000D02*
X33350000Y66650000D01*
X32920000Y67080000D02*
X28490000Y67080000D01*
X43840001Y61840001D02*
X43840001Y67228001D01*
X33350000Y66650000D02*
X32920000Y67080000D01*
X43840001Y67228001D02*
X41718002Y69350000D01*
X38650000Y69350000D02*
X35950000Y66650000D01*
X41718002Y69350000D02*
X38650000Y69350000D01*
D32*
X66300000Y95300000D02*
X66400000Y95400000D01*
X66300000Y92700000D02*
X66300000Y95300000D01*
X60900000Y94900000D02*
X60400000Y95400000D01*
X61800000Y94900000D02*
X60900000Y94900000D01*
X58100000Y94300000D02*
X60900000Y94300000D01*
X57800000Y95400000D02*
X57800000Y94600000D01*
X57800000Y94600000D02*
X58100000Y94300000D01*
X60900000Y94300000D02*
X61100000Y94100000D01*
D30*
X23019265Y65669265D02*
X23000000Y65650000D01*
X31659265Y65669265D02*
X23019265Y65669265D01*
D32*
X59400000Y113900000D02*
X59400000Y115400000D01*
X66200000Y113900000D02*
X66200000Y112300000D01*
X70100000Y114400000D02*
X69300000Y114400000D01*
X69300000Y114400000D02*
X68800000Y113900000D01*
D30*
X52700000Y28900000D02*
X52100000Y29500000D01*
X55000000Y28900000D02*
X52700000Y28900000D01*
X52100000Y29500000D02*
X52100000Y36200000D01*
X52100000Y36200000D02*
X53700000Y37800000D01*
D32*
X29700000Y95200000D02*
X27200000Y95200000D01*
X66400000Y91200000D02*
X66400000Y89924990D01*
X60400000Y91400000D02*
X61500000Y92500000D01*
X60400000Y91200000D02*
X60400000Y91400000D01*
X57800000Y89900000D02*
X57800000Y91200000D01*
X59700000Y107600000D02*
X60600000Y107600000D01*
X60600000Y107600000D02*
X61400000Y106800000D01*
D30*
X49400000Y29100000D02*
X49400000Y25251470D01*
X49400000Y25251470D02*
X50375735Y24275735D01*
X47300000Y31200000D02*
X46350000Y31200000D01*
X49400000Y29100000D02*
X47300000Y31200000D01*
X45550000Y34900000D02*
X40100000Y34900000D01*
D32*
X65400000Y107600000D02*
X66400000Y107600000D01*
X66400000Y107600000D02*
X68600000Y109800000D01*
D30*
X58532849Y23832849D02*
X58300000Y24065698D01*
X58300000Y30300000D02*
X57700000Y30900000D01*
X53199265Y30974999D02*
X53524266Y31300000D01*
X58532849Y23832849D02*
X61765698Y20600000D01*
X55865698Y31300000D02*
X57300000Y31300000D01*
X53199265Y30550735D02*
X53199265Y30974999D01*
X53524266Y31300000D02*
X55865698Y31300000D01*
X61765698Y20600000D02*
X61765706Y20600008D01*
X61765706Y20600008D02*
X68165690Y20600008D01*
X57300000Y31300000D02*
X57700000Y30900000D01*
X58300000Y24065698D02*
X58300000Y30300000D01*
X71765698Y17000000D02*
X72400000Y17000000D01*
X68165690Y20600008D02*
X71765698Y17000000D01*
X61600000Y20200000D02*
X68000000Y20200000D01*
X72000000Y16200000D02*
X72400000Y16200000D01*
X57900000Y30100000D02*
X57100000Y30900000D01*
X57900000Y23900000D02*
X57900000Y30100000D01*
X58500000Y23300000D02*
X57900000Y23900000D01*
X57100000Y30900000D02*
X54299999Y30899999D01*
X68000000Y20200000D02*
X72000000Y16200000D01*
X54299999Y30899999D02*
X54000000Y30600000D01*
X58500000Y23300000D02*
X61600000Y20200000D01*
X76700000Y31265200D02*
X78564800Y33130000D01*
X74400000Y19500000D02*
X76700000Y21800000D01*
X74400000Y16200000D02*
X74400000Y19500000D01*
X76700000Y21800000D02*
X76700000Y31265200D01*
X76100000Y19930600D02*
X78564800Y22395400D01*
X76100000Y17800000D02*
X76100000Y19930600D01*
D32*
X65400000Y106300000D02*
X65400000Y105300000D01*
X64100000Y107000000D02*
X64100000Y108344959D01*
X64655041Y108900000D02*
X65400000Y108900000D01*
X64100000Y108344959D02*
X64655041Y108900000D01*
D30*
X50000000Y93800000D02*
X50000000Y112200000D01*
X51500000Y92300000D02*
X50000000Y93800000D01*
X51500000Y81900000D02*
X51500000Y92300000D01*
X34430000Y70530000D02*
X34430000Y68030000D01*
X50000000Y112200000D02*
X50400000Y112600000D01*
X36135000Y72235000D02*
X34430000Y70530000D01*
X40200000Y76400000D02*
X36135000Y72235000D01*
X45800000Y74900000D02*
X46300000Y75400000D01*
X34900000Y111900000D02*
X45900000Y111900000D01*
X49200000Y93800000D02*
X49200000Y93400000D01*
X50500000Y92100000D02*
X50500000Y87500000D01*
X46300000Y75400000D02*
X46300000Y83300000D01*
X49200000Y108600000D02*
X49200000Y93800000D01*
X34200000Y112600000D02*
X34900000Y111900000D01*
X45900000Y111900000D02*
X49200000Y108600000D01*
X43500000Y74900000D02*
X45800000Y74900000D01*
X49200000Y93400000D02*
X50500000Y92100000D01*
X50500000Y87500000D02*
X47300000Y84300000D01*
X46300000Y83300000D02*
X47300000Y84300000D01*
X42100000Y74400000D02*
X42100000Y76000000D01*
X48300000Y108300000D02*
X48300000Y93100000D01*
X46300000Y66000000D02*
X46700000Y66400000D01*
X45500000Y83700000D02*
X45500000Y77400000D01*
X49700000Y91700000D02*
X49700000Y87900000D01*
X19700020Y111099980D02*
X45500020Y111099980D01*
X45200000Y73600000D02*
X42900000Y73600000D01*
X45500000Y77400000D02*
X45500000Y76700000D01*
X46300000Y65500000D02*
X46300000Y66000000D01*
X42900000Y73600000D02*
X42100000Y74400000D01*
X48300000Y93100000D02*
X49700000Y91700000D01*
X49700000Y87900000D02*
X45500000Y83700000D01*
X45500000Y76700000D02*
X45300000Y76500000D01*
X18200000Y112600000D02*
X19700020Y111099980D01*
X46700000Y66400000D02*
X46700000Y72100000D01*
X46700000Y72100000D02*
X45200000Y73600000D01*
X45500020Y111099980D02*
X48300000Y108300000D01*
X51500000Y81100000D02*
X51075736Y81100000D01*
X49600000Y93600000D02*
X49600000Y108800000D01*
X49600000Y108800000D02*
X45800000Y112600000D01*
X45800000Y112600000D02*
X42400000Y112600000D01*
X50900000Y81275736D02*
X50900000Y85900000D01*
X50900000Y85900000D02*
X50900000Y92300000D01*
X50900000Y92300000D02*
X49600000Y93600000D01*
X51075736Y81100000D02*
X50900000Y81275736D01*
X48799990Y108400010D02*
X45700010Y111499990D01*
X50100000Y91900000D02*
X48799990Y93200010D01*
X48799990Y95799990D02*
X48799990Y108400010D01*
X50100000Y87700000D02*
X50100000Y91900000D01*
X45900000Y76200000D02*
X45900000Y83500000D01*
X27300010Y111499990D02*
X26200000Y112600000D01*
X45900000Y83500000D02*
X50100000Y87700000D01*
X45700010Y111499990D02*
X27300010Y111499990D01*
X45300000Y75700000D02*
X45400000Y75700000D01*
X45400000Y75700000D02*
X45900000Y76200000D01*
X48799990Y93200010D02*
X48799990Y95799990D01*
X49300000Y88100000D02*
X45100000Y83900000D01*
X44400000Y78100000D02*
X42700000Y76400000D01*
X45300030Y110699970D02*
X47900000Y108100000D01*
X10000000Y112600000D02*
X11900030Y110699970D01*
X42700000Y74400000D02*
X42700000Y76300000D01*
X45100000Y83900000D02*
X45100000Y78800000D01*
X47900000Y108100000D02*
X47900000Y92900000D01*
X47900000Y92900000D02*
X49300000Y91500000D01*
X47100000Y65500000D02*
X47100000Y72300000D01*
X49300000Y91500000D02*
X49300000Y88100000D01*
X45100000Y78800000D02*
X44400000Y78100000D01*
X45400000Y74000000D02*
X43100000Y74000000D01*
X47100000Y72300000D02*
X45400000Y74000000D01*
X11900030Y110699970D02*
X45300030Y110699970D01*
X42700000Y76400000D02*
X42700000Y76300000D01*
X43100000Y74000000D02*
X42700000Y74400000D01*
X29150000Y61550000D02*
X24290000Y56690000D01*
X24290000Y56690000D02*
X24290000Y52200000D01*
X33100000Y70400000D02*
X33100000Y72300000D01*
X33100000Y72300000D02*
X38500000Y77700000D01*
X38500000Y77700000D02*
X38500000Y81700000D01*
X39300000Y76400000D02*
X36300000Y73400000D01*
X39300000Y81700000D02*
X39300000Y76400000D01*
X36300000Y73400000D02*
X36224989Y73400000D01*
D32*
X8600000Y78200000D02*
X8600000Y63800000D01*
X8600000Y63800000D02*
X10300000Y62100000D01*
X10300000Y79900000D02*
X8600000Y78200000D01*
X12840000Y60830000D02*
X12840000Y67660000D01*
X12840000Y67660000D02*
X11600000Y68900000D01*
X11600000Y77390000D02*
X11600000Y68900000D01*
X12840000Y78630000D02*
X11600000Y77390000D01*
X10300000Y72280000D02*
X10300000Y65600000D01*
X11500000Y64400000D02*
X11500000Y55680000D01*
X11500000Y55680000D02*
X10300000Y54480000D01*
X10300000Y65600000D02*
X11500000Y64400000D01*
X12840000Y53210000D02*
X14300000Y54670000D01*
X14300000Y69550000D02*
X12840000Y71010000D01*
X14300000Y54670000D02*
X14300000Y69550000D01*
D30*
X36771014Y45251014D02*
X36959990Y45439990D01*
X45600020Y53704321D02*
X45800011Y53904312D01*
X36771014Y45240000D02*
X36771014Y45251014D01*
X42211387Y45439990D02*
X45600020Y48828622D01*
X45600020Y48828622D02*
X45600020Y53704321D01*
X45800011Y53904312D02*
X45800011Y58360011D01*
X45800011Y58360011D02*
X47140000Y59700000D01*
X36959990Y45439990D02*
X42211387Y45439990D01*
X36180000Y45840000D02*
X42045698Y45840000D01*
X45400001Y54070001D02*
X45400001Y59199999D01*
X45200010Y53870010D02*
X45400001Y54070001D01*
X45400001Y59199999D02*
X45400000Y59200000D01*
X45200010Y48994311D02*
X45200010Y53870010D01*
X42045698Y45840000D02*
X45200010Y48994311D01*
X27500000Y37200000D02*
X27500000Y42800000D01*
X33400000Y61700000D02*
X35851470Y61700000D01*
X27800000Y43100000D02*
X27800000Y52000000D01*
X27200000Y36900000D02*
X27500000Y37200000D01*
X29700000Y58000000D02*
X33400000Y61700000D01*
X27500000Y42800000D02*
X27800000Y43100000D01*
X27800000Y52000000D02*
X27300000Y52500000D01*
X29700000Y56800000D02*
X29700000Y58000000D01*
X27300000Y54400000D02*
X29700000Y56800000D01*
X27300000Y52500000D02*
X27300000Y54400000D01*
X35851470Y61700000D02*
X36075735Y61924265D01*
X35400000Y46600000D02*
X35400000Y38600000D01*
X33800010Y48199990D02*
X35400000Y46600000D01*
X38097571Y57400000D02*
X38097571Y56797571D01*
X38097571Y56797571D02*
X33800010Y52500010D01*
X35400000Y38600000D02*
X32400000Y35600000D01*
X33800010Y52500010D02*
X33800010Y48199990D01*
D32*
X6040000Y42040000D02*
X7180000Y40900000D01*
X7180000Y40900000D02*
X8700000Y40900000D01*
D30*
X8240000Y29340000D02*
X8800000Y29900000D01*
X6040000Y29340000D02*
X8240000Y29340000D01*
X30700000Y41200000D02*
X31000000Y41500000D01*
X30700000Y35200000D02*
X30700000Y36200000D01*
X31000000Y53400000D02*
X31000000Y53900000D01*
X35800000Y59600000D02*
X35775468Y59624532D01*
X35200000Y59000000D02*
X35800000Y59600000D01*
X35000000Y57900000D02*
X35000000Y58800000D01*
X31000000Y41500000D02*
X31000000Y53400000D01*
X31000000Y53900000D02*
X35000000Y57900000D01*
X8800000Y29900000D02*
X25400000Y29900000D01*
X30700000Y41000000D02*
X30700000Y41200000D01*
X25400000Y29900000D02*
X30700000Y35200000D01*
X35775468Y59624532D02*
X35775468Y59824532D01*
X30700000Y36200000D02*
X30700000Y41000000D01*
X35000000Y58800000D02*
X35200000Y59000000D01*
X16200000Y32700000D02*
X24000000Y32700000D01*
X30288002Y56300000D02*
X31100000Y57111998D01*
X13600000Y35300000D02*
X16200000Y32700000D01*
X28600000Y55100000D02*
X29800000Y56300000D01*
X24000000Y32700000D02*
X27900000Y36600000D01*
X29800000Y56300000D02*
X30288002Y56300000D01*
X28200000Y42900000D02*
X28200000Y51800000D01*
X31100000Y58788002D02*
X33611998Y61300000D01*
X28200000Y52200000D02*
X27799979Y52600021D01*
X31100000Y57111998D02*
X31100000Y58788002D01*
X27900000Y42500000D02*
X27900000Y42600000D01*
X27799979Y52600021D02*
X27799979Y54299979D01*
X36300000Y61300000D02*
X38387851Y63387851D01*
X27900000Y42600000D02*
X28200000Y42900000D01*
X13600000Y37000000D02*
X13600000Y35300000D01*
X33611998Y61300000D02*
X36300000Y61300000D01*
X28200000Y51800000D02*
X28200000Y52200000D01*
X38387851Y63387851D02*
X38387851Y66100000D01*
X27799979Y54299979D02*
X28600000Y55100000D01*
X27900000Y36600000D02*
X27900000Y42500000D01*
X24200000Y32300000D02*
X28300000Y36400000D01*
X28199989Y53899989D02*
X28199989Y54099989D01*
D32*
X4840000Y38300000D02*
X7300000Y38300000D01*
D30*
X10900000Y37000000D02*
X10900000Y35200000D01*
X28300000Y42400000D02*
X28600000Y42700000D01*
X28199989Y52800011D02*
X28199989Y53899989D01*
X34797770Y60900000D02*
X36500000Y60900000D01*
X38987851Y63387851D02*
X37900000Y62300000D01*
X33700000Y58400000D02*
X33699992Y58400008D01*
X28600000Y42700000D02*
X28600000Y52400000D01*
X31200000Y55900000D02*
X33700000Y58400000D01*
X10900000Y35200000D02*
X13800000Y32300000D01*
X36500000Y60900000D02*
X37900000Y62300000D01*
X30000000Y55900000D02*
X31200000Y55900000D01*
X29400000Y55300000D02*
X30000000Y55900000D01*
X28600000Y52400000D02*
X28199989Y52800011D01*
D32*
X3500000Y36960000D02*
X4840000Y38300000D01*
D30*
X33699992Y59802222D02*
X34797770Y60900000D01*
X28300000Y36400000D02*
X28300000Y42400000D01*
X33699992Y58400008D02*
X33699992Y59802222D01*
X13800000Y32300000D02*
X24200000Y32300000D01*
D32*
X7300000Y38300000D02*
X8600000Y37000000D01*
D30*
X28199989Y54099989D02*
X29400000Y55300000D01*
X38987851Y66985421D02*
X38987851Y63387851D01*
D32*
X66700000Y49100000D02*
X66700000Y51000000D01*
D30*
X32991189Y68018811D02*
X33770000Y67240000D01*
X28500973Y68018811D02*
X32991189Y68018811D01*
X37288002Y70000000D02*
X37400000Y70000000D01*
X34528002Y67240000D02*
X37288002Y70000000D01*
X33770000Y67240000D02*
X34528002Y67240000D01*
X42800000Y70000000D02*
X37400000Y70000000D01*
%TA.AperFunction,Conductor*%
G36*
X31404843Y91899523D02*
G01*
X31585388Y91881741D01*
X31604418Y91877955D01*
X31688886Y91852333D01*
X31773353Y91826710D01*
X31791283Y91819283D01*
X31946969Y91736067D01*
X31963106Y91725285D01*
X32099573Y91613290D01*
X32113290Y91599573D01*
X32180102Y91518163D01*
X32225285Y91463106D01*
X32236067Y91446969D01*
X32319283Y91291283D01*
X32326710Y91273353D01*
X32377955Y91104420D01*
X32381741Y91085386D01*
X32399523Y90904843D01*
X32400000Y90895139D01*
X32400000Y87004861D01*
X32399523Y86995157D01*
X32381741Y86814614D01*
X32377955Y86795580D01*
X32326710Y86626647D01*
X32319283Y86608717D01*
X32236067Y86453031D01*
X32225285Y86436894D01*
X32113290Y86300427D01*
X32099573Y86286710D01*
X32018163Y86219898D01*
X31963106Y86174715D01*
X31946969Y86163933D01*
X31791283Y86080717D01*
X31773353Y86073290D01*
X31688887Y86047668D01*
X31604418Y86022045D01*
X31585388Y86018259D01*
X31404843Y86000477D01*
X31395139Y86000000D01*
X29004861Y86000000D01*
X28995157Y86000477D01*
X28814612Y86018259D01*
X28795582Y86022045D01*
X28711114Y86047667D01*
X28626647Y86073290D01*
X28608717Y86080717D01*
X28453031Y86163933D01*
X28436894Y86174715D01*
X28381837Y86219898D01*
X28300427Y86286710D01*
X28286710Y86300427D01*
X28174715Y86436894D01*
X28163933Y86453031D01*
X28080717Y86608717D01*
X28073290Y86626647D01*
X28022045Y86795580D01*
X28018259Y86814614D01*
X28000477Y86995157D01*
X28000000Y87004861D01*
X28000000Y90895139D01*
X28000477Y90904843D01*
X28018259Y91085386D01*
X28022045Y91104420D01*
X28073290Y91273353D01*
X28080717Y91291283D01*
X28163933Y91446969D01*
X28174715Y91463106D01*
X28219898Y91518163D01*
X28286710Y91599573D01*
X28300427Y91613290D01*
X28436894Y91725285D01*
X28453031Y91736067D01*
X28608717Y91819283D01*
X28626647Y91826710D01*
X28711113Y91852332D01*
X28795582Y91877955D01*
X28814612Y91881741D01*
X28995157Y91899523D01*
X29004861Y91900000D01*
X31395139Y91900000D01*
X31404843Y91899523D01*
G37*
%TD.AperFunction*%
%TA.AperFunction,Conductor*%
G36*
X69770213Y98466535D02*
G01*
X69801535Y98464404D01*
X69962429Y98453455D01*
X69972085Y98451817D01*
X70155483Y98401390D01*
X70164622Y98397861D01*
X70334309Y98311943D01*
X70342567Y98306662D01*
X70491749Y98188693D01*
X70498791Y98181875D01*
X70621513Y98036569D01*
X70627056Y98028486D01*
X70657969Y97972029D01*
X70718399Y97861661D01*
X70722222Y97852638D01*
X70735490Y97809834D01*
X70778533Y97670969D01*
X70780484Y97661363D01*
X70799754Y97469669D01*
X70800000Y97464768D01*
X70800000Y49302407D01*
X70799764Y49297604D01*
X70781258Y49109713D01*
X70779384Y49100292D01*
X70725280Y48921934D01*
X70721604Y48913060D01*
X70633746Y48748689D01*
X70628410Y48740702D01*
X70510169Y48596624D01*
X70503376Y48589831D01*
X70359298Y48471590D01*
X70351311Y48466254D01*
X70186940Y48378396D01*
X70178066Y48374720D01*
X69999708Y48320616D01*
X69990287Y48318742D01*
X69802396Y48300236D01*
X69797593Y48300000D01*
X68800414Y48300000D01*
X68795617Y48300235D01*
X68792943Y48300498D01*
X68607950Y48318695D01*
X68598548Y48320563D01*
X68420396Y48374533D01*
X68411534Y48378198D01*
X68247311Y48465845D01*
X68239330Y48471169D01*
X68095335Y48589132D01*
X68088544Y48595909D01*
X67970290Y48739673D01*
X67964951Y48747643D01*
X67876979Y48911685D01*
X67873294Y48920543D01*
X67818970Y49098587D01*
X67817082Y49107993D01*
X67798248Y49295611D01*
X67798003Y49300407D01*
X67793113Y51750523D01*
X67807396Y51785200D01*
X67835717Y51799202D01*
X67953533Y51814713D01*
X67953534Y51814713D01*
X67956715Y51815132D01*
X67959677Y51816359D01*
X67959681Y51816360D01*
X68099784Y51874393D01*
X68099787Y51874395D01*
X68102750Y51875622D01*
X68228153Y51971847D01*
X68324378Y52097250D01*
X68336105Y52125561D01*
X68383640Y52240319D01*
X68383641Y52240323D01*
X68384868Y52243285D01*
X68405500Y52400000D01*
X68384868Y52556715D01*
X68383641Y52559677D01*
X68383640Y52559681D01*
X68325607Y52699784D01*
X68325605Y52699787D01*
X68324378Y52702750D01*
X68272644Y52770172D01*
X68262937Y52806396D01*
X68272644Y52829829D01*
X68322422Y52894701D01*
X68324378Y52897250D01*
X68325607Y52900216D01*
X68383640Y53040319D01*
X68383641Y53040323D01*
X68384868Y53043285D01*
X68405500Y53200000D01*
X68384868Y53356715D01*
X68383641Y53359677D01*
X68383640Y53359681D01*
X68325607Y53499784D01*
X68325605Y53499787D01*
X68324378Y53502750D01*
X68228153Y53628153D01*
X68102750Y53724378D01*
X68099787Y53725605D01*
X68099784Y53725607D01*
X67959681Y53783640D01*
X67959677Y53783641D01*
X67956715Y53784868D01*
X67953534Y53785287D01*
X67953533Y53785287D01*
X67932088Y53788110D01*
X67831526Y53801349D01*
X67799049Y53820101D01*
X67788923Y53849832D01*
X67784640Y55995402D01*
X67798923Y56030079D01*
X67833640Y56044500D01*
X68000000Y56044500D01*
X68014180Y56045155D01*
X68025361Y56045672D01*
X68025364Y56045672D01*
X68028188Y56045803D01*
X68030911Y56046578D01*
X68030919Y56046579D01*
X68033721Y56047376D01*
X68047425Y56049245D01*
X68055960Y56049193D01*
X68065990Y56049132D01*
X68151809Y56060887D01*
X68153473Y56061363D01*
X68153475Y56061363D01*
X68286440Y56099365D01*
X68288116Y56099844D01*
X68289710Y56100557D01*
X68289718Y56100560D01*
X68309093Y56109227D01*
X68346581Y56110275D01*
X68363750Y56099147D01*
X68518648Y55944248D01*
X68533000Y55909600D01*
X68529270Y55890849D01*
X68516361Y55859684D01*
X68516359Y55859678D01*
X68515132Y55856715D01*
X68494500Y55700000D01*
X68515132Y55543285D01*
X68516359Y55540323D01*
X68516360Y55540319D01*
X68574393Y55400216D01*
X68575622Y55397250D01*
X68577578Y55394701D01*
X68638976Y55314686D01*
X68671847Y55271847D01*
X68797250Y55175622D01*
X68800213Y55174395D01*
X68800216Y55174393D01*
X68940319Y55116360D01*
X68940323Y55116359D01*
X68943285Y55115132D01*
X68946466Y55114713D01*
X68946467Y55114713D01*
X69096817Y55094919D01*
X69100000Y55094500D01*
X69103183Y55094919D01*
X69253533Y55114713D01*
X69253534Y55114713D01*
X69256715Y55115132D01*
X69259677Y55116359D01*
X69259681Y55116360D01*
X69399784Y55174393D01*
X69399787Y55174395D01*
X69402750Y55175622D01*
X69528153Y55271847D01*
X69561025Y55314686D01*
X69622422Y55394701D01*
X69624378Y55397250D01*
X69625607Y55400216D01*
X69683640Y55540319D01*
X69683641Y55540323D01*
X69684868Y55543285D01*
X69705500Y55700000D01*
X69684868Y55856715D01*
X69683641Y55859677D01*
X69683640Y55859681D01*
X69625607Y55999784D01*
X69625605Y55999787D01*
X69624378Y56002750D01*
X69588788Y56049132D01*
X69545904Y56105020D01*
X69536323Y56127562D01*
X69535910Y56130311D01*
X69535908Y56130319D01*
X69535364Y56133935D01*
X69533781Y56137232D01*
X69532747Y56140593D01*
X69531600Y56143944D01*
X69530942Y56147545D01*
X69503332Y56200696D01*
X69502651Y56202060D01*
X69478321Y56252727D01*
X69478320Y56252729D01*
X69476735Y56256029D01*
X69474249Y56258718D01*
X69472190Y56261748D01*
X69472472Y56261940D01*
X69471634Y56263133D01*
X69471354Y56262944D01*
X69469793Y56265261D01*
X69468507Y56267736D01*
X69463475Y56273628D01*
X69424373Y56312730D01*
X69423039Y56314117D01*
X69389869Y56350000D01*
X69384798Y56355486D01*
X69381630Y56357326D01*
X69378772Y56359616D01*
X69378830Y56359688D01*
X69372693Y56364410D01*
X68819852Y56917252D01*
X68805500Y56951900D01*
X68805500Y57350000D01*
X68804197Y57378188D01*
X68803256Y57381495D01*
X68803253Y57381947D01*
X68802965Y57383710D01*
X68803239Y57383755D01*
X68803194Y57389757D01*
X68802085Y57389612D01*
X68784728Y57522347D01*
X68784727Y57522353D01*
X68784502Y57524072D01*
X68761209Y57607499D01*
X68704114Y57737258D01*
X68658341Y57810795D01*
X68567121Y57919314D01*
X68502550Y57977047D01*
X68384540Y58055602D01*
X68382969Y58056352D01*
X68382966Y58056353D01*
X68307929Y58092144D01*
X68307925Y58092146D01*
X68306358Y58092893D01*
X68171043Y58135168D01*
X68085539Y58149017D01*
X68083803Y58149049D01*
X68083801Y58149049D01*
X68051332Y58149644D01*
X68033241Y58149975D01*
X68025138Y58150801D01*
X68000000Y58155500D01*
X67829230Y58155500D01*
X67794582Y58169852D01*
X67780231Y58204400D01*
X67768835Y63913960D01*
X67783118Y63948637D01*
X67817737Y63963058D01*
X67836587Y63959328D01*
X67940319Y63916360D01*
X67940323Y63916359D01*
X67943285Y63915132D01*
X67946466Y63914713D01*
X67946467Y63914713D01*
X68096817Y63894919D01*
X68100000Y63894500D01*
X68103183Y63894919D01*
X68253533Y63914713D01*
X68253534Y63914713D01*
X68256715Y63915132D01*
X68259677Y63916359D01*
X68259681Y63916360D01*
X68399784Y63974393D01*
X68399787Y63974395D01*
X68402750Y63975622D01*
X68465451Y64023734D01*
X68525604Y64069891D01*
X68528153Y64071847D01*
X68624378Y64197250D01*
X68629069Y64208575D01*
X68683640Y64340319D01*
X68683641Y64340323D01*
X68684868Y64343285D01*
X68705500Y64500000D01*
X68684868Y64656715D01*
X68683641Y64659677D01*
X68683640Y64659681D01*
X68625821Y64799266D01*
X68625821Y64836769D01*
X68639333Y64855333D01*
X68653042Y64867000D01*
X68746886Y64973258D01*
X68794442Y65045655D01*
X68854690Y65173980D01*
X68880015Y65256812D01*
X68901826Y65396889D01*
X68902211Y65428443D01*
X68903041Y65436847D01*
X68905500Y65450000D01*
X68905500Y65950000D01*
X68904624Y65968956D01*
X68904328Y65975357D01*
X68904328Y65975358D01*
X68904197Y65978188D01*
X68903256Y65981495D01*
X68903253Y65981947D01*
X68902965Y65983710D01*
X68903239Y65983755D01*
X68903194Y65989757D01*
X68902085Y65989612D01*
X68884728Y66122347D01*
X68884727Y66122353D01*
X68884502Y66124072D01*
X68861209Y66207499D01*
X68860505Y66209099D01*
X68804817Y66335661D01*
X68804815Y66335665D01*
X68804114Y66337258D01*
X68758341Y66410795D01*
X68667121Y66519314D01*
X68602550Y66577047D01*
X68484540Y66655602D01*
X68482969Y66656352D01*
X68482966Y66656353D01*
X68407929Y66692144D01*
X68407925Y66692146D01*
X68406358Y66692893D01*
X68271043Y66735168D01*
X68185539Y66749017D01*
X68183803Y66749049D01*
X68183801Y66749049D01*
X68151332Y66749644D01*
X68133241Y66749975D01*
X68125138Y66750801D01*
X68100000Y66755500D01*
X67812065Y66755500D01*
X67777417Y66769852D01*
X67763065Y66804402D01*
X67752598Y72048395D01*
X67769290Y72085333D01*
X67856766Y72162047D01*
X68035696Y72371919D01*
X68182457Y72605422D01*
X68183169Y72607032D01*
X68183172Y72607038D01*
X68237221Y72729297D01*
X68293972Y72857665D01*
X68367907Y73123364D01*
X68368187Y73125561D01*
X68402559Y73395750D01*
X68402559Y73395751D01*
X68402712Y73396953D01*
X68403162Y73413561D01*
X68405467Y73498773D01*
X68405467Y73498777D01*
X68405500Y73500000D01*
X68405412Y73501219D01*
X68385670Y73773300D01*
X68385669Y73773307D01*
X68385541Y73775071D01*
X68363702Y73873991D01*
X68326467Y74042646D01*
X68326465Y74042651D01*
X68326084Y74044379D01*
X68228372Y74302284D01*
X68094454Y74543382D01*
X68091475Y74547286D01*
X67928216Y74761207D01*
X67928213Y74761210D01*
X67927135Y74762623D01*
X67925867Y74763862D01*
X67925864Y74763866D01*
X67761535Y74924508D01*
X67746788Y74959449D01*
X67738630Y79046607D01*
X67752913Y79081284D01*
X67787532Y79095705D01*
X67794022Y79095286D01*
X67796811Y79094919D01*
X67796817Y79094919D01*
X67800000Y79094500D01*
X67803183Y79094919D01*
X67953533Y79114713D01*
X67953534Y79114713D01*
X67956715Y79115132D01*
X67959677Y79116359D01*
X67959681Y79116360D01*
X68099784Y79174393D01*
X68099787Y79174395D01*
X68102750Y79175622D01*
X68228153Y79271847D01*
X68324378Y79397250D01*
X68325607Y79400216D01*
X68383640Y79540319D01*
X68383641Y79540323D01*
X68384868Y79543285D01*
X68405500Y79700000D01*
X68384868Y79856715D01*
X68383641Y79859677D01*
X68383640Y79859681D01*
X68325607Y79999784D01*
X68325605Y79999787D01*
X68324378Y80002750D01*
X68289400Y80048335D01*
X68279693Y80084559D01*
X68291547Y80110599D01*
X68345727Y80171946D01*
X68346886Y80173258D01*
X68394442Y80245655D01*
X68454690Y80373980D01*
X68480015Y80456812D01*
X68501826Y80596889D01*
X68502211Y80628443D01*
X68503041Y80636847D01*
X68505500Y80650000D01*
X68505500Y81150000D01*
X68504197Y81178188D01*
X68503256Y81181495D01*
X68503253Y81181947D01*
X68502965Y81183710D01*
X68503239Y81183755D01*
X68503194Y81189757D01*
X68502085Y81189612D01*
X68484728Y81322347D01*
X68484727Y81322353D01*
X68484502Y81324072D01*
X68461209Y81407499D01*
X68404114Y81537258D01*
X68358341Y81610795D01*
X68267121Y81719314D01*
X68202550Y81777047D01*
X68084540Y81855602D01*
X68082969Y81856352D01*
X68082966Y81856353D01*
X68007929Y81892144D01*
X68007925Y81892146D01*
X68006358Y81892893D01*
X67871043Y81935168D01*
X67785539Y81949017D01*
X67783804Y81949049D01*
X67783802Y81949049D01*
X67781489Y81949091D01*
X67780842Y81949103D01*
X67746462Y81964087D01*
X67732739Y81997997D01*
X67713973Y91400000D01*
X68494500Y91400000D01*
X68515132Y91243285D01*
X68516359Y91240323D01*
X68516360Y91240319D01*
X68570931Y91108575D01*
X68575622Y91097250D01*
X68671847Y90971847D01*
X68674396Y90969891D01*
X68734549Y90923734D01*
X68797250Y90875622D01*
X68800213Y90874395D01*
X68800216Y90874393D01*
X68940319Y90816360D01*
X68940323Y90816359D01*
X68943285Y90815132D01*
X68946466Y90814713D01*
X68946467Y90814713D01*
X69096817Y90794919D01*
X69100000Y90794500D01*
X69103183Y90794919D01*
X69253533Y90814713D01*
X69253534Y90814713D01*
X69256715Y90815132D01*
X69259677Y90816359D01*
X69259681Y90816360D01*
X69399784Y90874393D01*
X69399787Y90874395D01*
X69402750Y90875622D01*
X69465451Y90923734D01*
X69525604Y90969891D01*
X69528153Y90971847D01*
X69624378Y91097250D01*
X69629069Y91108575D01*
X69683640Y91240319D01*
X69683641Y91240323D01*
X69684868Y91243285D01*
X69705500Y91400000D01*
X69684868Y91556715D01*
X69683641Y91559677D01*
X69683640Y91559681D01*
X69625607Y91699784D01*
X69625605Y91699787D01*
X69624378Y91702750D01*
X69528153Y91828153D01*
X69402750Y91924378D01*
X69399787Y91925605D01*
X69399784Y91925607D01*
X69259681Y91983640D01*
X69259677Y91983641D01*
X69256715Y91984868D01*
X69253534Y91985287D01*
X69253533Y91985287D01*
X69103183Y92005081D01*
X69100000Y92005500D01*
X69096817Y92005081D01*
X68946467Y91985287D01*
X68946466Y91985287D01*
X68943285Y91984868D01*
X68940323Y91983641D01*
X68940319Y91983640D01*
X68800216Y91925607D01*
X68800213Y91925605D01*
X68797250Y91924378D01*
X68671847Y91828153D01*
X68575622Y91702750D01*
X68574395Y91699787D01*
X68574393Y91699784D01*
X68516360Y91559681D01*
X68516359Y91559677D01*
X68515132Y91556715D01*
X68494500Y91400000D01*
X67713973Y91400000D01*
X67704991Y95900000D01*
X68494500Y95900000D01*
X68515132Y95743285D01*
X68516359Y95740323D01*
X68516360Y95740319D01*
X68574393Y95600216D01*
X68575622Y95597250D01*
X68671847Y95471847D01*
X68797250Y95375622D01*
X68800213Y95374395D01*
X68800216Y95374393D01*
X68940319Y95316360D01*
X68940323Y95316359D01*
X68943285Y95315132D01*
X68946466Y95314713D01*
X68946467Y95314713D01*
X69096817Y95294919D01*
X69100000Y95294500D01*
X69103183Y95294919D01*
X69253533Y95314713D01*
X69253534Y95314713D01*
X69256715Y95315132D01*
X69259677Y95316359D01*
X69259681Y95316360D01*
X69399784Y95374393D01*
X69399787Y95374395D01*
X69402750Y95375622D01*
X69528153Y95471847D01*
X69624378Y95597250D01*
X69625607Y95600216D01*
X69683640Y95740319D01*
X69683641Y95740323D01*
X69684868Y95743285D01*
X69705500Y95900000D01*
X69684868Y96056715D01*
X69683641Y96059677D01*
X69683640Y96059681D01*
X69625607Y96199784D01*
X69625605Y96199787D01*
X69624378Y96202750D01*
X69528153Y96328153D01*
X69402750Y96424378D01*
X69399787Y96425605D01*
X69399784Y96425607D01*
X69259681Y96483640D01*
X69259677Y96483641D01*
X69256715Y96484868D01*
X69253534Y96485287D01*
X69253533Y96485287D01*
X69103183Y96505081D01*
X69100000Y96505500D01*
X69096817Y96505081D01*
X68946467Y96485287D01*
X68946466Y96485287D01*
X68943285Y96484868D01*
X68940323Y96483641D01*
X68940319Y96483640D01*
X68800216Y96425607D01*
X68800213Y96425605D01*
X68797250Y96424378D01*
X68671847Y96328153D01*
X68575622Y96202750D01*
X68574395Y96199787D01*
X68574393Y96199784D01*
X68516360Y96059681D01*
X68516359Y96059677D01*
X68515132Y96056715D01*
X68494500Y95900000D01*
X67704991Y95900000D01*
X67701942Y97427448D01*
X67702160Y97432159D01*
X67719593Y97616506D01*
X67721377Y97625757D01*
X67773100Y97801096D01*
X67776622Y97809834D01*
X67860944Y97972029D01*
X67866073Y97979932D01*
X67979879Y98122994D01*
X67986426Y98129769D01*
X68047512Y98181875D01*
X68125512Y98248409D01*
X68133224Y98253799D01*
X68292446Y98343629D01*
X68301051Y98347444D01*
X68474519Y98405142D01*
X68483703Y98407243D01*
X68667349Y98430977D01*
X68672047Y98431356D01*
X69561872Y98460060D01*
X69765310Y98466623D01*
X69770213Y98466535D01*
G37*
%TD.AperFunction*%
M02*
