%TF.GenerationSoftware,KiCad,Pcbnew,5.99.0-unknown-14cba9723f~116~ubuntu18.04.1*%
%TF.CreationDate,2021-02-18T14:37:27+01:00*%
%TF.ProjectId,Uni_Printer,556e695f-5072-4696-9e74-65722e6b6963,rev?*%
%TF.SameCoordinates,PX48009e0PY88da2e0*%
%TF.FileFunction,Legend,Bot*%
%TF.FilePolarity,Positive*%
%FSLAX46Y46*%
G04 Gerber Fmt 4.6, Leading zero omitted, Abs format (unit mm)*
G04 Created by KiCad (PCBNEW 5.99.0-unknown-14cba9723f~116~ubuntu18.04.1) date 2021-02-18 14:37:27*
%MOMM*%
%LPD*%
G01*
G04 APERTURE LIST*
%ADD10C,0.250000*%
%ADD11C,0.120000*%
G04 APERTURE END LIST*
D10*
X67180952Y63347620D02*
X67180952Y64347620D01*
X66704761Y63347620D02*
X66704761Y64347620D01*
X66133333Y63347620D01*
X66133333Y64347620D01*
X65752380Y64347620D02*
X65133333Y64347620D01*
X65466666Y63966667D01*
X65323809Y63966667D01*
X65228571Y63919048D01*
X65180952Y63871429D01*
X65133333Y63776191D01*
X65133333Y63538096D01*
X65180952Y63442858D01*
X65228571Y63395239D01*
X65323809Y63347620D01*
X65609523Y63347620D01*
X65704761Y63395239D01*
X65752380Y63442858D01*
X64942857Y63252381D02*
X64180952Y63252381D01*
X63942857Y63347620D02*
X63942857Y64347620D01*
X63561904Y64347620D01*
X63466666Y64300000D01*
X63419047Y64252381D01*
X63371428Y64157143D01*
X63371428Y64014286D01*
X63419047Y63919048D01*
X63466666Y63871429D01*
X63561904Y63823810D01*
X63942857Y63823810D01*
X58352380Y109457143D02*
X57352380Y109457143D01*
X58352380Y108980953D02*
X57352380Y108980953D01*
X58352380Y108409524D01*
X57352380Y108409524D01*
X57352380Y108028572D02*
X57352380Y107361905D01*
X58352380Y107790477D01*
X58447619Y107219048D02*
X58447619Y106457143D01*
X58304761Y106266667D02*
X58352380Y106123810D01*
X58352380Y105885715D01*
X58304761Y105790477D01*
X58257142Y105742858D01*
X58161904Y105695239D01*
X58066666Y105695239D01*
X57971428Y105742858D01*
X57923809Y105790477D01*
X57876190Y105885715D01*
X57828571Y106076191D01*
X57780952Y106171429D01*
X57733333Y106219048D01*
X57638095Y106266667D01*
X57542857Y106266667D01*
X57447619Y106219048D01*
X57400000Y106171429D01*
X57352380Y106076191D01*
X57352380Y105838096D01*
X57400000Y105695239D01*
X69957142Y61447620D02*
X69957142Y62447620D01*
X69480952Y61447620D02*
X69480952Y62447620D01*
X68909523Y61447620D01*
X68909523Y62447620D01*
X68480952Y62352381D02*
X68433333Y62400000D01*
X68338095Y62447620D01*
X68100000Y62447620D01*
X68004761Y62400000D01*
X67957142Y62352381D01*
X67909523Y62257143D01*
X67909523Y62161905D01*
X67957142Y62019048D01*
X68528571Y61447620D01*
X67909523Y61447620D01*
X67719047Y61352381D02*
X66957142Y61352381D01*
X66766666Y61495239D02*
X66623809Y61447620D01*
X66385714Y61447620D01*
X66290476Y61495239D01*
X66242857Y61542858D01*
X66195238Y61638096D01*
X66195238Y61733334D01*
X66242857Y61828572D01*
X66290476Y61876191D01*
X66385714Y61923810D01*
X66576190Y61971429D01*
X66671428Y62019048D01*
X66719047Y62066667D01*
X66766666Y62161905D01*
X66766666Y62257143D01*
X66719047Y62352381D01*
X66671428Y62400000D01*
X66576190Y62447620D01*
X66338095Y62447620D01*
X66195238Y62400000D01*
X68280952Y43347620D02*
X68280952Y44347620D01*
X67804761Y43347620D02*
X67804761Y44347620D01*
X67233333Y43347620D01*
X67233333Y44347620D01*
X66233333Y43347620D02*
X66804761Y43347620D01*
X66519047Y43347620D02*
X66519047Y44347620D01*
X66614285Y44204762D01*
X66709523Y44109524D01*
X66804761Y44061905D01*
X66042857Y43252381D02*
X65280952Y43252381D01*
X65042857Y43347620D02*
X65042857Y44347620D01*
X64661904Y44347620D01*
X64566666Y44300000D01*
X64519047Y44252381D01*
X64471428Y44157143D01*
X64471428Y44014286D01*
X64519047Y43919048D01*
X64566666Y43871429D01*
X64661904Y43823810D01*
X65042857Y43823810D01*
X61257142Y115247620D02*
X61257142Y116247620D01*
X60780952Y115247620D02*
X60780952Y116247620D01*
X60209523Y115247620D01*
X60209523Y116247620D01*
X59590476Y115819048D02*
X59685714Y115866667D01*
X59733333Y115914286D01*
X59780952Y116009524D01*
X59780952Y116057143D01*
X59733333Y116152381D01*
X59685714Y116200000D01*
X59590476Y116247620D01*
X59400000Y116247620D01*
X59304761Y116200000D01*
X59257142Y116152381D01*
X59209523Y116057143D01*
X59209523Y116009524D01*
X59257142Y115914286D01*
X59304761Y115866667D01*
X59400000Y115819048D01*
X59590476Y115819048D01*
X59685714Y115771429D01*
X59733333Y115723810D01*
X59780952Y115628572D01*
X59780952Y115438096D01*
X59733333Y115342858D01*
X59685714Y115295239D01*
X59590476Y115247620D01*
X59400000Y115247620D01*
X59304761Y115295239D01*
X59257142Y115342858D01*
X59209523Y115438096D01*
X59209523Y115628572D01*
X59257142Y115723810D01*
X59304761Y115771429D01*
X59400000Y115819048D01*
X59019047Y115152381D02*
X58257142Y115152381D01*
X58066666Y115295239D02*
X57923809Y115247620D01*
X57685714Y115247620D01*
X57590476Y115295239D01*
X57542857Y115342858D01*
X57495238Y115438096D01*
X57495238Y115533334D01*
X57542857Y115628572D01*
X57590476Y115676191D01*
X57685714Y115723810D01*
X57876190Y115771429D01*
X57971428Y115819048D01*
X58019047Y115866667D01*
X58066666Y115961905D01*
X58066666Y116057143D01*
X58019047Y116152381D01*
X57971428Y116200000D01*
X57876190Y116247620D01*
X57638095Y116247620D01*
X57495238Y116200000D01*
X63852380Y110480953D02*
X62852380Y110480953D01*
X63852380Y110004762D02*
X62852380Y110004762D01*
X63852380Y109433334D01*
X62852380Y109433334D01*
X62852380Y109052381D02*
X62852380Y108385715D01*
X63852380Y108814286D01*
X63947619Y108242858D02*
X63947619Y107480953D01*
X63852380Y107242858D02*
X62852380Y107242858D01*
X62852380Y106861905D01*
X62900000Y106766667D01*
X62947619Y106719048D01*
X63042857Y106671429D01*
X63185714Y106671429D01*
X63280952Y106719048D01*
X63328571Y106766667D01*
X63376190Y106861905D01*
X63376190Y107242858D01*
X60880952Y96847620D02*
X60880952Y97847620D01*
X60404761Y96847620D02*
X60404761Y97847620D01*
X59833333Y96847620D01*
X59833333Y97847620D01*
X58928571Y97847620D02*
X59119047Y97847620D01*
X59214285Y97800000D01*
X59261904Y97752381D01*
X59357142Y97609524D01*
X59404761Y97419048D01*
X59404761Y97038096D01*
X59357142Y96942858D01*
X59309523Y96895239D01*
X59214285Y96847620D01*
X59023809Y96847620D01*
X58928571Y96895239D01*
X58880952Y96942858D01*
X58833333Y97038096D01*
X58833333Y97276191D01*
X58880952Y97371429D01*
X58928571Y97419048D01*
X59023809Y97466667D01*
X59214285Y97466667D01*
X59309523Y97419048D01*
X59357142Y97371429D01*
X59404761Y97276191D01*
X58642857Y96752381D02*
X57880952Y96752381D01*
X57642857Y96847620D02*
X57642857Y97847620D01*
X57261904Y97847620D01*
X57166666Y97800000D01*
X57119047Y97752381D01*
X57071428Y97657143D01*
X57071428Y97514286D01*
X57119047Y97419048D01*
X57166666Y97371429D01*
X57261904Y97323810D01*
X57642857Y97323810D01*
X68580952Y54147620D02*
X68580952Y55147620D01*
X68104761Y54147620D02*
X68104761Y55147620D01*
X67533333Y54147620D01*
X67533333Y55147620D01*
X67104761Y55052381D02*
X67057142Y55100000D01*
X66961904Y55147620D01*
X66723809Y55147620D01*
X66628571Y55100000D01*
X66580952Y55052381D01*
X66533333Y54957143D01*
X66533333Y54861905D01*
X66580952Y54719048D01*
X67152380Y54147620D01*
X66533333Y54147620D01*
X66342857Y54052381D02*
X65580952Y54052381D01*
X65342857Y54147620D02*
X65342857Y55147620D01*
X64961904Y55147620D01*
X64866666Y55100000D01*
X64819047Y55052381D01*
X64771428Y54957143D01*
X64771428Y54814286D01*
X64819047Y54719048D01*
X64866666Y54671429D01*
X64961904Y54623810D01*
X65342857Y54623810D01*
X69557142Y96747620D02*
X69557142Y97747620D01*
X69080952Y96747620D02*
X69080952Y97747620D01*
X68509523Y96747620D01*
X68509523Y97747620D01*
X67604761Y97747620D02*
X67795238Y97747620D01*
X67890476Y97700000D01*
X67938095Y97652381D01*
X68033333Y97509524D01*
X68080952Y97319048D01*
X68080952Y96938096D01*
X68033333Y96842858D01*
X67985714Y96795239D01*
X67890476Y96747620D01*
X67700000Y96747620D01*
X67604761Y96795239D01*
X67557142Y96842858D01*
X67509523Y96938096D01*
X67509523Y97176191D01*
X67557142Y97271429D01*
X67604761Y97319048D01*
X67700000Y97366667D01*
X67890476Y97366667D01*
X67985714Y97319048D01*
X68033333Y97271429D01*
X68080952Y97176191D01*
X67319047Y96652381D02*
X66557142Y96652381D01*
X66366666Y96795239D02*
X66223809Y96747620D01*
X65985714Y96747620D01*
X65890476Y96795239D01*
X65842857Y96842858D01*
X65795238Y96938096D01*
X65795238Y97033334D01*
X65842857Y97128572D01*
X65890476Y97176191D01*
X65985714Y97223810D01*
X66176190Y97271429D01*
X66271428Y97319048D01*
X66319047Y97366667D01*
X66366666Y97461905D01*
X66366666Y97557143D01*
X66319047Y97652381D01*
X66271428Y97700000D01*
X66176190Y97747620D01*
X65938095Y97747620D01*
X65795238Y97700000D01*
X70180952Y115547620D02*
X70180952Y116547620D01*
X69704761Y115547620D02*
X69704761Y116547620D01*
X69133333Y115547620D01*
X69133333Y116547620D01*
X68514285Y116119048D02*
X68609523Y116166667D01*
X68657142Y116214286D01*
X68704761Y116309524D01*
X68704761Y116357143D01*
X68657142Y116452381D01*
X68609523Y116500000D01*
X68514285Y116547620D01*
X68323809Y116547620D01*
X68228571Y116500000D01*
X68180952Y116452381D01*
X68133333Y116357143D01*
X68133333Y116309524D01*
X68180952Y116214286D01*
X68228571Y116166667D01*
X68323809Y116119048D01*
X68514285Y116119048D01*
X68609523Y116071429D01*
X68657142Y116023810D01*
X68704761Y115928572D01*
X68704761Y115738096D01*
X68657142Y115642858D01*
X68609523Y115595239D01*
X68514285Y115547620D01*
X68323809Y115547620D01*
X68228571Y115595239D01*
X68180952Y115642858D01*
X68133333Y115738096D01*
X68133333Y115928572D01*
X68180952Y116023810D01*
X68228571Y116071429D01*
X68323809Y116119048D01*
X67942857Y115452381D02*
X67180952Y115452381D01*
X66942857Y115547620D02*
X66942857Y116547620D01*
X66561904Y116547620D01*
X66466666Y116500000D01*
X66419047Y116452381D01*
X66371428Y116357143D01*
X66371428Y116214286D01*
X66419047Y116119048D01*
X66466666Y116071429D01*
X66561904Y116023810D01*
X66942857Y116023810D01*
X60980952Y92547620D02*
X60980952Y93547620D01*
X60504761Y92547620D02*
X60504761Y93547620D01*
X59933333Y92547620D01*
X59933333Y93547620D01*
X58980952Y93547620D02*
X59457142Y93547620D01*
X59504761Y93071429D01*
X59457142Y93119048D01*
X59361904Y93166667D01*
X59123809Y93166667D01*
X59028571Y93119048D01*
X58980952Y93071429D01*
X58933333Y92976191D01*
X58933333Y92738096D01*
X58980952Y92642858D01*
X59028571Y92595239D01*
X59123809Y92547620D01*
X59361904Y92547620D01*
X59457142Y92595239D01*
X59504761Y92642858D01*
X58742857Y92452381D02*
X57980952Y92452381D01*
X57742857Y92547620D02*
X57742857Y93547620D01*
X57361904Y93547620D01*
X57266666Y93500000D01*
X57219047Y93452381D01*
X57171428Y93357143D01*
X57171428Y93214286D01*
X57219047Y93119048D01*
X57266666Y93071429D01*
X57361904Y93023810D01*
X57742857Y93023810D01*
X68357142Y85647620D02*
X68357142Y86647620D01*
X67880952Y85647620D02*
X67880952Y86647620D01*
X67309523Y85647620D01*
X67309523Y86647620D01*
X66404761Y86314286D02*
X66404761Y85647620D01*
X66642857Y86695239D02*
X66880952Y85980953D01*
X66261904Y85980953D01*
X66119047Y85552381D02*
X65357142Y85552381D01*
X65166666Y85695239D02*
X65023809Y85647620D01*
X64785714Y85647620D01*
X64690476Y85695239D01*
X64642857Y85742858D01*
X64595238Y85838096D01*
X64595238Y85933334D01*
X64642857Y86028572D01*
X64690476Y86076191D01*
X64785714Y86123810D01*
X64976190Y86171429D01*
X65071428Y86219048D01*
X65119047Y86266667D01*
X65166666Y86361905D01*
X65166666Y86457143D01*
X65119047Y86552381D01*
X65071428Y86600000D01*
X64976190Y86647620D01*
X64738095Y86647620D01*
X64595238Y86600000D01*
X68380952Y77947620D02*
X68380952Y78947620D01*
X67904761Y77947620D02*
X67904761Y78947620D01*
X67333333Y77947620D01*
X67333333Y78947620D01*
X66428571Y78614286D02*
X66428571Y77947620D01*
X66666666Y78995239D02*
X66904761Y78280953D01*
X66285714Y78280953D01*
X66142857Y77852381D02*
X65380952Y77852381D01*
X65142857Y77947620D02*
X65142857Y78947620D01*
X64761904Y78947620D01*
X64666666Y78900000D01*
X64619047Y78852381D01*
X64571428Y78757143D01*
X64571428Y78614286D01*
X64619047Y78519048D01*
X64666666Y78471429D01*
X64761904Y78423810D01*
X65142857Y78423810D01*
X68757142Y51047620D02*
X68757142Y52047620D01*
X68280952Y51047620D02*
X68280952Y52047620D01*
X67709523Y51047620D01*
X67709523Y52047620D01*
X66709523Y51047620D02*
X67280952Y51047620D01*
X66995238Y51047620D02*
X66995238Y52047620D01*
X67090476Y51904762D01*
X67185714Y51809524D01*
X67280952Y51761905D01*
X66519047Y50952381D02*
X65757142Y50952381D01*
X65566666Y51095239D02*
X65423809Y51047620D01*
X65185714Y51047620D01*
X65090476Y51095239D01*
X65042857Y51142858D01*
X64995238Y51238096D01*
X64995238Y51333334D01*
X65042857Y51428572D01*
X65090476Y51476191D01*
X65185714Y51523810D01*
X65376190Y51571429D01*
X65471428Y51619048D01*
X65519047Y51666667D01*
X65566666Y51761905D01*
X65566666Y51857143D01*
X65519047Y51952381D01*
X65471428Y52000000D01*
X65376190Y52047620D01*
X65138095Y52047620D01*
X64995238Y52000000D01*
X69657142Y92547620D02*
X69657142Y93547620D01*
X69180952Y92547620D02*
X69180952Y93547620D01*
X68609523Y92547620D01*
X68609523Y93547620D01*
X67657142Y93547620D02*
X68133333Y93547620D01*
X68180952Y93071429D01*
X68133333Y93119048D01*
X68038095Y93166667D01*
X67800000Y93166667D01*
X67704761Y93119048D01*
X67657142Y93071429D01*
X67609523Y92976191D01*
X67609523Y92738096D01*
X67657142Y92642858D01*
X67704761Y92595239D01*
X67800000Y92547620D01*
X68038095Y92547620D01*
X68133333Y92595239D01*
X68180952Y92642858D01*
X67419047Y92452381D02*
X66657142Y92452381D01*
X66466666Y92595239D02*
X66323809Y92547620D01*
X66085714Y92547620D01*
X65990476Y92595239D01*
X65942857Y92642858D01*
X65895238Y92738096D01*
X65895238Y92833334D01*
X65942857Y92928572D01*
X65990476Y92976191D01*
X66085714Y93023810D01*
X66276190Y93071429D01*
X66371428Y93119048D01*
X66419047Y93166667D01*
X66466666Y93261905D01*
X66466666Y93357143D01*
X66419047Y93452381D01*
X66371428Y93500000D01*
X66276190Y93547620D01*
X66038095Y93547620D01*
X65895238Y93500000D01*
X70057142Y70147620D02*
X70057142Y71147620D01*
X69580952Y70147620D02*
X69580952Y71147620D01*
X69009523Y70147620D01*
X69009523Y71147620D01*
X68628571Y71147620D02*
X68009523Y71147620D01*
X68342857Y70766667D01*
X68200000Y70766667D01*
X68104761Y70719048D01*
X68057142Y70671429D01*
X68009523Y70576191D01*
X68009523Y70338096D01*
X68057142Y70242858D01*
X68104761Y70195239D01*
X68200000Y70147620D01*
X68485714Y70147620D01*
X68580952Y70195239D01*
X68628571Y70242858D01*
X67819047Y70052381D02*
X67057142Y70052381D01*
X66866666Y70195239D02*
X66723809Y70147620D01*
X66485714Y70147620D01*
X66390476Y70195239D01*
X66342857Y70242858D01*
X66295238Y70338096D01*
X66295238Y70433334D01*
X66342857Y70528572D01*
X66390476Y70576191D01*
X66485714Y70623810D01*
X66676190Y70671429D01*
X66771428Y70719048D01*
X66819047Y70766667D01*
X66866666Y70861905D01*
X66866666Y70957143D01*
X66819047Y71052381D01*
X66771428Y71100000D01*
X66676190Y71147620D01*
X66438095Y71147620D01*
X66295238Y71100000D01*
D11*
X65000000Y94400000D02*
X67800000Y94400000D01*
X64350000Y95700000D02*
X64350000Y95100000D01*
X67800000Y96400000D02*
X65000000Y96400000D01*
X64900000Y96900000D02*
X65500000Y96900000D01*
X68450000Y95100000D02*
X68450000Y95700000D01*
X65200000Y96600000D02*
X64900000Y96900000D01*
X65200000Y96600000D02*
X65500000Y96900000D01*
X65050000Y96400000D02*
G75*
G03*
X64350000Y95700000I0J-700000D01*
G01*
X68450000Y95700000D02*
G75*
G03*
X67750000Y96400000I-700000J0D01*
G01*
X67750000Y94400000D02*
G75*
G03*
X68450000Y95100000I0J700000D01*
G01*
X64350000Y95100000D02*
G75*
G03*
X65050000Y94400000I700000J0D01*
G01*
X57050000Y91500000D02*
X57050000Y90900000D01*
X60600000Y89700000D02*
X60000000Y89700000D01*
X61150000Y90900000D02*
X61150000Y91500000D01*
X57700000Y90200000D02*
X60500000Y90200000D01*
X60300000Y90000000D02*
X60000000Y89700000D01*
X60500000Y92200000D02*
X57700000Y92200000D01*
X60300000Y90000000D02*
X60600000Y89700000D01*
X60450000Y90200000D02*
G75*
G03*
X61150000Y90900000I0J700000D01*
G01*
X57750000Y92200000D02*
G75*
G03*
X57050000Y91500000I0J-700000D01*
G01*
X57050000Y90900000D02*
G75*
G03*
X57750000Y90200000I700000J0D01*
G01*
X61150000Y91500000D02*
G75*
G03*
X60450000Y92200000I-700000J0D01*
G01*
X64350000Y91500000D02*
X64350000Y90900000D01*
X68450000Y90900000D02*
X68450000Y91500000D01*
X65200000Y92400000D02*
X65500000Y92700000D01*
X67800000Y92200000D02*
X65000000Y92200000D01*
X65200000Y92400000D02*
X64900000Y92700000D01*
X64900000Y92700000D02*
X65500000Y92700000D01*
X65000000Y90200000D02*
X67800000Y90200000D01*
X65050000Y92200000D02*
G75*
G03*
X64350000Y91500000I0J-700000D01*
G01*
X68450000Y91500000D02*
G75*
G03*
X67750000Y92200000I-700000J0D01*
G01*
X64350000Y90900000D02*
G75*
G03*
X65050000Y90200000I700000J0D01*
G01*
X67750000Y90200000D02*
G75*
G03*
X68450000Y90900000I0J700000D01*
G01*
X65000000Y82700000D02*
X67800000Y82700000D01*
X67800000Y84700000D02*
X65000000Y84700000D01*
X64900000Y85200000D02*
X65500000Y85200000D01*
X68450000Y83400000D02*
X68450000Y84000000D01*
X64350000Y84000000D02*
X64350000Y83400000D01*
X65200000Y84900000D02*
X65500000Y85200000D01*
X65200000Y84900000D02*
X64900000Y85200000D01*
X64350000Y83400000D02*
G75*
G03*
X65050000Y82700000I700000J0D01*
G01*
X65050000Y84700000D02*
G75*
G03*
X64350000Y84000000I0J-700000D01*
G01*
X68450000Y84000000D02*
G75*
G03*
X67750000Y84700000I-700000J0D01*
G01*
X67750000Y82700000D02*
G75*
G03*
X68450000Y83400000I0J700000D01*
G01*
X68850000Y65400000D02*
X68850000Y66000000D01*
X68200000Y66700000D02*
X65400000Y66700000D01*
X68000000Y64500000D02*
X67700000Y64200000D01*
X68000000Y64500000D02*
X68300000Y64200000D01*
X65400000Y64700000D02*
X68200000Y64700000D01*
X68300000Y64200000D02*
X67700000Y64200000D01*
X64750000Y66000000D02*
X64750000Y65400000D01*
X68850000Y66000000D02*
G75*
G03*
X68150000Y66700000I-700000J0D01*
G01*
X68150000Y64700000D02*
G75*
G03*
X68850000Y65400000I0J700000D01*
G01*
X64750000Y65400000D02*
G75*
G03*
X65450000Y64700000I700000J0D01*
G01*
X65450000Y66700000D02*
G75*
G03*
X64750000Y66000000I0J-700000D01*
G01*
X65500000Y61100000D02*
X65200000Y61400000D01*
X68100000Y60900000D02*
X65300000Y60900000D01*
X64650000Y60200000D02*
X64650000Y59600000D01*
X65200000Y61400000D02*
X65800000Y61400000D01*
X68750000Y59600000D02*
X68750000Y60200000D01*
X65300000Y58900000D02*
X68100000Y58900000D01*
X65500000Y61100000D02*
X65800000Y61400000D01*
X64650000Y59600000D02*
G75*
G03*
X65350000Y58900000I700000J0D01*
G01*
X65350000Y60900000D02*
G75*
G03*
X64650000Y60200000I0J-700000D01*
G01*
X68750000Y60200000D02*
G75*
G03*
X68050000Y60900000I-700000J0D01*
G01*
X68050000Y58900000D02*
G75*
G03*
X68750000Y59600000I0J700000D01*
G01*
X65000000Y79900000D02*
X67800000Y79900000D01*
X64350000Y81200000D02*
X64350000Y80600000D01*
X68450000Y80600000D02*
X68450000Y81200000D01*
X67900000Y79400000D02*
X67300000Y79400000D01*
X67600000Y79700000D02*
X67300000Y79400000D01*
X67600000Y79700000D02*
X67900000Y79400000D01*
X67800000Y81900000D02*
X65000000Y81900000D01*
X64350000Y80600000D02*
G75*
G03*
X65050000Y79900000I700000J0D01*
G01*
X67750000Y79900000D02*
G75*
G03*
X68450000Y80600000I0J700000D01*
G01*
X65050000Y81900000D02*
G75*
G03*
X64350000Y81200000I0J-700000D01*
G01*
X68450000Y81200000D02*
G75*
G03*
X67750000Y81900000I-700000J0D01*
G01*
X60600000Y112700000D02*
X60900000Y112400000D01*
X57350000Y114200000D02*
X57350000Y113600000D01*
X60600000Y112700000D02*
X60300000Y112400000D01*
X60900000Y112400000D02*
X60300000Y112400000D01*
X60800000Y114900000D02*
X58000000Y114900000D01*
X58000000Y112900000D02*
X60800000Y112900000D01*
X61450000Y113600000D02*
X61450000Y114200000D01*
X60750000Y112900000D02*
G75*
G03*
X61450000Y113600000I0J700000D01*
G01*
X57350000Y113600000D02*
G75*
G03*
X58050000Y112900000I700000J0D01*
G01*
X61450000Y114200000D02*
G75*
G03*
X60750000Y114900000I-700000J0D01*
G01*
X58050000Y114900000D02*
G75*
G03*
X57350000Y114200000I0J-700000D01*
G01*
X64650000Y49400000D02*
X64650000Y48800000D01*
X68100000Y50100000D02*
X65300000Y50100000D01*
X68750000Y48800000D02*
X68750000Y49400000D01*
X65500000Y50300000D02*
X65800000Y50600000D01*
X65500000Y50300000D02*
X65200000Y50600000D01*
X65200000Y50600000D02*
X65800000Y50600000D01*
X65300000Y48100000D02*
X68100000Y48100000D01*
X65350000Y50100000D02*
G75*
G03*
X64650000Y49400000I0J-700000D01*
G01*
X64650000Y48800000D02*
G75*
G03*
X65350000Y48100000I700000J0D01*
G01*
X68750000Y49400000D02*
G75*
G03*
X68050000Y50100000I-700000J0D01*
G01*
X68050000Y48100000D02*
G75*
G03*
X68750000Y48800000I0J700000D01*
G01*
X65400000Y67450000D02*
X68200000Y67450000D01*
X64750000Y68750000D02*
X64750000Y68150000D01*
X65600000Y69650000D02*
X65300000Y69950000D01*
X65300000Y69950000D02*
X65900000Y69950000D01*
X68850000Y68150000D02*
X68850000Y68750000D01*
X68200000Y69450000D02*
X65400000Y69450000D01*
X65600000Y69650000D02*
X65900000Y69950000D01*
X68850000Y68750000D02*
G75*
G03*
X68150000Y69450000I-700000J0D01*
G01*
X65450000Y69450000D02*
G75*
G03*
X64750000Y68750000I0J-700000D01*
G01*
X68150000Y67450000D02*
G75*
G03*
X68850000Y68150000I0J700000D01*
G01*
X64750000Y68150000D02*
G75*
G03*
X65450000Y67450000I700000J0D01*
G01*
X64200000Y106400000D02*
X63900000Y106100000D01*
X65700000Y109650000D02*
X65100000Y109650000D01*
X64200000Y106400000D02*
X63900000Y106700000D01*
X64400000Y109000000D02*
X64400000Y106200000D01*
X65100000Y105550000D02*
X65700000Y105550000D01*
X66400000Y106200000D02*
X66400000Y109000000D01*
X63900000Y106100000D02*
X63900000Y106700000D01*
X65100000Y109650000D02*
G75*
G03*
X64400000Y108950000I0J-700000D01*
G01*
X66400000Y108950000D02*
G75*
G03*
X65700000Y109650000I-700000J0D01*
G01*
X64400000Y106250000D02*
G75*
G03*
X65100000Y105550000I700000J0D01*
G01*
X65700000Y105550000D02*
G75*
G03*
X66400000Y106250000I0J700000D01*
G01*
X60300000Y94200000D02*
X60000000Y93900000D01*
X60600000Y93900000D02*
X60000000Y93900000D01*
X61150000Y95100000D02*
X61150000Y95700000D01*
X60500000Y96400000D02*
X57700000Y96400000D01*
X57050000Y95700000D02*
X57050000Y95100000D01*
X60300000Y94200000D02*
X60600000Y93900000D01*
X57700000Y94400000D02*
X60500000Y94400000D01*
X57050000Y95100000D02*
G75*
G03*
X57750000Y94400000I700000J0D01*
G01*
X60450000Y94400000D02*
G75*
G03*
X61150000Y95100000I0J700000D01*
G01*
X61150000Y95700000D02*
G75*
G03*
X60450000Y96400000I-700000J0D01*
G01*
X57750000Y96400000D02*
G75*
G03*
X57050000Y95700000I0J-700000D01*
G01*
X68200000Y44800000D02*
X67600000Y44800000D01*
X65300000Y45300000D02*
X68100000Y45300000D01*
X68750000Y46000000D02*
X68750000Y46600000D01*
X68100000Y47300000D02*
X65300000Y47300000D01*
X67900000Y45100000D02*
X68200000Y44800000D01*
X67900000Y45100000D02*
X67600000Y44800000D01*
X64650000Y46600000D02*
X64650000Y46000000D01*
X68050000Y45300000D02*
G75*
G03*
X68750000Y46000000I0J700000D01*
G01*
X65350000Y47300000D02*
G75*
G03*
X64650000Y46600000I0J-700000D01*
G01*
X64650000Y46000000D02*
G75*
G03*
X65350000Y45300000I700000J0D01*
G01*
X68750000Y46600000D02*
G75*
G03*
X68050000Y47300000I-700000J0D01*
G01*
X68900000Y114900000D02*
X66100000Y114900000D01*
X66300000Y115100000D02*
X66600000Y115400000D01*
X69550000Y113600000D02*
X69550000Y114200000D01*
X66300000Y115100000D02*
X66000000Y115400000D01*
X66100000Y112900000D02*
X68900000Y112900000D01*
X65450000Y114200000D02*
X65450000Y113600000D01*
X66000000Y115400000D02*
X66600000Y115400000D01*
X69550000Y114200000D02*
G75*
G03*
X68850000Y114900000I-700000J0D01*
G01*
X65450000Y113600000D02*
G75*
G03*
X66150000Y112900000I700000J0D01*
G01*
X68850000Y112900000D02*
G75*
G03*
X69550000Y113600000I0J700000D01*
G01*
X66150000Y114900000D02*
G75*
G03*
X65450000Y114200000I0J-700000D01*
G01*
X68100000Y58100000D02*
X65300000Y58100000D01*
X68750000Y56800000D02*
X68750000Y57400000D01*
X65300000Y56100000D02*
X68100000Y56100000D01*
X67900000Y55900000D02*
X67600000Y55600000D01*
X64650000Y57400000D02*
X64650000Y56800000D01*
X67900000Y55900000D02*
X68200000Y55600000D01*
X68200000Y55600000D02*
X67600000Y55600000D01*
X64650000Y56800000D02*
G75*
G03*
X65350000Y56100000I700000J0D01*
G01*
X65350000Y58100000D02*
G75*
G03*
X64650000Y57400000I0J-700000D01*
G01*
X68750000Y57400000D02*
G75*
G03*
X68050000Y58100000I-700000J0D01*
G01*
X68050000Y56100000D02*
G75*
G03*
X68750000Y56800000I0J700000D01*
G01*
X60000000Y109650000D02*
X59400000Y109650000D01*
X61200000Y109100000D02*
X61200000Y108500000D01*
X58700000Y109000000D02*
X58700000Y106200000D01*
X60900000Y108800000D02*
X61200000Y109100000D01*
X60700000Y106200000D02*
X60700000Y109000000D01*
X59400000Y105550000D02*
X60000000Y105550000D01*
X60900000Y108800000D02*
X61200000Y108500000D01*
X60000000Y105550000D02*
G75*
G03*
X60700000Y106250000I0J700000D01*
G01*
X59400000Y109650000D02*
G75*
G03*
X58700000Y108950000I0J-700000D01*
G01*
X60700000Y108950000D02*
G75*
G03*
X60000000Y109650000I-700000J0D01*
G01*
X58700000Y106250000D02*
G75*
G03*
X59400000Y105550000I700000J0D01*
G01*
M02*
