%TF.GenerationSoftware,KiCad,Pcbnew,6.0.0-rc1-unknown-e56e61ffb5~144~ubuntu20.04.1*%
%TF.CreationDate,2021-11-28T18:30:16+01:00*%
%TF.ProjectId,Uni_Printer,556e695f-5072-4696-9e74-65722e6b6963,rev?*%
%TF.SameCoordinates,PX48009e0PY88da2e0*%
%TF.FileFunction,Copper,L1,Top*%
%TF.FilePolarity,Positive*%
%FSLAX46Y46*%
G04 Gerber Fmt 4.6, Leading zero omitted, Abs format (unit mm)*
G04 Created by KiCad (PCBNEW 6.0.0-rc1-unknown-e56e61ffb5~144~ubuntu20.04.1) date 2021-11-28 18:30:16*
%MOMM*%
%LPD*%
G01*
G04 APERTURE LIST*
G04 Aperture macros list*
%AMRoundRect*
0 Rectangle with rounded corners*
0 $1 Rounding radius*
0 $2 $3 $4 $5 $6 $7 $8 $9 X,Y pos of 4 corners*
0 Add a 4 corners polygon primitive as box body*
4,1,4,$2,$3,$4,$5,$6,$7,$8,$9,$2,$3,0*
0 Add four circle primitives for the rounded corners*
1,1,$1+$1,$2,$3*
1,1,$1+$1,$4,$5*
1,1,$1+$1,$6,$7*
1,1,$1+$1,$8,$9*
0 Add four rect primitives between the rounded corners*
20,1,$1+$1,$2,$3,$4,$5,0*
20,1,$1+$1,$4,$5,$6,$7,0*
20,1,$1+$1,$6,$7,$8,$9,0*
20,1,$1+$1,$8,$9,$2,$3,0*%
%AMFreePoly0*
4,1,22,0.500000,-0.750000,0.000000,-0.750000,0.000000,-0.745033,-0.079941,-0.743568,-0.215256,-0.701293,-0.333266,-0.622738,-0.424486,-0.514219,-0.481581,-0.384460,-0.499164,-0.250000,-0.500000,-0.250000,-0.500000,0.250000,-0.499164,0.250000,-0.499963,0.256109,-0.478152,0.396186,-0.417904,0.524511,-0.324060,0.630769,-0.204165,0.706417,-0.067858,0.745374,0.000000,0.744959,0.000000,0.750000,
0.500000,0.750000,0.500000,-0.750000,0.500000,-0.750000,$1*%
%AMFreePoly1*
4,1,20,0.000000,0.744959,0.073905,0.744508,0.209726,0.703889,0.328688,0.626782,0.421226,0.519385,0.479903,0.390333,0.500000,0.250000,0.500000,-0.250000,0.499851,-0.262216,0.476331,-0.402017,0.414519,-0.529596,0.319384,-0.634700,0.198574,-0.708877,0.061801,-0.746166,0.000000,-0.745033,0.000000,-0.750000,-0.500000,-0.750000,-0.500000,0.750000,0.000000,0.750000,0.000000,0.744959,
0.000000,0.744959,$1*%
G04 Aperture macros list end*
%TA.AperFunction,SMDPad,CuDef*%
%ADD10R,0.900000X1.700000*%
%TD*%
%TA.AperFunction,SMDPad,CuDef*%
%ADD11RoundRect,0.225000X-0.250000X0.225000X-0.250000X-0.225000X0.250000X-0.225000X0.250000X0.225000X0*%
%TD*%
%TA.AperFunction,SMDPad,CuDef*%
%ADD12RoundRect,0.218750X-0.218750X-0.256250X0.218750X-0.256250X0.218750X0.256250X-0.218750X0.256250X0*%
%TD*%
%TA.AperFunction,SMDPad,CuDef*%
%ADD13RoundRect,0.218750X0.218750X0.256250X-0.218750X0.256250X-0.218750X-0.256250X0.218750X-0.256250X0*%
%TD*%
%TA.AperFunction,SMDPad,CuDef*%
%ADD14RoundRect,0.218750X-0.256250X0.218750X-0.256250X-0.218750X0.256250X-0.218750X0.256250X0.218750X0*%
%TD*%
%TA.AperFunction,SMDPad,CuDef*%
%ADD15RoundRect,0.218750X0.256250X-0.218750X0.256250X0.218750X-0.256250X0.218750X-0.256250X-0.218750X0*%
%TD*%
%TA.AperFunction,SMDPad,CuDef*%
%ADD16RoundRect,0.243750X-0.243750X-0.456250X0.243750X-0.456250X0.243750X0.456250X-0.243750X0.456250X0*%
%TD*%
%TA.AperFunction,SMDPad,CuDef*%
%ADD17RoundRect,0.225000X0.250000X-0.225000X0.250000X0.225000X-0.250000X0.225000X-0.250000X-0.225000X0*%
%TD*%
%TA.AperFunction,SMDPad,CuDef*%
%ADD18RoundRect,0.225000X-0.225000X-0.250000X0.225000X-0.250000X0.225000X0.250000X-0.225000X0.250000X0*%
%TD*%
%TA.AperFunction,SMDPad,CuDef*%
%ADD19R,2.032000X0.660400*%
%TD*%
%TA.AperFunction,SMDPad,CuDef*%
%ADD20R,0.800000X0.500000*%
%TD*%
%TA.AperFunction,SMDPad,CuDef*%
%ADD21R,0.800000X0.400000*%
%TD*%
%TA.AperFunction,SMDPad,CuDef*%
%ADD22R,0.500000X0.800000*%
%TD*%
%TA.AperFunction,SMDPad,CuDef*%
%ADD23R,0.400000X0.800000*%
%TD*%
%TA.AperFunction,SMDPad,CuDef*%
%ADD24RoundRect,0.150000X0.825000X0.150000X-0.825000X0.150000X-0.825000X-0.150000X0.825000X-0.150000X0*%
%TD*%
%TA.AperFunction,SMDPad,CuDef*%
%ADD25R,0.600000X0.600000*%
%TD*%
%TA.AperFunction,SMDPad,CuDef*%
%ADD26R,0.400000X0.600000*%
%TD*%
%TA.AperFunction,ComponentPad*%
%ADD27R,1.800000X3.600000*%
%TD*%
%TA.AperFunction,ComponentPad*%
%ADD28O,1.800000X3.600000*%
%TD*%
%TA.AperFunction,SMDPad,CuDef*%
%ADD29R,0.600000X0.400000*%
%TD*%
%TA.AperFunction,SMDPad,CuDef*%
%ADD30C,1.000000*%
%TD*%
%TA.AperFunction,SMDPad,CuDef*%
%ADD31R,1.950000X2.950000*%
%TD*%
%TA.AperFunction,ComponentPad*%
%ADD32R,1.500000X1.500000*%
%TD*%
%TA.AperFunction,ComponentPad*%
%ADD33C,1.500000*%
%TD*%
%TA.AperFunction,ComponentPad*%
%ADD34R,3.600000X1.800000*%
%TD*%
%TA.AperFunction,ComponentPad*%
%ADD35O,3.600000X1.800000*%
%TD*%
%TA.AperFunction,SMDPad,CuDef*%
%ADD36RoundRect,0.150000X-0.150000X0.825000X-0.150000X-0.825000X0.150000X-0.825000X0.150000X0.825000X0*%
%TD*%
%TA.AperFunction,SMDPad,CuDef*%
%ADD37R,3.300000X2.500000*%
%TD*%
%TA.AperFunction,SMDPad,CuDef*%
%ADD38R,0.850000X0.300000*%
%TD*%
%TA.AperFunction,ComponentPad*%
%ADD39R,1.700000X1.700000*%
%TD*%
%TA.AperFunction,ComponentPad*%
%ADD40O,1.700000X1.700000*%
%TD*%
%TA.AperFunction,SMDPad,CuDef*%
%ADD41RoundRect,0.250000X-0.325000X-1.100000X0.325000X-1.100000X0.325000X1.100000X-0.325000X1.100000X0*%
%TD*%
%TA.AperFunction,SMDPad,CuDef*%
%ADD42FreePoly0,90.000000*%
%TD*%
%TA.AperFunction,SMDPad,CuDef*%
%ADD43FreePoly1,90.000000*%
%TD*%
%TA.AperFunction,SMDPad,CuDef*%
%ADD44R,0.900000X1.500000*%
%TD*%
%TA.AperFunction,SMDPad,CuDef*%
%ADD45R,3.200000X1.500000*%
%TD*%
%TA.AperFunction,SMDPad,CuDef*%
%ADD46RoundRect,0.250000X1.100000X-0.325000X1.100000X0.325000X-1.100000X0.325000X-1.100000X-0.325000X0*%
%TD*%
%TA.AperFunction,SMDPad,CuDef*%
%ADD47R,0.300000X0.700000*%
%TD*%
%TA.AperFunction,SMDPad,CuDef*%
%ADD48R,0.700000X0.300000*%
%TD*%
%TA.AperFunction,SMDPad,CuDef*%
%ADD49R,2.950000X2.950000*%
%TD*%
%TA.AperFunction,ComponentPad*%
%ADD50R,1.778000X1.778000*%
%TD*%
%TA.AperFunction,ComponentPad*%
%ADD51C,1.778000*%
%TD*%
%TA.AperFunction,ComponentPad*%
%ADD52C,2.032000*%
%TD*%
%TA.AperFunction,ComponentPad*%
%ADD53C,2.540000*%
%TD*%
%TA.AperFunction,ComponentPad*%
%ADD54C,1.700000*%
%TD*%
%TA.AperFunction,ComponentPad*%
%ADD55C,3.500000*%
%TD*%
%TA.AperFunction,SMDPad,CuDef*%
%ADD56RoundRect,0.200000X-0.200000X-0.275000X0.200000X-0.275000X0.200000X0.275000X-0.200000X0.275000X0*%
%TD*%
%TA.AperFunction,SMDPad,CuDef*%
%ADD57R,1.525000X0.650000*%
%TD*%
%TA.AperFunction,SMDPad,CuDef*%
%ADD58FreePoly0,270.000000*%
%TD*%
%TA.AperFunction,SMDPad,CuDef*%
%ADD59FreePoly1,270.000000*%
%TD*%
%TA.AperFunction,SMDPad,CuDef*%
%ADD60RoundRect,0.075000X0.075000X-0.725000X0.075000X0.725000X-0.075000X0.725000X-0.075000X-0.725000X0*%
%TD*%
%TA.AperFunction,SMDPad,CuDef*%
%ADD61RoundRect,0.075000X0.725000X-0.075000X0.725000X0.075000X-0.725000X0.075000X-0.725000X-0.075000X0*%
%TD*%
%TA.AperFunction,SMDPad,CuDef*%
%ADD62RoundRect,0.225000X0.225000X0.250000X-0.225000X0.250000X-0.225000X-0.250000X0.225000X-0.250000X0*%
%TD*%
%TA.AperFunction,SMDPad,CuDef*%
%ADD63R,2.000000X1.500000*%
%TD*%
%TA.AperFunction,SMDPad,CuDef*%
%ADD64R,2.000000X3.800000*%
%TD*%
%TA.AperFunction,SMDPad,CuDef*%
%ADD65R,3.500000X2.300000*%
%TD*%
%TA.AperFunction,SMDPad,CuDef*%
%ADD66RoundRect,0.062500X-0.062500X0.350000X-0.062500X-0.350000X0.062500X-0.350000X0.062500X0.350000X0*%
%TD*%
%TA.AperFunction,SMDPad,CuDef*%
%ADD67RoundRect,0.062500X-0.350000X0.062500X-0.350000X-0.062500X0.350000X-0.062500X0.350000X0.062500X0*%
%TD*%
%TA.AperFunction,SMDPad,CuDef*%
%ADD68R,2.600000X2.600000*%
%TD*%
%TA.AperFunction,SMDPad,CuDef*%
%ADD69RoundRect,0.250000X0.787500X0.925000X-0.787500X0.925000X-0.787500X-0.925000X0.787500X-0.925000X0*%
%TD*%
%TA.AperFunction,ViaPad*%
%ADD70C,0.600000*%
%TD*%
%TA.AperFunction,ViaPad*%
%ADD71C,1.000000*%
%TD*%
%TA.AperFunction,ViaPad*%
%ADD72C,0.800000*%
%TD*%
%TA.AperFunction,Conductor*%
%ADD73C,0.300000*%
%TD*%
%TA.AperFunction,Conductor*%
%ADD74C,1.000000*%
%TD*%
%TA.AperFunction,Conductor*%
%ADD75C,0.200000*%
%TD*%
%TA.AperFunction,Conductor*%
%ADD76C,0.400000*%
%TD*%
%TA.AperFunction,Conductor*%
%ADD77C,0.800000*%
%TD*%
%TA.AperFunction,Conductor*%
%ADD78C,2.000000*%
%TD*%
G04 APERTURE END LIST*
D10*
X23200000Y45400000D03*
X26600000Y45400000D03*
X23200000Y52200000D03*
X26600000Y52200000D03*
D11*
X46400000Y52475000D03*
X46400000Y50925000D03*
D12*
X62012500Y93700000D03*
X63587500Y93700000D03*
X62912500Y108500000D03*
X64487500Y108500000D03*
X62012500Y88900000D03*
X63587500Y88900000D03*
D13*
X68587500Y108500000D03*
X67012500Y108500000D03*
X63587500Y95900000D03*
X62012500Y95900000D03*
D12*
X66312500Y88900000D03*
X67887500Y88900000D03*
D13*
X67887500Y95900000D03*
X66312500Y95900000D03*
D14*
X47900000Y52487500D03*
X47900000Y50912500D03*
D15*
X33700000Y74712500D03*
X33700000Y76287500D03*
D12*
X19612500Y62300000D03*
X21187500Y62300000D03*
D16*
X17062500Y59300000D03*
X18937500Y59300000D03*
D14*
X36300000Y52487500D03*
X36300000Y50912500D03*
D13*
X29587500Y57300000D03*
X28012500Y57300000D03*
D17*
X35300000Y74725000D03*
X35300000Y76275000D03*
D14*
X34300000Y52500000D03*
X34300000Y50925000D03*
D18*
X52025000Y68700000D03*
X53575000Y68700000D03*
X52025000Y70350000D03*
X53575000Y70350000D03*
D12*
X52012500Y72000000D03*
X53587500Y72000000D03*
D14*
X12500000Y38587500D03*
X12500000Y37012500D03*
X64100000Y46987500D03*
X64100000Y45412500D03*
D13*
X53687500Y38900000D03*
X52112500Y38900000D03*
X35775000Y48500000D03*
X34200000Y48500000D03*
D12*
X8212500Y20100000D03*
X9787500Y20100000D03*
D13*
X26687500Y49200000D03*
X25112500Y49200000D03*
D15*
X52900000Y15312500D03*
X52900000Y16887500D03*
D19*
X14426600Y48110000D03*
X14426600Y46840000D03*
X14426600Y45570000D03*
X14426600Y44300000D03*
X14426600Y43030000D03*
X14426600Y41760000D03*
X14426600Y40490000D03*
X20573400Y40490000D03*
X20573400Y41760000D03*
X20573400Y43030000D03*
X20573400Y44300000D03*
X20573400Y45570000D03*
X20573400Y46840000D03*
X20573400Y48110000D03*
D12*
X48512500Y13300000D03*
X50087500Y13300000D03*
D20*
X11500000Y45800000D03*
D21*
X11500000Y46600000D03*
X11500000Y47400000D03*
D20*
X11500000Y48200000D03*
X9700000Y48200000D03*
D21*
X9700000Y47400000D03*
X9700000Y46600000D03*
D20*
X9700000Y45800000D03*
D22*
X37700000Y82600000D03*
D23*
X38500000Y82600000D03*
X39300000Y82600000D03*
D22*
X40100000Y82600000D03*
X40100000Y84400000D03*
D23*
X39300000Y84400000D03*
X38500000Y84400000D03*
D22*
X37700000Y84400000D03*
D20*
X50300000Y36500000D03*
D21*
X50300000Y37300000D03*
X50300000Y38100000D03*
D20*
X50300000Y38900000D03*
X48500000Y38900000D03*
D21*
X48500000Y38100000D03*
X48500000Y37300000D03*
D20*
X48500000Y36500000D03*
X21300000Y58500000D03*
D21*
X21300000Y57700000D03*
X21300000Y56900000D03*
D20*
X21300000Y56100000D03*
X23100000Y56100000D03*
D21*
X23100000Y56900000D03*
X23100000Y57700000D03*
D20*
X23100000Y58500000D03*
D12*
X57112500Y13100000D03*
X58687500Y13100000D03*
D20*
X11500000Y40900000D03*
D21*
X11500000Y41700000D03*
X11500000Y42500000D03*
D20*
X11500000Y43300000D03*
X9700000Y43300000D03*
D21*
X9700000Y42500000D03*
X9700000Y41700000D03*
D20*
X9700000Y40900000D03*
D14*
X9800000Y38587500D03*
X9800000Y37012500D03*
D13*
X68600000Y105900000D03*
X67025000Y105900000D03*
D14*
X16600000Y64587500D03*
X16600000Y63012500D03*
D24*
X24575000Y64395000D03*
X24575000Y65665000D03*
X24575000Y66935000D03*
X24575000Y68205000D03*
X19625000Y68205000D03*
X19625000Y66935000D03*
X19625000Y65665000D03*
X19625000Y64395000D03*
D12*
X38012500Y48500000D03*
X39587500Y48500000D03*
D13*
X43400000Y48500000D03*
X41825000Y48500000D03*
D24*
X26975000Y78895000D03*
X26975000Y80165000D03*
X26975000Y81435000D03*
X26975000Y82705000D03*
X22025000Y82705000D03*
X22025000Y81435000D03*
X22025000Y80165000D03*
X22025000Y78895000D03*
D13*
X63587500Y91400000D03*
X62012500Y91400000D03*
D12*
X66712500Y47000000D03*
X68287500Y47000000D03*
D15*
X61400000Y15200000D03*
X61400000Y16775000D03*
D13*
X68275000Y43800000D03*
X66700000Y43800000D03*
D25*
X59450000Y93400000D03*
D26*
X58700000Y93400000D03*
D25*
X57950000Y93400000D03*
X57950000Y91600000D03*
D26*
X58700000Y91600000D03*
D25*
X59450000Y91600000D03*
D27*
X4700000Y7500000D03*
D28*
X8200000Y7500000D03*
X11700000Y7500000D03*
X15200000Y7500000D03*
X18700000Y7500000D03*
X22200000Y7500000D03*
X25700000Y7500000D03*
X29200000Y7500000D03*
X32700000Y7500000D03*
X36200000Y7500000D03*
D12*
X66312500Y93700000D03*
X67887500Y93700000D03*
D13*
X67887500Y91400000D03*
X66312500Y91400000D03*
D12*
X66712500Y49900000D03*
X68287500Y49900000D03*
D25*
X60800000Y108350000D03*
D29*
X60800000Y109100000D03*
D25*
X60800000Y109850000D03*
X59000000Y109850000D03*
D29*
X59000000Y109100000D03*
D25*
X59000000Y108350000D03*
D13*
X64387500Y105800000D03*
X62812500Y105800000D03*
D30*
X2500000Y1750000D03*
X79500000Y125500000D03*
D31*
X38550000Y51300000D03*
X42850000Y51300000D03*
D32*
X10300000Y79900000D03*
D33*
X12840000Y78630000D03*
X10300000Y77360000D03*
X12840000Y76090000D03*
X10300000Y74820000D03*
X12840000Y73550000D03*
X10300000Y72280000D03*
X12840000Y71010000D03*
D34*
X73100000Y42500000D03*
D35*
X73100000Y46000000D03*
X73100000Y49500000D03*
X73100000Y53000000D03*
X73100000Y56500000D03*
X73100000Y60000000D03*
X73100000Y63500000D03*
X73100000Y67000000D03*
X73100000Y70500000D03*
X73100000Y74000000D03*
D36*
X51305000Y20775000D03*
X50035000Y20775000D03*
X48765000Y20775000D03*
X47495000Y20775000D03*
X47495000Y15825000D03*
X48765000Y15825000D03*
X50035000Y15825000D03*
X51305000Y15825000D03*
X59705000Y20675000D03*
X58435000Y20675000D03*
X57165000Y20675000D03*
X55895000Y20675000D03*
X55895000Y15725000D03*
X57165000Y15725000D03*
X58435000Y15725000D03*
X59705000Y15725000D03*
D13*
X39387500Y11300000D03*
X37812500Y11300000D03*
D37*
X3700000Y106700000D03*
X3700000Y113500000D03*
D38*
X21000000Y95600000D03*
X21000000Y96100000D03*
X21000000Y96600000D03*
X19400000Y96600000D03*
X19400000Y96100000D03*
X19400000Y95600000D03*
D15*
X18300000Y81312500D03*
X18300000Y82887500D03*
D39*
X3500000Y47120000D03*
D40*
X6040000Y47120000D03*
X3500000Y44580000D03*
X6040000Y44580000D03*
X3500000Y42040000D03*
X6040000Y42040000D03*
X3500000Y39500000D03*
X6040000Y39500000D03*
X3500000Y36960000D03*
X6040000Y36960000D03*
X3500000Y34420000D03*
X6040000Y34420000D03*
X3500000Y31880000D03*
X6040000Y31880000D03*
X3500000Y29340000D03*
X6040000Y29340000D03*
X3500000Y26800000D03*
X6040000Y26800000D03*
X3500000Y24260000D03*
X6040000Y24260000D03*
X3500000Y21720000D03*
X6040000Y21720000D03*
X3500000Y19180000D03*
X6040000Y19180000D03*
X3500000Y16640000D03*
X6040000Y16640000D03*
X3500000Y14100000D03*
X6040000Y14100000D03*
X3500000Y11560000D03*
X6040000Y11560000D03*
D13*
X67887500Y78600000D03*
X66312500Y78600000D03*
X66387500Y114400000D03*
X64812500Y114400000D03*
D41*
X28525000Y103800000D03*
X31475000Y103800000D03*
D42*
X16600000Y66700000D03*
D43*
X16600000Y68000000D03*
D15*
X60700000Y44812500D03*
X60700000Y46387500D03*
D44*
X14600000Y113950000D03*
X12300000Y113950000D03*
X10000000Y113950000D03*
D45*
X12300000Y107450000D03*
D12*
X21512500Y85200000D03*
X23087500Y85200000D03*
D44*
X30800000Y113950000D03*
X28500000Y113950000D03*
X26200000Y113950000D03*
D45*
X28500000Y107450000D03*
D39*
X53650000Y88275000D03*
D40*
X53650000Y85735000D03*
X53650000Y83195000D03*
X53650000Y80655000D03*
X53650000Y78115000D03*
X53650000Y75575000D03*
D13*
X68587500Y111200000D03*
X67012500Y111200000D03*
D17*
X50500000Y31225000D03*
X50500000Y32775000D03*
D44*
X22800000Y113950000D03*
X20500000Y113950000D03*
X18200000Y113950000D03*
D45*
X20500000Y107450000D03*
D14*
X59600000Y24687500D03*
X59600000Y23112500D03*
D27*
X77900000Y119900000D03*
D28*
X74400000Y119900000D03*
X70900000Y119900000D03*
X67400000Y119900000D03*
X63900000Y119900000D03*
X60400000Y119900000D03*
X56900000Y119900000D03*
X53400000Y119900000D03*
X49900000Y119900000D03*
X46400000Y119900000D03*
D12*
X66312500Y65700000D03*
X67887500Y65700000D03*
D36*
X32405000Y21775000D03*
X31135000Y21775000D03*
X29865000Y21775000D03*
X28595000Y21775000D03*
X28595000Y16825000D03*
X29865000Y16825000D03*
X31135000Y16825000D03*
X32405000Y16825000D03*
D15*
X61800000Y29712500D03*
X61800000Y31287500D03*
D13*
X64087500Y65700000D03*
X62512500Y65700000D03*
D20*
X73400000Y17800000D03*
D21*
X73400000Y17000000D03*
X73400000Y16200000D03*
D20*
X73400000Y15400000D03*
X75200000Y15400000D03*
D21*
X75200000Y16200000D03*
X75200000Y17000000D03*
D20*
X75200000Y17800000D03*
D13*
X64487500Y111200000D03*
X62912500Y111200000D03*
D44*
X38800000Y113950000D03*
X36500000Y113950000D03*
X34200000Y113950000D03*
D45*
X36500000Y107450000D03*
D44*
X55000000Y113950000D03*
X52700000Y113950000D03*
X50400000Y113950000D03*
D45*
X52700000Y107450000D03*
D12*
X37812500Y37200000D03*
X39387500Y37200000D03*
D13*
X20587500Y50100000D03*
X19012500Y50100000D03*
D20*
X21100000Y90900000D03*
D21*
X21100000Y91700000D03*
X21100000Y92500000D03*
D20*
X21100000Y93300000D03*
X19300000Y93300000D03*
D21*
X19300000Y92500000D03*
X19300000Y91700000D03*
D20*
X19300000Y90900000D03*
D16*
X17062500Y55200000D03*
X18937500Y55200000D03*
D27*
X34500000Y119900000D03*
D28*
X31000000Y119900000D03*
X27500000Y119900000D03*
X24000000Y119900000D03*
X20500000Y119900000D03*
X17000000Y119900000D03*
X13500000Y119900000D03*
X10000000Y119900000D03*
X6500000Y119900000D03*
X3000000Y119900000D03*
D25*
X15600000Y22150000D03*
D29*
X15600000Y21400000D03*
D25*
X15600000Y20650000D03*
X17400000Y20650000D03*
D29*
X17400000Y21400000D03*
D25*
X17400000Y22150000D03*
D14*
X63900000Y57287500D03*
X63900000Y55712500D03*
D27*
X45100000Y7500000D03*
D28*
X48600000Y7500000D03*
X52100000Y7500000D03*
X55600000Y7500000D03*
X59100000Y7500000D03*
X62600000Y7500000D03*
X66100000Y7500000D03*
X69600000Y7500000D03*
X73100000Y7500000D03*
X76600000Y7500000D03*
D15*
X57800000Y44812500D03*
X57800000Y46387500D03*
D46*
X44050000Y92925000D03*
X44050000Y95875000D03*
D34*
X73100000Y79900000D03*
D35*
X73100000Y83400000D03*
X73100000Y86900000D03*
X73100000Y90400000D03*
X73100000Y93900000D03*
X73100000Y97400000D03*
X73100000Y100900000D03*
X73100000Y104400000D03*
X73100000Y107900000D03*
X73100000Y111400000D03*
D20*
X44400000Y77300000D03*
D21*
X44400000Y76500000D03*
X44400000Y75700000D03*
D20*
X44400000Y74900000D03*
X46200000Y74900000D03*
D21*
X46200000Y75700000D03*
X46200000Y76500000D03*
D20*
X46200000Y77300000D03*
D12*
X28512500Y13400000D03*
X30087500Y13400000D03*
X66312500Y81200000D03*
X67887500Y81200000D03*
D47*
X32200000Y100300000D03*
X31700000Y100300000D03*
X31200000Y100300000D03*
X30700000Y100300000D03*
X30200000Y100300000D03*
D48*
X29150000Y99250000D03*
X29150000Y98750000D03*
X29150000Y98250000D03*
X29150000Y97750000D03*
X29150000Y97250000D03*
D47*
X30200000Y96200000D03*
X30700000Y96200000D03*
X31200000Y96200000D03*
X31700000Y96200000D03*
X32200000Y96200000D03*
D48*
X33250000Y97250000D03*
X33250000Y97750000D03*
X33250000Y98250000D03*
X33250000Y98750000D03*
X33250000Y99250000D03*
D49*
X31200000Y98250000D03*
D31*
X52662500Y33150000D03*
X56962500Y33150000D03*
D50*
X68100000Y24600000D03*
D51*
X65560000Y25870000D03*
X68100000Y27140000D03*
X65560000Y28410000D03*
X68100000Y29680000D03*
X65560000Y30950000D03*
X68100000Y32220000D03*
X65560000Y33490000D03*
D52*
X78564800Y22395400D03*
X78564800Y24935000D03*
X78564800Y33130000D03*
X78564800Y35669200D03*
D53*
X71400000Y36795000D03*
X71400000Y21295000D03*
D20*
X47350000Y31200000D03*
D21*
X47350000Y32000000D03*
X47350000Y32800000D03*
D20*
X47350000Y33600000D03*
X45550000Y33600000D03*
D21*
X45550000Y32800000D03*
X45550000Y32000000D03*
D20*
X45550000Y31200000D03*
D13*
X57987500Y30300000D03*
X56412500Y30300000D03*
D14*
X61800000Y27987500D03*
X61800000Y26412500D03*
D15*
X59600000Y26412500D03*
X59600000Y27987500D03*
D39*
X15500000Y95500000D03*
D54*
X15500000Y98000000D03*
X13500000Y98000000D03*
X13500000Y95500000D03*
D55*
X10790000Y102770000D03*
X10790000Y90730000D03*
D56*
X10875000Y87400000D03*
X12525000Y87400000D03*
D14*
X27100000Y100187500D03*
X27100000Y98612500D03*
D13*
X53687500Y36000000D03*
X52112500Y36000000D03*
D25*
X66800000Y52450000D03*
D29*
X66800000Y53200000D03*
D25*
X66800000Y53950000D03*
X65000000Y53950000D03*
D29*
X65000000Y53200000D03*
D25*
X65000000Y52450000D03*
D39*
X36000000Y88000000D03*
D40*
X38540000Y88000000D03*
X41080000Y88000000D03*
X43620000Y88000000D03*
D12*
X9312500Y12300000D03*
X10887500Y12300000D03*
D14*
X62300000Y21187500D03*
X62300000Y19612500D03*
D22*
X14000000Y25650000D03*
D23*
X14800000Y25650000D03*
X15600000Y25650000D03*
D22*
X16400000Y25650000D03*
X16400000Y27450000D03*
D23*
X15600000Y27450000D03*
X14800000Y27450000D03*
D22*
X14000000Y27450000D03*
D44*
X47000000Y113950000D03*
X44700000Y113950000D03*
X42400000Y113950000D03*
D45*
X44700000Y107450000D03*
D12*
X47112500Y27275000D03*
X48687500Y27275000D03*
X18700000Y12200000D03*
X20275000Y12200000D03*
X60812500Y114400000D03*
X62387500Y114400000D03*
D32*
X10300000Y62100000D03*
D33*
X12840000Y60830000D03*
X10300000Y59560000D03*
X12840000Y58290000D03*
X10300000Y57020000D03*
X12840000Y55750000D03*
X10300000Y54480000D03*
X12840000Y53210000D03*
D56*
X38475000Y30600000D03*
X40125000Y30600000D03*
D17*
X29900000Y81225000D03*
X29900000Y82775000D03*
D57*
X43482000Y12955000D03*
X43482000Y14225000D03*
X43482000Y15495000D03*
X43482000Y16765000D03*
X43482000Y18035000D03*
X43482000Y19305000D03*
X43482000Y20575000D03*
X43482000Y21845000D03*
X38058000Y21845000D03*
X38058000Y20575000D03*
X38058000Y19305000D03*
X38058000Y18035000D03*
X38058000Y16765000D03*
X38058000Y15495000D03*
X38058000Y14225000D03*
X38058000Y12955000D03*
D12*
X55912500Y36000000D03*
X57487500Y36000000D03*
D58*
X18300000Y79350000D03*
D59*
X18300000Y78050000D03*
D14*
X25900000Y95487500D03*
X25900000Y93912500D03*
D18*
X8250000Y21700000D03*
X9800000Y21700000D03*
D13*
X62387500Y33500000D03*
X60812500Y33500000D03*
X42587500Y28600000D03*
X41012500Y28600000D03*
D60*
X34800000Y56025000D03*
X35300000Y56025000D03*
X35800000Y56025000D03*
X36300000Y56025000D03*
X36800000Y56025000D03*
X37300000Y56025000D03*
X37800000Y56025000D03*
X38300000Y56025000D03*
X38800000Y56025000D03*
X39300000Y56025000D03*
X39800000Y56025000D03*
X40300000Y56025000D03*
X40800000Y56025000D03*
X41300000Y56025000D03*
X41800000Y56025000D03*
X42300000Y56025000D03*
X42800000Y56025000D03*
X43300000Y56025000D03*
X43800000Y56025000D03*
X44300000Y56025000D03*
X44800000Y56025000D03*
X45300000Y56025000D03*
X45800000Y56025000D03*
X46300000Y56025000D03*
X46800000Y56025000D03*
D61*
X48475000Y57700000D03*
X48475000Y58200000D03*
X48475000Y58700000D03*
X48475000Y59200000D03*
X48475000Y59700000D03*
X48475000Y60200000D03*
X48475000Y60700000D03*
X48475000Y61200000D03*
X48475000Y61700000D03*
X48475000Y62200000D03*
X48475000Y62700000D03*
X48475000Y63200000D03*
X48475000Y63700000D03*
X48475000Y64200000D03*
X48475000Y64700000D03*
X48475000Y65200000D03*
X48475000Y65700000D03*
X48475000Y66200000D03*
X48475000Y66700000D03*
X48475000Y67200000D03*
X48475000Y67700000D03*
X48475000Y68200000D03*
X48475000Y68700000D03*
X48475000Y69200000D03*
X48475000Y69700000D03*
D60*
X46800000Y71375000D03*
X46300000Y71375000D03*
X45800000Y71375000D03*
X45300000Y71375000D03*
X44800000Y71375000D03*
X44300000Y71375000D03*
X43800000Y71375000D03*
X43300000Y71375000D03*
X42800000Y71375000D03*
X42300000Y71375000D03*
X41800000Y71375000D03*
X41300000Y71375000D03*
X40800000Y71375000D03*
X40300000Y71375000D03*
X39800000Y71375000D03*
X39300000Y71375000D03*
X38800000Y71375000D03*
X38300000Y71375000D03*
X37800000Y71375000D03*
X37300000Y71375000D03*
X36800000Y71375000D03*
X36300000Y71375000D03*
X35800000Y71375000D03*
X35300000Y71375000D03*
X34800000Y71375000D03*
D61*
X33125000Y69700000D03*
X33125000Y69200000D03*
X33125000Y68700000D03*
X33125000Y68200000D03*
X33125000Y67700000D03*
X33125000Y67200000D03*
X33125000Y66700000D03*
X33125000Y66200000D03*
X33125000Y65700000D03*
X33125000Y65200000D03*
X33125000Y64700000D03*
X33125000Y64200000D03*
X33125000Y63700000D03*
X33125000Y63200000D03*
X33125000Y62700000D03*
X33125000Y62200000D03*
X33125000Y61700000D03*
X33125000Y61200000D03*
X33125000Y60700000D03*
X33125000Y60200000D03*
X33125000Y59700000D03*
X33125000Y59200000D03*
X33125000Y58700000D03*
X33125000Y58200000D03*
X33125000Y57700000D03*
D62*
X56975000Y23200000D03*
X55425000Y23200000D03*
D12*
X66312500Y86500000D03*
X67887500Y86500000D03*
D56*
X73375000Y13550000D03*
X75025000Y13550000D03*
D12*
X66312500Y58100000D03*
X67887500Y58100000D03*
D13*
X33287500Y94000000D03*
X31712500Y94000000D03*
D12*
X66312500Y68200000D03*
X67887500Y68200000D03*
D25*
X63000000Y77150000D03*
D29*
X63000000Y77900000D03*
D25*
X63000000Y78650000D03*
X61200000Y78650000D03*
D29*
X61200000Y77900000D03*
D25*
X61200000Y77150000D03*
D12*
X66312500Y84000000D03*
X67887500Y84000000D03*
X35512500Y102500000D03*
X37087500Y102500000D03*
D15*
X34100000Y16312500D03*
X34100000Y17887500D03*
D13*
X29687500Y94000000D03*
X28112500Y94000000D03*
D63*
X44250000Y104300000D03*
D64*
X50550000Y102000000D03*
D63*
X44250000Y102000000D03*
X44250000Y99700000D03*
D12*
X52012500Y58400000D03*
X53587500Y58400000D03*
D17*
X48900000Y31225000D03*
X48900000Y32775000D03*
D65*
X38400000Y99500000D03*
X38400000Y93500000D03*
D20*
X50550000Y81100000D03*
D21*
X50550000Y81900000D03*
X50550000Y82700000D03*
D20*
X50550000Y83500000D03*
X48750000Y83500000D03*
D21*
X48750000Y82700000D03*
X48750000Y81900000D03*
D20*
X48750000Y81100000D03*
D16*
X19462500Y89100000D03*
X21337500Y89100000D03*
D66*
X54050000Y28937500D03*
X53550000Y28937500D03*
X53050000Y28937500D03*
X52550000Y28937500D03*
X52050000Y28937500D03*
X51550000Y28937500D03*
D67*
X50862500Y28250000D03*
X50862500Y27750000D03*
X50862500Y27250000D03*
X50862500Y26750000D03*
X50862500Y26250000D03*
X50862500Y25750000D03*
D66*
X51550000Y25062500D03*
X52050000Y25062500D03*
X52550000Y25062500D03*
X53050000Y25062500D03*
X53550000Y25062500D03*
X54050000Y25062500D03*
D67*
X54737500Y25750000D03*
X54737500Y26250000D03*
X54737500Y26750000D03*
X54737500Y27250000D03*
X54737500Y27750000D03*
X54737500Y28250000D03*
D68*
X52800000Y27000000D03*
D20*
X11000000Y15800000D03*
D21*
X11000000Y16600000D03*
X11000000Y17400000D03*
D20*
X11000000Y18200000D03*
X9200000Y18200000D03*
D21*
X9200000Y17400000D03*
X9200000Y16600000D03*
D20*
X9200000Y15800000D03*
D18*
X9775000Y25200000D03*
X11325000Y25200000D03*
D12*
X62512500Y68200000D03*
X64087500Y68200000D03*
X66312500Y60600000D03*
X67887500Y60600000D03*
D13*
X67887500Y55700000D03*
X66312500Y55700000D03*
D18*
X9775000Y23500000D03*
X11325000Y23500000D03*
D36*
X17105000Y17675000D03*
X15835000Y17675000D03*
X14565000Y17675000D03*
X13295000Y17675000D03*
X13295000Y12725000D03*
X14565000Y12725000D03*
X15835000Y12725000D03*
X17105000Y12725000D03*
D20*
X44550000Y82000000D03*
D21*
X44550000Y82800000D03*
X44550000Y83600000D03*
D20*
X44550000Y84400000D03*
X42750000Y84400000D03*
D21*
X42750000Y83600000D03*
X42750000Y82800000D03*
D20*
X42750000Y82000000D03*
D69*
X52962500Y94900000D03*
X48037500Y94900000D03*
D70*
X54400000Y105600000D03*
X60700000Y47000000D03*
X33800000Y74100000D03*
X36900000Y82600000D03*
D71*
X54600000Y94900000D03*
D70*
X49800000Y57900000D03*
X51400000Y58400000D03*
X51300000Y14600000D03*
X22300000Y52200000D03*
X39650000Y54795581D03*
X11500000Y38600000D03*
X37490280Y54775125D03*
D71*
X51200000Y94900000D03*
D70*
X60400000Y77900000D03*
X51100000Y72000000D03*
X46400000Y53400000D03*
X15014505Y21391297D03*
X32400000Y15600000D03*
X47900000Y53400000D03*
X59900000Y109900000D03*
X19600000Y63500000D03*
X16800000Y21400000D03*
X53000000Y14600000D03*
X33700000Y15700000D03*
X9300000Y23200000D03*
X60500000Y92800000D03*
X35300000Y52500000D03*
X24000000Y57700000D03*
X51100000Y70400000D03*
X21500000Y84300000D03*
X31700000Y57700000D03*
X67800000Y53200000D03*
X30400000Y57300000D03*
X17100000Y11500000D03*
X57900000Y92500000D03*
X65900000Y53200000D03*
X18700000Y12900000D03*
X44800000Y54800000D03*
X9200000Y25150000D03*
X22000000Y83500000D03*
X61400000Y14587500D03*
X18700000Y62300000D03*
D71*
X53000000Y93100000D03*
D70*
X8800000Y38600000D03*
D71*
X53000000Y96700000D03*
D70*
X34200000Y71400000D03*
X59700000Y14500000D03*
X49900000Y69850000D03*
X37074998Y52500000D03*
X17900000Y50100000D03*
X11950000Y23500000D03*
X12900000Y40500000D03*
X36300000Y50400000D03*
X27000000Y93900000D03*
X20900000Y12200000D03*
X55900000Y14200000D03*
X14600000Y16500000D03*
X53800000Y28000000D03*
X36900000Y18500000D03*
D71*
X46200000Y104300000D03*
D70*
X48800000Y19600000D03*
X34600000Y49150000D03*
X53600000Y16900000D03*
X42300000Y16800000D03*
X31100000Y20100000D03*
X33300000Y96500000D03*
X58600000Y30900000D03*
X23900000Y85200000D03*
X54500000Y68700000D03*
X33700000Y76900000D03*
X64000000Y77100000D03*
X51800000Y26000000D03*
X47100000Y76500000D03*
X50040000Y19600000D03*
X28300000Y100200000D03*
X13300000Y87500000D03*
D71*
X52700000Y115100000D03*
D70*
X50700000Y69350000D03*
X51500000Y36000000D03*
X39600000Y47800000D03*
X69100000Y95900000D03*
X56800000Y91600000D03*
X31900000Y95200000D03*
D71*
X28500000Y115100000D03*
D70*
X24100000Y45400000D03*
D71*
X1700000Y105800000D03*
D70*
X29900000Y83800000D03*
X27500000Y16800000D03*
X57000000Y22500000D03*
D72*
X30200000Y97200000D03*
D70*
X19600000Y69000000D03*
X58400000Y19500000D03*
X61400000Y17387500D03*
X39400000Y38200000D03*
X15800000Y16600000D03*
D71*
X1750000Y107750000D03*
D70*
X54500000Y72000000D03*
X44080000Y57370000D03*
X62100000Y78700000D03*
X51800000Y28000000D03*
X48900000Y33450000D03*
D71*
X36500000Y115100000D03*
D70*
X39620000Y57400000D03*
D71*
X12300000Y115100000D03*
D70*
X28500000Y80200000D03*
X47900000Y83500000D03*
X12800000Y12800000D03*
X22100000Y62300000D03*
X22034411Y96200010D03*
X47100000Y28400000D03*
X35200000Y72600000D03*
X76100000Y13500000D03*
X63800000Y80800000D03*
X69600000Y105900000D03*
D71*
X43250000Y96800000D03*
D70*
X46400000Y50000000D03*
X69100000Y91400000D03*
X47900000Y82700000D03*
X10500000Y21700000D03*
D71*
X5600000Y105900000D03*
D70*
X47100000Y77300000D03*
X40000000Y11300000D03*
X57800000Y47000000D03*
X48500000Y57000000D03*
X59000000Y110500000D03*
D72*
X32300000Y99349998D03*
D70*
X16124500Y59350210D03*
X67800000Y52400000D03*
X60200000Y33500000D03*
X17400000Y20100000D03*
X50550000Y33450000D03*
X34500000Y50400000D03*
X41100000Y29300000D03*
X62800000Y69300000D03*
X47900000Y81900000D03*
D72*
X30100000Y99349998D03*
D70*
X57200000Y19500000D03*
X18800000Y89200000D03*
X47100000Y74900000D03*
X57500000Y36600000D03*
X52100000Y39600000D03*
D71*
X44700000Y115100000D03*
D70*
X47100000Y75700000D03*
X61900000Y109900000D03*
X41800000Y47900000D03*
X34100000Y18500000D03*
D71*
X44650000Y96850000D03*
D70*
X54500000Y70400000D03*
X63400000Y46300000D03*
X54200000Y58400000D03*
D71*
X33000000Y103800000D03*
D70*
X47900000Y81100000D03*
X47500000Y17000000D03*
X43100000Y22700000D03*
X35300000Y76900000D03*
X12000000Y25150000D03*
X10500000Y20100000D03*
X27400000Y57900000D03*
X16100000Y22200000D03*
X29900000Y20100000D03*
X24000000Y49200000D03*
X32800000Y95200000D03*
D72*
X32300000Y97200000D03*
D70*
X62300000Y18700000D03*
D71*
X20500000Y115100000D03*
D70*
X20600000Y78900000D03*
X16221011Y55421011D03*
X53800000Y26000000D03*
X47900000Y50000000D03*
X60434358Y93650000D03*
X62900000Y57300000D03*
X65900000Y54000003D03*
X28100000Y93000000D03*
X30800000Y94700000D03*
D71*
X46600000Y93400000D03*
D70*
X31800000Y58600000D03*
X68600000Y112200000D03*
D72*
X58900000Y105100000D03*
X56700000Y113900000D03*
X69000000Y98400000D03*
D70*
X30600000Y87100000D03*
X31700000Y87100000D03*
X28500000Y87100000D03*
X28400000Y91400000D03*
X30600000Y91400000D03*
X31700000Y91400000D03*
X29500000Y87100000D03*
D72*
X67700000Y97900000D03*
D70*
X29400000Y91400000D03*
X50300000Y35500000D03*
X40700000Y35500000D03*
X39407114Y27692886D03*
X43700000Y27692886D03*
X36600000Y48500000D03*
X41700000Y53500000D03*
X29500000Y100300000D03*
X41140000Y57480000D03*
X35400000Y63100000D03*
X26000000Y38100000D03*
X56000000Y63200000D03*
X59900000Y63100000D03*
X56000000Y64800000D03*
X59875735Y65524265D03*
X59900000Y64700000D03*
X56000000Y64000000D03*
X26600000Y37500000D03*
X37787851Y64860000D03*
D72*
X64200000Y83700000D03*
D71*
X55000000Y110500000D03*
D72*
X64600000Y59900000D03*
X64600000Y50000000D03*
X60700000Y112200000D03*
D71*
X54900000Y107400000D03*
X55000000Y109000000D03*
D72*
X64900000Y69300000D03*
X64600000Y90200000D03*
X63600000Y97000000D03*
D71*
X55000000Y112000000D03*
D72*
X57800000Y108900000D03*
D70*
X57100000Y93400000D03*
X49900000Y59500000D03*
X56775021Y90700000D03*
X50200000Y58700000D03*
X59500000Y112600000D03*
X50300000Y62400000D03*
X59800000Y104900000D03*
X51100000Y62100000D03*
X33865019Y39932041D03*
X23000000Y41500003D03*
X16900000Y42400000D03*
X42640000Y67400000D03*
X66500000Y82300000D03*
X23000000Y42300006D03*
X43240000Y64200000D03*
X16300000Y43500000D03*
X34664965Y39922604D03*
X18800000Y45600000D03*
X12250000Y42500000D03*
X18900000Y41100000D03*
X32200000Y39900000D03*
X41400000Y63600000D03*
X23049011Y39900846D03*
X45200000Y12900000D03*
X45000000Y14900000D03*
X45800000Y18000000D03*
X42040000Y68140000D03*
X16200000Y41900000D03*
X23000000Y40700000D03*
X33024265Y39924265D03*
X45000000Y19300000D03*
X36200000Y20500000D03*
X27675000Y59925000D03*
X19000000Y44300000D03*
X36850000Y19298437D03*
X19100000Y46900000D03*
X40480000Y68740000D03*
X36100000Y16800000D03*
X34500000Y15200000D03*
X44375735Y24775735D03*
X44074265Y30900000D03*
X45000000Y23899980D03*
X44113494Y31709300D03*
X45700000Y23299980D03*
X44085662Y32585662D03*
X8100000Y17400000D03*
X8124265Y18224265D03*
X66700000Y44900000D03*
X65300000Y44900000D03*
X65300000Y58500000D03*
X65200000Y55700000D03*
X66800000Y67000000D03*
X65500000Y67000000D03*
X65200000Y79700000D03*
X68300000Y45100000D03*
X69100000Y55700000D03*
X39020000Y58280000D03*
X37914579Y54000000D03*
X29200000Y54200000D03*
X48700000Y28400000D03*
X57800000Y44200000D03*
X55400000Y23800000D03*
X60300000Y23100000D03*
X61200000Y26400000D03*
X54500000Y29800000D03*
X63000000Y33500000D03*
X46450000Y33600000D03*
X60700000Y44200000D03*
X50000000Y27200000D03*
X46450000Y32000000D03*
X62300000Y21800000D03*
X54800000Y25000000D03*
X61100000Y31300000D03*
X60200000Y28000000D03*
X55800000Y30300000D03*
X51100000Y38900000D03*
X38790000Y54000000D03*
X29200000Y53400000D03*
X40310000Y58890000D03*
X31324266Y55424266D03*
X68100000Y64500000D03*
X65700000Y111200000D03*
X30475735Y54824265D03*
X34715735Y59364265D03*
X66700000Y61600000D03*
X66800000Y69800000D03*
X66300000Y85400000D03*
X25400000Y38700000D03*
X37620000Y65660000D03*
X24800000Y39300000D03*
X36940000Y66150000D03*
X43840001Y61840001D03*
X28490000Y67080000D03*
X66300000Y92700000D03*
X61800000Y94900000D03*
X61100000Y94100000D03*
X23000000Y65650000D03*
X31659265Y65669265D03*
X59400000Y115400000D03*
X66200000Y112300000D03*
X70100000Y114400000D03*
X53700000Y37800000D03*
X55000000Y28900000D03*
X29700000Y95200000D03*
X27200000Y95200000D03*
X66400000Y89924990D03*
X61500000Y92500000D03*
X57800000Y89900000D03*
X61400000Y106800000D03*
X46425000Y42000000D03*
X46350000Y31200000D03*
X50375735Y24275735D03*
X46375000Y46125000D03*
X45550000Y34900000D03*
X40100000Y34900000D03*
X67800000Y79700000D03*
X59100000Y89900000D03*
X72400000Y17000000D03*
X53199265Y30550735D03*
X72400000Y16200000D03*
X54000000Y30600000D03*
X74400000Y16200000D03*
X76100000Y17800000D03*
X65400000Y105300000D03*
X64100000Y107000000D03*
X40200000Y76400000D03*
X34430000Y68030000D03*
X50400000Y112600000D03*
X51500000Y81900000D03*
X34200000Y112600000D03*
X43500000Y74900000D03*
X18200000Y112600000D03*
X45300000Y76500000D03*
X42100000Y76000000D03*
X46300000Y65500000D03*
X51500000Y81100000D03*
X42400000Y112600000D03*
X26200000Y112600000D03*
X45300000Y75700000D03*
X44400000Y78100000D03*
X10000000Y112600000D03*
X47100000Y65500000D03*
X29150000Y61550000D03*
X24290000Y52200000D03*
X59100000Y97000000D03*
D71*
X68600000Y109800000D03*
D70*
X33100000Y70400000D03*
X38500000Y81700000D03*
X36224989Y73400000D03*
X39300000Y81700000D03*
X47140000Y59700000D03*
X36771014Y45240000D03*
X36180000Y45840000D03*
X45400000Y59200000D03*
X36075735Y61924265D03*
X27200000Y36900000D03*
X32400000Y35600000D03*
X38097571Y57400000D03*
X35775468Y59824532D03*
X38387851Y66100000D03*
X13600000Y37000000D03*
X38987851Y66985421D03*
X10900000Y37000000D03*
X8600000Y37000000D03*
X66700000Y51000000D03*
X13975000Y24225000D03*
X16275000Y24400000D03*
X8700000Y40900000D03*
X42800000Y70000000D03*
X29475000Y67975000D03*
X40190000Y65500000D03*
X40790000Y66110000D03*
D73*
X46400000Y52475000D02*
X46400000Y53400000D01*
X23200000Y52200000D02*
X22300000Y52200000D01*
D74*
X52962500Y94900000D02*
X52962500Y93137500D01*
D73*
X16800000Y21400000D02*
X16919998Y21400000D01*
X58700000Y93400000D02*
X58700000Y93000000D01*
X58950010Y92749990D02*
X60449990Y92749990D01*
X22025000Y83475000D02*
X22000000Y83500000D01*
D74*
X52962500Y94900000D02*
X52962500Y96662500D01*
D73*
X58700000Y91600000D02*
X58700000Y92200000D01*
X29587500Y57300000D02*
X30400000Y57300000D01*
X19625000Y63525000D02*
X19600000Y63500000D01*
X58400000Y92500000D02*
X57900000Y92500000D01*
X58700000Y92200000D02*
X58400000Y92500000D01*
X60700000Y46387500D02*
X60700000Y47000000D01*
X65000000Y53200000D02*
X65900000Y53200000D01*
X34225000Y71375000D02*
X34200000Y71400000D01*
D74*
X52962500Y93137500D02*
X53000000Y93100000D01*
X52962500Y96662500D02*
X53000000Y96700000D01*
D73*
X37062498Y52487500D02*
X37074998Y52500000D01*
X11512500Y38587500D02*
X11500000Y38600000D01*
X37700000Y82600000D02*
X36900000Y82600000D01*
X59700000Y14500000D02*
X59705000Y15725000D01*
D74*
X50550000Y97312500D02*
X52962500Y94900000D01*
D73*
X39800000Y56025000D02*
X39800000Y54945581D01*
X66800000Y53200000D02*
X67800000Y53200000D01*
X39800000Y54945581D02*
X39650000Y54795581D01*
X15023208Y21400000D02*
X15014505Y21391297D01*
X21512500Y84312500D02*
X21500000Y84300000D01*
X49500000Y58200000D02*
X49800000Y57900000D01*
X63000000Y77900000D02*
X60400000Y77900000D01*
X49750000Y69700000D02*
X49900000Y69850000D01*
X37300000Y56025000D02*
X37300000Y54965405D01*
X37300000Y54965405D02*
X37490280Y54775125D01*
X12500000Y38587500D02*
X11512500Y38587500D01*
D74*
X50550000Y102000000D02*
X50550000Y97312500D01*
D73*
X36300000Y52487500D02*
X37062498Y52487500D01*
X23100000Y57700000D02*
X24000000Y57700000D01*
X52012500Y72000000D02*
X51100000Y72000000D01*
X44800000Y56025000D02*
X44800000Y54800000D01*
D74*
X52962500Y94900000D02*
X51200000Y94900000D01*
D75*
X60800000Y109100000D02*
X59800000Y109100000D01*
D73*
X16919998Y21400000D02*
X17400000Y21400000D01*
X52025000Y70350000D02*
X51150000Y70350000D01*
D75*
X59900000Y109200000D02*
X59900000Y109900000D01*
X59800000Y109100000D02*
X59000000Y109100000D01*
D74*
X44250000Y102000000D02*
X50550000Y102000000D01*
D73*
X21512500Y85200000D02*
X21512500Y84312500D01*
X47900000Y52487500D02*
X47900000Y53400000D01*
X8812500Y38587500D02*
X8800000Y38600000D01*
X51150000Y70350000D02*
X51100000Y70400000D01*
X9800000Y38587500D02*
X8812500Y38587500D01*
D74*
X52962500Y94900000D02*
X54600000Y94900000D01*
D73*
X52012500Y58400000D02*
X51400000Y58400000D01*
X34300000Y52500000D02*
X35300000Y52500000D01*
X48475000Y58200000D02*
X49500000Y58200000D01*
X61200000Y77900000D02*
X60400000Y77900000D01*
D75*
X59800000Y109100000D02*
X59900000Y109200000D01*
D73*
X19612500Y62300000D02*
X18700000Y62300000D01*
X33125000Y57700000D02*
X31700000Y57700000D01*
X15600000Y21400000D02*
X15023208Y21400000D01*
X60449990Y92749990D02*
X60500000Y92800000D01*
X34800000Y71375000D02*
X34225000Y71375000D01*
X62100000Y77900000D02*
X60400000Y77900000D01*
X19625000Y64395000D02*
X19625000Y63525000D01*
X48475000Y69700000D02*
X49750000Y69700000D01*
X22025000Y82705000D02*
X22025000Y83475000D01*
X58700000Y93000000D02*
X58950010Y92749990D01*
D75*
X39300000Y56025000D02*
X39300000Y57080000D01*
D73*
X38088000Y18035000D02*
X37365000Y18035000D01*
X33250000Y97250000D02*
X33250000Y96550000D01*
X31135000Y21775000D02*
X31135000Y20135000D01*
D74*
X20500000Y113950000D02*
X20500000Y115100000D01*
D73*
X25900000Y93912500D02*
X26987500Y93912500D01*
X12910000Y40490000D02*
X12900000Y40500000D01*
X22025000Y78895000D02*
X20605000Y78895000D01*
D74*
X36500000Y113950000D02*
X36500000Y115100000D01*
D73*
X29900000Y82775000D02*
X29900000Y83800000D01*
X21000000Y96100000D02*
X21934401Y96100000D01*
X57950000Y91600000D02*
X56800000Y91600000D01*
X31700000Y95400000D02*
X31900000Y95200000D01*
D76*
X31199998Y98250000D02*
X30100000Y99349998D01*
D73*
X65849997Y53950000D02*
X65900000Y54000003D01*
X52100000Y39600000D02*
X52112500Y38900000D01*
X28112500Y93012500D02*
X28100000Y93000000D01*
D75*
X41100000Y29300000D02*
X41012500Y28600000D01*
X76100000Y13500000D02*
X76300000Y13550000D01*
D74*
X28500000Y113950000D02*
X28500000Y115100000D01*
D73*
X33250000Y96550000D02*
X33300000Y96500000D01*
X26987500Y93912500D02*
X27000000Y93900000D01*
D75*
X43800000Y57090000D02*
X44080000Y57370000D01*
D73*
X65000000Y53950000D02*
X65849997Y53950000D01*
X67887500Y91400000D02*
X69100000Y91400000D01*
X52800000Y27000000D02*
X53800000Y26000000D01*
D76*
X31200000Y98250000D02*
X31550000Y98250000D01*
D75*
X48750000Y81900000D02*
X47900000Y81900000D01*
D73*
X34600000Y49150000D02*
X34200000Y48521881D01*
X43512000Y16765000D02*
X42335000Y16765000D01*
X61624980Y109624980D02*
X61900000Y109900000D01*
X46400000Y50925000D02*
X46400000Y50000000D01*
X33125000Y58200000D02*
X32200000Y58200000D01*
D76*
X31250000Y98250000D02*
X32300000Y97200000D01*
D73*
X62912500Y57287500D02*
X62900000Y57300000D01*
X23200000Y45400000D02*
X24100000Y45400000D01*
X61587500Y16975000D02*
X61600000Y16987500D01*
X27525000Y16825000D02*
X27500000Y16800000D01*
X43512000Y22288000D02*
X43100000Y22700000D01*
D74*
X48037500Y94900000D02*
X48037500Y94837500D01*
D73*
X63000000Y77150000D02*
X63950000Y77150000D01*
D76*
X31200000Y98250000D02*
X31200000Y98200000D01*
D73*
X32200000Y58200000D02*
X31800000Y58600000D01*
X68587500Y111200000D02*
X68587500Y112187500D01*
D74*
X31475000Y103800000D02*
X33000000Y103800000D01*
D75*
X48750000Y81100000D02*
X47900000Y81100000D01*
D73*
X37365000Y18035000D02*
X36900000Y18500000D01*
D74*
X44700000Y113950000D02*
X44700000Y115100000D01*
D75*
X46200000Y75700000D02*
X47100000Y75700000D01*
D73*
X28112500Y94000000D02*
X28112500Y93012500D01*
X33700000Y76287500D02*
X33700000Y76900000D01*
X53575000Y70350000D02*
X54450000Y70350000D01*
X26975000Y80165000D02*
X28465000Y80165000D01*
X58000000Y30300000D02*
X57987500Y30300000D01*
X48475000Y57025000D02*
X48500000Y57000000D01*
X39387500Y37200000D02*
X39387500Y38187500D01*
X61624980Y108824980D02*
X61624980Y109624980D01*
X31200000Y95100000D02*
X30800000Y94700000D01*
X60800000Y108350000D02*
X61150000Y108350000D01*
D74*
X48037500Y94837500D02*
X46600000Y93400000D01*
D73*
X29865000Y20135000D02*
X29900000Y20100000D01*
X48475000Y57700000D02*
X48475000Y57025000D01*
X39600000Y47800000D02*
X39587500Y48500000D01*
X52800000Y27000000D02*
X53800000Y28000000D01*
D75*
X47112500Y27275000D02*
X47112500Y28387500D01*
X46200000Y77300000D02*
X47100000Y77300000D01*
D73*
X57500000Y36012500D02*
X57487500Y36000000D01*
X25112500Y49200000D02*
X24000000Y49200000D01*
X21934401Y96100000D02*
X22034411Y96200010D01*
X55895000Y15725000D02*
X55895000Y14205000D01*
D75*
X47112500Y28387500D02*
X47100000Y28400000D01*
D73*
X61150000Y108350000D02*
X61624980Y108824980D01*
X23087500Y85200000D02*
X23900000Y85200000D01*
X56975000Y22425000D02*
X56975000Y23200000D01*
X31135000Y20135000D02*
X31100000Y20100000D01*
X20605000Y78895000D02*
X20600000Y78900000D01*
X66800000Y52450000D02*
X67750000Y52450000D01*
X32200000Y95800000D02*
X32800000Y95200000D01*
X34300000Y50925000D02*
X34500000Y50400000D01*
X66312500Y81200000D02*
X64200000Y81200000D01*
D75*
X76300000Y13550000D02*
X75025000Y13550000D01*
D73*
X48475000Y69200000D02*
X50550000Y69200000D01*
X62050000Y78650000D02*
X62100000Y78700000D01*
X64100000Y46987500D02*
X63400000Y46300000D01*
X57500000Y36600000D02*
X57500000Y36012500D01*
X53587500Y58400000D02*
X54200000Y58400000D01*
X19625000Y68205000D02*
X19625000Y68975000D01*
X17400000Y20650000D02*
X17400000Y20100000D01*
X64200000Y81200000D02*
X63800000Y80800000D01*
D75*
X51500000Y36000000D02*
X52100000Y36012500D01*
D73*
X54450000Y70350000D02*
X54500000Y70400000D01*
X39387500Y38187500D02*
X39400000Y38200000D01*
D76*
X31200000Y98200000D02*
X30200000Y97200000D01*
D73*
X31200000Y96200000D02*
X31200000Y95100000D01*
X14565000Y17675000D02*
X14600000Y16500000D01*
D75*
X39300000Y57080000D02*
X39620000Y57400000D01*
D73*
X50040000Y19600000D02*
X50035000Y20775000D01*
D75*
X52100000Y36012500D02*
X52112500Y36000000D01*
D73*
X34200000Y48521881D02*
X34200000Y48500000D01*
X62512500Y68200000D02*
X62512500Y69012500D01*
X19625000Y68975000D02*
X19600000Y69000000D01*
X52800000Y27000000D02*
X51800000Y26000000D01*
X60184358Y93400000D02*
X60434358Y93650000D01*
X62512500Y69012500D02*
X62800000Y69300000D01*
X42335000Y16765000D02*
X42300000Y16800000D01*
D74*
X44250000Y104300000D02*
X46200000Y104300000D01*
D73*
X28287500Y100187500D02*
X28300000Y100200000D01*
X63900000Y57287500D02*
X62912500Y57287500D01*
X55895000Y14205000D02*
X55900000Y14200000D01*
X16100000Y22200000D02*
X16250000Y22150000D01*
X27100000Y100187500D02*
X28287500Y100187500D01*
X20275000Y12200000D02*
X20900000Y12200000D01*
D74*
X52700000Y113950000D02*
X52700000Y115100000D01*
D73*
X28465000Y80165000D02*
X28500000Y80200000D01*
X52800000Y27000000D02*
X51800000Y28000000D01*
X59450000Y93400000D02*
X60184358Y93400000D01*
X53587500Y72000000D02*
X54500000Y72000000D01*
X14426600Y40490000D02*
X12910000Y40490000D01*
X47900000Y50912500D02*
X47900000Y50000000D01*
X47495000Y15825000D02*
X47495000Y17265000D01*
X36300000Y50912500D02*
X36300000Y50400000D01*
X16174710Y59300000D02*
X16124500Y59350210D01*
X16442022Y55200000D02*
X16221011Y55421011D01*
X68600000Y105900000D02*
X69600000Y105900000D01*
D74*
X12300000Y113950000D02*
X12300000Y115100000D01*
D73*
X59000000Y109850000D02*
X59000000Y110500000D01*
X61200000Y78650000D02*
X62050000Y78650000D01*
X13300000Y87500000D02*
X12525000Y87400000D01*
X68587500Y112187500D02*
X68600000Y112200000D01*
X28595000Y16825000D02*
X27525000Y16825000D01*
X13295000Y12725000D02*
X12675000Y12725000D01*
X31700000Y96200000D02*
X31700000Y95400000D01*
X19012500Y50100000D02*
X17900000Y50100000D01*
X17062500Y55200000D02*
X16442022Y55200000D01*
X43512000Y21845000D02*
X43512000Y22288000D01*
X58400000Y19500000D02*
X58435000Y20675000D01*
X41800000Y47900000D02*
X41825000Y48500000D01*
X58600000Y30900000D02*
X58000000Y30300000D01*
D75*
X48750000Y83500000D02*
X47900000Y83500000D01*
D73*
X60812500Y33500000D02*
X60200000Y33500000D01*
X35300000Y72500000D02*
X35200000Y72600000D01*
X29865000Y21775000D02*
X29865000Y20135000D01*
D75*
X46200000Y76500000D02*
X47100000Y76500000D01*
D73*
X67887500Y95900000D02*
X69100000Y95900000D01*
X57000000Y22500000D02*
X56975000Y22425000D01*
X16250000Y22150000D02*
X15600000Y22150000D01*
D75*
X46200000Y74900000D02*
X47100000Y74900000D01*
D76*
X31200000Y98250000D02*
X31200002Y98250000D01*
X31200000Y98250000D02*
X31250000Y98250000D01*
D73*
X67750000Y52450000D02*
X67800000Y52400000D01*
X32200000Y96200000D02*
X32200000Y95800000D01*
X57165000Y20675000D02*
X57200000Y19500000D01*
X50550000Y69200000D02*
X50700000Y69350000D01*
X28012500Y57300000D02*
X27400000Y57900000D01*
X15800000Y16600000D02*
X15835000Y17675000D01*
D76*
X31200000Y98250000D02*
X31199998Y98250000D01*
X31200002Y98250000D02*
X32300000Y99349998D01*
D73*
X48765000Y20775000D02*
X48800000Y19600000D01*
X53575000Y68700000D02*
X54500000Y68700000D01*
D75*
X48750000Y82700000D02*
X47900000Y82700000D01*
X43800000Y56025000D02*
X43800000Y57090000D01*
D73*
X17062500Y59300000D02*
X16174710Y59300000D01*
X39412500Y11212500D02*
X39400000Y11200000D01*
X11475000Y24925000D02*
X11500000Y24900000D01*
X21187500Y62300000D02*
X22100000Y62300000D01*
X63950000Y77150000D02*
X64000000Y77100000D01*
X35300000Y71375000D02*
X35300000Y72500000D01*
X62300000Y19612500D02*
X62300000Y18700000D01*
D76*
X4700000Y7500000D02*
X2000000Y10200000D01*
X2000000Y17900000D02*
X3280000Y19180000D01*
D77*
X20587500Y50100000D02*
X20587500Y48124100D01*
D73*
X37812500Y4512500D02*
X37800000Y4500000D01*
D74*
X46099990Y94824990D02*
X46099990Y97100010D01*
D76*
X2000000Y10200000D02*
X2000000Y17900000D01*
D77*
X4700000Y7000000D02*
X4700000Y7500000D01*
D73*
X31600000Y81900000D02*
X31600000Y84400000D01*
D74*
X38975000Y92925000D02*
X38400000Y93500000D01*
D73*
X30925000Y81225000D02*
X31600000Y81900000D01*
D77*
X62600000Y98900000D02*
X63500000Y98900000D01*
D73*
X37800000Y12979500D02*
X37800000Y11600000D01*
D77*
X20400000Y51400000D02*
X7100000Y51400000D01*
X56700000Y106800000D02*
X56700000Y113900000D01*
D74*
X46099990Y97100010D02*
X44250000Y98950000D01*
D77*
X20587500Y48124100D02*
X20573400Y48110000D01*
D73*
X38088000Y11575500D02*
X37812500Y11300000D01*
D76*
X3500000Y19180000D02*
X6040000Y19180000D01*
D77*
X20587500Y51212500D02*
X20400000Y51400000D01*
X20587500Y50100000D02*
X20587500Y51212500D01*
D73*
X37800000Y4500000D02*
X37600000Y4500000D01*
X33287500Y94000000D02*
X37900000Y94000000D01*
D77*
X56700000Y98900000D02*
X62600000Y98900000D01*
D73*
X37900000Y94000000D02*
X38400000Y93500000D01*
D77*
X56700000Y106800000D02*
X56700000Y106100000D01*
D76*
X3280000Y19180000D02*
X3500000Y19180000D01*
D77*
X20587500Y50100000D02*
X20587500Y50199981D01*
X45100000Y6900000D02*
X45100000Y7500000D01*
X56700000Y106100000D02*
X56700000Y98900000D01*
D78*
X38400000Y93500000D02*
X38100000Y93200000D01*
D77*
X64500000Y97900000D02*
X67700000Y97900000D01*
X63500000Y98900000D02*
X64500000Y97900000D01*
D73*
X29690000Y81435000D02*
X29900000Y81225000D01*
D74*
X44200000Y92925000D02*
X46099990Y94824990D01*
D73*
X26975000Y81435000D02*
X29690000Y81435000D01*
X37812500Y11300000D02*
X37812500Y4512500D01*
X29900000Y81225000D02*
X30925000Y81225000D01*
D74*
X44250000Y98950000D02*
X44250000Y99700000D01*
D75*
X43680888Y28600000D02*
X44299990Y27980898D01*
X52575978Y54824022D02*
X53700000Y53700000D01*
X45450000Y25750000D02*
X50862500Y25750000D01*
X53700000Y53700000D02*
X53700000Y50800000D01*
X44300000Y27980888D02*
X44299990Y27980898D01*
X47999990Y45099990D02*
X44731386Y45099990D01*
X44731386Y45099990D02*
X40700000Y41068604D01*
X40700000Y41068604D02*
X40700000Y35500000D01*
X46300000Y55129987D02*
X46605965Y54824022D01*
X44300000Y26900000D02*
X45450000Y25750000D01*
X53700000Y50800000D02*
X47999990Y45099990D01*
X42587500Y29746801D02*
X40700000Y31634301D01*
X42587500Y28600000D02*
X42587500Y29746801D01*
X44300000Y26900000D02*
X44300000Y27980888D01*
X40700000Y35500000D02*
X40700000Y31634301D01*
X46605965Y54824022D02*
X52575978Y54824022D01*
X46300000Y56025000D02*
X46300000Y55129987D01*
X50300000Y36500000D02*
X50300000Y35500000D01*
X42587500Y28600000D02*
X43680888Y28600000D01*
D73*
X19900000Y56162500D02*
X20637500Y56900000D01*
X18937500Y55200000D02*
X19900000Y56162500D01*
X20637500Y56900000D02*
X21300000Y56900000D01*
X23100000Y56900000D02*
X23100000Y56100000D01*
X33250000Y99250000D02*
X33250000Y101450000D01*
X34300000Y102500000D02*
X35512500Y102500000D01*
X33250000Y101450000D02*
X34300000Y102500000D01*
D75*
X42300000Y56025000D02*
X42300000Y55194654D01*
X45334302Y25300000D02*
X43700000Y26934302D01*
X42300000Y55194654D02*
X44300000Y53194654D01*
X51550000Y25062500D02*
X51312500Y25300000D01*
X46200000Y25300000D02*
X45334302Y25300000D01*
X44300000Y45800000D02*
X38050000Y39550000D01*
X37500000Y29600000D02*
X39407114Y27692886D01*
X37812500Y37200000D02*
X37500000Y36887500D01*
X44300000Y53194654D02*
X44300000Y45800000D01*
X43700000Y26934302D02*
X43700000Y27692886D01*
X51312500Y25300000D02*
X46200000Y25300000D01*
X37500000Y36887500D02*
X37500000Y29600000D01*
X37812500Y37200000D02*
X37812500Y39312500D01*
X37812500Y39312500D02*
X38050000Y39550000D01*
D73*
X48475000Y68700000D02*
X52025000Y68700000D01*
D75*
X35800000Y71375000D02*
X35800000Y72936987D01*
X35624988Y73111999D02*
X35624988Y74975012D01*
X35800000Y72936987D02*
X35624988Y73111999D01*
X35624988Y74975012D02*
X35500000Y75100000D01*
D73*
X40300000Y54100000D02*
X40300000Y53050000D01*
X40300000Y53050000D02*
X38550000Y51300000D01*
X38012500Y48500000D02*
X38012500Y50762500D01*
X38012500Y50762500D02*
X38550000Y51300000D01*
X40300000Y56025000D02*
X40300000Y54100000D01*
D75*
X34000000Y45400000D02*
X35775000Y47175000D01*
X36600000Y48500000D02*
X35775000Y48500000D01*
X26600000Y45400000D02*
X34000000Y45400000D01*
X41300000Y53900000D02*
X41700000Y53500000D01*
X41300000Y56025000D02*
X41300000Y53900000D01*
X41300000Y56025000D02*
X41300000Y57320000D01*
X30200000Y100300000D02*
X29500000Y100300000D01*
X41300000Y57320000D02*
X41140000Y57480000D01*
X35775000Y47175000D02*
X35775000Y48500000D01*
X12400000Y16600000D02*
X13500000Y15500000D01*
X25999999Y38099999D02*
X25999999Y27799999D01*
X21000000Y22800000D02*
X15100000Y22800000D01*
X14500000Y22200000D02*
X14500000Y21764809D01*
X11000000Y16600000D02*
X12400000Y16600000D01*
X15200000Y19200000D02*
X15600000Y19600000D01*
X14414494Y21679303D02*
X14414494Y20797504D01*
X15200000Y15911998D02*
X15200000Y19200000D01*
X15600000Y19600000D02*
X15600000Y20650000D01*
X26000000Y38100000D02*
X25999999Y38099999D01*
X13500000Y15500000D02*
X14788002Y15500000D01*
X25999999Y27799999D02*
X21000000Y22800000D01*
X33125000Y63200000D02*
X35300000Y63200000D01*
X35300000Y63200000D02*
X35400000Y63100000D01*
X14500000Y21764809D02*
X14414494Y21679303D01*
X14788002Y15500000D02*
X15200000Y15911998D01*
X14414494Y20797504D02*
X14561998Y20650000D01*
X14561998Y20650000D02*
X15600000Y20650000D01*
X15100000Y22800000D02*
X14500000Y22200000D01*
X12770210Y41129790D02*
X16629790Y41129790D01*
X16629790Y41129790D02*
X18530000Y43030000D01*
X11500000Y41700000D02*
X12200000Y41700000D01*
X12200000Y41700000D02*
X12770210Y41129790D01*
X18530000Y43030000D02*
X20573400Y43030000D01*
D73*
X40800000Y53900000D02*
X40800000Y53350000D01*
X40800000Y56025000D02*
X40800000Y53900000D01*
X43400000Y48500000D02*
X43400000Y50750000D01*
X43400000Y50750000D02*
X42850000Y51300000D01*
X40800000Y53350000D02*
X42850000Y51300000D01*
X18937500Y59300000D02*
X22300000Y59300000D01*
X22300000Y59300000D02*
X23100000Y58500000D01*
X66800000Y55212500D02*
X66312500Y55700000D01*
X66800000Y53950000D02*
X66800000Y55212500D01*
X66700000Y43900000D02*
X65996439Y44603561D01*
X65400000Y46392878D02*
X65400000Y52050000D01*
D75*
X65000000Y52450000D02*
X62350000Y52450000D01*
D73*
X65400000Y52050000D02*
X65000000Y52450000D01*
D75*
X59900000Y54900000D02*
X62350000Y52450000D01*
X59900000Y63100000D02*
X59900000Y54900000D01*
D73*
X66700000Y43800000D02*
X66700000Y43900000D01*
X65996439Y44603561D02*
X65996439Y45796439D01*
D75*
X48475000Y63200000D02*
X56000000Y63200000D01*
D73*
X65996439Y45796439D02*
X65400000Y46392878D01*
D75*
X59800000Y76300000D02*
X60400000Y75700000D01*
X48475000Y65700000D02*
X55100000Y65700000D01*
X60400000Y75700000D02*
X60400000Y66048530D01*
X55100000Y65700000D02*
X56000000Y64800000D01*
X59800000Y78700000D02*
X59800000Y76300000D01*
X61100000Y80000000D02*
X59800000Y78700000D01*
X63000000Y79300000D02*
X62300000Y80000000D01*
D73*
X63000000Y78650000D02*
X66262500Y78650000D01*
D75*
X60400000Y66048530D02*
X59875735Y65524265D01*
D73*
X66262500Y78650000D02*
X66312500Y78600000D01*
D75*
X62300000Y80000000D02*
X61100000Y80000000D01*
X63000000Y78650000D02*
X63000000Y79300000D01*
D73*
X62800000Y75550000D02*
X62800000Y70300000D01*
D75*
X61600000Y66400000D02*
X59900000Y64700000D01*
D73*
X62512500Y66787500D02*
X62512500Y65700000D01*
X61200000Y77150000D02*
X62800000Y75550000D01*
D75*
X48475000Y64700000D02*
X49900000Y64700000D01*
D73*
X61600000Y67700000D02*
X62512500Y66787500D01*
X61600000Y69100000D02*
X61600000Y67700000D01*
D75*
X61600000Y67700000D02*
X61600000Y66400000D01*
X50600000Y64000000D02*
X56000000Y64000000D01*
D73*
X62800000Y70300000D02*
X61600000Y69100000D01*
D75*
X49900000Y64700000D02*
X50600000Y64000000D01*
X35140000Y68230000D02*
X34645000Y68725000D01*
X16435010Y15635010D02*
X16435010Y18264990D01*
X17690002Y22150000D02*
X17400000Y22150000D01*
X33125000Y69200000D02*
X34030000Y69200000D01*
X33125000Y69200000D02*
X34170000Y69200000D01*
X26599999Y27799999D02*
X26599999Y37499999D01*
X18300000Y20000000D02*
X18300000Y21540002D01*
X15800000Y15000000D02*
X16435010Y15635010D01*
X11000000Y15800000D02*
X11900000Y15800000D01*
X18300000Y21540002D02*
X17690002Y22150000D01*
X17400000Y22150000D02*
X20950000Y22150000D01*
X16435010Y18735010D02*
X16800000Y19100000D01*
X18300000Y19700000D02*
X18300000Y20000000D01*
X11900000Y15800000D02*
X12700000Y15000000D01*
X26599999Y37499999D02*
X26600000Y37500000D01*
X34645000Y68725000D02*
X34170000Y69200000D01*
X37787851Y64860000D02*
X35650000Y64860000D01*
X16435010Y18264990D02*
X16435010Y18735010D01*
X20950000Y22150000D02*
X26599999Y27799999D01*
X35650000Y64860000D02*
X35140000Y65370000D01*
X17700000Y19100000D02*
X18300000Y19700000D01*
X16800000Y19100000D02*
X17700000Y19100000D01*
X12700000Y15000000D02*
X15800000Y15000000D01*
X35140000Y65370000D02*
X35140000Y68230000D01*
X14850489Y96649511D02*
X13500000Y98000000D01*
X18487499Y95875000D02*
X17424022Y95875000D01*
X18762499Y95600000D02*
X18487499Y95875000D01*
X16649511Y96649511D02*
X14850489Y96649511D01*
X17424022Y95875000D02*
X16649511Y96649511D01*
X19400000Y95600000D02*
X18762499Y95600000D01*
D74*
X28525000Y102475000D02*
X29600000Y101400000D01*
D73*
X32200000Y100300000D02*
X32200000Y101150000D01*
X31700000Y100300000D02*
X31700000Y101150000D01*
D74*
X9750000Y107450000D02*
X12300000Y107450000D01*
X52700000Y107450000D02*
X54850000Y107450000D01*
D73*
X30700000Y100300000D02*
X30700000Y101150000D01*
D74*
X54850000Y109050000D02*
X54900000Y109000000D01*
X28500000Y103825000D02*
X28525000Y103800000D01*
X28500000Y107450000D02*
X36500000Y107450000D01*
X54850000Y109050000D02*
X54900000Y109000000D01*
X29650000Y101350000D02*
X31850000Y101350000D01*
X36500000Y107450000D02*
X44700000Y107450000D01*
D73*
X31200000Y100300000D02*
X31200000Y101150000D01*
D74*
X54850000Y107450000D02*
X54900000Y107400000D01*
X54850000Y109050000D02*
X54900000Y109000000D01*
X44700000Y107450000D02*
X52700000Y107450000D01*
X12300000Y107450000D02*
X20500000Y107450000D01*
X20500000Y107450000D02*
X28500000Y107450000D01*
X28500000Y107450000D02*
X28500000Y103825000D01*
X28525000Y103800000D02*
X28525000Y102475000D01*
X29600000Y101400000D02*
X29650000Y101350000D01*
X3700000Y113500000D02*
X9750000Y107450000D01*
D75*
X36824999Y74447153D02*
X36824999Y79456801D01*
X32706800Y89475000D02*
X27506800Y89475000D01*
X36800000Y71375000D02*
X36824999Y71399999D01*
X35406800Y79775000D02*
X33275000Y81906800D01*
X36824999Y71399999D02*
X36824999Y79456801D01*
X36506800Y79775000D02*
X35406800Y79775000D01*
X36824999Y79456801D02*
X36506800Y79775000D01*
X22981800Y95600000D02*
X21000000Y95600000D01*
X33275000Y81906800D02*
X33275000Y88906800D01*
X27506800Y89475000D02*
X23875000Y93106800D01*
X33275000Y88906800D02*
X32706800Y89475000D01*
X23875000Y94706800D02*
X22981800Y95600000D01*
X23875000Y93106800D02*
X23875000Y94706800D01*
D73*
X22200000Y92100000D02*
X22200000Y89962500D01*
X21800000Y92500000D02*
X22200000Y92100000D01*
X21100000Y92500000D02*
X21800000Y92500000D01*
X22200000Y89962500D02*
X21337500Y89100000D01*
X62012500Y95900000D02*
X59100000Y95900000D01*
X59100000Y95900000D02*
X57950000Y94750000D01*
D75*
X48475000Y59200000D02*
X49600000Y59200000D01*
D73*
X57950000Y94750000D02*
X57950000Y93400000D01*
D75*
X57100000Y93400000D02*
X57950000Y93400000D01*
X49600000Y59200000D02*
X49900000Y59500000D01*
X59450000Y91600000D02*
X59450000Y91150000D01*
D73*
X59450000Y91600000D02*
X61812500Y91600000D01*
X61812500Y91600000D02*
X62012500Y91400000D01*
D75*
X59450000Y91150000D02*
X59000000Y90700000D01*
X59000000Y90700000D02*
X56775021Y90700000D01*
X48475000Y58700000D02*
X50200000Y58700000D01*
X60800000Y109850000D02*
X59500000Y111150000D01*
D73*
X62150000Y111200000D02*
X60800000Y109850000D01*
D75*
X59500000Y111150000D02*
X59500000Y112600000D01*
X50100000Y62200000D02*
X48475000Y62200000D01*
D73*
X62912500Y111200000D02*
X62150000Y111200000D01*
D75*
X50300000Y62400000D02*
X50100000Y62200000D01*
X48475000Y61700000D02*
X50700000Y61700000D01*
D73*
X62124990Y109124990D02*
X62500000Y109500000D01*
X66012500Y109500000D02*
X62500000Y109500000D01*
X62124990Y107924990D02*
X62124990Y108424990D01*
D75*
X50700000Y61700000D02*
X51100000Y62100000D01*
D73*
X61200000Y107500000D02*
X59850000Y107500000D01*
X67012500Y108500000D02*
X66012500Y109500000D01*
D75*
X59800000Y104900000D02*
X59850000Y107500000D01*
D73*
X59850000Y107500000D02*
X59000000Y108350000D01*
X61200000Y107500000D02*
X61700000Y107500000D01*
X62124990Y108424990D02*
X62124990Y109124990D01*
X61700000Y107500000D02*
X62124990Y107924990D01*
D75*
X43512000Y12955000D02*
X42045000Y12955000D01*
X33865019Y39932041D02*
X32797060Y41000000D01*
X42045000Y12955000D02*
X41200000Y13800000D01*
X41200000Y13800000D02*
X41200000Y16170000D01*
X40600000Y67400000D02*
X39800000Y68200000D01*
X33865019Y39932041D02*
X34000010Y39797050D01*
X16900000Y42400000D02*
X16900000Y47200000D01*
X32797060Y41000000D02*
X25448530Y41000000D01*
X24100000Y41000000D02*
X23599997Y41500003D01*
X15990000Y48110000D02*
X14426600Y48110000D01*
X25448530Y41000000D02*
X24100000Y41000000D01*
X16900000Y47200000D02*
X15990000Y48110000D01*
X23599997Y41500003D02*
X23000000Y41500003D01*
X41200000Y22665698D02*
X41200000Y16170000D01*
X34000010Y39797050D02*
X34000010Y29865688D01*
X41700000Y67400000D02*
X40600000Y67400000D01*
X34000010Y29865688D02*
X41200000Y22665698D01*
X41700000Y67400000D02*
X42640000Y67400000D01*
X39800000Y68200000D02*
X39800000Y71375000D01*
X27693200Y89925000D02*
X24325000Y93293200D01*
X21546384Y96600000D02*
X21800000Y96853616D01*
X35593200Y80225000D02*
X33725000Y82093200D01*
X36693200Y80225000D02*
X35593200Y80225000D01*
X21000000Y96600000D02*
X21546384Y96600000D01*
X21800000Y96853616D02*
X21800000Y96900000D01*
X22418189Y96800011D02*
X22509100Y96709100D01*
X37275001Y79643199D02*
X36693200Y80225000D01*
X21800000Y96900000D02*
X22318200Y96900000D01*
X22318200Y96900000D02*
X22509100Y96709100D01*
X32893200Y89925000D02*
X27693200Y89925000D01*
X24325000Y94893200D02*
X22509100Y96709100D01*
X24325000Y93293200D02*
X24325000Y94893200D01*
X33725000Y89093200D02*
X32893200Y89925000D01*
X37300000Y71375000D02*
X37275001Y71399999D01*
X33725000Y82093200D02*
X33725000Y89093200D01*
X37275001Y79643199D02*
X37209100Y79709100D01*
X37275001Y71399999D02*
X37275001Y79643199D01*
D73*
X66500000Y83812500D02*
X66312500Y84000000D01*
X66500000Y82300000D02*
X66500000Y83812500D01*
D75*
X42340000Y64200000D02*
X40900000Y64200000D01*
X42340000Y64200000D02*
X43240000Y64200000D01*
X34664965Y39922604D02*
X34400020Y39657659D01*
X34664965Y39922604D02*
X34664965Y40346868D01*
X41600010Y22400000D02*
X41600010Y21279990D01*
X23365692Y42300006D02*
X23000000Y42300006D01*
X16300000Y45000000D02*
X15730000Y45570000D01*
X41600010Y22831387D02*
X41600010Y22400000D01*
X34400020Y30031376D02*
X41600010Y22831387D01*
X15730000Y45570000D02*
X14426600Y45570000D01*
X16300000Y43500000D02*
X16300000Y45000000D01*
X40900000Y64200000D02*
X33125000Y64200000D01*
X34400020Y39657659D02*
X34400020Y30031376D01*
X34664965Y40346868D02*
X33611833Y41400000D01*
X25897060Y41400000D02*
X24265698Y41400000D01*
X41600010Y21279990D02*
X42305000Y20575000D01*
X24265698Y41400000D02*
X23365692Y42300006D01*
X42305000Y20575000D02*
X43512000Y20575000D01*
X33611833Y41400000D02*
X25897060Y41400000D01*
X19190000Y40490000D02*
X18300000Y39600000D01*
X12800000Y39600000D02*
X18200000Y39600000D01*
X18300000Y39600000D02*
X18200000Y39600000D01*
X11500000Y40900000D02*
X12800000Y39600000D01*
X20573400Y40490000D02*
X19190000Y40490000D01*
D73*
X12300000Y44500000D02*
X12300000Y45300000D01*
X12300000Y45300000D02*
X11800000Y45800000D01*
X11800000Y45800000D02*
X11500000Y45800000D01*
X12900000Y43900000D02*
X12300000Y44500000D01*
X14426600Y41760000D02*
X13440000Y41760000D01*
X12900000Y42300000D02*
X12900000Y43900000D01*
X13440000Y41760000D02*
X12900000Y42300000D01*
X12900000Y44700000D02*
X13300000Y44300000D01*
X13300000Y44300000D02*
X14426600Y44300000D01*
X12900000Y45900000D02*
X12900000Y44700000D01*
X11500000Y46600000D02*
X12200000Y46600000D01*
X12200000Y46600000D02*
X12900000Y45900000D01*
D75*
X20543400Y45600000D02*
X20573400Y45570000D01*
X11500000Y42500000D02*
X12250000Y42500000D01*
X18800000Y45600000D02*
X20543400Y45600000D01*
X23049857Y39900000D02*
X23049011Y39900846D01*
X38088000Y21845000D02*
X38088000Y24612000D01*
X38800000Y63700000D02*
X41060000Y63700000D01*
X19560000Y41760000D02*
X20573400Y41760000D01*
X41060000Y63700000D02*
X41300000Y63700000D01*
X32200000Y39900000D02*
X23049857Y39900000D01*
X33125000Y63700000D02*
X38800000Y63700000D01*
X41300000Y63700000D02*
X41400000Y63600000D01*
X33200000Y29500000D02*
X33200000Y38900000D01*
X38088000Y24612000D02*
X33200000Y29500000D01*
X18900000Y41100000D02*
X19560000Y41760000D01*
X33200000Y38900000D02*
X32200000Y39900000D01*
D73*
X11500000Y47400000D02*
X12400000Y47400000D01*
X12400000Y47400000D02*
X12960000Y46840000D01*
X12960000Y46840000D02*
X14426600Y46840000D01*
X44675000Y14225000D02*
X43512000Y14225000D01*
X45200000Y13700000D02*
X44675000Y14225000D01*
X45200000Y12900000D02*
X45200000Y13700000D01*
X43512000Y15495000D02*
X44405000Y15495000D01*
X44405000Y15495000D02*
X45000000Y14900000D01*
X45800000Y18000000D02*
X43547000Y18000000D01*
X43547000Y18000000D02*
X43512000Y18035000D01*
D75*
X42040000Y68140000D02*
X42415698Y68140000D01*
X45800000Y70470000D02*
X45800000Y71375000D01*
X40800000Y15800000D02*
X40800000Y22500000D01*
X25099999Y40500001D02*
X23199999Y40500001D01*
X16200000Y42600000D02*
X15770000Y43030000D01*
X33600000Y39348530D02*
X33024265Y39924265D01*
X33600000Y29700000D02*
X33600000Y38900000D01*
X33600000Y38900000D02*
X33600000Y39348530D01*
X43915688Y69639990D02*
X44969990Y69639990D01*
X39225000Y14225000D02*
X40800000Y15800000D01*
X38088000Y14225000D02*
X39225000Y14225000D01*
X33024265Y39924265D02*
X32448529Y40500001D01*
X32448529Y40500001D02*
X25099999Y40500001D01*
X40800000Y22500000D02*
X33600000Y29700000D01*
X42415698Y68140000D02*
X43915688Y69639990D01*
X15770000Y43030000D02*
X14426600Y43030000D01*
X23199999Y40500001D02*
X23000000Y40700000D01*
X16200000Y41900000D02*
X16200000Y42600000D01*
X44969990Y69639990D02*
X45800000Y70470000D01*
D73*
X20175010Y94224990D02*
X21100000Y93300000D01*
X20175010Y95924990D02*
X20175010Y94224990D01*
X19400000Y96100000D02*
X20000000Y96100000D01*
X16775010Y94224990D02*
X20175010Y94224990D01*
X15500000Y95500000D02*
X16775010Y94224990D01*
X20000000Y96100000D02*
X20175010Y95924990D01*
X16100000Y96100000D02*
X15500000Y95500000D01*
X45000000Y19300000D02*
X43517000Y19300000D01*
X43517000Y19300000D02*
X43512000Y19305000D01*
D75*
X16835903Y97099502D02*
X15500000Y97099502D01*
X18762499Y96600000D02*
X18487499Y96325000D01*
X18487499Y96325000D02*
X17610405Y96325000D01*
X17610405Y96325000D02*
X16835903Y97099502D01*
X15500000Y98000000D02*
X15500000Y97934300D01*
X19400000Y96600000D02*
X18762499Y96600000D01*
X15500000Y97099502D02*
X15500000Y98000000D01*
D73*
X36200000Y20500000D02*
X38013000Y20500000D01*
X38013000Y20500000D02*
X38088000Y20575000D01*
D75*
X28375000Y59925000D02*
X28600000Y59700000D01*
X27675000Y59925000D02*
X28375000Y59925000D01*
X20573400Y44300000D02*
X19000000Y44300000D01*
X28600000Y59700000D02*
X33125000Y59700000D01*
D73*
X38088000Y19305000D02*
X36856563Y19305000D01*
X36856563Y19305000D02*
X36850000Y19298437D01*
D75*
X20573400Y46840000D02*
X19160000Y46840000D01*
X19160000Y46840000D02*
X19100000Y46900000D01*
X40480000Y68740000D02*
X42450000Y68740000D01*
X42450000Y68740000D02*
X43750000Y70040000D01*
X44800000Y71375000D02*
X44800000Y70500000D01*
X43750000Y70040000D02*
X44340000Y70040000D01*
X44340000Y70040000D02*
X44800000Y70500000D01*
D73*
X36100000Y16800000D02*
X38053000Y16800000D01*
X38053000Y16800000D02*
X38088000Y16765000D01*
X35800000Y15200000D02*
X36095000Y15495000D01*
X38088000Y15495000D02*
X36095000Y15495000D01*
X34500000Y15200000D02*
X35800000Y15200000D01*
D75*
X50862500Y28250000D02*
X50862500Y29837500D01*
X57000019Y59231377D02*
X57000017Y52337225D01*
X57000017Y52337225D02*
X48981396Y44318604D01*
X48475000Y61200000D02*
X55031397Y61200000D01*
X50400000Y30300000D02*
X43900000Y30300000D01*
X43800000Y30300000D02*
X42100000Y32000000D01*
X42100000Y40771510D02*
X42214245Y40885755D01*
X43900000Y30300000D02*
X43800000Y30300000D01*
X55031397Y61200000D02*
X57000019Y59231377D01*
X42100000Y32000000D02*
X42100000Y40771510D01*
X48981396Y44318604D02*
X48562754Y43899960D01*
X45228450Y43899960D02*
X42214245Y40885755D01*
X50862500Y29837500D02*
X50400000Y30300000D01*
X48562754Y43899960D02*
X45228450Y43899960D01*
X54965698Y60700000D02*
X56600010Y59065689D01*
X50000000Y28100000D02*
X50000000Y29100000D01*
X48475000Y60700000D02*
X54965698Y60700000D01*
X41700000Y31800000D02*
X41700000Y40937208D01*
X41700000Y40937208D02*
X41831396Y41068604D01*
X45062762Y44299970D02*
X41831396Y41068604D01*
X50000000Y29100000D02*
X49200000Y29900000D01*
X49200000Y29900000D02*
X43900000Y29900000D01*
X50350000Y27750000D02*
X50000000Y28100000D01*
X56600010Y59065689D02*
X56600009Y52502915D01*
X48798547Y44701453D02*
X48397065Y44299970D01*
X50862500Y27750000D02*
X50350000Y27750000D01*
X43900000Y29900000D02*
X43600000Y29900000D01*
X56600009Y52502915D02*
X48798547Y44701453D01*
X43600000Y29900000D02*
X41700000Y31800000D01*
X48397065Y44299970D02*
X45062762Y44299970D01*
X48365698Y44834302D02*
X48231376Y44699980D01*
X41998547Y41801453D02*
X41300000Y41102906D01*
X44897074Y44699980D02*
X41998547Y41801453D01*
X48231376Y44699980D02*
X44897074Y44699980D01*
X56200000Y52668604D02*
X48365698Y44834302D01*
X54900000Y60200000D02*
X56200000Y58900000D01*
X41300000Y31600000D02*
X44700000Y28200000D01*
X50862500Y26250000D02*
X45550000Y26250000D01*
X41300000Y41102906D02*
X41300000Y31600000D01*
X48475000Y60200000D02*
X54900000Y60200000D01*
X56200000Y58900000D02*
X56200000Y52668604D01*
X44700000Y28200000D02*
X44700000Y27100000D01*
X44700000Y27100000D02*
X45550000Y26250000D01*
X50100000Y68200000D02*
X51200000Y67100000D01*
X50250030Y23549970D02*
X49300020Y24499980D01*
X48964245Y43735752D02*
X48728443Y43499950D01*
X55100000Y67100000D02*
X57400028Y64799972D01*
X51200000Y67100000D02*
X55100000Y67100000D01*
X53050000Y24505936D02*
X52094034Y23549970D01*
X48964245Y43735755D02*
X48964245Y43735752D01*
X53050000Y25062500D02*
X53050000Y24505936D01*
X57400028Y52171538D02*
X48964245Y43735755D01*
X48728443Y43499950D02*
X45399950Y43499950D01*
X49300020Y24499980D02*
X44651490Y24499980D01*
X57400028Y64799972D02*
X57400028Y52171538D01*
X44651490Y24499980D02*
X44375735Y24775735D01*
X42500010Y32474255D02*
X42500010Y40600010D01*
X42500010Y40600010D02*
X45399950Y43499950D01*
X44074265Y30900000D02*
X42500010Y32474255D01*
X48475000Y68200000D02*
X50100000Y68200000D01*
X52094034Y23549970D02*
X50250030Y23549970D01*
X56200000Y73350000D02*
X56650000Y72900000D01*
X46800000Y71375000D02*
X46800000Y72200000D01*
X45565638Y43099940D02*
X42900020Y40434322D01*
X53550000Y24440238D02*
X52259723Y23149960D01*
X57800038Y71749962D02*
X57800038Y52000038D01*
X53550000Y25062500D02*
X53550000Y24440238D01*
X50050040Y23149960D02*
X49300020Y23899980D01*
X46800000Y72200000D02*
X47950000Y73350000D01*
X52259723Y23149960D02*
X50050040Y23149960D01*
X48899940Y43099940D02*
X45565638Y43099940D01*
X49300020Y23899980D02*
X45000000Y23899980D01*
X56200000Y73350000D02*
X57800038Y71749962D01*
X47950000Y73350000D02*
X56200000Y73350000D01*
X42900020Y40434322D02*
X42900020Y32922774D01*
X57800038Y52000038D02*
X48899940Y43099940D01*
X42900020Y32922774D02*
X44113494Y31709300D01*
X58200047Y51834349D02*
X58200048Y71949952D01*
X56375000Y73775000D02*
X47775000Y73775000D01*
X47775000Y73775000D02*
X47575000Y73575000D01*
X49482849Y43117151D02*
X58200047Y51834349D01*
X47775000Y73775000D02*
X46300000Y72300000D01*
X49065629Y42699930D02*
X49482849Y43117151D01*
X43300030Y40268634D02*
X45731326Y42699930D01*
X49300020Y23299980D02*
X45700000Y23299980D01*
X46300000Y72300000D02*
X46300000Y71375000D01*
X49850050Y22749950D02*
X49300020Y23299980D01*
X44085662Y32585662D02*
X43300030Y33371294D01*
X54050000Y25062500D02*
X54050000Y24374539D01*
X43300030Y33371294D02*
X43300030Y40268634D01*
X54050000Y24374539D02*
X52425412Y22749950D01*
X45731326Y42699930D02*
X49065629Y42699930D01*
X58200048Y71949952D02*
X56375000Y73775000D01*
X52425412Y22749950D02*
X49850050Y22749950D01*
X9200000Y17400000D02*
X8100000Y17400000D01*
X8148530Y18200000D02*
X8124265Y18224265D01*
X9200000Y18200000D02*
X8148530Y18200000D01*
D74*
X14600000Y113950000D02*
X14600000Y116600000D01*
X17000000Y119000000D02*
X17000000Y119900000D01*
X14600000Y116600000D02*
X17000000Y119000000D01*
X47000000Y113950000D02*
X47000000Y115700000D01*
X47000000Y115700000D02*
X47000000Y115900000D01*
X47000000Y115900000D02*
X48100000Y117000000D01*
X48100000Y117000000D02*
X50500000Y117000000D01*
X50500000Y117000000D02*
X53400000Y119900000D01*
X58300000Y116700000D02*
X60400000Y118800000D01*
X56100000Y116700000D02*
X58300000Y116700000D01*
X60400000Y118800000D02*
X60400000Y119900000D01*
X55000000Y113950000D02*
X55000000Y115600000D01*
X55000000Y115600000D02*
X56100000Y116700000D01*
D73*
X37700000Y84400000D02*
X37700000Y86300000D01*
X37700000Y86300000D02*
X36000000Y88000000D01*
X38500000Y87960000D02*
X38540000Y88000000D01*
X38500000Y84400000D02*
X38500000Y87960000D01*
D74*
X22800000Y118700000D02*
X24000000Y119900000D01*
X22800000Y113950000D02*
X22800000Y118700000D01*
X30800000Y113950000D02*
X30800000Y119700000D01*
X30800000Y119700000D02*
X31000000Y119900000D01*
D73*
X66700000Y44900000D02*
X66712500Y45787500D01*
X66712500Y45787500D02*
X66712500Y47000000D01*
X64787500Y45412500D02*
X65300000Y44900000D01*
X64100000Y45412500D02*
X64787500Y45412500D01*
X65700000Y58100000D02*
X65300000Y58500000D01*
X66312500Y58100000D02*
X65700000Y58100000D01*
X63900000Y55712500D02*
X65187500Y55712500D01*
X65187500Y55712500D02*
X65200000Y55700000D01*
X66800000Y66187500D02*
X66312500Y65700000D01*
X66800000Y67000000D02*
X66800000Y66187500D01*
X64300000Y68200000D02*
X64087500Y68200000D01*
X65500000Y67000000D02*
X64600000Y67900000D01*
X64600000Y67900000D02*
X64300000Y68200000D01*
X66387500Y79700000D02*
X67887500Y81200000D01*
X65200000Y79700000D02*
X66387500Y79700000D01*
X16600000Y66700000D02*
X16600000Y64587500D01*
X18300000Y79350000D02*
X18300000Y81312500D01*
D74*
X38800000Y113950000D02*
X38800000Y117900000D01*
X38800000Y117900000D02*
X40800000Y119900000D01*
X40800000Y119900000D02*
X46400000Y119900000D01*
D73*
X68675000Y44200000D02*
X71300000Y44200000D01*
X68275000Y43800000D02*
X68275000Y45075000D01*
X71300000Y44200000D02*
X73100000Y46000000D01*
X68275000Y45075000D02*
X68300000Y45100000D01*
X68275000Y43800000D02*
X68675000Y44200000D01*
X68287500Y49900000D02*
X72700000Y49900000D01*
X72700000Y49900000D02*
X73100000Y49500000D01*
X68287500Y47000000D02*
X68287500Y49900000D01*
X69100000Y55700000D02*
X72300000Y55700000D01*
X72300000Y55700000D02*
X73100000Y56500000D01*
X67887500Y55700000D02*
X69100000Y55700000D01*
X67887500Y60600000D02*
X72500000Y60600000D01*
X72500000Y60600000D02*
X73100000Y60000000D01*
X67887500Y58100000D02*
X67887500Y60600000D01*
D75*
X53687500Y34175000D02*
X53687500Y36000000D01*
X52050000Y28937500D02*
X52050000Y32537500D01*
X52662500Y33150000D02*
X53687500Y34175000D01*
X52050000Y32537500D02*
X52662500Y33150000D01*
X56962500Y33150000D02*
X55912500Y34200000D01*
X55912500Y34200000D02*
X55912500Y36000000D01*
X52550000Y28937500D02*
X52550000Y30750000D01*
X55012500Y31200000D02*
X56962500Y33150000D01*
X53000000Y31200000D02*
X55012500Y31200000D01*
X52550000Y30750000D02*
X53000000Y31200000D01*
X41800000Y57850000D02*
X41800000Y56025000D01*
X37914579Y54000000D02*
X37639558Y53724979D01*
X31718621Y53724979D02*
X31243600Y54200000D01*
X31243600Y54200000D02*
X29200000Y54200000D01*
X39020000Y58280000D02*
X41370000Y58280000D01*
X41370000Y58280000D02*
X41800000Y57850000D01*
X37639558Y53724979D02*
X31718621Y53724979D01*
D73*
X21300000Y57700000D02*
X21300000Y58500000D01*
D75*
X60200000Y28000000D02*
X59600000Y27987500D01*
D73*
X50300000Y38900000D02*
X51100000Y38900000D01*
X57800000Y44812500D02*
X57800000Y44200000D01*
D75*
X47350000Y32000000D02*
X46450000Y32000000D01*
D73*
X55425000Y23875000D02*
X55425000Y23200000D01*
D75*
X61200000Y26400000D02*
X61800000Y26412500D01*
D73*
X54737500Y25750000D02*
X54737500Y25062500D01*
D75*
X47350000Y33600000D02*
X47350000Y32800000D01*
D73*
X62387500Y33500000D02*
X62800000Y33500000D01*
X54050000Y29350000D02*
X54500000Y29800000D01*
X54737500Y25062500D02*
X54800000Y25000000D01*
D75*
X48687500Y28387500D02*
X48700000Y28400000D01*
D73*
X50050000Y27250000D02*
X50000000Y27200000D01*
X50862500Y27250000D02*
X50050000Y27250000D01*
D75*
X47350000Y31200000D02*
X47350000Y32000000D01*
X48687500Y27275000D02*
X48687500Y28387500D01*
D73*
X54050000Y28937500D02*
X54050000Y29350000D01*
X62300000Y21187500D02*
X62300000Y21800000D01*
X55400000Y23800000D02*
X55425000Y23875000D01*
X56412500Y30300000D02*
X55800000Y30300000D01*
D75*
X47350000Y33600000D02*
X46450000Y33600000D01*
X61100000Y31300000D02*
X61800000Y31287500D01*
X48500000Y37300000D02*
X48500000Y36500000D01*
X42410000Y58890000D02*
X43300000Y58000000D01*
X29275033Y53324967D02*
X38114967Y53324967D01*
X43300000Y58000000D02*
X43300000Y56025000D01*
X38114967Y53324967D02*
X38790000Y54000000D01*
X29200000Y53400000D02*
X29275033Y53324967D01*
X40310000Y58890000D02*
X42410000Y58890000D01*
X36300000Y56025000D02*
X36300000Y55194642D01*
X35630358Y54525000D02*
X32223532Y54525000D01*
X36300000Y55194642D02*
X35630358Y54525000D01*
X32223532Y54525000D02*
X31324266Y55424266D01*
D73*
X64087500Y65700000D02*
X65287500Y64500000D01*
X73100000Y67000000D02*
X70900000Y67000000D01*
X65287500Y64500000D02*
X68100000Y64500000D01*
X70900000Y67000000D02*
X68400000Y64500000D01*
X68400000Y64500000D02*
X68100000Y64500000D01*
X67887500Y65700000D02*
X67887500Y68200000D01*
X70800000Y68200000D02*
X73100000Y70500000D01*
X67887500Y68200000D02*
X70800000Y68200000D01*
X75800000Y117800000D02*
X77900000Y119900000D01*
X69500000Y107600000D02*
X71500000Y109600000D01*
X74500000Y109600000D02*
X75800000Y110900000D01*
X71500000Y109600000D02*
X74500000Y109600000D01*
X65400000Y108500000D02*
X66300000Y107600000D01*
X62812500Y106825000D02*
X64487500Y108500000D01*
X64487500Y108500000D02*
X65400000Y108500000D01*
X62812500Y105800000D02*
X62812500Y106825000D01*
X75800000Y110900000D02*
X75800000Y117800000D01*
X66300000Y107600000D02*
X69500000Y107600000D01*
X65700000Y111200000D02*
X64487500Y111200000D01*
D75*
X35796047Y54124989D02*
X31884311Y54124989D01*
X36800000Y56025000D02*
X36800000Y55128942D01*
X31884311Y54124989D02*
X31185035Y54824265D01*
X36800000Y55128942D02*
X35796047Y54124989D01*
X36800000Y56025000D02*
X36800000Y55300000D01*
X31185035Y54824265D02*
X30475735Y54824265D01*
X34800000Y56025000D02*
X34800000Y59280000D01*
X34800000Y59280000D02*
X34715735Y59364265D01*
D73*
X10775000Y87500000D02*
X10775000Y90715000D01*
X10875000Y87400000D02*
X10775000Y87500000D01*
X10790000Y90730000D02*
X10790000Y102770000D01*
X10775000Y90715000D02*
X10790000Y90730000D01*
X9200000Y15800000D02*
X8800000Y15400000D01*
X4740000Y15400000D02*
X3500000Y16640000D01*
X8800000Y15400000D02*
X4740000Y15400000D01*
X6040000Y16640000D02*
X6080000Y16600000D01*
X6080000Y16600000D02*
X9200000Y16600000D01*
X19300000Y92500000D02*
X19300000Y93300000D01*
X64812500Y116512500D02*
X67400000Y119100000D01*
X62387500Y114400000D02*
X64812500Y114400000D01*
X67400000Y119100000D02*
X67400000Y119900000D01*
X64812500Y114400000D02*
X64812500Y116512500D01*
X39300000Y86220000D02*
X41080000Y88000000D01*
X39300000Y84400000D02*
X39300000Y86220000D01*
X33250000Y98250000D02*
X34050000Y98250000D01*
X37087500Y102500000D02*
X37087500Y100187500D01*
D74*
X34350000Y98550000D02*
X34350000Y98050000D01*
D73*
X37087500Y100187500D02*
X36400000Y99500000D01*
X33250000Y97750000D02*
X34050000Y97750000D01*
D74*
X35300000Y99500000D02*
X34350000Y98550000D01*
D73*
X33250000Y98750000D02*
X34550000Y98750000D01*
D74*
X38400000Y99500000D02*
X36400000Y99500000D01*
X38400000Y99500000D02*
X35300000Y99500000D01*
D73*
X27237500Y98750000D02*
X27100000Y98612500D01*
X29150000Y98750000D02*
X27237500Y98750000D01*
X66700000Y60987500D02*
X66312500Y60600000D01*
X66700000Y61600000D02*
X66700000Y60987500D01*
X66800000Y69800000D02*
X66800000Y68687500D01*
X66800000Y68687500D02*
X66312500Y68200000D01*
X66312500Y85412500D02*
X66300000Y85400000D01*
X66312500Y86500000D02*
X66312500Y85412500D01*
X28000000Y97500000D02*
X28000000Y95300000D01*
X29687500Y94000000D02*
X31712500Y94000000D01*
X29150000Y97750000D02*
X28250000Y97750000D01*
X28200000Y95100000D02*
X28587500Y95100000D01*
X28000000Y95300000D02*
X28200000Y95100000D01*
X28250000Y97750000D02*
X28000000Y97500000D01*
X28587500Y95100000D02*
X29687500Y94000000D01*
D75*
X37620000Y66300000D02*
X38200000Y66880000D01*
X25400000Y27800000D02*
X20800000Y23200000D01*
X25400000Y38700000D02*
X25400000Y27800000D01*
X20800000Y23200000D02*
X14900000Y23200000D01*
X11365700Y17400000D02*
X11000000Y17400000D01*
X38300000Y71375000D02*
X38300000Y67576780D01*
X12965689Y18999989D02*
X11365700Y17400000D01*
X14900000Y23200000D02*
X14000010Y22300010D01*
X37620000Y65660000D02*
X37620000Y66300000D01*
X14000010Y19834310D02*
X13165689Y18999989D01*
X38300000Y66980000D02*
X38200000Y66880000D01*
X38300000Y67576780D02*
X38300000Y66980000D01*
X14000010Y22300010D02*
X14000010Y19834310D01*
X13165689Y18999989D02*
X12965689Y18999989D01*
X37800000Y68201406D02*
X37800000Y67070000D01*
X14700000Y23600000D02*
X13600000Y22500000D01*
X13600000Y20000000D02*
X13000000Y19400000D01*
X37800000Y71375000D02*
X37800000Y68201406D01*
X24800000Y39300000D02*
X24799999Y39299999D01*
X13900000Y22800000D02*
X13600000Y22500000D01*
X13600000Y22500000D02*
X13600000Y20000000D01*
X20600000Y23600000D02*
X14700000Y23600000D01*
X37800000Y67070000D02*
X37699374Y66969374D01*
X24799999Y27799999D02*
X20600000Y23600000D01*
X13000000Y19400000D02*
X12200000Y19400000D01*
X36940000Y66150000D02*
X36940000Y66210000D01*
X24799999Y39299999D02*
X24799999Y27799999D01*
X36940000Y66210000D02*
X37699374Y66969374D01*
X12200000Y19400000D02*
X11000000Y18200000D01*
X46800000Y57800000D02*
X46800000Y56025000D01*
X25930000Y64395000D02*
X24575000Y64395000D01*
X43840001Y59769999D02*
X43840001Y61840001D01*
X45020000Y58590000D02*
X43840001Y59769999D01*
X28490000Y66915000D02*
X25950000Y64375000D01*
X45990000Y58590000D02*
X46000000Y58600000D01*
X46000000Y58600000D02*
X46800000Y57800000D01*
X45020000Y58590000D02*
X45990000Y58590000D01*
X46800000Y56025000D02*
X46800000Y57300000D01*
X28490000Y67080000D02*
X28490000Y66915000D01*
X25950000Y64375000D02*
X25930000Y64395000D01*
X26975000Y82705000D02*
X25905000Y82705000D01*
X25300000Y82100000D02*
X25300000Y80000000D01*
X32294654Y67200000D02*
X31870000Y67624654D01*
X31870000Y68695698D02*
X31400010Y69165688D01*
X33125000Y67200000D02*
X32294654Y67200000D01*
X31870000Y67624654D02*
X31870000Y68695698D01*
X25300000Y80000000D02*
X25804990Y79495010D01*
X25905000Y82705000D02*
X25300000Y82100000D01*
X29104990Y79495010D02*
X30600000Y78000000D01*
X30600000Y69965698D02*
X30600000Y72300000D01*
X31400010Y69165688D02*
X30600000Y69965698D01*
X25804990Y79495010D02*
X29104990Y79495010D01*
X30600000Y78000000D02*
X30600000Y72300000D01*
D73*
X66312500Y92712500D02*
X66300000Y92700000D01*
X66312500Y93700000D02*
X66312500Y92712500D01*
X64875001Y94900000D02*
X61800000Y94900000D01*
X65875001Y95900000D02*
X64875001Y94900000D01*
X66312500Y95900000D02*
X65875001Y95900000D01*
X61612500Y94100000D02*
X62012500Y93700000D01*
X61100000Y94100000D02*
X61612500Y94100000D01*
D75*
X30200000Y72000000D02*
X30200000Y77800000D01*
X31470000Y67458956D02*
X31470000Y68530000D01*
X31470000Y68530000D02*
X31000001Y68999999D01*
X32228956Y66700000D02*
X31470000Y67458956D01*
X30200000Y69800000D02*
X30200000Y72000000D01*
X30200000Y77800000D02*
X29105000Y78895000D01*
X31000001Y68999999D02*
X30200000Y69800000D01*
X29105000Y78895000D02*
X26975000Y78895000D01*
X33125000Y66700000D02*
X32228956Y66700000D01*
X24560000Y65650000D02*
X24575000Y65665000D01*
X32128530Y65200000D02*
X31659265Y65669265D01*
D73*
X24575000Y66935000D02*
X24575000Y65665000D01*
D75*
X33125000Y65200000D02*
X32128530Y65200000D01*
X23000000Y65650000D02*
X24560000Y65650000D01*
X26775000Y68205000D02*
X27960000Y69390000D01*
X30600000Y68830000D02*
X31040000Y68390000D01*
X31040000Y65440000D02*
X31040000Y68390000D01*
X31780000Y64700000D02*
X31040000Y65440000D01*
X24575000Y68205000D02*
X26775000Y68205000D01*
X27960000Y69390000D02*
X30040000Y69390000D01*
X33125000Y64700000D02*
X31780000Y64700000D01*
X27600000Y69030000D02*
X27960000Y69390000D01*
X30040000Y69390000D02*
X30600000Y68830000D01*
D73*
X59812500Y115400000D02*
X60812500Y114400000D01*
X59400000Y115400000D02*
X59812500Y115400000D01*
X66200000Y112012500D02*
X67012500Y111200000D01*
X66200000Y112300000D02*
X66200000Y112012500D01*
X66387500Y114400000D02*
X70100000Y114400000D01*
D75*
X51550000Y28937500D02*
X51550000Y30250000D01*
X50500000Y31225000D02*
X48900000Y31225000D01*
X50900000Y30900000D02*
X50500000Y31225000D01*
X51550000Y30250000D02*
X50900000Y30900000D01*
X54737500Y28637500D02*
X55000000Y28900000D01*
X53700000Y38887500D02*
X53687500Y38900000D01*
X53700000Y37800000D02*
X53700000Y38887500D01*
X54737500Y28250000D02*
X54737500Y28637500D01*
X64387500Y32300000D02*
X66043722Y32300000D01*
X60525000Y29712500D02*
X61800000Y29712500D01*
X54737500Y27750000D02*
X54762500Y27725000D01*
X59194300Y29712500D02*
X60525000Y29712500D01*
X65560000Y28860000D02*
X65560000Y28410000D01*
X66043722Y32300000D02*
X66900000Y31443722D01*
X61800000Y29712500D02*
X64387500Y32300000D01*
X66900000Y31443722D02*
X66900000Y30200000D01*
X57206800Y27725000D02*
X59194300Y29712500D01*
X54762500Y27725000D02*
X57206800Y27725000D01*
X66900000Y30200000D02*
X65560000Y28860000D01*
X64402075Y29032574D02*
X64402075Y28965396D01*
X62654068Y29218100D02*
X62683215Y29157574D01*
X63538272Y29988935D02*
X64316092Y29211116D01*
X64137550Y28700870D02*
X64070372Y28700871D01*
X63783994Y30499180D02*
X63716815Y30499180D01*
X62597500Y27987500D02*
X62114666Y27987500D01*
X63452290Y30234657D02*
X63452290Y30167478D01*
X54737500Y27250000D02*
X54762500Y27275000D01*
X63452290Y30167478D02*
X63467239Y30101984D01*
X63962536Y30413199D02*
X63910014Y30455084D01*
X64004877Y28715819D02*
X63944352Y28744967D01*
X64316092Y29211116D02*
X64357978Y29158595D01*
X63049828Y28450467D02*
X63007943Y28397945D01*
X63944352Y28744967D02*
X63891828Y28786852D01*
X64591951Y30023968D02*
X64526457Y30009019D01*
X54762500Y27275000D02*
X57393200Y27275000D01*
X64357978Y28839375D02*
X64316092Y28786852D01*
X62725101Y29105051D02*
X63007943Y28822209D01*
X64333258Y30053115D02*
X64280735Y30095000D01*
X62639119Y29350773D02*
X62639119Y29283594D01*
X63467239Y30300151D02*
X63452290Y30234657D01*
X63007943Y28822209D02*
X63049828Y28769686D01*
X63467239Y30101984D02*
X63496386Y30041458D01*
X63093925Y28643666D02*
X63093925Y28576487D01*
X63496386Y30041458D02*
X63538272Y29988935D01*
X63007943Y28397945D02*
X62597500Y27987500D01*
X63496386Y30360677D02*
X63467239Y30300151D01*
X63036316Y29600348D02*
X62970822Y29615297D01*
X57393200Y27275000D02*
X59380700Y29262500D01*
X64393784Y30023968D02*
X64333258Y30053115D01*
X65560000Y30950000D02*
X64705000Y30095000D01*
X62838149Y29600348D02*
X62777623Y29571200D01*
X63149365Y29529315D02*
X63096842Y29571200D01*
X63096842Y29571200D02*
X63036316Y29600348D01*
X64203045Y28715820D02*
X64137550Y28700870D01*
X63651321Y30484232D02*
X63590795Y30455084D01*
X62683215Y29157574D02*
X62725101Y29105051D01*
X62683215Y29476793D02*
X62654068Y29416267D01*
X59380700Y29262500D02*
X60525000Y29262500D01*
X62639119Y29283594D02*
X62654068Y29218100D01*
X63849488Y30484232D02*
X63783994Y30499180D01*
X63716815Y30499180D02*
X63651321Y30484232D01*
X63093925Y28576487D02*
X63078976Y28510993D01*
X60525000Y29262500D02*
X61800000Y27987500D01*
X62903643Y29615297D02*
X62838149Y29600348D01*
X64280735Y30095000D02*
X63962536Y30413199D01*
X62654068Y29416267D02*
X62639119Y29350773D01*
X64387126Y29098069D02*
X64402075Y29032574D01*
X64652477Y30053115D02*
X64591951Y30023968D01*
X62114666Y27987500D02*
X61800000Y27987500D01*
X64459278Y30009019D02*
X64393784Y30023968D01*
X64357978Y29158595D02*
X64387126Y29098069D01*
X64263570Y28744966D02*
X64203045Y28715820D01*
X64526457Y30009019D02*
X64459278Y30009019D01*
X62725101Y29529315D02*
X62683215Y29476793D01*
X63590795Y30455084D02*
X63538272Y30413199D01*
X63078976Y28510993D02*
X63049828Y28450467D01*
X64705000Y30095000D02*
X64652477Y30053115D01*
X62777623Y29571200D02*
X62725101Y29529315D01*
X64316092Y28786852D02*
X64263570Y28744966D01*
X63078976Y28709160D02*
X63093925Y28643666D01*
X62970822Y29615297D02*
X62903643Y29615297D01*
X64070372Y28700871D02*
X64004877Y28715819D01*
X63538272Y30413199D02*
X63496386Y30360677D01*
X64402075Y28965396D02*
X64387126Y28899901D01*
X64387126Y28899901D02*
X64357978Y28839375D01*
X63891828Y28786852D02*
X63149365Y29529315D01*
X63049828Y28769686D02*
X63078976Y28709160D01*
X63910014Y30455084D02*
X63849488Y30484232D01*
X62996892Y23379709D02*
X63053773Y23415450D01*
X66165450Y23935149D02*
X66212953Y23887646D01*
X66692478Y24055439D02*
X66700000Y24122195D01*
X63336561Y26420291D02*
X63399970Y26442479D01*
X62333483Y24592478D02*
X62396892Y24570290D01*
X59600000Y26412500D02*
X61412500Y24600000D01*
X63832177Y24712954D02*
X63879680Y24665451D01*
X63533483Y26442479D02*
X63596892Y26420291D01*
X66670290Y23992030D02*
X66692478Y24055439D01*
X66212953Y23887646D02*
X66269834Y23851905D01*
X63766727Y24900000D02*
X63774248Y24833244D01*
X63701276Y26337047D02*
X63737017Y26280166D01*
X65800000Y24600000D02*
X65866756Y24592479D01*
X63766727Y26150000D02*
X63766727Y24900000D01*
X62679680Y23415450D02*
X62736561Y23379709D01*
X58511397Y26412500D02*
X59600000Y26412500D01*
X66933243Y24592479D02*
X67000000Y24600000D01*
X62566727Y24300000D02*
X62566727Y23650000D01*
X65987046Y24534550D02*
X66034549Y24487047D01*
X65930165Y24570291D02*
X65987046Y24534550D01*
X62632177Y23462953D02*
X62679680Y23415450D01*
X63653773Y26384550D02*
X63701276Y26337047D01*
X62596436Y23519834D02*
X62632177Y23462953D01*
X66333243Y23829717D02*
X66400000Y23822195D01*
X62266727Y24600000D02*
X62333483Y24592478D01*
X63196436Y26280166D02*
X63232177Y26337047D01*
X67000000Y24600000D02*
X68100000Y24600000D01*
X64066727Y24600000D02*
X65800000Y24600000D01*
X62566727Y23650000D02*
X62574248Y23583243D01*
X66587046Y23887646D02*
X66634549Y23935149D01*
X54737500Y26750000D02*
X54762500Y26725000D01*
X63159205Y23583243D02*
X63166727Y23650000D01*
X63596892Y26420291D02*
X63653773Y26384550D01*
X63174248Y26216757D02*
X63196436Y26280166D01*
X66530165Y23851905D02*
X66587046Y23887646D01*
X63166727Y26150000D02*
X63174248Y26216757D01*
X62453773Y24534549D02*
X62501276Y24487046D01*
X63279680Y26384550D02*
X63336561Y26420291D01*
X66070290Y24430166D02*
X66092478Y24366757D01*
X63737017Y26280166D02*
X63759205Y26216757D01*
X63101276Y23462953D02*
X63137017Y23519834D01*
X61412500Y24600000D02*
X62266727Y24600000D01*
X66700000Y24300000D02*
X66707521Y24366757D01*
X66729709Y24430166D02*
X66765450Y24487047D01*
X66400000Y23822195D02*
X66466756Y23829717D01*
X66700000Y24122195D02*
X66700000Y24300000D01*
X63774248Y24833244D02*
X63796436Y24769835D01*
X63879680Y24665451D02*
X63936561Y24629710D01*
X66129709Y23992030D02*
X66165450Y23935149D01*
X62396892Y24570290D02*
X62453773Y24534549D01*
X63759205Y26216757D02*
X63766727Y26150000D01*
X66269834Y23851905D02*
X66333243Y23829717D01*
X62559205Y24366756D02*
X62566727Y24300000D01*
X66707521Y24366757D02*
X66729709Y24430166D01*
X66765450Y24487047D02*
X66812953Y24534550D01*
X66100000Y24122195D02*
X66107521Y24055439D01*
X62799970Y23357521D02*
X62866727Y23350000D01*
X66092478Y24366757D02*
X66100000Y24300000D01*
X62501276Y24487046D02*
X62537017Y24430165D01*
X66812953Y24534550D02*
X66869834Y24570291D01*
X62933483Y23357521D02*
X62996892Y23379709D01*
X63399970Y26442479D02*
X63466727Y26450000D01*
X54762500Y26725000D02*
X58198897Y26725000D01*
X66100000Y24300000D02*
X66100000Y24122195D01*
X66034549Y24487047D02*
X66070290Y24430166D01*
X65866756Y24592479D02*
X65930165Y24570291D01*
X63166727Y23650000D02*
X63166727Y26150000D01*
X62866727Y23350000D02*
X62933483Y23357521D01*
X63137017Y23519834D02*
X63159205Y23583243D01*
X63999970Y24607522D02*
X64066727Y24600000D01*
X63053773Y23415450D02*
X63101276Y23462953D01*
X66107521Y24055439D02*
X66129709Y23992030D01*
X62736561Y23379709D02*
X62799970Y23357521D01*
X62537017Y24430165D02*
X62559205Y24366756D01*
X58198897Y26725000D02*
X58511397Y26412500D01*
X63466727Y26450000D02*
X63533483Y26442479D01*
X63936561Y24629710D02*
X63999970Y24607522D01*
X66869834Y24570291D02*
X66933243Y24592479D01*
X66466756Y23829717D02*
X66530165Y23851905D01*
X66634549Y23935149D02*
X66670290Y23992030D01*
X63796436Y24769835D02*
X63832177Y24712954D01*
X63232177Y26337047D02*
X63279680Y26384550D01*
X62574248Y23583243D02*
X62596436Y23519834D01*
X61387500Y22900000D02*
X67700000Y22900000D01*
X54737500Y26250000D02*
X54762500Y26275000D01*
X59600000Y24687500D02*
X61387500Y22900000D01*
X67700000Y22900000D02*
X68672992Y22900000D01*
X68672992Y22900000D02*
X69100000Y22900000D01*
X58012500Y26275000D02*
X58193198Y26094302D01*
X69100000Y22900000D02*
X69700000Y23500000D01*
X69700000Y23500000D02*
X69700000Y25540000D01*
X69700000Y25540000D02*
X68100000Y27140000D01*
X54762500Y26275000D02*
X58012500Y26275000D01*
X58193198Y26094302D02*
X59600000Y24687500D01*
D73*
X27200000Y95200000D02*
X26187500Y95200000D01*
X30700000Y96200000D02*
X30700000Y95600000D01*
X30700000Y95600000D02*
X30300000Y95200000D01*
X30300000Y95200000D02*
X29700000Y95200000D01*
X26187500Y95200000D02*
X25900000Y95487500D01*
X66312500Y88900000D02*
X66312500Y89837490D01*
X66312500Y89837490D02*
X66400000Y89924990D01*
X66312500Y91400000D02*
X65212500Y92500000D01*
X65212500Y92500000D02*
X61500000Y92500000D01*
X59408458Y88900000D02*
X58800000Y88900000D01*
X62012500Y88900000D02*
X61256435Y89656065D01*
X58800000Y88900000D02*
X57800000Y89900000D01*
X60164523Y89656065D02*
X59408458Y88900000D01*
X61256435Y89656065D02*
X60164523Y89656065D01*
X61400000Y106800000D02*
X61900000Y106800000D01*
X62912500Y107812500D02*
X62912500Y108500000D01*
X61900000Y106800000D02*
X62912500Y107812500D01*
D75*
X46350000Y31200000D02*
X45550000Y31200000D01*
X44075000Y33825000D02*
X44850489Y33049511D01*
X51875000Y54025000D02*
X52475000Y53425000D01*
X52475000Y53425000D02*
X52900000Y53000000D01*
X45450969Y54849031D02*
X46275000Y54025000D01*
X45300000Y55195348D02*
X45450969Y55044379D01*
X44850489Y33049511D02*
X44850489Y32449511D01*
X46425000Y42000000D02*
X46125000Y42000000D01*
X52900000Y51200000D02*
X47800000Y46100000D01*
X47800000Y46100000D02*
X46400000Y46100000D01*
X45450969Y55044379D02*
X45450969Y54849031D01*
X45300000Y56025000D02*
X45300000Y55195348D01*
X44850489Y32449511D02*
X45300000Y32000000D01*
X45550000Y32000000D02*
X45550000Y31200000D01*
X52550000Y24571636D02*
X51928345Y23949980D01*
X52900000Y53000000D02*
X52900000Y51375000D01*
X44075000Y39950000D02*
X44075000Y33825000D01*
X52550000Y25062500D02*
X52550000Y24571636D01*
X46400000Y46100000D02*
X46375000Y46125000D01*
X50701490Y23949980D02*
X50950020Y23949980D01*
X46125000Y42000000D02*
X44075000Y39950000D01*
X51928345Y23949980D02*
X50950020Y23949980D01*
X45300000Y32000000D02*
X45550000Y32000000D01*
X46275000Y54025000D02*
X51875000Y54025000D01*
X50375735Y24275735D02*
X50701490Y23949980D01*
X52900000Y51375000D02*
X52900000Y51200000D01*
X45900010Y24899990D02*
X45299990Y24899990D01*
X45550000Y32800000D02*
X45550000Y33600000D01*
X40100000Y30625000D02*
X40125000Y30600000D01*
X50600010Y24899990D02*
X45900010Y24899990D01*
X40125000Y30600000D02*
X40125000Y27875000D01*
X52050000Y25062500D02*
X52050000Y24637334D01*
X40100000Y34900000D02*
X40100000Y30625000D01*
X52050000Y24637334D02*
X51762656Y24349990D01*
X40125000Y27875000D02*
X40900000Y27100000D01*
X45550000Y33600000D02*
X45550000Y34900000D01*
X51762656Y24349990D02*
X51150010Y24349990D01*
X42900000Y27100000D02*
X45100010Y24899990D01*
X40900000Y27100000D02*
X42900000Y27100000D01*
X51150010Y24349990D02*
X50600010Y24899990D01*
X45100010Y24899990D02*
X45299990Y24899990D01*
D73*
X67887500Y78600000D02*
X71800000Y78600000D01*
X71800000Y78600000D02*
X73100000Y79900000D01*
X67800000Y78687500D02*
X67887500Y78600000D01*
X67800000Y79700000D02*
X67800000Y78687500D01*
X72500000Y84000000D02*
X73100000Y83400000D01*
X67887500Y86500000D02*
X67887500Y84000000D01*
X67887500Y84000000D02*
X72500000Y84000000D01*
X72925010Y90574990D02*
X73100000Y90400000D01*
X59600000Y90400000D02*
X59100000Y89900000D01*
X65335012Y90574990D02*
X72925010Y90574990D01*
X63587500Y90987500D02*
X63000000Y90400000D01*
X63000000Y90400000D02*
X59600000Y90400000D01*
X63587500Y91400000D02*
X63587500Y90987500D01*
X63587500Y91400000D02*
X64510002Y91400000D01*
X64510002Y91400000D02*
X65335012Y90574990D01*
D75*
X53050000Y28937500D02*
X53050000Y30401470D01*
X53050000Y30401470D02*
X53199265Y30550735D01*
X72400000Y17000000D02*
X73400000Y17000000D01*
X73400000Y17000000D02*
X73400000Y17800000D01*
X54000000Y30400000D02*
X54000000Y30600000D01*
X72400000Y16200000D02*
X73400000Y16200000D01*
X73400000Y13575000D02*
X73375000Y13550000D01*
X53550000Y28937500D02*
X53550000Y29950000D01*
X73400000Y16200000D02*
X73400000Y15400000D01*
X53550000Y29950000D02*
X54000000Y30400000D01*
X73400000Y15400000D02*
X73400000Y13575000D01*
X75200000Y16200000D02*
X75200000Y15400000D01*
X75200000Y16200000D02*
X74400000Y16200000D01*
X75200000Y17800000D02*
X76100000Y17800000D01*
X75200000Y17800000D02*
X75200000Y17000000D01*
D73*
X66425000Y105300000D02*
X67025000Y105900000D01*
X65400000Y105300000D02*
X66425000Y105300000D01*
X75800000Y89700000D02*
X75800000Y92200000D01*
X67887500Y88900000D02*
X75000000Y88900000D01*
X64700000Y88900000D02*
X65600000Y88000000D01*
X65600000Y88000000D02*
X67100000Y88000000D01*
X74100000Y93900000D02*
X73100000Y93900000D01*
X67100000Y88000000D02*
X67887500Y88787500D01*
X75800000Y92200000D02*
X74100000Y93900000D01*
X75000000Y88900000D02*
X75800000Y89700000D01*
X67887500Y88787500D02*
X67887500Y88900000D01*
X63587500Y88900000D02*
X64700000Y88900000D01*
D75*
X48500000Y38100000D02*
X48500000Y38900000D01*
X50300000Y38100000D02*
X50300000Y37300000D01*
D73*
X64387500Y105800000D02*
X64387500Y106712500D01*
X64387500Y106712500D02*
X64100000Y107000000D01*
D75*
X34024369Y65700000D02*
X34424375Y66100006D01*
X48600000Y79400000D02*
X49700000Y80500000D01*
X34424375Y66100006D02*
X34424375Y68024375D01*
X43300000Y79400000D02*
X48600000Y79400000D01*
X33125000Y65700000D02*
X34024369Y65700000D01*
X49700000Y81500000D02*
X50100000Y81900000D01*
X50550000Y81900000D02*
X51500000Y81900000D01*
X34424375Y68024375D02*
X34430000Y68030000D01*
X50400000Y113950000D02*
X50400000Y112600000D01*
X40200000Y76400000D02*
X43300000Y79400000D01*
X50100000Y81900000D02*
X50550000Y81900000D01*
X49700000Y80500000D02*
X49700000Y81500000D01*
X43800000Y74000000D02*
X44400000Y74600000D01*
X44400000Y74900000D02*
X43500000Y74900000D01*
X44400000Y74600000D02*
X44400000Y74900000D01*
X43800000Y71375000D02*
X43800000Y74000000D01*
X34200000Y113950000D02*
X34200000Y112600000D01*
X46300000Y65411998D02*
X46300000Y65500000D01*
X18200000Y113950000D02*
X18200000Y112600000D01*
X42100000Y76000000D02*
X42600000Y76500000D01*
X48475000Y64200000D02*
X47511998Y64200000D01*
X42600000Y76500000D02*
X44400000Y76500000D01*
X47511998Y64200000D02*
X46300000Y65411998D01*
X44400000Y76500000D02*
X45300000Y76500000D01*
X49400000Y79000000D02*
X50550000Y80150000D01*
X41500000Y74700000D02*
X41500000Y76900000D01*
X50550000Y80150000D02*
X50550000Y81100000D01*
X42700000Y78100000D02*
X43600000Y79000000D01*
X43300000Y71375000D02*
X43300000Y72900000D01*
X43600000Y79000000D02*
X49400000Y79000000D01*
X41500000Y76900000D02*
X42700000Y78100000D01*
X43300000Y72900000D02*
X41500000Y74700000D01*
X50550000Y81100000D02*
X51500000Y81100000D01*
X42400000Y113950000D02*
X42400000Y112600000D01*
X26200000Y113950000D02*
X26200000Y112600000D01*
X44400000Y75700000D02*
X45300000Y75700000D01*
X45300000Y74400000D02*
X45300000Y75700000D01*
X44300000Y73400000D02*
X45300000Y74400000D01*
X44300000Y71375000D02*
X44300000Y73400000D01*
X48475000Y65200000D02*
X47400000Y65200000D01*
X44400000Y78100000D02*
X44400000Y77300000D01*
X47400000Y65200000D02*
X47100000Y65500000D01*
X10000000Y113950000D02*
X10000000Y112600000D01*
X30000000Y60700000D02*
X29150000Y61550000D01*
D73*
X26687500Y52112500D02*
X26600000Y52200000D01*
D75*
X33125000Y60700000D02*
X30000000Y60700000D01*
X24290000Y52200000D02*
X26600000Y52200000D01*
D73*
X26687500Y49200000D02*
X26687500Y52112500D01*
X69300000Y97100000D02*
X73100000Y100900000D01*
X63587500Y95900000D02*
X64787500Y97100000D01*
X59100000Y97000000D02*
X62487500Y97000000D01*
X62487500Y97000000D02*
X63587500Y95900000D01*
X64787500Y97100000D02*
X69300000Y97100000D01*
X75800000Y96400000D02*
X75800000Y103600000D01*
X67887500Y93700000D02*
X69000000Y93700000D01*
X64800000Y93700000D02*
X63587500Y93700000D01*
X75800000Y103600000D02*
X75000000Y104400000D01*
X70900000Y95600000D02*
X75000000Y95600000D01*
X69000000Y93700000D02*
X70900000Y95600000D01*
X75000000Y95600000D02*
X75800000Y96400000D01*
X67887500Y93700000D02*
X66887500Y94700000D01*
X66887500Y94700000D02*
X65800000Y94700000D01*
X75000000Y104400000D02*
X73100000Y104400000D01*
X65800000Y94700000D02*
X64800000Y93700000D01*
X68600000Y109800000D02*
X68600000Y108512500D01*
X71487500Y111400000D02*
X68587500Y108500000D01*
X68600000Y108512500D02*
X68587500Y108500000D01*
X73100000Y111400000D02*
X71487500Y111400000D01*
X48512500Y13300000D02*
X48512500Y7587500D01*
X48765000Y13552500D02*
X48512500Y13300000D01*
X48765000Y15825000D02*
X48765000Y13552500D01*
X48512500Y7587500D02*
X48600000Y7500000D01*
X50035000Y15825000D02*
X50035000Y13352500D01*
X50087500Y13300000D02*
X50087500Y9512500D01*
X50087500Y9512500D02*
X52100000Y7500000D01*
X50035000Y13352500D02*
X50087500Y13300000D01*
D75*
X21300000Y56100000D02*
X22000000Y55400000D01*
X26100000Y59200000D02*
X33125000Y59200000D01*
X22000000Y55400000D02*
X23700000Y55400000D01*
X23700000Y55400000D02*
X25000000Y56700000D01*
X25000000Y58100000D02*
X26100000Y59200000D01*
X25000000Y56700000D02*
X25000000Y58100000D01*
X33125000Y70375000D02*
X33100000Y70400000D01*
X38500000Y81700000D02*
X38500000Y82600000D01*
X33125000Y69700000D02*
X33125000Y70375000D01*
X36300000Y71375000D02*
X36300000Y73324989D01*
X39300000Y81700000D02*
X39300000Y82600000D01*
X36300000Y73324989D02*
X36224989Y73400000D01*
D73*
X57112500Y9012500D02*
X55600000Y7500000D01*
X57165000Y15725000D02*
X57165000Y13152500D01*
X57165000Y13152500D02*
X57112500Y13100000D01*
X57112500Y13100000D02*
X57112500Y9012500D01*
X20765000Y80165000D02*
X22025000Y80165000D01*
X19900000Y78500000D02*
X19900000Y79300000D01*
X19450000Y78050000D02*
X19900000Y78500000D01*
X12100000Y77400000D02*
X10300000Y79200000D01*
X17650000Y77400000D02*
X12100000Y77400000D01*
X18300000Y78050000D02*
X17650000Y77400000D01*
X10300000Y79200000D02*
X10300000Y79900000D01*
X18300000Y78050000D02*
X19450000Y78050000D01*
X19900000Y79300000D02*
X20765000Y80165000D01*
X17097500Y82887500D02*
X12840000Y78630000D01*
X22025000Y81435000D02*
X20365000Y81435000D01*
X20000000Y82300000D02*
X19412500Y82887500D01*
X20000000Y81800000D02*
X20000000Y82300000D01*
X18300000Y82887500D02*
X17097500Y82887500D01*
X20365000Y81435000D02*
X20000000Y81800000D01*
X19412500Y82887500D02*
X18300000Y82887500D01*
X18665000Y66935000D02*
X17600000Y68000000D01*
X16600000Y68000000D02*
X16600000Y70000000D01*
X17600000Y68000000D02*
X16600000Y68000000D01*
X14400000Y72200000D02*
X10380000Y72200000D01*
X10380000Y72200000D02*
X10300000Y72280000D01*
X16600000Y70000000D02*
X14400000Y72200000D01*
X19625000Y66935000D02*
X18665000Y66935000D01*
X16600000Y63012500D02*
X14687500Y63012500D01*
X12840000Y64860000D02*
X12840000Y71010000D01*
X14687500Y63012500D02*
X12840000Y64860000D01*
X17312500Y63012500D02*
X16600000Y63012500D01*
X18865000Y65665000D02*
X17900000Y64700000D01*
X17900000Y64700000D02*
X17900000Y63600000D01*
X19625000Y65665000D02*
X18865000Y65665000D01*
X17900000Y63600000D02*
X17312500Y63012500D01*
X58687500Y13100000D02*
X58687500Y7912500D01*
X58687500Y7912500D02*
X59100000Y7500000D01*
X58435000Y15725000D02*
X58435000Y13352500D01*
X58435000Y13352500D02*
X58687500Y13100000D01*
D75*
X35200040Y38844342D02*
X35730010Y39374311D01*
X47840000Y18570000D02*
X46270000Y20140000D01*
X46270000Y20140000D02*
X44820000Y21590000D01*
X35200040Y30431356D02*
X35200040Y38844342D01*
X35730010Y39374311D02*
X35730010Y43989990D01*
X44820000Y21590000D02*
X44820000Y22300000D01*
X44820000Y22300000D02*
X43580000Y23540000D01*
X36771014Y45240000D02*
X35730010Y44198996D01*
X47140000Y59700000D02*
X48475000Y59700000D01*
X35730010Y44198996D02*
X35730010Y43989990D01*
X50530000Y18570000D02*
X47840000Y18570000D01*
X51305000Y19345000D02*
X50530000Y18570000D01*
X43580000Y23540000D02*
X42091396Y23540000D01*
X51305000Y20775000D02*
X51305000Y19345000D01*
X42091396Y23540000D02*
X35200040Y30431356D01*
X59705000Y19185000D02*
X58689990Y18169990D01*
X44620010Y21219990D02*
X42480010Y21219990D01*
X42000010Y21699990D02*
X42000010Y23065688D01*
X35330000Y39540000D02*
X35330000Y44990000D01*
X47670010Y18169990D02*
X44620010Y21219990D01*
X34800030Y39010030D02*
X35330000Y39540000D01*
X58689990Y18169990D02*
X47670010Y18169990D01*
X45400000Y59200000D02*
X45400000Y61800000D01*
X42000010Y21699990D02*
X42000010Y21845210D01*
X34800030Y30265668D02*
X34800030Y39010030D01*
X35475734Y62200000D02*
X36175734Y62900000D01*
X33125000Y62200000D02*
X35475734Y62200000D01*
X45400000Y61800000D02*
X44300000Y62900000D01*
X59705000Y20675000D02*
X59705000Y19185000D01*
X42480010Y21219990D02*
X42000010Y21699990D01*
X35330000Y44990000D02*
X36180000Y45840000D01*
X36175734Y62900000D02*
X44300000Y62900000D01*
X42000010Y23065688D02*
X34800030Y30265668D01*
X36075735Y61924265D02*
X35851470Y61700000D01*
X27200000Y27770000D02*
X27200000Y36900000D01*
X17105000Y17675000D02*
X27200000Y27770000D01*
X35851470Y61700000D02*
X33125000Y61700000D01*
X38097571Y60202429D02*
X37100000Y61200000D01*
X32405000Y35595000D02*
X32400000Y35600000D01*
X37100000Y61200000D02*
X33125000Y61200000D01*
X32405000Y21775000D02*
X32405000Y35595000D01*
X38097571Y57400000D02*
X38097571Y60202429D01*
D73*
X13865000Y14400000D02*
X14565000Y13700000D01*
X9312500Y12300000D02*
X9312500Y8612500D01*
X9312500Y12300000D02*
X11412500Y14400000D01*
X9312500Y8612500D02*
X8200000Y7500000D01*
X14565000Y13700000D02*
X14565000Y12725000D01*
X11412500Y14400000D02*
X13865000Y14400000D01*
X10887500Y12300000D02*
X10887500Y8312500D01*
X15835000Y11750000D02*
X15835000Y12725000D01*
X15285000Y11200000D02*
X15835000Y11750000D01*
X10887500Y12300000D02*
X11987500Y11200000D01*
X10887500Y8312500D02*
X11700000Y7500000D01*
X11987500Y11200000D02*
X15285000Y11200000D01*
X29865000Y16825000D02*
X29865000Y14752500D01*
X18400000Y10700000D02*
X25812500Y10700000D01*
X15200000Y7500000D02*
X18400000Y10700000D01*
X25812500Y10700000D02*
X28512500Y13400000D01*
X29865000Y14752500D02*
X28512500Y13400000D01*
D75*
X35800000Y56025000D02*
X35800000Y59800000D01*
X35800000Y59800000D02*
X35775468Y59824532D01*
X38387851Y66100000D02*
X39200000Y66100000D01*
X12500000Y37012500D02*
X13587500Y37012500D01*
X13587500Y37012500D02*
X13600000Y37000000D01*
D73*
X6775010Y36224990D02*
X11712490Y36224990D01*
D75*
X39300000Y71375000D02*
X39300000Y67800000D01*
D73*
X6040000Y36960000D02*
X6775010Y36224990D01*
D75*
X39200000Y66100000D02*
X39587852Y66487852D01*
X39587852Y67512148D02*
X39300000Y67800000D01*
D73*
X11712490Y36224990D02*
X12500000Y37012500D01*
D75*
X39587852Y66487852D02*
X39587852Y67512148D01*
D73*
X8600000Y37000000D02*
X9787500Y37000000D01*
D75*
X38800000Y71375000D02*
X38800000Y67173272D01*
X9800000Y37012500D02*
X10887500Y37012500D01*
X10887500Y37012500D02*
X10900000Y37000000D01*
X38800000Y67173272D02*
X38987851Y66985421D01*
D73*
X9787500Y37000000D02*
X9800000Y37012500D01*
X26687500Y10000000D02*
X30087500Y13400000D01*
X25400000Y10000000D02*
X26687500Y10000000D01*
X18700000Y7500000D02*
X21200000Y10000000D01*
X31135000Y14447500D02*
X30087500Y13400000D01*
X31135000Y16825000D02*
X31135000Y14447500D01*
X21200000Y10000000D02*
X25400000Y10000000D01*
X7692880Y45800000D02*
X9292880Y47400000D01*
X9292880Y47400000D02*
X9700000Y47400000D01*
X4720000Y45800000D02*
X7692880Y45800000D01*
X3500000Y44580000D02*
X4720000Y45800000D01*
X66700000Y51000000D02*
X66700000Y49912500D01*
X66700000Y49912500D02*
X66712500Y49900000D01*
D75*
X44565698Y45500000D02*
X40300000Y41234302D01*
X52375489Y54424511D02*
X53300000Y53500000D01*
X53300000Y53500000D02*
X53300000Y51000000D01*
X40300000Y41234302D02*
X40300000Y36400000D01*
X45850479Y55974521D02*
X45850479Y55014515D01*
X47800000Y45500000D02*
X44565698Y45500000D01*
X45850479Y55014515D02*
X46440482Y54424511D01*
X45800000Y56025000D02*
X45850479Y55974521D01*
X46440482Y54424511D02*
X52375489Y54424511D01*
X38475000Y34575000D02*
X38475000Y30600000D01*
X53300000Y51000000D02*
X47800000Y45500000D01*
X40300000Y36400000D02*
X38475000Y34575000D01*
X13975000Y25625000D02*
X14000000Y25650000D01*
X13975000Y24225000D02*
X13975000Y25625000D01*
X16400000Y25650000D02*
X16400000Y24525000D01*
X16400000Y24525000D02*
X16275000Y24400000D01*
D73*
X7180000Y44580000D02*
X6040000Y44580000D01*
X9700000Y46600000D02*
X9200000Y46600000D01*
X9200000Y46600000D02*
X7180000Y44580000D01*
X4760000Y43300000D02*
X6607120Y43300000D01*
X9107120Y45800000D02*
X9700000Y45800000D01*
X6607120Y43300000D02*
X9107120Y45800000D01*
X3500000Y42040000D02*
X4760000Y43300000D01*
X8700000Y40900000D02*
X9700000Y40900000D01*
X3500000Y39500000D02*
X4800000Y38200000D01*
X10600000Y40500000D02*
X10600000Y41144990D01*
X10100000Y40000000D02*
X10600000Y40500000D01*
X4800000Y38200000D02*
X6516002Y38200000D01*
X8316002Y40000000D02*
X10100000Y40000000D01*
X10600000Y41144990D02*
X10044990Y41700000D01*
X10044990Y41700000D02*
X9700000Y41700000D01*
X6516002Y38200000D02*
X8316002Y40000000D01*
X6040000Y39500000D02*
X9040000Y42500000D01*
X9040000Y42500000D02*
X9700000Y42500000D01*
D75*
X55025000Y83950000D02*
X55025000Y79490000D01*
X52532973Y85150010D02*
X53337972Y84345011D01*
X45584300Y82800000D02*
X44550000Y82800000D01*
X51499990Y85150010D02*
X51175010Y85150010D01*
X55025000Y79490000D02*
X53650000Y78115000D01*
X54629989Y84345011D02*
X55025000Y83950000D01*
X47934310Y85150010D02*
X45584300Y82800000D01*
X51175010Y85150010D02*
X47934310Y85150010D01*
X51175010Y85150010D02*
X52532973Y85150010D01*
X53337972Y84345011D02*
X54629989Y84345011D01*
X51875000Y82430000D02*
X51875000Y84450000D01*
X48150000Y84750000D02*
X51075000Y84750000D01*
X44550000Y82000000D02*
X45400000Y82000000D01*
X53650000Y80655000D02*
X51875000Y82430000D01*
X51575000Y84750000D02*
X51075000Y84750000D01*
X51875000Y84450000D02*
X51575000Y84750000D01*
X51075000Y84750000D02*
X51250000Y84750000D01*
X45400000Y82000000D02*
X48150000Y84750000D01*
X39050000Y78300000D02*
X39050000Y74650000D01*
X42750000Y82000000D02*
X39050000Y78300000D01*
X40300000Y73400000D02*
X40300000Y71375000D01*
X39050000Y74650000D02*
X40300000Y73400000D01*
X43500000Y82450000D02*
X43150000Y82800000D01*
X39450000Y77200000D02*
X43500000Y81250000D01*
X43500000Y81250000D02*
X43500000Y82450000D01*
X40800000Y71375000D02*
X40800000Y73700000D01*
X40800000Y73700000D02*
X39450000Y75050000D01*
X43150000Y82800000D02*
X42750000Y82800000D01*
X39450000Y75050000D02*
X39450000Y77200000D01*
X14000000Y28050000D02*
X14525000Y28575000D01*
X42800000Y71375000D02*
X42800000Y70000000D01*
X14525000Y28575000D02*
X19350000Y28575000D01*
X22075000Y31300000D02*
X22075000Y39462025D01*
X15525000Y55269200D02*
X15525000Y59675000D01*
X22075000Y39462025D02*
X22049989Y39487037D01*
X22049990Y40237178D02*
X22000978Y40286191D01*
X19350000Y28575000D02*
X22075000Y31300000D01*
X22049989Y39487037D02*
X22049990Y40237178D01*
X22075000Y42787837D02*
X22075000Y44060985D01*
X17044200Y53750000D02*
X15525000Y55269200D01*
X24800480Y61525480D02*
X29475000Y66200000D01*
X17375480Y61525480D02*
X24800480Y61525480D01*
X22050978Y50749022D02*
X19050000Y53750000D01*
X22000979Y42713817D02*
X22075000Y42787837D01*
X19050000Y53750000D02*
X17044200Y53750000D01*
X22075000Y44060985D02*
X22050978Y44085007D01*
X15525000Y59675000D02*
X17375480Y61525480D01*
X22000978Y40286191D02*
X22000979Y42713817D01*
X14000000Y27450000D02*
X14000000Y28050000D01*
X22050978Y44085007D02*
X22050978Y50749022D01*
X29475000Y66200000D02*
X29475000Y67975000D01*
X22449500Y39652518D02*
X22449501Y40402660D01*
X22474510Y44226469D02*
X22450489Y44250490D01*
X18789994Y27450000D02*
X22474511Y31134517D01*
X22400490Y42548333D02*
X22474511Y42622355D01*
X22474511Y39485657D02*
X22474514Y39627500D01*
X22449501Y40402660D02*
X22400489Y40451672D01*
X18468720Y54200480D02*
X18150480Y54518720D01*
X28175000Y60825000D02*
X28800000Y60200000D01*
X22474511Y39627503D02*
X22474511Y39627507D01*
X22474511Y42622355D02*
X22474510Y44226469D01*
X28800000Y60200000D02*
X33125000Y60200000D01*
X22474514Y39627500D02*
X22474511Y39627503D01*
X18150480Y60050480D02*
X18925000Y60825000D01*
X16400000Y27450000D02*
X18789994Y27450000D01*
X19164514Y54200480D02*
X18468720Y54200480D01*
X22400489Y40451672D02*
X22400490Y42548333D01*
X18925000Y60825000D02*
X28175000Y60825000D01*
X22450489Y44250490D02*
X22450488Y50914506D01*
X18150480Y54518720D02*
X18150480Y60050480D01*
X22450488Y50914506D02*
X19164514Y54200480D01*
X22474511Y39627507D02*
X22449500Y39652518D01*
X22474511Y31134517D02*
X22474511Y39485657D01*
X48475000Y66700000D02*
X45900000Y66700000D01*
X44700000Y65500000D02*
X40190000Y65500000D01*
X45900000Y66700000D02*
X44700000Y65500000D01*
X44710000Y66110000D02*
X40790000Y66110000D01*
X45800000Y67200000D02*
X44710000Y66110000D01*
X48475000Y67200000D02*
X45800000Y67200000D01*
%TA.AperFunction,Conductor*%
G36*
X6590629Y122499523D02*
G01*
X6771175Y122481741D01*
X6790205Y122477955D01*
X6874673Y122452333D01*
X6959140Y122426710D01*
X6977070Y122419283D01*
X7132756Y122336067D01*
X7148893Y122325285D01*
X7289129Y122210196D01*
X7296328Y122203672D01*
X7708116Y121791884D01*
X7714556Y121784787D01*
X7828275Y121646595D01*
X7838952Y121630708D01*
X7921662Y121477442D01*
X7929080Y121459801D01*
X7931399Y121452337D01*
X7980741Y121293485D01*
X7984625Y121274742D01*
X7985744Y121264374D01*
X8003826Y121096790D01*
X8004391Y121087223D01*
X8100000Y112100000D01*
X9614196Y112112698D01*
X9675292Y112092243D01*
X9697159Y112075464D01*
X9843238Y112014956D01*
X10000000Y111994318D01*
X10156762Y112014956D01*
X10302841Y112075464D01*
X10333216Y112098772D01*
X10392651Y112119226D01*
X17725552Y112180717D01*
X17786646Y112160263D01*
X17897159Y112075464D01*
X18043238Y112014956D01*
X18200000Y111994318D01*
X18356762Y112014956D01*
X18502841Y112075464D01*
X18623821Y112168295D01*
X18683254Y112188748D01*
X25664078Y112247288D01*
X25722425Y112228869D01*
X25743449Y112208559D01*
X25771718Y112171718D01*
X25897159Y112075464D01*
X26043238Y112014956D01*
X26200000Y111994318D01*
X26356762Y112014956D01*
X26502841Y112075464D01*
X26628282Y112171718D01*
X26632236Y112176871D01*
X26663482Y112217591D01*
X26713907Y112252246D01*
X26741194Y112256320D01*
X28269763Y112269138D01*
X33612933Y112313945D01*
X33671277Y112295527D01*
X33692300Y112275218D01*
X33771718Y112171718D01*
X33897159Y112075464D01*
X34043238Y112014956D01*
X34200000Y111994318D01*
X34356762Y112014956D01*
X34502841Y112075464D01*
X34628282Y112171718D01*
X34715292Y112285111D01*
X34765715Y112319767D01*
X34793001Y112323841D01*
X41773187Y112382375D01*
X41831533Y112363956D01*
X41865480Y112321264D01*
X41875464Y112297159D01*
X41971718Y112171718D01*
X42097159Y112075464D01*
X42243238Y112014956D01*
X42400000Y111994318D01*
X42556762Y112014956D01*
X42702841Y112075464D01*
X42828282Y112171718D01*
X42924536Y112297159D01*
X42938884Y112331798D01*
X42978620Y112378324D01*
X43029518Y112392910D01*
X43553927Y112397308D01*
X49745496Y112449229D01*
X49803841Y112430810D01*
X49837788Y112388117D01*
X49872979Y112303156D01*
X49872980Y112303155D01*
X49875464Y112297159D01*
X49971718Y112171718D01*
X50097159Y112075464D01*
X50243238Y112014956D01*
X50400000Y111994318D01*
X50556762Y112014956D01*
X50702841Y112075464D01*
X50828282Y112171718D01*
X50924536Y112297159D01*
X50927020Y112303155D01*
X50927021Y112303156D01*
X50966769Y112399118D01*
X51006505Y112445644D01*
X51057402Y112460230D01*
X54786726Y112491503D01*
X54796485Y112491103D01*
X54978127Y112474653D01*
X54997290Y112470987D01*
X55167466Y112420628D01*
X55185538Y112413275D01*
X55212396Y112399118D01*
X55342539Y112330517D01*
X55358807Y112319770D01*
X55496534Y112207823D01*
X55510382Y112194090D01*
X55623469Y112057318D01*
X55634359Y112041130D01*
X55718431Y111884830D01*
X55725936Y111866820D01*
X55777720Y111697071D01*
X55781546Y111677940D01*
X55799518Y111496448D01*
X55800000Y111486692D01*
X55800000Y107304861D01*
X55799523Y107295157D01*
X55781741Y107114614D01*
X55777955Y107095580D01*
X55726710Y106926647D01*
X55719283Y106908717D01*
X55636067Y106753031D01*
X55625285Y106736894D01*
X55513290Y106600427D01*
X55499573Y106586710D01*
X55418163Y106519898D01*
X55363106Y106474715D01*
X55346969Y106463933D01*
X55191283Y106380717D01*
X55173353Y106373290D01*
X55088886Y106347667D01*
X55004418Y106322045D01*
X54985388Y106318259D01*
X54805412Y106300533D01*
X54804843Y106300477D01*
X54795139Y106300000D01*
X8145811Y106300000D01*
X8135557Y106300533D01*
X7944881Y106320390D01*
X7924811Y106324616D01*
X7747234Y106381755D01*
X7728467Y106390025D01*
X7566473Y106482527D01*
X7549812Y106494487D01*
X7406491Y106621815D01*
X7399178Y106629024D01*
X4799083Y109472878D01*
X4799082Y109472879D01*
X4797354Y109474769D01*
X4500000Y109800000D01*
X2542947Y109800000D01*
X2532751Y109800526D01*
X2529621Y109800850D01*
X2343139Y109820159D01*
X2323188Y109824335D01*
X2146518Y109880833D01*
X2127840Y109889011D01*
X1966502Y109980503D01*
X1949894Y109992335D01*
X1806866Y110118339D01*
X1799563Y110125474D01*
X1168319Y110809322D01*
X1162395Y110816372D01*
X1057860Y110953243D01*
X1048093Y110968853D01*
X972812Y111118578D01*
X966104Y111135735D01*
X919868Y111296810D01*
X916454Y111314913D01*
X900429Y111486392D01*
X900000Y111495604D01*
X900000Y121052469D01*
X900536Y121062759D01*
X920530Y121254087D01*
X924785Y121274221D01*
X982306Y121452337D01*
X990631Y121471156D01*
X1083735Y121633536D01*
X1095772Y121650229D01*
X1223893Y121793723D01*
X1231145Y121801041D01*
X1710555Y122236868D01*
X1717585Y122242690D01*
X1827234Y122325285D01*
X1853747Y122345257D01*
X1869260Y122354839D01*
X2017807Y122428646D01*
X2034814Y122435222D01*
X2040472Y122436829D01*
X2194399Y122480539D01*
X2212311Y122483880D01*
X2382055Y122499579D01*
X2391172Y122500000D01*
X6580925Y122500000D01*
X6590629Y122499523D01*
G37*
%TD.AperFunction*%
%TA.AperFunction,Conductor*%
G36*
X10283691Y88481093D02*
G01*
X10319655Y88431593D01*
X10324500Y88401000D01*
X10324500Y88074928D01*
X10304720Y88015555D01*
X10231474Y87917824D01*
X10181149Y87783580D01*
X10174500Y87722377D01*
X10174501Y87077624D01*
X10174790Y87074965D01*
X10174790Y87074962D01*
X10177743Y87047781D01*
X10181149Y87016420D01*
X10197433Y86972981D01*
X10226605Y86895165D01*
X10231474Y86882176D01*
X10317454Y86767454D01*
X10432176Y86681474D01*
X10438782Y86678997D01*
X10438785Y86678996D01*
X10489088Y86660139D01*
X10566420Y86631149D01*
X10627623Y86624500D01*
X10874907Y86624500D01*
X11122376Y86624501D01*
X11125035Y86624790D01*
X11125038Y86624790D01*
X11177405Y86630478D01*
X11177407Y86630478D01*
X11183580Y86631149D01*
X11260912Y86660139D01*
X11311215Y86678996D01*
X11311218Y86678997D01*
X11317824Y86681474D01*
X11432546Y86767454D01*
X11518526Y86882176D01*
X11523396Y86895165D01*
X11547122Y86958458D01*
X11568851Y87016420D01*
X11575500Y87077623D01*
X11575499Y87722376D01*
X11575499Y87722377D01*
X11824500Y87722377D01*
X11824501Y87077624D01*
X11824790Y87074965D01*
X11824790Y87074962D01*
X11827743Y87047781D01*
X11831149Y87016420D01*
X11847433Y86972981D01*
X11876605Y86895165D01*
X11881474Y86882176D01*
X11967454Y86767454D01*
X12082176Y86681474D01*
X12088782Y86678997D01*
X12088785Y86678996D01*
X12139088Y86660139D01*
X12216420Y86631149D01*
X12277623Y86624500D01*
X12524907Y86624500D01*
X12772376Y86624501D01*
X12775035Y86624790D01*
X12775038Y86624790D01*
X12827405Y86630478D01*
X12827407Y86630478D01*
X12833580Y86631149D01*
X12910912Y86660139D01*
X12961215Y86678996D01*
X12961218Y86678997D01*
X12967824Y86681474D01*
X13082546Y86767454D01*
X13153889Y86862646D01*
X13203915Y86897869D01*
X13246027Y86901424D01*
X13300000Y86894318D01*
X13456762Y86914956D01*
X13602841Y86975464D01*
X13728282Y87071718D01*
X13824536Y87197159D01*
X13885044Y87343238D01*
X13905682Y87500000D01*
X13885044Y87656762D01*
X13824536Y87802841D01*
X13728282Y87928282D01*
X13602841Y88024536D01*
X13456762Y88085044D01*
X13300000Y88105682D01*
X13143238Y88085044D01*
X13137241Y88082560D01*
X13111153Y88071754D01*
X13050156Y88066953D01*
X13013894Y88083998D01*
X13012499Y88085044D01*
X12967824Y88118526D01*
X12961218Y88121003D01*
X12961215Y88121004D01*
X12875500Y88153136D01*
X12833580Y88168851D01*
X12772377Y88175500D01*
X12525093Y88175500D01*
X12277624Y88175499D01*
X12274965Y88175210D01*
X12274962Y88175210D01*
X12222595Y88169522D01*
X12222593Y88169522D01*
X12216420Y88168851D01*
X12199879Y88162650D01*
X12088785Y88121004D01*
X12088782Y88121003D01*
X12082176Y88118526D01*
X11967454Y88032546D01*
X11881474Y87917824D01*
X11831149Y87783580D01*
X11824500Y87722377D01*
X11575499Y87722377D01*
X11568851Y87783580D01*
X11518526Y87917824D01*
X11432546Y88032546D01*
X11317824Y88118526D01*
X11289748Y88129051D01*
X11241897Y88167182D01*
X11225500Y88221751D01*
X11225500Y88401000D01*
X11244407Y88459191D01*
X11293907Y88495155D01*
X11324500Y88500000D01*
X18622991Y88500000D01*
X18681182Y88481093D01*
X18715039Y88437445D01*
X18724295Y88414069D01*
X18740134Y88374064D01*
X18830289Y88255289D01*
X18949064Y88165134D01*
X19087708Y88110241D01*
X19176466Y88099500D01*
X19748534Y88099500D01*
X19837292Y88110241D01*
X19975936Y88165134D01*
X20094711Y88255289D01*
X20184866Y88374064D01*
X20200705Y88414069D01*
X20209961Y88437445D01*
X20248963Y88484589D01*
X20302009Y88500000D01*
X20497991Y88500000D01*
X20556182Y88481093D01*
X20590039Y88437445D01*
X20599295Y88414069D01*
X20615134Y88374064D01*
X20705289Y88255289D01*
X20824064Y88165134D01*
X20962708Y88110241D01*
X21051466Y88099500D01*
X21623534Y88099500D01*
X21712292Y88110241D01*
X21850936Y88165134D01*
X21969711Y88255289D01*
X22059866Y88374064D01*
X22075705Y88414069D01*
X22084961Y88437445D01*
X22123963Y88484589D01*
X22177009Y88500000D01*
X31495139Y88500000D01*
X31504843Y88499523D01*
X31685388Y88481741D01*
X31704418Y88477955D01*
X31766277Y88459191D01*
X31873353Y88426710D01*
X31891283Y88419283D01*
X32046969Y88336067D01*
X32063106Y88325285D01*
X32199573Y88213290D01*
X32213290Y88199573D01*
X32237953Y88169521D01*
X32325285Y88063106D01*
X32336067Y88046969D01*
X32419283Y87891283D01*
X32426710Y87873353D01*
X32471701Y87725038D01*
X32477955Y87704420D01*
X32481741Y87685388D01*
X32485194Y87650326D01*
X32499523Y87504843D01*
X32500000Y87495139D01*
X32500000Y85004861D01*
X32499523Y84995157D01*
X32482768Y84825038D01*
X32481741Y84814614D01*
X32477955Y84795580D01*
X32426710Y84626647D01*
X32419283Y84608717D01*
X32336067Y84453031D01*
X32325285Y84436894D01*
X32315114Y84424500D01*
X32213290Y84300427D01*
X32199573Y84286710D01*
X32133196Y84232236D01*
X32063106Y84174715D01*
X32046969Y84163933D01*
X31891283Y84080717D01*
X31873353Y84073290D01*
X31833214Y84061114D01*
X31704418Y84022045D01*
X31685388Y84018259D01*
X31504843Y84000477D01*
X31495139Y84000000D01*
X30533284Y84000000D01*
X30475093Y84018907D01*
X30441820Y84061114D01*
X30434347Y84079154D01*
X30424536Y84102841D01*
X30328282Y84228282D01*
X30202841Y84324536D01*
X30056762Y84385044D01*
X29900000Y84405682D01*
X29743238Y84385044D01*
X29597159Y84324536D01*
X29471718Y84228282D01*
X29375464Y84102841D01*
X29365653Y84079154D01*
X29358180Y84061114D01*
X29318443Y84014589D01*
X29266716Y84000000D01*
X22368423Y84000000D01*
X22314218Y84018399D01*
X22313607Y84017342D01*
X22308291Y84020411D01*
X22308159Y84020456D01*
X22307993Y84020583D01*
X22307992Y84020584D01*
X22302841Y84024536D01*
X22156762Y84085044D01*
X22157357Y84086479D01*
X22112522Y84115597D01*
X22090597Y84172719D01*
X22091308Y84190820D01*
X22104835Y84293566D01*
X22105682Y84300000D01*
X22094486Y84385044D01*
X22085891Y84450331D01*
X22085890Y84450334D01*
X22085044Y84456762D01*
X22080822Y84466955D01*
X22076022Y84527952D01*
X22100920Y84572414D01*
X22101867Y84573133D01*
X22107799Y84580947D01*
X22183800Y84681075D01*
X22183801Y84681077D01*
X22187881Y84686452D01*
X22191126Y84694646D01*
X22207952Y84737145D01*
X22246953Y84784289D01*
X22306217Y84799505D01*
X22363105Y84776981D01*
X22392048Y84737145D01*
X22408875Y84694646D01*
X22412119Y84686452D01*
X22416199Y84681077D01*
X22416200Y84681075D01*
X22467030Y84614109D01*
X22498133Y84573133D01*
X22503516Y84569047D01*
X22559583Y84526490D01*
X22611452Y84487119D01*
X22617723Y84484636D01*
X22617725Y84484635D01*
X22662380Y84466955D01*
X22743727Y84434747D01*
X22750036Y84433984D01*
X22750038Y84433983D01*
X22825439Y84424859D01*
X22828406Y84424500D01*
X23346594Y84424500D01*
X23349561Y84424859D01*
X23424962Y84433983D01*
X23424964Y84433984D01*
X23431273Y84434747D01*
X23512620Y84466955D01*
X23557275Y84484635D01*
X23557277Y84484636D01*
X23563548Y84487119D01*
X23615418Y84526490D01*
X23671484Y84569047D01*
X23676867Y84573133D01*
X23680953Y84578516D01*
X23685719Y84583282D01*
X23688054Y84580947D01*
X23727056Y84608163D01*
X23768768Y84611595D01*
X23900000Y84594318D01*
X24056762Y84614956D01*
X24202841Y84675464D01*
X24328282Y84771718D01*
X24424536Y84897159D01*
X24485044Y85043238D01*
X24505682Y85200000D01*
X24485044Y85356762D01*
X24424536Y85502841D01*
X24328282Y85628282D01*
X24202841Y85724536D01*
X24056762Y85785044D01*
X23900000Y85805682D01*
X23768768Y85788405D01*
X23708608Y85799555D01*
X23687078Y85818077D01*
X23685719Y85816718D01*
X23680953Y85821484D01*
X23676867Y85826867D01*
X23563548Y85912881D01*
X23557277Y85915364D01*
X23557275Y85915365D01*
X23506827Y85935339D01*
X23431273Y85965253D01*
X23424964Y85966016D01*
X23424962Y85966017D01*
X23349561Y85975141D01*
X23349560Y85975141D01*
X23346594Y85975500D01*
X22828406Y85975500D01*
X22825440Y85975141D01*
X22825439Y85975141D01*
X22750038Y85966017D01*
X22750036Y85966016D01*
X22743727Y85965253D01*
X22668173Y85935339D01*
X22617725Y85915365D01*
X22617723Y85915364D01*
X22611452Y85912881D01*
X22498133Y85826867D01*
X22494047Y85821484D01*
X22466388Y85785044D01*
X22412119Y85713548D01*
X22409636Y85707277D01*
X22409635Y85707275D01*
X22392048Y85662855D01*
X22353047Y85615711D01*
X22293783Y85600495D01*
X22236895Y85623019D01*
X22207952Y85662855D01*
X22190365Y85707275D01*
X22190364Y85707277D01*
X22187881Y85713548D01*
X22133613Y85785044D01*
X22105953Y85821484D01*
X22101867Y85826867D01*
X21988548Y85912881D01*
X21982277Y85915364D01*
X21982275Y85915365D01*
X21931827Y85935339D01*
X21856273Y85965253D01*
X21849964Y85966016D01*
X21849962Y85966017D01*
X21774561Y85975141D01*
X21774560Y85975141D01*
X21771594Y85975500D01*
X21253406Y85975500D01*
X21250440Y85975141D01*
X21250439Y85975141D01*
X21175038Y85966017D01*
X21175036Y85966016D01*
X21168727Y85965253D01*
X21093173Y85935339D01*
X21042725Y85915365D01*
X21042723Y85915364D01*
X21036452Y85912881D01*
X20923133Y85826867D01*
X20919047Y85821484D01*
X20891388Y85785044D01*
X20837119Y85713548D01*
X20784747Y85581273D01*
X20774500Y85496594D01*
X20774500Y84903406D01*
X20774859Y84900440D01*
X20774859Y84900439D01*
X20781611Y84844646D01*
X20784747Y84818727D01*
X20804925Y84767764D01*
X20833875Y84694646D01*
X20837119Y84686452D01*
X20914680Y84584270D01*
X20934801Y84526490D01*
X20927288Y84486533D01*
X20914956Y84456762D01*
X20914110Y84450334D01*
X20914109Y84450331D01*
X20905514Y84385044D01*
X20894318Y84300000D01*
X20914956Y84143238D01*
X20917439Y84137244D01*
X20917588Y84136885D01*
X20917610Y84136607D01*
X20919119Y84130975D01*
X20918075Y84130695D01*
X20922387Y84075888D01*
X20890418Y84023719D01*
X20833889Y84000305D01*
X20826123Y84000000D01*
X8000000Y84000000D01*
X8000000Y49588280D01*
X7999533Y49578679D01*
X7982125Y49400026D01*
X7978418Y49381185D01*
X7928238Y49213883D01*
X7920964Y49196112D01*
X7839428Y49041640D01*
X7828860Y49025608D01*
X7719041Y48889785D01*
X7705580Y48876097D01*
X7571598Y48764022D01*
X7555745Y48753189D01*
X7498440Y48721710D01*
X7402654Y48669092D01*
X7385008Y48661523D01*
X7339134Y48646926D01*
X7218564Y48608561D01*
X7199792Y48604541D01*
X7170874Y48601236D01*
X7021439Y48584157D01*
X7011847Y48583531D01*
X4379424Y48539657D01*
X2983336Y48516389D01*
X2983335Y48516389D01*
X2000000Y48500000D01*
X2000000Y26000000D01*
X2672330Y26000000D01*
X2772865Y25902063D01*
X2776638Y25899542D01*
X2944899Y25787113D01*
X2944902Y25787111D01*
X2948677Y25784589D01*
X3042432Y25744309D01*
X3138774Y25702917D01*
X3138778Y25702916D01*
X3142953Y25701122D01*
X3147387Y25700119D01*
X3147386Y25700119D01*
X3344760Y25655457D01*
X3344765Y25655456D01*
X3349186Y25654456D01*
X3454828Y25650305D01*
X3555937Y25646332D01*
X3555938Y25646332D01*
X3560470Y25646154D01*
X3769730Y25676496D01*
X3774029Y25677955D01*
X3774032Y25677956D01*
X3965654Y25743003D01*
X3969955Y25744463D01*
X4154442Y25847781D01*
X4303697Y25971914D01*
X4309952Y25977116D01*
X4366782Y25999788D01*
X4373256Y26000000D01*
X5172080Y26000000D01*
X5230271Y25981093D01*
X5241161Y25971914D01*
X5312865Y25902063D01*
X5316638Y25899542D01*
X5484899Y25787113D01*
X5484902Y25787111D01*
X5488677Y25784589D01*
X5582432Y25744309D01*
X5678774Y25702917D01*
X5678778Y25702916D01*
X5682953Y25701122D01*
X5687387Y25700119D01*
X5687386Y25700119D01*
X5884760Y25655457D01*
X5884765Y25655456D01*
X5889186Y25654456D01*
X5994828Y25650305D01*
X6095937Y25646332D01*
X6095938Y25646332D01*
X6100470Y25646154D01*
X6309730Y25676496D01*
X6314029Y25677955D01*
X6314032Y25677956D01*
X6505654Y25743003D01*
X6509955Y25744463D01*
X6694442Y25847781D01*
X6843697Y25971914D01*
X6849952Y25977116D01*
X6906782Y25999788D01*
X6913256Y26000000D01*
X7495139Y26000000D01*
X7504843Y25999523D01*
X7685388Y25981741D01*
X7704418Y25977955D01*
X7788887Y25952332D01*
X7873353Y25926710D01*
X7891283Y25919283D01*
X8046969Y25836067D01*
X8063106Y25825285D01*
X8199573Y25713290D01*
X8213290Y25699573D01*
X8231031Y25677956D01*
X8325285Y25563106D01*
X8336067Y25546969D01*
X8419283Y25391283D01*
X8426710Y25373353D01*
X8477955Y25204420D01*
X8481741Y25185386D01*
X8499523Y25004843D01*
X8500000Y24995139D01*
X8500000Y18866771D01*
X8481093Y18808580D01*
X8431593Y18772616D01*
X8370407Y18772616D01*
X8363123Y18775304D01*
X8281027Y18809309D01*
X8124265Y18829947D01*
X7967503Y18809309D01*
X7821424Y18748801D01*
X7695983Y18652547D01*
X7599729Y18527106D01*
X7539221Y18381027D01*
X7518583Y18224265D01*
X7539221Y18067503D01*
X7599729Y17921424D01*
X7603675Y17916281D01*
X7603680Y17916273D01*
X7625213Y17888212D01*
X7645638Y17830537D01*
X7625214Y17767677D01*
X7588005Y17719185D01*
X7575464Y17702841D01*
X7514956Y17556762D01*
X7494318Y17400000D01*
X7514956Y17243238D01*
X7517440Y17237241D01*
X7538091Y17187386D01*
X7542892Y17126389D01*
X7510923Y17074220D01*
X7454395Y17050805D01*
X7446627Y17050500D01*
X7182008Y17050500D01*
X7123817Y17069407D01*
X7093218Y17105713D01*
X7027173Y17239638D01*
X7025165Y17243710D01*
X6898651Y17413133D01*
X6743381Y17556663D01*
X6733720Y17562759D01*
X6568391Y17667074D01*
X6564554Y17669495D01*
X6368160Y17747848D01*
X6160775Y17789099D01*
X6056599Y17790463D01*
X5953886Y17791808D01*
X5953881Y17791808D01*
X5949346Y17791867D01*
X5944873Y17791098D01*
X5944868Y17791098D01*
X5851563Y17775065D01*
X5740953Y17756059D01*
X5542575Y17682873D01*
X5538676Y17680554D01*
X5538671Y17680551D01*
X5364762Y17577086D01*
X5360856Y17574762D01*
X5357441Y17571767D01*
X5357438Y17571765D01*
X5254262Y17481282D01*
X5201881Y17435345D01*
X5199073Y17431783D01*
X5082635Y17284081D01*
X5070976Y17269292D01*
X5068862Y17265274D01*
X4976008Y17088787D01*
X4972523Y17082164D01*
X4968562Y17069407D01*
X4934993Y16961296D01*
X4909820Y16880227D01*
X4884967Y16670246D01*
X4898796Y16459251D01*
X4899912Y16454858D01*
X4899912Y16454856D01*
X4947549Y16267287D01*
X4950845Y16254310D01*
X4952747Y16250185D01*
X4952747Y16250184D01*
X5019455Y16105484D01*
X5039369Y16062286D01*
X5041987Y16058582D01*
X5041988Y16058580D01*
X5078697Y16006638D01*
X5096842Y15948204D01*
X5077174Y15890266D01*
X5027208Y15854953D01*
X4997850Y15850500D01*
X4967611Y15850500D01*
X4909420Y15869407D01*
X4897607Y15879496D01*
X4612124Y16164979D01*
X4584347Y16219496D01*
X4588382Y16266802D01*
X4623504Y16370270D01*
X4637062Y16463777D01*
X4653426Y16576631D01*
X4653426Y16576637D01*
X4653846Y16579530D01*
X4655429Y16640000D01*
X4655132Y16643238D01*
X4640404Y16803512D01*
X4636081Y16850560D01*
X4606129Y16956762D01*
X4579920Y17049694D01*
X4579920Y17049695D01*
X4578686Y17054069D01*
X4485165Y17243710D01*
X4358651Y17413133D01*
X4203381Y17556663D01*
X4193720Y17562759D01*
X4028391Y17667074D01*
X4024554Y17669495D01*
X3828160Y17747848D01*
X3620775Y17789099D01*
X3516599Y17790463D01*
X3413886Y17791808D01*
X3413881Y17791808D01*
X3409346Y17791867D01*
X3404873Y17791098D01*
X3404868Y17791098D01*
X3311563Y17775065D01*
X3200953Y17756059D01*
X3002575Y17682873D01*
X2998676Y17680554D01*
X2998671Y17680551D01*
X2824762Y17577086D01*
X2820856Y17574762D01*
X2817441Y17571767D01*
X2817438Y17571765D01*
X2714262Y17481282D01*
X2661881Y17435345D01*
X2659073Y17431783D01*
X2542635Y17284081D01*
X2530976Y17269292D01*
X2528862Y17265274D01*
X2436008Y17088787D01*
X2432523Y17082164D01*
X2428562Y17069407D01*
X2394993Y16961296D01*
X2369820Y16880227D01*
X2344967Y16670246D01*
X2358796Y16459251D01*
X2359912Y16454858D01*
X2359912Y16454856D01*
X2407549Y16267287D01*
X2410845Y16254310D01*
X2412747Y16250185D01*
X2412747Y16250184D01*
X2479455Y16105484D01*
X2499369Y16062286D01*
X2621405Y15889609D01*
X2772865Y15742063D01*
X2776638Y15739542D01*
X2944899Y15627113D01*
X2944902Y15627111D01*
X2948677Y15624589D01*
X3005910Y15600000D01*
X3138774Y15542917D01*
X3138778Y15542916D01*
X3142953Y15541122D01*
X3147387Y15540119D01*
X3147386Y15540119D01*
X3344760Y15495457D01*
X3344765Y15495456D01*
X3349186Y15494456D01*
X3454828Y15490305D01*
X3555937Y15486332D01*
X3555938Y15486332D01*
X3560470Y15486154D01*
X3769730Y15516496D01*
X3873197Y15551618D01*
X3934374Y15552419D01*
X3975021Y15527876D01*
X4379549Y15123348D01*
X4407326Y15068831D01*
X4404898Y15053497D01*
X4423391Y15057176D01*
X4468041Y15040304D01*
X4476061Y15034762D01*
X4476732Y15034298D01*
X4479263Y15032489D01*
X4500690Y15016663D01*
X4526817Y14997365D01*
X4533634Y14994971D01*
X4539569Y14990869D01*
X4546622Y14988638D01*
X4546625Y14988637D01*
X4571893Y14980646D01*
X4595904Y14973052D01*
X4598841Y14972072D01*
X4647648Y14954932D01*
X4647650Y14954932D01*
X4654631Y14952480D01*
X4660673Y14952242D01*
X4663353Y14951720D01*
X4668730Y14950020D01*
X4675337Y14949500D01*
X4728531Y14949500D01*
X4732417Y14949424D01*
X4782604Y14947452D01*
X4782606Y14947452D01*
X4789994Y14947162D01*
X4796772Y14948959D01*
X4806598Y14949500D01*
X5040464Y14949500D01*
X5098655Y14930593D01*
X5134619Y14881093D01*
X5134619Y14819907D01*
X5118211Y14789210D01*
X5086907Y14749500D01*
X5070976Y14729292D01*
X5068862Y14725274D01*
X4976383Y14549500D01*
X4972523Y14542164D01*
X4909820Y14340227D01*
X4909286Y14335717D01*
X4909286Y14335716D01*
X4898092Y14241134D01*
X4884967Y14130246D01*
X4889562Y14060139D01*
X4896035Y13961382D01*
X4898796Y13919251D01*
X4899912Y13914858D01*
X4899912Y13914856D01*
X4921678Y13829154D01*
X4950845Y13714310D01*
X4952747Y13710185D01*
X4952747Y13710184D01*
X5008111Y13590091D01*
X5039369Y13522286D01*
X5161405Y13349609D01*
X5312865Y13202063D01*
X5316638Y13199542D01*
X5484899Y13087113D01*
X5484902Y13087111D01*
X5488677Y13084589D01*
X5585472Y13043003D01*
X5678774Y13002917D01*
X5678778Y13002916D01*
X5682953Y13001122D01*
X5687387Y13000119D01*
X5687386Y13000119D01*
X5884760Y12955457D01*
X5884765Y12955456D01*
X5889186Y12954456D01*
X5994828Y12950305D01*
X6095937Y12946332D01*
X6095938Y12946332D01*
X6100470Y12946154D01*
X6309730Y12976496D01*
X6314029Y12977955D01*
X6314032Y12977956D01*
X6505654Y13043003D01*
X6509955Y13044463D01*
X6531917Y13056762D01*
X6690481Y13145563D01*
X6694442Y13147781D01*
X6857012Y13282988D01*
X6992219Y13445558D01*
X7066114Y13577506D01*
X7093319Y13626084D01*
X7093320Y13626086D01*
X7095537Y13630045D01*
X7118127Y13696594D01*
X7162044Y13825968D01*
X7162045Y13825971D01*
X7163504Y13830270D01*
X7180792Y13949500D01*
X7193426Y14036631D01*
X7193426Y14036637D01*
X7193846Y14039530D01*
X7195429Y14100000D01*
X7194246Y14112881D01*
X7176496Y14306040D01*
X7176081Y14310560D01*
X7155697Y14382837D01*
X7119920Y14509694D01*
X7119920Y14509695D01*
X7118686Y14514069D01*
X7025165Y14703710D01*
X6959784Y14791266D01*
X6940116Y14849204D01*
X6958261Y14907637D01*
X7007286Y14944246D01*
X7039108Y14949500D01*
X8401000Y14949500D01*
X8459191Y14930593D01*
X8495155Y14881093D01*
X8500000Y14850500D01*
X8500000Y9685064D01*
X8481093Y9626873D01*
X8431593Y9590909D01*
X8381687Y9587966D01*
X8326024Y9599038D01*
X8217347Y9600461D01*
X8109946Y9601867D01*
X8109941Y9601867D01*
X8105406Y9601926D01*
X8100933Y9601157D01*
X8100928Y9601157D01*
X7892435Y9565332D01*
X7892429Y9565330D01*
X7887957Y9564562D01*
X7833945Y9544636D01*
X7685220Y9489769D01*
X7685217Y9489768D01*
X7680957Y9488196D01*
X7491341Y9375386D01*
X7487926Y9372391D01*
X7487923Y9372389D01*
X7380036Y9277775D01*
X7325457Y9229910D01*
X7188863Y9056640D01*
X7086131Y8861380D01*
X7084787Y8857051D01*
X7031484Y8685386D01*
X7020703Y8650667D01*
X6999500Y8471524D01*
X6999500Y6544030D01*
X7014546Y6380289D01*
X7074435Y6167936D01*
X7076443Y6163864D01*
X7076445Y6163859D01*
X7088892Y6138620D01*
X7172020Y5970053D01*
X7304033Y5793267D01*
X7466051Y5643499D01*
X7652650Y5525764D01*
X7857579Y5444006D01*
X8073976Y5400962D01*
X8182653Y5399539D01*
X8290054Y5398133D01*
X8290059Y5398133D01*
X8294594Y5398074D01*
X8299067Y5398843D01*
X8299072Y5398843D01*
X8500000Y5433368D01*
X8500000Y5000000D01*
X43000000Y5000000D01*
X43000000Y8495139D01*
X43000477Y8504843D01*
X43018259Y8685386D01*
X43022045Y8704420D01*
X43073290Y8873353D01*
X43080717Y8891283D01*
X43163933Y9046969D01*
X43174715Y9063106D01*
X43219898Y9118163D01*
X43286710Y9199573D01*
X43300427Y9213290D01*
X43436894Y9325285D01*
X43453031Y9336067D01*
X43608717Y9419283D01*
X43626647Y9426710D01*
X43711113Y9452332D01*
X43795582Y9477955D01*
X43814612Y9481741D01*
X43995157Y9499523D01*
X44004861Y9500000D01*
X45995139Y9500000D01*
X46004843Y9499523D01*
X46185388Y9481741D01*
X46204418Y9477955D01*
X46288887Y9452332D01*
X46373353Y9426710D01*
X46391283Y9419283D01*
X46546969Y9336067D01*
X46563106Y9325285D01*
X46699573Y9213290D01*
X46713290Y9199573D01*
X46780102Y9118163D01*
X46825285Y9063106D01*
X46836067Y9046969D01*
X46919283Y8891283D01*
X46926710Y8873353D01*
X46977955Y8704420D01*
X46981741Y8685386D01*
X46999523Y8504843D01*
X47000000Y8495139D01*
X47000000Y1504861D01*
X46999523Y1495157D01*
X46983935Y1336885D01*
X46981741Y1314614D01*
X46977955Y1295580D01*
X46926710Y1126647D01*
X46919283Y1108717D01*
X46836067Y953031D01*
X46825285Y936894D01*
X46713290Y800427D01*
X46699573Y786710D01*
X46666491Y759560D01*
X46563106Y674715D01*
X46546969Y663933D01*
X46391283Y580717D01*
X46373353Y573290D01*
X46288887Y547668D01*
X46204418Y522045D01*
X46185388Y518259D01*
X46004843Y500477D01*
X45995139Y500000D01*
X1504861Y500000D01*
X1495157Y500477D01*
X1314612Y518259D01*
X1295582Y522045D01*
X1211113Y547668D01*
X1126647Y573290D01*
X1108717Y580717D01*
X953031Y663933D01*
X936894Y674715D01*
X833509Y759560D01*
X800427Y786710D01*
X786710Y800427D01*
X674715Y936894D01*
X663933Y953031D01*
X580717Y1108717D01*
X573290Y1126647D01*
X522045Y1295580D01*
X518259Y1314614D01*
X516066Y1336885D01*
X500477Y1495157D01*
X500000Y1504861D01*
X500000Y1764037D01*
X1494757Y1764037D01*
X1511175Y1568517D01*
X1512508Y1563869D01*
X1512508Y1563868D01*
X1524320Y1522677D01*
X1565258Y1379909D01*
X1567473Y1375599D01*
X1652731Y1209704D01*
X1652734Y1209700D01*
X1654944Y1205399D01*
X1776818Y1051631D01*
X1780505Y1048493D01*
X1780507Y1048491D01*
X1922550Y927603D01*
X1922555Y927600D01*
X1926238Y924465D01*
X1930460Y922105D01*
X1930465Y922102D01*
X1971838Y898980D01*
X2097513Y828743D01*
X2184660Y800427D01*
X2279513Y769607D01*
X2279516Y769606D01*
X2284118Y768111D01*
X2478946Y744879D01*
X2483768Y745250D01*
X2483771Y745250D01*
X2669748Y759560D01*
X2669753Y759561D01*
X2674576Y759932D01*
X2863556Y812697D01*
X2867869Y814876D01*
X2867875Y814878D01*
X3034368Y898980D01*
X3034370Y898982D01*
X3038689Y901163D01*
X3065490Y922102D01*
X3189487Y1018978D01*
X3189491Y1018982D01*
X3193303Y1021960D01*
X3218915Y1051631D01*
X3318345Y1166823D01*
X3318347Y1166825D01*
X3321509Y1170489D01*
X3323902Y1174701D01*
X3416036Y1336885D01*
X3416037Y1336888D01*
X3418425Y1341091D01*
X3429905Y1375599D01*
X3478831Y1522677D01*
X3478831Y1522679D01*
X3480358Y1527268D01*
X3504949Y1721929D01*
X3505341Y1750000D01*
X3504438Y1759217D01*
X3486666Y1940454D01*
X3486194Y1945272D01*
X3429484Y2133106D01*
X3337370Y2306347D01*
X3213361Y2458398D01*
X3062180Y2583465D01*
X2889585Y2676787D01*
X2702152Y2734807D01*
X2697342Y2735313D01*
X2697340Y2735313D01*
X2511835Y2754811D01*
X2511833Y2754811D01*
X2507019Y2755317D01*
X2442891Y2749481D01*
X2316438Y2737973D01*
X2316435Y2737972D01*
X2311618Y2737534D01*
X2306976Y2736168D01*
X2306972Y2736167D01*
X2128040Y2683504D01*
X2128037Y2683503D01*
X2123393Y2682136D01*
X1949512Y2591233D01*
X1945743Y2588203D01*
X1945742Y2588202D01*
X1936016Y2580382D01*
X1796600Y2468289D01*
X1770186Y2436810D01*
X1673589Y2321690D01*
X1673586Y2321686D01*
X1670480Y2317984D01*
X1575956Y2146046D01*
X1574492Y2141432D01*
X1574491Y2141429D01*
X1521318Y1973807D01*
X1516628Y1959022D01*
X1494757Y1764037D01*
X500000Y1764037D01*
X500000Y11590246D01*
X2344967Y11590246D01*
X2349956Y11514126D01*
X2355159Y11434747D01*
X2358796Y11379251D01*
X2359912Y11374858D01*
X2359912Y11374856D01*
X2382487Y11285968D01*
X2410845Y11174310D01*
X2412747Y11170185D01*
X2412747Y11170184D01*
X2489633Y11003406D01*
X2499369Y10982286D01*
X2621405Y10809609D01*
X2772865Y10662063D01*
X2776638Y10659542D01*
X2944899Y10547113D01*
X2944902Y10547111D01*
X2948677Y10544589D01*
X3045472Y10503003D01*
X3138774Y10462917D01*
X3138778Y10462916D01*
X3142953Y10461122D01*
X3147387Y10460119D01*
X3147386Y10460119D01*
X3344760Y10415457D01*
X3344765Y10415456D01*
X3349186Y10414456D01*
X3454828Y10410305D01*
X3555937Y10406332D01*
X3555938Y10406332D01*
X3560470Y10406154D01*
X3769730Y10436496D01*
X3774029Y10437955D01*
X3774032Y10437956D01*
X3965654Y10503003D01*
X3969955Y10504463D01*
X4154442Y10607781D01*
X4317012Y10742988D01*
X4452219Y10905558D01*
X4541105Y11064275D01*
X4553319Y11086084D01*
X4553320Y11086086D01*
X4555537Y11090045D01*
X4577710Y11155364D01*
X4622044Y11285968D01*
X4622045Y11285971D01*
X4623504Y11290270D01*
X4647645Y11456762D01*
X4653426Y11496631D01*
X4653426Y11496637D01*
X4653846Y11499530D01*
X4655429Y11560000D01*
X4654223Y11573133D01*
X4652650Y11590246D01*
X4884967Y11590246D01*
X4889956Y11514126D01*
X4895159Y11434747D01*
X4898796Y11379251D01*
X4899912Y11374858D01*
X4899912Y11374856D01*
X4922487Y11285968D01*
X4950845Y11174310D01*
X4952747Y11170185D01*
X4952747Y11170184D01*
X5029633Y11003406D01*
X5039369Y10982286D01*
X5161405Y10809609D01*
X5312865Y10662063D01*
X5316638Y10659542D01*
X5484899Y10547113D01*
X5484902Y10547111D01*
X5488677Y10544589D01*
X5585472Y10503003D01*
X5678774Y10462917D01*
X5678778Y10462916D01*
X5682953Y10461122D01*
X5687387Y10460119D01*
X5687386Y10460119D01*
X5884760Y10415457D01*
X5884765Y10415456D01*
X5889186Y10414456D01*
X5994828Y10410305D01*
X6095937Y10406332D01*
X6095938Y10406332D01*
X6100470Y10406154D01*
X6309730Y10436496D01*
X6314029Y10437955D01*
X6314032Y10437956D01*
X6505654Y10503003D01*
X6509955Y10504463D01*
X6694442Y10607781D01*
X6857012Y10742988D01*
X6992219Y10905558D01*
X7081105Y11064275D01*
X7093319Y11086084D01*
X7093320Y11086086D01*
X7095537Y11090045D01*
X7117710Y11155364D01*
X7162044Y11285968D01*
X7162045Y11285971D01*
X7163504Y11290270D01*
X7187645Y11456762D01*
X7193426Y11496631D01*
X7193426Y11496637D01*
X7193846Y11499530D01*
X7195429Y11560000D01*
X7194223Y11573133D01*
X7184285Y11681273D01*
X7176081Y11770560D01*
X7154758Y11846166D01*
X7119920Y11969694D01*
X7119920Y11969695D01*
X7118686Y11974069D01*
X7025165Y12163710D01*
X6931634Y12288963D01*
X6901367Y12329496D01*
X6901366Y12329497D01*
X6898651Y12333133D01*
X6743381Y12476663D01*
X6711793Y12496594D01*
X6568391Y12587074D01*
X6564554Y12589495D01*
X6368160Y12667848D01*
X6160775Y12709099D01*
X6056599Y12710463D01*
X5953886Y12711808D01*
X5953881Y12711808D01*
X5949346Y12711867D01*
X5944873Y12711098D01*
X5944868Y12711098D01*
X5841601Y12693353D01*
X5740953Y12676059D01*
X5542575Y12602873D01*
X5538676Y12600554D01*
X5538671Y12600551D01*
X5369487Y12499897D01*
X5360856Y12494762D01*
X5357441Y12491767D01*
X5357438Y12491765D01*
X5317622Y12456847D01*
X5201881Y12355345D01*
X5199073Y12351783D01*
X5091208Y12214956D01*
X5070976Y12189292D01*
X4972523Y12002164D01*
X4971179Y11997835D01*
X4914293Y11814631D01*
X4909820Y11800227D01*
X4909286Y11795717D01*
X4909286Y11795716D01*
X4892099Y11650500D01*
X4884967Y11590246D01*
X4652650Y11590246D01*
X4644285Y11681273D01*
X4636081Y11770560D01*
X4614758Y11846166D01*
X4579920Y11969694D01*
X4579920Y11969695D01*
X4578686Y11974069D01*
X4485165Y12163710D01*
X4391634Y12288963D01*
X4361367Y12329496D01*
X4361366Y12329497D01*
X4358651Y12333133D01*
X4203381Y12476663D01*
X4171793Y12496594D01*
X4028391Y12587074D01*
X4024554Y12589495D01*
X3828160Y12667848D01*
X3620775Y12709099D01*
X3516599Y12710463D01*
X3413886Y12711808D01*
X3413881Y12711808D01*
X3409346Y12711867D01*
X3404873Y12711098D01*
X3404868Y12711098D01*
X3301601Y12693353D01*
X3200953Y12676059D01*
X3002575Y12602873D01*
X2998676Y12600554D01*
X2998671Y12600551D01*
X2829487Y12499897D01*
X2820856Y12494762D01*
X2817441Y12491767D01*
X2817438Y12491765D01*
X2777622Y12456847D01*
X2661881Y12355345D01*
X2659073Y12351783D01*
X2551208Y12214956D01*
X2530976Y12189292D01*
X2432523Y12002164D01*
X2431179Y11997835D01*
X2374293Y11814631D01*
X2369820Y11800227D01*
X2369286Y11795717D01*
X2369286Y11795716D01*
X2352099Y11650500D01*
X2344967Y11590246D01*
X500000Y11590246D01*
X500000Y14130246D01*
X2344967Y14130246D01*
X2349562Y14060139D01*
X2356035Y13961382D01*
X2358796Y13919251D01*
X2359912Y13914858D01*
X2359912Y13914856D01*
X2381678Y13829154D01*
X2410845Y13714310D01*
X2412747Y13710185D01*
X2412747Y13710184D01*
X2468111Y13590091D01*
X2499369Y13522286D01*
X2621405Y13349609D01*
X2772865Y13202063D01*
X2776638Y13199542D01*
X2944899Y13087113D01*
X2944902Y13087111D01*
X2948677Y13084589D01*
X3045472Y13043003D01*
X3138774Y13002917D01*
X3138778Y13002916D01*
X3142953Y13001122D01*
X3147387Y13000119D01*
X3147386Y13000119D01*
X3344760Y12955457D01*
X3344765Y12955456D01*
X3349186Y12954456D01*
X3454828Y12950305D01*
X3555937Y12946332D01*
X3555938Y12946332D01*
X3560470Y12946154D01*
X3769730Y12976496D01*
X3774029Y12977955D01*
X3774032Y12977956D01*
X3965654Y13043003D01*
X3969955Y13044463D01*
X3991917Y13056762D01*
X4150481Y13145563D01*
X4154442Y13147781D01*
X4317012Y13282988D01*
X4452219Y13445558D01*
X4526114Y13577506D01*
X4553319Y13626084D01*
X4553320Y13626086D01*
X4555537Y13630045D01*
X4578127Y13696594D01*
X4622044Y13825968D01*
X4622045Y13825971D01*
X4623504Y13830270D01*
X4640792Y13949500D01*
X4653426Y14036631D01*
X4653426Y14036637D01*
X4653846Y14039530D01*
X4655429Y14100000D01*
X4654246Y14112881D01*
X4636496Y14306040D01*
X4636081Y14310560D01*
X4615697Y14382837D01*
X4579920Y14509694D01*
X4579920Y14509695D01*
X4578686Y14514069D01*
X4485165Y14703710D01*
X4391634Y14828963D01*
X4361367Y14869496D01*
X4361366Y14869497D01*
X4358651Y14873133D01*
X4344554Y14886164D01*
X4314657Y14939548D01*
X4316982Y14959194D01*
X4294058Y14955563D01*
X4242344Y14980646D01*
X4227576Y14994297D01*
X4203381Y15016663D01*
X4178299Y15032489D01*
X4028391Y15127074D01*
X4024554Y15129495D01*
X3828160Y15207848D01*
X3620775Y15249099D01*
X3516599Y15250463D01*
X3413886Y15251808D01*
X3413881Y15251808D01*
X3409346Y15251867D01*
X3404873Y15251098D01*
X3404868Y15251098D01*
X3301601Y15233353D01*
X3200953Y15216059D01*
X3002575Y15142873D01*
X2998676Y15140554D01*
X2998671Y15140551D01*
X2837224Y15044500D01*
X2820856Y15034762D01*
X2817441Y15031767D01*
X2817438Y15031765D01*
X2734687Y14959194D01*
X2661881Y14895345D01*
X2659073Y14891783D01*
X2546907Y14749500D01*
X2530976Y14729292D01*
X2528862Y14725274D01*
X2436383Y14549500D01*
X2432523Y14542164D01*
X2369820Y14340227D01*
X2369286Y14335717D01*
X2369286Y14335716D01*
X2358092Y14241134D01*
X2344967Y14130246D01*
X500000Y14130246D01*
X500000Y21750246D01*
X2344967Y21750246D01*
X2348260Y21700000D01*
X2356681Y21571527D01*
X2358796Y21539251D01*
X2359912Y21534858D01*
X2359912Y21534856D01*
X2381546Y21449673D01*
X2410845Y21334310D01*
X2412747Y21330185D01*
X2412747Y21330184D01*
X2493345Y21155354D01*
X2499369Y21142286D01*
X2621405Y20969609D01*
X2772865Y20822063D01*
X2776638Y20819542D01*
X2944899Y20707113D01*
X2944902Y20707111D01*
X2948677Y20704589D01*
X3045472Y20663003D01*
X3138774Y20622917D01*
X3138778Y20622916D01*
X3142953Y20621122D01*
X3147387Y20620119D01*
X3147386Y20620119D01*
X3344760Y20575457D01*
X3344765Y20575456D01*
X3349186Y20574456D01*
X3454828Y20570305D01*
X3555937Y20566332D01*
X3555938Y20566332D01*
X3560470Y20566154D01*
X3769730Y20596496D01*
X3774029Y20597955D01*
X3774032Y20597956D01*
X3965654Y20663003D01*
X3969955Y20664463D01*
X4020678Y20692869D01*
X4150481Y20765563D01*
X4154442Y20767781D01*
X4317012Y20902988D01*
X4452219Y21065558D01*
X4526114Y21197506D01*
X4553319Y21246084D01*
X4553320Y21246086D01*
X4555537Y21250045D01*
X4580462Y21323472D01*
X4622044Y21445968D01*
X4622045Y21445971D01*
X4623504Y21450270D01*
X4641086Y21571527D01*
X4653426Y21656631D01*
X4653426Y21656637D01*
X4653846Y21659530D01*
X4653998Y21665306D01*
X4655353Y21717086D01*
X4655353Y21717091D01*
X4655429Y21720000D01*
X4652719Y21749500D01*
X4652650Y21750246D01*
X4884967Y21750246D01*
X4888260Y21700000D01*
X4896681Y21571527D01*
X4898796Y21539251D01*
X4899912Y21534858D01*
X4899912Y21534856D01*
X4921546Y21449673D01*
X4950845Y21334310D01*
X4952747Y21330185D01*
X4952747Y21330184D01*
X5033345Y21155354D01*
X5039369Y21142286D01*
X5161405Y20969609D01*
X5312865Y20822063D01*
X5316638Y20819542D01*
X5484899Y20707113D01*
X5484902Y20707111D01*
X5488677Y20704589D01*
X5585472Y20663003D01*
X5678774Y20622917D01*
X5678778Y20622916D01*
X5682953Y20621122D01*
X5687387Y20620119D01*
X5687386Y20620119D01*
X5884760Y20575457D01*
X5884765Y20575456D01*
X5889186Y20574456D01*
X5994828Y20570305D01*
X6095937Y20566332D01*
X6095938Y20566332D01*
X6100470Y20566154D01*
X6309730Y20596496D01*
X6314029Y20597955D01*
X6314032Y20597956D01*
X6505654Y20663003D01*
X6509955Y20664463D01*
X6560678Y20692869D01*
X6690481Y20765563D01*
X6694442Y20767781D01*
X6857012Y20902988D01*
X6992219Y21065558D01*
X7066114Y21197506D01*
X7093319Y21246084D01*
X7093320Y21246086D01*
X7095537Y21250045D01*
X7120462Y21323472D01*
X7162044Y21445968D01*
X7162045Y21445971D01*
X7163504Y21450270D01*
X7181086Y21571527D01*
X7193426Y21656631D01*
X7193426Y21656637D01*
X7193846Y21659530D01*
X7193998Y21665306D01*
X7195353Y21717086D01*
X7195353Y21717091D01*
X7195429Y21720000D01*
X7192719Y21749500D01*
X7182024Y21865883D01*
X7176081Y21930560D01*
X7144328Y22043150D01*
X7119920Y22129694D01*
X7119920Y22129695D01*
X7118686Y22134069D01*
X7025165Y22323710D01*
X6911818Y22475500D01*
X6901367Y22489496D01*
X6901366Y22489497D01*
X6898651Y22493133D01*
X6743381Y22636663D01*
X6732457Y22643556D01*
X6568391Y22747074D01*
X6564554Y22749495D01*
X6368160Y22827848D01*
X6160775Y22869099D01*
X6056599Y22870463D01*
X5953886Y22871808D01*
X5953881Y22871808D01*
X5949346Y22871867D01*
X5944873Y22871098D01*
X5944868Y22871098D01*
X5841601Y22853353D01*
X5740953Y22836059D01*
X5542575Y22762873D01*
X5538676Y22760554D01*
X5538671Y22760551D01*
X5410152Y22684090D01*
X5360856Y22654762D01*
X5357441Y22651767D01*
X5357438Y22651765D01*
X5291324Y22593784D01*
X5201881Y22515345D01*
X5199073Y22511783D01*
X5076865Y22356762D01*
X5070976Y22349292D01*
X5068862Y22345274D01*
X4992430Y22200000D01*
X4972523Y22162164D01*
X4971179Y22157835D01*
X4920619Y21995004D01*
X4909820Y21960227D01*
X4884967Y21750246D01*
X4652650Y21750246D01*
X4642024Y21865883D01*
X4636081Y21930560D01*
X4604328Y22043150D01*
X4579920Y22129694D01*
X4579920Y22129695D01*
X4578686Y22134069D01*
X4485165Y22323710D01*
X4371818Y22475500D01*
X4361367Y22489496D01*
X4361366Y22489497D01*
X4358651Y22493133D01*
X4203381Y22636663D01*
X4192457Y22643556D01*
X4028391Y22747074D01*
X4024554Y22749495D01*
X3828160Y22827848D01*
X3620775Y22869099D01*
X3516599Y22870463D01*
X3413886Y22871808D01*
X3413881Y22871808D01*
X3409346Y22871867D01*
X3404873Y22871098D01*
X3404868Y22871098D01*
X3301601Y22853353D01*
X3200953Y22836059D01*
X3002575Y22762873D01*
X2998676Y22760554D01*
X2998671Y22760551D01*
X2870152Y22684090D01*
X2820856Y22654762D01*
X2817441Y22651767D01*
X2817438Y22651765D01*
X2751324Y22593784D01*
X2661881Y22515345D01*
X2659073Y22511783D01*
X2536865Y22356762D01*
X2530976Y22349292D01*
X2528862Y22345274D01*
X2452430Y22200000D01*
X2432523Y22162164D01*
X2431179Y22157835D01*
X2380619Y21995004D01*
X2369820Y21960227D01*
X2344967Y21750246D01*
X500000Y21750246D01*
X500000Y24290246D01*
X2344967Y24290246D01*
X2348048Y24243238D01*
X2357144Y24104461D01*
X2358796Y24079251D01*
X2359912Y24074858D01*
X2359912Y24074856D01*
X2382487Y23985968D01*
X2410845Y23874310D01*
X2412747Y23870185D01*
X2412747Y23870184D01*
X2479892Y23724536D01*
X2499369Y23682286D01*
X2621405Y23509609D01*
X2772865Y23362063D01*
X2793208Y23348470D01*
X2944899Y23247113D01*
X2944902Y23247111D01*
X2948677Y23244589D01*
X3045472Y23203003D01*
X3138774Y23162917D01*
X3138778Y23162916D01*
X3142953Y23161122D01*
X3147387Y23160119D01*
X3147386Y23160119D01*
X3344760Y23115457D01*
X3344765Y23115456D01*
X3349186Y23114456D01*
X3454828Y23110305D01*
X3555937Y23106332D01*
X3555938Y23106332D01*
X3560470Y23106154D01*
X3769730Y23136496D01*
X3774029Y23137955D01*
X3774032Y23137956D01*
X3965654Y23203003D01*
X3969955Y23204463D01*
X3978364Y23209172D01*
X4150481Y23305563D01*
X4154442Y23307781D01*
X4317012Y23442988D01*
X4452219Y23605558D01*
X4518850Y23724536D01*
X4553319Y23786084D01*
X4553320Y23786086D01*
X4555537Y23790045D01*
X4582016Y23868050D01*
X4622044Y23985968D01*
X4622045Y23985971D01*
X4623504Y23990270D01*
X4640061Y24104461D01*
X4653426Y24196631D01*
X4653426Y24196637D01*
X4653846Y24199530D01*
X4654991Y24243238D01*
X4655353Y24257086D01*
X4655353Y24257091D01*
X4655429Y24260000D01*
X4636081Y24470560D01*
X4592394Y24625464D01*
X4579920Y24669694D01*
X4579920Y24669695D01*
X4578686Y24674069D01*
X4571025Y24689605D01*
X4487173Y24859638D01*
X4485165Y24863710D01*
X4385066Y24997759D01*
X4361367Y25029496D01*
X4361366Y25029497D01*
X4358651Y25033133D01*
X4203381Y25176663D01*
X4198611Y25179673D01*
X4028391Y25287074D01*
X4024554Y25289495D01*
X3828160Y25367848D01*
X3620775Y25409099D01*
X3516599Y25410463D01*
X3413886Y25411808D01*
X3413881Y25411808D01*
X3409346Y25411867D01*
X3404873Y25411098D01*
X3404868Y25411098D01*
X3301601Y25393353D01*
X3200953Y25376059D01*
X3002575Y25302873D01*
X2998676Y25300554D01*
X2998671Y25300551D01*
X2836412Y25204017D01*
X2820856Y25194762D01*
X2817441Y25191767D01*
X2817438Y25191765D01*
X2714262Y25101282D01*
X2661881Y25055345D01*
X2659073Y25051783D01*
X2600036Y24976894D01*
X2530976Y24889292D01*
X2528862Y24885274D01*
X2471231Y24775735D01*
X2432523Y24702164D01*
X2417345Y24653282D01*
X2383511Y24544318D01*
X2369820Y24500227D01*
X2369286Y24495717D01*
X2369286Y24495716D01*
X2362085Y24434871D01*
X2344967Y24290246D01*
X500000Y24290246D01*
X500000Y51999849D01*
X2045585Y51999849D01*
X2045722Y51996358D01*
X2045722Y51996353D01*
X2049582Y51898133D01*
X2056152Y51730917D01*
X2104505Y51466157D01*
X2105612Y51462839D01*
X2105613Y51462835D01*
X2167771Y51276528D01*
X2189682Y51210852D01*
X2191247Y51207720D01*
X2191249Y51207715D01*
X2203052Y51184094D01*
X2309981Y50970095D01*
X2463003Y50748691D01*
X2645695Y50551056D01*
X2648405Y50548849D01*
X2648409Y50548846D01*
X2835421Y50396594D01*
X2854411Y50381134D01*
X3084987Y50242316D01*
X3191422Y50197247D01*
X3287031Y50156762D01*
X3332822Y50137372D01*
X3592972Y50068394D01*
X3596445Y50067983D01*
X3596450Y50067982D01*
X3801812Y50043676D01*
X3860245Y50036760D01*
X3863734Y50036842D01*
X3863739Y50036842D01*
X3986338Y50039732D01*
X4129310Y50043101D01*
X4394796Y50087290D01*
X4398128Y50088344D01*
X4398133Y50088345D01*
X4494373Y50118782D01*
X4651408Y50168446D01*
X4654566Y50169962D01*
X4654570Y50169964D01*
X4890867Y50283432D01*
X4890873Y50283435D01*
X4894025Y50284949D01*
X5117806Y50434474D01*
X5120414Y50436810D01*
X5120418Y50436813D01*
X5315675Y50611700D01*
X5315678Y50611703D01*
X5318286Y50614039D01*
X5439755Y50758543D01*
X5489215Y50817383D01*
X5489217Y50817385D01*
X5491465Y50820060D01*
X5633887Y51048428D01*
X5635685Y51052494D01*
X5741296Y51291380D01*
X5741298Y51291386D01*
X5742712Y51294584D01*
X5743660Y51297947D01*
X5743663Y51297954D01*
X5814816Y51550247D01*
X5815767Y51553618D01*
X5851595Y51820362D01*
X5853310Y51874922D01*
X5855276Y51937472D01*
X5855276Y51937481D01*
X5855355Y51940000D01*
X5852121Y51985687D01*
X5836594Y52204974D01*
X5836347Y52208467D01*
X5779700Y52471577D01*
X5768167Y52502841D01*
X5687760Y52720793D01*
X5686547Y52724081D01*
X5653137Y52786000D01*
X5560405Y52957862D01*
X5560404Y52957864D01*
X5558744Y52960940D01*
X5550784Y52971718D01*
X5400925Y53174610D01*
X5398843Y53177429D01*
X5210034Y53369228D01*
X5044113Y53495855D01*
X4998869Y53530384D01*
X4998867Y53530385D01*
X4996083Y53532510D01*
X4761261Y53664017D01*
X4510251Y53761125D01*
X4506845Y53761914D01*
X4506840Y53761916D01*
X4315051Y53806370D01*
X4248063Y53821897D01*
X4001658Y53843238D01*
X3983416Y53844818D01*
X3983415Y53844818D01*
X3979928Y53845120D01*
X3864211Y53838752D01*
X3714695Y53830524D01*
X3714689Y53830523D01*
X3711196Y53830331D01*
X3447228Y53777824D01*
X3193292Y53688648D01*
X3190191Y53687037D01*
X3190186Y53687035D01*
X3098397Y53639354D01*
X2954455Y53564582D01*
X2951614Y53562552D01*
X2951611Y53562550D01*
X2895852Y53522704D01*
X2735481Y53408101D01*
X2692114Y53366731D01*
X2543271Y53224743D01*
X2543267Y53224739D01*
X2540740Y53222328D01*
X2374118Y53010968D01*
X2238939Y52778240D01*
X2137900Y52528787D01*
X2073017Y52267586D01*
X2072660Y52264102D01*
X2048055Y52023952D01*
X2045585Y51999849D01*
X500000Y51999849D01*
X500000Y63429849D01*
X2045585Y63429849D01*
X2045722Y63426358D01*
X2045722Y63426353D01*
X2048036Y63367472D01*
X2056152Y63160917D01*
X2104505Y62896157D01*
X2105612Y62892839D01*
X2105613Y62892835D01*
X2188571Y62644182D01*
X2189682Y62640852D01*
X2191247Y62637720D01*
X2191249Y62637715D01*
X2249626Y62520884D01*
X2309981Y62400095D01*
X2463003Y62178691D01*
X2645695Y61981056D01*
X2648405Y61978849D01*
X2648409Y61978846D01*
X2851701Y61813340D01*
X2854411Y61811134D01*
X3084987Y61672316D01*
X3088211Y61670951D01*
X3317642Y61573800D01*
X3332822Y61567372D01*
X3592972Y61498394D01*
X3596445Y61497983D01*
X3596450Y61497982D01*
X3801812Y61473676D01*
X3860245Y61466760D01*
X3863734Y61466842D01*
X3863739Y61466842D01*
X3986338Y61469732D01*
X4129310Y61473101D01*
X4394796Y61517290D01*
X4398128Y61518344D01*
X4398133Y61518345D01*
X4533941Y61561296D01*
X4651408Y61598446D01*
X4654566Y61599962D01*
X4654570Y61599964D01*
X4890867Y61713432D01*
X4890873Y61713435D01*
X4894025Y61714949D01*
X5067659Y61830967D01*
X5114894Y61862528D01*
X5114897Y61862530D01*
X5117806Y61864474D01*
X5120414Y61866810D01*
X5120418Y61866813D01*
X5315675Y62041700D01*
X5315678Y62041703D01*
X5318286Y62044039D01*
X5491465Y62250060D01*
X5633887Y62478428D01*
X5643203Y62499500D01*
X5741296Y62721380D01*
X5741298Y62721386D01*
X5742712Y62724584D01*
X5743660Y62727947D01*
X5743663Y62727954D01*
X5798063Y62920846D01*
X5815767Y62983618D01*
X5851595Y63250362D01*
X5851789Y63256524D01*
X5855276Y63367472D01*
X5855276Y63367481D01*
X5855355Y63370000D01*
X5854165Y63386816D01*
X5839820Y63589410D01*
X5836347Y63638467D01*
X5779700Y63901577D01*
X5761829Y63950021D01*
X5687760Y64150793D01*
X5686547Y64154081D01*
X5608083Y64299500D01*
X5560405Y64387862D01*
X5560404Y64387864D01*
X5558744Y64390940D01*
X5524022Y64437951D01*
X5400925Y64604610D01*
X5398843Y64607429D01*
X5210034Y64799228D01*
X5058394Y64914956D01*
X4998869Y64960384D01*
X4998867Y64960385D01*
X4996083Y64962510D01*
X4761261Y65094017D01*
X4510251Y65191125D01*
X4506845Y65191914D01*
X4506840Y65191916D01*
X4279130Y65244696D01*
X4248063Y65251897D01*
X4038043Y65270087D01*
X3983416Y65274818D01*
X3983415Y65274818D01*
X3979928Y65275120D01*
X3864211Y65268752D01*
X3714695Y65260524D01*
X3714689Y65260523D01*
X3711196Y65260331D01*
X3447228Y65207824D01*
X3193292Y65118648D01*
X3190191Y65117037D01*
X3190186Y65117035D01*
X3089053Y65064500D01*
X2954455Y64994582D01*
X2951614Y64992552D01*
X2951611Y64992550D01*
X2865863Y64931273D01*
X2735481Y64838101D01*
X2679863Y64785044D01*
X2543271Y64654743D01*
X2543267Y64654739D01*
X2540740Y64652328D01*
X2374118Y64440968D01*
X2238939Y64208240D01*
X2199736Y64111452D01*
X2160144Y64013704D01*
X2137900Y63958787D01*
X2073017Y63697586D01*
X2072660Y63694102D01*
X2048982Y63463000D01*
X2045585Y63429849D01*
X500000Y63429849D01*
X500000Y69799849D01*
X2045585Y69799849D01*
X2045722Y69796358D01*
X2045722Y69796353D01*
X2048036Y69737472D01*
X2056152Y69530917D01*
X2104505Y69266157D01*
X2105612Y69262839D01*
X2105613Y69262835D01*
X2183132Y69030486D01*
X2189682Y69010852D01*
X2309981Y68770095D01*
X2463003Y68548691D01*
X2645695Y68351056D01*
X2648405Y68348849D01*
X2648409Y68348846D01*
X2801627Y68224107D01*
X2854411Y68181134D01*
X3084987Y68042316D01*
X3332822Y67937372D01*
X3592972Y67868394D01*
X3596445Y67867983D01*
X3596450Y67867982D01*
X3801576Y67843704D01*
X3860245Y67836760D01*
X3863734Y67836842D01*
X3863739Y67836842D01*
X3986338Y67839732D01*
X4129310Y67843101D01*
X4394796Y67887290D01*
X4398128Y67888344D01*
X4398133Y67888345D01*
X4512566Y67924536D01*
X4651408Y67968446D01*
X4654566Y67969962D01*
X4654570Y67969964D01*
X4890867Y68083432D01*
X4890873Y68083435D01*
X4894025Y68084949D01*
X5047485Y68187487D01*
X5114894Y68232528D01*
X5114897Y68232530D01*
X5117806Y68234474D01*
X5120414Y68236810D01*
X5120418Y68236813D01*
X5315675Y68411700D01*
X5315678Y68411703D01*
X5318286Y68414039D01*
X5491465Y68620060D01*
X5633887Y68848428D01*
X5700897Y69000000D01*
X5741296Y69091380D01*
X5741298Y69091386D01*
X5742712Y69094584D01*
X5743660Y69097947D01*
X5743663Y69097954D01*
X5803632Y69310590D01*
X5815767Y69353618D01*
X5851595Y69620362D01*
X5854009Y69697159D01*
X5855276Y69737472D01*
X5855276Y69737481D01*
X5855355Y69740000D01*
X5854556Y69751296D01*
X5836594Y70004974D01*
X5836347Y70008467D01*
X5779700Y70271577D01*
X5776851Y70279302D01*
X5687760Y70520793D01*
X5686547Y70524081D01*
X5558744Y70760940D01*
X5547520Y70776137D01*
X5400925Y70974610D01*
X5398843Y70977429D01*
X5210034Y71169228D01*
X5044113Y71295855D01*
X4998869Y71330384D01*
X4998867Y71330385D01*
X4996083Y71332510D01*
X4761261Y71464017D01*
X4510251Y71561125D01*
X4506845Y71561914D01*
X4506840Y71561916D01*
X4315051Y71606370D01*
X4248063Y71621897D01*
X4038043Y71640087D01*
X3983416Y71644818D01*
X3983415Y71644818D01*
X3979928Y71645120D01*
X3864211Y71638752D01*
X3714695Y71630524D01*
X3714689Y71630523D01*
X3711196Y71630331D01*
X3447228Y71577824D01*
X3193292Y71488648D01*
X3190191Y71487037D01*
X3190186Y71487035D01*
X3145875Y71464017D01*
X2954455Y71364582D01*
X2951614Y71362552D01*
X2951611Y71362550D01*
X2881857Y71312703D01*
X2735481Y71208101D01*
X2692114Y71166731D01*
X2543271Y71024743D01*
X2543267Y71024739D01*
X2540740Y71022328D01*
X2374118Y70810968D01*
X2238939Y70578240D01*
X2215671Y70520793D01*
X2142628Y70340459D01*
X2137900Y70328787D01*
X2073017Y70067586D01*
X2072660Y70064102D01*
X2046686Y69810590D01*
X2045585Y69799849D01*
X500000Y69799849D01*
X500000Y81229849D01*
X2045585Y81229849D01*
X2045722Y81226358D01*
X2045722Y81226353D01*
X2048036Y81167472D01*
X2056152Y80960917D01*
X2104505Y80696157D01*
X2105612Y80692839D01*
X2105613Y80692835D01*
X2169001Y80502841D01*
X2189682Y80440852D01*
X2309981Y80200095D01*
X2463003Y79978691D01*
X2645695Y79781056D01*
X2648405Y79778849D01*
X2648409Y79778846D01*
X2843064Y79620372D01*
X2854411Y79611134D01*
X3084987Y79472316D01*
X3088211Y79470951D01*
X3323617Y79371270D01*
X3332822Y79367372D01*
X3592972Y79298394D01*
X3596445Y79297983D01*
X3596450Y79297982D01*
X3801812Y79273676D01*
X3860245Y79266760D01*
X3863734Y79266842D01*
X3863739Y79266842D01*
X3986338Y79269732D01*
X4129310Y79273101D01*
X4394796Y79317290D01*
X4398128Y79318344D01*
X4398133Y79318345D01*
X4494373Y79348782D01*
X4651408Y79398446D01*
X4654566Y79399962D01*
X4654570Y79399964D01*
X4890867Y79513432D01*
X4890873Y79513435D01*
X4894025Y79514949D01*
X5051802Y79620372D01*
X5114894Y79662528D01*
X5114897Y79662530D01*
X5117806Y79664474D01*
X5120414Y79666810D01*
X5120418Y79666813D01*
X5315675Y79841700D01*
X5315678Y79841703D01*
X5318286Y79844039D01*
X5450511Y80001339D01*
X5489215Y80047383D01*
X5489217Y80047385D01*
X5491465Y80050060D01*
X5633887Y80278428D01*
X5635301Y80281626D01*
X5741296Y80521380D01*
X5741298Y80521386D01*
X5742712Y80524584D01*
X5743660Y80527947D01*
X5743663Y80527954D01*
X5814816Y80780247D01*
X5815767Y80783618D01*
X5851595Y81050362D01*
X5852084Y81065910D01*
X5855276Y81167472D01*
X5855276Y81167481D01*
X5855355Y81170000D01*
X5851025Y81231166D01*
X5845340Y81311453D01*
X5836347Y81438467D01*
X5779700Y81701577D01*
X5760707Y81753062D01*
X5687760Y81950793D01*
X5686547Y81954081D01*
X5655694Y82011262D01*
X5560405Y82187862D01*
X5560404Y82187864D01*
X5558744Y82190940D01*
X5556644Y82193784D01*
X5400925Y82404610D01*
X5398843Y82407429D01*
X5210034Y82599228D01*
X4996083Y82762510D01*
X4761261Y82894017D01*
X4510251Y82991125D01*
X4506845Y82991914D01*
X4506840Y82991916D01*
X4329374Y83033050D01*
X4248063Y83051897D01*
X4029276Y83070846D01*
X3983416Y83074818D01*
X3983415Y83074818D01*
X3979928Y83075120D01*
X3864414Y83068763D01*
X3714695Y83060524D01*
X3714689Y83060523D01*
X3711196Y83060331D01*
X3447228Y83007824D01*
X3193292Y82918648D01*
X3190191Y82917037D01*
X3190186Y82917035D01*
X3145875Y82894017D01*
X2954455Y82794582D01*
X2951614Y82792552D01*
X2951611Y82792550D01*
X2901531Y82756762D01*
X2735481Y82638101D01*
X2692114Y82596731D01*
X2543271Y82454743D01*
X2543267Y82454739D01*
X2540740Y82452328D01*
X2374118Y82240968D01*
X2238939Y82008240D01*
X2137900Y81758787D01*
X2073017Y81497586D01*
X2045585Y81229849D01*
X500000Y81229849D01*
X500000Y87495139D01*
X500477Y87504843D01*
X514806Y87650326D01*
X518259Y87685388D01*
X522045Y87704420D01*
X528300Y87725038D01*
X573290Y87873353D01*
X580717Y87891283D01*
X663933Y88046969D01*
X674715Y88063106D01*
X762047Y88169521D01*
X786710Y88199573D01*
X800427Y88213290D01*
X936894Y88325285D01*
X953031Y88336067D01*
X1108717Y88419283D01*
X1126647Y88426710D01*
X1233723Y88459191D01*
X1295582Y88477955D01*
X1314612Y88481741D01*
X1495157Y88499523D01*
X1504861Y88500000D01*
X10225500Y88500000D01*
X10283691Y88481093D01*
G37*
%TD.AperFunction*%
%TA.AperFunction,Conductor*%
G36*
X59405276Y105985648D02*
G01*
X59419619Y105950058D01*
X59408653Y105379853D01*
X59393638Y105345487D01*
X59389492Y105341921D01*
X59371718Y105328282D01*
X59275464Y105202841D01*
X59274237Y105199878D01*
X59274235Y105199875D01*
X59216184Y105059728D01*
X59216183Y105059724D01*
X59214956Y105056762D01*
X59194318Y104900000D01*
X59214956Y104743238D01*
X59216183Y104740276D01*
X59216184Y104740272D01*
X59271990Y104605545D01*
X59275464Y104597159D01*
X59371718Y104471718D01*
X59497159Y104375464D01*
X59500122Y104374237D01*
X59500125Y104374235D01*
X59640272Y104316184D01*
X59640276Y104316183D01*
X59643238Y104314956D01*
X59646419Y104314537D01*
X59646420Y104314537D01*
X59796817Y104294737D01*
X59800000Y104294318D01*
X59803183Y104294737D01*
X59953580Y104314537D01*
X59953581Y104314537D01*
X59956762Y104314956D01*
X59959724Y104316183D01*
X59959728Y104316184D01*
X60099875Y104374235D01*
X60099878Y104374237D01*
X60102841Y104375464D01*
X60228282Y104471718D01*
X60324536Y104597159D01*
X60328010Y104605545D01*
X60383816Y104740272D01*
X60383817Y104740276D01*
X60385044Y104743238D01*
X60402419Y104875215D01*
X60415604Y104898050D01*
X60402419Y104924785D01*
X60385463Y105053580D01*
X60385463Y105053581D01*
X60385044Y105056762D01*
X60383817Y105059724D01*
X60383816Y105059728D01*
X60325765Y105199875D01*
X60325763Y105199878D01*
X60324536Y105202841D01*
X60308950Y105223153D01*
X60230237Y105325735D01*
X60230234Y105325738D01*
X60228282Y105328282D01*
X60225737Y105330235D01*
X60223908Y105332064D01*
X60209567Y105367652D01*
X60213334Y105563526D01*
X60228349Y105597892D01*
X60263267Y105611575D01*
X60297633Y105596560D01*
X60300203Y105593669D01*
X60328410Y105559298D01*
X60333746Y105551311D01*
X60421604Y105386940D01*
X60425280Y105378066D01*
X60479384Y105199708D01*
X60481258Y105190287D01*
X60499764Y105002396D01*
X60500000Y104997593D01*
X60500000Y104931181D01*
X60487171Y104900209D01*
X60489874Y104898648D01*
X60500000Y104868819D01*
X60500000Y99500000D01*
X68497593Y99500000D01*
X68502396Y99499764D01*
X68690287Y99481258D01*
X68699708Y99479384D01*
X68878066Y99425280D01*
X68886940Y99421604D01*
X69051311Y99333746D01*
X69059298Y99328410D01*
X69203376Y99210169D01*
X69210169Y99203376D01*
X69328410Y99059298D01*
X69333746Y99051311D01*
X69421604Y98886940D01*
X69425280Y98878066D01*
X69479384Y98699708D01*
X69481258Y98690287D01*
X69499764Y98502396D01*
X69500000Y98497593D01*
X69500000Y98002407D01*
X69499764Y97997604D01*
X69494847Y97947679D01*
X69480731Y97917834D01*
X69127749Y97564852D01*
X69093101Y97550500D01*
X64817172Y97550500D01*
X64811413Y97550840D01*
X64773189Y97555364D01*
X64769586Y97554706D01*
X64714275Y97544604D01*
X64712756Y97544352D01*
X64672816Y97538347D01*
X64653538Y97535449D01*
X64650235Y97533863D01*
X64646907Y97532839D01*
X64643531Y97531683D01*
X64639927Y97531025D01*
X64586793Y97503425D01*
X64585442Y97502750D01*
X64534723Y97478395D01*
X64534721Y97478394D01*
X64531421Y97476809D01*
X64528732Y97474323D01*
X64525702Y97472264D01*
X64525510Y97472546D01*
X64524319Y97471709D01*
X64524508Y97471429D01*
X64522188Y97469866D01*
X64519711Y97468579D01*
X64514672Y97464275D01*
X64476364Y97425967D01*
X64474977Y97424633D01*
X64434635Y97387342D01*
X64434634Y97387340D01*
X64431944Y97384854D01*
X64430105Y97381687D01*
X64427813Y97378827D01*
X64427776Y97378857D01*
X64422843Y97372446D01*
X64320684Y97270287D01*
X64286036Y97255935D01*
X64251388Y97270287D01*
X64240200Y97287614D01*
X64226392Y97324153D01*
X64226391Y97324155D01*
X64225345Y97326923D01*
X64139695Y97451544D01*
X64130987Y97464214D01*
X64129312Y97466651D01*
X64127107Y97468616D01*
X64127104Y97468619D01*
X64004930Y97577472D01*
X64004929Y97577473D01*
X64002721Y97579440D01*
X63852881Y97658776D01*
X63850023Y97659494D01*
X63850020Y97659495D01*
X63770133Y97679561D01*
X63688441Y97700081D01*
X63602311Y97700532D01*
X63521848Y97700954D01*
X63521844Y97700954D01*
X63518895Y97700969D01*
X63516026Y97700280D01*
X63516024Y97700280D01*
X63430441Y97679733D01*
X63354032Y97661388D01*
X63320495Y97644078D01*
X63246104Y97605682D01*
X63203369Y97583625D01*
X63075604Y97472169D01*
X63073906Y97469754D01*
X63073905Y97469752D01*
X63043133Y97425967D01*
X62978113Y97333453D01*
X62977042Y97330705D01*
X62977040Y97330702D01*
X62952919Y97268834D01*
X62926961Y97241766D01*
X62889467Y97240980D01*
X62872618Y97251985D01*
X62827038Y97297565D01*
X62823206Y97301877D01*
X62801639Y97329234D01*
X62799372Y97332110D01*
X62796358Y97334193D01*
X62796356Y97334195D01*
X62750107Y97366160D01*
X62748854Y97367055D01*
X62724756Y97384854D01*
X62700684Y97402634D01*
X62697229Y97403847D01*
X62694128Y97405489D01*
X62690941Y97407050D01*
X62687931Y97409131D01*
X62684440Y97410235D01*
X62684438Y97410236D01*
X62630833Y97427189D01*
X62629415Y97427662D01*
X62572869Y97447519D01*
X62569209Y97447663D01*
X62565610Y97448349D01*
X62565675Y97448688D01*
X62564240Y97448938D01*
X62564175Y97448603D01*
X62561435Y97449137D01*
X62558770Y97449980D01*
X62552163Y97450500D01*
X62497963Y97450500D01*
X62496039Y97450538D01*
X62494718Y97450590D01*
X62437506Y97452838D01*
X62433963Y97451898D01*
X62430326Y97451497D01*
X62430321Y97451544D01*
X62422304Y97450500D01*
X59515959Y97450500D01*
X59486130Y97460626D01*
X59478279Y97466651D01*
X59402841Y97524536D01*
X59399878Y97525763D01*
X59399875Y97525765D01*
X59259728Y97583816D01*
X59259724Y97583817D01*
X59256762Y97585044D01*
X59253581Y97585463D01*
X59253580Y97585463D01*
X59103183Y97605263D01*
X59100000Y97605682D01*
X59096817Y97605263D01*
X58946420Y97585463D01*
X58946419Y97585463D01*
X58943238Y97585044D01*
X58940276Y97583817D01*
X58940272Y97583816D01*
X58800125Y97525765D01*
X58800122Y97525763D01*
X58797159Y97524536D01*
X58671718Y97428282D01*
X58575464Y97302841D01*
X58574237Y97299878D01*
X58574235Y97299875D01*
X58516184Y97159728D01*
X58516183Y97159724D01*
X58514956Y97156762D01*
X58514537Y97153581D01*
X58514537Y97153580D01*
X58510708Y97124497D01*
X58501606Y97055354D01*
X58499927Y97042604D01*
X58481175Y97010126D01*
X58451346Y97000000D01*
X56500000Y97000000D01*
X56500000Y93446372D01*
X56499581Y93439977D01*
X56494318Y93400000D01*
X56494737Y93396817D01*
X56499581Y93360024D01*
X56500000Y93353628D01*
X56500000Y92150880D01*
X56485648Y92116232D01*
X56480829Y92112006D01*
X56428325Y92071718D01*
X56371718Y92028282D01*
X56275464Y91902841D01*
X56274237Y91899878D01*
X56274235Y91899875D01*
X56216184Y91759728D01*
X56216183Y91759724D01*
X56214956Y91756762D01*
X56214537Y91753581D01*
X56214537Y91753580D01*
X56207857Y91702841D01*
X56194318Y91600000D01*
X56214956Y91443238D01*
X56216183Y91440276D01*
X56216184Y91440272D01*
X56274235Y91300125D01*
X56275464Y91297159D01*
X56277420Y91294610D01*
X56353829Y91195031D01*
X56363536Y91158806D01*
X56349606Y91130556D01*
X56349288Y91130238D01*
X56346739Y91128282D01*
X56250485Y91002841D01*
X56249258Y90999878D01*
X56249256Y90999875D01*
X56191205Y90859728D01*
X56191204Y90859724D01*
X56189977Y90856762D01*
X56169339Y90700000D01*
X56189977Y90543238D01*
X56191207Y90540269D01*
X56197018Y90526239D01*
X56197018Y90488736D01*
X56182908Y90469672D01*
X56061108Y90369310D01*
X56053151Y90363968D01*
X55889354Y90275908D01*
X55880509Y90272217D01*
X55702704Y90217727D01*
X55693314Y90215829D01*
X55617368Y90208096D01*
X55505901Y90196748D01*
X55501110Y90196496D01*
X33286511Y90118550D01*
X33251691Y90132902D01*
X33154109Y90230484D01*
X33154105Y90230487D01*
X33131542Y90253050D01*
X33128105Y90254801D01*
X33128101Y90254804D01*
X33106546Y90265787D01*
X33099989Y90269804D01*
X33080405Y90284033D01*
X33080404Y90284034D01*
X33077290Y90286296D01*
X33050604Y90294967D01*
X33043501Y90297910D01*
X33021941Y90308895D01*
X33021940Y90308895D01*
X33018504Y90310646D01*
X33014701Y90311248D01*
X33014699Y90311249D01*
X32990793Y90315035D01*
X32983317Y90316830D01*
X32960300Y90324309D01*
X32960297Y90324309D01*
X32956633Y90325500D01*
X28396848Y90325500D01*
X28365837Y90336561D01*
X28297878Y90392110D01*
X28291059Y90398905D01*
X28217105Y90488736D01*
X28172334Y90543119D01*
X28166978Y90551113D01*
X28078742Y90715757D01*
X28075050Y90724648D01*
X28020707Y90903368D01*
X28018825Y90912809D01*
X28000237Y91101113D01*
X28000000Y91105927D01*
X28000000Y91997593D01*
X28000236Y92002396D01*
X28018742Y92190287D01*
X28020616Y92199708D01*
X28069632Y92361294D01*
X28093423Y92390284D01*
X28110126Y92395651D01*
X28253580Y92414537D01*
X28253581Y92414537D01*
X28256762Y92414956D01*
X28259724Y92416183D01*
X28259728Y92416184D01*
X28399875Y92474235D01*
X28399878Y92474237D01*
X28402841Y92475464D01*
X28528282Y92571718D01*
X28550017Y92600043D01*
X28602498Y92668438D01*
X28624536Y92697159D01*
X28626409Y92701680D01*
X28683816Y92840272D01*
X28683817Y92840276D01*
X28685044Y92843238D01*
X28685463Y92846420D01*
X28694796Y92917311D01*
X28713548Y92949789D01*
X28729151Y92957804D01*
X28800292Y92979384D01*
X28809712Y92981258D01*
X28997604Y92999764D01*
X29002407Y93000000D01*
X45873255Y93000000D01*
X45907903Y92985648D01*
X45914481Y92977348D01*
X45915357Y92975503D01*
X45937378Y92947519D01*
X45938750Y92945776D01*
X45942154Y92940859D01*
X45961759Y92908488D01*
X45979014Y92890620D01*
X45994245Y92874847D01*
X45997504Y92871111D01*
X46005433Y92861035D01*
X46026417Y92834370D01*
X46028546Y92832646D01*
X46028550Y92832642D01*
X46055818Y92810561D01*
X46060230Y92806519D01*
X46086514Y92779301D01*
X46088802Y92777804D01*
X46125641Y92753697D01*
X46129644Y92750778D01*
X46165985Y92721350D01*
X46168438Y92720143D01*
X46199936Y92704644D01*
X46205123Y92701686D01*
X46236789Y92680964D01*
X46248026Y92676785D01*
X46280612Y92664666D01*
X46285165Y92662705D01*
X46324662Y92643270D01*
X46324669Y92643267D01*
X46327125Y92642059D01*
X46329793Y92641423D01*
X46329794Y92641423D01*
X46363930Y92633291D01*
X46369651Y92631553D01*
X46380885Y92627375D01*
X46402552Y92619317D01*
X46402556Y92619316D01*
X46405116Y92618364D01*
X46407822Y92618003D01*
X46407826Y92618002D01*
X46451466Y92612180D01*
X46456341Y92611276D01*
X46459016Y92610639D01*
X46499159Y92601075D01*
X46499162Y92601075D01*
X46501826Y92600440D01*
X46504567Y92600411D01*
X46504569Y92600411D01*
X46539655Y92600043D01*
X46545621Y92599616D01*
X46565740Y92596932D01*
X46583130Y92594612D01*
X46585855Y92594860D01*
X46585857Y92594860D01*
X46629697Y92598850D01*
X46634651Y92599049D01*
X46681407Y92598559D01*
X46684084Y92599138D01*
X46684086Y92599138D01*
X46694513Y92601392D01*
X46718391Y92606555D01*
X46724293Y92607458D01*
X46741162Y92608993D01*
X46759249Y92610639D01*
X46759252Y92610640D01*
X46761981Y92610888D01*
X46806465Y92625342D01*
X46811246Y92626631D01*
X46834006Y92631552D01*
X46854265Y92635932D01*
X46854267Y92635933D01*
X46856942Y92636511D01*
X46859418Y92637666D01*
X46859422Y92637667D01*
X46891230Y92652500D01*
X46896797Y92654693D01*
X46930176Y92665538D01*
X46930178Y92665539D01*
X46932782Y92666385D01*
X46935135Y92667788D01*
X46935138Y92667789D01*
X46957239Y92680964D01*
X46972952Y92690330D01*
X46977324Y92692645D01*
X47019707Y92712409D01*
X47023859Y92715629D01*
X47049602Y92735598D01*
X47054544Y92738969D01*
X47084691Y92756940D01*
X47084693Y92756942D01*
X47087044Y92758343D01*
X47089027Y92760231D01*
X47120915Y92790597D01*
X47124670Y92793827D01*
X47125303Y92794318D01*
X47130177Y92798099D01*
X47157408Y92825330D01*
X47158265Y92826166D01*
X47215115Y92880303D01*
X47215118Y92880306D01*
X47217099Y92882193D01*
X47218615Y92884474D01*
X47219995Y92886551D01*
X47226159Y92894081D01*
X47317726Y92985648D01*
X47352374Y93000000D01*
X52128842Y93000000D01*
X52163490Y92985648D01*
X52176623Y92961860D01*
X52176649Y92961744D01*
X52176954Y92959028D01*
X52177854Y92956445D01*
X52177854Y92956443D01*
X52189398Y92923294D01*
X52191017Y92917536D01*
X52199011Y92880558D01*
X52200169Y92878075D01*
X52218771Y92838181D01*
X52220636Y92833588D01*
X52235013Y92792305D01*
X52236015Y92789427D01*
X52237464Y92787108D01*
X52237466Y92787104D01*
X52256064Y92757342D01*
X52258919Y92752084D01*
X52265035Y92738969D01*
X52274909Y92717793D01*
X52286581Y92702746D01*
X52303564Y92680852D01*
X52306402Y92676785D01*
X52324073Y92648506D01*
X52331184Y92637125D01*
X52333114Y92635181D01*
X52333116Y92635179D01*
X52359304Y92608807D01*
X52360140Y92607914D01*
X52360599Y92607323D01*
X52386459Y92581463D01*
X52424419Y92543238D01*
X52436960Y92530609D01*
X52437420Y92530139D01*
X52486514Y92479301D01*
X52528136Y92452065D01*
X52531864Y92449365D01*
X52568590Y92420047D01*
X52568593Y92420045D01*
X52570734Y92418336D01*
X52577726Y92414956D01*
X52602119Y92403164D01*
X52607624Y92400049D01*
X52614345Y92395651D01*
X52636789Y92380964D01*
X52683409Y92363626D01*
X52687647Y92361818D01*
X52729952Y92341366D01*
X52729960Y92341363D01*
X52732422Y92340173D01*
X52735090Y92339557D01*
X52735093Y92339556D01*
X52749961Y92336124D01*
X52766390Y92332331D01*
X52772432Y92330519D01*
X52805116Y92318364D01*
X52807827Y92318002D01*
X52807828Y92318002D01*
X52833469Y92314581D01*
X52854419Y92311786D01*
X52858954Y92310961D01*
X52887304Y92304416D01*
X52904742Y92300390D01*
X52904744Y92300390D01*
X52907411Y92299774D01*
X52910145Y92299764D01*
X52910149Y92299764D01*
X52942268Y92299652D01*
X52948577Y92299222D01*
X52949349Y92299119D01*
X52983130Y92294612D01*
X52985855Y92294860D01*
X52985857Y92294860D01*
X53022725Y92298216D01*
X53032653Y92299119D01*
X53037263Y92299321D01*
X53087000Y92299147D01*
X53089670Y92299744D01*
X53089672Y92299744D01*
X53121018Y92306750D01*
X53127264Y92307728D01*
X53159249Y92310639D01*
X53159252Y92310640D01*
X53161981Y92310888D01*
X53164587Y92311735D01*
X53164593Y92311736D01*
X53209287Y92326259D01*
X53213736Y92327476D01*
X53235464Y92332333D01*
X53259594Y92337726D01*
X53259598Y92337728D01*
X53262267Y92338324D01*
X53264740Y92339498D01*
X53264745Y92339500D01*
X53293754Y92353274D01*
X53299630Y92355613D01*
X53317114Y92361294D01*
X53332782Y92366385D01*
X53375510Y92391856D01*
X53379580Y92394029D01*
X53422020Y92414181D01*
X53424497Y92415357D01*
X53451889Y92436912D01*
X53457089Y92440486D01*
X53487044Y92458343D01*
X53523067Y92492647D01*
X53526554Y92495667D01*
X53563476Y92524722D01*
X53565630Y92526417D01*
X53587573Y92553515D01*
X53591844Y92558143D01*
X53617099Y92582193D01*
X53635998Y92610639D01*
X53644620Y92623616D01*
X53647353Y92627337D01*
X53676929Y92663859D01*
X53676931Y92663863D01*
X53678650Y92665985D01*
X53694041Y92697265D01*
X53697194Y92702746D01*
X53704730Y92714088D01*
X53716483Y92731778D01*
X53717454Y92734334D01*
X53717458Y92734342D01*
X53734148Y92778279D01*
X53735984Y92782504D01*
X53757941Y92827125D01*
X53766020Y92861039D01*
X53767876Y92867071D01*
X53780257Y92899664D01*
X53780638Y92902373D01*
X53780639Y92902378D01*
X53787180Y92948918D01*
X53788036Y92953450D01*
X53789073Y92957804D01*
X53790157Y92962353D01*
X53812144Y92992733D01*
X53837823Y93000000D01*
X55000000Y93000000D01*
X55000000Y94178619D01*
X55014352Y94213267D01*
X55023910Y94220708D01*
X55037148Y94228599D01*
X55087044Y94258343D01*
X55089581Y94260759D01*
X55097407Y94266829D01*
X55098050Y94267231D01*
X55098051Y94267232D01*
X55100375Y94268684D01*
X55157780Y94325689D01*
X55158496Y94326385D01*
X55215116Y94380303D01*
X55215123Y94380311D01*
X55217099Y94382193D01*
X55219038Y94385111D01*
X55225320Y94392759D01*
X55225859Y94393294D01*
X55225864Y94393300D01*
X55227807Y94395230D01*
X55271140Y94463512D01*
X55271697Y94464370D01*
X55314160Y94528282D01*
X55316483Y94531778D01*
X55317729Y94535058D01*
X55322161Y94543908D01*
X55322570Y94544552D01*
X55322571Y94544554D01*
X55324037Y94546864D01*
X55351163Y94623041D01*
X55351516Y94624002D01*
X55379284Y94697103D01*
X55380257Y94699664D01*
X55380744Y94703132D01*
X55383106Y94712750D01*
X55383362Y94713469D01*
X55384281Y94716049D01*
X55384605Y94718765D01*
X55384606Y94718770D01*
X55393857Y94796354D01*
X55393989Y94797371D01*
X55405035Y94875973D01*
X55405251Y94877507D01*
X55405479Y94893820D01*
X55405545Y94894376D01*
X55405493Y94894867D01*
X55405565Y94900000D01*
X55395882Y94986321D01*
X55395848Y94986638D01*
X55387059Y95070261D01*
X55386773Y95072983D01*
X55385891Y95075573D01*
X55385851Y95075754D01*
X55385546Y95078472D01*
X55376299Y95105027D01*
X55357006Y95160427D01*
X55356894Y95160751D01*
X55329781Y95240396D01*
X55328897Y95242993D01*
X55327467Y95245316D01*
X55327382Y95245497D01*
X55326485Y95248073D01*
X55280462Y95321726D01*
X55280321Y95321954D01*
X55236232Y95393619D01*
X55236228Y95393624D01*
X55234794Y95395955D01*
X55232886Y95397904D01*
X55232760Y95398063D01*
X55231316Y95400375D01*
X55170025Y95462095D01*
X55109141Y95524268D01*
X55106846Y95525747D01*
X55106694Y95525870D01*
X55104770Y95527807D01*
X55102459Y95529274D01*
X55102456Y95529276D01*
X55031531Y95574286D01*
X55031240Y95574472D01*
X55022454Y95580135D01*
X55001106Y95610969D01*
X55000000Y95621321D01*
X55000000Y104997593D01*
X55000236Y105002396D01*
X55018742Y105190287D01*
X55020616Y105199708D01*
X55074720Y105378066D01*
X55078396Y105386940D01*
X55166254Y105551311D01*
X55171590Y105559298D01*
X55289831Y105703376D01*
X55296624Y105710169D01*
X55440702Y105828410D01*
X55448689Y105833746D01*
X55613060Y105921604D01*
X55621934Y105925280D01*
X55800292Y105979384D01*
X55809713Y105981258D01*
X55997604Y105999764D01*
X56002407Y106000000D01*
X59370628Y106000000D01*
X59405276Y105985648D01*
G37*
%TD.AperFunction*%
M02*
