M48
; DRILL file {KiCad 5.99.0-unknown-b90e72ed07~107~ubuntu18.04.1} date Mon Feb  1 09:36:54 2021
; FORMAT={-:-/ absolute / metric / decimal}
; #@! TF.CreationDate,2021-02-01T09:36:54+01:00
; #@! TF.GenerationSoftware,Kicad,Pcbnew,5.99.0-unknown-b90e72ed07~107~ubuntu18.04.1
; #@! TF.FileFunction,Plated,1,4,PTH
FMAT,2
METRIC
T1C0.200
T2C0.400
T3C0.500
T4C0.760
T5C0.900
T6C0.920
T7C1.000
T8C1.016
T9C1.200
T10C1.651
T11C2.330
%
G90
G05
T1
X8.1Y17.4
X8.124Y18.224
X8.6Y37.0
X8.7Y40.9
X8.8Y38.6
X9.2Y25.15
X9.3Y23.2
X10.0Y112.6
X10.5Y21.7
X10.5Y20.1
X10.9Y37.0
X11.5Y38.6
X11.95Y23.5
X12.0Y25.15
X12.25Y42.5
X12.8Y12.8
X12.9Y40.5
X13.3Y87.5
X13.6Y37.0
X14.6Y16.5
X15.015Y21.391
X15.8Y16.6
X16.0Y59.3
X16.0Y55.2
X16.1Y22.2
X16.2Y41.9
X16.3Y43.5
X16.8Y21.4
X16.9Y42.4
X17.1Y11.5
X17.4Y20.1
X17.9Y50.1
X18.2Y112.6
X18.7Y62.3
X18.7Y12.9
X18.8Y89.2
X18.8Y45.6
X18.9Y41.1
X19.0Y44.3
X19.1Y46.9
X19.6Y69.0
X19.6Y63.5
X20.6Y78.9
X20.9Y12.2
X21.5Y84.3
X22.0Y83.5
X22.034Y96.2
X22.1Y62.3
X22.3Y52.2
X23.0Y65.65
X23.0Y42.3
X23.0Y41.5
X23.0Y40.7
X23.0Y39.9
X23.9Y85.2
X24.0Y57.7
X24.0Y49.2
X24.1Y45.4
X24.29Y52.2
X24.8Y39.3
X25.4Y38.7
X25.555Y55.973
X26.0Y38.1
X26.2Y112.6
X26.6Y37.5
X27.0Y93.9
X27.2Y95.2
X27.2Y36.9
X27.4Y57.9
X27.5Y16.8
X28.1Y93.0
X28.3Y100.2
X28.4Y91.4
X28.49Y67.08
X28.5Y87.1
X28.5Y80.2
X28.501Y68.019
X29.15Y61.55
X29.2Y54.2
X29.2Y53.4
X29.4Y91.4
X29.5Y100.3
X29.5Y87.1
X29.7Y95.2
X29.9Y83.8
X29.9Y20.1
X30.4Y57.3
X30.476Y54.824
X30.6Y91.4
X30.6Y87.1
X30.8Y94.7
X31.1Y20.1
X31.659Y65.669
X31.7Y91.4
X31.7Y87.1
X31.7Y57.7
X31.8Y58.6
X31.9Y95.2
X32.2Y39.9
X32.4Y35.6
X32.4Y15.6
X32.8Y95.2
X33.024Y39.924
X33.1Y70.4
X33.3Y96.5
X33.7Y76.9
X33.7Y15.7
X33.8Y74.1
X33.865Y39.932
X34.1Y18.5
X34.2Y112.6
X34.2Y71.4
X34.43Y68.03
X34.5Y50.4
X34.5Y15.2
X34.6Y49.15
X34.665Y39.923
X34.716Y59.364
X35.2Y72.6
X35.3Y76.9
X35.3Y52.5
X35.4Y63.1
X35.775Y59.825
X36.076Y61.924
X36.1Y16.8
X36.18Y45.84
X36.2Y20.5
X36.225Y73.4
X36.3Y50.4
X36.6Y48.5
X36.771Y45.24
X36.85Y19.298
X36.9Y82.6
X36.9Y18.5
X36.94Y66.15
X37.075Y52.5
X37.49Y54.775
X37.62Y65.66
X37.788Y64.86
X37.915Y54.0
X38.098Y57.4
X38.388Y66.1
X38.5Y81.7
X38.79Y54.0
X38.988Y66.985
X39.02Y58.28
X39.3Y81.7
X39.4Y38.2
X39.407Y27.693
X39.588Y64.83
X39.6Y47.8
X39.62Y57.4
X39.65Y54.796
X40.0Y11.3
X40.1Y34.9
X40.19Y65.5
X40.2Y76.4
X40.31Y58.89
X40.48Y68.74
X40.7Y35.5
X40.79Y66.11
X41.1Y29.3
X41.14Y57.48
X41.4Y63.6
X41.7Y53.5
X41.8Y47.9
X42.04Y68.14
X42.1Y76.0
X42.3Y16.8
X42.4Y112.6
X42.64Y67.4
X42.8Y70.0
X43.1Y22.7
X43.24Y64.2
X43.5Y74.9
X43.7Y27.693
X43.84Y61.84
X44.074Y30.9
X44.08Y57.37
X44.086Y32.586
X44.113Y31.709
X44.376Y24.776
X44.4Y78.1
X44.8Y54.8
X45.0Y23.9
X45.0Y19.3
X45.0Y14.9
X45.2Y12.9
X45.3Y76.5
X45.3Y75.7
X45.4Y59.2
X45.55Y34.9
X45.7Y23.3
X45.8Y18.0
X46.3Y65.5
X46.35Y53.5
X46.35Y50.65
X46.35Y31.2
X46.45Y33.6
X46.45Y32.0
X47.1Y77.3
X47.1Y76.5
X47.1Y75.7
X47.1Y74.9
X47.1Y65.5
X47.1Y28.4
X47.14Y59.7
X47.5Y17.0
X47.85Y53.55
X47.85Y50.7
X47.9Y83.5
X47.9Y82.7
X47.9Y81.9
X47.9Y81.1
X48.5Y57.0
X48.7Y28.4
X48.8Y19.6
X48.9Y33.45
X49.8Y57.9
X49.9Y69.85
X49.9Y59.5
X50.0Y27.2
X50.04Y19.6
X50.2Y58.7
X50.3Y62.4
X50.3Y35.5
X50.376Y24.276
X50.4Y112.6
X50.55Y33.45
X50.7Y69.35
X51.1Y62.1
X51.1Y38.9
X51.15Y70.35
X51.169Y71.95
X51.3Y14.6
X51.4Y58.4
X51.5Y81.9
X51.5Y81.1
X51.5Y36.0
X51.8Y28.0
X51.8Y26.0
X52.1Y39.6
X53.0Y14.6
X53.199Y30.551
X53.6Y16.9
X53.7Y37.8
X53.8Y28.0
X53.8Y26.0
X53.9Y70.3
X53.9Y68.8
X53.969Y71.95
X54.0Y30.6
X54.2Y58.4
X54.4Y105.6
X54.5Y29.8
X54.8Y25.0
X55.0Y28.9
X55.4Y23.8
X55.8Y30.3
X55.9Y14.2
X56.0Y64.8
X56.0Y64.0
X56.0Y63.2
X56.7Y90.7
X56.8Y91.6
X57.0Y22.5
X57.1Y93.4
X57.2Y19.5
X57.5Y36.6
X57.8Y89.9
X57.8Y47.0
X57.8Y44.2
X57.9Y92.5
X58.4Y19.5
X58.6Y30.9
X59.0Y110.5
X59.1Y97.0
X59.1Y89.9
X59.4Y115.4
X59.5Y112.6
X59.7Y14.5
X59.8Y104.9
X59.876Y65.524
X59.9Y109.9
X59.9Y64.7
X59.9Y63.1
X60.2Y33.5
X60.2Y28.0
X60.3Y23.1
X60.4Y77.9
X60.434Y93.65
X60.5Y92.8
X60.7Y47.0
X60.7Y44.2
X61.1Y94.1
X61.1Y31.3
X61.2Y26.4
X61.4Y106.8
X61.4Y17.387
X61.4Y14.587
X61.5Y92.5
X61.8Y94.9
X61.9Y109.9
X62.1Y78.7
X62.3Y21.8
X62.3Y18.7
X62.8Y69.3
X62.9Y57.3
X63.0Y33.5
X63.4Y46.3
X63.8Y80.8
X64.0Y77.1
X64.1Y107.0
X65.2Y79.7
X65.2Y55.7
X65.3Y58.5
X65.3Y44.9
X65.4Y105.3
X65.5Y67.0
X65.7Y111.2
X65.9Y54.0
X65.9Y53.2
X66.2Y112.3
X66.3Y92.7
X66.3Y85.4
X66.4Y89.925
X66.5Y82.3
X66.7Y61.6
X66.7Y51.0
X66.7Y44.9
X66.8Y69.8
X66.8Y67.0
X67.8Y79.7
X67.8Y53.2
X67.8Y52.4
X68.1Y64.5
X68.3Y45.1
X68.6Y112.2
X69.1Y95.9
X69.1Y91.4
X69.1Y55.7
X69.6Y105.9
X70.1Y114.4
X72.4Y17.0
X72.4Y16.2
X74.4Y16.2
X76.1Y17.8
T2
X30.1Y99.35
X30.2Y97.2
X32.3Y99.35
X32.3Y97.2
X56.7Y113.9
X57.8Y108.9
X58.9Y105.1
X60.7Y112.2
X63.6Y97.0
X64.2Y83.7
X64.6Y90.2
X64.6Y59.9
X64.6Y50.0
X64.9Y69.3
X67.7Y97.9
X69.0Y98.4
T3
X1.7Y105.8
X1.75Y107.75
X5.6Y105.9
X12.3Y115.1
X20.5Y115.1
X28.5Y115.1
X33.0Y103.8
X36.5Y115.1
X43.25Y96.8
X44.65Y96.85
X44.7Y115.1
X46.2Y104.3
X46.6Y93.4
X51.2Y94.9
X52.7Y115.1
X53.0Y96.7
X53.0Y93.1
X54.6Y94.9
X54.9Y107.4
X55.0Y112.0
X55.0Y110.5
X55.0Y109.0
X68.6Y109.8
T4
X10.3Y79.9
X10.3Y77.36
X10.3Y74.82
X10.3Y72.28
X10.3Y62.1
X10.3Y59.56
X10.3Y57.02
X10.3Y54.48
X12.84Y78.63
X12.84Y76.09
X12.84Y73.55
X12.84Y71.01
X12.84Y60.83
X12.84Y58.29
X12.84Y55.75
X12.84Y53.21
T5
X65.56Y33.49
X65.56Y30.95
X65.56Y28.41
X65.56Y25.87
X68.1Y32.22
X68.1Y29.68
X68.1Y27.14
X68.1Y24.6
T6
X13.5Y98.0
X13.5Y95.5
X15.5Y98.0
X15.5Y95.5
T7
X3.5Y47.12
X3.5Y44.58
X3.5Y42.04
X3.5Y39.5
X3.5Y36.96
X3.5Y34.42
X3.5Y31.88
X3.5Y29.34
X3.5Y26.8
X3.5Y24.26
X3.5Y21.72
X3.5Y19.18
X3.5Y16.64
X3.5Y14.1
X6.04Y47.12
X6.04Y44.58
X6.04Y42.04
X6.04Y39.5
X6.04Y36.96
X6.04Y34.42
X6.04Y31.88
X6.04Y29.34
X6.04Y26.8
X6.04Y24.26
X6.04Y21.72
X6.04Y19.18
X6.04Y16.64
X6.04Y14.1
X36.0Y88.0
X38.54Y88.0
X41.08Y88.0
X43.62Y88.0
T8
X78.565Y35.669
X78.565Y33.13
X78.565Y24.935
X78.565Y22.395
T9
X3.0Y119.9
X4.7Y7.5
X6.5Y119.9
X8.2Y7.5
X10.0Y119.9
X11.7Y7.5
X13.5Y119.9
X15.2Y7.5
X17.0Y119.9
X18.7Y7.5
X20.5Y119.9
X22.2Y7.5
X24.0Y119.9
X25.7Y7.5
X27.5Y119.9
X29.2Y7.5
X31.0Y119.9
X32.7Y7.5
X34.5Y119.9
X36.2Y7.5
X45.1Y7.5
X46.4Y119.9
X48.6Y7.5
X49.9Y119.9
X52.1Y7.5
X53.4Y119.9
X55.6Y7.5
X56.9Y119.9
X59.1Y7.5
X60.4Y119.9
X62.6Y7.5
X63.9Y119.9
X66.1Y7.5
X67.4Y119.9
X69.6Y7.5
X70.9Y119.9
X73.1Y111.4
X73.1Y107.9
X73.1Y104.4
X73.1Y100.9
X73.1Y97.4
X73.1Y93.9
X73.1Y90.4
X73.1Y86.9
X73.1Y83.4
X73.1Y79.9
X73.1Y74.0
X73.1Y70.5
X73.1Y67.0
X73.1Y63.5
X73.1Y60.0
X73.1Y56.5
X73.1Y53.0
X73.1Y49.5
X73.1Y46.0
X73.1Y42.5
X73.1Y7.5
X74.4Y119.9
X76.6Y7.5
X77.9Y119.9
T10
X71.4Y36.795
X71.4Y21.295
T11
X10.79Y102.77
X10.79Y90.73
T0
M30
