%TF.GenerationSoftware,KiCad,Pcbnew,6.0.0-rc1-unknown-e56e61ffb5~144~ubuntu20.04.1*%
%TF.CreationDate,2021-11-28T18:30:16+01:00*%
%TF.ProjectId,Uni_Printer,556e695f-5072-4696-9e74-65722e6b6963,rev?*%
%TF.SameCoordinates,PX48009e0PY88da2e0*%
%TF.FileFunction,Copper,L4,Bot*%
%TF.FilePolarity,Positive*%
%FSLAX46Y46*%
G04 Gerber Fmt 4.6, Leading zero omitted, Abs format (unit mm)*
G04 Created by KiCad (PCBNEW 6.0.0-rc1-unknown-e56e61ffb5~144~ubuntu20.04.1) date 2021-11-28 18:30:16*
%MOMM*%
%LPD*%
G01*
G04 APERTURE LIST*
G04 Aperture macros list*
%AMFreePoly0*
4,1,22,0.550000,-0.750000,0.000000,-0.750000,0.000000,-0.745033,-0.079941,-0.743568,-0.215256,-0.701293,-0.333266,-0.622738,-0.424486,-0.514219,-0.481581,-0.384460,-0.499164,-0.250000,-0.500000,-0.250000,-0.500000,0.250000,-0.499164,0.250000,-0.499963,0.256109,-0.478152,0.396186,-0.417904,0.524511,-0.324060,0.630769,-0.204165,0.706417,-0.067858,0.745374,0.000000,0.744959,0.000000,0.750000,
0.550000,0.750000,0.550000,-0.750000,0.550000,-0.750000,$1*%
%AMFreePoly1*
4,1,20,0.000000,0.744959,0.073905,0.744508,0.209726,0.703889,0.328688,0.626782,0.421226,0.519385,0.479903,0.390333,0.500000,0.250000,0.500000,-0.250000,0.499851,-0.262216,0.476331,-0.402017,0.414519,-0.529596,0.319384,-0.634700,0.198574,-0.708877,0.061801,-0.746166,0.000000,-0.745033,0.000000,-0.750000,-0.550000,-0.750000,-0.550000,0.750000,0.000000,0.750000,0.000000,0.744959,
0.000000,0.744959,$1*%
G04 Aperture macros list end*
%TA.AperFunction,ComponentPad*%
%ADD10R,1.800000X3.600000*%
%TD*%
%TA.AperFunction,ComponentPad*%
%ADD11O,1.800000X3.600000*%
%TD*%
%TA.AperFunction,ComponentPad*%
%ADD12R,1.500000X1.500000*%
%TD*%
%TA.AperFunction,ComponentPad*%
%ADD13C,1.500000*%
%TD*%
%TA.AperFunction,ComponentPad*%
%ADD14R,3.600000X1.800000*%
%TD*%
%TA.AperFunction,ComponentPad*%
%ADD15O,3.600000X1.800000*%
%TD*%
%TA.AperFunction,ComponentPad*%
%ADD16R,1.700000X1.700000*%
%TD*%
%TA.AperFunction,ComponentPad*%
%ADD17O,1.700000X1.700000*%
%TD*%
%TA.AperFunction,ComponentPad*%
%ADD18R,1.778000X1.778000*%
%TD*%
%TA.AperFunction,ComponentPad*%
%ADD19C,1.778000*%
%TD*%
%TA.AperFunction,ComponentPad*%
%ADD20C,2.032000*%
%TD*%
%TA.AperFunction,ComponentPad*%
%ADD21C,2.540000*%
%TD*%
%TA.AperFunction,ComponentPad*%
%ADD22C,1.700000*%
%TD*%
%TA.AperFunction,ComponentPad*%
%ADD23C,3.500000*%
%TD*%
%TA.AperFunction,SMDPad,CuDef*%
%ADD24FreePoly0,0.000000*%
%TD*%
%TA.AperFunction,SMDPad,CuDef*%
%ADD25R,1.000000X1.500000*%
%TD*%
%TA.AperFunction,SMDPad,CuDef*%
%ADD26FreePoly1,0.000000*%
%TD*%
%TA.AperFunction,SMDPad,CuDef*%
%ADD27FreePoly0,180.000000*%
%TD*%
%TA.AperFunction,SMDPad,CuDef*%
%ADD28FreePoly1,180.000000*%
%TD*%
%TA.AperFunction,SMDPad,CuDef*%
%ADD29FreePoly0,90.000000*%
%TD*%
%TA.AperFunction,SMDPad,CuDef*%
%ADD30R,1.500000X1.000000*%
%TD*%
%TA.AperFunction,SMDPad,CuDef*%
%ADD31FreePoly1,90.000000*%
%TD*%
%TA.AperFunction,SMDPad,CuDef*%
%ADD32FreePoly0,270.000000*%
%TD*%
%TA.AperFunction,SMDPad,CuDef*%
%ADD33FreePoly1,270.000000*%
%TD*%
%TA.AperFunction,ViaPad*%
%ADD34C,0.600000*%
%TD*%
%TA.AperFunction,ViaPad*%
%ADD35C,1.000000*%
%TD*%
%TA.AperFunction,ViaPad*%
%ADD36C,0.800000*%
%TD*%
%TA.AperFunction,Conductor*%
%ADD37C,0.800000*%
%TD*%
%TA.AperFunction,Conductor*%
%ADD38C,0.200000*%
%TD*%
%TA.AperFunction,Conductor*%
%ADD39C,1.000000*%
%TD*%
%TA.AperFunction,Conductor*%
%ADD40C,0.300000*%
%TD*%
G04 APERTURE END LIST*
D10*
X4700000Y7500000D03*
D11*
X8200000Y7500000D03*
X11700000Y7500000D03*
X15200000Y7500000D03*
X18700000Y7500000D03*
X22200000Y7500000D03*
X25700000Y7500000D03*
X29200000Y7500000D03*
X32700000Y7500000D03*
X36200000Y7500000D03*
D12*
X10300000Y79900000D03*
D13*
X12840000Y78630000D03*
X10300000Y77360000D03*
X12840000Y76090000D03*
X10300000Y74820000D03*
X12840000Y73550000D03*
X10300000Y72280000D03*
X12840000Y71010000D03*
D14*
X73100000Y42500000D03*
D15*
X73100000Y46000000D03*
X73100000Y49500000D03*
X73100000Y53000000D03*
X73100000Y56500000D03*
X73100000Y60000000D03*
X73100000Y63500000D03*
X73100000Y67000000D03*
X73100000Y70500000D03*
X73100000Y74000000D03*
D16*
X3500000Y47120000D03*
D17*
X6040000Y47120000D03*
X3500000Y44580000D03*
X6040000Y44580000D03*
X3500000Y42040000D03*
X6040000Y42040000D03*
X3500000Y39500000D03*
X6040000Y39500000D03*
X3500000Y36960000D03*
X6040000Y36960000D03*
X3500000Y34420000D03*
X6040000Y34420000D03*
X3500000Y31880000D03*
X6040000Y31880000D03*
X3500000Y29340000D03*
X6040000Y29340000D03*
X3500000Y26800000D03*
X6040000Y26800000D03*
X3500000Y24260000D03*
X6040000Y24260000D03*
X3500000Y21720000D03*
X6040000Y21720000D03*
X3500000Y19180000D03*
X6040000Y19180000D03*
X3500000Y16640000D03*
X6040000Y16640000D03*
X3500000Y14100000D03*
X6040000Y14100000D03*
X3500000Y11560000D03*
X6040000Y11560000D03*
D16*
X53650000Y88275000D03*
D17*
X53650000Y85735000D03*
X53650000Y83195000D03*
X53650000Y80655000D03*
X53650000Y78115000D03*
X53650000Y75575000D03*
D10*
X77900000Y119900000D03*
D11*
X74400000Y119900000D03*
X70900000Y119900000D03*
X67400000Y119900000D03*
X63900000Y119900000D03*
X60400000Y119900000D03*
X56900000Y119900000D03*
X53400000Y119900000D03*
X49900000Y119900000D03*
X46400000Y119900000D03*
D10*
X34500000Y119900000D03*
D11*
X31000000Y119900000D03*
X27500000Y119900000D03*
X24000000Y119900000D03*
X20500000Y119900000D03*
X17000000Y119900000D03*
X13500000Y119900000D03*
X10000000Y119900000D03*
X6500000Y119900000D03*
X3000000Y119900000D03*
D10*
X45100000Y7500000D03*
D11*
X48600000Y7500000D03*
X52100000Y7500000D03*
X55600000Y7500000D03*
X59100000Y7500000D03*
X62600000Y7500000D03*
X66100000Y7500000D03*
X69600000Y7500000D03*
X73100000Y7500000D03*
X76600000Y7500000D03*
D14*
X73100000Y79900000D03*
D15*
X73100000Y83400000D03*
X73100000Y86900000D03*
X73100000Y90400000D03*
X73100000Y93900000D03*
X73100000Y97400000D03*
X73100000Y100900000D03*
X73100000Y104400000D03*
X73100000Y107900000D03*
X73100000Y111400000D03*
D18*
X68100000Y24600000D03*
D19*
X65560000Y25870000D03*
X68100000Y27140000D03*
X65560000Y28410000D03*
X68100000Y29680000D03*
X65560000Y30950000D03*
X68100000Y32220000D03*
X65560000Y33490000D03*
D20*
X78564800Y22395400D03*
X78564800Y24935000D03*
X78564800Y33130000D03*
X78564800Y35669200D03*
D21*
X71400000Y36795000D03*
X71400000Y21295000D03*
D16*
X15500000Y95500000D03*
D22*
X15500000Y98000000D03*
X13500000Y98000000D03*
X13500000Y95500000D03*
D23*
X10790000Y102770000D03*
X10790000Y90730000D03*
D16*
X36000000Y88000000D03*
D17*
X38540000Y88000000D03*
X41080000Y88000000D03*
X43620000Y88000000D03*
D12*
X10300000Y62100000D03*
D13*
X12840000Y60830000D03*
X10300000Y59560000D03*
X12840000Y58290000D03*
X10300000Y57020000D03*
X12840000Y55750000D03*
X10300000Y54480000D03*
X12840000Y53210000D03*
D24*
X65100000Y95400000D03*
D25*
X66400000Y95400000D03*
D26*
X67700000Y95400000D03*
D27*
X60400000Y91200000D03*
D25*
X59100000Y91200000D03*
D28*
X57800000Y91200000D03*
D24*
X65100000Y91200000D03*
D25*
X66400000Y91200000D03*
D26*
X67700000Y91200000D03*
D24*
X65100000Y83700000D03*
D25*
X66400000Y83700000D03*
D26*
X67700000Y83700000D03*
D27*
X68100000Y65700000D03*
D25*
X66800000Y65700000D03*
D28*
X65500000Y65700000D03*
D24*
X65400000Y59900000D03*
D25*
X66700000Y59900000D03*
D26*
X68000000Y59900000D03*
D27*
X67700000Y80900000D03*
D25*
X66400000Y80900000D03*
D28*
X65100000Y80900000D03*
D27*
X60700000Y113900000D03*
D25*
X59400000Y113900000D03*
D28*
X58100000Y113900000D03*
D24*
X65400000Y49100000D03*
D25*
X66700000Y49100000D03*
D26*
X68000000Y49100000D03*
D24*
X65500000Y68450000D03*
D25*
X66800000Y68450000D03*
D26*
X68100000Y68450000D03*
D29*
X65400000Y106300000D03*
D30*
X65400000Y107600000D03*
D31*
X65400000Y108900000D03*
D27*
X60400000Y95400000D03*
D25*
X59100000Y95400000D03*
D28*
X57800000Y95400000D03*
D27*
X68000000Y46300000D03*
D25*
X66700000Y46300000D03*
D28*
X65400000Y46300000D03*
D24*
X66200000Y113900000D03*
D25*
X67500000Y113900000D03*
D26*
X68800000Y113900000D03*
D27*
X68000000Y57100000D03*
D25*
X66700000Y57100000D03*
D28*
X65400000Y57100000D03*
D32*
X59700000Y108900000D03*
D30*
X59700000Y107600000D03*
D33*
X59700000Y106300000D03*
D34*
X54400000Y105600000D03*
X60700000Y47000000D03*
X33800000Y74100000D03*
X36900000Y82600000D03*
D35*
X54600000Y94900000D03*
D34*
X49800000Y57900000D03*
X51400000Y58400000D03*
X51300000Y14600000D03*
X22300000Y52200000D03*
X39650000Y54795581D03*
X11500000Y38600000D03*
X37490280Y54775125D03*
D35*
X51200000Y94900000D03*
D34*
X60400000Y77900000D03*
X51100000Y72000000D03*
X46400000Y53400000D03*
X15014505Y21391297D03*
X32400000Y15600000D03*
X47900000Y53400000D03*
X59900000Y109900000D03*
X19600000Y63500000D03*
X16800000Y21400000D03*
X53000000Y14600000D03*
X33700000Y15700000D03*
X9300000Y23200000D03*
X60500000Y92800000D03*
X35300000Y52500000D03*
X24000000Y57700000D03*
X51100000Y70400000D03*
X21500000Y84300000D03*
X31700000Y57700000D03*
X67800000Y53200000D03*
X30400000Y57300000D03*
X17100000Y11500000D03*
X57900000Y92500000D03*
X65900000Y53200000D03*
X18700000Y12900000D03*
X44800000Y54800000D03*
X9200000Y25150000D03*
X22000000Y83500000D03*
X61400000Y14587500D03*
X18700000Y62300000D03*
D35*
X53000000Y93100000D03*
D34*
X8800000Y38600000D03*
D35*
X53000000Y96700000D03*
D34*
X34200000Y71400000D03*
X59700000Y14500000D03*
X49900000Y69850000D03*
X37074998Y52500000D03*
X17900000Y50100000D03*
X11950000Y23500000D03*
X12900000Y40500000D03*
X36300000Y50400000D03*
X27000000Y93900000D03*
X20900000Y12200000D03*
X55900000Y14200000D03*
X14600000Y16500000D03*
X53800000Y28000000D03*
X36900000Y18500000D03*
D35*
X46200000Y104300000D03*
D34*
X48800000Y19600000D03*
X34600000Y49150000D03*
X53600000Y16900000D03*
X42300000Y16800000D03*
X31100000Y20100000D03*
X33300000Y96500000D03*
X58600000Y30900000D03*
X23900000Y85200000D03*
X54500000Y68700000D03*
X33700000Y76900000D03*
X64000000Y77100000D03*
X51800000Y26000000D03*
X47100000Y76500000D03*
X50040000Y19600000D03*
X28300000Y100200000D03*
X13300000Y87500000D03*
D35*
X52700000Y115100000D03*
D34*
X50700000Y69350000D03*
X51500000Y36000000D03*
X39600000Y47800000D03*
X69100000Y95900000D03*
X56800000Y91600000D03*
X31900000Y95200000D03*
D35*
X28500000Y115100000D03*
D34*
X24100000Y45400000D03*
D35*
X1700000Y105800000D03*
D34*
X29900000Y83800000D03*
X27500000Y16800000D03*
X57000000Y22500000D03*
D36*
X30200000Y97200000D03*
D34*
X19600000Y69000000D03*
X58400000Y19500000D03*
X61400000Y17387500D03*
X39400000Y38200000D03*
X15800000Y16600000D03*
D35*
X1750000Y107750000D03*
D34*
X54500000Y72000000D03*
X44080000Y57370000D03*
X62100000Y78700000D03*
X51800000Y28000000D03*
X48900000Y33450000D03*
D35*
X36500000Y115100000D03*
D34*
X39620000Y57400000D03*
D35*
X12300000Y115100000D03*
D34*
X28500000Y80200000D03*
X47900000Y83500000D03*
X12800000Y12800000D03*
X22100000Y62300000D03*
X22034411Y96200010D03*
X47100000Y28400000D03*
X35200000Y72600000D03*
X76100000Y13500000D03*
X63800000Y80800000D03*
X69600000Y105900000D03*
D35*
X43250000Y96800000D03*
D34*
X46400000Y50000000D03*
X69100000Y91400000D03*
X47900000Y82700000D03*
X10500000Y21700000D03*
D35*
X5600000Y105900000D03*
D34*
X47100000Y77300000D03*
X40000000Y11300000D03*
X57800000Y47000000D03*
X48500000Y57000000D03*
X59000000Y110500000D03*
D36*
X32300000Y99349998D03*
D34*
X16124500Y59350210D03*
X67800000Y52400000D03*
X60200000Y33500000D03*
X17400000Y20100000D03*
X50550000Y33450000D03*
X34500000Y50400000D03*
X41100000Y29300000D03*
X62800000Y69300000D03*
X47900000Y81900000D03*
D36*
X30100000Y99349998D03*
D34*
X57200000Y19500000D03*
X18800000Y89200000D03*
X47100000Y74900000D03*
X57500000Y36600000D03*
X52100000Y39600000D03*
D35*
X44700000Y115100000D03*
D34*
X47100000Y75700000D03*
X61900000Y109900000D03*
X41800000Y47900000D03*
X34100000Y18500000D03*
D35*
X44650000Y96850000D03*
D34*
X54500000Y70400000D03*
X63400000Y46300000D03*
X54200000Y58400000D03*
D35*
X33000000Y103800000D03*
D34*
X47900000Y81100000D03*
X47500000Y17000000D03*
X43100000Y22700000D03*
X35300000Y76900000D03*
X12000000Y25150000D03*
X10500000Y20100000D03*
X27400000Y57900000D03*
X16100000Y22200000D03*
X29900000Y20100000D03*
X24000000Y49200000D03*
X32800000Y95200000D03*
D36*
X32300000Y97200000D03*
D34*
X62300000Y18700000D03*
D35*
X20500000Y115100000D03*
D34*
X20600000Y78900000D03*
X16221011Y55421011D03*
X53800000Y26000000D03*
X47900000Y50000000D03*
X60434358Y93650000D03*
X62900000Y57300000D03*
X65900000Y54000003D03*
X28100000Y93000000D03*
X30800000Y94700000D03*
D35*
X46600000Y93400000D03*
D34*
X31800000Y58600000D03*
X68600000Y112200000D03*
D36*
X58900000Y105100000D03*
X56700000Y113900000D03*
X69000000Y98400000D03*
D34*
X30600000Y87100000D03*
X31700000Y87100000D03*
X28500000Y87100000D03*
X28400000Y91400000D03*
X30600000Y91400000D03*
X31700000Y91400000D03*
X29500000Y87100000D03*
D36*
X67700000Y97900000D03*
D34*
X29400000Y91400000D03*
X50300000Y35500000D03*
X40700000Y35500000D03*
X39407114Y27692886D03*
X43700000Y27692886D03*
X36600000Y48500000D03*
X41700000Y53500000D03*
X29500000Y100300000D03*
X41140000Y57480000D03*
X35400000Y63100000D03*
X26000000Y38100000D03*
X56000000Y63200000D03*
X59900000Y63100000D03*
X56000000Y64800000D03*
X59875735Y65524265D03*
X59900000Y64700000D03*
X56000000Y64000000D03*
X26600000Y37500000D03*
X37787851Y64860000D03*
D36*
X64200000Y83700000D03*
D35*
X55000000Y110500000D03*
D36*
X64600000Y59900000D03*
X64600000Y50000000D03*
X60700000Y112200000D03*
D35*
X54900000Y107400000D03*
X55000000Y109000000D03*
D36*
X64900000Y69300000D03*
X64600000Y90200000D03*
X63600000Y97000000D03*
D35*
X55000000Y112000000D03*
D36*
X57800000Y108900000D03*
D34*
X57100000Y93400000D03*
X49900000Y59500000D03*
X56775021Y90700000D03*
X50200000Y58700000D03*
X59500000Y112600000D03*
X50300000Y62400000D03*
X59800000Y104900000D03*
X51100000Y62100000D03*
X33865019Y39932041D03*
X23000000Y41500003D03*
X16900000Y42400000D03*
X42640000Y67400000D03*
X66500000Y82300000D03*
X23000000Y42300006D03*
X43240000Y64200000D03*
X16300000Y43500000D03*
X34664965Y39922604D03*
X18800000Y45600000D03*
X12250000Y42500000D03*
X18900000Y41100000D03*
X32200000Y39900000D03*
X41400000Y63600000D03*
X23049011Y39900846D03*
X45200000Y12900000D03*
X45000000Y14900000D03*
X45800000Y18000000D03*
X42040000Y68140000D03*
X16200000Y41900000D03*
X23000000Y40700000D03*
X33024265Y39924265D03*
X45000000Y19300000D03*
X36200000Y20500000D03*
X27675000Y59925000D03*
X19000000Y44300000D03*
X36850000Y19298437D03*
X19100000Y46900000D03*
X40480000Y68740000D03*
X36100000Y16800000D03*
X34500000Y15200000D03*
X44375735Y24775735D03*
X44074265Y30900000D03*
X45000000Y23899980D03*
X44113494Y31709300D03*
X45700000Y23299980D03*
X44085662Y32585662D03*
X8100000Y17400000D03*
X8124265Y18224265D03*
X66700000Y44900000D03*
X65300000Y44900000D03*
X65300000Y58500000D03*
X65200000Y55700000D03*
X66800000Y67000000D03*
X65500000Y67000000D03*
X65200000Y79700000D03*
X68300000Y45100000D03*
X69100000Y55700000D03*
X39020000Y58280000D03*
X37914579Y54000000D03*
X29200000Y54200000D03*
X48700000Y28400000D03*
X57800000Y44200000D03*
X55400000Y23800000D03*
X60300000Y23100000D03*
X61200000Y26400000D03*
X54500000Y29800000D03*
X63000000Y33500000D03*
X46450000Y33600000D03*
X60700000Y44200000D03*
X50000000Y27200000D03*
X46450000Y32000000D03*
X62300000Y21800000D03*
X54800000Y25000000D03*
X61100000Y31300000D03*
X60200000Y28000000D03*
X55800000Y30300000D03*
X51100000Y38900000D03*
X38790000Y54000000D03*
X29200000Y53400000D03*
X40310000Y58890000D03*
X31324266Y55424266D03*
X68100000Y64500000D03*
X65700000Y111200000D03*
X30475735Y54824265D03*
X34715735Y59364265D03*
X66700000Y61600000D03*
X66800000Y69800000D03*
X66300000Y85400000D03*
X25400000Y38700000D03*
X37620000Y65660000D03*
X24800000Y39300000D03*
X36940000Y66150000D03*
X43840001Y61840001D03*
X28490000Y67080000D03*
X66300000Y92700000D03*
X61800000Y94900000D03*
X61100000Y94100000D03*
X23000000Y65650000D03*
X31659265Y65669265D03*
X59400000Y115400000D03*
X66200000Y112300000D03*
X70100000Y114400000D03*
X53700000Y37800000D03*
X55000000Y28900000D03*
X29700000Y95200000D03*
X27200000Y95200000D03*
X66400000Y89924990D03*
X61500000Y92500000D03*
X57800000Y89900000D03*
X61400000Y106800000D03*
X46425000Y42000000D03*
X46350000Y31200000D03*
X50375735Y24275735D03*
X46375000Y46125000D03*
X45550000Y34900000D03*
X40100000Y34900000D03*
X67800000Y79700000D03*
X59100000Y89900000D03*
X72400000Y17000000D03*
X53199265Y30550735D03*
X72400000Y16200000D03*
X54000000Y30600000D03*
X74400000Y16200000D03*
X76100000Y17800000D03*
X65400000Y105300000D03*
X64100000Y107000000D03*
X40200000Y76400000D03*
X34430000Y68030000D03*
X50400000Y112600000D03*
X51500000Y81900000D03*
X34200000Y112600000D03*
X43500000Y74900000D03*
X18200000Y112600000D03*
X45300000Y76500000D03*
X42100000Y76000000D03*
X46300000Y65500000D03*
X51500000Y81100000D03*
X42400000Y112600000D03*
X26200000Y112600000D03*
X45300000Y75700000D03*
X44400000Y78100000D03*
X10000000Y112600000D03*
X47100000Y65500000D03*
X29150000Y61550000D03*
X24290000Y52200000D03*
X59100000Y97000000D03*
D35*
X68600000Y109800000D03*
D34*
X33100000Y70400000D03*
X38500000Y81700000D03*
X36224989Y73400000D03*
X39300000Y81700000D03*
X47140000Y59700000D03*
X36771014Y45240000D03*
X36180000Y45840000D03*
X45400000Y59200000D03*
X36075735Y61924265D03*
X27200000Y36900000D03*
X32400000Y35600000D03*
X38097571Y57400000D03*
X35775468Y59824532D03*
X38387851Y66100000D03*
X13600000Y37000000D03*
X38987851Y66985421D03*
X10900000Y37000000D03*
X8600000Y37000000D03*
X66700000Y51000000D03*
X13975000Y24225000D03*
X16275000Y24400000D03*
X8700000Y40900000D03*
X42800000Y70000000D03*
X29475000Y67975000D03*
X40190000Y65500000D03*
X40790000Y66110000D03*
D37*
X59700000Y106300000D02*
X58900000Y105500000D01*
X68150000Y68450000D02*
X68100000Y68450000D01*
X56700000Y113900000D02*
X58100000Y113900000D01*
X58900000Y105500000D02*
X58900000Y105027867D01*
D38*
X50300000Y35500000D02*
X40700000Y35500000D01*
X43700000Y27692886D02*
X39407114Y27692886D01*
X44800000Y49160000D02*
X44800000Y50250000D01*
X44799999Y62259999D02*
X44799999Y71100001D01*
X32800000Y100300000D02*
X34200000Y98900000D01*
X37950000Y84150000D02*
X35950000Y84150000D01*
X42240000Y46600000D02*
X38500000Y46600000D01*
X40800000Y75100000D02*
X40800000Y81300000D01*
X38500000Y46600000D02*
X36600000Y48500000D01*
X34200000Y98900000D02*
X34200000Y85900000D01*
X44200000Y53500000D02*
X44800000Y52900000D01*
X44800000Y52900000D02*
X44800000Y50250000D01*
X40800000Y81300000D02*
X37950000Y84150000D01*
X42240000Y46600000D02*
X44800000Y49160000D01*
X35950000Y84150000D02*
X34200000Y85900000D01*
X44799999Y61139999D02*
X44799999Y62259999D01*
X43900000Y72000000D02*
X44799999Y71100001D01*
X41140000Y57480000D02*
X44799999Y61139999D01*
X29500000Y100300000D02*
X32800000Y100300000D01*
X43900000Y72000000D02*
X40800000Y75100000D01*
X41700000Y53500000D02*
X44200000Y53500000D01*
X33000000Y62500000D02*
X34800000Y62500000D01*
X26700000Y38800000D02*
X26700000Y43200000D01*
X34800000Y62500000D02*
X35400000Y63100000D01*
X26000000Y38100000D02*
X26700000Y38800000D01*
X28900000Y58400000D02*
X33000000Y62500000D01*
X27000000Y51600000D02*
X26500000Y52100000D01*
X26500000Y54900000D02*
X28900000Y57300000D01*
X27000000Y43500000D02*
X27000000Y51600000D01*
X26700000Y43200000D02*
X27000000Y43500000D01*
X28900000Y57300000D02*
X28900000Y58400000D01*
X26500000Y52100000D02*
X26500000Y54900000D01*
X56000000Y63200000D02*
X59800000Y63200000D01*
X59800000Y63200000D02*
X59900000Y63100000D01*
X56000000Y64800000D02*
X59151470Y64800000D01*
X59151470Y64800000D02*
X59875735Y65524265D01*
X56000000Y64000000D02*
X59200000Y64000000D01*
X59200000Y64000000D02*
X59900000Y64700000D01*
X35800000Y62600000D02*
X37000000Y62600000D01*
X29300000Y57100000D02*
X29300000Y58200000D01*
X27100000Y38000000D02*
X27100000Y43000000D01*
X37900000Y64060000D02*
X37900000Y64747851D01*
X27400000Y51800000D02*
X26900000Y52300000D01*
X26600000Y37500000D02*
X27100000Y38000000D01*
X37000000Y62600000D02*
X37900000Y63500000D01*
X27400000Y43300000D02*
X27400000Y44300000D01*
X29300000Y58200000D02*
X33200000Y62100000D01*
X26900000Y52300000D02*
X26900000Y54700000D01*
X37900000Y64747851D02*
X37787851Y64860000D01*
X33200000Y62100000D02*
X35300000Y62100000D01*
X37900000Y63500000D02*
X37900000Y64060000D01*
X27400000Y44300000D02*
X27400000Y51800000D01*
X27100000Y43000000D02*
X27400000Y43300000D01*
X26900000Y54700000D02*
X29300000Y57100000D01*
X35300000Y62100000D02*
X35800000Y62600000D01*
D37*
X65400000Y59900000D02*
X64600000Y59900000D01*
X65100000Y91200000D02*
X65100000Y90700000D01*
D39*
X57800000Y108900000D02*
X58599998Y108900000D01*
D37*
X65100000Y95400000D02*
X65100000Y95500000D01*
X65100000Y90700000D02*
X64600000Y90200000D01*
X65400000Y49100000D02*
X64600000Y50000000D01*
X65100000Y95500000D02*
X63600000Y97000000D01*
X65500000Y68700000D02*
X64900000Y69300000D01*
D39*
X59700000Y108900000D02*
X59685000Y108885000D01*
D37*
X65100000Y83700000D02*
X64200000Y83700000D01*
X65500000Y68450000D02*
X65500000Y68700000D01*
D39*
X58599998Y108900000D02*
X59700000Y108900000D01*
D37*
X60700000Y113900000D02*
X60700000Y112200000D01*
D38*
X58900000Y87000000D02*
X56175011Y89724989D01*
X58900000Y69334302D02*
X58900000Y87000000D01*
X49900000Y59500000D02*
X51900000Y61500000D01*
X56175011Y91875011D02*
X56800000Y92500000D01*
X56175011Y89724989D02*
X56175011Y91875011D01*
X51900000Y61500000D02*
X51900000Y62334302D01*
X56175011Y91875011D02*
X57100000Y92800000D01*
X51900000Y62334302D02*
X58900000Y69334302D01*
X57100000Y92800000D02*
X57100000Y93400000D01*
X56775021Y89824979D02*
X56775021Y90700000D01*
X59300000Y71100000D02*
X59300018Y71099982D01*
X52300008Y62168596D02*
X52300008Y60800008D01*
X52300008Y60800008D02*
X50200000Y58700000D01*
X59300000Y87300000D02*
X59300000Y86400000D01*
X59300000Y87300000D02*
X59300000Y71100000D01*
X52300000Y62168604D02*
X52300008Y62168596D01*
X59300017Y69168621D02*
X52300000Y62168604D01*
X59300018Y71099982D02*
X59300017Y69168621D01*
X59300000Y87300000D02*
X56775021Y89824979D01*
X55374971Y92474971D02*
X56100000Y93200000D01*
X58100000Y86450000D02*
X58100000Y85550000D01*
X57200000Y112600000D02*
X59500000Y112600000D01*
X55374971Y89175029D02*
X55374971Y90350029D01*
X50600000Y62700000D02*
X50300000Y62400000D01*
X55374971Y89175029D02*
X55374971Y92474971D01*
X56050000Y111450000D02*
X57200000Y112600000D01*
X58100000Y86450000D02*
X58100000Y70200000D01*
X58100000Y86450000D02*
X55374971Y89175029D01*
X56100000Y93200000D02*
X56100000Y111400000D01*
X58100000Y70200000D02*
X50600000Y62700000D01*
X56100000Y111400000D02*
X56050000Y111450000D01*
X55774991Y89375007D02*
X55774991Y92174991D01*
X56500000Y99000000D02*
X56500000Y99400000D01*
X59800000Y104900000D02*
X56500000Y101900000D01*
X58500000Y69500000D02*
X51100000Y62100000D01*
X55774991Y92174991D02*
X56500000Y92900000D01*
X55774991Y89375007D02*
X55924999Y89224999D01*
X56500000Y101900000D02*
X56500000Y99000000D01*
X58500000Y86649998D02*
X58500000Y69500000D01*
X55774991Y89375007D02*
X58500000Y86649998D01*
X56500000Y92900000D02*
X56500000Y99000000D01*
X20099997Y41500003D02*
X19400000Y42200000D01*
X23000000Y41500003D02*
X20099997Y41500003D01*
X33000066Y40796994D02*
X33000066Y52817857D01*
X33000066Y52817857D02*
X37000066Y56817857D01*
X19400000Y42200000D02*
X17100000Y42200000D01*
X37000066Y56817857D02*
X37000066Y57746364D01*
X42640000Y63386300D02*
X42640000Y67400000D01*
X37000066Y57746364D02*
X42640000Y63386300D01*
X17100000Y42200000D02*
X16900000Y42400000D01*
X33865019Y39932041D02*
X33000066Y40796994D01*
D40*
X66500000Y80900000D02*
X66500000Y82300000D01*
D38*
X43240000Y63420602D02*
X43240000Y64200000D01*
X23000000Y42300006D02*
X19899994Y42300006D01*
X33400077Y52652169D02*
X37497570Y56749662D01*
X18700000Y43500000D02*
X16300000Y43500000D01*
X34664965Y46735035D02*
X33400077Y47999923D01*
X37497570Y57678167D02*
X43240000Y63420602D01*
X37497570Y56749662D02*
X37497570Y57678167D01*
X19899994Y42300006D02*
X18700000Y43500000D01*
X33400077Y47999923D02*
X33400077Y52652169D01*
X34664965Y39922604D02*
X34664965Y46735035D01*
X12250000Y42500000D02*
X15350000Y45600000D01*
X15350000Y45600000D02*
X18800000Y45600000D01*
X18900000Y41100000D02*
X20099154Y39900846D01*
X20099154Y39900846D02*
X23049011Y39900846D01*
X41400000Y63400000D02*
X41400000Y63600000D01*
X36200044Y57149234D02*
X36200044Y58200044D01*
X32200044Y53149234D02*
X36200044Y57149234D01*
X32200000Y39900000D02*
X32200044Y39900044D01*
X32200044Y39900044D02*
X32200044Y53149234D01*
X36200044Y58200044D02*
X41400000Y63400000D01*
D40*
X62900000Y10700000D02*
X45600000Y10700000D01*
X63400000Y10200000D02*
X62900000Y10700000D01*
X45600000Y10700000D02*
X45200000Y11100000D01*
X66100000Y7500000D02*
X63400000Y10200000D01*
X45200000Y11100000D02*
X45200000Y12900000D01*
X65900000Y11200000D02*
X46500000Y11200000D01*
X45900000Y11800000D02*
X45900000Y14000000D01*
X45900000Y14000000D02*
X45000000Y14900000D01*
X46500000Y11200000D02*
X45900000Y11800000D01*
X69600000Y7500000D02*
X65900000Y11200000D01*
X76600000Y7500000D02*
X71900000Y12200000D01*
X46900020Y13499980D02*
X46900020Y14699980D01*
X71900000Y12200000D02*
X48200000Y12200000D01*
X48200000Y12200000D02*
X46900020Y13499980D01*
X45800000Y15800000D02*
X45800000Y18000000D01*
X46900020Y14699980D02*
X45800000Y15800000D01*
D38*
X20300000Y40700000D02*
X19299999Y41700001D01*
X32600055Y52983545D02*
X36600055Y56983545D01*
X32600055Y40348475D02*
X32600055Y52983545D01*
X36600055Y57912053D02*
X42040000Y63351998D01*
X23000000Y40700000D02*
X20300000Y40700000D01*
X19299999Y41700001D02*
X16399999Y41700001D01*
X42040000Y63351998D02*
X42040000Y68140000D01*
X36600055Y56983545D02*
X36600055Y57912053D01*
X16399999Y41700001D02*
X16200000Y41900000D01*
X33024265Y39924265D02*
X32600055Y40348475D01*
D40*
X46400010Y12399990D02*
X46400010Y14461992D01*
X46400010Y14461992D02*
X45000000Y15862002D01*
X73100000Y7500000D02*
X68900000Y11700000D01*
X47100000Y11700000D02*
X46400010Y12399990D01*
X45000000Y15862002D02*
X45000000Y19300000D01*
X68900000Y11700000D02*
X47100000Y11700000D01*
X35457120Y11442880D02*
X35900010Y11885770D01*
X32700000Y7500000D02*
X32700000Y8685760D01*
X35900010Y15500010D02*
X36800000Y16400000D01*
X32700000Y8685760D02*
X35457120Y11442880D01*
X35900010Y11885770D02*
X35900010Y15500010D01*
X36800000Y16400000D02*
X36800000Y17600000D01*
X36200000Y18200000D02*
X36200000Y20500000D01*
X36800000Y17600000D02*
X36200000Y18200000D01*
D38*
X27550000Y59925000D02*
X27675000Y59925000D01*
X25554837Y56054837D02*
X26675000Y57175000D01*
X25290000Y51570000D02*
X25290000Y55708530D01*
X26675000Y59050000D02*
X27550000Y59925000D01*
X19000000Y44300000D02*
X24600000Y44300000D01*
X25800000Y51060000D02*
X25290000Y51570000D01*
X25554837Y55973367D02*
X25554837Y56054837D01*
X26675000Y57175000D02*
X26675000Y59050000D01*
X25800000Y45500000D02*
X25800000Y51060000D01*
X24600000Y44300000D02*
X25800000Y45500000D01*
X25290000Y55708530D02*
X25554837Y55973367D01*
D40*
X37550001Y19022700D02*
X37550001Y16442881D01*
X36400020Y15292900D02*
X36400020Y7700020D01*
X37550001Y16442881D02*
X36400020Y15292900D01*
X37274264Y19298437D02*
X37550001Y19022700D01*
X36850000Y19298437D02*
X37274264Y19298437D01*
X36400020Y7700020D02*
X36200000Y7500000D01*
D38*
X25400000Y50870000D02*
X24890000Y51380000D01*
X24890000Y51380000D02*
X24890000Y56438002D01*
X36320000Y65050000D02*
X36320000Y66418002D01*
X29363499Y60911501D02*
X32161998Y63710000D01*
X37601998Y67700000D02*
X39440000Y67700000D01*
X33880000Y63710000D02*
X34700000Y64530000D01*
X27336501Y60911501D02*
X29363499Y60911501D01*
X23900000Y46900000D02*
X25400000Y48400000D01*
X25400000Y48400000D02*
X25400000Y50870000D01*
X32161998Y63710000D02*
X33880000Y63710000D01*
X25975999Y57524001D02*
X25975999Y59550999D01*
X35800000Y64530000D02*
X36320000Y65050000D01*
X39440000Y67700000D02*
X40480000Y68740000D01*
X19100000Y46900000D02*
X23900000Y46900000D01*
X25975999Y59550999D02*
X27336501Y60911501D01*
X24890000Y56438002D02*
X25975999Y57524001D01*
X36320000Y66418002D02*
X37601998Y67700000D01*
X34700000Y64530000D02*
X35800000Y64530000D01*
D40*
X34603560Y11296440D02*
X35000010Y11692890D01*
X32600000Y10000000D02*
X32600008Y9999992D01*
X33307112Y9999992D02*
X34603560Y11296440D01*
X35000010Y13692890D02*
X35400000Y14092880D01*
X31700000Y10000000D02*
X29200000Y7500000D01*
X35400000Y14092880D02*
X35400000Y16100000D01*
X32600000Y10000000D02*
X31700000Y10000000D01*
X32600008Y9999992D02*
X33307112Y9999992D01*
X35400000Y16100000D02*
X36100000Y16800000D01*
X35000010Y11692890D02*
X35000010Y13692890D01*
X34500000Y11900000D02*
X33100000Y10500000D01*
X28700000Y10500000D02*
X25700000Y7500000D01*
X33100000Y10500000D02*
X28700000Y10500000D01*
X34500000Y15200000D02*
X34500000Y11900000D01*
D38*
X44375735Y24775735D02*
X44375735Y30598530D01*
X44375735Y30598530D02*
X44074265Y30900000D01*
X45000000Y30822794D02*
X44113494Y31709300D01*
X45000000Y23899980D02*
X45000000Y30822794D01*
X45700000Y31010796D02*
X44125134Y32585662D01*
X44125134Y32585662D02*
X44085662Y32585662D01*
X45700000Y23299980D02*
X45700000Y31010796D01*
D40*
X66700000Y44900000D02*
X66700000Y45800000D01*
X66700000Y45800000D02*
X66700000Y46300000D01*
X65300000Y46200000D02*
X65400000Y46300000D01*
X65300000Y44900000D02*
X65300000Y46200000D01*
X66700000Y57594990D02*
X66700000Y57100000D01*
X65794990Y58500000D02*
X66700000Y57594990D01*
X65300000Y58500000D02*
X65794990Y58500000D01*
X65200000Y55700000D02*
X65200000Y56900000D01*
X65200000Y56900000D02*
X65400000Y57100000D01*
X66800000Y65700000D02*
X66800000Y67000000D01*
X65500000Y65700000D02*
X65500000Y67000000D01*
X65200000Y80900000D02*
X65200000Y79700000D01*
X68300000Y45100000D02*
X68300000Y46000000D01*
X68300000Y46000000D02*
X68000000Y46300000D01*
X69100000Y55700000D02*
X69100000Y56000000D01*
X69100000Y56000000D02*
X68000000Y57100000D01*
D38*
X28599999Y53000001D02*
X28599999Y53699999D01*
X4780000Y35700000D02*
X6700000Y35700000D01*
X29000000Y52200000D02*
X29000000Y52600000D01*
X10500000Y31900000D02*
X24400000Y31900000D01*
X38230000Y54315421D02*
X38230000Y56270000D01*
X28700000Y42200000D02*
X29000000Y42500000D01*
X28599999Y53699999D02*
X29100000Y54200000D01*
X38230000Y56270000D02*
X39020000Y57060000D01*
X29100000Y54200000D02*
X29200000Y54200000D01*
X28700000Y36200000D02*
X28700000Y42200000D01*
X3500000Y34420000D02*
X4780000Y35700000D01*
X6700000Y35700000D02*
X10500000Y31900000D01*
X39020000Y57060000D02*
X39020000Y58280000D01*
X29000000Y52600000D02*
X28599999Y53000001D01*
X24400000Y31900000D02*
X28700000Y36200000D01*
X37914579Y54000000D02*
X38230000Y54315421D01*
X29000000Y42500000D02*
X29000000Y52200000D01*
X29400000Y42300000D02*
X29400000Y53200000D01*
X40310000Y56930000D02*
X40310000Y58890000D01*
X6377094Y34420000D02*
X9297094Y31500000D01*
X6040000Y34420000D02*
X6377094Y34420000D01*
X38790000Y54000000D02*
X38790000Y55410000D01*
X29100000Y42000000D02*
X29400000Y42300000D01*
X29100000Y36000000D02*
X29100000Y42000000D01*
X29400000Y53200000D02*
X29200000Y53400000D01*
X24600000Y31500000D02*
X29100000Y36000000D01*
X38790000Y55410000D02*
X40310000Y56930000D01*
X9297094Y31500000D02*
X24600000Y31500000D01*
X30224266Y55424266D02*
X31324266Y55424266D01*
X29800000Y55000000D02*
X30224266Y55424266D01*
X29800000Y42100000D02*
X29800000Y53500000D01*
X4820000Y33200000D02*
X7031396Y33200000D01*
X7031396Y33200000D02*
X9131396Y31100000D01*
X29800000Y53500000D02*
X29800000Y54200000D01*
X3500000Y31880000D02*
X4820000Y33200000D01*
X29500000Y41800000D02*
X29800000Y42100000D01*
X24800000Y31100000D02*
X29500000Y35800000D01*
X29500000Y35800000D02*
X29500000Y41800000D01*
X9131396Y31100000D02*
X24800000Y31100000D01*
X29800000Y54200000D02*
X29800000Y55000000D01*
D40*
X68100000Y64500000D02*
X68100000Y65700000D01*
X66400000Y111200000D02*
X65700000Y111200000D01*
X67500000Y116500000D02*
X70900000Y119900000D01*
X67500000Y112300000D02*
X66400000Y111200000D01*
X67500000Y113900000D02*
X67500000Y112300000D01*
X67500000Y113900000D02*
X67500000Y116500000D01*
D38*
X25000000Y30700000D02*
X29900000Y35600000D01*
X7785699Y31879999D02*
X8965698Y30700000D01*
X30200000Y54548530D02*
X30475735Y54824265D01*
X30200000Y53500000D02*
X30200000Y54548530D01*
X30200000Y41900000D02*
X30200000Y53500000D01*
X29900000Y41600000D02*
X30200000Y41900000D01*
X29900000Y35600000D02*
X29900000Y41600000D01*
X6040000Y31880000D02*
X7785699Y31879999D01*
X8965698Y30700000D02*
X25000000Y30700000D01*
X30600000Y41665698D02*
X30600000Y53811998D01*
X25200000Y30300000D02*
X30300000Y35400000D01*
X3500000Y29340000D02*
X4760000Y30600000D01*
X4760000Y30600000D02*
X8500000Y30600000D01*
X30600000Y53811998D02*
X34600000Y57811998D01*
X8500000Y30600000D02*
X8800000Y30300000D01*
X30300001Y41365699D02*
X30600000Y41665698D01*
X34600000Y59248530D02*
X34715735Y59364265D01*
X30300000Y35400000D02*
X30300001Y41365699D01*
X34600000Y57811998D02*
X34600000Y59248530D01*
X8800000Y30300000D02*
X25200000Y30300000D01*
D40*
X66700000Y59900000D02*
X66700000Y61600000D01*
X66800000Y68450000D02*
X66800000Y69800000D01*
X66300000Y85400000D02*
X66300000Y83800000D01*
X66300000Y83800000D02*
X66400000Y83700000D01*
D38*
X26100000Y55100000D02*
X28500000Y57500000D01*
X28500000Y58600000D02*
X32800000Y62900000D01*
X37150000Y65190000D02*
X37620000Y65660000D01*
X32800000Y62900000D02*
X34270000Y62900000D01*
X37150000Y64710000D02*
X37150000Y65190000D01*
X36140001Y63700001D02*
X37150000Y64710000D01*
X26600000Y43700000D02*
X26600000Y51434302D01*
X26300000Y39600000D02*
X26300000Y43400000D01*
X26100000Y51934302D02*
X26100000Y55100000D01*
X26300000Y43400000D02*
X26600000Y43700000D01*
X26600000Y51434302D02*
X26100000Y51934302D01*
X34270000Y62900000D02*
X35070001Y63700001D01*
X28500000Y57500000D02*
X28500000Y58600000D01*
X25400000Y38700000D02*
X26300000Y39600000D01*
X35070001Y63700001D02*
X36140001Y63700001D01*
X25690000Y55260000D02*
X28100000Y57670000D01*
X35960000Y64110000D02*
X36750000Y64900000D01*
X26200000Y43900000D02*
X26200000Y51260000D01*
X36940000Y65550000D02*
X36940000Y66150000D01*
X25900000Y40400000D02*
X25900000Y43600000D01*
X28100000Y58780000D02*
X32630000Y63310000D01*
X32630000Y63310000D02*
X34050000Y63310000D01*
X34050000Y63310000D02*
X34850000Y64110000D01*
X25900000Y43600000D02*
X26200000Y43900000D01*
X34850000Y64110000D02*
X35960000Y64110000D01*
X26200000Y51260000D02*
X25690000Y51770000D01*
X36750000Y65360000D02*
X36940000Y65550000D01*
X25690000Y51770000D02*
X25690000Y55260000D01*
X36750000Y64900000D02*
X36750000Y65360000D01*
X24800000Y39300000D02*
X25900000Y40400000D01*
X28100000Y57670000D02*
X28100000Y58780000D01*
X35950000Y66650000D02*
X33350000Y66650000D01*
X32920000Y67080000D02*
X28490000Y67080000D01*
X43840001Y61840001D02*
X43840001Y67228001D01*
X33350000Y66650000D02*
X32920000Y67080000D01*
X43840001Y67228001D02*
X41718002Y69350000D01*
X38650000Y69350000D02*
X35950000Y66650000D01*
X41718002Y69350000D02*
X38650000Y69350000D01*
D40*
X66300000Y95300000D02*
X66400000Y95400000D01*
X66300000Y92700000D02*
X66300000Y95300000D01*
X60900000Y94900000D02*
X60400000Y95400000D01*
X61800000Y94900000D02*
X60900000Y94900000D01*
X58100000Y94300000D02*
X60900000Y94300000D01*
X57800000Y95400000D02*
X57800000Y94600000D01*
X57800000Y94600000D02*
X58100000Y94300000D01*
X60900000Y94300000D02*
X61100000Y94100000D01*
D38*
X23019265Y65669265D02*
X23000000Y65650000D01*
X31659265Y65669265D02*
X23019265Y65669265D01*
D40*
X59400000Y113900000D02*
X59400000Y115400000D01*
X66200000Y113900000D02*
X66200000Y112300000D01*
X70100000Y114400000D02*
X69300000Y114400000D01*
X69300000Y114400000D02*
X68800000Y113900000D01*
D38*
X52700000Y28900000D02*
X52100000Y29500000D01*
X55000000Y28900000D02*
X52700000Y28900000D01*
X52100000Y29500000D02*
X52100000Y36200000D01*
X52100000Y36200000D02*
X53700000Y37800000D01*
D40*
X29700000Y95200000D02*
X27200000Y95200000D01*
X66400000Y91200000D02*
X66400000Y89924990D01*
X60400000Y91400000D02*
X61500000Y92500000D01*
X60400000Y91200000D02*
X60400000Y91400000D01*
X57800000Y89900000D02*
X57800000Y91200000D01*
X59700000Y107600000D02*
X60600000Y107600000D01*
X60600000Y107600000D02*
X61400000Y106800000D01*
D38*
X46375000Y46125000D02*
X46375000Y42050000D01*
X49400000Y29100000D02*
X49400000Y25251470D01*
X49400000Y25251470D02*
X50375735Y24275735D01*
X46375000Y42050000D02*
X46425000Y42000000D01*
X47300000Y31200000D02*
X46350000Y31200000D01*
X49400000Y29100000D02*
X47300000Y31200000D01*
X45550000Y34900000D02*
X40100000Y34900000D01*
D40*
X67800000Y80900000D02*
X67800000Y79700000D01*
X59100000Y89900000D02*
X59100000Y91200000D01*
D38*
X58532849Y23832849D02*
X58300000Y24065698D01*
X58300000Y30300000D02*
X57700000Y30900000D01*
X53199265Y30974999D02*
X53524266Y31300000D01*
X58532849Y23832849D02*
X61765698Y20600000D01*
X55865698Y31300000D02*
X57300000Y31300000D01*
X53199265Y30550735D02*
X53199265Y30974999D01*
X53524266Y31300000D02*
X55865698Y31300000D01*
X61765698Y20600000D02*
X61765706Y20600008D01*
X61765706Y20600008D02*
X68165690Y20600008D01*
X57300000Y31300000D02*
X57700000Y30900000D01*
X58300000Y24065698D02*
X58300000Y30300000D01*
X71765698Y17000000D02*
X72400000Y17000000D01*
X68165690Y20600008D02*
X71765698Y17000000D01*
X61600000Y20200000D02*
X68000000Y20200000D01*
X72000000Y16200000D02*
X72400000Y16200000D01*
X57900000Y30100000D02*
X57100000Y30900000D01*
X57900000Y23900000D02*
X57900000Y30100000D01*
X58500000Y23300000D02*
X57900000Y23900000D01*
X57100000Y30900000D02*
X54299999Y30899999D01*
X68000000Y20200000D02*
X72000000Y16200000D01*
X54299999Y30899999D02*
X54000000Y30600000D01*
X58500000Y23300000D02*
X61600000Y20200000D01*
X76700000Y31265200D02*
X78564800Y33130000D01*
X74400000Y19500000D02*
X76700000Y21800000D01*
X74400000Y16200000D02*
X74400000Y19500000D01*
X76700000Y21800000D02*
X76700000Y31265200D01*
X76100000Y19930600D02*
X78564800Y22395400D01*
X76100000Y17800000D02*
X76100000Y19930600D01*
D40*
X65400000Y106300000D02*
X65400000Y105300000D01*
X64100000Y107000000D02*
X64100000Y108344959D01*
X64655041Y108900000D02*
X65400000Y108900000D01*
X64100000Y108344959D02*
X64655041Y108900000D01*
D38*
X50000000Y93800000D02*
X50000000Y112200000D01*
X51500000Y92300000D02*
X50000000Y93800000D01*
X51500000Y81900000D02*
X51500000Y92300000D01*
X34430000Y70530000D02*
X34430000Y68030000D01*
X50000000Y112200000D02*
X50400000Y112600000D01*
X36135000Y72235000D02*
X34430000Y70530000D01*
X40200000Y76400000D02*
X36135000Y72235000D01*
X45800000Y74900000D02*
X46300000Y75400000D01*
X34900000Y111900000D02*
X45900000Y111900000D01*
X49200000Y93800000D02*
X49200000Y93400000D01*
X50500000Y92100000D02*
X50500000Y87500000D01*
X46300000Y75400000D02*
X46300000Y83300000D01*
X49200000Y108600000D02*
X49200000Y93800000D01*
X34200000Y112600000D02*
X34900000Y111900000D01*
X45900000Y111900000D02*
X49200000Y108600000D01*
X43500000Y74900000D02*
X45800000Y74900000D01*
X49200000Y93400000D02*
X50500000Y92100000D01*
X50500000Y87500000D02*
X47300000Y84300000D01*
X46300000Y83300000D02*
X47300000Y84300000D01*
X42100000Y74400000D02*
X42100000Y76000000D01*
X48300000Y108300000D02*
X48300000Y93100000D01*
X46300000Y66000000D02*
X46700000Y66400000D01*
X45500000Y83700000D02*
X45500000Y77400000D01*
X49700000Y91700000D02*
X49700000Y87900000D01*
X19700020Y111099980D02*
X45500020Y111099980D01*
X45200000Y73600000D02*
X42900000Y73600000D01*
X45500000Y77400000D02*
X45500000Y76700000D01*
X46300000Y65500000D02*
X46300000Y66000000D01*
X42900000Y73600000D02*
X42100000Y74400000D01*
X48300000Y93100000D02*
X49700000Y91700000D01*
X49700000Y87900000D02*
X45500000Y83700000D01*
X45500000Y76700000D02*
X45300000Y76500000D01*
X18200000Y112600000D02*
X19700020Y111099980D01*
X46700000Y66400000D02*
X46700000Y72100000D01*
X46700000Y72100000D02*
X45200000Y73600000D01*
X45500020Y111099980D02*
X48300000Y108300000D01*
X51500000Y81100000D02*
X51075736Y81100000D01*
X49600000Y93600000D02*
X49600000Y108800000D01*
X49600000Y108800000D02*
X45800000Y112600000D01*
X45800000Y112600000D02*
X42400000Y112600000D01*
X50900000Y81275736D02*
X50900000Y85900000D01*
X50900000Y85900000D02*
X50900000Y92300000D01*
X50900000Y92300000D02*
X49600000Y93600000D01*
X51075736Y81100000D02*
X50900000Y81275736D01*
X48799990Y108400010D02*
X45700010Y111499990D01*
X50100000Y91900000D02*
X48799990Y93200010D01*
X48799990Y95799990D02*
X48799990Y108400010D01*
X50100000Y87700000D02*
X50100000Y91900000D01*
X45900000Y76200000D02*
X45900000Y83500000D01*
X27300010Y111499990D02*
X26200000Y112600000D01*
X45900000Y83500000D02*
X50100000Y87700000D01*
X45700010Y111499990D02*
X27300010Y111499990D01*
X45300000Y75700000D02*
X45400000Y75700000D01*
X45400000Y75700000D02*
X45900000Y76200000D01*
X48799990Y93200010D02*
X48799990Y95799990D01*
X49300000Y88100000D02*
X45100000Y83900000D01*
X44400000Y78100000D02*
X42700000Y76400000D01*
X45300030Y110699970D02*
X47900000Y108100000D01*
X10000000Y112600000D02*
X11900030Y110699970D01*
X42700000Y74400000D02*
X42700000Y76300000D01*
X45100000Y83900000D02*
X45100000Y78800000D01*
X47900000Y108100000D02*
X47900000Y92900000D01*
X47900000Y92900000D02*
X49300000Y91500000D01*
X47100000Y65500000D02*
X47100000Y72300000D01*
X49300000Y91500000D02*
X49300000Y88100000D01*
X45100000Y78800000D02*
X44400000Y78100000D01*
X45400000Y74000000D02*
X43100000Y74000000D01*
X47100000Y72300000D02*
X45400000Y74000000D01*
X11900030Y110699970D02*
X45300030Y110699970D01*
X42700000Y76400000D02*
X42700000Y76300000D01*
X43100000Y74000000D02*
X42700000Y74400000D01*
X25575988Y57975988D02*
X25575988Y59716688D01*
X25575988Y59716688D02*
X27409300Y61550000D01*
X24290000Y52200000D02*
X24290000Y56690000D01*
X27409300Y61550000D02*
X29150000Y61550000D01*
X24290000Y56690000D02*
X25575988Y57975988D01*
D40*
X59100000Y95400000D02*
X59100000Y97000000D01*
X65400000Y107600000D02*
X66400000Y107600000D01*
X66400000Y107600000D02*
X68600000Y109800000D01*
D38*
X33100000Y70400000D02*
X33100000Y72300000D01*
X33100000Y72300000D02*
X38500000Y77700000D01*
X38500000Y77700000D02*
X38500000Y81700000D01*
X39300000Y76400000D02*
X36300000Y73400000D01*
X39300000Y81700000D02*
X39300000Y76400000D01*
X36300000Y73400000D02*
X36224989Y73400000D01*
D40*
X8600000Y78200000D02*
X8600000Y63800000D01*
X8600000Y63800000D02*
X10300000Y62100000D01*
X10300000Y79900000D02*
X8600000Y78200000D01*
X12840000Y60830000D02*
X12840000Y67660000D01*
X12840000Y67660000D02*
X11600000Y68900000D01*
X11600000Y77390000D02*
X11600000Y68900000D01*
X12840000Y78630000D02*
X11600000Y77390000D01*
X10300000Y72280000D02*
X10300000Y65600000D01*
X11500000Y64400000D02*
X11500000Y55680000D01*
X11500000Y55680000D02*
X10300000Y54480000D01*
X10300000Y65600000D02*
X11500000Y64400000D01*
X12840000Y53210000D02*
X14300000Y54670000D01*
X14300000Y69550000D02*
X12840000Y71010000D01*
X14300000Y54670000D02*
X14300000Y69550000D01*
D38*
X36771014Y45251014D02*
X36959990Y45439990D01*
X45600020Y53704321D02*
X45800011Y53904312D01*
X36771014Y45240000D02*
X36771014Y45251014D01*
X42211387Y45439990D02*
X45600020Y48828622D01*
X45600020Y48828622D02*
X45600020Y53704321D01*
X45800011Y53904312D02*
X45800011Y58360011D01*
X45800011Y58360011D02*
X47140000Y59700000D01*
X36959990Y45439990D02*
X42211387Y45439990D01*
X36180000Y45840000D02*
X42045698Y45840000D01*
X45400001Y54070001D02*
X45400001Y59199999D01*
X45200010Y53870010D02*
X45400001Y54070001D01*
X45400001Y59199999D02*
X45400000Y59200000D01*
X45200010Y48994311D02*
X45200010Y53870010D01*
X42045698Y45840000D02*
X45200010Y48994311D01*
X27500000Y37200000D02*
X27500000Y42800000D01*
X33400000Y61700000D02*
X35851470Y61700000D01*
X27800000Y43100000D02*
X27800000Y52000000D01*
X27200000Y36900000D02*
X27500000Y37200000D01*
X29700000Y58000000D02*
X33400000Y61700000D01*
X27500000Y42800000D02*
X27800000Y43100000D01*
X27800000Y52000000D02*
X27300000Y52500000D01*
X29700000Y56800000D02*
X29700000Y58000000D01*
X27300000Y54400000D02*
X29700000Y56800000D01*
X27300000Y52500000D02*
X27300000Y54400000D01*
X35851470Y61700000D02*
X36075735Y61924265D01*
X33800088Y52486481D02*
X33800088Y48199912D01*
X33800088Y48199912D02*
X35400000Y46600000D01*
X35400000Y46600000D02*
X35400000Y38600000D01*
X38097571Y57400000D02*
X38097571Y56783964D01*
X35400000Y38600000D02*
X32400000Y35600000D01*
X38097571Y56783964D02*
X33800088Y52486481D01*
X30700012Y41200010D02*
X31000011Y41500009D01*
X35000011Y57646309D02*
X35000011Y58800011D01*
X31000011Y53646309D02*
X35000011Y57646309D01*
X6040000Y29340000D02*
X24805700Y29340000D01*
X35000011Y58800011D02*
X35775468Y59575468D01*
X24805700Y29340000D02*
X30700011Y35234311D01*
X35775468Y59575468D02*
X35775468Y59824532D01*
X31000011Y41500009D02*
X31000011Y53646309D01*
X30700011Y35234311D02*
X30700012Y41200010D01*
X16200000Y32700000D02*
X24000000Y32700000D01*
X30288002Y56300000D02*
X31100000Y57111998D01*
X13600000Y35300000D02*
X16200000Y32700000D01*
X28600000Y55100000D02*
X29800000Y56300000D01*
X24000000Y32700000D02*
X27900000Y36600000D01*
X29800000Y56300000D02*
X30288002Y56300000D01*
X28200000Y42900000D02*
X28200000Y51800000D01*
X31100000Y58788002D02*
X33611998Y61300000D01*
X28200000Y52200000D02*
X27799979Y52600021D01*
X31100000Y57111998D02*
X31100000Y58788002D01*
X27900000Y42500000D02*
X27900000Y42600000D01*
X27799979Y52600021D02*
X27799979Y54299979D01*
X36300000Y61300000D02*
X38387851Y63387851D01*
X27900000Y42600000D02*
X28200000Y42900000D01*
X13600000Y37000000D02*
X13600000Y35300000D01*
X33611998Y61300000D02*
X36300000Y61300000D01*
X28200000Y51800000D02*
X28200000Y52200000D01*
X38387851Y63387851D02*
X38387851Y66100000D01*
X27799979Y54299979D02*
X28600000Y55100000D01*
X27900000Y36600000D02*
X27900000Y42500000D01*
X10900000Y37000000D02*
X15600000Y32300000D01*
D40*
X4840000Y38300000D02*
X7300000Y38300000D01*
D38*
X28199989Y54099989D02*
X30000000Y55900000D01*
X33699992Y58400008D02*
X33699992Y59802222D01*
X36500000Y60900000D02*
X38987851Y63387851D01*
X28300000Y36400000D02*
X28300000Y42400000D01*
X30936999Y56125001D02*
X31424985Y56125001D01*
X15600000Y32300000D02*
X24200000Y32300000D01*
X28600000Y42700000D02*
X28600000Y52400000D01*
X38987851Y63387851D02*
X38987851Y66985421D01*
X28300000Y42400000D02*
X28600000Y42700000D01*
D40*
X3500000Y36960000D02*
X4840000Y38300000D01*
D38*
X28199989Y52800011D02*
X28199989Y54099989D01*
X28600000Y52400000D02*
X28199989Y52800011D01*
X24200000Y32300000D02*
X28300000Y36400000D01*
X33699992Y59802222D02*
X34797770Y60900000D01*
X30711998Y55900000D02*
X30936999Y56125001D01*
X30000000Y55900000D02*
X30711998Y55900000D01*
X34797770Y60900000D02*
X36500000Y60900000D01*
X31424985Y56125001D02*
X33699992Y58400008D01*
D40*
X7300000Y38300000D02*
X8600000Y37000000D01*
X66700000Y49100000D02*
X66700000Y51000000D01*
D38*
X12050000Y20475000D02*
X12050000Y20875000D01*
X4790000Y12850000D02*
X4900000Y12850000D01*
X3500000Y11560000D02*
X4790000Y12850000D01*
X12050000Y20875000D02*
X13975000Y22800000D01*
X9275000Y12900000D02*
X12050000Y15675000D01*
X9225000Y12850000D02*
X9275000Y12900000D01*
X12050000Y15675000D02*
X12050000Y20475000D01*
X4900000Y12850000D02*
X9225000Y12850000D01*
X13975000Y22800000D02*
X13975000Y24225000D01*
X12600000Y20725000D02*
X16275000Y24400000D01*
X8960000Y11560000D02*
X12600000Y15200000D01*
X12600000Y15200000D02*
X12600000Y20725000D01*
X6040000Y11560000D02*
X8960000Y11560000D01*
D40*
X6040000Y42040000D02*
X7180000Y40900000D01*
X7180000Y40900000D02*
X8700000Y40900000D01*
D38*
X33080000Y67930000D02*
X33770000Y67240000D01*
X37288002Y70000000D02*
X37400000Y70000000D01*
X29475000Y67975000D02*
X33035000Y67975000D01*
X34528002Y67240000D02*
X37288002Y70000000D01*
X33770000Y67240000D02*
X34528002Y67240000D01*
X42800000Y70000000D02*
X37400000Y70000000D01*
X33035000Y67975000D02*
X33080000Y67930000D01*
X31100022Y35068622D02*
X31100023Y41034321D01*
X35400022Y58600556D02*
X40190000Y63390534D01*
X31400022Y41334320D02*
X31400022Y53480620D01*
X3500000Y26800000D02*
X4700000Y28000000D01*
X40190000Y63390534D02*
X40190000Y65500000D01*
X35400022Y57480620D02*
X35400022Y58600556D01*
X4700000Y28000000D02*
X24031400Y28000000D01*
X24031400Y28000000D02*
X31100022Y35068622D01*
X31100023Y41034321D02*
X31400022Y41334320D01*
X31400022Y53480620D02*
X35400022Y57480620D01*
X23397100Y26800000D02*
X31500033Y34902933D01*
X40790000Y63390000D02*
X40790000Y66110000D01*
X31500034Y40800034D02*
X31800033Y41100033D01*
X6040000Y26800000D02*
X23397100Y26800000D01*
X31500033Y34902933D02*
X31500034Y40800034D01*
X35800033Y57314931D02*
X35800033Y58400033D01*
X35800033Y58400033D02*
X40790000Y63390000D01*
X31800033Y53314931D02*
X35800033Y57314931D01*
X31800033Y41100033D02*
X31800033Y53314931D01*
%TA.AperFunction,Conductor*%
G36*
X31404843Y91899523D02*
G01*
X31585388Y91881741D01*
X31604418Y91877955D01*
X31688886Y91852333D01*
X31773353Y91826710D01*
X31791283Y91819283D01*
X31946969Y91736067D01*
X31963106Y91725285D01*
X32099573Y91613290D01*
X32113290Y91599573D01*
X32180102Y91518163D01*
X32225285Y91463106D01*
X32236067Y91446969D01*
X32319283Y91291283D01*
X32326710Y91273353D01*
X32377955Y91104420D01*
X32381741Y91085386D01*
X32399523Y90904843D01*
X32400000Y90895139D01*
X32400000Y87004861D01*
X32399523Y86995157D01*
X32381741Y86814614D01*
X32377955Y86795580D01*
X32326710Y86626647D01*
X32319283Y86608717D01*
X32236067Y86453031D01*
X32225285Y86436894D01*
X32113290Y86300427D01*
X32099573Y86286710D01*
X32018163Y86219898D01*
X31963106Y86174715D01*
X31946969Y86163933D01*
X31791283Y86080717D01*
X31773353Y86073290D01*
X31688887Y86047668D01*
X31604418Y86022045D01*
X31585388Y86018259D01*
X31404843Y86000477D01*
X31395139Y86000000D01*
X29004861Y86000000D01*
X28995157Y86000477D01*
X28814612Y86018259D01*
X28795582Y86022045D01*
X28711114Y86047667D01*
X28626647Y86073290D01*
X28608717Y86080717D01*
X28453031Y86163933D01*
X28436894Y86174715D01*
X28381837Y86219898D01*
X28300427Y86286710D01*
X28286710Y86300427D01*
X28174715Y86436894D01*
X28163933Y86453031D01*
X28080717Y86608717D01*
X28073290Y86626647D01*
X28022045Y86795580D01*
X28018259Y86814614D01*
X28000477Y86995157D01*
X28000000Y87004861D01*
X28000000Y90895139D01*
X28000477Y90904843D01*
X28018259Y91085386D01*
X28022045Y91104420D01*
X28073290Y91273353D01*
X28080717Y91291283D01*
X28163933Y91446969D01*
X28174715Y91463106D01*
X28219898Y91518163D01*
X28286710Y91599573D01*
X28300427Y91613290D01*
X28436894Y91725285D01*
X28453031Y91736067D01*
X28608717Y91819283D01*
X28626647Y91826710D01*
X28711113Y91852332D01*
X28795582Y91877955D01*
X28814612Y91881741D01*
X28995157Y91899523D01*
X29004861Y91900000D01*
X31395139Y91900000D01*
X31404843Y91899523D01*
G37*
%TD.AperFunction*%
%TA.AperFunction,Conductor*%
G36*
X70002396Y98499764D02*
G01*
X70190287Y98481258D01*
X70199708Y98479384D01*
X70378066Y98425280D01*
X70386940Y98421604D01*
X70551311Y98333746D01*
X70559298Y98328410D01*
X70703376Y98210169D01*
X70710169Y98203376D01*
X70828410Y98059298D01*
X70833746Y98051311D01*
X70921604Y97886940D01*
X70925280Y97878066D01*
X70979384Y97699708D01*
X70981258Y97690287D01*
X70999764Y97502396D01*
X71000000Y97497593D01*
X71000000Y97452871D01*
X70999996Y97452230D01*
X70998074Y97305406D01*
X70998455Y97303191D01*
X70998455Y97303186D01*
X70999292Y97298316D01*
X71000000Y97290019D01*
X71000000Y93952871D01*
X70999996Y93952230D01*
X70998074Y93805406D01*
X70998455Y93803191D01*
X70998455Y93803186D01*
X70999292Y93798316D01*
X71000000Y93790019D01*
X71000000Y90452871D01*
X70999996Y90452230D01*
X70998074Y90305406D01*
X70998455Y90303191D01*
X70998455Y90303186D01*
X70999292Y90298316D01*
X71000000Y90290019D01*
X71000000Y86952871D01*
X70999996Y86952230D01*
X70998074Y86805406D01*
X70998455Y86803191D01*
X70998455Y86803186D01*
X70999292Y86798316D01*
X71000000Y86790019D01*
X71000000Y83452871D01*
X70999996Y83452230D01*
X70998074Y83305406D01*
X70998455Y83303191D01*
X70998455Y83303186D01*
X70999292Y83298316D01*
X71000000Y83290019D01*
X71000000Y80851778D01*
X70999670Y80846105D01*
X70999500Y80844646D01*
X70999500Y78955354D01*
X70999670Y78953922D01*
X70999757Y78952460D01*
X70999750Y78952460D01*
X71000000Y78948244D01*
X71000000Y74052871D01*
X70999996Y74052230D01*
X70998074Y73905406D01*
X70998455Y73903191D01*
X70998455Y73903186D01*
X70999292Y73898316D01*
X71000000Y73890019D01*
X71000000Y70552871D01*
X70999996Y70552230D01*
X70998074Y70405406D01*
X70998455Y70403191D01*
X70998455Y70403186D01*
X70999292Y70398316D01*
X71000000Y70390019D01*
X71000000Y67052871D01*
X70999996Y67052230D01*
X70998074Y66905406D01*
X70998455Y66903191D01*
X70998455Y66903186D01*
X70999292Y66898316D01*
X71000000Y66890019D01*
X71000000Y63552871D01*
X70999996Y63552230D01*
X70998074Y63405406D01*
X70998455Y63403191D01*
X70998455Y63403186D01*
X70999292Y63398316D01*
X71000000Y63390019D01*
X71000000Y60052871D01*
X70999996Y60052230D01*
X70998074Y59905406D01*
X70998455Y59903191D01*
X70998455Y59903186D01*
X70999292Y59898316D01*
X71000000Y59890019D01*
X71000000Y56552871D01*
X70999996Y56552230D01*
X70998074Y56405406D01*
X70998455Y56403191D01*
X70998455Y56403186D01*
X70999292Y56398316D01*
X71000000Y56390019D01*
X71000000Y53052871D01*
X70999996Y53052230D01*
X70998074Y52905406D01*
X70998455Y52903191D01*
X70998455Y52903186D01*
X70999292Y52898316D01*
X71000000Y52890019D01*
X71000000Y49552871D01*
X70999996Y49552230D01*
X70999234Y49494030D01*
X70999002Y49489868D01*
X70981258Y49309713D01*
X70979384Y49300292D01*
X70925280Y49121934D01*
X70921604Y49113060D01*
X70833746Y48948689D01*
X70828410Y48940702D01*
X70710169Y48796624D01*
X70703376Y48789831D01*
X70559298Y48671590D01*
X70551311Y48666254D01*
X70386940Y48578396D01*
X70378066Y48574720D01*
X70199708Y48520616D01*
X70190287Y48518742D01*
X70002396Y48500236D01*
X69997593Y48500000D01*
X68502407Y48500000D01*
X68497604Y48500236D01*
X68309713Y48518742D01*
X68300292Y48520616D01*
X68121934Y48574720D01*
X68113060Y48578396D01*
X67948689Y48666254D01*
X67940702Y48671590D01*
X67796624Y48789831D01*
X67789831Y48796624D01*
X67671590Y48940702D01*
X67666254Y48948689D01*
X67578396Y49113060D01*
X67574720Y49121934D01*
X67520616Y49300292D01*
X67518742Y49309713D01*
X67500736Y49492527D01*
X67500500Y49497330D01*
X67500500Y49894646D01*
X67500330Y49896078D01*
X67500243Y49897540D01*
X67500250Y49897540D01*
X67500000Y49901756D01*
X67500000Y51800954D01*
X67514352Y51835602D01*
X67549000Y51849954D01*
X67567749Y51846225D01*
X67643238Y51814956D01*
X67800000Y51794318D01*
X67803183Y51794737D01*
X67953580Y51814537D01*
X67953581Y51814537D01*
X67956762Y51814956D01*
X67959724Y51816183D01*
X67959728Y51816184D01*
X68099875Y51874235D01*
X68099878Y51874237D01*
X68102841Y51875464D01*
X68228282Y51971718D01*
X68324536Y52097159D01*
X68325765Y52100125D01*
X68383816Y52240272D01*
X68383817Y52240276D01*
X68385044Y52243238D01*
X68405682Y52400000D01*
X68385044Y52556762D01*
X68383817Y52559724D01*
X68383816Y52559728D01*
X68325765Y52699875D01*
X68325763Y52699878D01*
X68324536Y52702841D01*
X68272872Y52770171D01*
X68263165Y52806396D01*
X68272872Y52829829D01*
X68322580Y52894610D01*
X68324536Y52897159D01*
X68325765Y52900125D01*
X68383816Y53040272D01*
X68383817Y53040276D01*
X68385044Y53043238D01*
X68405682Y53200000D01*
X68385044Y53356762D01*
X68383817Y53359724D01*
X68383816Y53359728D01*
X68325765Y53499875D01*
X68325763Y53499878D01*
X68324536Y53502841D01*
X68228282Y53628282D01*
X68102841Y53724536D01*
X68099878Y53725763D01*
X68099875Y53725765D01*
X67959728Y53783816D01*
X67959724Y53783817D01*
X67956762Y53785044D01*
X67953581Y53785463D01*
X67953580Y53785463D01*
X67803183Y53805263D01*
X67800000Y53805682D01*
X67643238Y53785044D01*
X67567750Y53753776D01*
X67530249Y53753776D01*
X67503730Y53780294D01*
X67500000Y53799046D01*
X67500000Y55995295D01*
X67514352Y56029943D01*
X67549000Y56044295D01*
X67990932Y56044295D01*
X67991230Y56044294D01*
X68066688Y56043833D01*
X68152562Y56055596D01*
X68290271Y56094953D01*
X68291864Y56095665D01*
X68291868Y56095667D01*
X68313141Y56105182D01*
X68350629Y56106229D01*
X68367796Y56095101D01*
X68518510Y55944387D01*
X68532862Y55909739D01*
X68529132Y55890988D01*
X68516185Y55859731D01*
X68516184Y55859725D01*
X68514956Y55856762D01*
X68494318Y55700000D01*
X68514956Y55543238D01*
X68516183Y55540276D01*
X68516184Y55540272D01*
X68574235Y55400125D01*
X68575464Y55397159D01*
X68671718Y55271718D01*
X68797159Y55175464D01*
X68800122Y55174237D01*
X68800125Y55174235D01*
X68940272Y55116184D01*
X68940276Y55116183D01*
X68943238Y55114956D01*
X68946419Y55114537D01*
X68946420Y55114537D01*
X69096817Y55094737D01*
X69100000Y55094318D01*
X69103183Y55094737D01*
X69253580Y55114537D01*
X69253581Y55114537D01*
X69256762Y55114956D01*
X69259724Y55116183D01*
X69259728Y55116184D01*
X69399875Y55174235D01*
X69399878Y55174237D01*
X69402841Y55175464D01*
X69528282Y55271718D01*
X69624536Y55397159D01*
X69625765Y55400125D01*
X69683816Y55540272D01*
X69683817Y55540276D01*
X69685044Y55543238D01*
X69705682Y55700000D01*
X69685044Y55856762D01*
X69683817Y55859724D01*
X69683816Y55859728D01*
X69625765Y55999875D01*
X69625763Y55999878D01*
X69624536Y56002841D01*
X69584056Y56055596D01*
X69545959Y56105245D01*
X69536378Y56127788D01*
X69535995Y56130337D01*
X69535993Y56130344D01*
X69535449Y56133962D01*
X69533863Y56137263D01*
X69532848Y56140563D01*
X69531684Y56143963D01*
X69531025Y56147573D01*
X69503427Y56200701D01*
X69502746Y56202065D01*
X69478395Y56252777D01*
X69478394Y56252779D01*
X69476809Y56256079D01*
X69474323Y56258768D01*
X69472264Y56261798D01*
X69472553Y56261994D01*
X69471714Y56263187D01*
X69471427Y56262994D01*
X69469865Y56265312D01*
X69468579Y56267788D01*
X69466767Y56269910D01*
X69464893Y56272105D01*
X69464885Y56272113D01*
X69464275Y56272828D01*
X69425967Y56311136D01*
X69424633Y56312523D01*
X69387342Y56352865D01*
X69387340Y56352866D01*
X69384854Y56355556D01*
X69381687Y56357395D01*
X69378827Y56359687D01*
X69378857Y56359724D01*
X69372446Y56364657D01*
X68820057Y56917046D01*
X68805705Y56951694D01*
X68805705Y57283595D01*
X68806288Y57291133D01*
X68806903Y57295083D01*
X68806903Y57295086D01*
X68807170Y57296799D01*
X68808228Y57383466D01*
X68789658Y57525480D01*
X68766349Y57608966D01*
X68708666Y57740059D01*
X68662864Y57813643D01*
X68626129Y57857345D01*
X68571833Y57921939D01*
X68571830Y57921943D01*
X68570707Y57923278D01*
X68506091Y57981051D01*
X68386866Y58060414D01*
X68385292Y58061165D01*
X68310203Y58096981D01*
X68310199Y58096983D01*
X68308632Y58097730D01*
X68171926Y58140440D01*
X68086366Y58154298D01*
X68084630Y58154330D01*
X68084628Y58154330D01*
X67944914Y58156891D01*
X67943167Y58156923D01*
X67941435Y58156707D01*
X67941431Y58156707D01*
X67936409Y58156081D01*
X67930351Y58155705D01*
X67549000Y58155705D01*
X67514352Y58170057D01*
X67500000Y58204705D01*
X67500000Y59098222D01*
X67500330Y59103897D01*
X67500336Y59103945D01*
X67500336Y59103950D01*
X67500500Y59105354D01*
X67500500Y60694646D01*
X67500330Y60696078D01*
X67500243Y60697540D01*
X67500250Y60697540D01*
X67500000Y60701756D01*
X67500000Y64151157D01*
X67514352Y64185805D01*
X67549000Y64200157D01*
X67583648Y64185805D01*
X67587874Y64180986D01*
X67671718Y64071718D01*
X67797159Y63975464D01*
X67800122Y63974237D01*
X67800125Y63974235D01*
X67940272Y63916184D01*
X67940276Y63916183D01*
X67943238Y63914956D01*
X67946419Y63914537D01*
X67946420Y63914537D01*
X68096817Y63894737D01*
X68100000Y63894318D01*
X68103183Y63894737D01*
X68253580Y63914537D01*
X68253581Y63914537D01*
X68256762Y63914956D01*
X68259724Y63916183D01*
X68259728Y63916184D01*
X68399875Y63974235D01*
X68399878Y63974237D01*
X68402841Y63975464D01*
X68528282Y64071718D01*
X68624536Y64197159D01*
X68625778Y64200157D01*
X68683816Y64340272D01*
X68683817Y64340276D01*
X68685044Y64343238D01*
X68705682Y64500000D01*
X68685044Y64656762D01*
X68681657Y64664939D01*
X68628116Y64794200D01*
X68628116Y64831703D01*
X68641627Y64850266D01*
X68656531Y64862950D01*
X68693981Y64905354D01*
X68750180Y64968989D01*
X68751339Y64970301D01*
X68752294Y64971754D01*
X68752298Y64971760D01*
X68797970Y65041291D01*
X68798924Y65042743D01*
X68859793Y65172388D01*
X68885136Y65255280D01*
X68907170Y65396798D01*
X68908229Y65483466D01*
X68906119Y65499602D01*
X68905705Y65505955D01*
X68905705Y65883595D01*
X68906288Y65891133D01*
X68906903Y65895083D01*
X68906903Y65895086D01*
X68907170Y65896799D01*
X68907614Y65933129D01*
X68908207Y65981718D01*
X68908207Y65981723D01*
X68908228Y65983466D01*
X68889658Y66125480D01*
X68866349Y66208966D01*
X68808666Y66340059D01*
X68762864Y66413643D01*
X68706281Y66480957D01*
X68671833Y66521939D01*
X68671830Y66521943D01*
X68670707Y66523278D01*
X68606091Y66581051D01*
X68486866Y66660414D01*
X68485292Y66661165D01*
X68410203Y66696981D01*
X68410199Y66696983D01*
X68408632Y66697730D01*
X68271926Y66740440D01*
X68186366Y66754298D01*
X68184630Y66754330D01*
X68184628Y66754330D01*
X68044914Y66756891D01*
X68043167Y66756923D01*
X68041435Y66756707D01*
X68041431Y66756707D01*
X68036409Y66756081D01*
X68030351Y66755705D01*
X67550000Y66755705D01*
X67550000Y66755744D01*
X67515158Y66769246D01*
X67500000Y66804682D01*
X67500000Y67454684D01*
X67514322Y67489302D01*
X67544011Y67519043D01*
X67552241Y67527287D01*
X67597506Y67629673D01*
X67600500Y67655354D01*
X67600500Y69244646D01*
X67597382Y69270846D01*
X67595892Y69274201D01*
X67595891Y69274204D01*
X67553776Y69369018D01*
X67553775Y69369019D01*
X67551939Y69373153D01*
X67548738Y69376348D01*
X67548737Y69376350D01*
X67514382Y69410645D01*
X67500000Y69445323D01*
X67500000Y71856159D01*
X67514352Y71890807D01*
X67521777Y71896901D01*
X67666366Y71993512D01*
X67667806Y71994474D01*
X67868286Y72174039D01*
X68041465Y72380060D01*
X68183887Y72608428D01*
X68292712Y72854584D01*
X68330583Y72988863D01*
X68365298Y73111954D01*
X68365299Y73111958D01*
X68365767Y73113618D01*
X68401595Y73380362D01*
X68405355Y73500000D01*
X68405267Y73501240D01*
X68405267Y73501250D01*
X68386469Y73766746D01*
X68386469Y73766748D01*
X68386347Y73768467D01*
X68329700Y74031577D01*
X68236547Y74284081D01*
X68108744Y74520940D01*
X67948843Y74737429D01*
X67760034Y74929228D01*
X67546083Y75092510D01*
X67544568Y75093359D01*
X67544561Y75093363D01*
X67525058Y75104285D01*
X67501840Y75133736D01*
X67500000Y75147037D01*
X67500000Y79100954D01*
X67514352Y79135602D01*
X67549000Y79149954D01*
X67567749Y79146225D01*
X67643238Y79114956D01*
X67800000Y79094318D01*
X67803183Y79094737D01*
X67953580Y79114537D01*
X67953581Y79114537D01*
X67956762Y79114956D01*
X67959724Y79116183D01*
X67959728Y79116184D01*
X68099875Y79174235D01*
X68099878Y79174237D01*
X68102841Y79175464D01*
X68228282Y79271718D01*
X68324536Y79397159D01*
X68325765Y79400125D01*
X68383816Y79540272D01*
X68383817Y79540276D01*
X68385044Y79543238D01*
X68405682Y79700000D01*
X68385044Y79856762D01*
X68383817Y79859724D01*
X68383816Y79859728D01*
X68325765Y79999875D01*
X68325763Y79999878D01*
X68324536Y80002841D01*
X68292807Y80044192D01*
X68283100Y80080416D01*
X68294954Y80106456D01*
X68350180Y80168989D01*
X68351339Y80170301D01*
X68352294Y80171754D01*
X68352298Y80171760D01*
X68397970Y80241291D01*
X68398924Y80242743D01*
X68459793Y80372388D01*
X68485136Y80455280D01*
X68507170Y80596798D01*
X68508229Y80683466D01*
X68506119Y80699602D01*
X68505705Y80705955D01*
X68505705Y81083595D01*
X68506288Y81091133D01*
X68506903Y81095083D01*
X68506903Y81095086D01*
X68507170Y81096799D01*
X68508228Y81183466D01*
X68489658Y81325480D01*
X68466349Y81408966D01*
X68408666Y81540059D01*
X68362864Y81613643D01*
X68270707Y81723278D01*
X68206091Y81781051D01*
X68086866Y81860414D01*
X68085292Y81861165D01*
X68010203Y81896981D01*
X68010199Y81896983D01*
X68008632Y81897730D01*
X67871926Y81940440D01*
X67786366Y81954298D01*
X67784630Y81954330D01*
X67784628Y81954330D01*
X67644914Y81956891D01*
X67643167Y81956923D01*
X67641435Y81956707D01*
X67641431Y81956707D01*
X67636409Y81956081D01*
X67630351Y81955705D01*
X67549000Y81955705D01*
X67514352Y81970057D01*
X67500000Y82004705D01*
X67500000Y91400000D01*
X68494318Y91400000D01*
X68514956Y91243238D01*
X68516183Y91240276D01*
X68516184Y91240272D01*
X68574235Y91100125D01*
X68575464Y91097159D01*
X68671718Y90971718D01*
X68797159Y90875464D01*
X68800122Y90874237D01*
X68800125Y90874235D01*
X68940272Y90816184D01*
X68940276Y90816183D01*
X68943238Y90814956D01*
X68946419Y90814537D01*
X68946420Y90814537D01*
X69096817Y90794737D01*
X69100000Y90794318D01*
X69103183Y90794737D01*
X69253580Y90814537D01*
X69253581Y90814537D01*
X69256762Y90814956D01*
X69259724Y90816183D01*
X69259728Y90816184D01*
X69399875Y90874235D01*
X69399878Y90874237D01*
X69402841Y90875464D01*
X69528282Y90971718D01*
X69624536Y91097159D01*
X69625765Y91100125D01*
X69683816Y91240272D01*
X69683817Y91240276D01*
X69685044Y91243238D01*
X69705682Y91400000D01*
X69685044Y91556762D01*
X69683817Y91559724D01*
X69683816Y91559728D01*
X69625765Y91699875D01*
X69625763Y91699878D01*
X69624536Y91702841D01*
X69528282Y91828282D01*
X69402841Y91924536D01*
X69399878Y91925763D01*
X69399875Y91925765D01*
X69259728Y91983816D01*
X69259724Y91983817D01*
X69256762Y91985044D01*
X69253581Y91985463D01*
X69253580Y91985463D01*
X69103183Y92005263D01*
X69100000Y92005682D01*
X69096817Y92005263D01*
X68946420Y91985463D01*
X68946419Y91985463D01*
X68943238Y91985044D01*
X68940276Y91983817D01*
X68940272Y91983816D01*
X68800125Y91925765D01*
X68800122Y91925763D01*
X68797159Y91924536D01*
X68671718Y91828282D01*
X68575464Y91702841D01*
X68574237Y91699878D01*
X68574235Y91699875D01*
X68516184Y91559728D01*
X68516183Y91559724D01*
X68514956Y91556762D01*
X68494318Y91400000D01*
X67500000Y91400000D01*
X67500000Y95900000D01*
X68494318Y95900000D01*
X68514956Y95743238D01*
X68516183Y95740276D01*
X68516184Y95740272D01*
X68574235Y95600125D01*
X68575464Y95597159D01*
X68671718Y95471718D01*
X68797159Y95375464D01*
X68800122Y95374237D01*
X68800125Y95374235D01*
X68940272Y95316184D01*
X68940276Y95316183D01*
X68943238Y95314956D01*
X68946419Y95314537D01*
X68946420Y95314537D01*
X69096817Y95294737D01*
X69100000Y95294318D01*
X69103183Y95294737D01*
X69253580Y95314537D01*
X69253581Y95314537D01*
X69256762Y95314956D01*
X69259724Y95316183D01*
X69259728Y95316184D01*
X69399875Y95374235D01*
X69399878Y95374237D01*
X69402841Y95375464D01*
X69528282Y95471718D01*
X69624536Y95597159D01*
X69625765Y95600125D01*
X69683816Y95740272D01*
X69683817Y95740276D01*
X69685044Y95743238D01*
X69705682Y95900000D01*
X69685044Y96056762D01*
X69683817Y96059724D01*
X69683816Y96059728D01*
X69625765Y96199875D01*
X69625763Y96199878D01*
X69624536Y96202841D01*
X69528282Y96328282D01*
X69402841Y96424536D01*
X69399878Y96425763D01*
X69399875Y96425765D01*
X69259728Y96483816D01*
X69259724Y96483817D01*
X69256762Y96485044D01*
X69253581Y96485463D01*
X69253580Y96485463D01*
X69103183Y96505263D01*
X69100000Y96505682D01*
X69096817Y96505263D01*
X68946420Y96485463D01*
X68946419Y96485463D01*
X68943238Y96485044D01*
X68940276Y96483817D01*
X68940272Y96483816D01*
X68800125Y96425765D01*
X68800122Y96425763D01*
X68797159Y96424536D01*
X68671718Y96328282D01*
X68575464Y96202841D01*
X68574237Y96199878D01*
X68574235Y96199875D01*
X68516184Y96059728D01*
X68516183Y96059724D01*
X68514956Y96056762D01*
X68494318Y95900000D01*
X67500000Y95900000D01*
X67500000Y97497593D01*
X67500236Y97502396D01*
X67518742Y97690287D01*
X67520616Y97699708D01*
X67574720Y97878066D01*
X67578396Y97886940D01*
X67666254Y98051311D01*
X67671590Y98059298D01*
X67789831Y98203376D01*
X67796624Y98210169D01*
X67940702Y98328410D01*
X67948689Y98333746D01*
X68113060Y98421604D01*
X68121934Y98425280D01*
X68300292Y98479384D01*
X68309713Y98481258D01*
X68497604Y98499764D01*
X68502407Y98500000D01*
X69997593Y98500000D01*
X70002396Y98499764D01*
G37*
%TD.AperFunction*%
M02*
