%TF.GenerationSoftware,KiCad,Pcbnew,5.99.0-unknown-b90e72ed07~107~ubuntu18.04.1*%
%TF.CreationDate,2021-02-01T09:40:27+01:00*%
%TF.ProjectId,Uni_Printer,556e695f-5072-4696-9e74-65722e6b6963,rev?*%
%TF.SameCoordinates,PX48009e0PY88da2e0*%
%TF.FileFunction,Legend,Bot*%
%TF.FilePolarity,Positive*%
%FSLAX46Y46*%
G04 Gerber Fmt 4.6, Leading zero omitted, Abs format (unit mm)*
G04 Created by KiCad (PCBNEW 5.99.0-unknown-b90e72ed07~107~ubuntu18.04.1) date 2021-02-01 09:40:27*
%MOMM*%
%LPD*%
G01*
G04 APERTURE LIST*
%ADD10C,0.120000*%
G04 APERTURE END LIST*
D10*
X65000000Y94400000D02*
X67800000Y94400000D01*
X64350000Y95700000D02*
X64350000Y95100000D01*
X67800000Y96400000D02*
X65000000Y96400000D01*
X64900000Y96900000D02*
X65500000Y96900000D01*
X68450000Y95100000D02*
X68450000Y95700000D01*
X65200000Y96600000D02*
X64900000Y96900000D01*
X65200000Y96600000D02*
X65500000Y96900000D01*
X65050000Y96400000D02*
G75*
G03*
X64350000Y95700000I0J-700000D01*
G01*
X68450000Y95700000D02*
G75*
G03*
X67750000Y96400000I-700000J0D01*
G01*
X67750000Y94400000D02*
G75*
G03*
X68450000Y95100000I0J700000D01*
G01*
X64350000Y95100000D02*
G75*
G03*
X65050000Y94400000I700000J0D01*
G01*
X57050000Y91500000D02*
X57050000Y90900000D01*
X60600000Y89700000D02*
X60000000Y89700000D01*
X61150000Y90900000D02*
X61150000Y91500000D01*
X57700000Y90200000D02*
X60500000Y90200000D01*
X60300000Y90000000D02*
X60000000Y89700000D01*
X60500000Y92200000D02*
X57700000Y92200000D01*
X60300000Y90000000D02*
X60600000Y89700000D01*
X60450000Y90200000D02*
G75*
G03*
X61150000Y90900000I0J700000D01*
G01*
X57750000Y92200000D02*
G75*
G03*
X57050000Y91500000I0J-700000D01*
G01*
X57050000Y90900000D02*
G75*
G03*
X57750000Y90200000I700000J0D01*
G01*
X61150000Y91500000D02*
G75*
G03*
X60450000Y92200000I-700000J0D01*
G01*
X64350000Y91500000D02*
X64350000Y90900000D01*
X68450000Y90900000D02*
X68450000Y91500000D01*
X65200000Y92400000D02*
X65500000Y92700000D01*
X67800000Y92200000D02*
X65000000Y92200000D01*
X65200000Y92400000D02*
X64900000Y92700000D01*
X64900000Y92700000D02*
X65500000Y92700000D01*
X65000000Y90200000D02*
X67800000Y90200000D01*
X65050000Y92200000D02*
G75*
G03*
X64350000Y91500000I0J-700000D01*
G01*
X68450000Y91500000D02*
G75*
G03*
X67750000Y92200000I-700000J0D01*
G01*
X64350000Y90900000D02*
G75*
G03*
X65050000Y90200000I700000J0D01*
G01*
X67750000Y90200000D02*
G75*
G03*
X68450000Y90900000I0J700000D01*
G01*
X65000000Y82700000D02*
X67800000Y82700000D01*
X67800000Y84700000D02*
X65000000Y84700000D01*
X64900000Y85200000D02*
X65500000Y85200000D01*
X68450000Y83400000D02*
X68450000Y84000000D01*
X64350000Y84000000D02*
X64350000Y83400000D01*
X65200000Y84900000D02*
X65500000Y85200000D01*
X65200000Y84900000D02*
X64900000Y85200000D01*
X64350000Y83400000D02*
G75*
G03*
X65050000Y82700000I700000J0D01*
G01*
X65050000Y84700000D02*
G75*
G03*
X64350000Y84000000I0J-700000D01*
G01*
X68450000Y84000000D02*
G75*
G03*
X67750000Y84700000I-700000J0D01*
G01*
X67750000Y82700000D02*
G75*
G03*
X68450000Y83400000I0J700000D01*
G01*
X68850000Y65400000D02*
X68850000Y66000000D01*
X68200000Y66700000D02*
X65400000Y66700000D01*
X68000000Y64500000D02*
X67700000Y64200000D01*
X68000000Y64500000D02*
X68300000Y64200000D01*
X65400000Y64700000D02*
X68200000Y64700000D01*
X68300000Y64200000D02*
X67700000Y64200000D01*
X64750000Y66000000D02*
X64750000Y65400000D01*
X68850000Y66000000D02*
G75*
G03*
X68150000Y66700000I-700000J0D01*
G01*
X68150000Y64700000D02*
G75*
G03*
X68850000Y65400000I0J700000D01*
G01*
X64750000Y65400000D02*
G75*
G03*
X65450000Y64700000I700000J0D01*
G01*
X65450000Y66700000D02*
G75*
G03*
X64750000Y66000000I0J-700000D01*
G01*
X65500000Y61100000D02*
X65200000Y61400000D01*
X68100000Y60900000D02*
X65300000Y60900000D01*
X64650000Y60200000D02*
X64650000Y59600000D01*
X65200000Y61400000D02*
X65800000Y61400000D01*
X68750000Y59600000D02*
X68750000Y60200000D01*
X65300000Y58900000D02*
X68100000Y58900000D01*
X65500000Y61100000D02*
X65800000Y61400000D01*
X64650000Y59600000D02*
G75*
G03*
X65350000Y58900000I700000J0D01*
G01*
X65350000Y60900000D02*
G75*
G03*
X64650000Y60200000I0J-700000D01*
G01*
X68750000Y60200000D02*
G75*
G03*
X68050000Y60900000I-700000J0D01*
G01*
X68050000Y58900000D02*
G75*
G03*
X68750000Y59600000I0J700000D01*
G01*
X65000000Y79900000D02*
X67800000Y79900000D01*
X64350000Y81200000D02*
X64350000Y80600000D01*
X68450000Y80600000D02*
X68450000Y81200000D01*
X67900000Y79400000D02*
X67300000Y79400000D01*
X67600000Y79700000D02*
X67300000Y79400000D01*
X67600000Y79700000D02*
X67900000Y79400000D01*
X67800000Y81900000D02*
X65000000Y81900000D01*
X64350000Y80600000D02*
G75*
G03*
X65050000Y79900000I700000J0D01*
G01*
X67750000Y79900000D02*
G75*
G03*
X68450000Y80600000I0J700000D01*
G01*
X65050000Y81900000D02*
G75*
G03*
X64350000Y81200000I0J-700000D01*
G01*
X68450000Y81200000D02*
G75*
G03*
X67750000Y81900000I-700000J0D01*
G01*
X60600000Y112700000D02*
X60900000Y112400000D01*
X57350000Y114200000D02*
X57350000Y113600000D01*
X60600000Y112700000D02*
X60300000Y112400000D01*
X60900000Y112400000D02*
X60300000Y112400000D01*
X60800000Y114900000D02*
X58000000Y114900000D01*
X58000000Y112900000D02*
X60800000Y112900000D01*
X61450000Y113600000D02*
X61450000Y114200000D01*
X60750000Y112900000D02*
G75*
G03*
X61450000Y113600000I0J700000D01*
G01*
X57350000Y113600000D02*
G75*
G03*
X58050000Y112900000I700000J0D01*
G01*
X61450000Y114200000D02*
G75*
G03*
X60750000Y114900000I-700000J0D01*
G01*
X58050000Y114900000D02*
G75*
G03*
X57350000Y114200000I0J-700000D01*
G01*
X64650000Y49400000D02*
X64650000Y48800000D01*
X68100000Y50100000D02*
X65300000Y50100000D01*
X68750000Y48800000D02*
X68750000Y49400000D01*
X65500000Y50300000D02*
X65800000Y50600000D01*
X65500000Y50300000D02*
X65200000Y50600000D01*
X65200000Y50600000D02*
X65800000Y50600000D01*
X65300000Y48100000D02*
X68100000Y48100000D01*
X65350000Y50100000D02*
G75*
G03*
X64650000Y49400000I0J-700000D01*
G01*
X64650000Y48800000D02*
G75*
G03*
X65350000Y48100000I700000J0D01*
G01*
X68750000Y49400000D02*
G75*
G03*
X68050000Y50100000I-700000J0D01*
G01*
X68050000Y48100000D02*
G75*
G03*
X68750000Y48800000I0J700000D01*
G01*
X65400000Y67450000D02*
X68200000Y67450000D01*
X64750000Y68750000D02*
X64750000Y68150000D01*
X65600000Y69650000D02*
X65300000Y69950000D01*
X65300000Y69950000D02*
X65900000Y69950000D01*
X68850000Y68150000D02*
X68850000Y68750000D01*
X68200000Y69450000D02*
X65400000Y69450000D01*
X65600000Y69650000D02*
X65900000Y69950000D01*
X68850000Y68750000D02*
G75*
G03*
X68150000Y69450000I-700000J0D01*
G01*
X65450000Y69450000D02*
G75*
G03*
X64750000Y68750000I0J-700000D01*
G01*
X68150000Y67450000D02*
G75*
G03*
X68850000Y68150000I0J700000D01*
G01*
X64750000Y68150000D02*
G75*
G03*
X65450000Y67450000I700000J0D01*
G01*
X64200000Y106400000D02*
X63900000Y106100000D01*
X65700000Y109650000D02*
X65100000Y109650000D01*
X64200000Y106400000D02*
X63900000Y106700000D01*
X64400000Y109000000D02*
X64400000Y106200000D01*
X65100000Y105550000D02*
X65700000Y105550000D01*
X66400000Y106200000D02*
X66400000Y109000000D01*
X63900000Y106100000D02*
X63900000Y106700000D01*
X65100000Y109650000D02*
G75*
G03*
X64400000Y108950000I0J-700000D01*
G01*
X66400000Y108950000D02*
G75*
G03*
X65700000Y109650000I-700000J0D01*
G01*
X64400000Y106250000D02*
G75*
G03*
X65100000Y105550000I700000J0D01*
G01*
X65700000Y105550000D02*
G75*
G03*
X66400000Y106250000I0J700000D01*
G01*
X60300000Y94200000D02*
X60000000Y93900000D01*
X60600000Y93900000D02*
X60000000Y93900000D01*
X61150000Y95100000D02*
X61150000Y95700000D01*
X60500000Y96400000D02*
X57700000Y96400000D01*
X57050000Y95700000D02*
X57050000Y95100000D01*
X60300000Y94200000D02*
X60600000Y93900000D01*
X57700000Y94400000D02*
X60500000Y94400000D01*
X57050000Y95100000D02*
G75*
G03*
X57750000Y94400000I700000J0D01*
G01*
X60450000Y94400000D02*
G75*
G03*
X61150000Y95100000I0J700000D01*
G01*
X61150000Y95700000D02*
G75*
G03*
X60450000Y96400000I-700000J0D01*
G01*
X57750000Y96400000D02*
G75*
G03*
X57050000Y95700000I0J-700000D01*
G01*
X68200000Y44800000D02*
X67600000Y44800000D01*
X65300000Y45300000D02*
X68100000Y45300000D01*
X68750000Y46000000D02*
X68750000Y46600000D01*
X68100000Y47300000D02*
X65300000Y47300000D01*
X67900000Y45100000D02*
X68200000Y44800000D01*
X67900000Y45100000D02*
X67600000Y44800000D01*
X64650000Y46600000D02*
X64650000Y46000000D01*
X68050000Y45300000D02*
G75*
G03*
X68750000Y46000000I0J700000D01*
G01*
X65350000Y47300000D02*
G75*
G03*
X64650000Y46600000I0J-700000D01*
G01*
X64650000Y46000000D02*
G75*
G03*
X65350000Y45300000I700000J0D01*
G01*
X68750000Y46600000D02*
G75*
G03*
X68050000Y47300000I-700000J0D01*
G01*
X68900000Y114900000D02*
X66100000Y114900000D01*
X66300000Y115100000D02*
X66600000Y115400000D01*
X69550000Y113600000D02*
X69550000Y114200000D01*
X66300000Y115100000D02*
X66000000Y115400000D01*
X66100000Y112900000D02*
X68900000Y112900000D01*
X65450000Y114200000D02*
X65450000Y113600000D01*
X66000000Y115400000D02*
X66600000Y115400000D01*
X69550000Y114200000D02*
G75*
G03*
X68850000Y114900000I-700000J0D01*
G01*
X65450000Y113600000D02*
G75*
G03*
X66150000Y112900000I700000J0D01*
G01*
X68850000Y112900000D02*
G75*
G03*
X69550000Y113600000I0J700000D01*
G01*
X66150000Y114900000D02*
G75*
G03*
X65450000Y114200000I0J-700000D01*
G01*
X68100000Y58100000D02*
X65300000Y58100000D01*
X68750000Y56800000D02*
X68750000Y57400000D01*
X65300000Y56100000D02*
X68100000Y56100000D01*
X67900000Y55900000D02*
X67600000Y55600000D01*
X64650000Y57400000D02*
X64650000Y56800000D01*
X67900000Y55900000D02*
X68200000Y55600000D01*
X68200000Y55600000D02*
X67600000Y55600000D01*
X64650000Y56800000D02*
G75*
G03*
X65350000Y56100000I700000J0D01*
G01*
X65350000Y58100000D02*
G75*
G03*
X64650000Y57400000I0J-700000D01*
G01*
X68750000Y57400000D02*
G75*
G03*
X68050000Y58100000I-700000J0D01*
G01*
X68050000Y56100000D02*
G75*
G03*
X68750000Y56800000I0J700000D01*
G01*
X60000000Y109650000D02*
X59400000Y109650000D01*
X61200000Y109100000D02*
X61200000Y108500000D01*
X58700000Y109000000D02*
X58700000Y106200000D01*
X60900000Y108800000D02*
X61200000Y109100000D01*
X60700000Y106200000D02*
X60700000Y109000000D01*
X59400000Y105550000D02*
X60000000Y105550000D01*
X60900000Y108800000D02*
X61200000Y108500000D01*
X60000000Y105550000D02*
G75*
G03*
X60700000Y106250000I0J700000D01*
G01*
X59400000Y109650000D02*
G75*
G03*
X58700000Y108950000I0J-700000D01*
G01*
X60700000Y108950000D02*
G75*
G03*
X60000000Y109650000I-700000J0D01*
G01*
X58700000Y106250000D02*
G75*
G03*
X59400000Y105550000I700000J0D01*
G01*
M02*
