%TF.GenerationSoftware,KiCad,Pcbnew,5.99.0-unknown-14cba9723f~116~ubuntu18.04.1*%
%TF.CreationDate,2021-02-18T14:37:27+01:00*%
%TF.ProjectId,Uni_Printer,556e695f-5072-4696-9e74-65722e6b6963,rev?*%
%TF.SameCoordinates,PX48009e0PY88da2e0*%
%TF.FileFunction,Legend,Top*%
%TF.FilePolarity,Positive*%
%FSLAX46Y46*%
G04 Gerber Fmt 4.6, Leading zero omitted, Abs format (unit mm)*
G04 Created by KiCad (PCBNEW 5.99.0-unknown-14cba9723f~116~ubuntu18.04.1) date 2021-02-18 14:37:27*
%MOMM*%
%LPD*%
G01*
G04 APERTURE LIST*
%ADD10C,0.250000*%
%ADD11C,0.200000*%
%ADD12C,0.150000*%
%ADD13C,0.175000*%
%ADD14C,0.125000*%
%ADD15C,0.120000*%
%ADD16C,0.152400*%
%ADD17C,0.127000*%
%ADD18C,0.100000*%
G04 APERTURE END LIST*
D10*
X64300000Y116621429D02*
X63538095Y116621429D01*
X62871428Y116002381D02*
X62680952Y116002381D01*
X62585714Y116050000D01*
X62490476Y116145239D01*
X62442857Y116335715D01*
X62442857Y116669048D01*
X62490476Y116859524D01*
X62585714Y116954762D01*
X62680952Y117002381D01*
X62871428Y117002381D01*
X62966666Y116954762D01*
X63061904Y116859524D01*
X63109523Y116669048D01*
X63109523Y116335715D01*
X63061904Y116145239D01*
X62966666Y116050000D01*
X62871428Y116002381D01*
X61490476Y117002381D02*
X62061904Y117002381D01*
X61776190Y117002381D02*
X61776190Y116002381D01*
X61871428Y116145239D01*
X61966666Y116240477D01*
X62061904Y116288096D01*
X61061904Y116621429D02*
X60300000Y116621429D01*
X60680952Y117002381D02*
X60680952Y116240477D01*
D11*
X23738095Y47338096D02*
X23471428Y47719048D01*
X23280952Y47338096D02*
X23280952Y48138096D01*
X23585714Y48138096D01*
X23661904Y48100000D01*
X23700000Y48061905D01*
X23738095Y47985715D01*
X23738095Y47871429D01*
X23700000Y47795239D01*
X23661904Y47757143D01*
X23585714Y47719048D01*
X23280952Y47719048D01*
X24080952Y47757143D02*
X24347619Y47757143D01*
X24461904Y47338096D02*
X24080952Y47338096D01*
X24080952Y48138096D01*
X24461904Y48138096D01*
X24766666Y47376191D02*
X24880952Y47338096D01*
X25071428Y47338096D01*
X25147619Y47376191D01*
X25185714Y47414286D01*
X25223809Y47490477D01*
X25223809Y47566667D01*
X25185714Y47642858D01*
X25147619Y47680953D01*
X25071428Y47719048D01*
X24919047Y47757143D01*
X24842857Y47795239D01*
X24804761Y47833334D01*
X24766666Y47909524D01*
X24766666Y47985715D01*
X24804761Y48061905D01*
X24842857Y48100000D01*
X24919047Y48138096D01*
X25109523Y48138096D01*
X25223809Y48100000D01*
X25566666Y47757143D02*
X25833333Y47757143D01*
X25947619Y47338096D02*
X25566666Y47338096D01*
X25566666Y48138096D01*
X25947619Y48138096D01*
X26176190Y48138096D02*
X26633333Y48138096D01*
X26404761Y47338096D02*
X26404761Y48138096D01*
X23814285Y54557143D02*
X23928571Y54519048D01*
X23966666Y54480953D01*
X24004761Y54404762D01*
X24004761Y54290477D01*
X23966666Y54214286D01*
X23928571Y54176191D01*
X23852380Y54138096D01*
X23547619Y54138096D01*
X23547619Y54938096D01*
X23814285Y54938096D01*
X23890476Y54900000D01*
X23928571Y54861905D01*
X23966666Y54785715D01*
X23966666Y54709524D01*
X23928571Y54633334D01*
X23890476Y54595239D01*
X23814285Y54557143D01*
X23547619Y54557143D01*
X24500000Y54938096D02*
X24652380Y54938096D01*
X24728571Y54900000D01*
X24804761Y54823810D01*
X24842857Y54671429D01*
X24842857Y54404762D01*
X24804761Y54252381D01*
X24728571Y54176191D01*
X24652380Y54138096D01*
X24500000Y54138096D01*
X24423809Y54176191D01*
X24347619Y54252381D01*
X24309523Y54404762D01*
X24309523Y54671429D01*
X24347619Y54823810D01*
X24423809Y54900000D01*
X24500000Y54938096D01*
X25338095Y54938096D02*
X25490476Y54938096D01*
X25566666Y54900000D01*
X25642857Y54823810D01*
X25680952Y54671429D01*
X25680952Y54404762D01*
X25642857Y54252381D01*
X25566666Y54176191D01*
X25490476Y54138096D01*
X25338095Y54138096D01*
X25261904Y54176191D01*
X25185714Y54252381D01*
X25147619Y54404762D01*
X25147619Y54671429D01*
X25185714Y54823810D01*
X25261904Y54900000D01*
X25338095Y54938096D01*
X25909523Y54938096D02*
X26366666Y54938096D01*
X26138095Y54138096D02*
X26138095Y54938096D01*
D12*
X62761904Y11400000D02*
X62666666Y11447620D01*
X62523809Y11447620D01*
X62380952Y11400000D01*
X62285714Y11304762D01*
X62238095Y11209524D01*
X62190476Y11019048D01*
X62190476Y10876191D01*
X62238095Y10685715D01*
X62285714Y10590477D01*
X62380952Y10495239D01*
X62523809Y10447620D01*
X62619047Y10447620D01*
X62761904Y10495239D01*
X62809523Y10542858D01*
X62809523Y10876191D01*
X62619047Y10876191D01*
D13*
X816666Y17466667D02*
X783333Y17366667D01*
X783333Y17200000D01*
X816666Y17133334D01*
X850000Y17100000D01*
X916666Y17066667D01*
X983333Y17066667D01*
X1050000Y17100000D01*
X1083333Y17133334D01*
X1116666Y17200000D01*
X1150000Y17333334D01*
X1183333Y17400000D01*
X1216666Y17433334D01*
X1283333Y17466667D01*
X1350000Y17466667D01*
X1416666Y17433334D01*
X1450000Y17400000D01*
X1483333Y17333334D01*
X1483333Y17166667D01*
X1450000Y17066667D01*
X1483333Y16866667D02*
X783333Y16633334D01*
X1483333Y16400000D01*
X1483333Y16033334D02*
X1483333Y15900000D01*
X1450000Y15833334D01*
X1383333Y15766667D01*
X1250000Y15733334D01*
X1016666Y15733334D01*
X883333Y15766667D01*
X816666Y15833334D01*
X783333Y15900000D01*
X783333Y16033334D01*
X816666Y16100000D01*
X883333Y16166667D01*
X1016666Y16200000D01*
X1250000Y16200000D01*
X1383333Y16166667D01*
X1450000Y16100000D01*
X1483333Y16033334D01*
D10*
X69821428Y56385715D02*
X69821428Y57147620D01*
X70202380Y57623810D02*
X69202380Y57623810D01*
X69297619Y58052381D02*
X69250000Y58100000D01*
X69202380Y58195239D01*
X69202380Y58433334D01*
X69250000Y58528572D01*
X69297619Y58576191D01*
X69392857Y58623810D01*
X69488095Y58623810D01*
X69630952Y58576191D01*
X70202380Y58004762D01*
X70202380Y58623810D01*
X69821428Y59052381D02*
X69821428Y59814286D01*
X70202380Y59433334D02*
X69440476Y59433334D01*
D12*
X14311309Y10928572D02*
X15073214Y10928572D01*
X14692261Y10547620D02*
X14692261Y11309524D01*
X15882738Y11071429D02*
X16025595Y11023810D01*
X16073214Y10976191D01*
X16120833Y10880953D01*
X16120833Y10738096D01*
X16073214Y10642858D01*
X16025595Y10595239D01*
X15930357Y10547620D01*
X15549404Y10547620D01*
X15549404Y11547620D01*
X15882738Y11547620D01*
X15977976Y11500000D01*
X16025595Y11452381D01*
X16073214Y11357143D01*
X16073214Y11261905D01*
X16025595Y11166667D01*
X15977976Y11119048D01*
X15882738Y11071429D01*
X15549404Y11071429D01*
X16501785Y11452381D02*
X16549404Y11500000D01*
X16644642Y11547620D01*
X16882738Y11547620D01*
X16977976Y11500000D01*
X17025595Y11452381D01*
X17073214Y11357143D01*
X17073214Y11261905D01*
X17025595Y11119048D01*
X16454166Y10547620D01*
X17073214Y10547620D01*
X17501785Y10928572D02*
X18263690Y10928572D01*
X32723809Y10828572D02*
X33485714Y10828572D01*
X33104761Y10447620D02*
X33104761Y11209524D01*
X33961904Y10447620D02*
X33961904Y11447620D01*
X34200000Y11447620D01*
X34342857Y11400000D01*
X34438095Y11304762D01*
X34485714Y11209524D01*
X34533333Y11019048D01*
X34533333Y10876191D01*
X34485714Y10685715D01*
X34438095Y10590477D01*
X34342857Y10495239D01*
X34200000Y10447620D01*
X33961904Y10447620D01*
X34914285Y11352381D02*
X34961904Y11400000D01*
X35057142Y11447620D01*
X35295238Y11447620D01*
X35390476Y11400000D01*
X35438095Y11352381D01*
X35485714Y11257143D01*
X35485714Y11161905D01*
X35438095Y11019048D01*
X34866666Y10447620D01*
X35485714Y10447620D01*
X35914285Y10828572D02*
X36676190Y10828572D01*
D10*
X34650000Y116621429D02*
X33888095Y116621429D01*
X33221428Y116002381D02*
X33030952Y116002381D01*
X32935714Y116050000D01*
X32840476Y116145239D01*
X32792857Y116335715D01*
X32792857Y116669048D01*
X32840476Y116859524D01*
X32935714Y116954762D01*
X33030952Y117002381D01*
X33221428Y117002381D01*
X33316666Y116954762D01*
X33411904Y116859524D01*
X33459523Y116669048D01*
X33459523Y116335715D01*
X33411904Y116145239D01*
X33316666Y116050000D01*
X33221428Y116002381D01*
X31935714Y116335715D02*
X31935714Y117002381D01*
X32173809Y115954762D02*
X32411904Y116669048D01*
X31792857Y116669048D01*
X31411904Y116621429D02*
X30650000Y116621429D01*
X31030952Y117002381D02*
X31030952Y116240477D01*
X69600000Y108361905D02*
X69552380Y108266667D01*
X69552380Y108123810D01*
X69600000Y107980953D01*
X69695238Y107885715D01*
X69790476Y107838096D01*
X69980952Y107790477D01*
X70123809Y107790477D01*
X70314285Y107838096D01*
X70409523Y107885715D01*
X70504761Y107980953D01*
X70552380Y108123810D01*
X70552380Y108219048D01*
X70504761Y108361905D01*
X70457142Y108409524D01*
X70123809Y108409524D01*
X70123809Y108219048D01*
X79623809Y116621429D02*
X78861904Y116621429D01*
X79242857Y117002381D02*
X79242857Y116240477D01*
X78385714Y117002381D02*
X78385714Y116002381D01*
X77957142Y116716667D02*
X77480952Y116716667D01*
X78052380Y117002381D02*
X77719047Y116002381D01*
X77385714Y117002381D01*
X77147619Y116002381D02*
X76480952Y116002381D01*
X76909523Y117002381D01*
X64907142Y38097620D02*
X64430952Y38097620D01*
X64430952Y39097620D01*
X65192857Y38383334D02*
X65669047Y38383334D01*
X65097619Y38097620D02*
X65430952Y39097620D01*
X65764285Y38097620D01*
X66097619Y38097620D02*
X66097619Y39097620D01*
X66669047Y38097620D01*
X66669047Y39097620D01*
D13*
X1450000Y14633334D02*
X1483333Y14700000D01*
X1483333Y14800000D01*
X1450000Y14900000D01*
X1383333Y14966667D01*
X1316666Y15000000D01*
X1183333Y15033334D01*
X1083333Y15033334D01*
X950000Y15000000D01*
X883333Y14966667D01*
X816666Y14900000D01*
X783333Y14800000D01*
X783333Y14733334D01*
X816666Y14633334D01*
X850000Y14600000D01*
X1083333Y14600000D01*
X1083333Y14733334D01*
X783333Y14300000D02*
X1483333Y14300000D01*
X783333Y13900000D01*
X1483333Y13900000D01*
X783333Y13566667D02*
X1483333Y13566667D01*
X1483333Y13400000D01*
X1450000Y13300000D01*
X1383333Y13233334D01*
X1316666Y13200000D01*
X1183333Y13166667D01*
X1083333Y13166667D01*
X950000Y13200000D01*
X883333Y13233334D01*
X816666Y13300000D01*
X783333Y13400000D01*
X783333Y13566667D01*
D10*
X4416666Y83927620D02*
X4083333Y84403810D01*
X3845238Y83927620D02*
X3845238Y84927620D01*
X4226190Y84927620D01*
X4321428Y84880000D01*
X4369047Y84832381D01*
X4416666Y84737143D01*
X4416666Y84594286D01*
X4369047Y84499048D01*
X4321428Y84451429D01*
X4226190Y84403810D01*
X3845238Y84403810D01*
X4797619Y83975239D02*
X4940476Y83927620D01*
X5178571Y83927620D01*
X5273809Y83975239D01*
X5321428Y84022858D01*
X5369047Y84118096D01*
X5369047Y84213334D01*
X5321428Y84308572D01*
X5273809Y84356191D01*
X5178571Y84403810D01*
X4988095Y84451429D01*
X4892857Y84499048D01*
X4845238Y84546667D01*
X4797619Y84641905D01*
X4797619Y84737143D01*
X4845238Y84832381D01*
X4892857Y84880000D01*
X4988095Y84927620D01*
X5226190Y84927620D01*
X5369047Y84880000D01*
X6226190Y84594286D02*
X6226190Y83927620D01*
X5988095Y84975239D02*
X5750000Y84260953D01*
X6369047Y84260953D01*
X6892857Y84499048D02*
X6797619Y84546667D01*
X6750000Y84594286D01*
X6702380Y84689524D01*
X6702380Y84737143D01*
X6750000Y84832381D01*
X6797619Y84880000D01*
X6892857Y84927620D01*
X7083333Y84927620D01*
X7178571Y84880000D01*
X7226190Y84832381D01*
X7273809Y84737143D01*
X7273809Y84689524D01*
X7226190Y84594286D01*
X7178571Y84546667D01*
X7083333Y84499048D01*
X6892857Y84499048D01*
X6797619Y84451429D01*
X6750000Y84403810D01*
X6702380Y84308572D01*
X6702380Y84118096D01*
X6750000Y84022858D01*
X6797619Y83975239D01*
X6892857Y83927620D01*
X7083333Y83927620D01*
X7178571Y83975239D01*
X7226190Y84022858D01*
X7273809Y84118096D01*
X7273809Y84308572D01*
X7226190Y84403810D01*
X7178571Y84451429D01*
X7083333Y84499048D01*
X8178571Y84927620D02*
X7702380Y84927620D01*
X7654761Y84451429D01*
X7702380Y84499048D01*
X7797619Y84546667D01*
X8035714Y84546667D01*
X8130952Y84499048D01*
X8178571Y84451429D01*
X8226190Y84356191D01*
X8226190Y84118096D01*
X8178571Y84022858D01*
X8130952Y83975239D01*
X8035714Y83927620D01*
X7797619Y83927620D01*
X7702380Y83975239D01*
X7654761Y84022858D01*
X10130952Y84975239D02*
X9273809Y83689524D01*
X11797619Y84022858D02*
X11750000Y83975239D01*
X11607142Y83927620D01*
X11511904Y83927620D01*
X11369047Y83975239D01*
X11273809Y84070477D01*
X11226190Y84165715D01*
X11178571Y84356191D01*
X11178571Y84499048D01*
X11226190Y84689524D01*
X11273809Y84784762D01*
X11369047Y84880000D01*
X11511904Y84927620D01*
X11607142Y84927620D01*
X11750000Y84880000D01*
X11797619Y84832381D01*
X12178571Y84213334D02*
X12654761Y84213334D01*
X12083333Y83927620D02*
X12416666Y84927620D01*
X12750000Y83927620D01*
X13083333Y83927620D02*
X13083333Y84927620D01*
X13654761Y83927620D01*
X13654761Y84927620D01*
X9838095Y116000000D02*
X9933333Y115952381D01*
X10076190Y115952381D01*
X10219047Y116000000D01*
X10314285Y116095239D01*
X10361904Y116190477D01*
X10409523Y116380953D01*
X10409523Y116523810D01*
X10361904Y116714286D01*
X10314285Y116809524D01*
X10219047Y116904762D01*
X10076190Y116952381D01*
X9980952Y116952381D01*
X9838095Y116904762D01*
X9790476Y116857143D01*
X9790476Y116523810D01*
X9980952Y116523810D01*
X20800000Y116621429D02*
X20038095Y116621429D01*
X19371428Y116002381D02*
X19180952Y116002381D01*
X19085714Y116050000D01*
X18990476Y116145239D01*
X18942857Y116335715D01*
X18942857Y116669048D01*
X18990476Y116859524D01*
X19085714Y116954762D01*
X19180952Y117002381D01*
X19371428Y117002381D01*
X19466666Y116954762D01*
X19561904Y116859524D01*
X19609523Y116669048D01*
X19609523Y116335715D01*
X19561904Y116145239D01*
X19466666Y116050000D01*
X19371428Y116002381D01*
X18085714Y116002381D02*
X18276190Y116002381D01*
X18371428Y116050000D01*
X18419047Y116097620D01*
X18514285Y116240477D01*
X18561904Y116430953D01*
X18561904Y116811905D01*
X18514285Y116907143D01*
X18466666Y116954762D01*
X18371428Y117002381D01*
X18180952Y117002381D01*
X18085714Y116954762D01*
X18038095Y116907143D01*
X17990476Y116811905D01*
X17990476Y116573810D01*
X18038095Y116478572D01*
X18085714Y116430953D01*
X18180952Y116383334D01*
X18371428Y116383334D01*
X18466666Y116430953D01*
X18514285Y116478572D01*
X18561904Y116573810D01*
X17561904Y116621429D02*
X16800000Y116621429D01*
X17180952Y117002381D02*
X17180952Y116240477D01*
D12*
X48495238Y10828572D02*
X49257142Y10828572D01*
X48876190Y10447620D02*
X48876190Y11209524D01*
X49685714Y10733334D02*
X50161904Y10733334D01*
X49590476Y10447620D02*
X49923809Y11447620D01*
X50257142Y10447620D01*
X51114285Y10447620D02*
X50542857Y10447620D01*
X50828571Y10447620D02*
X50828571Y11447620D01*
X50733333Y11304762D01*
X50638095Y11209524D01*
X50542857Y11161905D01*
X51542857Y10828572D02*
X52304761Y10828572D01*
D10*
X69771428Y80135715D02*
X69771428Y80897620D01*
X70152380Y81373810D02*
X69152380Y81373810D01*
X69485714Y82278572D02*
X70152380Y82278572D01*
X69104761Y82040477D02*
X69819047Y81802381D01*
X69819047Y82421429D01*
X69771428Y82802381D02*
X69771428Y83564286D01*
X70152380Y83183334D02*
X69390476Y83183334D01*
X50300000Y116621429D02*
X49538095Y116621429D01*
X48871428Y116002381D02*
X48680952Y116002381D01*
X48585714Y116050000D01*
X48490476Y116145239D01*
X48442857Y116335715D01*
X48442857Y116669048D01*
X48490476Y116859524D01*
X48585714Y116954762D01*
X48680952Y117002381D01*
X48871428Y117002381D01*
X48966666Y116954762D01*
X49061904Y116859524D01*
X49109523Y116669048D01*
X49109523Y116335715D01*
X49061904Y116145239D01*
X48966666Y116050000D01*
X48871428Y116002381D01*
X48109523Y116002381D02*
X47490476Y116002381D01*
X47823809Y116383334D01*
X47680952Y116383334D01*
X47585714Y116430953D01*
X47538095Y116478572D01*
X47490476Y116573810D01*
X47490476Y116811905D01*
X47538095Y116907143D01*
X47585714Y116954762D01*
X47680952Y117002381D01*
X47966666Y117002381D01*
X48061904Y116954762D01*
X48109523Y116907143D01*
X47061904Y116621429D02*
X46300000Y116621429D01*
X46680952Y117002381D02*
X46680952Y116240477D01*
X74211904Y116050000D02*
X74307142Y116002381D01*
X74450000Y116002381D01*
X74592857Y116050000D01*
X74688095Y116145239D01*
X74735714Y116240477D01*
X74783333Y116430953D01*
X74783333Y116573810D01*
X74735714Y116764286D01*
X74688095Y116859524D01*
X74592857Y116954762D01*
X74450000Y117002381D01*
X74354761Y117002381D01*
X74211904Y116954762D01*
X74164285Y116907143D01*
X74164285Y116573810D01*
X74354761Y116573810D01*
X71450000Y116621429D02*
X70688095Y116621429D01*
X70211904Y117002381D02*
X70211904Y116002381D01*
X69783333Y116716667D02*
X69307142Y116716667D01*
X69878571Y117002381D02*
X69545238Y116002381D01*
X69211904Y117002381D01*
X68735714Y116430953D02*
X68830952Y116383334D01*
X68878571Y116335715D01*
X68926190Y116240477D01*
X68926190Y116192858D01*
X68878571Y116097620D01*
X68830952Y116050000D01*
X68735714Y116002381D01*
X68545238Y116002381D01*
X68450000Y116050000D01*
X68402380Y116097620D01*
X68354761Y116192858D01*
X68354761Y116240477D01*
X68402380Y116335715D01*
X68450000Y116383334D01*
X68545238Y116430953D01*
X68735714Y116430953D01*
X68830952Y116478572D01*
X68878571Y116526191D01*
X68926190Y116621429D01*
X68926190Y116811905D01*
X68878571Y116907143D01*
X68830952Y116954762D01*
X68735714Y117002381D01*
X68545238Y117002381D01*
X68450000Y116954762D01*
X68402380Y116907143D01*
X68354761Y116811905D01*
X68354761Y116621429D01*
X68402380Y116526191D01*
X68450000Y116478572D01*
X68545238Y116430953D01*
X67926190Y116621429D02*
X67164285Y116621429D01*
X67545238Y117002381D02*
X67545238Y116240477D01*
X27800000Y116621429D02*
X27038095Y116621429D01*
X26371428Y116002381D02*
X26180952Y116002381D01*
X26085714Y116050000D01*
X25990476Y116145239D01*
X25942857Y116335715D01*
X25942857Y116669048D01*
X25990476Y116859524D01*
X26085714Y116954762D01*
X26180952Y117002381D01*
X26371428Y117002381D01*
X26466666Y116954762D01*
X26561904Y116859524D01*
X26609523Y116669048D01*
X26609523Y116335715D01*
X26561904Y116145239D01*
X26466666Y116050000D01*
X26371428Y116002381D01*
X25038095Y116002381D02*
X25514285Y116002381D01*
X25561904Y116478572D01*
X25514285Y116430953D01*
X25419047Y116383334D01*
X25180952Y116383334D01*
X25085714Y116430953D01*
X25038095Y116478572D01*
X24990476Y116573810D01*
X24990476Y116811905D01*
X25038095Y116907143D01*
X25085714Y116954762D01*
X25180952Y117002381D01*
X25419047Y117002381D01*
X25514285Y116954762D01*
X25561904Y116907143D01*
X24561904Y116621429D02*
X23800000Y116621429D01*
X24180952Y117002381D02*
X24180952Y116240477D01*
X7130952Y116571429D02*
X6369047Y116571429D01*
X6750000Y116952381D02*
X6750000Y116190477D01*
X5940476Y116047620D02*
X5892857Y116000000D01*
X5797619Y115952381D01*
X5559523Y115952381D01*
X5464285Y116000000D01*
X5416666Y116047620D01*
X5369047Y116142858D01*
X5369047Y116238096D01*
X5416666Y116380953D01*
X5988095Y116952381D01*
X5369047Y116952381D01*
X4511904Y116285715D02*
X4511904Y116952381D01*
X4750000Y115904762D02*
X4988095Y116619048D01*
X4369047Y116619048D01*
X4130952Y115952381D02*
X3797619Y116952381D01*
X3464285Y115952381D01*
X3130952Y116571429D02*
X2369047Y116571429D01*
X2750000Y116952381D02*
X2750000Y116190477D01*
D12*
X43714285Y10828572D02*
X44476190Y10828572D01*
X44095238Y10447620D02*
X44095238Y11209524D01*
X45428571Y11447620D02*
X44952380Y11447620D01*
X44904761Y10971429D01*
X44952380Y11019048D01*
X45047619Y11066667D01*
X45285714Y11066667D01*
X45380952Y11019048D01*
X45428571Y10971429D01*
X45476190Y10876191D01*
X45476190Y10638096D01*
X45428571Y10542858D01*
X45380952Y10495239D01*
X45285714Y10447620D01*
X45047619Y10447620D01*
X44952380Y10495239D01*
X44904761Y10542858D01*
X45761904Y11447620D02*
X46095238Y10447620D01*
X46428571Y11447620D01*
D10*
X70552380Y110626191D02*
X69552380Y110626191D01*
X70266666Y111054762D02*
X70266666Y111530953D01*
X70552380Y110959524D02*
X69552380Y111292858D01*
X70552380Y111626191D01*
X69552380Y111864286D02*
X69552380Y112530953D01*
X70552380Y112102381D01*
X70171428Y112911905D02*
X70171428Y113673810D01*
X11528571Y34395239D02*
X11528571Y32776191D01*
X11623809Y32585715D01*
X11719047Y32490477D01*
X11909523Y32395239D01*
X12290476Y32395239D01*
X12480952Y32490477D01*
X12576190Y32585715D01*
X12671428Y32776191D01*
X12671428Y34395239D01*
X13623809Y32395239D02*
X13623809Y34395239D01*
X14766666Y32395239D01*
X14766666Y34395239D01*
X15719047Y32395239D02*
X15719047Y34395239D01*
X19338095Y32585715D02*
X19242857Y32490477D01*
X18957142Y32395239D01*
X18766666Y32395239D01*
X18480952Y32490477D01*
X18290476Y32680953D01*
X18195238Y32871429D01*
X18100000Y33252381D01*
X18100000Y33538096D01*
X18195238Y33919048D01*
X18290476Y34109524D01*
X18480952Y34300000D01*
X18766666Y34395239D01*
X18957142Y34395239D01*
X19242857Y34300000D01*
X19338095Y34204762D01*
X19909523Y34395239D02*
X21052380Y34395239D01*
X20480952Y32395239D02*
X20480952Y34395239D01*
X22861904Y32395239D02*
X22195238Y33347620D01*
X21719047Y32395239D02*
X21719047Y34395239D01*
X22480952Y34395239D01*
X22671428Y34300000D01*
X22766666Y34204762D01*
X22861904Y34014286D01*
X22861904Y33728572D01*
X22766666Y33538096D01*
X22671428Y33442858D01*
X22480952Y33347620D01*
X21719047Y33347620D01*
X24671428Y32395239D02*
X23719047Y32395239D01*
X23719047Y34395239D01*
X26671428Y34395239D02*
X27909523Y34395239D01*
X27242857Y33633334D01*
X27528571Y33633334D01*
X27719047Y33538096D01*
X27814285Y33442858D01*
X27909523Y33252381D01*
X27909523Y32776191D01*
X27814285Y32585715D01*
X27719047Y32490477D01*
X27528571Y32395239D01*
X26957142Y32395239D01*
X26766666Y32490477D01*
X26671428Y32585715D01*
X28766666Y32585715D02*
X28861904Y32490477D01*
X28766666Y32395239D01*
X28671428Y32490477D01*
X28766666Y32585715D01*
X28766666Y32395239D01*
X30100000Y34395239D02*
X30290476Y34395239D01*
X30480952Y34300000D01*
X30576190Y34204762D01*
X30671428Y34014286D01*
X30766666Y33633334D01*
X30766666Y33157143D01*
X30671428Y32776191D01*
X30576190Y32585715D01*
X30480952Y32490477D01*
X30290476Y32395239D01*
X30100000Y32395239D01*
X29909523Y32490477D01*
X29814285Y32585715D01*
X29719047Y32776191D01*
X29623809Y33157143D01*
X29623809Y33633334D01*
X29719047Y34014286D01*
X29814285Y34204762D01*
X29909523Y34300000D01*
X30100000Y34395239D01*
X13438095Y116000000D02*
X13533333Y115952381D01*
X13676190Y115952381D01*
X13819047Y116000000D01*
X13914285Y116095239D01*
X13961904Y116190477D01*
X14009523Y116380953D01*
X14009523Y116523810D01*
X13961904Y116714286D01*
X13914285Y116809524D01*
X13819047Y116904762D01*
X13676190Y116952381D01*
X13580952Y116952381D01*
X13438095Y116904762D01*
X13390476Y116857143D01*
X13390476Y116523810D01*
X13580952Y116523810D01*
X69550000Y97888096D02*
X69502380Y97792858D01*
X69502380Y97650000D01*
X69550000Y97507143D01*
X69645238Y97411905D01*
X69740476Y97364286D01*
X69930952Y97316667D01*
X70073809Y97316667D01*
X70264285Y97364286D01*
X70359523Y97411905D01*
X70454761Y97507143D01*
X70502380Y97650000D01*
X70502380Y97745239D01*
X70454761Y97888096D01*
X70407142Y97935715D01*
X70073809Y97935715D01*
X70073809Y97745239D01*
X70121428Y100650000D02*
X70121428Y101411905D01*
X70502380Y101888096D02*
X69502380Y101888096D01*
X70216666Y102316667D02*
X70216666Y102792858D01*
X70502380Y102221429D02*
X69502380Y102554762D01*
X70502380Y102888096D01*
X69502380Y103650000D02*
X69502380Y103459524D01*
X69550000Y103364286D01*
X69597619Y103316667D01*
X69740476Y103221429D01*
X69930952Y103173810D01*
X70311904Y103173810D01*
X70407142Y103221429D01*
X70454761Y103269048D01*
X70502380Y103364286D01*
X70502380Y103554762D01*
X70454761Y103650000D01*
X70407142Y103697620D01*
X70311904Y103745239D01*
X70073809Y103745239D01*
X69978571Y103697620D01*
X69930952Y103650000D01*
X69883333Y103554762D01*
X69883333Y103364286D01*
X69930952Y103269048D01*
X69978571Y103221429D01*
X70073809Y103173810D01*
X70121428Y104173810D02*
X70121428Y104935715D01*
X70502380Y104554762D02*
X69740476Y104554762D01*
D12*
X3214285Y10828572D02*
X3976190Y10828572D01*
X3595238Y10447620D02*
X3595238Y11209524D01*
X4928571Y11447620D02*
X4452380Y11447620D01*
X4404761Y10971429D01*
X4452380Y11019048D01*
X4547619Y11066667D01*
X4785714Y11066667D01*
X4880952Y11019048D01*
X4928571Y10971429D01*
X4976190Y10876191D01*
X4976190Y10638096D01*
X4928571Y10542858D01*
X4880952Y10495239D01*
X4785714Y10447620D01*
X4547619Y10447620D01*
X4452380Y10495239D01*
X4404761Y10542858D01*
X5261904Y11447620D02*
X5595238Y10447620D01*
X5928571Y11447620D01*
X7995238Y10928572D02*
X8757142Y10928572D01*
X8376190Y10547620D02*
X8376190Y11309524D01*
X9185714Y10833334D02*
X9661904Y10833334D01*
X9090476Y10547620D02*
X9423809Y11547620D01*
X9757142Y10547620D01*
X10042857Y11452381D02*
X10090476Y11500000D01*
X10185714Y11547620D01*
X10423809Y11547620D01*
X10519047Y11500000D01*
X10566666Y11452381D01*
X10614285Y11357143D01*
X10614285Y11261905D01*
X10566666Y11119048D01*
X9995238Y10547620D01*
X10614285Y10547620D01*
X11042857Y10928572D02*
X11804761Y10928572D01*
D10*
X69250000Y42661905D02*
X69202380Y42566667D01*
X69202380Y42423810D01*
X69250000Y42280953D01*
X69345238Y42185715D01*
X69440476Y42138096D01*
X69630952Y42090477D01*
X69773809Y42090477D01*
X69964285Y42138096D01*
X70059523Y42185715D01*
X70154761Y42280953D01*
X70202380Y42423810D01*
X70202380Y42519048D01*
X70154761Y42661905D01*
X70107142Y42709524D01*
X69773809Y42709524D01*
X69773809Y42519048D01*
D12*
X72923809Y10928572D02*
X73685714Y10928572D01*
X73304761Y10547620D02*
X73304761Y11309524D01*
X74161904Y10547620D02*
X74161904Y11547620D01*
X74400000Y11547620D01*
X74542857Y11500000D01*
X74638095Y11404762D01*
X74685714Y11309524D01*
X74733333Y11119048D01*
X74733333Y10976191D01*
X74685714Y10785715D01*
X74638095Y10690477D01*
X74542857Y10595239D01*
X74400000Y10547620D01*
X74161904Y10547620D01*
X75685714Y10547620D02*
X75114285Y10547620D01*
X75400000Y10547620D02*
X75400000Y11547620D01*
X75304761Y11404762D01*
X75209523Y11309524D01*
X75114285Y11261905D01*
X76114285Y10928572D02*
X76876190Y10928572D01*
X22461904Y11400000D02*
X22366666Y11447620D01*
X22223809Y11447620D01*
X22080952Y11400000D01*
X21985714Y11304762D01*
X21938095Y11209524D01*
X21890476Y11019048D01*
X21890476Y10876191D01*
X21938095Y10685715D01*
X21985714Y10590477D01*
X22080952Y10495239D01*
X22223809Y10447620D01*
X22319047Y10447620D01*
X22461904Y10495239D01*
X22509523Y10542858D01*
X22509523Y10876191D01*
X22319047Y10876191D01*
D10*
X69550000Y74211905D02*
X69502380Y74116667D01*
X69502380Y73973810D01*
X69550000Y73830953D01*
X69645238Y73735715D01*
X69740476Y73688096D01*
X69930952Y73640477D01*
X70073809Y73640477D01*
X70264285Y73688096D01*
X70359523Y73735715D01*
X70454761Y73830953D01*
X70502380Y73973810D01*
X70502380Y74069048D01*
X70454761Y74211905D01*
X70407142Y74259524D01*
X70073809Y74259524D01*
X70073809Y74069048D01*
D12*
X25447619Y10928572D02*
X26209523Y10928572D01*
X25828571Y10547620D02*
X25828571Y11309524D01*
X26638095Y10595239D02*
X26780952Y10547620D01*
X27019047Y10547620D01*
X27114285Y10595239D01*
X27161904Y10642858D01*
X27209523Y10738096D01*
X27209523Y10833334D01*
X27161904Y10928572D01*
X27114285Y10976191D01*
X27019047Y11023810D01*
X26828571Y11071429D01*
X26733333Y11119048D01*
X26685714Y11166667D01*
X26638095Y11261905D01*
X26638095Y11357143D01*
X26685714Y11452381D01*
X26733333Y11500000D01*
X26828571Y11547620D01*
X27066666Y11547620D01*
X27209523Y11500000D01*
X27590476Y11452381D02*
X27638095Y11500000D01*
X27733333Y11547620D01*
X27971428Y11547620D01*
X28066666Y11500000D01*
X28114285Y11452381D01*
X28161904Y11357143D01*
X28161904Y11261905D01*
X28114285Y11119048D01*
X27542857Y10547620D01*
X28161904Y10547620D01*
X28590476Y10928572D02*
X29352380Y10928572D01*
D10*
X69250000Y87338096D02*
X69202380Y87242858D01*
X69202380Y87100000D01*
X69250000Y86957143D01*
X69345238Y86861905D01*
X69440476Y86814286D01*
X69630952Y86766667D01*
X69773809Y86766667D01*
X69964285Y86814286D01*
X70059523Y86861905D01*
X70154761Y86957143D01*
X70202380Y87100000D01*
X70202380Y87195239D01*
X70154761Y87338096D01*
X70107142Y87385715D01*
X69773809Y87385715D01*
X69773809Y87195239D01*
X69821428Y90100000D02*
X69821428Y90861905D01*
X70202380Y91338096D02*
X69202380Y91338096D01*
X69916666Y91766667D02*
X69916666Y92242858D01*
X70202380Y91671429D02*
X69202380Y92004762D01*
X70202380Y92338096D01*
X69202380Y93147620D02*
X69202380Y92671429D01*
X69678571Y92623810D01*
X69630952Y92671429D01*
X69583333Y92766667D01*
X69583333Y93004762D01*
X69630952Y93100000D01*
X69678571Y93147620D01*
X69773809Y93195239D01*
X70011904Y93195239D01*
X70107142Y93147620D01*
X70154761Y93100000D01*
X70202380Y93004762D01*
X70202380Y92766667D01*
X70154761Y92671429D01*
X70107142Y92623810D01*
X69821428Y93623810D02*
X69821428Y94385715D01*
X70202380Y94004762D02*
X69440476Y94004762D01*
D13*
X1050000Y20100000D02*
X1050000Y19566667D01*
X783333Y19833334D02*
X1316666Y19833334D01*
X1483333Y18900000D02*
X1483333Y19233334D01*
X1150000Y19266667D01*
X1183333Y19233334D01*
X1216666Y19166667D01*
X1216666Y19000000D01*
X1183333Y18933334D01*
X1150000Y18900000D01*
X1083333Y18866667D01*
X916666Y18866667D01*
X850000Y18900000D01*
X816666Y18933334D01*
X783333Y19000000D01*
X783333Y19166667D01*
X816666Y19233334D01*
X850000Y19266667D01*
X1483333Y18666667D02*
X783333Y18433334D01*
X1483333Y18200000D01*
D10*
X69821428Y45935715D02*
X69821428Y46697620D01*
X70202380Y47173810D02*
X69202380Y47173810D01*
X70202380Y48173810D02*
X70202380Y47602381D01*
X70202380Y47888096D02*
X69202380Y47888096D01*
X69345238Y47792858D01*
X69440476Y47697620D01*
X69488095Y47602381D01*
X69821428Y48602381D02*
X69821428Y49364286D01*
X70202380Y48983334D02*
X69440476Y48983334D01*
X69250000Y53161905D02*
X69202380Y53066667D01*
X69202380Y52923810D01*
X69250000Y52780953D01*
X69345238Y52685715D01*
X69440476Y52638096D01*
X69630952Y52590477D01*
X69773809Y52590477D01*
X69964285Y52638096D01*
X70059523Y52685715D01*
X70154761Y52780953D01*
X70202380Y52923810D01*
X70202380Y53019048D01*
X70154761Y53161905D01*
X70107142Y53209524D01*
X69773809Y53209524D01*
X69773809Y53019048D01*
X69250000Y63661905D02*
X69202380Y63566667D01*
X69202380Y63423810D01*
X69250000Y63280953D01*
X69345238Y63185715D01*
X69440476Y63138096D01*
X69630952Y63090477D01*
X69773809Y63090477D01*
X69964285Y63138096D01*
X70059523Y63185715D01*
X70154761Y63280953D01*
X70202380Y63423810D01*
X70202380Y63519048D01*
X70154761Y63661905D01*
X70107142Y63709524D01*
X69773809Y63709524D01*
X69773809Y63519048D01*
D12*
X54123809Y10828572D02*
X54885714Y10828572D01*
X54504761Y10447620D02*
X54504761Y11209524D01*
X55695238Y10971429D02*
X55838095Y10923810D01*
X55885714Y10876191D01*
X55933333Y10780953D01*
X55933333Y10638096D01*
X55885714Y10542858D01*
X55838095Y10495239D01*
X55742857Y10447620D01*
X55361904Y10447620D01*
X55361904Y11447620D01*
X55695238Y11447620D01*
X55790476Y11400000D01*
X55838095Y11352381D01*
X55885714Y11257143D01*
X55885714Y11161905D01*
X55838095Y11066667D01*
X55790476Y11019048D01*
X55695238Y10971429D01*
X55361904Y10971429D01*
X56885714Y10447620D02*
X56314285Y10447620D01*
X56600000Y10447620D02*
X56600000Y11447620D01*
X56504761Y11304762D01*
X56409523Y11209524D01*
X56314285Y11161905D01*
X57314285Y10828572D02*
X58076190Y10828572D01*
D10*
X69821428Y66885715D02*
X69821428Y67647620D01*
X70202380Y68123810D02*
X69202380Y68123810D01*
X69202380Y68504762D02*
X69202380Y69123810D01*
X69583333Y68790477D01*
X69583333Y68933334D01*
X69630952Y69028572D01*
X69678571Y69076191D01*
X69773809Y69123810D01*
X70011904Y69123810D01*
X70107142Y69076191D01*
X70154761Y69028572D01*
X70202380Y68933334D01*
X70202380Y68647620D01*
X70154761Y68552381D01*
X70107142Y68504762D01*
X69821428Y69552381D02*
X69821428Y70314286D01*
X70202380Y69933334D02*
X69440476Y69933334D01*
D12*
X65847619Y10828572D02*
X66609523Y10828572D01*
X66228571Y10447620D02*
X66228571Y11209524D01*
X67038095Y10495239D02*
X67180952Y10447620D01*
X67419047Y10447620D01*
X67514285Y10495239D01*
X67561904Y10542858D01*
X67609523Y10638096D01*
X67609523Y10733334D01*
X67561904Y10828572D01*
X67514285Y10876191D01*
X67419047Y10923810D01*
X67228571Y10971429D01*
X67133333Y11019048D01*
X67085714Y11066667D01*
X67038095Y11161905D01*
X67038095Y11257143D01*
X67085714Y11352381D01*
X67133333Y11400000D01*
X67228571Y11447620D01*
X67466666Y11447620D01*
X67609523Y11400000D01*
X68561904Y10447620D02*
X67990476Y10447620D01*
X68276190Y10447620D02*
X68276190Y11447620D01*
X68180952Y11304762D01*
X68085714Y11209524D01*
X67990476Y11161905D01*
X68990476Y10828572D02*
X69752380Y10828572D01*
D10*
X57300000Y116621429D02*
X56538095Y116621429D01*
X55871428Y116002381D02*
X55680952Y116002381D01*
X55585714Y116050000D01*
X55490476Y116145239D01*
X55442857Y116335715D01*
X55442857Y116669048D01*
X55490476Y116859524D01*
X55585714Y116954762D01*
X55680952Y117002381D01*
X55871428Y117002381D01*
X55966666Y116954762D01*
X56061904Y116859524D01*
X56109523Y116669048D01*
X56109523Y116335715D01*
X56061904Y116145239D01*
X55966666Y116050000D01*
X55871428Y116002381D01*
X55061904Y116097620D02*
X55014285Y116050000D01*
X54919047Y116002381D01*
X54680952Y116002381D01*
X54585714Y116050000D01*
X54538095Y116097620D01*
X54490476Y116192858D01*
X54490476Y116288096D01*
X54538095Y116430953D01*
X55109523Y117002381D01*
X54490476Y117002381D01*
X54061904Y116621429D02*
X53300000Y116621429D01*
X53680952Y117002381D02*
X53680952Y116240477D01*
D14*
X11371428Y31414286D02*
X11371428Y30557143D01*
X11323809Y30461905D01*
X11228571Y30414286D01*
X11180952Y30414286D01*
X11371428Y31747620D02*
X11323809Y31700000D01*
X11371428Y31652381D01*
X11419047Y31700000D01*
X11371428Y31747620D01*
X11371428Y31652381D01*
X12276190Y30747620D02*
X12276190Y31271429D01*
X12228571Y31366667D01*
X12133333Y31414286D01*
X11942857Y31414286D01*
X11847619Y31366667D01*
X12276190Y30795239D02*
X12180952Y30747620D01*
X11942857Y30747620D01*
X11847619Y30795239D01*
X11800000Y30890477D01*
X11800000Y30985715D01*
X11847619Y31080953D01*
X11942857Y31128572D01*
X12180952Y31128572D01*
X12276190Y31176191D01*
X12752380Y30747620D02*
X12752380Y31414286D01*
X12752380Y31223810D02*
X12800000Y31319048D01*
X12847619Y31366667D01*
X12942857Y31414286D01*
X13038095Y31414286D01*
X13514285Y30747620D02*
X13419047Y30795239D01*
X13371428Y30842858D01*
X13323809Y30938096D01*
X13323809Y31223810D01*
X13371428Y31319048D01*
X13419047Y31366667D01*
X13514285Y31414286D01*
X13657142Y31414286D01*
X13752380Y31366667D01*
X13800000Y31319048D01*
X13847619Y31223810D01*
X13847619Y30938096D01*
X13800000Y30842858D01*
X13752380Y30795239D01*
X13657142Y30747620D01*
X13514285Y30747620D01*
X14228571Y30795239D02*
X14323809Y30747620D01*
X14514285Y30747620D01*
X14609523Y30795239D01*
X14657142Y30890477D01*
X14657142Y30938096D01*
X14609523Y31033334D01*
X14514285Y31080953D01*
X14371428Y31080953D01*
X14276190Y31128572D01*
X14228571Y31223810D01*
X14228571Y31271429D01*
X14276190Y31366667D01*
X14371428Y31414286D01*
X14514285Y31414286D01*
X14609523Y31366667D01*
X15228571Y30747620D02*
X15133333Y30795239D01*
X15085714Y30890477D01*
X15085714Y31747620D01*
X16038095Y30747620D02*
X16038095Y31271429D01*
X15990476Y31366667D01*
X15895238Y31414286D01*
X15704761Y31414286D01*
X15609523Y31366667D01*
X16038095Y30795239D02*
X15942857Y30747620D01*
X15704761Y30747620D01*
X15609523Y30795239D01*
X15561904Y30890477D01*
X15561904Y30985715D01*
X15609523Y31080953D01*
X15704761Y31128572D01*
X15942857Y31128572D01*
X16038095Y31176191D01*
X16419047Y31414286D02*
X16609523Y30747620D01*
X16800000Y31223810D01*
X16990476Y30747620D01*
X17180952Y31414286D01*
X17561904Y30842858D02*
X17609523Y30795239D01*
X17561904Y30747620D01*
X17514285Y30795239D01*
X17561904Y30842858D01*
X17561904Y30747620D01*
X18038095Y30747620D02*
X18038095Y31747620D01*
X18133333Y31128572D02*
X18419047Y30747620D01*
X18419047Y31414286D02*
X18038095Y31033334D01*
X19276190Y30747620D02*
X19276190Y31271429D01*
X19228571Y31366667D01*
X19133333Y31414286D01*
X18942857Y31414286D01*
X18847619Y31366667D01*
X19276190Y30795239D02*
X19180952Y30747620D01*
X18942857Y30747620D01*
X18847619Y30795239D01*
X18800000Y30890477D01*
X18800000Y30985715D01*
X18847619Y31080953D01*
X18942857Y31128572D01*
X19180952Y31128572D01*
X19276190Y31176191D01*
X19752380Y30747620D02*
X19752380Y31414286D01*
X19752380Y31223810D02*
X19800000Y31319048D01*
X19847619Y31366667D01*
X19942857Y31414286D01*
X20038095Y31414286D01*
X20276190Y31414286D02*
X20466666Y30747620D01*
X20657142Y31223810D01*
X20847619Y30747620D01*
X21038095Y31414286D01*
X21419047Y30747620D02*
X21419047Y31414286D01*
X21419047Y31747620D02*
X21371428Y31700000D01*
X21419047Y31652381D01*
X21466666Y31700000D01*
X21419047Y31747620D01*
X21419047Y31652381D01*
X21895238Y30747620D02*
X21895238Y31747620D01*
X21990476Y31128572D02*
X22276190Y30747620D01*
X22276190Y31414286D02*
X21895238Y31033334D01*
X23323809Y31223810D02*
X23276190Y31271429D01*
X23180952Y31319048D01*
X23085714Y31319048D01*
X22990476Y31271429D01*
X22942857Y31223810D01*
X22895238Y31128572D01*
X22895238Y31033334D01*
X22942857Y30938096D01*
X22990476Y30890477D01*
X23085714Y30842858D01*
X23180952Y30842858D01*
X23276190Y30890477D01*
X23323809Y30938096D01*
X23323809Y31319048D02*
X23323809Y30938096D01*
X23371428Y30890477D01*
X23419047Y30890477D01*
X23514285Y30938096D01*
X23561904Y31033334D01*
X23561904Y31271429D01*
X23466666Y31414286D01*
X23323809Y31509524D01*
X23133333Y31557143D01*
X22942857Y31509524D01*
X22800000Y31414286D01*
X22704761Y31271429D01*
X22657142Y31080953D01*
X22704761Y30890477D01*
X22800000Y30747620D01*
X22942857Y30652381D01*
X23133333Y30604762D01*
X23323809Y30652381D01*
X23466666Y30747620D01*
X24419047Y31414286D02*
X24419047Y30604762D01*
X24371428Y30509524D01*
X24323809Y30461905D01*
X24228571Y30414286D01*
X24085714Y30414286D01*
X23990476Y30461905D01*
X24419047Y30795239D02*
X24323809Y30747620D01*
X24133333Y30747620D01*
X24038095Y30795239D01*
X23990476Y30842858D01*
X23942857Y30938096D01*
X23942857Y31223810D01*
X23990476Y31319048D01*
X24038095Y31366667D01*
X24133333Y31414286D01*
X24323809Y31414286D01*
X24419047Y31366667D01*
X24895238Y30747620D02*
X24895238Y31414286D01*
X24895238Y31319048D02*
X24942857Y31366667D01*
X25038095Y31414286D01*
X25180952Y31414286D01*
X25276190Y31366667D01*
X25323809Y31271429D01*
X25323809Y30747620D01*
X25323809Y31271429D02*
X25371428Y31366667D01*
X25466666Y31414286D01*
X25609523Y31414286D01*
X25704761Y31366667D01*
X25752380Y31271429D01*
X25752380Y30747620D01*
X26657142Y30747620D02*
X26657142Y31271429D01*
X26609523Y31366667D01*
X26514285Y31414286D01*
X26323809Y31414286D01*
X26228571Y31366667D01*
X26657142Y30795239D02*
X26561904Y30747620D01*
X26323809Y30747620D01*
X26228571Y30795239D01*
X26180952Y30890477D01*
X26180952Y30985715D01*
X26228571Y31080953D01*
X26323809Y31128572D01*
X26561904Y31128572D01*
X26657142Y31176191D01*
X27133333Y30747620D02*
X27133333Y31414286D01*
X27133333Y31747620D02*
X27085714Y31700000D01*
X27133333Y31652381D01*
X27180952Y31700000D01*
X27133333Y31747620D01*
X27133333Y31652381D01*
X27752380Y30747620D02*
X27657142Y30795239D01*
X27609523Y30890477D01*
X27609523Y31747620D01*
X28133333Y30842858D02*
X28180952Y30795239D01*
X28133333Y30747620D01*
X28085714Y30795239D01*
X28133333Y30842858D01*
X28133333Y30747620D01*
X29038095Y30795239D02*
X28942857Y30747620D01*
X28752380Y30747620D01*
X28657142Y30795239D01*
X28609523Y30842858D01*
X28561904Y30938096D01*
X28561904Y31223810D01*
X28609523Y31319048D01*
X28657142Y31366667D01*
X28752380Y31414286D01*
X28942857Y31414286D01*
X29038095Y31366667D01*
X29609523Y30747620D02*
X29514285Y30795239D01*
X29466666Y30842858D01*
X29419047Y30938096D01*
X29419047Y31223810D01*
X29466666Y31319048D01*
X29514285Y31366667D01*
X29609523Y31414286D01*
X29752380Y31414286D01*
X29847619Y31366667D01*
X29895238Y31319048D01*
X29942857Y31223810D01*
X29942857Y30938096D01*
X29895238Y30842858D01*
X29847619Y30795239D01*
X29752380Y30747620D01*
X29609523Y30747620D01*
X30371428Y30747620D02*
X30371428Y31414286D01*
X30371428Y31319048D02*
X30419047Y31366667D01*
X30514285Y31414286D01*
X30657142Y31414286D01*
X30752380Y31366667D01*
X30800000Y31271429D01*
X30800000Y30747620D01*
X30800000Y31271429D02*
X30847619Y31366667D01*
X30942857Y31414286D01*
X31085714Y31414286D01*
X31180952Y31366667D01*
X31228571Y31271429D01*
X31228571Y30747620D01*
D15*
X23250000Y46800000D02*
X26550000Y46800000D01*
X23250000Y44000000D02*
X26550000Y44000000D01*
X26550000Y44000000D02*
X26550000Y44300000D01*
X23250000Y44300000D02*
X23250000Y44000000D01*
X23250000Y46500000D02*
X23250000Y46800000D01*
X26550000Y46800000D02*
X26550000Y46500000D01*
X23250000Y50800000D02*
X26550000Y50800000D01*
X23250000Y53600000D02*
X26550000Y53600000D01*
X26550000Y50800000D02*
X26550000Y51100000D01*
X26550000Y53600000D02*
X26550000Y53300000D01*
X23250000Y51100000D02*
X23250000Y50800000D01*
X23250000Y53300000D02*
X23250000Y53600000D01*
X46910000Y51840580D02*
X46910000Y51559420D01*
X45890000Y51840580D02*
X45890000Y51559420D01*
X62637221Y94210000D02*
X62962779Y94210000D01*
X62637221Y93190000D02*
X62962779Y93190000D01*
X63537221Y107990000D02*
X63862779Y107990000D01*
X63537221Y109010000D02*
X63862779Y109010000D01*
X62637221Y89410000D02*
X62962779Y89410000D01*
X62637221Y88390000D02*
X62962779Y88390000D01*
X67962779Y107990000D02*
X67637221Y107990000D01*
X67962779Y109010000D02*
X67637221Y109010000D01*
X62962779Y95390000D02*
X62637221Y95390000D01*
X62962779Y96410000D02*
X62637221Y96410000D01*
X66937221Y88390000D02*
X67262779Y88390000D01*
X66937221Y89410000D02*
X67262779Y89410000D01*
X67262779Y96410000D02*
X66937221Y96410000D01*
X67262779Y95390000D02*
X66937221Y95390000D01*
X47390000Y51862779D02*
X47390000Y51537221D01*
X48410000Y51862779D02*
X48410000Y51537221D01*
X34210000Y75337221D02*
X34210000Y75662779D01*
X33190000Y75337221D02*
X33190000Y75662779D01*
X20237221Y62810000D02*
X20562779Y62810000D01*
X20237221Y61790000D02*
X20562779Y61790000D01*
X16315000Y60260000D02*
X16315000Y58340000D01*
X19000000Y60260000D02*
X16315000Y60260000D01*
X16315000Y58340000D02*
X19000000Y58340000D01*
X35790000Y51862779D02*
X35790000Y51537221D01*
X36810000Y51862779D02*
X36810000Y51537221D01*
X28962779Y57810000D02*
X28637221Y57810000D01*
X28962779Y56790000D02*
X28637221Y56790000D01*
X35810000Y75359420D02*
X35810000Y75640580D01*
X34790000Y75359420D02*
X34790000Y75640580D01*
X33790000Y51875279D02*
X33790000Y51549721D01*
X34810000Y51875279D02*
X34810000Y51549721D01*
X52659420Y68190000D02*
X52940580Y68190000D01*
X52659420Y69210000D02*
X52940580Y69210000D01*
X52659420Y70860000D02*
X52940580Y70860000D01*
X52659420Y69840000D02*
X52940580Y69840000D01*
X52637221Y71490000D02*
X52962779Y71490000D01*
X52637221Y72510000D02*
X52962779Y72510000D01*
X11990000Y37962779D02*
X11990000Y37637221D01*
X13010000Y37962779D02*
X13010000Y37637221D01*
X63590000Y46362779D02*
X63590000Y46037221D01*
X64610000Y46362779D02*
X64610000Y46037221D01*
X53062779Y39410000D02*
X52737221Y39410000D01*
X53062779Y38390000D02*
X52737221Y38390000D01*
X35150279Y47990000D02*
X34824721Y47990000D01*
X35150279Y49010000D02*
X34824721Y49010000D01*
X8837221Y19590000D02*
X9162779Y19590000D01*
X8837221Y20610000D02*
X9162779Y20610000D01*
X26062779Y48690000D02*
X25737221Y48690000D01*
X26062779Y49710000D02*
X25737221Y49710000D01*
X52390000Y15937221D02*
X52390000Y16262779D01*
X53410000Y15937221D02*
X53410000Y16262779D01*
D16*
X19074800Y48745000D02*
X18008000Y48745000D01*
X16992000Y48745000D02*
X15925200Y48745000D01*
X15925200Y39855000D02*
X19074800Y39855000D01*
X18008000Y48745000D02*
X16992000Y48745000D01*
X16308740Y48366540D02*
G75*
G03*
X15925200Y48745000I-381000J-2540D01*
G01*
X18691260Y48366540D02*
G75*
G02*
X19074800Y48745000I381000J-2540D01*
G01*
X16992000Y48745000D02*
G75*
G02*
X18008000Y48745000I508000J0D01*
G01*
D15*
X49137221Y13810000D02*
X49462779Y13810000D01*
X49137221Y12790000D02*
X49462779Y12790000D01*
X10100000Y48680000D02*
X11100000Y48680000D01*
X10100000Y45320000D02*
X11100000Y45320000D01*
X28000000Y68780000D02*
X29000000Y68780000D01*
X28000000Y65420000D02*
X29000000Y65420000D01*
X40580000Y84000000D02*
X40580000Y83000000D01*
X37220000Y84000000D02*
X37220000Y83000000D01*
X48900000Y36020000D02*
X49900000Y36020000D01*
X48900000Y39380000D02*
X49900000Y39380000D01*
X22700000Y58980000D02*
X21700000Y58980000D01*
X22700000Y55620000D02*
X21700000Y55620000D01*
X57737221Y13610000D02*
X58062779Y13610000D01*
X57737221Y12590000D02*
X58062779Y12590000D01*
X10100000Y40420000D02*
X11100000Y40420000D01*
X10100000Y43780000D02*
X11100000Y43780000D01*
X10310000Y37962779D02*
X10310000Y37637221D01*
X9290000Y37962779D02*
X9290000Y37637221D01*
X67975279Y106410000D02*
X67649721Y106410000D01*
X67975279Y105390000D02*
X67649721Y105390000D01*
X17110000Y63962779D02*
X17110000Y63637221D01*
X16090000Y63962779D02*
X16090000Y63637221D01*
X22100000Y68860000D02*
X20150000Y68860000D01*
X22100000Y68860000D02*
X24050000Y68860000D01*
X22100000Y63740000D02*
X25550000Y63740000D01*
X22100000Y63740000D02*
X20150000Y63740000D01*
X38637221Y49010000D02*
X38962779Y49010000D01*
X38637221Y47990000D02*
X38962779Y47990000D01*
X42775279Y49010000D02*
X42449721Y49010000D01*
X42775279Y47990000D02*
X42449721Y47990000D01*
X24500000Y83360000D02*
X26450000Y83360000D01*
X24500000Y78240000D02*
X22550000Y78240000D01*
X24500000Y78240000D02*
X27950000Y78240000D01*
X24500000Y83360000D02*
X22550000Y83360000D01*
X62962779Y90890000D02*
X62637221Y90890000D01*
X62962779Y91910000D02*
X62637221Y91910000D01*
X67337221Y46490000D02*
X67662779Y46490000D01*
X67337221Y47510000D02*
X67662779Y47510000D01*
X60890000Y15824721D02*
X60890000Y16150279D01*
X61910000Y15824721D02*
X61910000Y16150279D01*
X67650279Y43290000D02*
X67324721Y43290000D01*
X67650279Y44310000D02*
X67324721Y44310000D01*
D12*
X57700000Y92250000D02*
X59700000Y92250000D01*
X59700000Y92500000D02*
X59450000Y92750000D01*
X59800000Y93800000D02*
X59100000Y93800000D01*
X59700000Y92750000D02*
X57700000Y92750000D01*
X59700000Y92250000D02*
X59700000Y92750000D01*
X57700000Y92750000D02*
X57700000Y92250000D01*
D15*
X2170000Y-580000D02*
X38730000Y-580000D01*
X30250000Y8780000D02*
X31650000Y8780000D01*
X16250000Y8780000D02*
X17650000Y8780000D01*
X19750000Y8780000D02*
X21150000Y8780000D01*
X2170000Y8780000D02*
X2170000Y-580000D01*
X26750000Y8780000D02*
X28150000Y8780000D01*
X2170000Y8780000D02*
X3650000Y8780000D01*
X9250000Y8780000D02*
X10650000Y8780000D01*
X5750000Y8780000D02*
X7150000Y8780000D01*
X23250000Y8780000D02*
X24650000Y8780000D01*
X5000000Y10100000D02*
X4700000Y9500000D01*
X38730000Y-580000D02*
X38730000Y8780000D01*
X38730000Y8780000D02*
X37250000Y8780000D01*
X33750000Y8780000D02*
X35150000Y8780000D01*
X4400000Y10100000D02*
X5000000Y10100000D01*
X4700000Y9500000D02*
X4400000Y10100000D01*
X2170000Y2700000D02*
X38730000Y2700000D01*
X12750000Y8780000D02*
X14150000Y8780000D01*
X66937221Y93190000D02*
X67262779Y93190000D01*
X66937221Y94210000D02*
X67262779Y94210000D01*
X67262779Y91910000D02*
X66937221Y91910000D01*
X67262779Y90890000D02*
X66937221Y90890000D01*
X67337221Y49390000D02*
X67662779Y49390000D01*
X67337221Y50410000D02*
X67662779Y50410000D01*
D12*
X59650000Y108100000D02*
X60150000Y108100000D01*
X60150000Y110100000D02*
X59650000Y110100000D01*
X59650000Y110100000D02*
X59650000Y108100000D01*
X61200000Y108000000D02*
X61200000Y108700000D01*
X60150000Y108100000D02*
X60150000Y110100000D01*
X59900000Y108100000D02*
X60150000Y108350000D01*
D15*
X63762779Y106310000D02*
X63437221Y106310000D01*
X63762779Y105290000D02*
X63437221Y105290000D01*
D17*
X43200000Y49600000D02*
X38200000Y49600000D01*
X38200000Y53000000D02*
X43200000Y53000000D01*
D15*
X10300000Y83400000D02*
X10800000Y83900000D01*
X9800000Y83900000D02*
X10300000Y83400000D01*
X14180000Y67695000D02*
X14180000Y83215000D01*
X14180000Y67695000D02*
X-3780000Y67695000D01*
X-3780000Y83215000D02*
X-3780000Y67695000D01*
X10800000Y83900000D02*
X9800000Y83900000D01*
X14180000Y83215000D02*
X-3780000Y83215000D01*
X81180000Y76530000D02*
X71820000Y76530000D01*
X71820000Y43550000D02*
X71820000Y44950000D01*
X71100000Y42500000D02*
X70500000Y42200000D01*
X81180000Y39970000D02*
X81180000Y76530000D01*
X71820000Y39970000D02*
X71820000Y41450000D01*
X70500000Y42200000D02*
X70500000Y42800000D01*
X71820000Y71550000D02*
X71820000Y72950000D01*
X71820000Y47050000D02*
X71820000Y48450000D01*
X71820000Y68050000D02*
X71820000Y69450000D01*
X71820000Y54050000D02*
X71820000Y55450000D01*
X71820000Y76530000D02*
X71820000Y75050000D01*
X71820000Y57550000D02*
X71820000Y58950000D01*
X71820000Y61050000D02*
X71820000Y62450000D01*
X71820000Y39970000D02*
X81180000Y39970000D01*
X77900000Y39970000D02*
X77900000Y76530000D01*
X70500000Y42800000D02*
X71100000Y42500000D01*
X71820000Y50550000D02*
X71820000Y51950000D01*
X71820000Y64550000D02*
X71820000Y65950000D01*
X51960000Y18300000D02*
X51960000Y21750000D01*
X46840000Y18300000D02*
X46840000Y16350000D01*
X51960000Y18300000D02*
X51960000Y16350000D01*
X46840000Y18300000D02*
X46840000Y20250000D01*
X60360000Y18200000D02*
X60360000Y21650000D01*
X60360000Y18200000D02*
X60360000Y16250000D01*
X55240000Y18200000D02*
X55240000Y20150000D01*
X55240000Y18200000D02*
X55240000Y16250000D01*
X38762779Y11810000D02*
X38437221Y11810000D01*
X38762779Y10790000D02*
X38437221Y10790000D01*
X450000Y105300000D02*
X450000Y113700000D01*
X6950000Y105300000D02*
X6950000Y113700000D01*
X6950000Y105300000D02*
X450000Y105300000D01*
D11*
X20175000Y96900000D02*
X20225000Y96900000D01*
X20225000Y95300000D02*
X20175000Y95300000D01*
X20225000Y96900000D02*
X20225000Y95300000D01*
X21425000Y95100000D02*
X20575000Y95100000D01*
X20175000Y95300000D02*
X20175000Y96900000D01*
D15*
X17790000Y81937221D02*
X17790000Y82262779D01*
X18810000Y81937221D02*
X18810000Y82262779D01*
X2170000Y45850000D02*
X4770000Y45850000D01*
X4770000Y48450000D02*
X7370000Y48450000D01*
X4770000Y45850000D02*
X4770000Y48450000D01*
X2170000Y48450000D02*
X3500000Y48450000D01*
X2170000Y12770000D02*
X7370000Y12770000D01*
X2170000Y45850000D02*
X2170000Y12770000D01*
X7370000Y48450000D02*
X7370000Y12770000D01*
X2170000Y47120000D02*
X2170000Y48450000D01*
X67262779Y79110000D02*
X66937221Y79110000D01*
X67262779Y78090000D02*
X66937221Y78090000D01*
X65762779Y114910000D02*
X65437221Y114910000D01*
X65762779Y113890000D02*
X65437221Y113890000D01*
X29288748Y105160000D02*
X30711252Y105160000D01*
X29288748Y102440000D02*
X30711252Y102440000D01*
X17600000Y68050000D02*
X17600000Y66650000D01*
X16900000Y65950000D02*
X16300000Y65950000D01*
X16300000Y68750000D02*
X16900000Y68750000D01*
X15600000Y66650000D02*
X15600000Y68050000D01*
X17600000Y66650000D02*
G75*
G02*
X16900000Y65950000I-700000J0D01*
G01*
X16900000Y68750000D02*
G75*
G02*
X17600000Y68050000I0J-700000D01*
G01*
X15600000Y68050000D02*
G75*
G02*
X16300000Y68750000I700000J0D01*
G01*
X16300000Y65950000D02*
G75*
G02*
X15600000Y66650000I0J700000D01*
G01*
X60190000Y45437221D02*
X60190000Y45762779D01*
X61210000Y45437221D02*
X61210000Y45762779D01*
D11*
X15550000Y112450000D02*
X15550000Y108950000D01*
X9050000Y112450000D02*
X15550000Y112450000D01*
X15400000Y114700000D02*
X15400000Y113200000D01*
X15550000Y108950000D02*
X9050000Y108950000D01*
X9050000Y108950000D02*
X9050000Y112450000D01*
D15*
X22137221Y85710000D02*
X22462779Y85710000D01*
X22137221Y84690000D02*
X22462779Y84690000D01*
D11*
X25250000Y108950000D02*
X25250000Y112450000D01*
X31750000Y112450000D02*
X31750000Y108950000D01*
X31600000Y114700000D02*
X31600000Y113200000D01*
X25250000Y112450000D02*
X31750000Y112450000D01*
X31750000Y108950000D02*
X25250000Y108950000D01*
D15*
X52320000Y74245000D02*
X54980000Y74245000D01*
X52320000Y88275000D02*
X52320000Y89605000D01*
X54980000Y87005000D02*
X54980000Y74245000D01*
X52320000Y89605000D02*
X53650000Y89605000D01*
X52320000Y87005000D02*
X52320000Y74245000D01*
X52320000Y87005000D02*
X54980000Y87005000D01*
X67962779Y111710000D02*
X67637221Y111710000D01*
X67962779Y110690000D02*
X67637221Y110690000D01*
X49990000Y31859420D02*
X49990000Y32140580D01*
X51010000Y31859420D02*
X51010000Y32140580D01*
D11*
X23600000Y114700000D02*
X23600000Y113200000D01*
X17250000Y112450000D02*
X23750000Y112450000D01*
X23750000Y108950000D02*
X17250000Y108950000D01*
X17250000Y108950000D02*
X17250000Y112450000D01*
X23750000Y112450000D02*
X23750000Y108950000D01*
D15*
X59090000Y24062779D02*
X59090000Y23737221D01*
X60110000Y24062779D02*
X60110000Y23737221D01*
X55850000Y118620000D02*
X54450000Y118620000D01*
X77900000Y117900000D02*
X78200000Y117300000D01*
X80430000Y118620000D02*
X78950000Y118620000D01*
X80430000Y118620000D02*
X80430000Y127980000D01*
X59350000Y118620000D02*
X57950000Y118620000D01*
X52350000Y118620000D02*
X50950000Y118620000D01*
X77600000Y117300000D02*
X77900000Y117900000D01*
X43870000Y118620000D02*
X45350000Y118620000D01*
X66350000Y118620000D02*
X64950000Y118620000D01*
X69850000Y118620000D02*
X68450000Y118620000D01*
X73350000Y118620000D02*
X71950000Y118620000D01*
X62850000Y118620000D02*
X61450000Y118620000D01*
X43870000Y127980000D02*
X43870000Y118620000D01*
X80430000Y127980000D02*
X43870000Y127980000D01*
X76850000Y118620000D02*
X75450000Y118620000D01*
X48850000Y118620000D02*
X47450000Y118620000D01*
X78200000Y117300000D02*
X77600000Y117300000D01*
X80430000Y124700000D02*
X43870000Y124700000D01*
X66937221Y66210000D02*
X67262779Y66210000D01*
X66937221Y65190000D02*
X67262779Y65190000D01*
X27940000Y19300000D02*
X27940000Y21250000D01*
X33060000Y19300000D02*
X33060000Y17350000D01*
X33060000Y19300000D02*
X33060000Y22750000D01*
X27940000Y19300000D02*
X27940000Y17350000D01*
X61290000Y30337221D02*
X61290000Y30662779D01*
X62310000Y30337221D02*
X62310000Y30662779D01*
X63462779Y65190000D02*
X63137221Y65190000D01*
X63462779Y66210000D02*
X63137221Y66210000D01*
X74800000Y14920000D02*
X73800000Y14920000D01*
X74800000Y18280000D02*
X73800000Y18280000D01*
X63862779Y111710000D02*
X63537221Y111710000D01*
X63862779Y110690000D02*
X63537221Y110690000D01*
D11*
X39750000Y108950000D02*
X33250000Y108950000D01*
X39600000Y114700000D02*
X39600000Y113200000D01*
X33250000Y112450000D02*
X39750000Y112450000D01*
X33250000Y108950000D02*
X33250000Y112450000D01*
X39750000Y112450000D02*
X39750000Y108950000D01*
X55950000Y112450000D02*
X55950000Y108950000D01*
X55800000Y114700000D02*
X55800000Y113200000D01*
X55950000Y108950000D02*
X49450000Y108950000D01*
X49450000Y108950000D02*
X49450000Y112450000D01*
X49450000Y112450000D02*
X55950000Y112450000D01*
D15*
X38437221Y37710000D02*
X38762779Y37710000D01*
X38437221Y36690000D02*
X38762779Y36690000D01*
X19962779Y49590000D02*
X19637221Y49590000D01*
X19962779Y50610000D02*
X19637221Y50610000D01*
X19700000Y93780000D02*
X20700000Y93780000D01*
X19700000Y90420000D02*
X20700000Y90420000D01*
X19000000Y56160000D02*
X16315000Y56160000D01*
X16315000Y56160000D02*
X16315000Y54240000D01*
X16315000Y54240000D02*
X19000000Y54240000D01*
X470000Y118620000D02*
X1950000Y118620000D01*
X470000Y127980000D02*
X470000Y118620000D01*
X22950000Y118620000D02*
X21550000Y118620000D01*
X37030000Y124700000D02*
X470000Y124700000D01*
X26450000Y118620000D02*
X25050000Y118620000D01*
X15950000Y118620000D02*
X14550000Y118620000D01*
X19450000Y118620000D02*
X18050000Y118620000D01*
X8950000Y118620000D02*
X7550000Y118620000D01*
X33450000Y118620000D02*
X32050000Y118620000D01*
X29950000Y118620000D02*
X28550000Y118620000D01*
X34500000Y117900000D02*
X34800000Y117300000D01*
X34200000Y117300000D02*
X34500000Y117900000D01*
X37030000Y127980000D02*
X470000Y127980000D01*
X37030000Y118620000D02*
X37030000Y127980000D01*
X37030000Y118620000D02*
X35550000Y118620000D01*
X5450000Y118620000D02*
X4050000Y118620000D01*
X12450000Y118620000D02*
X11050000Y118620000D01*
X34800000Y117300000D02*
X34200000Y117300000D01*
D12*
X15200000Y22500000D02*
X15200000Y21800000D01*
X16250000Y20400000D02*
X16750000Y20400000D01*
X16250000Y22400000D02*
X16250000Y20400000D01*
X16500000Y22400000D02*
X16250000Y22150000D01*
X16750000Y20400000D02*
X16750000Y22400000D01*
X16750000Y22400000D02*
X16250000Y22400000D01*
D15*
X64410000Y56662779D02*
X64410000Y56337221D01*
X63390000Y56662779D02*
X63390000Y56337221D01*
X79130000Y8780000D02*
X77650000Y8780000D01*
X42570000Y8780000D02*
X42570000Y-580000D01*
X45100000Y9500000D02*
X44800000Y10100000D01*
X45400000Y10100000D02*
X45100000Y9500000D01*
X79130000Y-580000D02*
X79130000Y8780000D01*
X49650000Y8780000D02*
X51050000Y8780000D01*
X70650000Y8780000D02*
X72050000Y8780000D01*
X60150000Y8780000D02*
X61550000Y8780000D01*
X53150000Y8780000D02*
X54550000Y8780000D01*
X63650000Y8780000D02*
X65050000Y8780000D01*
X44800000Y10100000D02*
X45400000Y10100000D01*
X42570000Y-580000D02*
X79130000Y-580000D01*
X74150000Y8780000D02*
X75550000Y8780000D01*
X42570000Y8780000D02*
X44050000Y8780000D01*
X42570000Y2700000D02*
X79130000Y2700000D01*
X46150000Y8780000D02*
X47550000Y8780000D01*
X56650000Y8780000D02*
X58050000Y8780000D01*
X67150000Y8780000D02*
X68550000Y8780000D01*
X58310000Y45437221D02*
X58310000Y45762779D01*
X57290000Y45437221D02*
X57290000Y45762779D01*
X42690000Y93688748D02*
X42690000Y95111252D01*
X45410000Y93688748D02*
X45410000Y95111252D01*
X71820000Y84450000D02*
X71820000Y85850000D01*
X71100000Y79900000D02*
X70500000Y79600000D01*
X77900000Y77370000D02*
X77900000Y113930000D01*
X71820000Y87950000D02*
X71820000Y89350000D01*
X71820000Y77370000D02*
X71820000Y78850000D01*
X71820000Y108950000D02*
X71820000Y110350000D01*
X81180000Y77370000D02*
X81180000Y113930000D01*
X71820000Y77370000D02*
X81180000Y77370000D01*
X71820000Y91450000D02*
X71820000Y92850000D01*
X70500000Y80200000D02*
X71100000Y79900000D01*
X71820000Y80950000D02*
X71820000Y82350000D01*
X71820000Y113930000D02*
X71820000Y112450000D01*
X81180000Y113930000D02*
X71820000Y113930000D01*
X71820000Y98450000D02*
X71820000Y99850000D01*
X70500000Y79600000D02*
X70500000Y80200000D01*
X71820000Y101950000D02*
X71820000Y103350000D01*
X71820000Y94950000D02*
X71820000Y96350000D01*
X71820000Y105450000D02*
X71820000Y106850000D01*
X45800000Y74420000D02*
X44800000Y74420000D01*
X45800000Y77780000D02*
X44800000Y77780000D01*
X29137221Y12890000D02*
X29462779Y12890000D01*
X29137221Y13910000D02*
X29462779Y13910000D01*
X66937221Y80690000D02*
X67262779Y80690000D01*
X66937221Y81710000D02*
X67262779Y81710000D01*
D18*
X33200000Y100250000D02*
X33200000Y96250000D01*
X29200000Y100250000D02*
X33200000Y100250000D01*
X33200000Y96250000D02*
X29200000Y96250000D01*
X29200000Y96250000D02*
X29200000Y100250000D01*
X32700000Y100250000D02*
X33200000Y99750000D01*
D10*
X33075000Y100650000D02*
G75*
G03*
X33075000Y100650000I-125000J0D01*
G01*
D17*
X52312500Y34850000D02*
X57312500Y34850000D01*
X57312500Y31450000D02*
X52312500Y31450000D01*
D15*
X63900000Y20800000D02*
X63900000Y37400000D01*
X85300000Y20800000D02*
X85300000Y37400000D01*
X85300000Y37400000D02*
X72900000Y37400000D01*
X63900000Y37400000D02*
X70100000Y37400000D01*
X63900000Y20800000D02*
X69900000Y20800000D01*
X68100000Y20600000D02*
X67600000Y20100000D01*
X67600000Y20100000D02*
X68600000Y20100000D01*
X85300000Y20800000D02*
X72900000Y20800000D01*
X68600000Y20100000D02*
X68100000Y20600000D01*
X45950000Y34080000D02*
X46950000Y34080000D01*
X45950000Y30720000D02*
X46950000Y30720000D01*
X57362779Y30810000D02*
X57037221Y30810000D01*
X57362779Y29790000D02*
X57037221Y29790000D01*
X62310000Y27362779D02*
X62310000Y27037221D01*
X61290000Y27362779D02*
X61290000Y27037221D01*
X59090000Y27037221D02*
X59090000Y27362779D01*
X60110000Y27037221D02*
X60110000Y27362779D01*
X17820000Y95000000D02*
X17820000Y96000000D01*
X17320000Y95500000D02*
X17820000Y95000000D01*
X8740000Y90590000D02*
X380000Y90590000D01*
X380000Y90590000D02*
X380000Y102910000D01*
X17100000Y102910000D02*
X12840000Y102910000D01*
X17820000Y96000000D02*
X17320000Y95500000D01*
X12840000Y90590000D02*
X17100000Y90590000D01*
X17100000Y90590000D02*
X17100000Y102910000D01*
X380000Y102910000D02*
X8740000Y102910000D01*
X11462742Y87922500D02*
X11937258Y87922500D01*
X11462742Y86877500D02*
X11937258Y86877500D01*
X27610000Y99562779D02*
X27610000Y99237221D01*
X26590000Y99562779D02*
X26590000Y99237221D01*
X53062779Y36510000D02*
X52737221Y36510000D01*
X53062779Y35490000D02*
X52737221Y35490000D01*
D12*
X66150000Y54200000D02*
X65650000Y54200000D01*
X65650000Y54200000D02*
X65650000Y52200000D01*
X67200000Y52100000D02*
X67200000Y52800000D01*
X65900000Y52200000D02*
X66150000Y52450000D01*
X65650000Y52200000D02*
X66150000Y52200000D01*
X66150000Y52200000D02*
X66150000Y54200000D01*
D15*
X34670000Y86670000D02*
X34670000Y88000000D01*
X37270000Y86670000D02*
X37270000Y89330000D01*
X37270000Y86670000D02*
X44950000Y86670000D01*
X36000000Y86670000D02*
X34670000Y86670000D01*
X37270000Y89330000D02*
X44950000Y89330000D01*
X44950000Y86670000D02*
X44950000Y89330000D01*
X9937221Y11790000D02*
X10262779Y11790000D01*
X9937221Y12810000D02*
X10262779Y12810000D01*
X62810000Y20562779D02*
X62810000Y20237221D01*
X61790000Y20562779D02*
X61790000Y20237221D01*
D11*
X47950000Y112450000D02*
X47950000Y108950000D01*
X47950000Y108950000D02*
X41450000Y108950000D01*
X47800000Y114700000D02*
X47800000Y113200000D01*
X41450000Y108950000D02*
X41450000Y112450000D01*
X41450000Y112450000D02*
X47950000Y112450000D01*
D15*
X47737221Y26765000D02*
X48062779Y26765000D01*
X47737221Y27785000D02*
X48062779Y27785000D01*
X19324721Y12710000D02*
X19650279Y12710000D01*
X19324721Y11690000D02*
X19650279Y11690000D01*
X61437221Y114910000D02*
X61762779Y114910000D01*
X61437221Y113890000D02*
X61762779Y113890000D01*
X10300000Y65600000D02*
X10800000Y66100000D01*
X14180000Y49895000D02*
X14180000Y65415000D01*
X14180000Y49895000D02*
X-3780000Y49895000D01*
X14180000Y65415000D02*
X-3780000Y65415000D01*
X10800000Y66100000D02*
X9800000Y66100000D01*
X-3780000Y65415000D02*
X-3780000Y49895000D01*
X9800000Y66100000D02*
X10300000Y65600000D01*
X39062742Y31122500D02*
X39537258Y31122500D01*
X39062742Y30077500D02*
X39537258Y30077500D01*
X29390000Y81859420D02*
X29390000Y82140580D01*
X30410000Y81859420D02*
X30410000Y82140580D01*
D11*
X42370000Y22350000D02*
X42370000Y12450000D01*
X42370000Y12450000D02*
X39170000Y12450000D01*
X44245000Y12280000D02*
X42720000Y12280000D01*
X39170000Y22350000D02*
X42370000Y22350000D01*
X39170000Y12450000D02*
X39170000Y22350000D01*
D15*
X56537221Y36510000D02*
X56862779Y36510000D01*
X56537221Y35490000D02*
X56862779Y35490000D01*
X17300000Y78000000D02*
X17300000Y79400000D01*
X18000000Y80100000D02*
X18600000Y80100000D01*
X18600000Y77300000D02*
X18000000Y77300000D01*
X19300000Y79400000D02*
X19300000Y78000000D01*
X17300000Y79400000D02*
G75*
G02*
X18000000Y80100000I700000J0D01*
G01*
X18600000Y80100000D02*
G75*
G02*
X19300000Y79400000I0J-700000D01*
G01*
X19300000Y78000000D02*
G75*
G02*
X18600000Y77300000I-700000J0D01*
G01*
X18000000Y77300000D02*
G75*
G02*
X17300000Y78000000I0J700000D01*
G01*
X26410000Y94862779D02*
X26410000Y94537221D01*
X25390000Y94862779D02*
X25390000Y94537221D01*
X8884420Y22210000D02*
X9165580Y22210000D01*
X8884420Y21190000D02*
X9165580Y21190000D01*
X61762779Y34010000D02*
X61437221Y34010000D01*
X61762779Y32990000D02*
X61437221Y32990000D01*
X41962779Y29110000D02*
X41637221Y29110000D01*
X41962779Y28090000D02*
X41637221Y28090000D01*
X33690000Y70110000D02*
X33690000Y70810000D01*
X33690000Y56590000D02*
X34390000Y56590000D01*
X33690000Y70810000D02*
X34390000Y70810000D01*
X34390000Y56590000D02*
X34390000Y55225000D01*
X47910000Y57290000D02*
X47910000Y56590000D01*
X33690000Y57290000D02*
X33690000Y56590000D01*
X47910000Y70110000D02*
X47910000Y70810000D01*
X47910000Y70810000D02*
X47210000Y70810000D01*
X47910000Y56590000D02*
X47210000Y56590000D01*
X56340580Y23710000D02*
X56059420Y23710000D01*
X56340580Y22690000D02*
X56059420Y22690000D01*
X66937221Y87010000D02*
X67262779Y87010000D01*
X66937221Y85990000D02*
X67262779Y85990000D01*
X66937221Y57590000D02*
X67262779Y57590000D01*
X66937221Y58610000D02*
X67262779Y58610000D01*
X32662779Y94510000D02*
X32337221Y94510000D01*
X32662779Y93490000D02*
X32337221Y93490000D01*
X66937221Y67690000D02*
X67262779Y67690000D01*
X66937221Y68710000D02*
X67262779Y68710000D01*
D12*
X62100000Y76900000D02*
X62350000Y77150000D01*
X61850000Y76900000D02*
X62350000Y76900000D01*
X63400000Y76800000D02*
X63400000Y77500000D01*
X62350000Y78900000D02*
X61850000Y78900000D01*
X61850000Y78900000D02*
X61850000Y76900000D01*
X62350000Y76900000D02*
X62350000Y78900000D01*
D15*
X66937221Y84510000D02*
X67262779Y84510000D01*
X66937221Y83490000D02*
X67262779Y83490000D01*
X36137221Y103010000D02*
X36462779Y103010000D01*
X36137221Y101990000D02*
X36462779Y101990000D01*
X34610000Y16937221D02*
X34610000Y17262779D01*
X33590000Y16937221D02*
X33590000Y17262779D01*
X29062779Y93490000D02*
X28737221Y93490000D01*
X29062779Y94510000D02*
X28737221Y94510000D01*
X49310000Y105410000D02*
X49310000Y104150000D01*
X49310000Y98590000D02*
X49310000Y99850000D01*
X45550000Y98590000D02*
X49310000Y98590000D01*
X43300000Y105410000D02*
X49310000Y105410000D01*
X52637221Y57890000D02*
X52962779Y57890000D01*
X52637221Y58910000D02*
X52962779Y58910000D01*
X49410000Y31859420D02*
X49410000Y32140580D01*
X48390000Y31859420D02*
X48390000Y32140580D01*
X41800000Y93100000D02*
X39800000Y93100000D01*
X35000000Y93100000D02*
X35000000Y99900000D01*
X39800000Y99900000D02*
X41800000Y99900000D01*
X35000000Y99900000D02*
X37000000Y99900000D01*
X41800000Y99900000D02*
X41800000Y93100000D01*
X37000000Y93100000D02*
X35000000Y93100000D01*
X49150000Y83980000D02*
X50150000Y83980000D01*
X49150000Y80620000D02*
X50150000Y80620000D01*
X18715000Y90060000D02*
X18715000Y88140000D01*
X18715000Y88140000D02*
X21400000Y88140000D01*
X21400000Y90060000D02*
X18715000Y90060000D01*
X54910000Y28635000D02*
X54910000Y29110000D01*
X50690000Y25365000D02*
X50690000Y24890000D01*
X50690000Y24890000D02*
X51165000Y24890000D01*
X54910000Y24890000D02*
X54435000Y24890000D01*
X50690000Y29110000D02*
X51165000Y29110000D01*
X54910000Y25365000D02*
X54910000Y24890000D01*
X50690000Y28635000D02*
X50690000Y29110000D01*
X9600000Y18680000D02*
X10600000Y18680000D01*
X9600000Y15320000D02*
X10600000Y15320000D01*
X10409420Y24690000D02*
X10690580Y24690000D01*
X10409420Y25710000D02*
X10690580Y25710000D01*
X63137221Y67690000D02*
X63462779Y67690000D01*
X63137221Y68710000D02*
X63462779Y68710000D01*
X66937221Y61110000D02*
X67262779Y61110000D01*
X66937221Y60090000D02*
X67262779Y60090000D01*
X67262779Y56210000D02*
X66937221Y56210000D01*
X67262779Y55190000D02*
X66937221Y55190000D01*
X10409420Y24010000D02*
X10690580Y24010000D01*
X10409420Y22990000D02*
X10690580Y22990000D01*
X17760000Y15200000D02*
X17760000Y13250000D01*
X12640000Y15200000D02*
X12640000Y17150000D01*
X17760000Y15200000D02*
X17760000Y18650000D01*
X12640000Y15200000D02*
X12640000Y13250000D01*
X43150000Y81520000D02*
X44150000Y81520000D01*
X43150000Y84880000D02*
X44150000Y84880000D01*
X54260000Y96610000D02*
X47500000Y96610000D01*
X47500000Y93190000D02*
X54260000Y93190000D01*
X54260000Y93190000D02*
X54260000Y96610000D01*
M02*
