M48
; DRILL file {KiCad 5.99.0-unknown-14cba9723f~116~ubuntu18.04.1} date Thu Feb 18 14:37:30 2021
; FORMAT={-:-/ absolute / inch / decimal}
; #@! TF.CreationDate,2021-02-18T14:37:30+01:00
; #@! TF.GenerationSoftware,Kicad,Pcbnew,5.99.0-unknown-14cba9723f~116~ubuntu18.04.1
; #@! TF.FileFunction,Plated,1,4,PTH
FMAT,2
INCH
T1C0.0079
T2C0.0157
T3C0.0197
T4C0.0299
T5C0.0354
T6C0.0362
T7C0.0394
T8C0.0400
T9C0.0472
T10C0.0650
T11C0.0917
%
G90
G05
T1
X0.3189Y0.685
X0.3199Y0.7175
X0.3386Y1.4567
X0.3425Y1.6102
X0.3465Y1.5197
X0.3622Y0.9902
X0.3661Y0.9134
X0.3937Y4.4331
X0.4134Y0.8543
X0.4134Y0.7913
X0.4291Y1.4567
X0.4528Y1.5197
X0.4705Y0.9252
X0.4724Y0.9902
X0.4823Y1.6732
X0.5039Y0.5039
X0.5079Y1.5945
X0.5236Y3.4449
X0.5354Y1.4567
X0.5748Y0.6496
X0.5911Y0.8422
X0.622Y0.6535
X0.6299Y2.3346
X0.6299Y2.1732
X0.6339Y0.874
X0.6378Y1.6496
X0.6417Y1.7126
X0.6614Y0.8425
X0.6654Y1.6693
X0.6732Y0.4528
X0.685Y0.7913
X0.7047Y1.9724
X0.7165Y4.4331
X0.7362Y2.4528
X0.7362Y0.5079
X0.7402Y3.5118
X0.7402Y1.7953
X0.7441Y1.6181
X0.748Y1.7441
X0.752Y1.8465
X0.7717Y2.7165
X0.7717Y2.5
X0.811Y3.1063
X0.8228Y0.4803
X0.8465Y3.3189
X0.8661Y3.2874
X0.8675Y3.7874
X0.8701Y2.4528
X0.878Y2.0551
X0.9055Y2.5846
X0.9055Y1.6654
X0.9055Y1.6339
X0.9055Y1.6024
X0.9055Y1.5709
X0.9409Y3.3543
X0.9449Y2.2717
X0.9449Y1.937
X0.9488Y1.7874
X0.9563Y2.0551
X0.9764Y1.5472
X1.0Y1.5236
X1.0236Y1.5
X1.0315Y4.4331
X1.0472Y1.4764
X1.063Y3.6969
X1.0709Y3.748
X1.0709Y1.4528
X1.0787Y2.2795
X1.0827Y0.6614
X1.0896Y2.3593
X1.1063Y3.6614
X1.1142Y3.9449
X1.1181Y3.5984
X1.1217Y2.6409
X1.122Y3.4291
X1.122Y3.1575
X1.1221Y2.6779
X1.1476Y2.4232
X1.1496Y2.1339
X1.1496Y2.1024
X1.1575Y3.5984
X1.1614Y3.9488
X1.1614Y3.4291
X1.1693Y3.748
X1.1772Y3.2992
X1.1772Y0.7913
X1.1969Y2.2559
X1.1998Y2.1584
X1.2047Y3.5984
X1.2047Y3.4291
X1.2126Y3.7283
X1.2244Y0.7913
X1.2332Y2.1821
X1.2464Y2.5854
X1.248Y3.5984
X1.248Y3.4291
X1.248Y2.2717
X1.252Y2.3071
X1.2559Y3.748
X1.2677Y1.5709
X1.2756Y1.4016
X1.2756Y0.6142
X1.2913Y3.748
X1.3002Y1.5718
X1.3031Y2.7717
X1.311Y3.7992
X1.3268Y3.0276
X1.3268Y0.6181
X1.3307Y2.9173
X1.3333Y1.5721
X1.3425Y0.7283
X1.3465Y4.4331
X1.3465Y2.811
X1.3555Y2.6783
X1.3583Y1.9843
X1.3583Y0.5984
X1.3622Y1.935
X1.3648Y1.5718
X1.3668Y2.3372
X1.3858Y2.8583
X1.3898Y3.0276
X1.3898Y2.0669
X1.3937Y2.4843
X1.4085Y2.3553
X1.4203Y2.438
X1.4213Y0.6614
X1.4244Y1.8047
X1.4252Y0.8071
X1.4262Y2.8898
X1.4291Y1.9843
X1.4409Y1.9094
X1.4477Y1.7811
X1.4508Y0.7598
X1.4528Y3.252
X1.4528Y0.7283
X1.4543Y2.6043
X1.4596Y2.0669
X1.476Y2.1565
X1.4811Y2.585
X1.4877Y2.5535
X1.4927Y2.126
X1.4999Y2.2598
X1.5113Y2.6024
X1.5157Y3.2165
X1.5272Y2.126
X1.535Y2.6372
X1.5362Y2.2945
X1.5472Y3.2165
X1.5512Y1.5039
X1.5515Y1.0903
X1.5591Y1.8819
X1.5598Y2.2598
X1.561Y2.1573
X1.5748Y0.4449
X1.5787Y1.374
X1.5823Y2.5787
X1.5827Y3.0079
X1.587Y2.3185
X1.5937Y2.7063
X1.6024Y1.3976
X1.6059Y2.6028
X1.6181Y1.1535
X1.6197Y2.263
X1.6299Y2.5039
X1.6417Y2.1063
X1.6457Y1.8858
X1.6551Y2.6827
X1.6575Y2.9921
X1.6654Y0.6614
X1.6693Y4.4331
X1.6787Y2.6535
X1.685Y2.7559
X1.6969Y0.8937
X1.7024Y2.5276
X1.7126Y2.9488
X1.7205Y1.0903
X1.726Y2.4346
X1.7352Y1.2165
X1.7354Y2.2587
X1.7357Y1.2829
X1.7368Y1.2484
X1.7471Y0.9754
X1.748Y3.0748
X1.7638Y2.1575
X1.7717Y0.9409
X1.7717Y0.7598
X1.7717Y0.5866
X1.7795Y0.5079
X1.7835Y3.0118
X1.7835Y2.9803
X1.7874Y2.3307
X1.7933Y1.374
X1.7992Y0.9173
X1.8031Y0.7087
X1.8228Y2.5787
X1.8248Y1.2283
X1.8268Y2.1024
X1.8268Y1.9685
X1.8287Y1.3228
X1.8287Y1.2598
X1.8543Y3.0433
X1.8543Y3.0118
X1.8543Y2.9803
X1.8543Y2.9488
X1.8543Y2.5787
X1.8543Y1.1181
X1.8559Y2.3504
X1.8701Y0.6693
X1.8858Y3.2874
X1.8858Y3.2559
X1.8858Y3.2244
X1.8858Y3.1929
X1.8858Y2.1024
X1.8858Y1.9685
X1.9094Y2.2441
X1.9173Y1.1181
X1.9213Y0.7717
X1.9252Y1.3169
X1.9606Y2.2795
X1.9646Y2.75
X1.9646Y2.3425
X1.9685Y1.0709
X1.9701Y0.7717
X1.9764Y2.311
X1.9803Y2.4567
X1.9803Y1.3976
X1.9833Y0.9557
X1.9843Y4.4331
X1.9902Y1.3169
X1.9961Y2.7303
X2.0118Y2.8346
X2.0118Y2.7717
X2.0118Y2.4449
X2.0118Y1.5315
X2.0197Y0.5748
X2.0236Y2.2992
X2.0276Y3.2244
X2.0276Y3.1929
X2.0276Y1.4173
X2.0394Y1.1024
X2.0394Y1.0236
X2.0512Y1.5591
X2.0866Y0.5748
X2.0945Y1.2028
X2.1102Y0.6654
X2.1142Y1.4882
X2.1181Y1.1024
X2.1181Y1.0236
X2.126Y1.2047
X2.1339Y2.2992
X2.1417Y4.1575
X2.1457Y2.8346
X2.1457Y2.7717
X2.1457Y2.7047
X2.1457Y1.1732
X2.1575Y0.9843
X2.1654Y1.1378
X2.1811Y0.937
X2.1969Y1.1929
X2.2008Y0.5591
X2.2047Y2.5512
X2.2047Y2.5197
X2.2047Y2.4882
X2.2352Y3.5709
X2.2362Y3.6063
X2.2441Y0.8858
X2.248Y3.6772
X2.252Y0.7677
X2.2638Y1.4409
X2.2756Y3.5394
X2.2756Y1.8504
X2.2756Y1.7402
X2.2795Y3.6417
X2.2992Y0.7677
X2.3071Y1.2165
X2.3228Y4.3504
X2.3268Y3.8189
X2.3268Y3.5394
X2.3386Y4.5433
X2.3425Y4.4331
X2.3504Y0.5709
X2.3543Y4.1299
X2.3573Y2.5797
X2.3583Y4.3268
X2.3583Y2.5472
X2.3583Y2.4843
X2.3701Y1.3189
X2.3701Y1.1024
X2.374Y0.9094
X2.378Y3.0669
X2.3793Y3.687
X2.3819Y3.6535
X2.3898Y1.8504
X2.3898Y1.7402
X2.4055Y3.7047
X2.4055Y1.2323
X2.4094Y1.0394
X2.4173Y4.2047
X2.4173Y0.6845
X2.4173Y0.5743
X2.4213Y3.6417
X2.4331Y3.7362
X2.437Y4.3268
X2.4449Y3.0984
X2.4528Y0.8583
X2.4528Y0.7362
X2.4724Y2.7283
X2.4764Y2.2559
X2.4803Y1.3189
X2.4961Y1.8228
X2.5118Y3.1811
X2.5197Y3.0354
X2.5236Y4.2126
X2.5669Y3.1378
X2.5669Y2.1929
X2.5709Y2.3031
X2.5709Y1.7677
X2.5748Y4.1457
X2.5787Y2.6378
X2.5866Y4.378
X2.5945Y2.126
X2.5945Y2.0945
X2.6063Y4.4213
X2.6102Y3.6496
X2.6102Y3.3622
X2.6142Y3.5404
X2.6181Y3.2402
X2.626Y2.4252
X2.626Y2.0079
X2.626Y1.7677
X2.6299Y2.748
X2.6299Y2.6378
X2.6693Y3.1378
X2.6693Y2.0945
X2.6693Y2.063
X2.6811Y2.5394
X2.689Y1.7756
X2.7008Y4.4173
X2.7205Y3.7756
X2.7205Y3.5984
X2.7205Y2.1929
X2.7402Y4.1693
X2.7598Y4.5039
X2.8504Y0.6693
X2.8504Y0.6378
X2.9291Y0.6378
X2.9961Y0.7008
T2
X1.185Y3.9114
X1.189Y3.8268
X1.2717Y3.9114
X1.2717Y3.8268
X2.2323Y4.4843
X2.2756Y4.2874
X2.3189Y4.1378
X2.3898Y4.4173
X2.5039Y3.8189
X2.5276Y3.2953
X2.5433Y3.5512
X2.5433Y2.3583
X2.5433Y1.9685
X2.5551Y2.7283
X2.6654Y3.8543
X2.7165Y3.874
T3
X0.0669Y4.1654
X0.0689Y4.2421
X0.2205Y4.1693
X0.4843Y4.5315
X0.8071Y4.5315
X1.122Y4.5315
X1.2992Y4.0866
X1.437Y4.5315
X1.7028Y3.811
X1.7579Y3.813
X1.7598Y4.5315
X1.8189Y4.1063
X1.8346Y3.6772
X2.0157Y3.7362
X2.0748Y4.5315
X2.0866Y3.8071
X2.0866Y3.6654
X2.1496Y3.7362
X2.1614Y4.2283
X2.1654Y4.4094
X2.1654Y4.3504
X2.1654Y4.2913
X2.7008Y4.3228
T4
X0.4055Y3.1457
X0.4055Y3.0457
X0.4055Y2.9457
X0.4055Y2.8457
X0.4055Y2.4449
X0.4055Y2.3449
X0.4055Y2.2449
X0.4055Y2.1449
X0.5055Y3.0957
X0.5055Y2.9957
X0.5055Y2.8957
X0.5055Y2.7957
X0.5055Y2.3949
X0.5055Y2.2949
X0.5055Y2.1949
X0.5055Y2.0949
T5
X2.5811Y1.3185
X2.5811Y1.2185
X2.5811Y1.1185
X2.5811Y1.0185
X2.6811Y1.2685
X2.6811Y1.1685
X2.6811Y1.0685
X2.6811Y0.9685
T6
X0.5315Y3.8583
X0.5315Y3.7598
X0.6102Y3.8583
X0.6102Y3.7598
T7
X0.1378Y1.8551
X0.1378Y1.7551
X0.1378Y1.6551
X0.1378Y1.5551
X0.1378Y1.4551
X0.1378Y1.3551
X0.1378Y1.2551
X0.1378Y1.1551
X0.1378Y1.0551
X0.1378Y0.9551
X0.1378Y0.8551
X0.1378Y0.7551
X0.1378Y0.6551
X0.1378Y0.5551
X0.2378Y1.8551
X0.2378Y1.7551
X0.2378Y1.6551
X0.2378Y1.5551
X0.2378Y1.4551
X0.2378Y1.3551
X0.2378Y1.2551
X0.2378Y1.1551
X0.2378Y1.0551
X0.2378Y0.9551
X0.2378Y0.8551
X0.2378Y0.7551
X0.2378Y0.6551
X0.2378Y0.5551
X1.4173Y3.4646
X1.5173Y3.4646
X1.6173Y3.4646
X1.7173Y3.4646
X2.1122Y3.4754
X2.1122Y3.3754
X2.1122Y3.2754
X2.1122Y3.1754
X2.1122Y3.0754
X2.1122Y2.9754
T8
X3.0931Y1.4043
X3.0931Y1.3043
X3.0931Y0.9817
X3.0931Y0.8817
T9
X0.1181Y4.7205
X0.185Y0.2953
X0.2559Y4.7205
X0.3228Y0.2953
X0.3937Y4.7205
X0.4606Y0.2953
X0.5315Y4.7205
X0.5984Y0.2953
X0.6693Y4.7205
X0.7362Y0.2953
X0.8071Y4.7205
X0.874Y0.2953
X0.9449Y4.7205
X1.0118Y0.2953
X1.0827Y4.7205
X1.1496Y0.2953
X1.2205Y4.7205
X1.2874Y0.2953
X1.3583Y4.7205
X1.4252Y0.2953
X1.7756Y0.2953
X1.8268Y4.7205
X1.9134Y0.2953
X1.9646Y4.7205
X2.0512Y0.2953
X2.1024Y4.7205
X2.189Y0.2953
X2.2402Y4.7205
X2.3268Y0.2953
X2.378Y4.7205
X2.4646Y0.2953
X2.5157Y4.7205
X2.6024Y0.2953
X2.6535Y4.7205
X2.7402Y0.2953
X2.7913Y4.7205
X2.878Y4.3858
X2.878Y4.248
X2.878Y4.1102
X2.878Y3.9724
X2.878Y3.8346
X2.878Y3.6969
X2.878Y3.5591
X2.878Y3.4213
X2.878Y3.2835
X2.878Y3.1457
X2.878Y2.9134
X2.878Y2.7756
X2.878Y2.6378
X2.878Y2.5
X2.878Y2.3622
X2.878Y2.2244
X2.878Y2.0866
X2.878Y1.9488
X2.878Y1.811
X2.878Y1.6732
X2.878Y0.2953
X2.9291Y4.7205
X3.0157Y0.2953
X3.0669Y4.7205
T10
X2.811Y1.4486
X2.811Y0.8384
T11
X0.4248Y4.0461
X0.4248Y3.572
T0
M30
