%TF.GenerationSoftware,KiCad,Pcbnew,6.0.0-rc1-unknown-e56e61ffb5~144~ubuntu20.04.1*%
%TF.CreationDate,2021-11-28T18:30:16+01:00*%
%TF.ProjectId,Uni_Printer,556e695f-5072-4696-9e74-65722e6b6963,rev?*%
%TF.SameCoordinates,PX48009e0PY88da2e0*%
%TF.FileFunction,Soldermask,Bot*%
%TF.FilePolarity,Negative*%
%FSLAX46Y46*%
G04 Gerber Fmt 4.6, Leading zero omitted, Abs format (unit mm)*
G04 Created by KiCad (PCBNEW 6.0.0-rc1-unknown-e56e61ffb5~144~ubuntu20.04.1) date 2021-11-28 18:30:16*
%MOMM*%
%LPD*%
G01*
G04 APERTURE LIST*
G04 Aperture macros list*
%AMFreePoly0*
4,1,22,0.550000,-0.750000,0.000000,-0.750000,0.000000,-0.745033,-0.079941,-0.743568,-0.215256,-0.701293,-0.333266,-0.622738,-0.424486,-0.514219,-0.481581,-0.384460,-0.499164,-0.250000,-0.500000,-0.250000,-0.500000,0.250000,-0.499164,0.250000,-0.499963,0.256109,-0.478152,0.396186,-0.417904,0.524511,-0.324060,0.630769,-0.204165,0.706417,-0.067858,0.745374,0.000000,0.744959,0.000000,0.750000,
0.550000,0.750000,0.550000,-0.750000,0.550000,-0.750000,$1*%
%AMFreePoly1*
4,1,20,0.000000,0.744959,0.073905,0.744508,0.209726,0.703889,0.328688,0.626782,0.421226,0.519385,0.479903,0.390333,0.500000,0.250000,0.500000,-0.250000,0.499851,-0.262216,0.476331,-0.402017,0.414519,-0.529596,0.319384,-0.634700,0.198574,-0.708877,0.061801,-0.746166,0.000000,-0.745033,0.000000,-0.750000,-0.550000,-0.750000,-0.550000,0.750000,0.000000,0.750000,0.000000,0.744959,
0.000000,0.744959,$1*%
G04 Aperture macros list end*
%ADD10C,3.200000*%
%ADD11R,1.800000X3.600000*%
%ADD12O,1.800000X3.600000*%
%ADD13R,1.500000X1.500000*%
%ADD14C,1.500000*%
%ADD15R,3.600000X1.800000*%
%ADD16O,3.600000X1.800000*%
%ADD17R,1.700000X1.700000*%
%ADD18O,1.700000X1.700000*%
%ADD19C,3.251200*%
%ADD20R,1.778000X1.778000*%
%ADD21C,1.778000*%
%ADD22C,2.032000*%
%ADD23C,2.540000*%
%ADD24C,1.700000*%
%ADD25C,3.500000*%
%ADD26FreePoly0,0.000000*%
%ADD27R,1.000000X1.500000*%
%ADD28FreePoly1,0.000000*%
%ADD29FreePoly0,180.000000*%
%ADD30FreePoly1,180.000000*%
%ADD31FreePoly0,90.000000*%
%ADD32R,1.500000X1.000000*%
%ADD33FreePoly1,90.000000*%
%ADD34FreePoly0,270.000000*%
%ADD35FreePoly1,270.000000*%
G04 APERTURE END LIST*
D10*
X22500000Y101500000D03*
X66500000Y101500000D03*
X66500000Y16500000D03*
X22500000Y16500000D03*
D11*
X4700000Y7500000D03*
D12*
X8200000Y7500000D03*
X11700000Y7500000D03*
X15200000Y7500000D03*
X18700000Y7500000D03*
X22200000Y7500000D03*
X25700000Y7500000D03*
X29200000Y7500000D03*
X32700000Y7500000D03*
X36200000Y7500000D03*
D10*
X3950000Y81170000D03*
X3950000Y69740000D03*
D13*
X10300000Y79900000D03*
D14*
X12840000Y78630000D03*
X10300000Y77360000D03*
X12840000Y76090000D03*
X10300000Y74820000D03*
X12840000Y73550000D03*
X10300000Y72280000D03*
X12840000Y71010000D03*
D15*
X73100000Y42500000D03*
D16*
X73100000Y46000000D03*
X73100000Y49500000D03*
X73100000Y53000000D03*
X73100000Y56500000D03*
X73100000Y60000000D03*
X73100000Y63500000D03*
X73100000Y67000000D03*
X73100000Y70500000D03*
X73100000Y74000000D03*
D17*
X3500000Y47120000D03*
D18*
X6040000Y47120000D03*
X3500000Y44580000D03*
X6040000Y44580000D03*
X3500000Y42040000D03*
X6040000Y42040000D03*
X3500000Y39500000D03*
X6040000Y39500000D03*
X3500000Y36960000D03*
X6040000Y36960000D03*
X3500000Y34420000D03*
X6040000Y34420000D03*
X3500000Y31880000D03*
X6040000Y31880000D03*
X3500000Y29340000D03*
X6040000Y29340000D03*
X3500000Y26800000D03*
X6040000Y26800000D03*
X3500000Y24260000D03*
X6040000Y24260000D03*
X3500000Y21720000D03*
X6040000Y21720000D03*
X3500000Y19180000D03*
X6040000Y19180000D03*
X3500000Y16640000D03*
X6040000Y16640000D03*
X3500000Y14100000D03*
X6040000Y14100000D03*
X3500000Y11560000D03*
X6040000Y11560000D03*
D10*
X22500000Y73500000D03*
D17*
X53650000Y88275000D03*
D18*
X53650000Y85735000D03*
X53650000Y83195000D03*
X53650000Y80655000D03*
X53650000Y78115000D03*
X53650000Y75575000D03*
D11*
X77900000Y119900000D03*
D12*
X74400000Y119900000D03*
X70900000Y119900000D03*
X67400000Y119900000D03*
X63900000Y119900000D03*
X60400000Y119900000D03*
X56900000Y119900000D03*
X53400000Y119900000D03*
X49900000Y119900000D03*
X46400000Y119900000D03*
D11*
X34500000Y119900000D03*
D12*
X31000000Y119900000D03*
X27500000Y119900000D03*
X24000000Y119900000D03*
X20500000Y119900000D03*
X17000000Y119900000D03*
X13500000Y119900000D03*
X10000000Y119900000D03*
X6500000Y119900000D03*
X3000000Y119900000D03*
D11*
X45100000Y7500000D03*
D12*
X48600000Y7500000D03*
X52100000Y7500000D03*
X55600000Y7500000D03*
X59100000Y7500000D03*
X62600000Y7500000D03*
X66100000Y7500000D03*
X69600000Y7500000D03*
X73100000Y7500000D03*
X76600000Y7500000D03*
D15*
X73100000Y79900000D03*
D16*
X73100000Y83400000D03*
X73100000Y86900000D03*
X73100000Y90400000D03*
X73100000Y93900000D03*
X73100000Y97400000D03*
X73100000Y100900000D03*
X73100000Y104400000D03*
X73100000Y107900000D03*
X73100000Y111400000D03*
D19*
X74450000Y34760000D03*
X74450000Y23330000D03*
D20*
X68100000Y24600000D03*
D21*
X65560000Y25870000D03*
X68100000Y27140000D03*
X65560000Y28410000D03*
X68100000Y29680000D03*
X65560000Y30950000D03*
X68100000Y32220000D03*
X65560000Y33490000D03*
D22*
X78564800Y22395400D03*
X78564800Y24935000D03*
X78564800Y33130000D03*
X78564800Y35669200D03*
D23*
X71400000Y36795000D03*
X71400000Y21295000D03*
D17*
X15500000Y95500000D03*
D24*
X15500000Y98000000D03*
X13500000Y98000000D03*
X13500000Y95500000D03*
D25*
X10790000Y102770000D03*
X10790000Y90730000D03*
D17*
X36000000Y88000000D03*
D18*
X38540000Y88000000D03*
X41080000Y88000000D03*
X43620000Y88000000D03*
D10*
X66500000Y73500000D03*
X3950000Y63370000D03*
X3950000Y51940000D03*
D13*
X10300000Y62100000D03*
D14*
X12840000Y60830000D03*
X10300000Y59560000D03*
X12840000Y58290000D03*
X10300000Y57020000D03*
X12840000Y55750000D03*
X10300000Y54480000D03*
X12840000Y53210000D03*
D26*
X65100000Y95400000D03*
D27*
X66400000Y95400000D03*
D28*
X67700000Y95400000D03*
D29*
X60400000Y91200000D03*
D27*
X59100000Y91200000D03*
D30*
X57800000Y91200000D03*
D26*
X65100000Y91200000D03*
D27*
X66400000Y91200000D03*
D28*
X67700000Y91200000D03*
D26*
X65100000Y83700000D03*
D27*
X66400000Y83700000D03*
D28*
X67700000Y83700000D03*
D29*
X68100000Y65700000D03*
D27*
X66800000Y65700000D03*
D30*
X65500000Y65700000D03*
D26*
X65400000Y59900000D03*
D27*
X66700000Y59900000D03*
D28*
X68000000Y59900000D03*
D29*
X67700000Y80900000D03*
D27*
X66400000Y80900000D03*
D30*
X65100000Y80900000D03*
D29*
X60700000Y113900000D03*
D27*
X59400000Y113900000D03*
D30*
X58100000Y113900000D03*
D26*
X65400000Y49100000D03*
D27*
X66700000Y49100000D03*
D28*
X68000000Y49100000D03*
D26*
X65500000Y68450000D03*
D27*
X66800000Y68450000D03*
D28*
X68100000Y68450000D03*
D31*
X65400000Y106300000D03*
D32*
X65400000Y107600000D03*
D33*
X65400000Y108900000D03*
D29*
X60400000Y95400000D03*
D27*
X59100000Y95400000D03*
D30*
X57800000Y95400000D03*
D29*
X68000000Y46300000D03*
D27*
X66700000Y46300000D03*
D30*
X65400000Y46300000D03*
D26*
X66200000Y113900000D03*
D27*
X67500000Y113900000D03*
D28*
X68800000Y113900000D03*
D29*
X68000000Y57100000D03*
D27*
X66700000Y57100000D03*
D30*
X65400000Y57100000D03*
D34*
X59700000Y108900000D03*
D32*
X59700000Y107600000D03*
D35*
X59700000Y106300000D03*
M02*
