solid SOT23-5L-M
facet normal 0 0 -1
  outer loop
    vertex -18.513707372575 37.40157 57
    vertex -16.8218527638794 37.7381008054778 57
    vertex -16.788707372575 37.40157 57
  endloop
endfacet
facet normal 0 0 -1
  outer loop
    vertex -18.513707372575 37.40157 57
    vertex -16.920015178993 38.0616989208298 57
    vertex -16.8218527638794 37.7381008054778 57
  endloop
endfacet
facet normal 0 0 -1
  outer loop
    vertex -18.513707372575 37.40157 57
    vertex -17.0794222913531 38.3599286519588 57
    vertex -16.920015178993 38.0616989208298 57
  endloop
endfacet
facet normal 0 0 -1
  outer loop
    vertex -18.513707372575 37.40157 57
    vertex -17.2939481750282 38.6213291975468 57
    vertex -17.0794222913531 38.3599286519588 57
  endloop
endfacet
facet normal 0 0 -1
  outer loop
    vertex -18.513707372575 37.40157 57
    vertex -17.5553487206161 38.8358550812219 57
    vertex -17.2939481750282 38.6213291975468 57
  endloop
endfacet
facet normal 0 0 -1
  outer loop
    vertex -18.513707372575 37.40157 57
    vertex -17.8535784517452 38.995262193582 57
    vertex -17.5553487206161 38.8358550812219 57
  endloop
endfacet
facet normal 0 0 -1
  outer loop
    vertex -18.513707372575 37.40157 57
    vertex -18.1771765670971 39.0934246086956 57
    vertex -17.8535784517452 38.995262193582 57
  endloop
endfacet
facet normal 0 0 -1
  outer loop
    vertex -18.513707372575 37.40157 57
    vertex -18.513707372575 39.12657 57
    vertex -18.1771765670971 39.0934246086956 57
  endloop
endfacet
facet normal 0 0 -1
  outer loop
    vertex -18.513707372575 37.40157 57
    vertex -18.8502381780528 39.0934246086956 57
    vertex -18.513707372575 39.12657 57
  endloop
endfacet
facet normal 0 0 -1
  outer loop
    vertex -18.513707372575 37.40157 57
    vertex -19.1738362934047 38.995262193582 57
    vertex -18.8502381780528 39.0934246086956 57
  endloop
endfacet
facet normal 0 0 -1
  outer loop
    vertex -18.513707372575 37.40157 57
    vertex -19.4720660245338 38.8358550812219 57
    vertex -19.1738362934047 38.995262193582 57
  endloop
endfacet
facet normal 0 0 -1
  outer loop
    vertex -18.513707372575 37.40157 57
    vertex -19.7334665701218 38.6213291975468 57
    vertex -19.4720660245338 38.8358550812219 57
  endloop
endfacet
facet normal 0 0 -1
  outer loop
    vertex -18.513707372575 37.40157 57
    vertex -19.9479924537969 38.3599286519588 57
    vertex -19.7334665701218 38.6213291975468 57
  endloop
endfacet
facet normal 0 0 -1
  outer loop
    vertex -18.513707372575 37.40157 57
    vertex -20.1073995661569 38.0616989208298 57
    vertex -19.9479924537969 38.3599286519588 57
  endloop
endfacet
facet normal 0 0 -1
  outer loop
    vertex -18.513707372575 37.40157 57
    vertex -20.2055619812705 37.7381008054778 57
    vertex -20.1073995661569 38.0616989208298 57
  endloop
endfacet
facet normal 0 0 -1
  outer loop
    vertex -18.513707372575 37.40157 57
    vertex -20.238707372575 37.40157 57
    vertex -20.2055619812705 37.7381008054778 57
  endloop
endfacet
facet normal 0 0 -1
  outer loop
    vertex -18.513707372575 37.40157 57
    vertex -20.2055619812705 37.0650391945222 57
    vertex -20.238707372575 37.40157 57
  endloop
endfacet
facet normal 0 0 -1
  outer loop
    vertex -18.513707372575 37.40157 57
    vertex -20.1073995661569 36.7414410791702 57
    vertex -20.2055619812705 37.0650391945222 57
  endloop
endfacet
facet normal 0 0 -1
  outer loop
    vertex -18.513707372575 37.40157 57
    vertex -19.9479924537969 36.4432113480412 57
    vertex -20.1073995661569 36.7414410791702 57
  endloop
endfacet
facet normal 0 0 -1
  outer loop
    vertex -18.513707372575 37.40157 57
    vertex -19.7334665701218 36.1818108024532 57
    vertex -19.9479924537969 36.4432113480412 57
  endloop
endfacet
facet normal 0 0 -1
  outer loop
    vertex -18.513707372575 37.40157 57
    vertex -19.4720660245338 35.9672849187781 57
    vertex -19.7334665701218 36.1818108024532 57
  endloop
endfacet
facet normal 0 0 -1
  outer loop
    vertex -18.513707372575 37.40157 57
    vertex -19.1738362934047 35.807877806418 57
    vertex -19.4720660245338 35.9672849187781 57
  endloop
endfacet
facet normal 0 0 -1
  outer loop
    vertex -18.513707372575 37.40157 57
    vertex -18.8502381780528 35.7097153913044 57
    vertex -19.1738362934047 35.807877806418 57
  endloop
endfacet
facet normal 0 0 -1
  outer loop
    vertex -18.513707372575 37.40157 57
    vertex -18.513707372575 35.67657 57
    vertex -18.8502381780528 35.7097153913044 57
  endloop
endfacet
facet normal 0 0 -1
  outer loop
    vertex -18.513707372575 37.40157 57
    vertex -18.1771765670971 35.7097153913044 57
    vertex -18.513707372575 35.67657 57
  endloop
endfacet
facet normal 0 0 -1
  outer loop
    vertex -18.513707372575 37.40157 57
    vertex -17.8535784517452 35.807877806418 57
    vertex -18.1771765670971 35.7097153913044 57
  endloop
endfacet
facet normal 0 0 -1
  outer loop
    vertex -18.513707372575 37.40157 57
    vertex -17.5553487206161 35.9672849187781 57
    vertex -17.8535784517452 35.807877806418 57
  endloop
endfacet
facet normal 0 0 -1
  outer loop
    vertex -18.513707372575 37.40157 57
    vertex -17.2939481750282 36.1818108024532 57
    vertex -17.5553487206161 35.9672849187781 57
  endloop
endfacet
facet normal 0 0 -1
  outer loop
    vertex -18.513707372575 37.40157 57
    vertex -17.0794222913531 36.4432113480412 57
    vertex -17.2939481750282 36.1818108024532 57
  endloop
endfacet
facet normal 0 0 -1
  outer loop
    vertex -18.513707372575 37.40157 57
    vertex -16.920015178993 36.7414410791702 57
    vertex -17.0794222913531 36.4432113480412 57
  endloop
endfacet
facet normal 0 0 -1
  outer loop
    vertex -18.513707372575 37.40157 57
    vertex -16.8218527638794 37.0650391945222 57
    vertex -16.920015178993 36.7414410791702 57
  endloop
endfacet
facet normal 0 0 -1
  outer loop
    vertex -18.513707372575 37.40157 57
    vertex -16.788707372575 37.40157 57
    vertex -16.8218527638794 37.0650391945222 57
  endloop
endfacet
facet normal 0 0 1
  outer loop
    vertex -18.513707372575 37.40157 57.1
    vertex -16.788707372575 37.40157 57.1
    vertex -16.8218527638794 37.7381008054778 57.1
  endloop
endfacet
facet normal 0 0 1
  outer loop
    vertex -18.513707372575 37.40157 57.1
    vertex -16.8218527638794 37.7381008054778 57.1
    vertex -16.920015178993 38.0616989208298 57.1
  endloop
endfacet
facet normal 0 0 1
  outer loop
    vertex -18.513707372575 37.40157 57.1
    vertex -16.920015178993 38.0616989208298 57.1
    vertex -17.0794222913531 38.3599286519588 57.1
  endloop
endfacet
facet normal 0 0 1
  outer loop
    vertex -18.513707372575 37.40157 57.1
    vertex -17.0794222913531 38.3599286519588 57.1
    vertex -17.2939481750282 38.6213291975468 57.1
  endloop
endfacet
facet normal 0 0 1
  outer loop
    vertex -18.513707372575 37.40157 57.1
    vertex -17.2939481750282 38.6213291975468 57.1
    vertex -17.5553487206161 38.8358550812219 57.1
  endloop
endfacet
facet normal 0 0 1
  outer loop
    vertex -18.513707372575 37.40157 57.1
    vertex -17.5553487206161 38.8358550812219 57.1
    vertex -17.8535784517452 38.995262193582 57.1
  endloop
endfacet
facet normal 0 0 1
  outer loop
    vertex -18.513707372575 37.40157 57.1
    vertex -17.8535784517452 38.995262193582 57.1
    vertex -18.1771765670971 39.0934246086956 57.1
  endloop
endfacet
facet normal 0 0 1
  outer loop
    vertex -18.513707372575 37.40157 57.1
    vertex -18.1771765670971 39.0934246086956 57.1
    vertex -18.513707372575 39.12657 57.1
  endloop
endfacet
facet normal 0 0 1
  outer loop
    vertex -18.513707372575 37.40157 57.1
    vertex -18.513707372575 39.12657 57.1
    vertex -18.8502381780528 39.0934246086956 57.1
  endloop
endfacet
facet normal 0 0 1
  outer loop
    vertex -18.513707372575 37.40157 57.1
    vertex -18.8502381780528 39.0934246086956 57.1
    vertex -19.1738362934047 38.995262193582 57.1
  endloop
endfacet
facet normal 0 0 1
  outer loop
    vertex -18.513707372575 37.40157 57.1
    vertex -19.1738362934047 38.995262193582 57.1
    vertex -19.4720660245338 38.8358550812219 57.1
  endloop
endfacet
facet normal 0 0 1
  outer loop
    vertex -18.513707372575 37.40157 57.1
    vertex -19.4720660245338 38.8358550812219 57.1
    vertex -19.7334665701218 38.6213291975468 57.1
  endloop
endfacet
facet normal 0 0 1
  outer loop
    vertex -18.513707372575 37.40157 57.1
    vertex -19.7334665701218 38.6213291975468 57.1
    vertex -19.9479924537969 38.3599286519588 57.1
  endloop
endfacet
facet normal 0 0 1
  outer loop
    vertex -18.513707372575 37.40157 57.1
    vertex -19.9479924537969 38.3599286519588 57.1
    vertex -20.1073995661569 38.0616989208298 57.1
  endloop
endfacet
facet normal 0 0 1
  outer loop
    vertex -18.513707372575 37.40157 57.1
    vertex -20.1073995661569 38.0616989208298 57.1
    vertex -20.2055619812705 37.7381008054778 57.1
  endloop
endfacet
facet normal 0 0 1
  outer loop
    vertex -18.513707372575 37.40157 57.1
    vertex -20.2055619812705 37.7381008054778 57.1
    vertex -20.238707372575 37.40157 57.1
  endloop
endfacet
facet normal 0 0 1
  outer loop
    vertex -18.513707372575 37.40157 57.1
    vertex -20.238707372575 37.40157 57.1
    vertex -20.2055619812705 37.0650391945222 57.1
  endloop
endfacet
facet normal 0 0 1
  outer loop
    vertex -18.513707372575 37.40157 57.1
    vertex -20.2055619812705 37.0650391945222 57.1
    vertex -20.1073995661569 36.7414410791702 57.1
  endloop
endfacet
facet normal 0 0 1
  outer loop
    vertex -18.513707372575 37.40157 57.1
    vertex -20.1073995661569 36.7414410791702 57.1
    vertex -19.9479924537969 36.4432113480412 57.1
  endloop
endfacet
facet normal 0 0 1
  outer loop
    vertex -18.513707372575 37.40157 57.1
    vertex -19.9479924537969 36.4432113480412 57.1
    vertex -19.7334665701218 36.1818108024532 57.1
  endloop
endfacet
facet normal 0 0 1
  outer loop
    vertex -18.513707372575 37.40157 57.1
    vertex -19.7334665701218 36.1818108024532 57.1
    vertex -19.4720660245338 35.9672849187781 57.1
  endloop
endfacet
facet normal 0 0 1
  outer loop
    vertex -18.513707372575 37.40157 57.1
    vertex -19.4720660245338 35.9672849187781 57.1
    vertex -19.1738362934047 35.807877806418 57.1
  endloop
endfacet
facet normal 0 0 1
  outer loop
    vertex -18.513707372575 37.40157 57.1
    vertex -19.1738362934047 35.807877806418 57.1
    vertex -18.8502381780528 35.7097153913044 57.1
  endloop
endfacet
facet normal 0 0 1
  outer loop
    vertex -18.513707372575 37.40157 57.1
    vertex -18.8502381780528 35.7097153913044 57.1
    vertex -18.513707372575 35.67657 57.1
  endloop
endfacet
facet normal 0 0 1
  outer loop
    vertex -18.513707372575 37.40157 57.1
    vertex -18.513707372575 35.67657 57.1
    vertex -18.1771765670971 35.7097153913044 57.1
  endloop
endfacet
facet normal 0 0 1
  outer loop
    vertex -18.513707372575 37.40157 57.1
    vertex -18.1771765670971 35.7097153913044 57.1
    vertex -17.8535784517452 35.807877806418 57.1
  endloop
endfacet
facet normal 0 0 1
  outer loop
    vertex -18.513707372575 37.40157 57.1
    vertex -17.8535784517452 35.807877806418 57.1
    vertex -17.5553487206161 35.9672849187781 57.1
  endloop
endfacet
facet normal 0 0 1
  outer loop
    vertex -18.513707372575 37.40157 57.1
    vertex -17.5553487206161 35.9672849187781 57.1
    vertex -17.2939481750282 36.1818108024532 57.1
  endloop
endfacet
facet normal 0 0 1
  outer loop
    vertex -18.513707372575 37.40157 57.1
    vertex -17.2939481750282 36.1818108024532 57.1
    vertex -17.0794222913531 36.4432113480412 57.1
  endloop
endfacet
facet normal 0 0 1
  outer loop
    vertex -18.513707372575 37.40157 57.1
    vertex -17.0794222913531 36.4432113480412 57.1
    vertex -16.920015178993 36.7414410791702 57.1
  endloop
endfacet
facet normal 0 0 1
  outer loop
    vertex -18.513707372575 37.40157 57.1
    vertex -16.920015178993 36.7414410791702 57.1
    vertex -16.8218527638794 37.0650391945222 57.1
  endloop
endfacet
facet normal 0 0 1
  outer loop
    vertex -18.513707372575 37.40157 57.1
    vertex -16.8218527638794 37.0650391945222 57.1
    vertex -16.788707372575 37.40157 57.1
  endloop
endfacet
facet normal .995184726672205 9.80171403294804E-02 0
  outer loop
    vertex -16.788707372575 37.40157 57
    vertex -16.8218527638794 37.7381008054778 57.1
    vertex -16.788707372575 37.40157 57.1
  endloop
endfacet
facet normal .956940335732219 .290284677254428 0
  outer loop
    vertex -16.8218527638794 37.7381008054778 57
    vertex -16.920015178993 38.0616989208298 57.1
    vertex -16.8218527638794 37.7381008054778 57.1
  endloop
endfacet
facet normal .881921264348311 .47139673682608 0
  outer loop
    vertex -16.920015178993 38.0616989208298 57
    vertex -17.0794222913531 38.3599286519588 57.1
    vertex -16.920015178993 38.0616989208298 57.1
  endloop
endfacet
facet normal .773010453362753 .634393284163626 0
  outer loop
    vertex -17.0794222913531 38.3599286519588 57
    vertex -17.2939481750282 38.6213291975468 57.1
    vertex -17.0794222913531 38.3599286519588 57.1
  endloop
endfacet
facet normal .634393284163771 .773010453362634 0
  outer loop
    vertex -17.2939481750282 38.6213291975468 57
    vertex -17.5553487206161 38.8358550812219 57.1
    vertex -17.2939481750282 38.6213291975468 57.1
  endloop
endfacet
facet normal .471396736825962 .881921264348374 0
  outer loop
    vertex -17.5553487206161 38.8358550812219 57
    vertex -17.8535784517452 38.995262193582 57.1
    vertex -17.5553487206161 38.8358550812219 57.1
  endloop
endfacet
facet normal .2902846772545 .956940335732197 0
  outer loop
    vertex -17.8535784517452 38.995262193582 57
    vertex -18.1771765670971 39.0934246086956 57.1
    vertex -17.8535784517452 38.995262193582 57.1
  endloop
endfacet
facet normal 9.80171403294621E-02 .995184726672207 0
  outer loop
    vertex -18.1771765670971 39.0934246086956 57
    vertex -18.513707372575 39.12657 57.1
    vertex -18.1771765670971 39.0934246086956 57.1
  endloop
endfacet
facet normal -9.80171403294908E-02 .995184726672204 0
  outer loop
    vertex -18.513707372575 39.12657 57
    vertex -18.8502381780528 39.0934246086956 57.1
    vertex -18.513707372575 39.12657 57.1
  endloop
endfacet
facet normal -.290284677254498 .956940335732198 0
  outer loop
    vertex -18.8502381780528 39.0934246086956 57
    vertex -19.1738362934047 38.995262193582 57.1
    vertex -18.8502381780528 39.0934246086956 57.1
  endloop
endfacet
facet normal -.471396736825967 .881921264348372 0
  outer loop
    vertex -19.1738362934047 38.995262193582 57
    vertex -19.4720660245338 38.8358550812219 57.1
    vertex -19.1738362934047 38.995262193582 57.1
  endloop
endfacet
facet normal -.634393284163627 .773010453362752 0
  outer loop
    vertex -19.4720660245338 38.8358550812219 57
    vertex -19.7334665701218 38.6213291975468 57.1
    vertex -19.4720660245338 38.8358550812219 57.1
  endloop
endfacet
facet normal -.773010453362748 .634393284163632 0
  outer loop
    vertex -19.7334665701218 38.6213291975468 57
    vertex -19.9479924537969 38.3599286519588 57.1
    vertex -19.7334665701218 38.6213291975468 57.1
  endloop
endfacet
facet normal -.881921264348433 .471396736825851 0
  outer loop
    vertex -19.9479924537969 38.3599286519588 57
    vertex -20.1073995661569 38.0616989208298 57.1
    vertex -19.9479924537969 38.3599286519588 57.1
  endloop
endfacet
facet normal -.956940335732222 .290284677254419 0
  outer loop
    vertex -20.1073995661569 38.0616989208298 57
    vertex -20.2055619812705 37.7381008054778 57.1
    vertex -20.1073995661569 38.0616989208298 57.1
  endloop
endfacet
facet normal -.995184726672175 9.80171403297822E-02 0
  outer loop
    vertex -20.2055619812705 37.7381008054778 57
    vertex -20.238707372575 37.40157 57.1
    vertex -20.2055619812705 37.7381008054778 57.1
  endloop
endfacet
facet normal -.995184726672175 -9.80171403297822E-02 0
  outer loop
    vertex -20.238707372575 37.40157 57
    vertex -20.2055619812705 37.0650391945222 57.1
    vertex -20.238707372575 37.40157 57.1
  endloop
endfacet
facet normal -.956940335732222 -.290284677254419 0
  outer loop
    vertex -20.2055619812705 37.0650391945222 57
    vertex -20.1073995661569 36.7414410791702 57.1
    vertex -20.2055619812705 37.0650391945222 57.1
  endloop
endfacet
facet normal -.881921264348429 -.47139673682586 0
  outer loop
    vertex -20.1073995661569 36.7414410791702 57
    vertex -19.9479924537969 36.4432113480412 57.1
    vertex -20.1073995661569 36.7414410791702 57.1
  endloop
endfacet
facet normal -.773010453362756 -.634393284163622 0
  outer loop
    vertex -19.9479924537969 36.4432113480412 57
    vertex -19.7334665701218 36.1818108024532 57.1
    vertex -19.9479924537969 36.4432113480412 57.1
  endloop
endfacet
facet normal -.634393284163627 -.773010453362752 0
  outer loop
    vertex -19.7334665701218 36.1818108024532 57
    vertex -19.4720660245338 35.9672849187781 57.1
    vertex -19.7334665701218 36.1818108024532 57.1
  endloop
endfacet
facet normal -.471396736825967 -.881921264348372 0
  outer loop
    vertex -19.4720660245338 35.9672849187781 57
    vertex -19.1738362934047 35.807877806418 57.1
    vertex -19.4720660245338 35.9672849187781 57.1
  endloop
endfacet
facet normal -.290284677254498 -.956940335732198 0
  outer loop
    vertex -19.1738362934047 35.807877806418 57
    vertex -18.8502381780528 35.7097153913044 57.1
    vertex -19.1738362934047 35.807877806418 57.1
  endloop
endfacet
facet normal -9.80171403294908E-02 -.995184726672204 0
  outer loop
    vertex -18.8502381780528 35.7097153913044 57
    vertex -18.513707372575 35.67657 57.1
    vertex -18.8502381780528 35.7097153913044 57.1
  endloop
endfacet
facet normal 9.80171403294621E-02 -.995184726672207 0
  outer loop
    vertex -18.513707372575 35.67657 57
    vertex -18.1771765670971 35.7097153913044 57.1
    vertex -18.513707372575 35.67657 57.1
  endloop
endfacet
facet normal .2902846772545 -.956940335732197 0
  outer loop
    vertex -18.1771765670971 35.7097153913044 57
    vertex -17.8535784517452 35.807877806418 57.1
    vertex -18.1771765670971 35.7097153913044 57.1
  endloop
endfacet
facet normal .471396736825962 -.881921264348374 0
  outer loop
    vertex -17.8535784517452 35.807877806418 57
    vertex -17.5553487206161 35.9672849187781 57.1
    vertex -17.8535784517452 35.807877806418 57.1
  endloop
endfacet
facet normal .634393284163771 -.773010453362634 0
  outer loop
    vertex -17.5553487206161 35.9672849187781 57
    vertex -17.2939481750282 36.1818108024532 57.1
    vertex -17.5553487206161 35.9672849187781 57.1
  endloop
endfacet
facet normal .773010453362762 -.634393284163615 0
  outer loop
    vertex -17.2939481750282 36.1818108024532 57
    vertex -17.0794222913531 36.4432113480412 57.1
    vertex -17.2939481750282 36.1818108024532 57.1
  endloop
endfacet
facet normal .881921264348306 -.471396736826089 0
  outer loop
    vertex -17.0794222913531 36.4432113480412 57
    vertex -16.920015178993 36.7414410791702 57.1
    vertex -17.0794222913531 36.4432113480412 57.1
  endloop
endfacet
facet normal .956940335732219 -.290284677254428 0
  outer loop
    vertex -16.920015178993 36.7414410791702 57
    vertex -16.8218527638794 37.0650391945222 57.1
    vertex -16.920015178993 36.7414410791702 57.1
  endloop
endfacet
facet normal .995184726672205 -9.80171403294804E-02 0
  outer loop
    vertex -16.8218527638794 37.0650391945222 57
    vertex -16.788707372575 37.40157 57.1
    vertex -16.8218527638794 37.0650391945222 57.1
  endloop
endfacet
facet normal .995184726672205 9.80171403294804E-02 0
  outer loop
    vertex -16.8218527638794 37.7381008054778 57
    vertex -16.8218527638794 37.7381008054778 57.1
    vertex -16.788707372575 37.40157 57
  endloop
endfacet
facet normal .956940335732219 .290284677254428 0
  outer loop
    vertex -16.920015178993 38.0616989208298 57
    vertex -16.920015178993 38.0616989208298 57.1
    vertex -16.8218527638794 37.7381008054778 57
  endloop
endfacet
facet normal .881921264348311 .47139673682608 0
  outer loop
    vertex -17.0794222913531 38.3599286519588 57
    vertex -17.0794222913531 38.3599286519588 57.1
    vertex -16.920015178993 38.0616989208298 57
  endloop
endfacet
facet normal .773010453362753 .634393284163626 0
  outer loop
    vertex -17.2939481750282 38.6213291975468 57
    vertex -17.2939481750282 38.6213291975468 57.1
    vertex -17.0794222913531 38.3599286519588 57
  endloop
endfacet
facet normal .634393284163771 .773010453362634 0
  outer loop
    vertex -17.5553487206161 38.8358550812219 57
    vertex -17.5553487206161 38.8358550812219 57.1
    vertex -17.2939481750282 38.6213291975468 57
  endloop
endfacet
facet normal .471396736825962 .881921264348374 0
  outer loop
    vertex -17.8535784517452 38.995262193582 57
    vertex -17.8535784517452 38.995262193582 57.1
    vertex -17.5553487206161 38.8358550812219 57
  endloop
endfacet
facet normal .2902846772545 .956940335732197 0
  outer loop
    vertex -18.1771765670971 39.0934246086956 57
    vertex -18.1771765670971 39.0934246086956 57.1
    vertex -17.8535784517452 38.995262193582 57
  endloop
endfacet
facet normal 9.80171403294621E-02 .995184726672207 0
  outer loop
    vertex -18.513707372575 39.12657 57
    vertex -18.513707372575 39.12657 57.1
    vertex -18.1771765670971 39.0934246086956 57
  endloop
endfacet
facet normal -9.80171403294908E-02 .995184726672204 0
  outer loop
    vertex -18.8502381780528 39.0934246086956 57
    vertex -18.8502381780528 39.0934246086956 57.1
    vertex -18.513707372575 39.12657 57
  endloop
endfacet
facet normal -.290284677254498 .956940335732198 0
  outer loop
    vertex -19.1738362934047 38.995262193582 57
    vertex -19.1738362934047 38.995262193582 57.1
    vertex -18.8502381780528 39.0934246086956 57
  endloop
endfacet
facet normal -.471396736825967 .881921264348372 0
  outer loop
    vertex -19.4720660245338 38.8358550812219 57
    vertex -19.4720660245338 38.8358550812219 57.1
    vertex -19.1738362934047 38.995262193582 57
  endloop
endfacet
facet normal -.634393284163627 .773010453362752 0
  outer loop
    vertex -19.7334665701218 38.6213291975468 57
    vertex -19.7334665701218 38.6213291975468 57.1
    vertex -19.4720660245338 38.8358550812219 57
  endloop
endfacet
facet normal -.773010453362748 .634393284163632 0
  outer loop
    vertex -19.9479924537969 38.3599286519588 57
    vertex -19.9479924537969 38.3599286519588 57.1
    vertex -19.7334665701218 38.6213291975468 57
  endloop
endfacet
facet normal -.881921264348433 .471396736825851 0
  outer loop
    vertex -20.1073995661569 38.0616989208298 57
    vertex -20.1073995661569 38.0616989208298 57.1
    vertex -19.9479924537969 38.3599286519588 57
  endloop
endfacet
facet normal -.956940335732222 .290284677254419 0
  outer loop
    vertex -20.2055619812705 37.7381008054778 57
    vertex -20.2055619812705 37.7381008054778 57.1
    vertex -20.1073995661569 38.0616989208298 57
  endloop
endfacet
facet normal -.995184726672175 9.80171403297822E-02 0
  outer loop
    vertex -20.238707372575 37.40157 57
    vertex -20.238707372575 37.40157 57.1
    vertex -20.2055619812705 37.7381008054778 57
  endloop
endfacet
facet normal -.995184726672175 -9.80171403297822E-02 0
  outer loop
    vertex -20.2055619812705 37.0650391945222 57
    vertex -20.2055619812705 37.0650391945222 57.1
    vertex -20.238707372575 37.40157 57
  endloop
endfacet
facet normal -.956940335732222 -.290284677254419 0
  outer loop
    vertex -20.1073995661569 36.7414410791702 57
    vertex -20.1073995661569 36.7414410791702 57.1
    vertex -20.2055619812705 37.0650391945222 57
  endloop
endfacet
facet normal -.881921264348429 -.47139673682586 0
  outer loop
    vertex -19.9479924537969 36.4432113480412 57
    vertex -19.9479924537969 36.4432113480412 57.1
    vertex -20.1073995661569 36.7414410791702 57
  endloop
endfacet
facet normal -.773010453362756 -.634393284163622 0
  outer loop
    vertex -19.7334665701218 36.1818108024532 57
    vertex -19.7334665701218 36.1818108024532 57.1
    vertex -19.9479924537969 36.4432113480412 57
  endloop
endfacet
facet normal -.634393284163627 -.773010453362752 0
  outer loop
    vertex -19.4720660245338 35.9672849187781 57
    vertex -19.4720660245338 35.9672849187781 57.1
    vertex -19.7334665701218 36.1818108024532 57
  endloop
endfacet
facet normal -.471396736825967 -.881921264348372 0
  outer loop
    vertex -19.1738362934047 35.807877806418 57
    vertex -19.1738362934047 35.807877806418 57.1
    vertex -19.4720660245338 35.9672849187781 57
  endloop
endfacet
facet normal -.290284677254498 -.956940335732198 0
  outer loop
    vertex -18.8502381780528 35.7097153913044 57
    vertex -18.8502381780528 35.7097153913044 57.1
    vertex -19.1738362934047 35.807877806418 57
  endloop
endfacet
facet normal -9.80171403294908E-02 -.995184726672204 0
  outer loop
    vertex -18.513707372575 35.67657 57
    vertex -18.513707372575 35.67657 57.1
    vertex -18.8502381780528 35.7097153913044 57
  endloop
endfacet
facet normal 9.80171403294621E-02 -.995184726672207 0
  outer loop
    vertex -18.1771765670971 35.7097153913044 57
    vertex -18.1771765670971 35.7097153913044 57.1
    vertex -18.513707372575 35.67657 57
  endloop
endfacet
facet normal .2902846772545 -.956940335732197 0
  outer loop
    vertex -17.8535784517452 35.807877806418 57
    vertex -17.8535784517452 35.807877806418 57.1
    vertex -18.1771765670971 35.7097153913044 57
  endloop
endfacet
facet normal .471396736825962 -.881921264348374 0
  outer loop
    vertex -17.5553487206161 35.9672849187781 57
    vertex -17.5553487206161 35.9672849187781 57.1
    vertex -17.8535784517452 35.807877806418 57
  endloop
endfacet
facet normal .634393284163771 -.773010453362634 0
  outer loop
    vertex -17.2939481750282 36.1818108024532 57
    vertex -17.2939481750282 36.1818108024532 57.1
    vertex -17.5553487206161 35.9672849187781 57
  endloop
endfacet
facet normal .773010453362762 -.634393284163615 0
  outer loop
    vertex -17.0794222913531 36.4432113480412 57
    vertex -17.0794222913531 36.4432113480412 57.1
    vertex -17.2939481750282 36.1818108024532 57
  endloop
endfacet
facet normal .881921264348306 -.471396736826089 0
  outer loop
    vertex -16.920015178993 36.7414410791702 57
    vertex -16.920015178993 36.7414410791702 57.1
    vertex -17.0794222913531 36.4432113480412 57
  endloop
endfacet
facet normal .956940335732219 -.290284677254428 0
  outer loop
    vertex -16.8218527638794 37.0650391945222 57
    vertex -16.8218527638794 37.0650391945222 57.1
    vertex -16.920015178993 36.7414410791702 57
  endloop
endfacet
facet normal .995184726672205 -9.80171403294804E-02 0
  outer loop
    vertex -16.788707372575 37.40157 57
    vertex -16.788707372575 37.40157 57.1
    vertex -16.8218527638794 37.0650391945222 57
  endloop
endfacet
facet normal 0 0 1
  outer loop
    vertex 25.8363256343157 57.213307273673 57
    vertex -25.8363256343157 -57.213307273673 57
    vertex 25.8363256343157 -57.213307273673 57
  endloop
endfacet
facet normal 0 0 1
  outer loop
    vertex 25.8363256343157 57.213307273673 57
    vertex -25.8363256343157 57.213307273673 57
    vertex -25.8363256343157 -57.213307273673 57
  endloop
endfacet
facet normal 0 0 -1
  outer loop
    vertex -32.713307273673 -57.213307273673 4
    vertex 32.713307273673 57.213307273673 4
    vertex 32.713307273673 -57.213307273673 4
  endloop
endfacet
facet normal 0 0 -1
  outer loop
    vertex 32.713307273673 57.213307273673 4
    vertex -32.713307273673 -57.213307273673 4
    vertex -32.713307273673 57.213307273673 4
  endloop
endfacet
facet normal .921118787038767 0 .389281620635024
  outer loop
    vertex 25.8363256343157 57.213307273673 57
    vertex 34.5 -59 36.5
    vertex 34.5 59 36.5
  endloop
endfacet
facet normal 0 -.996223440096615 8.68265938642478E-02
  outer loop
    vertex 25.8363256343157 -57.213307273673 57
    vertex -34.5 -59 36.5
    vertex 34.5 -59 36.5
  endloop
endfacet
facet normal -.921118787038767 0 .389281620635024
  outer loop
    vertex -25.8363256343157 -57.213307273673 57
    vertex -34.5 59 36.5
    vertex -34.5 -59 36.5
  endloop
endfacet
facet normal 0 .996223440096615 8.68265938642478E-02
  outer loop
    vertex -25.8363256343157 57.213307273673 57
    vertex 34.5 59 36.5
    vertex -34.5 59 36.5
  endloop
endfacet
facet normal 1 0 0
  outer loop
    vertex 34.5 59 36.5
    vertex 34.5 -59 24.5
    vertex 34.5 59 24.5
  endloop
endfacet
facet normal 0 -1 0
  outer loop
    vertex 34.5 -59 36.5
    vertex -34.5 -59 24.5
    vertex 34.5 -59 24.5
  endloop
endfacet
facet normal -1 0 0
  outer loop
    vertex -34.5 -59 36.5
    vertex -34.5 59 24.5
    vertex -34.5 -59 24.5
  endloop
endfacet
facet normal 0 1 0
  outer loop
    vertex -34.5 59 36.5
    vertex 34.5 59 24.5
    vertex -34.5 59 24.5
  endloop
endfacet
facet normal .996223440096615 0 -8.68265938642478E-02
  outer loop
    vertex 34.5 59 24.5
    vertex 32.713307273673 -57.213307273673 4
    vertex 32.713307273673 57.213307273673 4
  endloop
endfacet
facet normal 0 -.996223440096615 -8.68265938642478E-02
  outer loop
    vertex 34.5 -59 24.5
    vertex -32.713307273673 -57.213307273673 4
    vertex 32.713307273673 -57.213307273673 4
  endloop
endfacet
facet normal -.996223440096615 0 -8.68265938642478E-02
  outer loop
    vertex -34.5 -59 24.5
    vertex -32.713307273673 57.213307273673 4
    vertex -32.713307273673 -57.213307273673 4
  endloop
endfacet
facet normal 0 .996223440096615 -8.68265938642478E-02
  outer loop
    vertex -34.5 59 24.5
    vertex 32.713307273673 57.213307273673 4
    vertex -32.713307273673 57.213307273673 4
  endloop
endfacet
facet normal .921118787038767 0 .389281620635024
  outer loop
    vertex 25.8363256343157 57.213307273673 57
    vertex 25.8363256343157 -57.213307273673 57
    vertex 34.5 -59 36.5
  endloop
endfacet
facet normal 0 -.996223440096615 8.68265938642478E-02
  outer loop
    vertex 25.8363256343157 -57.213307273673 57
    vertex -25.8363256343157 -57.213307273673 57
    vertex -34.5 -59 36.5
  endloop
endfacet
facet normal -.921118787038767 0 .389281620635024
  outer loop
    vertex -25.8363256343157 -57.213307273673 57
    vertex -25.8363256343157 57.213307273673 57
    vertex -34.5 59 36.5
  endloop
endfacet
facet normal 0 .996223440096615 8.68265938642478E-02
  outer loop
    vertex -25.8363256343157 57.213307273673 57
    vertex 25.8363256343157 57.213307273673 57
    vertex 34.5 59 36.5
  endloop
endfacet
facet normal 1 0 0
  outer loop
    vertex 34.5 59 36.5
    vertex 34.5 -59 36.5
    vertex 34.5 -59 24.5
  endloop
endfacet
facet normal 0 -1 0
  outer loop
    vertex 34.5 -59 36.5
    vertex -34.5 -59 36.5
    vertex -34.5 -59 24.5
  endloop
endfacet
facet normal -1 0 0
  outer loop
    vertex -34.5 -59 36.5
    vertex -34.5 59 36.5
    vertex -34.5 59 24.5
  endloop
endfacet
facet normal 0 1 0
  outer loop
    vertex -34.5 59 36.5
    vertex 34.5 59 36.5
    vertex 34.5 59 24.5
  endloop
endfacet
facet normal .996223440096615 0 -8.68265938642478E-02
  outer loop
    vertex 34.5 59 24.5
    vertex 34.5 -59 24.5
    vertex 32.713307273673 -57.213307273673 4
  endloop
endfacet
facet normal 0 -.996223440096615 -8.68265938642478E-02
  outer loop
    vertex 34.5 -59 24.5
    vertex -34.5 -59 24.5
    vertex -32.713307273673 -57.213307273673 4
  endloop
endfacet
facet normal -.996223440096615 0 -8.68265938642478E-02
  outer loop
    vertex -34.5 -59 24.5
    vertex -34.5 59 24.5
    vertex -32.713307273673 57.213307273673 4
  endloop
endfacet
facet normal 0 .996223440096615 -8.68265938642478E-02
  outer loop
    vertex -34.5 59 24.5
    vertex 34.5 59 24.5
    vertex 32.713307273673 57.213307273673 4
  endloop
endfacet
facet normal -1 0 0
  outer loop
    vertex -59 47.40157 10
    vertex -59 47.40157 0
    vertex -59 27.40157 0
  endloop
endfacet
facet normal -1 0 0
  outer loop
    vertex -59 47.40157 10
    vertex -59 27.40157 0
    vertex -59 27.40157 10
  endloop
endfacet
facet normal 1 0 0
  outer loop
    vertex -34.5 27.40157 35.5
    vertex -34.5 27.40157 25.5
    vertex -34.5 47.40157 25.5
  endloop
endfacet
facet normal 1 0 0
  outer loop
    vertex -34.5 27.40157 35.5
    vertex -34.5 47.40157 25.5
    vertex -34.5 47.40157 35.5
  endloop
endfacet
facet normal 0 1 0
  outer loop
    vertex -34.5 47.40157 25.5
    vertex -37.5402640436737 47.40157 25.5
    vertex -42.5402640436737 47.40157 35.5
  endloop
endfacet
facet normal 0 1 0
  outer loop
    vertex -37.5402640436737 47.40157 25.5
    vertex -49.2125 47.40157 0
    vertex -54.2125 47.40157 10
  endloop
endfacet
facet normal 0 1 0
  outer loop
    vertex -49.2125 47.40157 0
    vertex -59 47.40157 0
    vertex -59 47.40157 10
  endloop
endfacet
facet normal 0 1 0
  outer loop
    vertex -34.5 47.40157 25.5
    vertex -42.5402640436737 47.40157 35.5
    vertex -34.5 47.40157 35.5
  endloop
endfacet
facet normal 0 1 0
  outer loop
    vertex -37.5402640436737 47.40157 25.5
    vertex -54.2125 47.40157 10
    vertex -42.5402640436737 47.40157 35.5
  endloop
endfacet
facet normal 0 1 0
  outer loop
    vertex -49.2125 47.40157 0
    vertex -59 47.40157 10
    vertex -54.2125 47.40157 10
  endloop
endfacet
facet normal 0 -1 0
  outer loop
    vertex -34.5 27.40157 25.5
    vertex -42.5402640436737 27.40157 35.5
    vertex -37.5402640436737 27.40157 25.5
  endloop
endfacet
facet normal 0 -1 0
  outer loop
    vertex -37.5402640436737 27.40157 25.5
    vertex -54.2125 27.40157 10
    vertex -49.2125 27.40157 0
  endloop
endfacet
facet normal 0 -1 0
  outer loop
    vertex -49.2125 27.40157 0
    vertex -59 27.40157 10
    vertex -59 27.40157 0
  endloop
endfacet
facet normal 0 -1 0
  outer loop
    vertex -34.5 27.40157 25.5
    vertex -34.5 27.40157 35.5
    vertex -42.5402640436737 27.40157 35.5
  endloop
endfacet
facet normal 0 -1 0
  outer loop
    vertex -37.5402640436737 27.40157 25.5
    vertex -42.5402640436737 27.40157 35.5
    vertex -54.2125 27.40157 10
  endloop
endfacet
facet normal 0 -1 0
  outer loop
    vertex -49.2125 27.40157 0
    vertex -54.2125 27.40157 10
    vertex -59 27.40157 10
  endloop
endfacet
facet normal 0 0 1
  outer loop
    vertex -34.5 47.40157 35.5
    vertex -42.5402640436737 47.40157 35.5
    vertex -42.5402640436737 27.40157 35.5
  endloop
endfacet
facet normal -.909270866605472 0 .416204866793426
  outer loop
    vertex -42.5402640436737 47.40157 35.5
    vertex -54.2125 47.40157 10
    vertex -54.2125 27.40157 10
  endloop
endfacet
facet normal 0 0 1
  outer loop
    vertex -54.2125 47.40157 10
    vertex -59 47.40157 10
    vertex -59 27.40157 10
  endloop
endfacet
facet normal 0 0 1
  outer loop
    vertex -34.5 47.40157 35.5
    vertex -42.5402640436737 27.40157 35.5
    vertex -34.5 27.40157 35.5
  endloop
endfacet
facet normal -.909270866605472 0 .416204866793426
  outer loop
    vertex -42.5402640436737 47.40157 35.5
    vertex -54.2125 27.40157 10
    vertex -42.5402640436737 27.40157 35.5
  endloop
endfacet
facet normal 0 0 1
  outer loop
    vertex -54.2125 47.40157 10
    vertex -59 27.40157 10
    vertex -54.2125 27.40157 10
  endloop
endfacet
facet normal 0 0 -1
  outer loop
    vertex -34.5 47.40157 25.5
    vertex -37.5402640436737 27.40157 25.5
    vertex -37.5402640436737 47.40157 25.5
  endloop
endfacet
facet normal .909270866605472 0 -.416204866793426
  outer loop
    vertex -37.5402640436737 47.40157 25.5
    vertex -49.2125 27.40157 0
    vertex -49.2125 47.40157 0
  endloop
endfacet
facet normal 0 0 -1
  outer loop
    vertex -49.2125 47.40157 0
    vertex -59 27.40157 0
    vertex -59 47.40157 0
  endloop
endfacet
facet normal 0 0 -1
  outer loop
    vertex -34.5 47.40157 25.5
    vertex -34.5 27.40157 25.5
    vertex -37.5402640436737 27.40157 25.5
  endloop
endfacet
facet normal .909270866605472 0 -.416204866793426
  outer loop
    vertex -37.5402640436737 47.40157 25.5
    vertex -37.5402640436737 27.40157 25.5
    vertex -49.2125 27.40157 0
  endloop
endfacet
facet normal 0 0 -1
  outer loop
    vertex -49.2125 47.40157 0
    vertex -49.2125 27.40157 0
    vertex -59 27.40157 0
  endloop
endfacet
facet normal -1 0 0
  outer loop
    vertex -59 10 10
    vertex -59 10 0
    vertex -59 -10 0
  endloop
endfacet
facet normal -1 0 0
  outer loop
    vertex -59 10 10
    vertex -59 -10 0
    vertex -59 -10 10
  endloop
endfacet
facet normal 1 0 0
  outer loop
    vertex -34.5 -10 35.5
    vertex -34.5 -10 25.5
    vertex -34.5 9.99999999999999 25.5
  endloop
endfacet
facet normal 1 0 0
  outer loop
    vertex -34.5 -10 35.5
    vertex -34.5 9.99999999999999 25.5
    vertex -34.5 9.99999999999999 35.5
  endloop
endfacet
facet normal 3.50566295666963E-15 1 1.75283147833481E-15
  outer loop
    vertex -34.5 9.99999999999999 25.5
    vertex -37.5402640436737 10 25.5
    vertex -42.5402640436737 10 35.5
  endloop
endfacet
facet normal 6.76437597112929E-16 1 -7.27595305083686E-16
  outer loop
    vertex -37.5402640436737 10 25.5
    vertex -49.2125 9.99999999999999 0
    vertex -54.2125 10 10
  endloop
endfacet
facet normal 1.08895438430667E-15 1 0
  outer loop
    vertex -49.2125 9.99999999999999 0
    vertex -59 10 0
    vertex -59 10 10
  endloop
endfacet
facet normal 1.32559589815805E-15 1 0
  outer loop
    vertex -34.5 9.99999999999999 25.5
    vertex -42.5402640436737 10 35.5
    vertex -34.5 9.99999999999999 35.5
  endloop
endfacet
facet normal 0 1 0
  outer loop
    vertex -37.5402640436737 10 25.5
    vertex -54.2125 10 10
    vertex -42.5402640436737 10 35.5
  endloop
endfacet
facet normal 0 1 -1.06581410364015E-15
  outer loop
    vertex -49.2125 9.99999999999999 0
    vertex -59 10 10
    vertex -54.2125 10 10
  endloop
endfacet
facet normal 0 -1 0
  outer loop
    vertex -34.5 -10 25.5
    vertex -42.5402640436737 -10 35.5
    vertex -37.5402640436737 -10 25.5
  endloop
endfacet
facet normal 6.76437597112929E-16 -1 -7.27595305083686E-16
  outer loop
    vertex -37.5402640436737 -10 25.5
    vertex -54.2125 -10 10
    vertex -49.2125 -9.99999999999999 0
  endloop
endfacet
facet normal 1.08895438430667E-15 -1 0
  outer loop
    vertex -49.2125 -9.99999999999999 0
    vertex -59 -10 10
    vertex -59 -10 0
  endloop
endfacet
facet normal 0 -1 0
  outer loop
    vertex -34.5 -10 25.5
    vertex -34.5 -10 35.5
    vertex -42.5402640436737 -10 35.5
  endloop
endfacet
facet normal 0 -1 0
  outer loop
    vertex -37.5402640436737 -10 25.5
    vertex -42.5402640436737 -10 35.5
    vertex -54.2125 -10 10
  endloop
endfacet
facet normal 0 -1 -1.06581410364015E-15
  outer loop
    vertex -49.2125 -9.99999999999999 0
    vertex -54.2125 -10 10
    vertex -59 -10 10
  endloop
endfacet
facet normal 0 0 1
  outer loop
    vertex -34.5 9.99999999999999 35.5
    vertex -42.5402640436737 10 35.5
    vertex -42.5402640436737 -10 35.5
  endloop
endfacet
facet normal -.909270866605472 0 .416204866793426
  outer loop
    vertex -42.5402640436737 10 35.5
    vertex -54.2125 10 10
    vertex -54.2125 -10 10
  endloop
endfacet
facet normal 0 0 1
  outer loop
    vertex -54.2125 10 10
    vertex -59 10 10
    vertex -59 -10 10
  endloop
endfacet
facet normal 0 0 1
  outer loop
    vertex -34.5 9.99999999999999 35.5
    vertex -42.5402640436737 -10 35.5
    vertex -34.5 -10 35.5
  endloop
endfacet
facet normal -.909270866605472 0 .416204866793426
  outer loop
    vertex -42.5402640436737 10 35.5
    vertex -54.2125 -10 10
    vertex -42.5402640436737 -10 35.5
  endloop
endfacet
facet normal 0 0 1
  outer loop
    vertex -54.2125 10 10
    vertex -59 -10 10
    vertex -54.2125 -10 10
  endloop
endfacet
facet normal 0 0 -1
  outer loop
    vertex -34.5 9.99999999999999 25.5
    vertex -37.5402640436737 -10 25.5
    vertex -37.5402640436737 10 25.5
  endloop
endfacet
facet normal .909270866605472 0 -.416204866793426
  outer loop
    vertex -37.5402640436737 10 25.5
    vertex -49.2125 -9.99999999999999 0
    vertex -49.2125 9.99999999999999 0
  endloop
endfacet
facet normal 0 0 -1
  outer loop
    vertex -49.2125 9.99999999999999 0
    vertex -59 -10 0
    vertex -59 10 0
  endloop
endfacet
facet normal 0 0 -1
  outer loop
    vertex -34.5 9.99999999999999 25.5
    vertex -34.5 -10 25.5
    vertex -37.5402640436737 -10 25.5
  endloop
endfacet
facet normal .909270866605472 0 -.416204866793426
  outer loop
    vertex -37.5402640436737 10 25.5
    vertex -37.5402640436737 -10 25.5
    vertex -49.2125 -9.99999999999999 0
  endloop
endfacet
facet normal 0 0 -1
  outer loop
    vertex -49.2125 9.99999999999999 0
    vertex -49.2125 -9.99999999999999 0
    vertex -59 -10 0
  endloop
endfacet
facet normal -1 0 0
  outer loop
    vertex -59 -27.40157 10
    vertex -59 -27.40157 0
    vertex -59 -47.40157 0
  endloop
endfacet
facet normal -1 0 0
  outer loop
    vertex -59 -27.40157 10
    vertex -59 -47.40157 0
    vertex -59 -47.40157 10
  endloop
endfacet
facet normal 1 0 0
  outer loop
    vertex -34.5 -47.40157 35.5
    vertex -34.5 -47.40157 25.5
    vertex -34.5 -27.40157 25.5
  endloop
endfacet
facet normal 1 0 0
  outer loop
    vertex -34.5 -47.40157 35.5
    vertex -34.5 -27.40157 25.5
    vertex -34.5 -27.40157 35.5
  endloop
endfacet
facet normal 0 1 0
  outer loop
    vertex -34.5 -27.40157 25.5
    vertex -37.5402640436737 -27.40157 25.5
    vertex -42.5402640436737 -27.40157 35.5
  endloop
endfacet
facet normal 0 1 0
  outer loop
    vertex -37.5402640436737 -27.40157 25.5
    vertex -49.2125 -27.40157 0
    vertex -54.2125 -27.40157 10
  endloop
endfacet
facet normal 0 1 0
  outer loop
    vertex -49.2125 -27.40157 0
    vertex -59 -27.40157 0
    vertex -59 -27.40157 10
  endloop
endfacet
facet normal 0 1 0
  outer loop
    vertex -34.5 -27.40157 25.5
    vertex -42.5402640436737 -27.40157 35.5
    vertex -34.5 -27.40157 35.5
  endloop
endfacet
facet normal 0 1 0
  outer loop
    vertex -37.5402640436737 -27.40157 25.5
    vertex -54.2125 -27.40157 10
    vertex -42.5402640436737 -27.40157 35.5
  endloop
endfacet
facet normal 0 1 0
  outer loop
    vertex -49.2125 -27.40157 0
    vertex -59 -27.40157 10
    vertex -54.2125 -27.40157 10
  endloop
endfacet
facet normal 0 -1 0
  outer loop
    vertex -34.5 -47.40157 25.5
    vertex -42.5402640436737 -47.40157 35.5
    vertex -37.5402640436737 -47.40157 25.5
  endloop
endfacet
facet normal 0 -1 0
  outer loop
    vertex -37.5402640436737 -47.40157 25.5
    vertex -54.2125 -47.40157 10
    vertex -49.2125 -47.40157 0
  endloop
endfacet
facet normal 0 -1 0
  outer loop
    vertex -49.2125 -47.40157 0
    vertex -59 -47.40157 10
    vertex -59 -47.40157 0
  endloop
endfacet
facet normal 0 -1 0
  outer loop
    vertex -34.5 -47.40157 25.5
    vertex -34.5 -47.40157 35.5
    vertex -42.5402640436737 -47.40157 35.5
  endloop
endfacet
facet normal 0 -1 0
  outer loop
    vertex -37.5402640436737 -47.40157 25.5
    vertex -42.5402640436737 -47.40157 35.5
    vertex -54.2125 -47.40157 10
  endloop
endfacet
facet normal 0 -1 0
  outer loop
    vertex -49.2125 -47.40157 0
    vertex -54.2125 -47.40157 10
    vertex -59 -47.40157 10
  endloop
endfacet
facet normal 0 0 1
  outer loop
    vertex -34.5 -27.40157 35.5
    vertex -42.5402640436737 -27.40157 35.5
    vertex -42.5402640436737 -47.40157 35.5
  endloop
endfacet
facet normal -.909270866605472 0 .416204866793426
  outer loop
    vertex -42.5402640436737 -27.40157 35.5
    vertex -54.2125 -27.40157 10
    vertex -54.2125 -47.40157 10
  endloop
endfacet
facet normal 0 0 1
  outer loop
    vertex -54.2125 -27.40157 10
    vertex -59 -27.40157 10
    vertex -59 -47.40157 10
  endloop
endfacet
facet normal 0 0 1
  outer loop
    vertex -34.5 -27.40157 35.5
    vertex -42.5402640436737 -47.40157 35.5
    vertex -34.5 -47.40157 35.5
  endloop
endfacet
facet normal -.909270866605472 0 .416204866793426
  outer loop
    vertex -42.5402640436737 -27.40157 35.5
    vertex -54.2125 -47.40157 10
    vertex -42.5402640436737 -47.40157 35.5
  endloop
endfacet
facet normal 0 0 1
  outer loop
    vertex -54.2125 -27.40157 10
    vertex -59 -47.40157 10
    vertex -54.2125 -47.40157 10
  endloop
endfacet
facet normal 0 0 -1
  outer loop
    vertex -34.5 -27.40157 25.5
    vertex -37.5402640436737 -47.40157 25.5
    vertex -37.5402640436737 -27.40157 25.5
  endloop
endfacet
facet normal .909270866605472 0 -.416204866793426
  outer loop
    vertex -37.5402640436737 -27.40157 25.5
    vertex -49.2125 -47.40157 0
    vertex -49.2125 -27.40157 0
  endloop
endfacet
facet normal 0 0 -1
  outer loop
    vertex -49.2125 -27.40157 0
    vertex -59 -47.40157 0
    vertex -59 -27.40157 0
  endloop
endfacet
facet normal 0 0 -1
  outer loop
    vertex -34.5 -27.40157 25.5
    vertex -34.5 -47.40157 25.5
    vertex -37.5402640436737 -47.40157 25.5
  endloop
endfacet
facet normal .909270866605472 0 -.416204866793426
  outer loop
    vertex -37.5402640436737 -27.40157 25.5
    vertex -37.5402640436737 -47.40157 25.5
    vertex -49.2125 -47.40157 0
  endloop
endfacet
facet normal 0 0 -1
  outer loop
    vertex -49.2125 -27.40157 0
    vertex -49.2125 -47.40157 0
    vertex -59 -47.40157 0
  endloop
endfacet
facet normal 1 0 0
  outer loop
    vertex 59 27.401575 10
    vertex 59 27.401575 0
    vertex 59 47.401575 0
  endloop
endfacet
facet normal 1 0 0
  outer loop
    vertex 59 27.401575 10
    vertex 59 47.401575 0
    vertex 59 47.401575 10
  endloop
endfacet
facet normal -1 0 0
  outer loop
    vertex 34.5 47.401575 35.5
    vertex 34.5 47.401575 25.5
    vertex 34.5 27.401575 25.5
  endloop
endfacet
facet normal -1 0 0
  outer loop
    vertex 34.5 47.401575 35.5
    vertex 34.5 27.401575 25.5
    vertex 34.5 27.401575 35.5
  endloop
endfacet
facet normal 0 -1 0
  outer loop
    vertex 34.5 27.401575 25.5
    vertex 37.5402640436737 27.401575 25.5
    vertex 42.5402640436737 27.401575 35.5
  endloop
endfacet
facet normal 0 -1 0
  outer loop
    vertex 37.5402640436737 27.401575 25.5
    vertex 49.2125 27.401575 0
    vertex 54.2125 27.401575 10
  endloop
endfacet
facet normal 0 -1 0
  outer loop
    vertex 49.2125 27.401575 0
    vertex 59 27.401575 0
    vertex 59 27.401575 10
  endloop
endfacet
facet normal 0 -1 0
  outer loop
    vertex 34.5 27.401575 25.5
    vertex 42.5402640436737 27.401575 35.5
    vertex 34.5 27.401575 35.5
  endloop
endfacet
facet normal 0 -1 0
  outer loop
    vertex 37.5402640436737 27.401575 25.5
    vertex 54.2125 27.401575 10
    vertex 42.5402640436737 27.401575 35.5
  endloop
endfacet
facet normal 0 -1 0
  outer loop
    vertex 49.2125 27.401575 0
    vertex 59 27.401575 10
    vertex 54.2125 27.401575 10
  endloop
endfacet
facet normal 0 1 0
  outer loop
    vertex 34.5 47.401575 25.5
    vertex 42.5402640436737 47.401575 35.5
    vertex 37.5402640436737 47.401575 25.5
  endloop
endfacet
facet normal 0 1 0
  outer loop
    vertex 37.5402640436737 47.401575 25.5
    vertex 54.2125 47.401575 10
    vertex 49.2125 47.401575 0
  endloop
endfacet
facet normal 0 1 0
  outer loop
    vertex 49.2125 47.401575 0
    vertex 59 47.401575 10
    vertex 59 47.401575 0
  endloop
endfacet
facet normal 0 1 0
  outer loop
    vertex 34.5 47.401575 25.5
    vertex 34.5 47.401575 35.5
    vertex 42.5402640436737 47.401575 35.5
  endloop
endfacet
facet normal 0 1 0
  outer loop
    vertex 37.5402640436737 47.401575 25.5
    vertex 42.5402640436737 47.401575 35.5
    vertex 54.2125 47.401575 10
  endloop
endfacet
facet normal 0 1 0
  outer loop
    vertex 49.2125 47.401575 0
    vertex 54.2125 47.401575 10
    vertex 59 47.401575 10
  endloop
endfacet
facet normal 0 0 1
  outer loop
    vertex 34.5 27.401575 35.5
    vertex 42.5402640436737 27.401575 35.5
    vertex 42.5402640436737 47.401575 35.5
  endloop
endfacet
facet normal .909270866605472 0 .416204866793426
  outer loop
    vertex 42.5402640436737 27.401575 35.5
    vertex 54.2125 27.401575 10
    vertex 54.2125 47.401575 10
  endloop
endfacet
facet normal 0 0 1
  outer loop
    vertex 54.2125 27.401575 10
    vertex 59 27.401575 10
    vertex 59 47.401575 10
  endloop
endfacet
facet normal 0 0 1
  outer loop
    vertex 34.5 27.401575 35.5
    vertex 42.5402640436737 47.401575 35.5
    vertex 34.5 47.401575 35.5
  endloop
endfacet
facet normal .909270866605472 0 .416204866793426
  outer loop
    vertex 42.5402640436737 27.401575 35.5
    vertex 54.2125 47.401575 10
    vertex 42.5402640436737 47.401575 35.5
  endloop
endfacet
facet normal 0 0 1
  outer loop
    vertex 54.2125 27.401575 10
    vertex 59 47.401575 10
    vertex 54.2125 47.401575 10
  endloop
endfacet
facet normal 0 0 -1
  outer loop
    vertex 34.5 27.401575 25.5
    vertex 37.5402640436737 47.401575 25.5
    vertex 37.5402640436737 27.401575 25.5
  endloop
endfacet
facet normal -.909270866605472 0 -.416204866793426
  outer loop
    vertex 37.5402640436737 27.401575 25.5
    vertex 49.2125 47.401575 0
    vertex 49.2125 27.401575 0
  endloop
endfacet
facet normal 0 0 -1
  outer loop
    vertex 49.2125 27.401575 0
    vertex 59 47.401575 0
    vertex 59 27.401575 0
  endloop
endfacet
facet normal 0 0 -1
  outer loop
    vertex 34.5 27.401575 25.5
    vertex 34.5 47.401575 25.5
    vertex 37.5402640436737 47.401575 25.5
  endloop
endfacet
facet normal -.909270866605472 0 -.416204866793426
  outer loop
    vertex 37.5402640436737 27.401575 25.5
    vertex 37.5402640436737 47.401575 25.5
    vertex 49.2125 47.401575 0
  endloop
endfacet
facet normal 0 0 -1
  outer loop
    vertex 49.2125 27.401575 0
    vertex 49.2125 47.401575 0
    vertex 59 47.401575 0
  endloop
endfacet
facet normal 1 0 0
  outer loop
    vertex 59 -47.401575 10
    vertex 59 -47.401575 0
    vertex 59 -27.401575 0
  endloop
endfacet
facet normal 1 0 0
  outer loop
    vertex 59 -47.401575 10
    vertex 59 -27.401575 0
    vertex 59 -27.401575 10
  endloop
endfacet
facet normal -1 0 0
  outer loop
    vertex 34.5 -27.401575 35.5
    vertex 34.5 -27.401575 25.5
    vertex 34.5 -47.401575 25.5
  endloop
endfacet
facet normal -1 0 0
  outer loop
    vertex 34.5 -27.401575 35.5
    vertex 34.5 -47.401575 25.5
    vertex 34.5 -47.401575 35.5
  endloop
endfacet
facet normal 0 -1 0
  outer loop
    vertex 34.5 -47.401575 25.5
    vertex 37.5402640436737 -47.401575 25.5
    vertex 42.5402640436737 -47.401575 35.5
  endloop
endfacet
facet normal 0 -1 0
  outer loop
    vertex 37.5402640436737 -47.401575 25.5
    vertex 49.2125 -47.401575 0
    vertex 54.2125 -47.401575 10
  endloop
endfacet
facet normal 0 -1 0
  outer loop
    vertex 49.2125 -47.401575 0
    vertex 59 -47.401575 0
    vertex 59 -47.401575 10
  endloop
endfacet
facet normal 0 -1 0
  outer loop
    vertex 34.5 -47.401575 25.5
    vertex 42.5402640436737 -47.401575 35.5
    vertex 34.5 -47.401575 35.5
  endloop
endfacet
facet normal 0 -1 0
  outer loop
    vertex 37.5402640436737 -47.401575 25.5
    vertex 54.2125 -47.401575 10
    vertex 42.5402640436737 -47.401575 35.5
  endloop
endfacet
facet normal 0 -1 0
  outer loop
    vertex 49.2125 -47.401575 0
    vertex 59 -47.401575 10
    vertex 54.2125 -47.401575 10
  endloop
endfacet
facet normal 0 1 0
  outer loop
    vertex 34.5 -27.401575 25.5
    vertex 42.5402640436737 -27.401575 35.5
    vertex 37.5402640436737 -27.401575 25.5
  endloop
endfacet
facet normal 0 1 0
  outer loop
    vertex 37.5402640436737 -27.401575 25.5
    vertex 54.2125 -27.401575 10
    vertex 49.2125 -27.401575 0
  endloop
endfacet
facet normal 0 1 0
  outer loop
    vertex 49.2125 -27.401575 0
    vertex 59 -27.401575 10
    vertex 59 -27.401575 0
  endloop
endfacet
facet normal 0 1 0
  outer loop
    vertex 34.5 -27.401575 25.5
    vertex 34.5 -27.401575 35.5
    vertex 42.5402640436737 -27.401575 35.5
  endloop
endfacet
facet normal 0 1 0
  outer loop
    vertex 37.5402640436737 -27.401575 25.5
    vertex 42.5402640436737 -27.401575 35.5
    vertex 54.2125 -27.401575 10
  endloop
endfacet
facet normal 0 1 0
  outer loop
    vertex 49.2125 -27.401575 0
    vertex 54.2125 -27.401575 10
    vertex 59 -27.401575 10
  endloop
endfacet
facet normal 0 0 1
  outer loop
    vertex 34.5 -47.401575 35.5
    vertex 42.5402640436737 -47.401575 35.5
    vertex 42.5402640436737 -27.401575 35.5
  endloop
endfacet
facet normal .909270866605472 0 .416204866793426
  outer loop
    vertex 42.5402640436737 -47.401575 35.5
    vertex 54.2125 -47.401575 10
    vertex 54.2125 -27.401575 10
  endloop
endfacet
facet normal 0 0 1
  outer loop
    vertex 54.2125 -47.401575 10
    vertex 59 -47.401575 10
    vertex 59 -27.401575 10
  endloop
endfacet
facet normal 0 0 1
  outer loop
    vertex 34.5 -47.401575 35.5
    vertex 42.5402640436737 -27.401575 35.5
    vertex 34.5 -27.401575 35.5
  endloop
endfacet
facet normal .909270866605472 0 .416204866793426
  outer loop
    vertex 42.5402640436737 -47.401575 35.5
    vertex 54.2125 -27.401575 10
    vertex 42.5402640436737 -27.401575 35.5
  endloop
endfacet
facet normal 0 0 1
  outer loop
    vertex 54.2125 -47.401575 10
    vertex 59 -27.401575 10
    vertex 54.2125 -27.401575 10
  endloop
endfacet
facet normal 0 0 -1
  outer loop
    vertex 34.5 -47.401575 25.5
    vertex 37.5402640436737 -27.401575 25.5
    vertex 37.5402640436737 -47.401575 25.5
  endloop
endfacet
facet normal -.909270866605472 0 -.416204866793426
  outer loop
    vertex 37.5402640436737 -47.401575 25.5
    vertex 49.2125 -27.401575 0
    vertex 49.2125 -47.401575 0
  endloop
endfacet
facet normal 0 0 -1
  outer loop
    vertex 49.2125 -47.401575 0
    vertex 59 -27.401575 0
    vertex 59 -47.401575 0
  endloop
endfacet
facet normal 0 0 -1
  outer loop
    vertex 34.5 -47.401575 25.5
    vertex 34.5 -27.401575 25.5
    vertex 37.5402640436737 -27.401575 25.5
  endloop
endfacet
facet normal -.909270866605472 0 -.416204866793426
  outer loop
    vertex 37.5402640436737 -47.401575 25.5
    vertex 37.5402640436737 -27.401575 25.5
    vertex 49.2125 -27.401575 0
  endloop
endfacet
facet normal 0 0 -1
  outer loop
    vertex 49.2125 -47.401575 0
    vertex 49.2125 -27.401575 0
    vertex 59 -27.401575 0
  endloop
endfacet
endsolid SOT23-5L-M
