G04 #@! TF.GenerationSoftware,KiCad,Pcbnew,(5.99.0-1438-g3759799d1)*
G04 #@! TF.CreationDate,2020-05-11T10:33:08+02:00*
G04 #@! TF.ProjectId,Uni_stick,556e695f-7374-4696-936b-2e6b69636164,rev?*
G04 #@! TF.SameCoordinates,Original*
G04 #@! TF.FileFunction,Legend,Top*
G04 #@! TF.FilePolarity,Positive*
%FSLAX46Y46*%
G04 Gerber Fmt 4.6, Leading zero omitted, Abs format (unit mm)*
G04 Created by KiCad (PCBNEW (5.99.0-1438-g3759799d1)) date 2020-05-11 10:33:08*
%MOMM*%
%LPD*%
G01*
G04 APERTURE LIST*
%ADD10C,0.250000*%
%ADD11C,0.120000*%
%ADD12C,0.200000*%
%ADD13C,0.170000*%
%ADD14C,0.228600*%
%ADD15C,0.150000*%
G04 APERTURE END LIST*
D10*
X152557142Y-126842857D02*
X152604761Y-126890476D01*
X152652380Y-127033333D01*
X152652380Y-127128571D01*
X152604761Y-127271428D01*
X152509523Y-127366666D01*
X152414285Y-127414285D01*
X152223809Y-127461904D01*
X152080952Y-127461904D01*
X151890476Y-127414285D01*
X151795238Y-127366666D01*
X151700000Y-127271428D01*
X151652380Y-127128571D01*
X151652380Y-127033333D01*
X151700000Y-126890476D01*
X151747619Y-126842857D01*
X152366666Y-126461904D02*
X152366666Y-125985714D01*
X152652380Y-126557142D02*
X151652380Y-126223809D01*
X152652380Y-125890476D01*
X152652380Y-125557142D02*
X151652380Y-125557142D01*
X152652380Y-124985714D01*
X151652380Y-124985714D01*
D11*
X138990000Y-50910000D02*
X147050000Y-50910000D01*
X138990000Y-46390000D02*
X138990000Y-50910000D01*
X147050000Y-46390000D02*
X138990000Y-46390000D01*
X141562779Y-53240000D02*
X141237221Y-53240000D01*
X141562779Y-54260000D02*
X141237221Y-54260000D01*
D12*
X143100000Y-65800000D02*
X148100000Y-65800000D01*
X143100000Y-60800000D02*
X148100000Y-60800000D01*
X148100000Y-65800000D02*
X148100000Y-64600000D01*
X148100000Y-60800000D02*
X148100000Y-62000000D01*
X142365000Y-64461000D02*
G75*
G03*
X142365000Y-64461000I-22000J0D01*
G01*
D11*
X95650155Y-51549647D02*
G75*
G03*
X95650000Y-50050000I-1700155J749647D01*
G01*
X95650155Y-55049647D02*
G75*
G03*
X95650000Y-53550000I-1700155J749647D01*
G01*
X95650155Y-58549647D02*
G75*
G03*
X95650000Y-57050000I-1700155J749647D01*
G01*
X95650155Y-62049647D02*
G75*
G03*
X95650000Y-60550000I-1700155J749647D01*
G01*
X102260000Y-48240000D02*
X94790000Y-48240000D01*
X94790000Y-48240000D02*
X94790000Y-63860000D01*
X94790000Y-63860000D02*
X102260000Y-63860000D01*
X102260000Y-63860000D02*
X102260000Y-48240000D01*
X95650000Y-50050000D02*
X95650000Y-49300000D01*
X95650000Y-49300000D02*
X99950000Y-49300000D01*
X99950000Y-49300000D02*
X99950000Y-50050000D01*
X99950000Y-50050000D02*
X100300000Y-50050000D01*
X100300000Y-50050000D02*
X100300000Y-49550000D01*
X100300000Y-49550000D02*
X101300000Y-49300000D01*
X101300000Y-49300000D02*
X101300000Y-52300000D01*
X101300000Y-52300000D02*
X100300000Y-52050000D01*
X100300000Y-52050000D02*
X100300000Y-51550000D01*
X100300000Y-51550000D02*
X99950000Y-51550000D01*
X99950000Y-51550000D02*
X99950000Y-52300000D01*
X99950000Y-52300000D02*
X95650000Y-52300000D01*
X95650000Y-52300000D02*
X95650000Y-51550000D01*
X95650000Y-53550000D02*
X95650000Y-52800000D01*
X95650000Y-52800000D02*
X99950000Y-52800000D01*
X99950000Y-52800000D02*
X99950000Y-53550000D01*
X99950000Y-53550000D02*
X100300000Y-53550000D01*
X100300000Y-53550000D02*
X100300000Y-53050000D01*
X100300000Y-53050000D02*
X101300000Y-52800000D01*
X101300000Y-52800000D02*
X101300000Y-55800000D01*
X101300000Y-55800000D02*
X100300000Y-55550000D01*
X100300000Y-55550000D02*
X100300000Y-55050000D01*
X100300000Y-55050000D02*
X99950000Y-55050000D01*
X99950000Y-55050000D02*
X99950000Y-55800000D01*
X99950000Y-55800000D02*
X95650000Y-55800000D01*
X95650000Y-55800000D02*
X95650000Y-55050000D01*
X95650000Y-57050000D02*
X95650000Y-56300000D01*
X95650000Y-56300000D02*
X99950000Y-56300000D01*
X99950000Y-56300000D02*
X99950000Y-57050000D01*
X99950000Y-57050000D02*
X100300000Y-57050000D01*
X100300000Y-57050000D02*
X100300000Y-56550000D01*
X100300000Y-56550000D02*
X101300000Y-56300000D01*
X101300000Y-56300000D02*
X101300000Y-59300000D01*
X101300000Y-59300000D02*
X100300000Y-59050000D01*
X100300000Y-59050000D02*
X100300000Y-58550000D01*
X100300000Y-58550000D02*
X99950000Y-58550000D01*
X99950000Y-58550000D02*
X99950000Y-59300000D01*
X99950000Y-59300000D02*
X95650000Y-59300000D01*
X95650000Y-59300000D02*
X95650000Y-58550000D01*
X95650000Y-60550000D02*
X95650000Y-59800000D01*
X95650000Y-59800000D02*
X99950000Y-59800000D01*
X99950000Y-59800000D02*
X99950000Y-60550000D01*
X99950000Y-60550000D02*
X100300000Y-60550000D01*
X100300000Y-60550000D02*
X100300000Y-60050000D01*
X100300000Y-60050000D02*
X101300000Y-59800000D01*
X101300000Y-59800000D02*
X101300000Y-62800000D01*
X101300000Y-62800000D02*
X100300000Y-62550000D01*
X100300000Y-62550000D02*
X100300000Y-62050000D01*
X100300000Y-62050000D02*
X99950000Y-62050000D01*
X99950000Y-62050000D02*
X99950000Y-62800000D01*
X99950000Y-62800000D02*
X95650000Y-62800000D01*
X95650000Y-62800000D02*
X95650000Y-62050000D01*
X101400000Y-47850000D02*
X102650000Y-47850000D01*
X102650000Y-47850000D02*
X102650000Y-49850000D01*
D13*
X152000000Y-124270000D02*
X152000000Y-108870000D01*
X146800000Y-124270000D02*
X146800000Y-108870000D01*
X152000000Y-124270000D02*
X146800000Y-124270000D01*
X152000000Y-108870000D02*
X146800000Y-108870000D01*
D11*
X147560000Y-43712779D02*
X147560000Y-43387221D01*
X146540000Y-43712779D02*
X146540000Y-43387221D01*
X150397936Y-44760000D02*
X151602064Y-44760000D01*
X150397936Y-42940000D02*
X151602064Y-42940000D01*
X153060000Y-49552064D02*
X153060000Y-48347936D01*
X151240000Y-49552064D02*
X151240000Y-48347936D01*
X151912779Y-58940000D02*
X151587221Y-58940000D01*
X151912779Y-59960000D02*
X151587221Y-59960000D01*
X151240000Y-54297936D02*
X151240000Y-55502064D01*
X153060000Y-54297936D02*
X153060000Y-55502064D01*
D10*
X145125000Y-53400000D02*
G75*
G03*
X145125000Y-53400000I-125000J0D01*
G01*
D11*
X95650155Y-77249647D02*
G75*
G03*
X95650000Y-75750000I-1700155J749647D01*
G01*
X95650155Y-80749647D02*
G75*
G03*
X95650000Y-79250000I-1700155J749647D01*
G01*
X95650155Y-84249647D02*
G75*
G03*
X95650000Y-82750000I-1700155J749647D01*
G01*
X95650155Y-87749647D02*
G75*
G03*
X95650000Y-86250000I-1700155J749647D01*
G01*
X102260000Y-73940000D02*
X94790000Y-73940000D01*
X94790000Y-73940000D02*
X94790000Y-89560000D01*
X94790000Y-89560000D02*
X102260000Y-89560000D01*
X102260000Y-89560000D02*
X102260000Y-73940000D01*
X95650000Y-75750000D02*
X95650000Y-75000000D01*
X95650000Y-75000000D02*
X99950000Y-75000000D01*
X99950000Y-75000000D02*
X99950000Y-75750000D01*
X99950000Y-75750000D02*
X100300000Y-75750000D01*
X100300000Y-75750000D02*
X100300000Y-75250000D01*
X100300000Y-75250000D02*
X101300000Y-75000000D01*
X101300000Y-75000000D02*
X101300000Y-78000000D01*
X101300000Y-78000000D02*
X100300000Y-77750000D01*
X100300000Y-77750000D02*
X100300000Y-77250000D01*
X100300000Y-77250000D02*
X99950000Y-77250000D01*
X99950000Y-77250000D02*
X99950000Y-78000000D01*
X99950000Y-78000000D02*
X95650000Y-78000000D01*
X95650000Y-78000000D02*
X95650000Y-77250000D01*
X95650000Y-79250000D02*
X95650000Y-78500000D01*
X95650000Y-78500000D02*
X99950000Y-78500000D01*
X99950000Y-78500000D02*
X99950000Y-79250000D01*
X99950000Y-79250000D02*
X100300000Y-79250000D01*
X100300000Y-79250000D02*
X100300000Y-78750000D01*
X100300000Y-78750000D02*
X101300000Y-78500000D01*
X101300000Y-78500000D02*
X101300000Y-81500000D01*
X101300000Y-81500000D02*
X100300000Y-81250000D01*
X100300000Y-81250000D02*
X100300000Y-80750000D01*
X100300000Y-80750000D02*
X99950000Y-80750000D01*
X99950000Y-80750000D02*
X99950000Y-81500000D01*
X99950000Y-81500000D02*
X95650000Y-81500000D01*
X95650000Y-81500000D02*
X95650000Y-80750000D01*
X95650000Y-82750000D02*
X95650000Y-82000000D01*
X95650000Y-82000000D02*
X99950000Y-82000000D01*
X99950000Y-82000000D02*
X99950000Y-82750000D01*
X99950000Y-82750000D02*
X100300000Y-82750000D01*
X100300000Y-82750000D02*
X100300000Y-82250000D01*
X100300000Y-82250000D02*
X101300000Y-82000000D01*
X101300000Y-82000000D02*
X101300000Y-85000000D01*
X101300000Y-85000000D02*
X100300000Y-84750000D01*
X100300000Y-84750000D02*
X100300000Y-84250000D01*
X100300000Y-84250000D02*
X99950000Y-84250000D01*
X99950000Y-84250000D02*
X99950000Y-85000000D01*
X99950000Y-85000000D02*
X95650000Y-85000000D01*
X95650000Y-85000000D02*
X95650000Y-84250000D01*
X95650000Y-86250000D02*
X95650000Y-85500000D01*
X95650000Y-85500000D02*
X99950000Y-85500000D01*
X99950000Y-85500000D02*
X99950000Y-86250000D01*
X99950000Y-86250000D02*
X100300000Y-86250000D01*
X100300000Y-86250000D02*
X100300000Y-85750000D01*
X100300000Y-85750000D02*
X101300000Y-85500000D01*
X101300000Y-85500000D02*
X101300000Y-88500000D01*
X101300000Y-88500000D02*
X100300000Y-88250000D01*
X100300000Y-88250000D02*
X100300000Y-87750000D01*
X100300000Y-87750000D02*
X99950000Y-87750000D01*
X99950000Y-87750000D02*
X99950000Y-88500000D01*
X99950000Y-88500000D02*
X95650000Y-88500000D01*
X95650000Y-88500000D02*
X95650000Y-87750000D01*
X101400000Y-73550000D02*
X102650000Y-73550000D01*
X102650000Y-73550000D02*
X102650000Y-75550000D01*
X95650155Y-93949647D02*
G75*
G03*
X95650000Y-92450000I-1700155J749647D01*
G01*
X95650155Y-97449647D02*
G75*
G03*
X95650000Y-95950000I-1700155J749647D01*
G01*
X95650155Y-100949647D02*
G75*
G03*
X95650000Y-99450000I-1700155J749647D01*
G01*
X95650155Y-104449647D02*
G75*
G03*
X95650000Y-102950000I-1700155J749647D01*
G01*
X102260000Y-90640000D02*
X94790000Y-90640000D01*
X94790000Y-90640000D02*
X94790000Y-106260000D01*
X94790000Y-106260000D02*
X102260000Y-106260000D01*
X102260000Y-106260000D02*
X102260000Y-90640000D01*
X95650000Y-92450000D02*
X95650000Y-91700000D01*
X95650000Y-91700000D02*
X99950000Y-91700000D01*
X99950000Y-91700000D02*
X99950000Y-92450000D01*
X99950000Y-92450000D02*
X100300000Y-92450000D01*
X100300000Y-92450000D02*
X100300000Y-91950000D01*
X100300000Y-91950000D02*
X101300000Y-91700000D01*
X101300000Y-91700000D02*
X101300000Y-94700000D01*
X101300000Y-94700000D02*
X100300000Y-94450000D01*
X100300000Y-94450000D02*
X100300000Y-93950000D01*
X100300000Y-93950000D02*
X99950000Y-93950000D01*
X99950000Y-93950000D02*
X99950000Y-94700000D01*
X99950000Y-94700000D02*
X95650000Y-94700000D01*
X95650000Y-94700000D02*
X95650000Y-93950000D01*
X95650000Y-95950000D02*
X95650000Y-95200000D01*
X95650000Y-95200000D02*
X99950000Y-95200000D01*
X99950000Y-95200000D02*
X99950000Y-95950000D01*
X99950000Y-95950000D02*
X100300000Y-95950000D01*
X100300000Y-95950000D02*
X100300000Y-95450000D01*
X100300000Y-95450000D02*
X101300000Y-95200000D01*
X101300000Y-95200000D02*
X101300000Y-98200000D01*
X101300000Y-98200000D02*
X100300000Y-97950000D01*
X100300000Y-97950000D02*
X100300000Y-97450000D01*
X100300000Y-97450000D02*
X99950000Y-97450000D01*
X99950000Y-97450000D02*
X99950000Y-98200000D01*
X99950000Y-98200000D02*
X95650000Y-98200000D01*
X95650000Y-98200000D02*
X95650000Y-97450000D01*
X95650000Y-99450000D02*
X95650000Y-98700000D01*
X95650000Y-98700000D02*
X99950000Y-98700000D01*
X99950000Y-98700000D02*
X99950000Y-99450000D01*
X99950000Y-99450000D02*
X100300000Y-99450000D01*
X100300000Y-99450000D02*
X100300000Y-98950000D01*
X100300000Y-98950000D02*
X101300000Y-98700000D01*
X101300000Y-98700000D02*
X101300000Y-101700000D01*
X101300000Y-101700000D02*
X100300000Y-101450000D01*
X100300000Y-101450000D02*
X100300000Y-100950000D01*
X100300000Y-100950000D02*
X99950000Y-100950000D01*
X99950000Y-100950000D02*
X99950000Y-101700000D01*
X99950000Y-101700000D02*
X95650000Y-101700000D01*
X95650000Y-101700000D02*
X95650000Y-100950000D01*
X95650000Y-102950000D02*
X95650000Y-102200000D01*
X95650000Y-102200000D02*
X99950000Y-102200000D01*
X99950000Y-102200000D02*
X99950000Y-102950000D01*
X99950000Y-102950000D02*
X100300000Y-102950000D01*
X100300000Y-102950000D02*
X100300000Y-102450000D01*
X100300000Y-102450000D02*
X101300000Y-102200000D01*
X101300000Y-102200000D02*
X101300000Y-105200000D01*
X101300000Y-105200000D02*
X100300000Y-104950000D01*
X100300000Y-104950000D02*
X100300000Y-104450000D01*
X100300000Y-104450000D02*
X99950000Y-104450000D01*
X99950000Y-104450000D02*
X99950000Y-105200000D01*
X99950000Y-105200000D02*
X95650000Y-105200000D01*
X95650000Y-105200000D02*
X95650000Y-104450000D01*
X101400000Y-90250000D02*
X102650000Y-90250000D01*
X102650000Y-90250000D02*
X102650000Y-92250000D01*
X95650155Y-110649647D02*
G75*
G03*
X95650000Y-109150000I-1700155J749647D01*
G01*
X95650155Y-114149647D02*
G75*
G03*
X95650000Y-112650000I-1700155J749647D01*
G01*
X95650155Y-117649647D02*
G75*
G03*
X95650000Y-116150000I-1700155J749647D01*
G01*
X95650155Y-121149647D02*
G75*
G03*
X95650000Y-119650000I-1700155J749647D01*
G01*
X102260000Y-107340000D02*
X94790000Y-107340000D01*
X94790000Y-107340000D02*
X94790000Y-122960000D01*
X94790000Y-122960000D02*
X102260000Y-122960000D01*
X102260000Y-122960000D02*
X102260000Y-107340000D01*
X95650000Y-109150000D02*
X95650000Y-108400000D01*
X95650000Y-108400000D02*
X99950000Y-108400000D01*
X99950000Y-108400000D02*
X99950000Y-109150000D01*
X99950000Y-109150000D02*
X100300000Y-109150000D01*
X100300000Y-109150000D02*
X100300000Y-108650000D01*
X100300000Y-108650000D02*
X101300000Y-108400000D01*
X101300000Y-108400000D02*
X101300000Y-111400000D01*
X101300000Y-111400000D02*
X100300000Y-111150000D01*
X100300000Y-111150000D02*
X100300000Y-110650000D01*
X100300000Y-110650000D02*
X99950000Y-110650000D01*
X99950000Y-110650000D02*
X99950000Y-111400000D01*
X99950000Y-111400000D02*
X95650000Y-111400000D01*
X95650000Y-111400000D02*
X95650000Y-110650000D01*
X95650000Y-112650000D02*
X95650000Y-111900000D01*
X95650000Y-111900000D02*
X99950000Y-111900000D01*
X99950000Y-111900000D02*
X99950000Y-112650000D01*
X99950000Y-112650000D02*
X100300000Y-112650000D01*
X100300000Y-112650000D02*
X100300000Y-112150000D01*
X100300000Y-112150000D02*
X101300000Y-111900000D01*
X101300000Y-111900000D02*
X101300000Y-114900000D01*
X101300000Y-114900000D02*
X100300000Y-114650000D01*
X100300000Y-114650000D02*
X100300000Y-114150000D01*
X100300000Y-114150000D02*
X99950000Y-114150000D01*
X99950000Y-114150000D02*
X99950000Y-114900000D01*
X99950000Y-114900000D02*
X95650000Y-114900000D01*
X95650000Y-114900000D02*
X95650000Y-114150000D01*
X95650000Y-116150000D02*
X95650000Y-115400000D01*
X95650000Y-115400000D02*
X99950000Y-115400000D01*
X99950000Y-115400000D02*
X99950000Y-116150000D01*
X99950000Y-116150000D02*
X100300000Y-116150000D01*
X100300000Y-116150000D02*
X100300000Y-115650000D01*
X100300000Y-115650000D02*
X101300000Y-115400000D01*
X101300000Y-115400000D02*
X101300000Y-118400000D01*
X101300000Y-118400000D02*
X100300000Y-118150000D01*
X100300000Y-118150000D02*
X100300000Y-117650000D01*
X100300000Y-117650000D02*
X99950000Y-117650000D01*
X99950000Y-117650000D02*
X99950000Y-118400000D01*
X99950000Y-118400000D02*
X95650000Y-118400000D01*
X95650000Y-118400000D02*
X95650000Y-117650000D01*
X95650000Y-119650000D02*
X95650000Y-118900000D01*
X95650000Y-118900000D02*
X99950000Y-118900000D01*
X99950000Y-118900000D02*
X99950000Y-119650000D01*
X99950000Y-119650000D02*
X100300000Y-119650000D01*
X100300000Y-119650000D02*
X100300000Y-119150000D01*
X100300000Y-119150000D02*
X101300000Y-118900000D01*
X101300000Y-118900000D02*
X101300000Y-121900000D01*
X101300000Y-121900000D02*
X100300000Y-121650000D01*
X100300000Y-121650000D02*
X100300000Y-121150000D01*
X100300000Y-121150000D02*
X99950000Y-121150000D01*
X99950000Y-121150000D02*
X99950000Y-121900000D01*
X99950000Y-121900000D02*
X95650000Y-121900000D01*
X95650000Y-121900000D02*
X95650000Y-121150000D01*
X101400000Y-106950000D02*
X102650000Y-106950000D01*
X102650000Y-106950000D02*
X102650000Y-108950000D01*
D14*
X135154000Y-109600000D02*
G75*
G03*
X135154000Y-109600000I-254000J0D01*
G01*
X135360000Y-106380000D02*
X115040000Y-106380000D01*
X115040000Y-106380000D02*
X115040000Y-121620000D01*
X115040000Y-121620000D02*
X135360000Y-121620000D01*
X135360000Y-121620000D02*
X135360000Y-106380000D01*
X135154000Y-58600000D02*
G75*
G03*
X135154000Y-58600000I-254000J0D01*
G01*
X135360000Y-55380000D02*
X115040000Y-55380000D01*
X115040000Y-55380000D02*
X115040000Y-70620000D01*
X115040000Y-70620000D02*
X135360000Y-70620000D01*
X135360000Y-70620000D02*
X135360000Y-55380000D01*
X135154000Y-84100000D02*
G75*
G03*
X135154000Y-84100000I-254000J0D01*
G01*
X135360000Y-80880000D02*
X115040000Y-80880000D01*
X115040000Y-80880000D02*
X115040000Y-96120000D01*
X115040000Y-96120000D02*
X135360000Y-96120000D01*
X135360000Y-96120000D02*
X135360000Y-80880000D01*
D11*
X148690000Y-72037221D02*
X148690000Y-72362779D01*
X149710000Y-72037221D02*
X149710000Y-72362779D01*
X146190000Y-72037221D02*
X146190000Y-72362779D01*
X147210000Y-72037221D02*
X147210000Y-72362779D01*
X139490000Y-60037221D02*
X139490000Y-60362779D01*
X140510000Y-60037221D02*
X140510000Y-60362779D01*
X140062779Y-55790000D02*
X139737221Y-55790000D01*
X140062779Y-56810000D02*
X139737221Y-56810000D01*
X128037221Y-72810000D02*
X128362779Y-72810000D01*
X128037221Y-71790000D02*
X128362779Y-71790000D01*
X128037221Y-75110000D02*
X128362779Y-75110000D01*
X128037221Y-74090000D02*
X128362779Y-74090000D01*
X128037221Y-98310000D02*
X128362779Y-98310000D01*
X128037221Y-97290000D02*
X128362779Y-97290000D01*
X128037221Y-100610000D02*
X128362779Y-100610000D01*
X128037221Y-99590000D02*
X128362779Y-99590000D01*
X128049721Y-126110000D02*
X128375279Y-126110000D01*
X128049721Y-125090000D02*
X128375279Y-125090000D01*
X116600000Y-71650000D02*
G75*
G02*
X117300000Y-72350000I0J-700000D01*
G01*
X115300000Y-72350000D02*
G75*
G02*
X116000000Y-71650000I700000J0D01*
G01*
X116000000Y-75750000D02*
G75*
G02*
X115300000Y-75050000I0J700000D01*
G01*
X117300000Y-75050000D02*
G75*
G02*
X116600000Y-75750000I-700000J0D01*
G01*
X117300000Y-72300000D02*
X117300000Y-75100000D01*
X116600000Y-75750000D02*
X116000000Y-75750000D01*
X115300000Y-75100000D02*
X115300000Y-72300000D01*
X116000000Y-71650000D02*
X116600000Y-71650000D01*
X115100000Y-72500000D02*
X114800000Y-72200000D01*
X114800000Y-72200000D02*
X114800000Y-72800000D01*
X115100000Y-72500000D02*
X114800000Y-72800000D01*
X120400000Y-71650000D02*
G75*
G02*
X121100000Y-72350000I0J-700000D01*
G01*
X119100000Y-72350000D02*
G75*
G02*
X119800000Y-71650000I700000J0D01*
G01*
X119800000Y-75750000D02*
G75*
G02*
X119100000Y-75050000I0J700000D01*
G01*
X121100000Y-75050000D02*
G75*
G02*
X120400000Y-75750000I-700000J0D01*
G01*
X121100000Y-72300000D02*
X121100000Y-75100000D01*
X120400000Y-75750000D02*
X119800000Y-75750000D01*
X119100000Y-75100000D02*
X119100000Y-72300000D01*
X119800000Y-71650000D02*
X120400000Y-71650000D01*
X118900000Y-72500000D02*
X118600000Y-72200000D01*
X118600000Y-72200000D02*
X118600000Y-72800000D01*
X118900000Y-72500000D02*
X118600000Y-72800000D01*
X124200000Y-71650000D02*
G75*
G02*
X124900000Y-72350000I0J-700000D01*
G01*
X122900000Y-72350000D02*
G75*
G02*
X123600000Y-71650000I700000J0D01*
G01*
X123600000Y-75750000D02*
G75*
G02*
X122900000Y-75050000I0J700000D01*
G01*
X124900000Y-75050000D02*
G75*
G02*
X124200000Y-75750000I-700000J0D01*
G01*
X124900000Y-72300000D02*
X124900000Y-75100000D01*
X124200000Y-75750000D02*
X123600000Y-75750000D01*
X122900000Y-75100000D02*
X122900000Y-72300000D01*
X123600000Y-71650000D02*
X124200000Y-71650000D01*
X122700000Y-72500000D02*
X122400000Y-72200000D01*
X122400000Y-72200000D02*
X122400000Y-72800000D01*
X122700000Y-72500000D02*
X122400000Y-72800000D01*
X116600000Y-97150000D02*
G75*
G02*
X117300000Y-97850000I0J-700000D01*
G01*
X115300000Y-97850000D02*
G75*
G02*
X116000000Y-97150000I700000J0D01*
G01*
X116000000Y-101250000D02*
G75*
G02*
X115300000Y-100550000I0J700000D01*
G01*
X117300000Y-100550000D02*
G75*
G02*
X116600000Y-101250000I-700000J0D01*
G01*
X117300000Y-97800000D02*
X117300000Y-100600000D01*
X116600000Y-101250000D02*
X116000000Y-101250000D01*
X115300000Y-100600000D02*
X115300000Y-97800000D01*
X116000000Y-97150000D02*
X116600000Y-97150000D01*
X115100000Y-98000000D02*
X114800000Y-97700000D01*
X114800000Y-97700000D02*
X114800000Y-98300000D01*
X115100000Y-98000000D02*
X114800000Y-98300000D01*
X120500000Y-97150000D02*
G75*
G02*
X121200000Y-97850000I0J-700000D01*
G01*
X119200000Y-97850000D02*
G75*
G02*
X119900000Y-97150000I700000J0D01*
G01*
X119900000Y-101250000D02*
G75*
G02*
X119200000Y-100550000I0J700000D01*
G01*
X121200000Y-100550000D02*
G75*
G02*
X120500000Y-101250000I-700000J0D01*
G01*
X121200000Y-97800000D02*
X121200000Y-100600000D01*
X120500000Y-101250000D02*
X119900000Y-101250000D01*
X119200000Y-100600000D02*
X119200000Y-97800000D01*
X119900000Y-97150000D02*
X120500000Y-97150000D01*
X119000000Y-98000000D02*
X118700000Y-97700000D01*
X118700000Y-97700000D02*
X118700000Y-98300000D01*
X119000000Y-98000000D02*
X118700000Y-98300000D01*
X124200000Y-97150000D02*
G75*
G02*
X124900000Y-97850000I0J-700000D01*
G01*
X122900000Y-97850000D02*
G75*
G02*
X123600000Y-97150000I700000J0D01*
G01*
X123600000Y-101250000D02*
G75*
G02*
X122900000Y-100550000I0J700000D01*
G01*
X124900000Y-100550000D02*
G75*
G02*
X124200000Y-101250000I-700000J0D01*
G01*
X124900000Y-97800000D02*
X124900000Y-100600000D01*
X124200000Y-101250000D02*
X123600000Y-101250000D01*
X122900000Y-100600000D02*
X122900000Y-97800000D01*
X123600000Y-97150000D02*
X124200000Y-97150000D01*
X122700000Y-98000000D02*
X122400000Y-97700000D01*
X122400000Y-97700000D02*
X122400000Y-98300000D01*
X122700000Y-98000000D02*
X122400000Y-98300000D01*
X116500000Y-122650000D02*
G75*
G02*
X117200000Y-123350000I0J-700000D01*
G01*
X115200000Y-123350000D02*
G75*
G02*
X115900000Y-122650000I700000J0D01*
G01*
X115900000Y-126750000D02*
G75*
G02*
X115200000Y-126050000I0J700000D01*
G01*
X117200000Y-126050000D02*
G75*
G02*
X116500000Y-126750000I-700000J0D01*
G01*
X117200000Y-123300000D02*
X117200000Y-126100000D01*
X116500000Y-126750000D02*
X115900000Y-126750000D01*
X115200000Y-126100000D02*
X115200000Y-123300000D01*
X115900000Y-122650000D02*
X116500000Y-122650000D01*
X115000000Y-123500000D02*
X114700000Y-123200000D01*
X114700000Y-123200000D02*
X114700000Y-123800000D01*
X115000000Y-123500000D02*
X114700000Y-123800000D01*
X120500000Y-122650000D02*
G75*
G02*
X121200000Y-123350000I0J-700000D01*
G01*
X119200000Y-123350000D02*
G75*
G02*
X119900000Y-122650000I700000J0D01*
G01*
X119900000Y-126750000D02*
G75*
G02*
X119200000Y-126050000I0J700000D01*
G01*
X121200000Y-126050000D02*
G75*
G02*
X120500000Y-126750000I-700000J0D01*
G01*
X121200000Y-123300000D02*
X121200000Y-126100000D01*
X120500000Y-126750000D02*
X119900000Y-126750000D01*
X119200000Y-126100000D02*
X119200000Y-123300000D01*
X119900000Y-122650000D02*
X120500000Y-122650000D01*
X119000000Y-123500000D02*
X118700000Y-123200000D01*
X118700000Y-123200000D02*
X118700000Y-123800000D01*
X119000000Y-123500000D02*
X118700000Y-123800000D01*
X124250000Y-122650000D02*
G75*
G02*
X124950000Y-123350000I0J-700000D01*
G01*
X122950000Y-123350000D02*
G75*
G02*
X123650000Y-122650000I700000J0D01*
G01*
X123650000Y-126750000D02*
G75*
G02*
X122950000Y-126050000I0J700000D01*
G01*
X124950000Y-126050000D02*
G75*
G02*
X124250000Y-126750000I-700000J0D01*
G01*
X124950000Y-123300000D02*
X124950000Y-126100000D01*
X124250000Y-126750000D02*
X123650000Y-126750000D01*
X122950000Y-126100000D02*
X122950000Y-123300000D01*
X123650000Y-122650000D02*
X124250000Y-122650000D01*
X122750000Y-123500000D02*
X122450000Y-123200000D01*
X122450000Y-123200000D02*
X122450000Y-123800000D01*
X122750000Y-123500000D02*
X122450000Y-123800000D01*
D15*
X137250000Y-74595000D02*
X137250000Y-106705000D01*
X156450000Y-74595000D02*
X137250000Y-74595000D01*
X156450000Y-74595000D02*
X156450000Y-106705000D01*
X156450000Y-106705000D02*
X137250000Y-106705000D01*
D11*
X111862779Y-108590000D02*
X111537221Y-108590000D01*
X111862779Y-109610000D02*
X111537221Y-109610000D01*
X137690000Y-53162779D02*
X137690000Y-52837221D01*
X138710000Y-53162779D02*
X138710000Y-52837221D01*
X113810000Y-60140000D02*
X105750000Y-60140000D01*
X113810000Y-64660000D02*
X113810000Y-60140000D01*
X105750000Y-64660000D02*
X113810000Y-64660000D01*
X113810000Y-66140000D02*
X105750000Y-66140000D01*
X113810000Y-70660000D02*
X113810000Y-66140000D01*
X105750000Y-70660000D02*
X113810000Y-70660000D01*
X137510000Y-60962779D02*
X137510000Y-60637221D01*
X136490000Y-60962779D02*
X136490000Y-60637221D01*
X111862779Y-57590000D02*
X111537221Y-57590000D01*
X111862779Y-58610000D02*
X111537221Y-58610000D01*
X136810000Y-88762779D02*
X136810000Y-88437221D01*
X135790000Y-88762779D02*
X135790000Y-88437221D01*
X113810000Y-91640000D02*
X105750000Y-91640000D01*
X113810000Y-96160000D02*
X113810000Y-91640000D01*
X105750000Y-96160000D02*
X113810000Y-96160000D01*
X113810000Y-85640000D02*
X105750000Y-85640000D01*
X113810000Y-90160000D02*
X113810000Y-85640000D01*
X105750000Y-90160000D02*
X113810000Y-90160000D01*
X133737221Y-79610000D02*
X134062779Y-79610000D01*
X133737221Y-78590000D02*
X134062779Y-78590000D01*
X111862779Y-83090000D02*
X111537221Y-83090000D01*
X111862779Y-84110000D02*
X111537221Y-84110000D01*
X113810000Y-117040000D02*
X105750000Y-117040000D01*
X113810000Y-121560000D02*
X113810000Y-117040000D01*
X105750000Y-121560000D02*
X113810000Y-121560000D01*
X113810000Y-111140000D02*
X105750000Y-111140000D01*
X113810000Y-115660000D02*
X113810000Y-111140000D01*
X105750000Y-115660000D02*
X113810000Y-115660000D01*
X133837221Y-105110000D02*
X134162779Y-105110000D01*
X133837221Y-104090000D02*
X134162779Y-104090000D01*
X130830000Y-79330000D02*
X130830000Y-76670000D01*
X118070000Y-79330000D02*
X130830000Y-79330000D01*
X118070000Y-76670000D02*
X130830000Y-76670000D01*
X118070000Y-79330000D02*
X118070000Y-76670000D01*
X116800000Y-79330000D02*
X115470000Y-79330000D01*
X115470000Y-79330000D02*
X115470000Y-78000000D01*
X130830000Y-104830000D02*
X130830000Y-102170000D01*
X118070000Y-104830000D02*
X130830000Y-104830000D01*
X118070000Y-102170000D02*
X130830000Y-102170000D01*
X118070000Y-104830000D02*
X118070000Y-102170000D01*
X116800000Y-104830000D02*
X115470000Y-104830000D01*
X115470000Y-104830000D02*
X115470000Y-103500000D01*
X128049721Y-122590000D02*
X128375279Y-122590000D01*
X128049721Y-123610000D02*
X128375279Y-123610000D01*
X130730000Y-130330000D02*
X130730000Y-127670000D01*
X117970000Y-130330000D02*
X130730000Y-130330000D01*
X117970000Y-127670000D02*
X130730000Y-127670000D01*
X117970000Y-130330000D02*
X117970000Y-127670000D01*
X116700000Y-130330000D02*
X115370000Y-130330000D01*
X115370000Y-130330000D02*
X115370000Y-129000000D01*
D15*
X137105000Y-35200000D02*
X137105000Y-54400000D01*
X104995000Y-35200000D02*
X137105000Y-35200000D01*
X104995000Y-35200000D02*
X104995000Y-54400000D01*
X104995000Y-54400000D02*
X137105000Y-54400000D01*
X142757142Y-45907142D02*
X142709523Y-45954761D01*
X142566666Y-46002380D01*
X142471428Y-46002380D01*
X142328571Y-45954761D01*
X142233333Y-45859523D01*
X142185714Y-45764285D01*
X142138095Y-45573809D01*
X142138095Y-45430952D01*
X142185714Y-45240476D01*
X142233333Y-45145238D01*
X142328571Y-45050000D01*
X142471428Y-45002380D01*
X142566666Y-45002380D01*
X142709523Y-45050000D01*
X142757142Y-45097619D01*
X143709523Y-46002380D02*
X143138095Y-46002380D01*
X143423809Y-46002380D02*
X143423809Y-45002380D01*
X143328571Y-45145238D01*
X143233333Y-45240476D01*
X143138095Y-45288095D01*
X144614285Y-45002380D02*
X144138095Y-45002380D01*
X144090476Y-45478571D01*
X144138095Y-45430952D01*
X144233333Y-45383333D01*
X144471428Y-45383333D01*
X144566666Y-45430952D01*
X144614285Y-45478571D01*
X144661904Y-45573809D01*
X144661904Y-45811904D01*
X144614285Y-45907142D01*
X144566666Y-45954761D01*
X144471428Y-46002380D01*
X144233333Y-46002380D01*
X144138095Y-45954761D01*
X144090476Y-45907142D01*
X140757142Y-55537142D02*
X140709523Y-55584761D01*
X140566666Y-55632380D01*
X140471428Y-55632380D01*
X140328571Y-55584761D01*
X140233333Y-55489523D01*
X140185714Y-55394285D01*
X140138095Y-55203809D01*
X140138095Y-55060952D01*
X140185714Y-54870476D01*
X140233333Y-54775238D01*
X140328571Y-54680000D01*
X140471428Y-54632380D01*
X140566666Y-54632380D01*
X140709523Y-54680000D01*
X140757142Y-54727619D01*
X141709523Y-55632380D02*
X141138095Y-55632380D01*
X141423809Y-55632380D02*
X141423809Y-54632380D01*
X141328571Y-54775238D01*
X141233333Y-54870476D01*
X141138095Y-54918095D01*
X142566666Y-54965714D02*
X142566666Y-55632380D01*
X142328571Y-54584761D02*
X142090476Y-55299047D01*
X142709523Y-55299047D01*
X146080523Y-64407952D02*
X145475761Y-64831285D01*
X146080523Y-65133666D02*
X144810523Y-65133666D01*
X144810523Y-64649857D01*
X144871000Y-64528904D01*
X144931476Y-64468428D01*
X145052428Y-64407952D01*
X145233857Y-64407952D01*
X145354809Y-64468428D01*
X145415285Y-64528904D01*
X145475761Y-64649857D01*
X145475761Y-65133666D01*
X144810523Y-64045095D02*
X146080523Y-63621761D01*
X144810523Y-63198428D01*
X146080523Y-62109857D02*
X146080523Y-62835571D01*
X146080523Y-62472714D02*
X144810523Y-62472714D01*
X144991952Y-62593666D01*
X145112904Y-62714619D01*
X145173380Y-62835571D01*
X102802380Y-56383333D02*
X103516666Y-56383333D01*
X103659523Y-56430952D01*
X103754761Y-56526190D01*
X103802380Y-56669047D01*
X103802380Y-56764285D01*
X103802380Y-55383333D02*
X103802380Y-55954761D01*
X103802380Y-55669047D02*
X102802380Y-55669047D01*
X102945238Y-55764285D01*
X103040476Y-55859523D01*
X103088095Y-55954761D01*
X145152380Y-115633333D02*
X145866666Y-115633333D01*
X146009523Y-115680952D01*
X146104761Y-115776190D01*
X146152380Y-115919047D01*
X146152380Y-116014285D01*
X145485714Y-114728571D02*
X146152380Y-114728571D01*
X145104761Y-114966666D02*
X145819047Y-115204761D01*
X145819047Y-114585714D01*
X146072380Y-44192857D02*
X145596190Y-44526190D01*
X146072380Y-44764285D02*
X145072380Y-44764285D01*
X145072380Y-44383333D01*
X145120000Y-44288095D01*
X145167619Y-44240476D01*
X145262857Y-44192857D01*
X145405714Y-44192857D01*
X145500952Y-44240476D01*
X145548571Y-44288095D01*
X145596190Y-44383333D01*
X145596190Y-44764285D01*
X146072380Y-43240476D02*
X146072380Y-43811904D01*
X146072380Y-43526190D02*
X145072380Y-43526190D01*
X145215238Y-43621428D01*
X145310476Y-43716666D01*
X145358095Y-43811904D01*
X145072380Y-42383333D02*
X145072380Y-42573809D01*
X145120000Y-42669047D01*
X145167619Y-42716666D01*
X145310476Y-42811904D01*
X145500952Y-42859523D01*
X145881904Y-42859523D01*
X145977142Y-42811904D01*
X146024761Y-42764285D01*
X146072380Y-42669047D01*
X146072380Y-42478571D01*
X146024761Y-42383333D01*
X145977142Y-42335714D01*
X145881904Y-42288095D01*
X145643809Y-42288095D01*
X145548571Y-42335714D01*
X145500952Y-42383333D01*
X145453333Y-42478571D01*
X145453333Y-42669047D01*
X145500952Y-42764285D01*
X145548571Y-42811904D01*
X145643809Y-42859523D01*
X150357142Y-42482380D02*
X150023809Y-42006190D01*
X149785714Y-42482380D02*
X149785714Y-41482380D01*
X150166666Y-41482380D01*
X150261904Y-41530000D01*
X150309523Y-41577619D01*
X150357142Y-41672857D01*
X150357142Y-41815714D01*
X150309523Y-41910952D01*
X150261904Y-41958571D01*
X150166666Y-42006190D01*
X149785714Y-42006190D01*
X151309523Y-42482380D02*
X150738095Y-42482380D01*
X151023809Y-42482380D02*
X151023809Y-41482380D01*
X150928571Y-41625238D01*
X150833333Y-41720476D01*
X150738095Y-41768095D01*
X151642857Y-41482380D02*
X152261904Y-41482380D01*
X151928571Y-41863333D01*
X152071428Y-41863333D01*
X152166666Y-41910952D01*
X152214285Y-41958571D01*
X152261904Y-42053809D01*
X152261904Y-42291904D01*
X152214285Y-42387142D01*
X152166666Y-42434761D01*
X152071428Y-42482380D01*
X151785714Y-42482380D01*
X151690476Y-42434761D01*
X151642857Y-42387142D01*
X150782380Y-49116666D02*
X150782380Y-49592857D01*
X149782380Y-49592857D01*
X149877619Y-48830952D02*
X149830000Y-48783333D01*
X149782380Y-48688095D01*
X149782380Y-48450000D01*
X149830000Y-48354761D01*
X149877619Y-48307142D01*
X149972857Y-48259523D01*
X150068095Y-48259523D01*
X150210952Y-48307142D01*
X150782380Y-48878571D01*
X150782380Y-48259523D01*
X151107142Y-61237142D02*
X151059523Y-61284761D01*
X150916666Y-61332380D01*
X150821428Y-61332380D01*
X150678571Y-61284761D01*
X150583333Y-61189523D01*
X150535714Y-61094285D01*
X150488095Y-60903809D01*
X150488095Y-60760952D01*
X150535714Y-60570476D01*
X150583333Y-60475238D01*
X150678571Y-60380000D01*
X150821428Y-60332380D01*
X150916666Y-60332380D01*
X151059523Y-60380000D01*
X151107142Y-60427619D01*
X151488095Y-60427619D02*
X151535714Y-60380000D01*
X151630952Y-60332380D01*
X151869047Y-60332380D01*
X151964285Y-60380000D01*
X152011904Y-60427619D01*
X152059523Y-60522857D01*
X152059523Y-60618095D01*
X152011904Y-60760952D01*
X151440476Y-61332380D01*
X152059523Y-61332380D01*
X152916666Y-60332380D02*
X152726190Y-60332380D01*
X152630952Y-60380000D01*
X152583333Y-60427619D01*
X152488095Y-60570476D01*
X152440476Y-60760952D01*
X152440476Y-61141904D01*
X152488095Y-61237142D01*
X152535714Y-61284761D01*
X152630952Y-61332380D01*
X152821428Y-61332380D01*
X152916666Y-61284761D01*
X152964285Y-61237142D01*
X153011904Y-61141904D01*
X153011904Y-60903809D01*
X152964285Y-60808571D01*
X152916666Y-60760952D01*
X152821428Y-60713333D01*
X152630952Y-60713333D01*
X152535714Y-60760952D01*
X152488095Y-60808571D01*
X152440476Y-60903809D01*
X154327142Y-55542857D02*
X154374761Y-55590476D01*
X154422380Y-55733333D01*
X154422380Y-55828571D01*
X154374761Y-55971428D01*
X154279523Y-56066666D01*
X154184285Y-56114285D01*
X153993809Y-56161904D01*
X153850952Y-56161904D01*
X153660476Y-56114285D01*
X153565238Y-56066666D01*
X153470000Y-55971428D01*
X153422380Y-55828571D01*
X153422380Y-55733333D01*
X153470000Y-55590476D01*
X153517619Y-55542857D01*
X153517619Y-55161904D02*
X153470000Y-55114285D01*
X153422380Y-55019047D01*
X153422380Y-54780952D01*
X153470000Y-54685714D01*
X153517619Y-54638095D01*
X153612857Y-54590476D01*
X153708095Y-54590476D01*
X153850952Y-54638095D01*
X154422380Y-55209523D01*
X154422380Y-54590476D01*
X153422380Y-53685714D02*
X153422380Y-54161904D01*
X153898571Y-54209523D01*
X153850952Y-54161904D01*
X153803333Y-54066666D01*
X153803333Y-53828571D01*
X153850952Y-53733333D01*
X153898571Y-53685714D01*
X153993809Y-53638095D01*
X154231904Y-53638095D01*
X154327142Y-53685714D01*
X154374761Y-53733333D01*
X154422380Y-53828571D01*
X154422380Y-54066666D01*
X154374761Y-54161904D01*
X154327142Y-54209523D01*
X145660238Y-55874523D02*
X145660238Y-54604523D01*
X146990714Y-55753571D02*
X146930238Y-55814047D01*
X146748809Y-55874523D01*
X146627857Y-55874523D01*
X146446428Y-55814047D01*
X146325476Y-55693095D01*
X146265000Y-55572142D01*
X146204523Y-55330238D01*
X146204523Y-55148809D01*
X146265000Y-54906904D01*
X146325476Y-54785952D01*
X146446428Y-54665000D01*
X146627857Y-54604523D01*
X146748809Y-54604523D01*
X146930238Y-54665000D01*
X146990714Y-54725476D01*
X147414047Y-54604523D02*
X148200238Y-54604523D01*
X147776904Y-55088333D01*
X147958333Y-55088333D01*
X148079285Y-55148809D01*
X148139761Y-55209285D01*
X148200238Y-55330238D01*
X148200238Y-55632619D01*
X148139761Y-55753571D01*
X148079285Y-55814047D01*
X147958333Y-55874523D01*
X147595476Y-55874523D01*
X147474523Y-55814047D01*
X147414047Y-55753571D01*
X102802380Y-82083333D02*
X103516666Y-82083333D01*
X103659523Y-82130952D01*
X103754761Y-82226190D01*
X103802380Y-82369047D01*
X103802380Y-82464285D01*
X102802380Y-81702380D02*
X102802380Y-81035714D01*
X103802380Y-81464285D01*
X102802380Y-98783333D02*
X103516666Y-98783333D01*
X103659523Y-98830952D01*
X103754761Y-98926190D01*
X103802380Y-99069047D01*
X103802380Y-99164285D01*
X102802380Y-97830952D02*
X102802380Y-98307142D01*
X103278571Y-98354761D01*
X103230952Y-98307142D01*
X103183333Y-98211904D01*
X103183333Y-97973809D01*
X103230952Y-97878571D01*
X103278571Y-97830952D01*
X103373809Y-97783333D01*
X103611904Y-97783333D01*
X103707142Y-97830952D01*
X103754761Y-97878571D01*
X103802380Y-97973809D01*
X103802380Y-98211904D01*
X103754761Y-98307142D01*
X103707142Y-98354761D01*
X102802380Y-115483333D02*
X103516666Y-115483333D01*
X103659523Y-115530952D01*
X103754761Y-115626190D01*
X103802380Y-115769047D01*
X103802380Y-115864285D01*
X102897619Y-115054761D02*
X102850000Y-115007142D01*
X102802380Y-114911904D01*
X102802380Y-114673809D01*
X102850000Y-114578571D01*
X102897619Y-114530952D01*
X102992857Y-114483333D01*
X103088095Y-114483333D01*
X103230952Y-114530952D01*
X103802380Y-115102380D01*
X103802380Y-114483333D01*
X137041238Y-115257904D02*
X137089619Y-115112761D01*
X137089619Y-114870857D01*
X137041238Y-114774095D01*
X136992857Y-114725714D01*
X136896095Y-114677333D01*
X136799333Y-114677333D01*
X136702571Y-114725714D01*
X136654190Y-114774095D01*
X136605809Y-114870857D01*
X136557428Y-115064380D01*
X136509047Y-115161142D01*
X136460666Y-115209523D01*
X136363904Y-115257904D01*
X136267142Y-115257904D01*
X136170380Y-115209523D01*
X136122000Y-115161142D01*
X136073619Y-115064380D01*
X136073619Y-114822476D01*
X136122000Y-114677333D01*
X137041238Y-114290285D02*
X137089619Y-114145142D01*
X137089619Y-113903238D01*
X137041238Y-113806476D01*
X136992857Y-113758095D01*
X136896095Y-113709714D01*
X136799333Y-113709714D01*
X136702571Y-113758095D01*
X136654190Y-113806476D01*
X136605809Y-113903238D01*
X136557428Y-114096761D01*
X136509047Y-114193523D01*
X136460666Y-114241904D01*
X136363904Y-114290285D01*
X136267142Y-114290285D01*
X136170380Y-114241904D01*
X136122000Y-114193523D01*
X136073619Y-114096761D01*
X136073619Y-113854857D01*
X136122000Y-113709714D01*
X137089619Y-112742095D02*
X137089619Y-113322666D01*
X137089619Y-113032380D02*
X136073619Y-113032380D01*
X136218761Y-113129142D01*
X136315523Y-113225904D01*
X136363904Y-113322666D01*
X118392000Y-112174095D02*
X118343619Y-112270857D01*
X118343619Y-112416000D01*
X118392000Y-112561142D01*
X118488761Y-112657904D01*
X118585523Y-112706285D01*
X118779047Y-112754666D01*
X118924190Y-112754666D01*
X119117714Y-112706285D01*
X119214476Y-112657904D01*
X119311238Y-112561142D01*
X119359619Y-112416000D01*
X119359619Y-112319238D01*
X119311238Y-112174095D01*
X119262857Y-112125714D01*
X118924190Y-112125714D01*
X118924190Y-112319238D01*
X119359619Y-111690285D02*
X118343619Y-111690285D01*
X119359619Y-111109714D01*
X118343619Y-111109714D01*
X119359619Y-110625904D02*
X118343619Y-110625904D01*
X118343619Y-110384000D01*
X118392000Y-110238857D01*
X118488761Y-110142095D01*
X118585523Y-110093714D01*
X118779047Y-110045333D01*
X118924190Y-110045333D01*
X119117714Y-110093714D01*
X119214476Y-110142095D01*
X119311238Y-110238857D01*
X119359619Y-110384000D01*
X119359619Y-110625904D01*
X133582000Y-112234095D02*
X133533619Y-112330857D01*
X133533619Y-112476000D01*
X133582000Y-112621142D01*
X133678761Y-112717904D01*
X133775523Y-112766285D01*
X133969047Y-112814666D01*
X134114190Y-112814666D01*
X134307714Y-112766285D01*
X134404476Y-112717904D01*
X134501238Y-112621142D01*
X134549619Y-112476000D01*
X134549619Y-112379238D01*
X134501238Y-112234095D01*
X134452857Y-112185714D01*
X134114190Y-112185714D01*
X134114190Y-112379238D01*
X134549619Y-111750285D02*
X133533619Y-111750285D01*
X134549619Y-111169714D01*
X133533619Y-111169714D01*
X134549619Y-110685904D02*
X133533619Y-110685904D01*
X133533619Y-110444000D01*
X133582000Y-110298857D01*
X133678761Y-110202095D01*
X133775523Y-110153714D01*
X133969047Y-110105333D01*
X134114190Y-110105333D01*
X134307714Y-110153714D01*
X134404476Y-110202095D01*
X134501238Y-110298857D01*
X134549619Y-110444000D01*
X134549619Y-110685904D01*
X130993619Y-112572761D02*
X132009619Y-112234095D01*
X130993619Y-111895428D01*
X132009619Y-111556761D02*
X130993619Y-111556761D01*
X130993619Y-110879428D02*
X130993619Y-110685904D01*
X131042000Y-110589142D01*
X131138761Y-110492380D01*
X131332285Y-110444000D01*
X131670952Y-110444000D01*
X131864476Y-110492380D01*
X131961238Y-110589142D01*
X132009619Y-110685904D01*
X132009619Y-110879428D01*
X131961238Y-110976190D01*
X131864476Y-111072952D01*
X131670952Y-111121333D01*
X131332285Y-111121333D01*
X131138761Y-111072952D01*
X131042000Y-110976190D01*
X130993619Y-110879428D01*
X129469619Y-112790476D02*
X128453619Y-112790476D01*
X129179333Y-112451809D01*
X128453619Y-112113142D01*
X129469619Y-112113142D01*
X129469619Y-111097142D02*
X129469619Y-111677714D01*
X129469619Y-111387428D02*
X128453619Y-111387428D01*
X128598761Y-111484190D01*
X128695523Y-111580952D01*
X128743904Y-111677714D01*
X128937428Y-110323047D02*
X128985809Y-110177904D01*
X129034190Y-110129523D01*
X129130952Y-110081142D01*
X129276095Y-110081142D01*
X129372857Y-110129523D01*
X129421238Y-110177904D01*
X129469619Y-110274666D01*
X129469619Y-110661714D01*
X128453619Y-110661714D01*
X128453619Y-110323047D01*
X128502000Y-110226285D01*
X128550380Y-110177904D01*
X128647142Y-110129523D01*
X128743904Y-110129523D01*
X128840666Y-110177904D01*
X128889047Y-110226285D01*
X128937428Y-110323047D01*
X128937428Y-110661714D01*
X126929619Y-112717904D02*
X125913619Y-112717904D01*
X126639333Y-112379238D01*
X125913619Y-112040571D01*
X126929619Y-112040571D01*
X126929619Y-111024571D02*
X126929619Y-111605142D01*
X126929619Y-111314857D02*
X125913619Y-111314857D01*
X126058761Y-111411619D01*
X126155523Y-111508380D01*
X126203904Y-111605142D01*
X126639333Y-110637523D02*
X126639333Y-110153714D01*
X126929619Y-110734285D02*
X125913619Y-110395619D01*
X126929619Y-110056952D01*
X124389619Y-112717904D02*
X123373619Y-112717904D01*
X124099333Y-112379238D01*
X123373619Y-112040571D01*
X124389619Y-112040571D01*
X123470380Y-111605142D02*
X123422000Y-111556761D01*
X123373619Y-111460000D01*
X123373619Y-111218095D01*
X123422000Y-111121333D01*
X123470380Y-111072952D01*
X123567142Y-111024571D01*
X123663904Y-111024571D01*
X123809047Y-111072952D01*
X124389619Y-111653523D01*
X124389619Y-111024571D01*
X124099333Y-110637523D02*
X124099333Y-110153714D01*
X124389619Y-110734285D02*
X123373619Y-110395619D01*
X124389619Y-110056952D01*
X121849619Y-112790476D02*
X120833619Y-112790476D01*
X121559333Y-112451809D01*
X120833619Y-112113142D01*
X121849619Y-112113142D01*
X120930380Y-111677714D02*
X120882000Y-111629333D01*
X120833619Y-111532571D01*
X120833619Y-111290666D01*
X120882000Y-111193904D01*
X120930380Y-111145523D01*
X121027142Y-111097142D01*
X121123904Y-111097142D01*
X121269047Y-111145523D01*
X121849619Y-111726095D01*
X121849619Y-111097142D01*
X121317428Y-110323047D02*
X121365809Y-110177904D01*
X121414190Y-110129523D01*
X121510952Y-110081142D01*
X121656095Y-110081142D01*
X121752857Y-110129523D01*
X121801238Y-110177904D01*
X121849619Y-110274666D01*
X121849619Y-110661714D01*
X120833619Y-110661714D01*
X120833619Y-110323047D01*
X120882000Y-110226285D01*
X120930380Y-110177904D01*
X121027142Y-110129523D01*
X121123904Y-110129523D01*
X121220666Y-110177904D01*
X121269047Y-110226285D01*
X121317428Y-110323047D01*
X121317428Y-110661714D01*
X133582000Y-112234095D02*
X133533619Y-112330857D01*
X133533619Y-112476000D01*
X133582000Y-112621142D01*
X133678761Y-112717904D01*
X133775523Y-112766285D01*
X133969047Y-112814666D01*
X134114190Y-112814666D01*
X134307714Y-112766285D01*
X134404476Y-112717904D01*
X134501238Y-112621142D01*
X134549619Y-112476000D01*
X134549619Y-112379238D01*
X134501238Y-112234095D01*
X134452857Y-112185714D01*
X134114190Y-112185714D01*
X134114190Y-112379238D01*
X134549619Y-111750285D02*
X133533619Y-111750285D01*
X134549619Y-111169714D01*
X133533619Y-111169714D01*
X134549619Y-110685904D02*
X133533619Y-110685904D01*
X133533619Y-110444000D01*
X133582000Y-110298857D01*
X133678761Y-110202095D01*
X133775523Y-110153714D01*
X133969047Y-110105333D01*
X134114190Y-110105333D01*
X134307714Y-110153714D01*
X134404476Y-110202095D01*
X134501238Y-110298857D01*
X134549619Y-110444000D01*
X134549619Y-110685904D01*
X115753619Y-112379238D02*
X116769619Y-112040571D01*
X115753619Y-111701904D01*
X116769619Y-111363238D02*
X115753619Y-111363238D01*
X116479333Y-111024571D01*
X115753619Y-110685904D01*
X116769619Y-110685904D01*
X117864285Y-118569047D02*
X117864285Y-118402380D01*
X118126190Y-118330952D02*
X118126190Y-118569047D01*
X117626190Y-118569047D01*
X117626190Y-118330952D01*
X118126190Y-118116666D02*
X117626190Y-118116666D01*
X118126190Y-117830952D01*
X117626190Y-117830952D01*
X119859619Y-117906285D02*
X118843619Y-117906285D01*
X119569333Y-117567619D01*
X118843619Y-117228952D01*
X119859619Y-117228952D01*
X119811238Y-116793523D02*
X119859619Y-116648380D01*
X119859619Y-116406476D01*
X119811238Y-116309714D01*
X119762857Y-116261333D01*
X119666095Y-116212952D01*
X119569333Y-116212952D01*
X119472571Y-116261333D01*
X119424190Y-116309714D01*
X119375809Y-116406476D01*
X119327428Y-116600000D01*
X119279047Y-116696761D01*
X119230666Y-116745142D01*
X119133904Y-116793523D01*
X119037142Y-116793523D01*
X118940380Y-116745142D01*
X118892000Y-116696761D01*
X118843619Y-116600000D01*
X118843619Y-116358095D01*
X118892000Y-116212952D01*
X119859619Y-115245333D02*
X119859619Y-115825904D01*
X119859619Y-115535619D02*
X118843619Y-115535619D01*
X118988761Y-115632380D01*
X119085523Y-115729142D01*
X119133904Y-115825904D01*
X121849619Y-117846285D02*
X120833619Y-117846285D01*
X121559333Y-117507619D01*
X120833619Y-117168952D01*
X121849619Y-117168952D01*
X121801238Y-116733523D02*
X121849619Y-116588380D01*
X121849619Y-116346476D01*
X121801238Y-116249714D01*
X121752857Y-116201333D01*
X121656095Y-116152952D01*
X121559333Y-116152952D01*
X121462571Y-116201333D01*
X121414190Y-116249714D01*
X121365809Y-116346476D01*
X121317428Y-116540000D01*
X121269047Y-116636761D01*
X121220666Y-116685142D01*
X121123904Y-116733523D01*
X121027142Y-116733523D01*
X120930380Y-116685142D01*
X120882000Y-116636761D01*
X120833619Y-116540000D01*
X120833619Y-116298095D01*
X120882000Y-116152952D01*
X120930380Y-115765904D02*
X120882000Y-115717523D01*
X120833619Y-115620761D01*
X120833619Y-115378857D01*
X120882000Y-115282095D01*
X120930380Y-115233714D01*
X121027142Y-115185333D01*
X121123904Y-115185333D01*
X121269047Y-115233714D01*
X121849619Y-115814285D01*
X121849619Y-115185333D01*
X124341238Y-117846285D02*
X124389619Y-117701142D01*
X124389619Y-117459238D01*
X124341238Y-117362476D01*
X124292857Y-117314095D01*
X124196095Y-117265714D01*
X124099333Y-117265714D01*
X124002571Y-117314095D01*
X123954190Y-117362476D01*
X123905809Y-117459238D01*
X123857428Y-117652761D01*
X123809047Y-117749523D01*
X123760666Y-117797904D01*
X123663904Y-117846285D01*
X123567142Y-117846285D01*
X123470380Y-117797904D01*
X123422000Y-117749523D01*
X123373619Y-117652761D01*
X123373619Y-117410857D01*
X123422000Y-117265714D01*
X124389619Y-116830285D02*
X123373619Y-116830285D01*
X123373619Y-116443238D01*
X123422000Y-116346476D01*
X123470380Y-116298095D01*
X123567142Y-116249714D01*
X123712285Y-116249714D01*
X123809047Y-116298095D01*
X123857428Y-116346476D01*
X123905809Y-116443238D01*
X123905809Y-116830285D01*
X124389619Y-115233714D02*
X123905809Y-115572380D01*
X124389619Y-115814285D02*
X123373619Y-115814285D01*
X123373619Y-115427238D01*
X123422000Y-115330476D01*
X123470380Y-115282095D01*
X123567142Y-115233714D01*
X123712285Y-115233714D01*
X123809047Y-115282095D01*
X123857428Y-115330476D01*
X123905809Y-115427238D01*
X123905809Y-115814285D01*
X129459619Y-117806285D02*
X128443619Y-117806285D01*
X128443619Y-117419238D01*
X128492000Y-117322476D01*
X128540380Y-117274095D01*
X128637142Y-117225714D01*
X128782285Y-117225714D01*
X128879047Y-117274095D01*
X128927428Y-117322476D01*
X128975809Y-117419238D01*
X128975809Y-117806285D01*
X129459619Y-116790285D02*
X128443619Y-116790285D01*
X128443619Y-116548380D01*
X128492000Y-116403238D01*
X128588761Y-116306476D01*
X128685523Y-116258095D01*
X128879047Y-116209714D01*
X129024190Y-116209714D01*
X129217714Y-116258095D01*
X129314476Y-116306476D01*
X129411238Y-116403238D01*
X129459619Y-116548380D01*
X129459619Y-116790285D01*
X129459619Y-115774285D02*
X128443619Y-115774285D01*
X129459619Y-115193714D01*
X128443619Y-115193714D01*
X125913619Y-117725333D02*
X126736095Y-117725333D01*
X126832857Y-117676952D01*
X126881238Y-117628571D01*
X126929619Y-117531809D01*
X126929619Y-117338285D01*
X126881238Y-117241523D01*
X126832857Y-117193142D01*
X126736095Y-117144761D01*
X125913619Y-117144761D01*
X126929619Y-116080380D02*
X126445809Y-116419047D01*
X126929619Y-116660952D02*
X125913619Y-116660952D01*
X125913619Y-116273904D01*
X125962000Y-116177142D01*
X126010380Y-116128761D01*
X126107142Y-116080380D01*
X126252285Y-116080380D01*
X126349047Y-116128761D01*
X126397428Y-116177142D01*
X126445809Y-116273904D01*
X126445809Y-116660952D01*
X125913619Y-115790095D02*
X125913619Y-115209523D01*
X126929619Y-115499809D02*
X125913619Y-115499809D01*
X131961238Y-118184952D02*
X132009619Y-118039809D01*
X132009619Y-117797904D01*
X131961238Y-117701142D01*
X131912857Y-117652761D01*
X131816095Y-117604380D01*
X131719333Y-117604380D01*
X131622571Y-117652761D01*
X131574190Y-117701142D01*
X131525809Y-117797904D01*
X131477428Y-117991428D01*
X131429047Y-118088190D01*
X131380666Y-118136571D01*
X131283904Y-118184952D01*
X131187142Y-118184952D01*
X131090380Y-118136571D01*
X131042000Y-118088190D01*
X130993619Y-117991428D01*
X130993619Y-117749523D01*
X131042000Y-117604380D01*
X130993619Y-117314095D02*
X130993619Y-116733523D01*
X132009619Y-117023809D02*
X130993619Y-117023809D01*
X131477428Y-116394857D02*
X131477428Y-116056190D01*
X132009619Y-115911047D02*
X132009619Y-116394857D01*
X130993619Y-116394857D01*
X130993619Y-115911047D01*
X132009619Y-115475619D02*
X130993619Y-115475619D01*
X130993619Y-115088571D01*
X131042000Y-114991809D01*
X131090380Y-114943428D01*
X131187142Y-114895047D01*
X131332285Y-114895047D01*
X131429047Y-114943428D01*
X131477428Y-114991809D01*
X131525809Y-115088571D01*
X131525809Y-115475619D01*
X134549619Y-117556000D02*
X133533619Y-117556000D01*
X133533619Y-117314095D01*
X133582000Y-117168952D01*
X133678761Y-117072190D01*
X133775523Y-117023809D01*
X133969047Y-116975428D01*
X134114190Y-116975428D01*
X134307714Y-117023809D01*
X134404476Y-117072190D01*
X134501238Y-117168952D01*
X134549619Y-117314095D01*
X134549619Y-117556000D01*
X134549619Y-116540000D02*
X133533619Y-116540000D01*
X134549619Y-115475619D02*
X134065809Y-115814285D01*
X134549619Y-116056190D02*
X133533619Y-116056190D01*
X133533619Y-115669142D01*
X133582000Y-115572380D01*
X133630380Y-115524000D01*
X133727142Y-115475619D01*
X133872285Y-115475619D01*
X133969047Y-115524000D01*
X134017428Y-115572380D01*
X134065809Y-115669142D01*
X134065809Y-116056190D01*
X137041238Y-64257904D02*
X137089619Y-64112761D01*
X137089619Y-63870857D01*
X137041238Y-63774095D01*
X136992857Y-63725714D01*
X136896095Y-63677333D01*
X136799333Y-63677333D01*
X136702571Y-63725714D01*
X136654190Y-63774095D01*
X136605809Y-63870857D01*
X136557428Y-64064380D01*
X136509047Y-64161142D01*
X136460666Y-64209523D01*
X136363904Y-64257904D01*
X136267142Y-64257904D01*
X136170380Y-64209523D01*
X136122000Y-64161142D01*
X136073619Y-64064380D01*
X136073619Y-63822476D01*
X136122000Y-63677333D01*
X137041238Y-63290285D02*
X137089619Y-63145142D01*
X137089619Y-62903238D01*
X137041238Y-62806476D01*
X136992857Y-62758095D01*
X136896095Y-62709714D01*
X136799333Y-62709714D01*
X136702571Y-62758095D01*
X136654190Y-62806476D01*
X136605809Y-62903238D01*
X136557428Y-63096761D01*
X136509047Y-63193523D01*
X136460666Y-63241904D01*
X136363904Y-63290285D01*
X136267142Y-63290285D01*
X136170380Y-63241904D01*
X136122000Y-63193523D01*
X136073619Y-63096761D01*
X136073619Y-62854857D01*
X136122000Y-62709714D01*
X136073619Y-62371047D02*
X136073619Y-61742095D01*
X136460666Y-62080761D01*
X136460666Y-61935619D01*
X136509047Y-61838857D01*
X136557428Y-61790476D01*
X136654190Y-61742095D01*
X136896095Y-61742095D01*
X136992857Y-61790476D01*
X137041238Y-61838857D01*
X137089619Y-61935619D01*
X137089619Y-62225904D01*
X137041238Y-62322666D01*
X136992857Y-62371047D01*
X118392000Y-61174095D02*
X118343619Y-61270857D01*
X118343619Y-61416000D01*
X118392000Y-61561142D01*
X118488761Y-61657904D01*
X118585523Y-61706285D01*
X118779047Y-61754666D01*
X118924190Y-61754666D01*
X119117714Y-61706285D01*
X119214476Y-61657904D01*
X119311238Y-61561142D01*
X119359619Y-61416000D01*
X119359619Y-61319238D01*
X119311238Y-61174095D01*
X119262857Y-61125714D01*
X118924190Y-61125714D01*
X118924190Y-61319238D01*
X119359619Y-60690285D02*
X118343619Y-60690285D01*
X119359619Y-60109714D01*
X118343619Y-60109714D01*
X119359619Y-59625904D02*
X118343619Y-59625904D01*
X118343619Y-59384000D01*
X118392000Y-59238857D01*
X118488761Y-59142095D01*
X118585523Y-59093714D01*
X118779047Y-59045333D01*
X118924190Y-59045333D01*
X119117714Y-59093714D01*
X119214476Y-59142095D01*
X119311238Y-59238857D01*
X119359619Y-59384000D01*
X119359619Y-59625904D01*
X133582000Y-61234095D02*
X133533619Y-61330857D01*
X133533619Y-61476000D01*
X133582000Y-61621142D01*
X133678761Y-61717904D01*
X133775523Y-61766285D01*
X133969047Y-61814666D01*
X134114190Y-61814666D01*
X134307714Y-61766285D01*
X134404476Y-61717904D01*
X134501238Y-61621142D01*
X134549619Y-61476000D01*
X134549619Y-61379238D01*
X134501238Y-61234095D01*
X134452857Y-61185714D01*
X134114190Y-61185714D01*
X134114190Y-61379238D01*
X134549619Y-60750285D02*
X133533619Y-60750285D01*
X134549619Y-60169714D01*
X133533619Y-60169714D01*
X134549619Y-59685904D02*
X133533619Y-59685904D01*
X133533619Y-59444000D01*
X133582000Y-59298857D01*
X133678761Y-59202095D01*
X133775523Y-59153714D01*
X133969047Y-59105333D01*
X134114190Y-59105333D01*
X134307714Y-59153714D01*
X134404476Y-59202095D01*
X134501238Y-59298857D01*
X134549619Y-59444000D01*
X134549619Y-59685904D01*
X130993619Y-61572761D02*
X132009619Y-61234095D01*
X130993619Y-60895428D01*
X132009619Y-60556761D02*
X130993619Y-60556761D01*
X130993619Y-59879428D02*
X130993619Y-59685904D01*
X131042000Y-59589142D01*
X131138761Y-59492380D01*
X131332285Y-59444000D01*
X131670952Y-59444000D01*
X131864476Y-59492380D01*
X131961238Y-59589142D01*
X132009619Y-59685904D01*
X132009619Y-59879428D01*
X131961238Y-59976190D01*
X131864476Y-60072952D01*
X131670952Y-60121333D01*
X131332285Y-60121333D01*
X131138761Y-60072952D01*
X131042000Y-59976190D01*
X130993619Y-59879428D01*
X129469619Y-61790476D02*
X128453619Y-61790476D01*
X129179333Y-61451809D01*
X128453619Y-61113142D01*
X129469619Y-61113142D01*
X129469619Y-60097142D02*
X129469619Y-60677714D01*
X129469619Y-60387428D02*
X128453619Y-60387428D01*
X128598761Y-60484190D01*
X128695523Y-60580952D01*
X128743904Y-60677714D01*
X128937428Y-59323047D02*
X128985809Y-59177904D01*
X129034190Y-59129523D01*
X129130952Y-59081142D01*
X129276095Y-59081142D01*
X129372857Y-59129523D01*
X129421238Y-59177904D01*
X129469619Y-59274666D01*
X129469619Y-59661714D01*
X128453619Y-59661714D01*
X128453619Y-59323047D01*
X128502000Y-59226285D01*
X128550380Y-59177904D01*
X128647142Y-59129523D01*
X128743904Y-59129523D01*
X128840666Y-59177904D01*
X128889047Y-59226285D01*
X128937428Y-59323047D01*
X128937428Y-59661714D01*
X126929619Y-61717904D02*
X125913619Y-61717904D01*
X126639333Y-61379238D01*
X125913619Y-61040571D01*
X126929619Y-61040571D01*
X126929619Y-60024571D02*
X126929619Y-60605142D01*
X126929619Y-60314857D02*
X125913619Y-60314857D01*
X126058761Y-60411619D01*
X126155523Y-60508380D01*
X126203904Y-60605142D01*
X126639333Y-59637523D02*
X126639333Y-59153714D01*
X126929619Y-59734285D02*
X125913619Y-59395619D01*
X126929619Y-59056952D01*
X124389619Y-61717904D02*
X123373619Y-61717904D01*
X124099333Y-61379238D01*
X123373619Y-61040571D01*
X124389619Y-61040571D01*
X123470380Y-60605142D02*
X123422000Y-60556761D01*
X123373619Y-60460000D01*
X123373619Y-60218095D01*
X123422000Y-60121333D01*
X123470380Y-60072952D01*
X123567142Y-60024571D01*
X123663904Y-60024571D01*
X123809047Y-60072952D01*
X124389619Y-60653523D01*
X124389619Y-60024571D01*
X124099333Y-59637523D02*
X124099333Y-59153714D01*
X124389619Y-59734285D02*
X123373619Y-59395619D01*
X124389619Y-59056952D01*
X121849619Y-61790476D02*
X120833619Y-61790476D01*
X121559333Y-61451809D01*
X120833619Y-61113142D01*
X121849619Y-61113142D01*
X120930380Y-60677714D02*
X120882000Y-60629333D01*
X120833619Y-60532571D01*
X120833619Y-60290666D01*
X120882000Y-60193904D01*
X120930380Y-60145523D01*
X121027142Y-60097142D01*
X121123904Y-60097142D01*
X121269047Y-60145523D01*
X121849619Y-60726095D01*
X121849619Y-60097142D01*
X121317428Y-59323047D02*
X121365809Y-59177904D01*
X121414190Y-59129523D01*
X121510952Y-59081142D01*
X121656095Y-59081142D01*
X121752857Y-59129523D01*
X121801238Y-59177904D01*
X121849619Y-59274666D01*
X121849619Y-59661714D01*
X120833619Y-59661714D01*
X120833619Y-59323047D01*
X120882000Y-59226285D01*
X120930380Y-59177904D01*
X121027142Y-59129523D01*
X121123904Y-59129523D01*
X121220666Y-59177904D01*
X121269047Y-59226285D01*
X121317428Y-59323047D01*
X121317428Y-59661714D01*
X133582000Y-61234095D02*
X133533619Y-61330857D01*
X133533619Y-61476000D01*
X133582000Y-61621142D01*
X133678761Y-61717904D01*
X133775523Y-61766285D01*
X133969047Y-61814666D01*
X134114190Y-61814666D01*
X134307714Y-61766285D01*
X134404476Y-61717904D01*
X134501238Y-61621142D01*
X134549619Y-61476000D01*
X134549619Y-61379238D01*
X134501238Y-61234095D01*
X134452857Y-61185714D01*
X134114190Y-61185714D01*
X134114190Y-61379238D01*
X134549619Y-60750285D02*
X133533619Y-60750285D01*
X134549619Y-60169714D01*
X133533619Y-60169714D01*
X134549619Y-59685904D02*
X133533619Y-59685904D01*
X133533619Y-59444000D01*
X133582000Y-59298857D01*
X133678761Y-59202095D01*
X133775523Y-59153714D01*
X133969047Y-59105333D01*
X134114190Y-59105333D01*
X134307714Y-59153714D01*
X134404476Y-59202095D01*
X134501238Y-59298857D01*
X134549619Y-59444000D01*
X134549619Y-59685904D01*
X115753619Y-61379238D02*
X116769619Y-61040571D01*
X115753619Y-60701904D01*
X116769619Y-60363238D02*
X115753619Y-60363238D01*
X116479333Y-60024571D01*
X115753619Y-59685904D01*
X116769619Y-59685904D01*
X117864285Y-67569047D02*
X117864285Y-67402380D01*
X118126190Y-67330952D02*
X118126190Y-67569047D01*
X117626190Y-67569047D01*
X117626190Y-67330952D01*
X118126190Y-67116666D02*
X117626190Y-67116666D01*
X118126190Y-66830952D01*
X117626190Y-66830952D01*
X119859619Y-66906285D02*
X118843619Y-66906285D01*
X119569333Y-66567619D01*
X118843619Y-66228952D01*
X119859619Y-66228952D01*
X119811238Y-65793523D02*
X119859619Y-65648380D01*
X119859619Y-65406476D01*
X119811238Y-65309714D01*
X119762857Y-65261333D01*
X119666095Y-65212952D01*
X119569333Y-65212952D01*
X119472571Y-65261333D01*
X119424190Y-65309714D01*
X119375809Y-65406476D01*
X119327428Y-65600000D01*
X119279047Y-65696761D01*
X119230666Y-65745142D01*
X119133904Y-65793523D01*
X119037142Y-65793523D01*
X118940380Y-65745142D01*
X118892000Y-65696761D01*
X118843619Y-65600000D01*
X118843619Y-65358095D01*
X118892000Y-65212952D01*
X119859619Y-64245333D02*
X119859619Y-64825904D01*
X119859619Y-64535619D02*
X118843619Y-64535619D01*
X118988761Y-64632380D01*
X119085523Y-64729142D01*
X119133904Y-64825904D01*
X121849619Y-66846285D02*
X120833619Y-66846285D01*
X121559333Y-66507619D01*
X120833619Y-66168952D01*
X121849619Y-66168952D01*
X121801238Y-65733523D02*
X121849619Y-65588380D01*
X121849619Y-65346476D01*
X121801238Y-65249714D01*
X121752857Y-65201333D01*
X121656095Y-65152952D01*
X121559333Y-65152952D01*
X121462571Y-65201333D01*
X121414190Y-65249714D01*
X121365809Y-65346476D01*
X121317428Y-65540000D01*
X121269047Y-65636761D01*
X121220666Y-65685142D01*
X121123904Y-65733523D01*
X121027142Y-65733523D01*
X120930380Y-65685142D01*
X120882000Y-65636761D01*
X120833619Y-65540000D01*
X120833619Y-65298095D01*
X120882000Y-65152952D01*
X120930380Y-64765904D02*
X120882000Y-64717523D01*
X120833619Y-64620761D01*
X120833619Y-64378857D01*
X120882000Y-64282095D01*
X120930380Y-64233714D01*
X121027142Y-64185333D01*
X121123904Y-64185333D01*
X121269047Y-64233714D01*
X121849619Y-64814285D01*
X121849619Y-64185333D01*
X124341238Y-66846285D02*
X124389619Y-66701142D01*
X124389619Y-66459238D01*
X124341238Y-66362476D01*
X124292857Y-66314095D01*
X124196095Y-66265714D01*
X124099333Y-66265714D01*
X124002571Y-66314095D01*
X123954190Y-66362476D01*
X123905809Y-66459238D01*
X123857428Y-66652761D01*
X123809047Y-66749523D01*
X123760666Y-66797904D01*
X123663904Y-66846285D01*
X123567142Y-66846285D01*
X123470380Y-66797904D01*
X123422000Y-66749523D01*
X123373619Y-66652761D01*
X123373619Y-66410857D01*
X123422000Y-66265714D01*
X124389619Y-65830285D02*
X123373619Y-65830285D01*
X123373619Y-65443238D01*
X123422000Y-65346476D01*
X123470380Y-65298095D01*
X123567142Y-65249714D01*
X123712285Y-65249714D01*
X123809047Y-65298095D01*
X123857428Y-65346476D01*
X123905809Y-65443238D01*
X123905809Y-65830285D01*
X124389619Y-64233714D02*
X123905809Y-64572380D01*
X124389619Y-64814285D02*
X123373619Y-64814285D01*
X123373619Y-64427238D01*
X123422000Y-64330476D01*
X123470380Y-64282095D01*
X123567142Y-64233714D01*
X123712285Y-64233714D01*
X123809047Y-64282095D01*
X123857428Y-64330476D01*
X123905809Y-64427238D01*
X123905809Y-64814285D01*
X129459619Y-66806285D02*
X128443619Y-66806285D01*
X128443619Y-66419238D01*
X128492000Y-66322476D01*
X128540380Y-66274095D01*
X128637142Y-66225714D01*
X128782285Y-66225714D01*
X128879047Y-66274095D01*
X128927428Y-66322476D01*
X128975809Y-66419238D01*
X128975809Y-66806285D01*
X129459619Y-65790285D02*
X128443619Y-65790285D01*
X128443619Y-65548380D01*
X128492000Y-65403238D01*
X128588761Y-65306476D01*
X128685523Y-65258095D01*
X128879047Y-65209714D01*
X129024190Y-65209714D01*
X129217714Y-65258095D01*
X129314476Y-65306476D01*
X129411238Y-65403238D01*
X129459619Y-65548380D01*
X129459619Y-65790285D01*
X129459619Y-64774285D02*
X128443619Y-64774285D01*
X129459619Y-64193714D01*
X128443619Y-64193714D01*
X125913619Y-66725333D02*
X126736095Y-66725333D01*
X126832857Y-66676952D01*
X126881238Y-66628571D01*
X126929619Y-66531809D01*
X126929619Y-66338285D01*
X126881238Y-66241523D01*
X126832857Y-66193142D01*
X126736095Y-66144761D01*
X125913619Y-66144761D01*
X126929619Y-65080380D02*
X126445809Y-65419047D01*
X126929619Y-65660952D02*
X125913619Y-65660952D01*
X125913619Y-65273904D01*
X125962000Y-65177142D01*
X126010380Y-65128761D01*
X126107142Y-65080380D01*
X126252285Y-65080380D01*
X126349047Y-65128761D01*
X126397428Y-65177142D01*
X126445809Y-65273904D01*
X126445809Y-65660952D01*
X125913619Y-64790095D02*
X125913619Y-64209523D01*
X126929619Y-64499809D02*
X125913619Y-64499809D01*
X131961238Y-67184952D02*
X132009619Y-67039809D01*
X132009619Y-66797904D01*
X131961238Y-66701142D01*
X131912857Y-66652761D01*
X131816095Y-66604380D01*
X131719333Y-66604380D01*
X131622571Y-66652761D01*
X131574190Y-66701142D01*
X131525809Y-66797904D01*
X131477428Y-66991428D01*
X131429047Y-67088190D01*
X131380666Y-67136571D01*
X131283904Y-67184952D01*
X131187142Y-67184952D01*
X131090380Y-67136571D01*
X131042000Y-67088190D01*
X130993619Y-66991428D01*
X130993619Y-66749523D01*
X131042000Y-66604380D01*
X130993619Y-66314095D02*
X130993619Y-65733523D01*
X132009619Y-66023809D02*
X130993619Y-66023809D01*
X131477428Y-65394857D02*
X131477428Y-65056190D01*
X132009619Y-64911047D02*
X132009619Y-65394857D01*
X130993619Y-65394857D01*
X130993619Y-64911047D01*
X132009619Y-64475619D02*
X130993619Y-64475619D01*
X130993619Y-64088571D01*
X131042000Y-63991809D01*
X131090380Y-63943428D01*
X131187142Y-63895047D01*
X131332285Y-63895047D01*
X131429047Y-63943428D01*
X131477428Y-63991809D01*
X131525809Y-64088571D01*
X131525809Y-64475619D01*
X134549619Y-66556000D02*
X133533619Y-66556000D01*
X133533619Y-66314095D01*
X133582000Y-66168952D01*
X133678761Y-66072190D01*
X133775523Y-66023809D01*
X133969047Y-65975428D01*
X134114190Y-65975428D01*
X134307714Y-66023809D01*
X134404476Y-66072190D01*
X134501238Y-66168952D01*
X134549619Y-66314095D01*
X134549619Y-66556000D01*
X134549619Y-65540000D02*
X133533619Y-65540000D01*
X134549619Y-64475619D02*
X134065809Y-64814285D01*
X134549619Y-65056190D02*
X133533619Y-65056190D01*
X133533619Y-64669142D01*
X133582000Y-64572380D01*
X133630380Y-64524000D01*
X133727142Y-64475619D01*
X133872285Y-64475619D01*
X133969047Y-64524000D01*
X134017428Y-64572380D01*
X134065809Y-64669142D01*
X134065809Y-65056190D01*
X137041238Y-89757904D02*
X137089619Y-89612761D01*
X137089619Y-89370857D01*
X137041238Y-89274095D01*
X136992857Y-89225714D01*
X136896095Y-89177333D01*
X136799333Y-89177333D01*
X136702571Y-89225714D01*
X136654190Y-89274095D01*
X136605809Y-89370857D01*
X136557428Y-89564380D01*
X136509047Y-89661142D01*
X136460666Y-89709523D01*
X136363904Y-89757904D01*
X136267142Y-89757904D01*
X136170380Y-89709523D01*
X136122000Y-89661142D01*
X136073619Y-89564380D01*
X136073619Y-89322476D01*
X136122000Y-89177333D01*
X137041238Y-88790285D02*
X137089619Y-88645142D01*
X137089619Y-88403238D01*
X137041238Y-88306476D01*
X136992857Y-88258095D01*
X136896095Y-88209714D01*
X136799333Y-88209714D01*
X136702571Y-88258095D01*
X136654190Y-88306476D01*
X136605809Y-88403238D01*
X136557428Y-88596761D01*
X136509047Y-88693523D01*
X136460666Y-88741904D01*
X136363904Y-88790285D01*
X136267142Y-88790285D01*
X136170380Y-88741904D01*
X136122000Y-88693523D01*
X136073619Y-88596761D01*
X136073619Y-88354857D01*
X136122000Y-88209714D01*
X136170380Y-87822666D02*
X136122000Y-87774285D01*
X136073619Y-87677523D01*
X136073619Y-87435619D01*
X136122000Y-87338857D01*
X136170380Y-87290476D01*
X136267142Y-87242095D01*
X136363904Y-87242095D01*
X136509047Y-87290476D01*
X137089619Y-87871047D01*
X137089619Y-87242095D01*
X118392000Y-86674095D02*
X118343619Y-86770857D01*
X118343619Y-86916000D01*
X118392000Y-87061142D01*
X118488761Y-87157904D01*
X118585523Y-87206285D01*
X118779047Y-87254666D01*
X118924190Y-87254666D01*
X119117714Y-87206285D01*
X119214476Y-87157904D01*
X119311238Y-87061142D01*
X119359619Y-86916000D01*
X119359619Y-86819238D01*
X119311238Y-86674095D01*
X119262857Y-86625714D01*
X118924190Y-86625714D01*
X118924190Y-86819238D01*
X119359619Y-86190285D02*
X118343619Y-86190285D01*
X119359619Y-85609714D01*
X118343619Y-85609714D01*
X119359619Y-85125904D02*
X118343619Y-85125904D01*
X118343619Y-84884000D01*
X118392000Y-84738857D01*
X118488761Y-84642095D01*
X118585523Y-84593714D01*
X118779047Y-84545333D01*
X118924190Y-84545333D01*
X119117714Y-84593714D01*
X119214476Y-84642095D01*
X119311238Y-84738857D01*
X119359619Y-84884000D01*
X119359619Y-85125904D01*
X133582000Y-86734095D02*
X133533619Y-86830857D01*
X133533619Y-86976000D01*
X133582000Y-87121142D01*
X133678761Y-87217904D01*
X133775523Y-87266285D01*
X133969047Y-87314666D01*
X134114190Y-87314666D01*
X134307714Y-87266285D01*
X134404476Y-87217904D01*
X134501238Y-87121142D01*
X134549619Y-86976000D01*
X134549619Y-86879238D01*
X134501238Y-86734095D01*
X134452857Y-86685714D01*
X134114190Y-86685714D01*
X134114190Y-86879238D01*
X134549619Y-86250285D02*
X133533619Y-86250285D01*
X134549619Y-85669714D01*
X133533619Y-85669714D01*
X134549619Y-85185904D02*
X133533619Y-85185904D01*
X133533619Y-84944000D01*
X133582000Y-84798857D01*
X133678761Y-84702095D01*
X133775523Y-84653714D01*
X133969047Y-84605333D01*
X134114190Y-84605333D01*
X134307714Y-84653714D01*
X134404476Y-84702095D01*
X134501238Y-84798857D01*
X134549619Y-84944000D01*
X134549619Y-85185904D01*
X130993619Y-87072761D02*
X132009619Y-86734095D01*
X130993619Y-86395428D01*
X132009619Y-86056761D02*
X130993619Y-86056761D01*
X130993619Y-85379428D02*
X130993619Y-85185904D01*
X131042000Y-85089142D01*
X131138761Y-84992380D01*
X131332285Y-84944000D01*
X131670952Y-84944000D01*
X131864476Y-84992380D01*
X131961238Y-85089142D01*
X132009619Y-85185904D01*
X132009619Y-85379428D01*
X131961238Y-85476190D01*
X131864476Y-85572952D01*
X131670952Y-85621333D01*
X131332285Y-85621333D01*
X131138761Y-85572952D01*
X131042000Y-85476190D01*
X130993619Y-85379428D01*
X129469619Y-87290476D02*
X128453619Y-87290476D01*
X129179333Y-86951809D01*
X128453619Y-86613142D01*
X129469619Y-86613142D01*
X129469619Y-85597142D02*
X129469619Y-86177714D01*
X129469619Y-85887428D02*
X128453619Y-85887428D01*
X128598761Y-85984190D01*
X128695523Y-86080952D01*
X128743904Y-86177714D01*
X128937428Y-84823047D02*
X128985809Y-84677904D01*
X129034190Y-84629523D01*
X129130952Y-84581142D01*
X129276095Y-84581142D01*
X129372857Y-84629523D01*
X129421238Y-84677904D01*
X129469619Y-84774666D01*
X129469619Y-85161714D01*
X128453619Y-85161714D01*
X128453619Y-84823047D01*
X128502000Y-84726285D01*
X128550380Y-84677904D01*
X128647142Y-84629523D01*
X128743904Y-84629523D01*
X128840666Y-84677904D01*
X128889047Y-84726285D01*
X128937428Y-84823047D01*
X128937428Y-85161714D01*
X126929619Y-87217904D02*
X125913619Y-87217904D01*
X126639333Y-86879238D01*
X125913619Y-86540571D01*
X126929619Y-86540571D01*
X126929619Y-85524571D02*
X126929619Y-86105142D01*
X126929619Y-85814857D02*
X125913619Y-85814857D01*
X126058761Y-85911619D01*
X126155523Y-86008380D01*
X126203904Y-86105142D01*
X126639333Y-85137523D02*
X126639333Y-84653714D01*
X126929619Y-85234285D02*
X125913619Y-84895619D01*
X126929619Y-84556952D01*
X124389619Y-87217904D02*
X123373619Y-87217904D01*
X124099333Y-86879238D01*
X123373619Y-86540571D01*
X124389619Y-86540571D01*
X123470380Y-86105142D02*
X123422000Y-86056761D01*
X123373619Y-85960000D01*
X123373619Y-85718095D01*
X123422000Y-85621333D01*
X123470380Y-85572952D01*
X123567142Y-85524571D01*
X123663904Y-85524571D01*
X123809047Y-85572952D01*
X124389619Y-86153523D01*
X124389619Y-85524571D01*
X124099333Y-85137523D02*
X124099333Y-84653714D01*
X124389619Y-85234285D02*
X123373619Y-84895619D01*
X124389619Y-84556952D01*
X121849619Y-87290476D02*
X120833619Y-87290476D01*
X121559333Y-86951809D01*
X120833619Y-86613142D01*
X121849619Y-86613142D01*
X120930380Y-86177714D02*
X120882000Y-86129333D01*
X120833619Y-86032571D01*
X120833619Y-85790666D01*
X120882000Y-85693904D01*
X120930380Y-85645523D01*
X121027142Y-85597142D01*
X121123904Y-85597142D01*
X121269047Y-85645523D01*
X121849619Y-86226095D01*
X121849619Y-85597142D01*
X121317428Y-84823047D02*
X121365809Y-84677904D01*
X121414190Y-84629523D01*
X121510952Y-84581142D01*
X121656095Y-84581142D01*
X121752857Y-84629523D01*
X121801238Y-84677904D01*
X121849619Y-84774666D01*
X121849619Y-85161714D01*
X120833619Y-85161714D01*
X120833619Y-84823047D01*
X120882000Y-84726285D01*
X120930380Y-84677904D01*
X121027142Y-84629523D01*
X121123904Y-84629523D01*
X121220666Y-84677904D01*
X121269047Y-84726285D01*
X121317428Y-84823047D01*
X121317428Y-85161714D01*
X133582000Y-86734095D02*
X133533619Y-86830857D01*
X133533619Y-86976000D01*
X133582000Y-87121142D01*
X133678761Y-87217904D01*
X133775523Y-87266285D01*
X133969047Y-87314666D01*
X134114190Y-87314666D01*
X134307714Y-87266285D01*
X134404476Y-87217904D01*
X134501238Y-87121142D01*
X134549619Y-86976000D01*
X134549619Y-86879238D01*
X134501238Y-86734095D01*
X134452857Y-86685714D01*
X134114190Y-86685714D01*
X134114190Y-86879238D01*
X134549619Y-86250285D02*
X133533619Y-86250285D01*
X134549619Y-85669714D01*
X133533619Y-85669714D01*
X134549619Y-85185904D02*
X133533619Y-85185904D01*
X133533619Y-84944000D01*
X133582000Y-84798857D01*
X133678761Y-84702095D01*
X133775523Y-84653714D01*
X133969047Y-84605333D01*
X134114190Y-84605333D01*
X134307714Y-84653714D01*
X134404476Y-84702095D01*
X134501238Y-84798857D01*
X134549619Y-84944000D01*
X134549619Y-85185904D01*
X115753619Y-86879238D02*
X116769619Y-86540571D01*
X115753619Y-86201904D01*
X116769619Y-85863238D02*
X115753619Y-85863238D01*
X116479333Y-85524571D01*
X115753619Y-85185904D01*
X116769619Y-85185904D01*
X117864285Y-93069047D02*
X117864285Y-92902380D01*
X118126190Y-92830952D02*
X118126190Y-93069047D01*
X117626190Y-93069047D01*
X117626190Y-92830952D01*
X118126190Y-92616666D02*
X117626190Y-92616666D01*
X118126190Y-92330952D01*
X117626190Y-92330952D01*
X119859619Y-92406285D02*
X118843619Y-92406285D01*
X119569333Y-92067619D01*
X118843619Y-91728952D01*
X119859619Y-91728952D01*
X119811238Y-91293523D02*
X119859619Y-91148380D01*
X119859619Y-90906476D01*
X119811238Y-90809714D01*
X119762857Y-90761333D01*
X119666095Y-90712952D01*
X119569333Y-90712952D01*
X119472571Y-90761333D01*
X119424190Y-90809714D01*
X119375809Y-90906476D01*
X119327428Y-91100000D01*
X119279047Y-91196761D01*
X119230666Y-91245142D01*
X119133904Y-91293523D01*
X119037142Y-91293523D01*
X118940380Y-91245142D01*
X118892000Y-91196761D01*
X118843619Y-91100000D01*
X118843619Y-90858095D01*
X118892000Y-90712952D01*
X119859619Y-89745333D02*
X119859619Y-90325904D01*
X119859619Y-90035619D02*
X118843619Y-90035619D01*
X118988761Y-90132380D01*
X119085523Y-90229142D01*
X119133904Y-90325904D01*
X121849619Y-92346285D02*
X120833619Y-92346285D01*
X121559333Y-92007619D01*
X120833619Y-91668952D01*
X121849619Y-91668952D01*
X121801238Y-91233523D02*
X121849619Y-91088380D01*
X121849619Y-90846476D01*
X121801238Y-90749714D01*
X121752857Y-90701333D01*
X121656095Y-90652952D01*
X121559333Y-90652952D01*
X121462571Y-90701333D01*
X121414190Y-90749714D01*
X121365809Y-90846476D01*
X121317428Y-91040000D01*
X121269047Y-91136761D01*
X121220666Y-91185142D01*
X121123904Y-91233523D01*
X121027142Y-91233523D01*
X120930380Y-91185142D01*
X120882000Y-91136761D01*
X120833619Y-91040000D01*
X120833619Y-90798095D01*
X120882000Y-90652952D01*
X120930380Y-90265904D02*
X120882000Y-90217523D01*
X120833619Y-90120761D01*
X120833619Y-89878857D01*
X120882000Y-89782095D01*
X120930380Y-89733714D01*
X121027142Y-89685333D01*
X121123904Y-89685333D01*
X121269047Y-89733714D01*
X121849619Y-90314285D01*
X121849619Y-89685333D01*
X124341238Y-92346285D02*
X124389619Y-92201142D01*
X124389619Y-91959238D01*
X124341238Y-91862476D01*
X124292857Y-91814095D01*
X124196095Y-91765714D01*
X124099333Y-91765714D01*
X124002571Y-91814095D01*
X123954190Y-91862476D01*
X123905809Y-91959238D01*
X123857428Y-92152761D01*
X123809047Y-92249523D01*
X123760666Y-92297904D01*
X123663904Y-92346285D01*
X123567142Y-92346285D01*
X123470380Y-92297904D01*
X123422000Y-92249523D01*
X123373619Y-92152761D01*
X123373619Y-91910857D01*
X123422000Y-91765714D01*
X124389619Y-91330285D02*
X123373619Y-91330285D01*
X123373619Y-90943238D01*
X123422000Y-90846476D01*
X123470380Y-90798095D01*
X123567142Y-90749714D01*
X123712285Y-90749714D01*
X123809047Y-90798095D01*
X123857428Y-90846476D01*
X123905809Y-90943238D01*
X123905809Y-91330285D01*
X124389619Y-89733714D02*
X123905809Y-90072380D01*
X124389619Y-90314285D02*
X123373619Y-90314285D01*
X123373619Y-89927238D01*
X123422000Y-89830476D01*
X123470380Y-89782095D01*
X123567142Y-89733714D01*
X123712285Y-89733714D01*
X123809047Y-89782095D01*
X123857428Y-89830476D01*
X123905809Y-89927238D01*
X123905809Y-90314285D01*
X129459619Y-92306285D02*
X128443619Y-92306285D01*
X128443619Y-91919238D01*
X128492000Y-91822476D01*
X128540380Y-91774095D01*
X128637142Y-91725714D01*
X128782285Y-91725714D01*
X128879047Y-91774095D01*
X128927428Y-91822476D01*
X128975809Y-91919238D01*
X128975809Y-92306285D01*
X129459619Y-91290285D02*
X128443619Y-91290285D01*
X128443619Y-91048380D01*
X128492000Y-90903238D01*
X128588761Y-90806476D01*
X128685523Y-90758095D01*
X128879047Y-90709714D01*
X129024190Y-90709714D01*
X129217714Y-90758095D01*
X129314476Y-90806476D01*
X129411238Y-90903238D01*
X129459619Y-91048380D01*
X129459619Y-91290285D01*
X129459619Y-90274285D02*
X128443619Y-90274285D01*
X129459619Y-89693714D01*
X128443619Y-89693714D01*
X125913619Y-92225333D02*
X126736095Y-92225333D01*
X126832857Y-92176952D01*
X126881238Y-92128571D01*
X126929619Y-92031809D01*
X126929619Y-91838285D01*
X126881238Y-91741523D01*
X126832857Y-91693142D01*
X126736095Y-91644761D01*
X125913619Y-91644761D01*
X126929619Y-90580380D02*
X126445809Y-90919047D01*
X126929619Y-91160952D02*
X125913619Y-91160952D01*
X125913619Y-90773904D01*
X125962000Y-90677142D01*
X126010380Y-90628761D01*
X126107142Y-90580380D01*
X126252285Y-90580380D01*
X126349047Y-90628761D01*
X126397428Y-90677142D01*
X126445809Y-90773904D01*
X126445809Y-91160952D01*
X125913619Y-90290095D02*
X125913619Y-89709523D01*
X126929619Y-89999809D02*
X125913619Y-89999809D01*
X131961238Y-92684952D02*
X132009619Y-92539809D01*
X132009619Y-92297904D01*
X131961238Y-92201142D01*
X131912857Y-92152761D01*
X131816095Y-92104380D01*
X131719333Y-92104380D01*
X131622571Y-92152761D01*
X131574190Y-92201142D01*
X131525809Y-92297904D01*
X131477428Y-92491428D01*
X131429047Y-92588190D01*
X131380666Y-92636571D01*
X131283904Y-92684952D01*
X131187142Y-92684952D01*
X131090380Y-92636571D01*
X131042000Y-92588190D01*
X130993619Y-92491428D01*
X130993619Y-92249523D01*
X131042000Y-92104380D01*
X130993619Y-91814095D02*
X130993619Y-91233523D01*
X132009619Y-91523809D02*
X130993619Y-91523809D01*
X131477428Y-90894857D02*
X131477428Y-90556190D01*
X132009619Y-90411047D02*
X132009619Y-90894857D01*
X130993619Y-90894857D01*
X130993619Y-90411047D01*
X132009619Y-89975619D02*
X130993619Y-89975619D01*
X130993619Y-89588571D01*
X131042000Y-89491809D01*
X131090380Y-89443428D01*
X131187142Y-89395047D01*
X131332285Y-89395047D01*
X131429047Y-89443428D01*
X131477428Y-89491809D01*
X131525809Y-89588571D01*
X131525809Y-89975619D01*
X134549619Y-92056000D02*
X133533619Y-92056000D01*
X133533619Y-91814095D01*
X133582000Y-91668952D01*
X133678761Y-91572190D01*
X133775523Y-91523809D01*
X133969047Y-91475428D01*
X134114190Y-91475428D01*
X134307714Y-91523809D01*
X134404476Y-91572190D01*
X134501238Y-91668952D01*
X134549619Y-91814095D01*
X134549619Y-92056000D01*
X134549619Y-91040000D02*
X133533619Y-91040000D01*
X134549619Y-89975619D02*
X134065809Y-90314285D01*
X134549619Y-90556190D02*
X133533619Y-90556190D01*
X133533619Y-90169142D01*
X133582000Y-90072380D01*
X133630380Y-90024000D01*
X133727142Y-89975619D01*
X133872285Y-89975619D01*
X133969047Y-90024000D01*
X134017428Y-90072380D01*
X134065809Y-90169142D01*
X134065809Y-90556190D01*
X151082380Y-72842857D02*
X150606190Y-73176190D01*
X151082380Y-73414285D02*
X150082380Y-73414285D01*
X150082380Y-73033333D01*
X150130000Y-72938095D01*
X150177619Y-72890476D01*
X150272857Y-72842857D01*
X150415714Y-72842857D01*
X150510952Y-72890476D01*
X150558571Y-72938095D01*
X150606190Y-73033333D01*
X150606190Y-73414285D01*
X151082380Y-71890476D02*
X151082380Y-72461904D01*
X151082380Y-72176190D02*
X150082380Y-72176190D01*
X150225238Y-72271428D01*
X150320476Y-72366666D01*
X150368095Y-72461904D01*
X150082380Y-71271428D02*
X150082380Y-71176190D01*
X150130000Y-71080952D01*
X150177619Y-71033333D01*
X150272857Y-70985714D01*
X150463333Y-70938095D01*
X150701428Y-70938095D01*
X150891904Y-70985714D01*
X150987142Y-71033333D01*
X151034761Y-71080952D01*
X151082380Y-71176190D01*
X151082380Y-71271428D01*
X151034761Y-71366666D01*
X150987142Y-71414285D01*
X150891904Y-71461904D01*
X150701428Y-71509523D01*
X150463333Y-71509523D01*
X150272857Y-71461904D01*
X150177619Y-71414285D01*
X150130000Y-71366666D01*
X150082380Y-71271428D01*
X148582380Y-72366666D02*
X148106190Y-72700000D01*
X148582380Y-72938095D02*
X147582380Y-72938095D01*
X147582380Y-72557142D01*
X147630000Y-72461904D01*
X147677619Y-72414285D01*
X147772857Y-72366666D01*
X147915714Y-72366666D01*
X148010952Y-72414285D01*
X148058571Y-72461904D01*
X148106190Y-72557142D01*
X148106190Y-72938095D01*
X148582380Y-71890476D02*
X148582380Y-71700000D01*
X148534761Y-71604761D01*
X148487142Y-71557142D01*
X148344285Y-71461904D01*
X148153809Y-71414285D01*
X147772857Y-71414285D01*
X147677619Y-71461904D01*
X147630000Y-71509523D01*
X147582380Y-71604761D01*
X147582380Y-71795238D01*
X147630000Y-71890476D01*
X147677619Y-71938095D01*
X147772857Y-71985714D01*
X148010952Y-71985714D01*
X148106190Y-71938095D01*
X148153809Y-71890476D01*
X148201428Y-71795238D01*
X148201428Y-71604761D01*
X148153809Y-71509523D01*
X148106190Y-71461904D01*
X148010952Y-71414285D01*
X140977619Y-60033333D02*
X141453809Y-59700000D01*
X140977619Y-59461904D02*
X141977619Y-59461904D01*
X141977619Y-59842857D01*
X141930000Y-59938095D01*
X141882380Y-59985714D01*
X141787142Y-60033333D01*
X141644285Y-60033333D01*
X141549047Y-59985714D01*
X141501428Y-59938095D01*
X141453809Y-59842857D01*
X141453809Y-59461904D01*
X141549047Y-60604761D02*
X141596666Y-60509523D01*
X141644285Y-60461904D01*
X141739523Y-60414285D01*
X141787142Y-60414285D01*
X141882380Y-60461904D01*
X141930000Y-60509523D01*
X141977619Y-60604761D01*
X141977619Y-60795238D01*
X141930000Y-60890476D01*
X141882380Y-60938095D01*
X141787142Y-60985714D01*
X141739523Y-60985714D01*
X141644285Y-60938095D01*
X141596666Y-60890476D01*
X141549047Y-60795238D01*
X141549047Y-60604761D01*
X141501428Y-60509523D01*
X141453809Y-60461904D01*
X141358571Y-60414285D01*
X141168095Y-60414285D01*
X141072857Y-60461904D01*
X141025238Y-60509523D01*
X140977619Y-60604761D01*
X140977619Y-60795238D01*
X141025238Y-60890476D01*
X141072857Y-60938095D01*
X141168095Y-60985714D01*
X141358571Y-60985714D01*
X141453809Y-60938095D01*
X141501428Y-60890476D01*
X141549047Y-60795238D01*
X139733333Y-58182380D02*
X139400000Y-57706190D01*
X139161904Y-58182380D02*
X139161904Y-57182380D01*
X139542857Y-57182380D01*
X139638095Y-57230000D01*
X139685714Y-57277619D01*
X139733333Y-57372857D01*
X139733333Y-57515714D01*
X139685714Y-57610952D01*
X139638095Y-57658571D01*
X139542857Y-57706190D01*
X139161904Y-57706190D01*
X140066666Y-57182380D02*
X140733333Y-57182380D01*
X140304761Y-58182380D01*
X128033333Y-71322380D02*
X127700000Y-70846190D01*
X127461904Y-71322380D02*
X127461904Y-70322380D01*
X127842857Y-70322380D01*
X127938095Y-70370000D01*
X127985714Y-70417619D01*
X128033333Y-70512857D01*
X128033333Y-70655714D01*
X127985714Y-70750952D01*
X127938095Y-70798571D01*
X127842857Y-70846190D01*
X127461904Y-70846190D01*
X128890476Y-70322380D02*
X128700000Y-70322380D01*
X128604761Y-70370000D01*
X128557142Y-70417619D01*
X128461904Y-70560476D01*
X128414285Y-70750952D01*
X128414285Y-71131904D01*
X128461904Y-71227142D01*
X128509523Y-71274761D01*
X128604761Y-71322380D01*
X128795238Y-71322380D01*
X128890476Y-71274761D01*
X128938095Y-71227142D01*
X128985714Y-71131904D01*
X128985714Y-70893809D01*
X128938095Y-70798571D01*
X128890476Y-70750952D01*
X128795238Y-70703333D01*
X128604761Y-70703333D01*
X128509523Y-70750952D01*
X128461904Y-70798571D01*
X128414285Y-70893809D01*
X128033333Y-73622380D02*
X127700000Y-73146190D01*
X127461904Y-73622380D02*
X127461904Y-72622380D01*
X127842857Y-72622380D01*
X127938095Y-72670000D01*
X127985714Y-72717619D01*
X128033333Y-72812857D01*
X128033333Y-72955714D01*
X127985714Y-73050952D01*
X127938095Y-73098571D01*
X127842857Y-73146190D01*
X127461904Y-73146190D01*
X128938095Y-72622380D02*
X128461904Y-72622380D01*
X128414285Y-73098571D01*
X128461904Y-73050952D01*
X128557142Y-73003333D01*
X128795238Y-73003333D01*
X128890476Y-73050952D01*
X128938095Y-73098571D01*
X128985714Y-73193809D01*
X128985714Y-73431904D01*
X128938095Y-73527142D01*
X128890476Y-73574761D01*
X128795238Y-73622380D01*
X128557142Y-73622380D01*
X128461904Y-73574761D01*
X128414285Y-73527142D01*
X128033333Y-96822380D02*
X127700000Y-96346190D01*
X127461904Y-96822380D02*
X127461904Y-95822380D01*
X127842857Y-95822380D01*
X127938095Y-95870000D01*
X127985714Y-95917619D01*
X128033333Y-96012857D01*
X128033333Y-96155714D01*
X127985714Y-96250952D01*
X127938095Y-96298571D01*
X127842857Y-96346190D01*
X127461904Y-96346190D01*
X128890476Y-96155714D02*
X128890476Y-96822380D01*
X128652380Y-95774761D02*
X128414285Y-96489047D01*
X129033333Y-96489047D01*
X128033333Y-99122380D02*
X127700000Y-98646190D01*
X127461904Y-99122380D02*
X127461904Y-98122380D01*
X127842857Y-98122380D01*
X127938095Y-98170000D01*
X127985714Y-98217619D01*
X128033333Y-98312857D01*
X128033333Y-98455714D01*
X127985714Y-98550952D01*
X127938095Y-98598571D01*
X127842857Y-98646190D01*
X127461904Y-98646190D01*
X128366666Y-98122380D02*
X128985714Y-98122380D01*
X128652380Y-98503333D01*
X128795238Y-98503333D01*
X128890476Y-98550952D01*
X128938095Y-98598571D01*
X128985714Y-98693809D01*
X128985714Y-98931904D01*
X128938095Y-99027142D01*
X128890476Y-99074761D01*
X128795238Y-99122380D01*
X128509523Y-99122380D01*
X128414285Y-99074761D01*
X128366666Y-99027142D01*
X128045833Y-124622380D02*
X127712500Y-124146190D01*
X127474404Y-124622380D02*
X127474404Y-123622380D01*
X127855357Y-123622380D01*
X127950595Y-123670000D01*
X127998214Y-123717619D01*
X128045833Y-123812857D01*
X128045833Y-123955714D01*
X127998214Y-124050952D01*
X127950595Y-124098571D01*
X127855357Y-124146190D01*
X127474404Y-124146190D01*
X128998214Y-124622380D02*
X128426785Y-124622380D01*
X128712500Y-124622380D02*
X128712500Y-123622380D01*
X128617261Y-123765238D01*
X128522023Y-123860476D01*
X128426785Y-123908095D01*
X117552380Y-74533333D02*
X118266666Y-74533333D01*
X118409523Y-74580952D01*
X118504761Y-74676190D01*
X118552380Y-74819047D01*
X118552380Y-74914285D01*
X118552380Y-74057142D02*
X117552380Y-74057142D01*
X117552380Y-73676190D01*
X117600000Y-73580952D01*
X117647619Y-73533333D01*
X117742857Y-73485714D01*
X117885714Y-73485714D01*
X117980952Y-73533333D01*
X118028571Y-73580952D01*
X118076190Y-73676190D01*
X118076190Y-74057142D01*
X118552380Y-73009523D02*
X118552380Y-72819047D01*
X118504761Y-72723809D01*
X118457142Y-72676190D01*
X118314285Y-72580952D01*
X118123809Y-72533333D01*
X117742857Y-72533333D01*
X117647619Y-72580952D01*
X117600000Y-72628571D01*
X117552380Y-72723809D01*
X117552380Y-72914285D01*
X117600000Y-73009523D01*
X117647619Y-73057142D01*
X117742857Y-73104761D01*
X117980952Y-73104761D01*
X118076190Y-73057142D01*
X118123809Y-73009523D01*
X118171428Y-72914285D01*
X118171428Y-72723809D01*
X118123809Y-72628571D01*
X118076190Y-72580952D01*
X117980952Y-72533333D01*
X121352380Y-74533333D02*
X122066666Y-74533333D01*
X122209523Y-74580952D01*
X122304761Y-74676190D01*
X122352380Y-74819047D01*
X122352380Y-74914285D01*
X122352380Y-74057142D02*
X121352380Y-74057142D01*
X121352380Y-73676190D01*
X121400000Y-73580952D01*
X121447619Y-73533333D01*
X121542857Y-73485714D01*
X121685714Y-73485714D01*
X121780952Y-73533333D01*
X121828571Y-73580952D01*
X121876190Y-73676190D01*
X121876190Y-74057142D01*
X121780952Y-72914285D02*
X121733333Y-73009523D01*
X121685714Y-73057142D01*
X121590476Y-73104761D01*
X121542857Y-73104761D01*
X121447619Y-73057142D01*
X121400000Y-73009523D01*
X121352380Y-72914285D01*
X121352380Y-72723809D01*
X121400000Y-72628571D01*
X121447619Y-72580952D01*
X121542857Y-72533333D01*
X121590476Y-72533333D01*
X121685714Y-72580952D01*
X121733333Y-72628571D01*
X121780952Y-72723809D01*
X121780952Y-72914285D01*
X121828571Y-73009523D01*
X121876190Y-73057142D01*
X121971428Y-73104761D01*
X122161904Y-73104761D01*
X122257142Y-73057142D01*
X122304761Y-73009523D01*
X122352380Y-72914285D01*
X122352380Y-72723809D01*
X122304761Y-72628571D01*
X122257142Y-72580952D01*
X122161904Y-72533333D01*
X121971428Y-72533333D01*
X121876190Y-72580952D01*
X121828571Y-72628571D01*
X121780952Y-72723809D01*
X125152380Y-74533333D02*
X125866666Y-74533333D01*
X126009523Y-74580952D01*
X126104761Y-74676190D01*
X126152380Y-74819047D01*
X126152380Y-74914285D01*
X126152380Y-74057142D02*
X125152380Y-74057142D01*
X125152380Y-73676190D01*
X125200000Y-73580952D01*
X125247619Y-73533333D01*
X125342857Y-73485714D01*
X125485714Y-73485714D01*
X125580952Y-73533333D01*
X125628571Y-73580952D01*
X125676190Y-73676190D01*
X125676190Y-74057142D01*
X125152380Y-73152380D02*
X125152380Y-72485714D01*
X126152380Y-72914285D01*
X117552380Y-100033333D02*
X118266666Y-100033333D01*
X118409523Y-100080952D01*
X118504761Y-100176190D01*
X118552380Y-100319047D01*
X118552380Y-100414285D01*
X118552380Y-99557142D02*
X117552380Y-99557142D01*
X117552380Y-99176190D01*
X117600000Y-99080952D01*
X117647619Y-99033333D01*
X117742857Y-98985714D01*
X117885714Y-98985714D01*
X117980952Y-99033333D01*
X118028571Y-99080952D01*
X118076190Y-99176190D01*
X118076190Y-99557142D01*
X117552380Y-98128571D02*
X117552380Y-98319047D01*
X117600000Y-98414285D01*
X117647619Y-98461904D01*
X117790476Y-98557142D01*
X117980952Y-98604761D01*
X118361904Y-98604761D01*
X118457142Y-98557142D01*
X118504761Y-98509523D01*
X118552380Y-98414285D01*
X118552380Y-98223809D01*
X118504761Y-98128571D01*
X118457142Y-98080952D01*
X118361904Y-98033333D01*
X118123809Y-98033333D01*
X118028571Y-98080952D01*
X117980952Y-98128571D01*
X117933333Y-98223809D01*
X117933333Y-98414285D01*
X117980952Y-98509523D01*
X118028571Y-98557142D01*
X118123809Y-98604761D01*
X121452380Y-100033333D02*
X122166666Y-100033333D01*
X122309523Y-100080952D01*
X122404761Y-100176190D01*
X122452380Y-100319047D01*
X122452380Y-100414285D01*
X122452380Y-99557142D02*
X121452380Y-99557142D01*
X121452380Y-99176190D01*
X121500000Y-99080952D01*
X121547619Y-99033333D01*
X121642857Y-98985714D01*
X121785714Y-98985714D01*
X121880952Y-99033333D01*
X121928571Y-99080952D01*
X121976190Y-99176190D01*
X121976190Y-99557142D01*
X121452380Y-98080952D02*
X121452380Y-98557142D01*
X121928571Y-98604761D01*
X121880952Y-98557142D01*
X121833333Y-98461904D01*
X121833333Y-98223809D01*
X121880952Y-98128571D01*
X121928571Y-98080952D01*
X122023809Y-98033333D01*
X122261904Y-98033333D01*
X122357142Y-98080952D01*
X122404761Y-98128571D01*
X122452380Y-98223809D01*
X122452380Y-98461904D01*
X122404761Y-98557142D01*
X122357142Y-98604761D01*
X125152380Y-100033333D02*
X125866666Y-100033333D01*
X126009523Y-100080952D01*
X126104761Y-100176190D01*
X126152380Y-100319047D01*
X126152380Y-100414285D01*
X126152380Y-99557142D02*
X125152380Y-99557142D01*
X125152380Y-99176190D01*
X125200000Y-99080952D01*
X125247619Y-99033333D01*
X125342857Y-98985714D01*
X125485714Y-98985714D01*
X125580952Y-99033333D01*
X125628571Y-99080952D01*
X125676190Y-99176190D01*
X125676190Y-99557142D01*
X125485714Y-98128571D02*
X126152380Y-98128571D01*
X125104761Y-98366666D02*
X125819047Y-98604761D01*
X125819047Y-97985714D01*
X117452380Y-125533333D02*
X118166666Y-125533333D01*
X118309523Y-125580952D01*
X118404761Y-125676190D01*
X118452380Y-125819047D01*
X118452380Y-125914285D01*
X118452380Y-125057142D02*
X117452380Y-125057142D01*
X117452380Y-124676190D01*
X117500000Y-124580952D01*
X117547619Y-124533333D01*
X117642857Y-124485714D01*
X117785714Y-124485714D01*
X117880952Y-124533333D01*
X117928571Y-124580952D01*
X117976190Y-124676190D01*
X117976190Y-125057142D01*
X117452380Y-124152380D02*
X117452380Y-123533333D01*
X117833333Y-123866666D01*
X117833333Y-123723809D01*
X117880952Y-123628571D01*
X117928571Y-123580952D01*
X118023809Y-123533333D01*
X118261904Y-123533333D01*
X118357142Y-123580952D01*
X118404761Y-123628571D01*
X118452380Y-123723809D01*
X118452380Y-124009523D01*
X118404761Y-124104761D01*
X118357142Y-124152380D01*
X122547619Y-123866666D02*
X121833333Y-123866666D01*
X121690476Y-123819047D01*
X121595238Y-123723809D01*
X121547619Y-123580952D01*
X121547619Y-123485714D01*
X121547619Y-124342857D02*
X122547619Y-124342857D01*
X122547619Y-124723809D01*
X122500000Y-124819047D01*
X122452380Y-124866666D01*
X122357142Y-124914285D01*
X122214285Y-124914285D01*
X122119047Y-124866666D01*
X122071428Y-124819047D01*
X122023809Y-124723809D01*
X122023809Y-124342857D01*
X122452380Y-125295238D02*
X122500000Y-125342857D01*
X122547619Y-125438095D01*
X122547619Y-125676190D01*
X122500000Y-125771428D01*
X122452380Y-125819047D01*
X122357142Y-125866666D01*
X122261904Y-125866666D01*
X122119047Y-125819047D01*
X121547619Y-125247619D01*
X121547619Y-125866666D01*
X125202380Y-125533333D02*
X125916666Y-125533333D01*
X126059523Y-125580952D01*
X126154761Y-125676190D01*
X126202380Y-125819047D01*
X126202380Y-125914285D01*
X126202380Y-125057142D02*
X125202380Y-125057142D01*
X125202380Y-124676190D01*
X125250000Y-124580952D01*
X125297619Y-124533333D01*
X125392857Y-124485714D01*
X125535714Y-124485714D01*
X125630952Y-124533333D01*
X125678571Y-124580952D01*
X125726190Y-124676190D01*
X125726190Y-125057142D01*
X126202380Y-123533333D02*
X126202380Y-124104761D01*
X126202380Y-123819047D02*
X125202380Y-123819047D01*
X125345238Y-123914285D01*
X125440476Y-124009523D01*
X125488095Y-124104761D01*
X144102380Y-89676190D02*
X143102380Y-89676190D01*
X144007142Y-88628571D02*
X144054761Y-88676190D01*
X144102380Y-88819047D01*
X144102380Y-88914285D01*
X144054761Y-89057142D01*
X143959523Y-89152380D01*
X143864285Y-89200000D01*
X143673809Y-89247619D01*
X143530952Y-89247619D01*
X143340476Y-89200000D01*
X143245238Y-89152380D01*
X143150000Y-89057142D01*
X143102380Y-88914285D01*
X143102380Y-88819047D01*
X143150000Y-88676190D01*
X143197619Y-88628571D01*
X143197619Y-88247619D02*
X143150000Y-88200000D01*
X143102380Y-88104761D01*
X143102380Y-87866666D01*
X143150000Y-87771428D01*
X143197619Y-87723809D01*
X143292857Y-87676190D01*
X143388095Y-87676190D01*
X143530952Y-87723809D01*
X144102380Y-88295238D01*
X144102380Y-87676190D01*
X111057142Y-110887142D02*
X111009523Y-110934761D01*
X110866666Y-110982380D01*
X110771428Y-110982380D01*
X110628571Y-110934761D01*
X110533333Y-110839523D01*
X110485714Y-110744285D01*
X110438095Y-110553809D01*
X110438095Y-110410952D01*
X110485714Y-110220476D01*
X110533333Y-110125238D01*
X110628571Y-110030000D01*
X110771428Y-109982380D01*
X110866666Y-109982380D01*
X111009523Y-110030000D01*
X111057142Y-110077619D01*
X111438095Y-110077619D02*
X111485714Y-110030000D01*
X111580952Y-109982380D01*
X111819047Y-109982380D01*
X111914285Y-110030000D01*
X111961904Y-110077619D01*
X112009523Y-110172857D01*
X112009523Y-110268095D01*
X111961904Y-110410952D01*
X111390476Y-110982380D01*
X112009523Y-110982380D01*
X112580952Y-110410952D02*
X112485714Y-110363333D01*
X112438095Y-110315714D01*
X112390476Y-110220476D01*
X112390476Y-110172857D01*
X112438095Y-110077619D01*
X112485714Y-110030000D01*
X112580952Y-109982380D01*
X112771428Y-109982380D01*
X112866666Y-110030000D01*
X112914285Y-110077619D01*
X112961904Y-110172857D01*
X112961904Y-110220476D01*
X112914285Y-110315714D01*
X112866666Y-110363333D01*
X112771428Y-110410952D01*
X112580952Y-110410952D01*
X112485714Y-110458571D01*
X112438095Y-110506190D01*
X112390476Y-110601428D01*
X112390476Y-110791904D01*
X112438095Y-110887142D01*
X112485714Y-110934761D01*
X112580952Y-110982380D01*
X112771428Y-110982380D01*
X112866666Y-110934761D01*
X112914285Y-110887142D01*
X112961904Y-110791904D01*
X112961904Y-110601428D01*
X112914285Y-110506190D01*
X112866666Y-110458571D01*
X112771428Y-110410952D01*
X137127142Y-53642857D02*
X137174761Y-53690476D01*
X137222380Y-53833333D01*
X137222380Y-53928571D01*
X137174761Y-54071428D01*
X137079523Y-54166666D01*
X136984285Y-54214285D01*
X136793809Y-54261904D01*
X136650952Y-54261904D01*
X136460476Y-54214285D01*
X136365238Y-54166666D01*
X136270000Y-54071428D01*
X136222380Y-53928571D01*
X136222380Y-53833333D01*
X136270000Y-53690476D01*
X136317619Y-53642857D01*
X137222380Y-52690476D02*
X137222380Y-53261904D01*
X137222380Y-52976190D02*
X136222380Y-52976190D01*
X136365238Y-53071428D01*
X136460476Y-53166666D01*
X136508095Y-53261904D01*
X136222380Y-52357142D02*
X136222380Y-51738095D01*
X136603333Y-52071428D01*
X136603333Y-51928571D01*
X136650952Y-51833333D01*
X136698571Y-51785714D01*
X136793809Y-51738095D01*
X137031904Y-51738095D01*
X137127142Y-51785714D01*
X137174761Y-51833333D01*
X137222380Y-51928571D01*
X137222380Y-52214285D01*
X137174761Y-52309523D01*
X137127142Y-52357142D01*
X108757142Y-65857142D02*
X108709523Y-65904761D01*
X108566666Y-65952380D01*
X108471428Y-65952380D01*
X108328571Y-65904761D01*
X108233333Y-65809523D01*
X108185714Y-65714285D01*
X108138095Y-65523809D01*
X108138095Y-65380952D01*
X108185714Y-65190476D01*
X108233333Y-65095238D01*
X108328571Y-65000000D01*
X108471428Y-64952380D01*
X108566666Y-64952380D01*
X108709523Y-65000000D01*
X108757142Y-65047619D01*
X109709523Y-65952380D02*
X109138095Y-65952380D01*
X109423809Y-65952380D02*
X109423809Y-64952380D01*
X109328571Y-65095238D01*
X109233333Y-65190476D01*
X109138095Y-65238095D01*
X110090476Y-65047619D02*
X110138095Y-65000000D01*
X110233333Y-64952380D01*
X110471428Y-64952380D01*
X110566666Y-65000000D01*
X110614285Y-65047619D01*
X110661904Y-65142857D01*
X110661904Y-65238095D01*
X110614285Y-65380952D01*
X110042857Y-65952380D01*
X110661904Y-65952380D01*
X108757142Y-71857142D02*
X108709523Y-71904761D01*
X108566666Y-71952380D01*
X108471428Y-71952380D01*
X108328571Y-71904761D01*
X108233333Y-71809523D01*
X108185714Y-71714285D01*
X108138095Y-71523809D01*
X108138095Y-71380952D01*
X108185714Y-71190476D01*
X108233333Y-71095238D01*
X108328571Y-71000000D01*
X108471428Y-70952380D01*
X108566666Y-70952380D01*
X108709523Y-71000000D01*
X108757142Y-71047619D01*
X109709523Y-71952380D02*
X109138095Y-71952380D01*
X109423809Y-71952380D02*
X109423809Y-70952380D01*
X109328571Y-71095238D01*
X109233333Y-71190476D01*
X109138095Y-71238095D01*
X110661904Y-71952380D02*
X110090476Y-71952380D01*
X110376190Y-71952380D02*
X110376190Y-70952380D01*
X110280952Y-71095238D01*
X110185714Y-71190476D01*
X110090476Y-71238095D01*
X135927142Y-61442857D02*
X135974761Y-61490476D01*
X136022380Y-61633333D01*
X136022380Y-61728571D01*
X135974761Y-61871428D01*
X135879523Y-61966666D01*
X135784285Y-62014285D01*
X135593809Y-62061904D01*
X135450952Y-62061904D01*
X135260476Y-62014285D01*
X135165238Y-61966666D01*
X135070000Y-61871428D01*
X135022380Y-61728571D01*
X135022380Y-61633333D01*
X135070000Y-61490476D01*
X135117619Y-61442857D01*
X136022380Y-60490476D02*
X136022380Y-61061904D01*
X136022380Y-60776190D02*
X135022380Y-60776190D01*
X135165238Y-60871428D01*
X135260476Y-60966666D01*
X135308095Y-61061904D01*
X135022380Y-59871428D02*
X135022380Y-59776190D01*
X135070000Y-59680952D01*
X135117619Y-59633333D01*
X135212857Y-59585714D01*
X135403333Y-59538095D01*
X135641428Y-59538095D01*
X135831904Y-59585714D01*
X135927142Y-59633333D01*
X135974761Y-59680952D01*
X136022380Y-59776190D01*
X136022380Y-59871428D01*
X135974761Y-59966666D01*
X135927142Y-60014285D01*
X135831904Y-60061904D01*
X135641428Y-60109523D01*
X135403333Y-60109523D01*
X135212857Y-60061904D01*
X135117619Y-60014285D01*
X135070000Y-59966666D01*
X135022380Y-59871428D01*
X111533333Y-59887142D02*
X111485714Y-59934761D01*
X111342857Y-59982380D01*
X111247619Y-59982380D01*
X111104761Y-59934761D01*
X111009523Y-59839523D01*
X110961904Y-59744285D01*
X110914285Y-59553809D01*
X110914285Y-59410952D01*
X110961904Y-59220476D01*
X111009523Y-59125238D01*
X111104761Y-59030000D01*
X111247619Y-58982380D01*
X111342857Y-58982380D01*
X111485714Y-59030000D01*
X111533333Y-59077619D01*
X112009523Y-59982380D02*
X112200000Y-59982380D01*
X112295238Y-59934761D01*
X112342857Y-59887142D01*
X112438095Y-59744285D01*
X112485714Y-59553809D01*
X112485714Y-59172857D01*
X112438095Y-59077619D01*
X112390476Y-59030000D01*
X112295238Y-58982380D01*
X112104761Y-58982380D01*
X112009523Y-59030000D01*
X111961904Y-59077619D01*
X111914285Y-59172857D01*
X111914285Y-59410952D01*
X111961904Y-59506190D01*
X112009523Y-59553809D01*
X112104761Y-59601428D01*
X112295238Y-59601428D01*
X112390476Y-59553809D01*
X112438095Y-59506190D01*
X112485714Y-59410952D01*
X135227142Y-88766666D02*
X135274761Y-88814285D01*
X135322380Y-88957142D01*
X135322380Y-89052380D01*
X135274761Y-89195238D01*
X135179523Y-89290476D01*
X135084285Y-89338095D01*
X134893809Y-89385714D01*
X134750952Y-89385714D01*
X134560476Y-89338095D01*
X134465238Y-89290476D01*
X134370000Y-89195238D01*
X134322380Y-89052380D01*
X134322380Y-88957142D01*
X134370000Y-88814285D01*
X134417619Y-88766666D01*
X134750952Y-88195238D02*
X134703333Y-88290476D01*
X134655714Y-88338095D01*
X134560476Y-88385714D01*
X134512857Y-88385714D01*
X134417619Y-88338095D01*
X134370000Y-88290476D01*
X134322380Y-88195238D01*
X134322380Y-88004761D01*
X134370000Y-87909523D01*
X134417619Y-87861904D01*
X134512857Y-87814285D01*
X134560476Y-87814285D01*
X134655714Y-87861904D01*
X134703333Y-87909523D01*
X134750952Y-88004761D01*
X134750952Y-88195238D01*
X134798571Y-88290476D01*
X134846190Y-88338095D01*
X134941428Y-88385714D01*
X135131904Y-88385714D01*
X135227142Y-88338095D01*
X135274761Y-88290476D01*
X135322380Y-88195238D01*
X135322380Y-88004761D01*
X135274761Y-87909523D01*
X135227142Y-87861904D01*
X135131904Y-87814285D01*
X134941428Y-87814285D01*
X134846190Y-87861904D01*
X134798571Y-87909523D01*
X134750952Y-88004761D01*
X109233333Y-97357142D02*
X109185714Y-97404761D01*
X109042857Y-97452380D01*
X108947619Y-97452380D01*
X108804761Y-97404761D01*
X108709523Y-97309523D01*
X108661904Y-97214285D01*
X108614285Y-97023809D01*
X108614285Y-96880952D01*
X108661904Y-96690476D01*
X108709523Y-96595238D01*
X108804761Y-96500000D01*
X108947619Y-96452380D01*
X109042857Y-96452380D01*
X109185714Y-96500000D01*
X109233333Y-96547619D01*
X109566666Y-96452380D02*
X110233333Y-96452380D01*
X109804761Y-97452380D01*
X109233333Y-91357142D02*
X109185714Y-91404761D01*
X109042857Y-91452380D01*
X108947619Y-91452380D01*
X108804761Y-91404761D01*
X108709523Y-91309523D01*
X108661904Y-91214285D01*
X108614285Y-91023809D01*
X108614285Y-90880952D01*
X108661904Y-90690476D01*
X108709523Y-90595238D01*
X108804761Y-90500000D01*
X108947619Y-90452380D01*
X109042857Y-90452380D01*
X109185714Y-90500000D01*
X109233333Y-90547619D01*
X110090476Y-90452380D02*
X109900000Y-90452380D01*
X109804761Y-90500000D01*
X109757142Y-90547619D01*
X109661904Y-90690476D01*
X109614285Y-90880952D01*
X109614285Y-91261904D01*
X109661904Y-91357142D01*
X109709523Y-91404761D01*
X109804761Y-91452380D01*
X109995238Y-91452380D01*
X110090476Y-91404761D01*
X110138095Y-91357142D01*
X110185714Y-91261904D01*
X110185714Y-91023809D01*
X110138095Y-90928571D01*
X110090476Y-90880952D01*
X109995238Y-90833333D01*
X109804761Y-90833333D01*
X109709523Y-90880952D01*
X109661904Y-90928571D01*
X109614285Y-91023809D01*
X133733333Y-78027142D02*
X133685714Y-78074761D01*
X133542857Y-78122380D01*
X133447619Y-78122380D01*
X133304761Y-78074761D01*
X133209523Y-77979523D01*
X133161904Y-77884285D01*
X133114285Y-77693809D01*
X133114285Y-77550952D01*
X133161904Y-77360476D01*
X133209523Y-77265238D01*
X133304761Y-77170000D01*
X133447619Y-77122380D01*
X133542857Y-77122380D01*
X133685714Y-77170000D01*
X133733333Y-77217619D01*
X134638095Y-77122380D02*
X134161904Y-77122380D01*
X134114285Y-77598571D01*
X134161904Y-77550952D01*
X134257142Y-77503333D01*
X134495238Y-77503333D01*
X134590476Y-77550952D01*
X134638095Y-77598571D01*
X134685714Y-77693809D01*
X134685714Y-77931904D01*
X134638095Y-78027142D01*
X134590476Y-78074761D01*
X134495238Y-78122380D01*
X134257142Y-78122380D01*
X134161904Y-78074761D01*
X134114285Y-78027142D01*
X111533333Y-85387142D02*
X111485714Y-85434761D01*
X111342857Y-85482380D01*
X111247619Y-85482380D01*
X111104761Y-85434761D01*
X111009523Y-85339523D01*
X110961904Y-85244285D01*
X110914285Y-85053809D01*
X110914285Y-84910952D01*
X110961904Y-84720476D01*
X111009523Y-84625238D01*
X111104761Y-84530000D01*
X111247619Y-84482380D01*
X111342857Y-84482380D01*
X111485714Y-84530000D01*
X111533333Y-84577619D01*
X112390476Y-84815714D02*
X112390476Y-85482380D01*
X112152380Y-84434761D02*
X111914285Y-85149047D01*
X112533333Y-85149047D01*
X109233333Y-122757142D02*
X109185714Y-122804761D01*
X109042857Y-122852380D01*
X108947619Y-122852380D01*
X108804761Y-122804761D01*
X108709523Y-122709523D01*
X108661904Y-122614285D01*
X108614285Y-122423809D01*
X108614285Y-122280952D01*
X108661904Y-122090476D01*
X108709523Y-121995238D01*
X108804761Y-121900000D01*
X108947619Y-121852380D01*
X109042857Y-121852380D01*
X109185714Y-121900000D01*
X109233333Y-121947619D01*
X109566666Y-121852380D02*
X110185714Y-121852380D01*
X109852380Y-122233333D01*
X109995238Y-122233333D01*
X110090476Y-122280952D01*
X110138095Y-122328571D01*
X110185714Y-122423809D01*
X110185714Y-122661904D01*
X110138095Y-122757142D01*
X110090476Y-122804761D01*
X109995238Y-122852380D01*
X109709523Y-122852380D01*
X109614285Y-122804761D01*
X109566666Y-122757142D01*
X109233333Y-116857142D02*
X109185714Y-116904761D01*
X109042857Y-116952380D01*
X108947619Y-116952380D01*
X108804761Y-116904761D01*
X108709523Y-116809523D01*
X108661904Y-116714285D01*
X108614285Y-116523809D01*
X108614285Y-116380952D01*
X108661904Y-116190476D01*
X108709523Y-116095238D01*
X108804761Y-116000000D01*
X108947619Y-115952380D01*
X109042857Y-115952380D01*
X109185714Y-116000000D01*
X109233333Y-116047619D01*
X109614285Y-116047619D02*
X109661904Y-116000000D01*
X109757142Y-115952380D01*
X109995238Y-115952380D01*
X110090476Y-116000000D01*
X110138095Y-116047619D01*
X110185714Y-116142857D01*
X110185714Y-116238095D01*
X110138095Y-116380952D01*
X109566666Y-116952380D01*
X110185714Y-116952380D01*
X133833333Y-103527142D02*
X133785714Y-103574761D01*
X133642857Y-103622380D01*
X133547619Y-103622380D01*
X133404761Y-103574761D01*
X133309523Y-103479523D01*
X133261904Y-103384285D01*
X133214285Y-103193809D01*
X133214285Y-103050952D01*
X133261904Y-102860476D01*
X133309523Y-102765238D01*
X133404761Y-102670000D01*
X133547619Y-102622380D01*
X133642857Y-102622380D01*
X133785714Y-102670000D01*
X133833333Y-102717619D01*
X134785714Y-103622380D02*
X134214285Y-103622380D01*
X134500000Y-103622380D02*
X134500000Y-102622380D01*
X134404761Y-102765238D01*
X134309523Y-102860476D01*
X134214285Y-102908095D01*
X140690476Y-66252380D02*
X140690476Y-65252380D01*
X141023809Y-65966666D01*
X141357142Y-65252380D01*
X141357142Y-66252380D01*
X141833333Y-66252380D02*
X141833333Y-65252380D01*
X142404761Y-66252380D02*
X141976190Y-65680952D01*
X142404761Y-65252380D02*
X141833333Y-65823809D01*
X143261904Y-65252380D02*
X143071428Y-65252380D01*
X142976190Y-65300000D01*
X142928571Y-65347619D01*
X142833333Y-65490476D01*
X142785714Y-65680952D01*
X142785714Y-66061904D01*
X142833333Y-66157142D01*
X142880952Y-66204761D01*
X142976190Y-66252380D01*
X143166666Y-66252380D01*
X143261904Y-66204761D01*
X143309523Y-66157142D01*
X143357142Y-66061904D01*
X143357142Y-65823809D01*
X143309523Y-65728571D01*
X143261904Y-65680952D01*
X143166666Y-65633333D01*
X142976190Y-65633333D01*
X142880952Y-65680952D01*
X142833333Y-65728571D01*
X142785714Y-65823809D01*
X113922380Y-78333333D02*
X114636666Y-78333333D01*
X114779523Y-78380952D01*
X114874761Y-78476190D01*
X114922380Y-78619047D01*
X114922380Y-78714285D01*
X114350952Y-77714285D02*
X114303333Y-77809523D01*
X114255714Y-77857142D01*
X114160476Y-77904761D01*
X114112857Y-77904761D01*
X114017619Y-77857142D01*
X113970000Y-77809523D01*
X113922380Y-77714285D01*
X113922380Y-77523809D01*
X113970000Y-77428571D01*
X114017619Y-77380952D01*
X114112857Y-77333333D01*
X114160476Y-77333333D01*
X114255714Y-77380952D01*
X114303333Y-77428571D01*
X114350952Y-77523809D01*
X114350952Y-77714285D01*
X114398571Y-77809523D01*
X114446190Y-77857142D01*
X114541428Y-77904761D01*
X114731904Y-77904761D01*
X114827142Y-77857142D01*
X114874761Y-77809523D01*
X114922380Y-77714285D01*
X114922380Y-77523809D01*
X114874761Y-77428571D01*
X114827142Y-77380952D01*
X114731904Y-77333333D01*
X114541428Y-77333333D01*
X114446190Y-77380952D01*
X114398571Y-77428571D01*
X114350952Y-77523809D01*
X113922380Y-103833333D02*
X114636666Y-103833333D01*
X114779523Y-103880952D01*
X114874761Y-103976190D01*
X114922380Y-104119047D01*
X114922380Y-104214285D01*
X113922380Y-102928571D02*
X113922380Y-103119047D01*
X113970000Y-103214285D01*
X114017619Y-103261904D01*
X114160476Y-103357142D01*
X114350952Y-103404761D01*
X114731904Y-103404761D01*
X114827142Y-103357142D01*
X114874761Y-103309523D01*
X114922380Y-103214285D01*
X114922380Y-103023809D01*
X114874761Y-102928571D01*
X114827142Y-102880952D01*
X114731904Y-102833333D01*
X114493809Y-102833333D01*
X114398571Y-102880952D01*
X114350952Y-102928571D01*
X114303333Y-103023809D01*
X114303333Y-103214285D01*
X114350952Y-103309523D01*
X114398571Y-103357142D01*
X114493809Y-103404761D01*
X128045833Y-122122380D02*
X127712500Y-121646190D01*
X127474404Y-122122380D02*
X127474404Y-121122380D01*
X127855357Y-121122380D01*
X127950595Y-121170000D01*
X127998214Y-121217619D01*
X128045833Y-121312857D01*
X128045833Y-121455714D01*
X127998214Y-121550952D01*
X127950595Y-121598571D01*
X127855357Y-121646190D01*
X127474404Y-121646190D01*
X128426785Y-121217619D02*
X128474404Y-121170000D01*
X128569642Y-121122380D01*
X128807738Y-121122380D01*
X128902976Y-121170000D01*
X128950595Y-121217619D01*
X128998214Y-121312857D01*
X128998214Y-121408095D01*
X128950595Y-121550952D01*
X128379166Y-122122380D01*
X128998214Y-122122380D01*
X113822380Y-129333333D02*
X114536666Y-129333333D01*
X114679523Y-129380952D01*
X114774761Y-129476190D01*
X114822380Y-129619047D01*
X114822380Y-129714285D01*
X113822380Y-128952380D02*
X113822380Y-128333333D01*
X114203333Y-128666666D01*
X114203333Y-128523809D01*
X114250952Y-128428571D01*
X114298571Y-128380952D01*
X114393809Y-128333333D01*
X114631904Y-128333333D01*
X114727142Y-128380952D01*
X114774761Y-128428571D01*
X114822380Y-128523809D01*
X114822380Y-128809523D01*
X114774761Y-128904761D01*
X114727142Y-128952380D01*
X118123809Y-48452380D02*
X118123809Y-47452380D01*
X119171428Y-48357142D02*
X119123809Y-48404761D01*
X118980952Y-48452380D01*
X118885714Y-48452380D01*
X118742857Y-48404761D01*
X118647619Y-48309523D01*
X118600000Y-48214285D01*
X118552380Y-48023809D01*
X118552380Y-47880952D01*
X118600000Y-47690476D01*
X118647619Y-47595238D01*
X118742857Y-47500000D01*
X118885714Y-47452380D01*
X118980952Y-47452380D01*
X119123809Y-47500000D01*
X119171428Y-47547619D01*
X120123809Y-48452380D02*
X119552380Y-48452380D01*
X119838095Y-48452380D02*
X119838095Y-47452380D01*
X119742857Y-47595238D01*
X119647619Y-47690476D01*
X119552380Y-47738095D01*
X96690476Y-66252380D02*
X96690476Y-65252380D01*
X97023809Y-65966666D01*
X97357142Y-65252380D01*
X97357142Y-66252380D01*
X97833333Y-66252380D02*
X97833333Y-65252380D01*
X98404761Y-66252380D02*
X97976190Y-65680952D01*
X98404761Y-65252380D02*
X97833333Y-65823809D01*
X99309523Y-65252380D02*
X98833333Y-65252380D01*
X98785714Y-65728571D01*
X98833333Y-65680952D01*
X98928571Y-65633333D01*
X99166666Y-65633333D01*
X99261904Y-65680952D01*
X99309523Y-65728571D01*
X99357142Y-65823809D01*
X99357142Y-66061904D01*
X99309523Y-66157142D01*
X99261904Y-66204761D01*
X99166666Y-66252380D01*
X98928571Y-66252380D01*
X98833333Y-66204761D01*
X98785714Y-66157142D01*
X138252380Y-43309523D02*
X137252380Y-43309523D01*
X137966666Y-42976190D01*
X137252380Y-42642857D01*
X138252380Y-42642857D01*
X138252380Y-42166666D02*
X137252380Y-42166666D01*
X138252380Y-41595238D02*
X137680952Y-42023809D01*
X137252380Y-41595238D02*
X137823809Y-42166666D01*
X137585714Y-40738095D02*
X138252380Y-40738095D01*
X137204761Y-40976190D02*
X137919047Y-41214285D01*
X137919047Y-40595238D01*
X140690476Y-123252380D02*
X140690476Y-122252380D01*
X141023809Y-122966666D01*
X141357142Y-122252380D01*
X141357142Y-123252380D01*
X141833333Y-123252380D02*
X141833333Y-122252380D01*
X142404761Y-123252380D02*
X141976190Y-122680952D01*
X142404761Y-122252380D02*
X141833333Y-122823809D01*
X142738095Y-122252380D02*
X143357142Y-122252380D01*
X143023809Y-122633333D01*
X143166666Y-122633333D01*
X143261904Y-122680952D01*
X143309523Y-122728571D01*
X143357142Y-122823809D01*
X143357142Y-123061904D01*
X143309523Y-123157142D01*
X143261904Y-123204761D01*
X143166666Y-123252380D01*
X142880952Y-123252380D01*
X142785714Y-123204761D01*
X142738095Y-123157142D01*
X96690476Y-123252380D02*
X96690476Y-122252380D01*
X97023809Y-122966666D01*
X97357142Y-122252380D01*
X97357142Y-123252380D01*
X97833333Y-123252380D02*
X97833333Y-122252380D01*
X98404761Y-123252380D02*
X97976190Y-122680952D01*
X98404761Y-122252380D02*
X97833333Y-122823809D01*
X98785714Y-122347619D02*
X98833333Y-122300000D01*
X98928571Y-122252380D01*
X99166666Y-122252380D01*
X99261904Y-122300000D01*
X99309523Y-122347619D01*
X99357142Y-122442857D01*
X99357142Y-122538095D01*
X99309523Y-122680952D01*
X98738095Y-123252380D01*
X99357142Y-123252380D01*
X102652380Y-43309523D02*
X101652380Y-43309523D01*
X102366666Y-42976190D01*
X101652380Y-42642857D01*
X102652380Y-42642857D01*
X102652380Y-42166666D02*
X101652380Y-42166666D01*
X102652380Y-41595238D02*
X102080952Y-42023809D01*
X101652380Y-41595238D02*
X102223809Y-42166666D01*
X102652380Y-40642857D02*
X102652380Y-41214285D01*
X102652380Y-40928571D02*
X101652380Y-40928571D01*
X101795238Y-41023809D01*
X101890476Y-41119047D01*
X101938095Y-41214285D01*
M02*
