M48
; DRILL file {KiCad (5.99.0-1438-g3759799d1)} date 05/11/20 10:33:15
; FORMAT={-:-/ absolute / metric / decimal}
; #@! TF.CreationDate,2020-05-11T10:33:15+02:00
; #@! TF.GenerationSoftware,Kicad,Pcbnew,(5.99.0-1438-g3759799d1)
; #@! TF.FileFunction,Plated,1,2,PTH
FMAT,2
METRIC
T1C0.400
T2C0.500
T3C0.762
T4C1.000
T5C1.200
T6C1.549
%
G90
G05
T1
X117.9Y-126.0
X118.0Y-75.0
X118.0Y-100.5
X121.8Y-75.0
X121.9Y-100.5
X121.9Y-126.0
X125.6Y-75.0
X125.6Y-100.5
X125.7Y-126.0
X130.1Y-72.3
X130.2Y-97.8
X130.5Y-123.1
X132.1Y-98.3
X132.4Y-72.7
X132.9Y-123.4
X133.1Y-77.9
X133.2Y-103.4
X134.7Y-77.9
X134.8Y-103.4
X136.1Y-59.1
X136.3Y-86.6
X139.1Y-55.05
X140.0Y-62.15
X141.4Y-59.4
X142.2Y-99.9
X143.15Y-55.225
X143.4Y-96.6
X144.05Y-55.75
X144.2Y-98.8
X144.7Y-115.9
X144.7Y-118.4
X144.9Y-100.7
X145.0Y-110.9
X145.8Y-65.67
X145.8Y-92.9
X147.09Y-88.16
X148.1Y-57.35
X149.3Y-52.6
X149.36Y-123.55
X149.4Y-121.0
X150.1Y-51.45
X150.4Y-73.0
X151.7Y-108.2
X152.55Y-58.15
T2
X104.4Y-62.4
X104.4Y-68.4
X104.4Y-87.9
X104.4Y-93.9
X104.4Y-113.4
X104.4Y-119.3
X107.4Y-74.3
X107.4Y-76.7
X107.5Y-64.6
X107.5Y-85.6
X107.6Y-70.5
X107.6Y-96.2
X107.7Y-98.9
X107.8Y-90.0
X109.6Y-110.1
X109.8Y-108.0
X110.0Y-113.3
X110.0Y-116.0
X110.5Y-111.25
X110.9Y-59.4
X110.9Y-85.0
X135.65Y-64.2
X136.8Y-52.2
X138.52Y-64.22
X140.6Y-52.15
X143.6Y-51.5
X143.65Y-60.75
X144.3Y-48.65
X146.3Y-57.4
X147.05Y-41.2
X147.3Y-58.0
X151.7Y-123.8
X153.9Y-122.3
T3
X138.95Y-84.3
X138.95Y-86.84
X138.95Y-89.38
X138.95Y-91.92
X138.95Y-94.46
X138.95Y-97.0
X114.7Y-52.7
X117.24Y-52.7
X119.78Y-52.7
X122.32Y-52.7
X124.86Y-52.7
X127.4Y-52.7
T4
X116.8Y-103.5
X119.34Y-103.5
X121.88Y-103.5
X124.42Y-103.5
X126.96Y-103.5
X129.5Y-103.5
X116.8Y-78.0
X119.34Y-78.0
X121.88Y-78.0
X124.42Y-78.0
X126.96Y-78.0
X129.5Y-78.0
X116.7Y-129.0
X119.24Y-129.0
X121.78Y-129.0
X124.32Y-129.0
X126.86Y-129.0
X129.4Y-129.0
T5
X97.9Y-109.9
X97.9Y-113.4
X97.9Y-116.9
X97.9Y-120.4
X97.9Y-93.2
X97.9Y-96.7
X97.9Y-100.2
X97.9Y-103.7
X97.9Y-50.8
X97.9Y-54.3
X97.9Y-57.8
X97.9Y-61.3
X97.9Y-76.5
X97.9Y-80.0
X97.9Y-83.5
X97.9Y-87.0
T6
X116.31Y-107.65
X116.31Y-115.27
X116.31Y-117.81
X116.31Y-120.35
X118.85Y-107.65
X118.85Y-120.35
X121.39Y-107.65
X121.39Y-120.35
X123.93Y-107.65
X123.93Y-120.35
X126.47Y-107.65
X126.47Y-120.35
X129.01Y-107.65
X129.01Y-120.35
X131.55Y-107.65
X131.55Y-120.35
X134.09Y-107.65
X134.09Y-120.35
X116.31Y-82.15
X116.31Y-89.77
X116.31Y-92.31
X116.31Y-94.85
X118.85Y-82.15
X118.85Y-94.85
X121.39Y-82.15
X121.39Y-94.85
X123.93Y-82.15
X123.93Y-94.85
X126.47Y-82.15
X126.47Y-94.85
X129.01Y-82.15
X129.01Y-94.85
X131.55Y-82.15
X131.55Y-94.85
X134.09Y-82.15
X134.09Y-94.85
X116.31Y-56.65
X116.31Y-64.27
X116.31Y-66.81
X116.31Y-69.35
X118.85Y-56.65
X118.85Y-69.35
X121.39Y-56.65
X121.39Y-69.35
X123.93Y-56.65
X123.93Y-69.35
X126.47Y-56.65
X126.47Y-69.35
X129.01Y-56.65
X129.01Y-69.35
X131.55Y-56.65
X131.55Y-69.35
X134.09Y-56.65
X134.09Y-69.35
T0
M30
