%FSLAX45Y45*%
G04 Gerber Fmt 4.5, Leading zero omitted, Abs format (unit mm)*
G04 Created by KiCad (PCBNEW (5.99.0-1438-g3759799d1)) date 2020-05-11 10:33:17*
%MOMM*%
%LPD*%
G01*
G04 APERTURE LIST*
%TA.AperFunction,Profile*%
%ADD10C,0.200000*%
%TD*%
%ADD11C,-0.000001*%
%ADD12C,0.040000*%
%ADD13C,0.050000*%
%ADD14C,0.076200*%
%ADD15C,0.100000*%
%ADD16C,0.120000*%
%ADD17C,0.154940*%
G04 APERTURE END LIST*
D10*
X9400000Y-3500000D02*
X15650000Y-3500000D01*
X15650000Y-13100000D02*
X9400000Y-13100000D01*
X9400000Y-13100000D02*
X9400000Y-3500000D01*
X15650000Y-3500000D02*
X15650000Y-13100000D01*
D11*
D12*
X11770000Y-12580000D02*
X11810000Y-12620000D01*
X11810000Y-12580000D02*
X11770000Y-12620000D01*
X11780000Y-7480000D02*
X11820000Y-7520000D01*
X11820000Y-7480000D02*
X11780000Y-7520000D01*
X11780000Y-10030000D02*
X11820000Y-10070000D01*
X11820000Y-10030000D02*
X11780000Y-10070000D01*
X12160000Y-7480000D02*
X12200000Y-7520000D01*
X12200000Y-7480000D02*
X12160000Y-7520000D01*
X12170000Y-10030000D02*
X12210000Y-10070000D01*
X12210000Y-10030000D02*
X12170000Y-10070000D01*
X12170000Y-12580000D02*
X12210000Y-12620000D01*
X12210000Y-12580000D02*
X12170000Y-12620000D01*
X12540000Y-7480000D02*
X12580000Y-7520000D01*
X12580000Y-7480000D02*
X12540000Y-7520000D01*
X12540000Y-10030000D02*
X12580000Y-10070000D01*
X12580000Y-10030000D02*
X12540000Y-10070000D01*
X12550000Y-12580000D02*
X12590000Y-12620000D01*
X12590000Y-12580000D02*
X12550000Y-12620000D01*
X12990000Y-7210000D02*
X13030000Y-7250000D01*
X13030000Y-7210000D02*
X12990000Y-7250000D01*
X13000000Y-9760000D02*
X13040000Y-9800000D01*
X13040000Y-9760000D02*
X13000000Y-9800000D01*
X13030000Y-12290000D02*
X13070000Y-12330000D01*
X13070000Y-12290000D02*
X13030000Y-12330000D01*
X13190000Y-9810000D02*
X13230000Y-9850000D01*
X13230000Y-9810000D02*
X13190000Y-9850000D01*
X13220000Y-7250000D02*
X13260000Y-7290000D01*
X13260000Y-7250000D02*
X13220000Y-7290000D01*
X13270000Y-12320000D02*
X13310000Y-12360000D01*
X13310000Y-12320000D02*
X13270000Y-12360000D01*
X13290000Y-7770000D02*
X13330000Y-7810000D01*
X13330000Y-7770000D02*
X13290000Y-7810000D01*
X13300000Y-10320000D02*
X13340000Y-10360000D01*
X13340000Y-10320000D02*
X13300000Y-10360000D01*
X13450000Y-7770000D02*
X13490000Y-7810000D01*
X13490000Y-7770000D02*
X13450000Y-7810000D01*
X13460000Y-10320000D02*
X13500000Y-10360000D01*
X13500000Y-10320000D02*
X13460000Y-10360000D01*
X13590000Y-5890000D02*
X13630000Y-5930000D01*
X13630000Y-5890000D02*
X13590000Y-5930000D01*
X13610000Y-8640000D02*
X13650000Y-8680000D01*
X13650000Y-8640000D02*
X13610000Y-8680000D01*
X13890000Y-5485000D02*
X13930000Y-5525000D01*
X13930000Y-5485000D02*
X13890000Y-5525000D01*
X13980000Y-6195000D02*
X14020000Y-6235000D01*
X14020000Y-6195000D02*
X13980000Y-6235000D01*
X14120000Y-5920000D02*
X14160000Y-5960000D01*
X14160000Y-5920000D02*
X14120000Y-5960000D01*
X14200000Y-9970000D02*
X14240000Y-10010000D01*
X14240000Y-9970000D02*
X14200000Y-10010000D01*
X14295000Y-5502500D02*
X14335000Y-5542500D01*
X14335000Y-5502500D02*
X14295000Y-5542500D01*
X14320000Y-9640000D02*
X14360000Y-9680000D01*
X14360000Y-9640000D02*
X14320000Y-9680000D01*
X14385000Y-5555000D02*
X14425000Y-5595000D01*
X14425000Y-5555000D02*
X14385000Y-5595000D01*
X14400000Y-9860000D02*
X14440000Y-9900000D01*
X14440000Y-9860000D02*
X14400000Y-9900000D01*
X14450000Y-11570000D02*
X14490000Y-11610000D01*
X14490000Y-11570000D02*
X14450000Y-11610000D01*
X14450000Y-11820000D02*
X14490000Y-11860000D01*
X14490000Y-11820000D02*
X14450000Y-11860000D01*
X14470000Y-10050000D02*
X14510000Y-10090000D01*
X14510000Y-10050000D02*
X14470000Y-10090000D01*
X14480000Y-11070000D02*
X14520000Y-11110000D01*
X14520000Y-11070000D02*
X14480000Y-11110000D01*
X14560000Y-6547000D02*
X14600000Y-6587000D01*
X14600000Y-6547000D02*
X14560000Y-6587000D01*
X14560000Y-9270000D02*
X14600000Y-9310000D01*
X14600000Y-9270000D02*
X14560000Y-9310000D01*
X14689000Y-8796000D02*
X14729000Y-8836000D01*
X14729000Y-8796000D02*
X14689000Y-8836000D01*
X14790000Y-5715000D02*
X14830000Y-5755000D01*
X14830000Y-5715000D02*
X14790000Y-5755000D01*
X14910000Y-5240000D02*
X14950000Y-5280000D01*
X14950000Y-5240000D02*
X14910000Y-5280000D01*
X14916000Y-12335000D02*
X14956000Y-12375000D01*
X14956000Y-12335000D02*
X14916000Y-12375000D01*
X14920000Y-12080000D02*
X14960000Y-12120000D01*
X14960000Y-12080000D02*
X14920000Y-12120000D01*
X14990000Y-5125000D02*
X15030000Y-5165000D01*
X15030000Y-5125000D02*
X14990000Y-5165000D01*
X15020000Y-7280000D02*
X15060000Y-7320000D01*
X15060000Y-7280000D02*
X15020000Y-7320000D01*
X15150000Y-10800000D02*
X15190000Y-10840000D01*
X15190000Y-10800000D02*
X15150000Y-10840000D01*
X15235000Y-5795000D02*
X15275000Y-5835000D01*
X15275000Y-5795000D02*
X15235000Y-5835000D01*
D13*
X10465000Y-6240000D02*
G75*
G03*
X10465000Y-6240000I-25000J0D01*
G01*
X10465000Y-6840000D02*
G75*
G03*
X10465000Y-6840000I-25000J0D01*
G01*
X10465000Y-8790000D02*
G75*
G03*
X10465000Y-8790000I-25000J0D01*
G01*
X10465000Y-9390000D02*
G75*
G03*
X10465000Y-9390000I-25000J0D01*
G01*
X10465000Y-11340000D02*
G75*
G03*
X10465000Y-11340000I-25000J0D01*
G01*
X10465000Y-11930000D02*
G75*
G03*
X10465000Y-11930000I-25000J0D01*
G01*
X10765000Y-7430000D02*
G75*
G03*
X10765000Y-7430000I-25000J0D01*
G01*
X10765000Y-7670000D02*
G75*
G03*
X10765000Y-7670000I-25000J0D01*
G01*
X10775000Y-6460000D02*
G75*
G03*
X10775000Y-6460000I-25000J0D01*
G01*
X10775000Y-8560000D02*
G75*
G03*
X10775000Y-8560000I-25000J0D01*
G01*
X10785000Y-7050000D02*
G75*
G03*
X10785000Y-7050000I-25000J0D01*
G01*
X10785000Y-9620000D02*
G75*
G03*
X10785000Y-9620000I-25000J0D01*
G01*
X10795000Y-9890000D02*
G75*
G03*
X10795000Y-9890000I-25000J0D01*
G01*
X10805000Y-9000000D02*
G75*
G03*
X10805000Y-9000000I-25000J0D01*
G01*
X10985000Y-11010000D02*
G75*
G03*
X10985000Y-11010000I-25000J0D01*
G01*
X11005000Y-10800000D02*
G75*
G03*
X11005000Y-10800000I-25000J0D01*
G01*
X11025000Y-11330000D02*
G75*
G03*
X11025000Y-11330000I-25000J0D01*
G01*
X11025000Y-11600000D02*
G75*
G03*
X11025000Y-11600000I-25000J0D01*
G01*
X11075000Y-11125000D02*
G75*
G03*
X11075000Y-11125000I-25000J0D01*
G01*
X11115000Y-5940000D02*
G75*
G03*
X11115000Y-5940000I-25000J0D01*
G01*
X11115000Y-8500000D02*
G75*
G03*
X11115000Y-8500000I-25000J0D01*
G01*
X13590000Y-6420000D02*
G75*
G03*
X13590000Y-6420000I-25000J0D01*
G01*
X13705000Y-5220000D02*
G75*
G03*
X13705000Y-5220000I-25000J0D01*
G01*
X13876967Y-6421967D02*
G75*
G03*
X13876967Y-6421967I-25000J0D01*
G01*
X14085000Y-5215000D02*
G75*
G03*
X14085000Y-5215000I-25000J0D01*
G01*
X14385000Y-5150000D02*
G75*
G03*
X14385000Y-5150000I-25000J0D01*
G01*
X14390000Y-6075000D02*
G75*
G03*
X14390000Y-6075000I-25000J0D01*
G01*
X14455000Y-4865000D02*
G75*
G03*
X14455000Y-4865000I-25000J0D01*
G01*
X14655000Y-5740000D02*
G75*
G03*
X14655000Y-5740000I-25000J0D01*
G01*
X14730000Y-4120000D02*
G75*
G03*
X14730000Y-4120000I-25000J0D01*
G01*
X14755000Y-5800000D02*
G75*
G03*
X14755000Y-5800000I-25000J0D01*
G01*
X15195000Y-12380000D02*
G75*
G03*
X15195000Y-12380000I-25000J0D01*
G01*
X15415000Y-12230000D02*
G75*
G03*
X15415000Y-12230000I-25000J0D01*
G01*
D14*
X13895000Y-8391900D02*
X13895000Y-8468100D01*
X13856900Y-8430000D02*
X13933100Y-8430000D01*
X13895000Y-8645900D02*
X13895000Y-8722100D01*
X13856900Y-8684000D02*
X13933100Y-8684000D01*
X13895000Y-8899900D02*
X13895000Y-8976100D01*
X13856900Y-8938000D02*
X13933100Y-8938000D01*
X13895000Y-9153900D02*
X13895000Y-9230100D01*
X13856900Y-9192000D02*
X13933100Y-9192000D01*
X13895000Y-9407900D02*
X13895000Y-9484100D01*
X13856900Y-9446000D02*
X13933100Y-9446000D01*
X13895000Y-9661900D02*
X13895000Y-9738100D01*
X13856900Y-9700000D02*
X13933100Y-9700000D01*
X11470000Y-5231900D02*
X11470000Y-5308100D01*
X11431900Y-5270000D02*
X11508100Y-5270000D01*
X11724000Y-5231900D02*
X11724000Y-5308100D01*
X11685900Y-5270000D02*
X11762100Y-5270000D01*
X11978000Y-5231900D02*
X11978000Y-5308100D01*
X11939900Y-5270000D02*
X12016100Y-5270000D01*
X12232000Y-5231900D02*
X12232000Y-5308100D01*
X12193900Y-5270000D02*
X12270100Y-5270000D01*
X12486000Y-5231900D02*
X12486000Y-5308100D01*
X12447900Y-5270000D02*
X12524100Y-5270000D01*
X12740000Y-5231900D02*
X12740000Y-5308100D01*
X12701900Y-5270000D02*
X12778100Y-5270000D01*
D15*
X11715356Y-10385356D02*
X11715356Y-10314644D01*
X11644644Y-10314644D01*
X11644644Y-10385356D01*
X11715356Y-10385356D01*
X11969356Y-10385356D02*
X11969356Y-10314644D01*
X11898644Y-10314644D01*
X11898644Y-10385356D01*
X11969356Y-10385356D01*
X12223356Y-10385356D02*
X12223356Y-10314644D01*
X12152644Y-10314644D01*
X12152644Y-10385356D01*
X12223356Y-10385356D01*
X12477356Y-10385356D02*
X12477356Y-10314644D01*
X12406644Y-10314644D01*
X12406644Y-10385356D01*
X12477356Y-10385356D01*
X12731356Y-10385356D02*
X12731356Y-10314644D01*
X12660644Y-10314644D01*
X12660644Y-10385356D01*
X12731356Y-10385356D01*
X12985356Y-10385356D02*
X12985356Y-10314644D01*
X12914644Y-10314644D01*
X12914644Y-10385356D01*
X12985356Y-10385356D01*
X11715356Y-7835356D02*
X11715356Y-7764644D01*
X11644644Y-7764644D01*
X11644644Y-7835356D01*
X11715356Y-7835356D01*
X11969356Y-7835356D02*
X11969356Y-7764644D01*
X11898644Y-7764644D01*
X11898644Y-7835356D01*
X11969356Y-7835356D01*
X12223356Y-7835356D02*
X12223356Y-7764644D01*
X12152644Y-7764644D01*
X12152644Y-7835356D01*
X12223356Y-7835356D01*
X12477356Y-7835356D02*
X12477356Y-7764644D01*
X12406644Y-7764644D01*
X12406644Y-7835356D01*
X12477356Y-7835356D01*
X12731356Y-7835356D02*
X12731356Y-7764644D01*
X12660644Y-7764644D01*
X12660644Y-7835356D01*
X12731356Y-7835356D01*
X12985356Y-7835356D02*
X12985356Y-7764644D01*
X12914644Y-7764644D01*
X12914644Y-7835356D01*
X12985356Y-7835356D01*
X11705356Y-12935356D02*
X11705356Y-12864644D01*
X11634644Y-12864644D01*
X11634644Y-12935356D01*
X11705356Y-12935356D01*
X11959356Y-12935356D02*
X11959356Y-12864644D01*
X11888644Y-12864644D01*
X11888644Y-12935356D01*
X11959356Y-12935356D01*
X12213356Y-12935356D02*
X12213356Y-12864644D01*
X12142644Y-12864644D01*
X12142644Y-12935356D01*
X12213356Y-12935356D01*
X12467356Y-12935356D02*
X12467356Y-12864644D01*
X12396644Y-12864644D01*
X12396644Y-12935356D01*
X12467356Y-12935356D01*
X12721356Y-12935356D02*
X12721356Y-12864644D01*
X12650644Y-12864644D01*
X12650644Y-12935356D01*
X12721356Y-12935356D01*
X12975356Y-12935356D02*
X12975356Y-12864644D01*
X12904644Y-12864644D01*
X12904644Y-12935356D01*
X12975356Y-12935356D01*
D16*
X9790000Y-11050000D02*
X9850000Y-10990000D01*
X9790000Y-10930000D01*
X9730000Y-10990000D01*
X9790000Y-11050000D01*
X9790000Y-11400000D02*
X9850000Y-11340000D01*
X9790000Y-11280000D01*
X9730000Y-11340000D01*
X9790000Y-11400000D01*
X9790000Y-11750000D02*
X9850000Y-11690000D01*
X9790000Y-11630000D01*
X9730000Y-11690000D01*
X9790000Y-11750000D01*
X9790000Y-12100000D02*
X9850000Y-12040000D01*
X9790000Y-11980000D01*
X9730000Y-12040000D01*
X9790000Y-12100000D01*
X9790000Y-9380000D02*
X9850000Y-9320000D01*
X9790000Y-9260000D01*
X9730000Y-9320000D01*
X9790000Y-9380000D01*
X9790000Y-9730000D02*
X9850000Y-9670000D01*
X9790000Y-9610000D01*
X9730000Y-9670000D01*
X9790000Y-9730000D01*
X9790000Y-10080000D02*
X9850000Y-10020000D01*
X9790000Y-9960000D01*
X9730000Y-10020000D01*
X9790000Y-10080000D01*
X9790000Y-10430000D02*
X9850000Y-10370000D01*
X9790000Y-10310000D01*
X9730000Y-10370000D01*
X9790000Y-10430000D01*
X9790000Y-5140000D02*
X9850000Y-5080000D01*
X9790000Y-5020000D01*
X9730000Y-5080000D01*
X9790000Y-5140000D01*
X9790000Y-5490000D02*
X9850000Y-5430000D01*
X9790000Y-5370000D01*
X9730000Y-5430000D01*
X9790000Y-5490000D01*
X9790000Y-5840000D02*
X9850000Y-5780000D01*
X9790000Y-5720000D01*
X9730000Y-5780000D01*
X9790000Y-5840000D01*
X9790000Y-6190000D02*
X9850000Y-6130000D01*
X9790000Y-6070000D01*
X9730000Y-6130000D01*
X9790000Y-6190000D01*
X9790000Y-7710000D02*
X9850000Y-7650000D01*
X9790000Y-7590000D01*
X9730000Y-7650000D01*
X9790000Y-7710000D01*
X9790000Y-8060000D02*
X9850000Y-8000000D01*
X9790000Y-7940000D01*
X9730000Y-8000000D01*
X9790000Y-8060000D01*
X9790000Y-8410000D02*
X9850000Y-8350000D01*
X9790000Y-8290000D01*
X9730000Y-8350000D01*
X9790000Y-8410000D01*
X9790000Y-8760000D02*
X9850000Y-8700000D01*
X9790000Y-8640000D01*
X9730000Y-8700000D01*
X9790000Y-8760000D01*
D17*
X11553530Y-10687530D02*
X11708470Y-10842470D01*
X11708470Y-10687530D02*
X11553530Y-10842470D01*
X11708470Y-10765000D02*
G75*
G03*
X11708470Y-10765000I-77470J0D01*
G01*
X11553530Y-11449530D02*
X11708470Y-11604470D01*
X11708470Y-11449530D02*
X11553530Y-11604470D01*
X11708470Y-11527000D02*
G75*
G03*
X11708470Y-11527000I-77470J0D01*
G01*
X11553530Y-11703530D02*
X11708470Y-11858470D01*
X11708470Y-11703530D02*
X11553530Y-11858470D01*
X11708470Y-11781000D02*
G75*
G03*
X11708470Y-11781000I-77470J0D01*
G01*
X11553530Y-11957530D02*
X11708470Y-12112470D01*
X11708470Y-11957530D02*
X11553530Y-12112470D01*
X11708470Y-12035000D02*
G75*
G03*
X11708470Y-12035000I-77470J0D01*
G01*
X11807530Y-10687530D02*
X11962470Y-10842470D01*
X11962470Y-10687530D02*
X11807530Y-10842470D01*
X11962470Y-10765000D02*
G75*
G03*
X11962470Y-10765000I-77470J0D01*
G01*
X11807530Y-11957530D02*
X11962470Y-12112470D01*
X11962470Y-11957530D02*
X11807530Y-12112470D01*
X11962470Y-12035000D02*
G75*
G03*
X11962470Y-12035000I-77470J0D01*
G01*
X12061530Y-10687530D02*
X12216470Y-10842470D01*
X12216470Y-10687530D02*
X12061530Y-10842470D01*
X12216470Y-10765000D02*
G75*
G03*
X12216470Y-10765000I-77470J0D01*
G01*
X12061530Y-11957530D02*
X12216470Y-12112470D01*
X12216470Y-11957530D02*
X12061530Y-12112470D01*
X12216470Y-12035000D02*
G75*
G03*
X12216470Y-12035000I-77470J0D01*
G01*
X12315530Y-10687530D02*
X12470470Y-10842470D01*
X12470470Y-10687530D02*
X12315530Y-10842470D01*
X12470470Y-10765000D02*
G75*
G03*
X12470470Y-10765000I-77470J0D01*
G01*
X12315530Y-11957530D02*
X12470470Y-12112470D01*
X12470470Y-11957530D02*
X12315530Y-12112470D01*
X12470470Y-12035000D02*
G75*
G03*
X12470470Y-12035000I-77470J0D01*
G01*
X12569530Y-10687530D02*
X12724470Y-10842470D01*
X12724470Y-10687530D02*
X12569530Y-10842470D01*
X12724470Y-10765000D02*
G75*
G03*
X12724470Y-10765000I-77470J0D01*
G01*
X12569530Y-11957530D02*
X12724470Y-12112470D01*
X12724470Y-11957530D02*
X12569530Y-12112470D01*
X12724470Y-12035000D02*
G75*
G03*
X12724470Y-12035000I-77470J0D01*
G01*
X12823530Y-10687530D02*
X12978470Y-10842470D01*
X12978470Y-10687530D02*
X12823530Y-10842470D01*
X12978470Y-10765000D02*
G75*
G03*
X12978470Y-10765000I-77470J0D01*
G01*
X12823530Y-11957530D02*
X12978470Y-12112470D01*
X12978470Y-11957530D02*
X12823530Y-12112470D01*
X12978470Y-12035000D02*
G75*
G03*
X12978470Y-12035000I-77470J0D01*
G01*
X13077530Y-10687530D02*
X13232470Y-10842470D01*
X13232470Y-10687530D02*
X13077530Y-10842470D01*
X13232470Y-10765000D02*
G75*
G03*
X13232470Y-10765000I-77470J0D01*
G01*
X13077530Y-11957530D02*
X13232470Y-12112470D01*
X13232470Y-11957530D02*
X13077530Y-12112470D01*
X13232470Y-12035000D02*
G75*
G03*
X13232470Y-12035000I-77470J0D01*
G01*
X13331530Y-10687530D02*
X13486470Y-10842470D01*
X13486470Y-10687530D02*
X13331530Y-10842470D01*
X13486470Y-10765000D02*
G75*
G03*
X13486470Y-10765000I-77470J0D01*
G01*
X13331530Y-11957530D02*
X13486470Y-12112470D01*
X13486470Y-11957530D02*
X13331530Y-12112470D01*
X13486470Y-12035000D02*
G75*
G03*
X13486470Y-12035000I-77470J0D01*
G01*
X11553530Y-8137530D02*
X11708470Y-8292470D01*
X11708470Y-8137530D02*
X11553530Y-8292470D01*
X11708470Y-8215000D02*
G75*
G03*
X11708470Y-8215000I-77470J0D01*
G01*
X11553530Y-8899530D02*
X11708470Y-9054470D01*
X11708470Y-8899530D02*
X11553530Y-9054470D01*
X11708470Y-8977000D02*
G75*
G03*
X11708470Y-8977000I-77470J0D01*
G01*
X11553530Y-9153530D02*
X11708470Y-9308470D01*
X11708470Y-9153530D02*
X11553530Y-9308470D01*
X11708470Y-9231000D02*
G75*
G03*
X11708470Y-9231000I-77470J0D01*
G01*
X11553530Y-9407530D02*
X11708470Y-9562470D01*
X11708470Y-9407530D02*
X11553530Y-9562470D01*
X11708470Y-9485000D02*
G75*
G03*
X11708470Y-9485000I-77470J0D01*
G01*
X11807530Y-8137530D02*
X11962470Y-8292470D01*
X11962470Y-8137530D02*
X11807530Y-8292470D01*
X11962470Y-8215000D02*
G75*
G03*
X11962470Y-8215000I-77470J0D01*
G01*
X11807530Y-9407530D02*
X11962470Y-9562470D01*
X11962470Y-9407530D02*
X11807530Y-9562470D01*
X11962470Y-9485000D02*
G75*
G03*
X11962470Y-9485000I-77470J0D01*
G01*
X12061530Y-8137530D02*
X12216470Y-8292470D01*
X12216470Y-8137530D02*
X12061530Y-8292470D01*
X12216470Y-8215000D02*
G75*
G03*
X12216470Y-8215000I-77470J0D01*
G01*
X12061530Y-9407530D02*
X12216470Y-9562470D01*
X12216470Y-9407530D02*
X12061530Y-9562470D01*
X12216470Y-9485000D02*
G75*
G03*
X12216470Y-9485000I-77470J0D01*
G01*
X12315530Y-8137530D02*
X12470470Y-8292470D01*
X12470470Y-8137530D02*
X12315530Y-8292470D01*
X12470470Y-8215000D02*
G75*
G03*
X12470470Y-8215000I-77470J0D01*
G01*
X12315530Y-9407530D02*
X12470470Y-9562470D01*
X12470470Y-9407530D02*
X12315530Y-9562470D01*
X12470470Y-9485000D02*
G75*
G03*
X12470470Y-9485000I-77470J0D01*
G01*
X12569530Y-8137530D02*
X12724470Y-8292470D01*
X12724470Y-8137530D02*
X12569530Y-8292470D01*
X12724470Y-8215000D02*
G75*
G03*
X12724470Y-8215000I-77470J0D01*
G01*
X12569530Y-9407530D02*
X12724470Y-9562470D01*
X12724470Y-9407530D02*
X12569530Y-9562470D01*
X12724470Y-9485000D02*
G75*
G03*
X12724470Y-9485000I-77470J0D01*
G01*
X12823530Y-8137530D02*
X12978470Y-8292470D01*
X12978470Y-8137530D02*
X12823530Y-8292470D01*
X12978470Y-8215000D02*
G75*
G03*
X12978470Y-8215000I-77470J0D01*
G01*
X12823530Y-9407530D02*
X12978470Y-9562470D01*
X12978470Y-9407530D02*
X12823530Y-9562470D01*
X12978470Y-9485000D02*
G75*
G03*
X12978470Y-9485000I-77470J0D01*
G01*
X13077530Y-8137530D02*
X13232470Y-8292470D01*
X13232470Y-8137530D02*
X13077530Y-8292470D01*
X13232470Y-8215000D02*
G75*
G03*
X13232470Y-8215000I-77470J0D01*
G01*
X13077530Y-9407530D02*
X13232470Y-9562470D01*
X13232470Y-9407530D02*
X13077530Y-9562470D01*
X13232470Y-9485000D02*
G75*
G03*
X13232470Y-9485000I-77470J0D01*
G01*
X13331530Y-8137530D02*
X13486470Y-8292470D01*
X13486470Y-8137530D02*
X13331530Y-8292470D01*
X13486470Y-8215000D02*
G75*
G03*
X13486470Y-8215000I-77470J0D01*
G01*
X13331530Y-9407530D02*
X13486470Y-9562470D01*
X13486470Y-9407530D02*
X13331530Y-9562470D01*
X13486470Y-9485000D02*
G75*
G03*
X13486470Y-9485000I-77470J0D01*
G01*
X11553530Y-5587530D02*
X11708470Y-5742470D01*
X11708470Y-5587530D02*
X11553530Y-5742470D01*
X11708470Y-5665000D02*
G75*
G03*
X11708470Y-5665000I-77470J0D01*
G01*
X11553530Y-6349530D02*
X11708470Y-6504470D01*
X11708470Y-6349530D02*
X11553530Y-6504470D01*
X11708470Y-6427000D02*
G75*
G03*
X11708470Y-6427000I-77470J0D01*
G01*
X11553530Y-6603530D02*
X11708470Y-6758470D01*
X11708470Y-6603530D02*
X11553530Y-6758470D01*
X11708470Y-6681000D02*
G75*
G03*
X11708470Y-6681000I-77470J0D01*
G01*
X11553530Y-6857530D02*
X11708470Y-7012470D01*
X11708470Y-6857530D02*
X11553530Y-7012470D01*
X11708470Y-6935000D02*
G75*
G03*
X11708470Y-6935000I-77470J0D01*
G01*
X11807530Y-5587530D02*
X11962470Y-5742470D01*
X11962470Y-5587530D02*
X11807530Y-5742470D01*
X11962470Y-5665000D02*
G75*
G03*
X11962470Y-5665000I-77470J0D01*
G01*
X11807530Y-6857530D02*
X11962470Y-7012470D01*
X11962470Y-6857530D02*
X11807530Y-7012470D01*
X11962470Y-6935000D02*
G75*
G03*
X11962470Y-6935000I-77470J0D01*
G01*
X12061530Y-5587530D02*
X12216470Y-5742470D01*
X12216470Y-5587530D02*
X12061530Y-5742470D01*
X12216470Y-5665000D02*
G75*
G03*
X12216470Y-5665000I-77470J0D01*
G01*
X12061530Y-6857530D02*
X12216470Y-7012470D01*
X12216470Y-6857530D02*
X12061530Y-7012470D01*
X12216470Y-6935000D02*
G75*
G03*
X12216470Y-6935000I-77470J0D01*
G01*
X12315530Y-5587530D02*
X12470470Y-5742470D01*
X12470470Y-5587530D02*
X12315530Y-5742470D01*
X12470470Y-5665000D02*
G75*
G03*
X12470470Y-5665000I-77470J0D01*
G01*
X12315530Y-6857530D02*
X12470470Y-7012470D01*
X12470470Y-6857530D02*
X12315530Y-7012470D01*
X12470470Y-6935000D02*
G75*
G03*
X12470470Y-6935000I-77470J0D01*
G01*
X12569530Y-5587530D02*
X12724470Y-5742470D01*
X12724470Y-5587530D02*
X12569530Y-5742470D01*
X12724470Y-5665000D02*
G75*
G03*
X12724470Y-5665000I-77470J0D01*
G01*
X12569530Y-6857530D02*
X12724470Y-7012470D01*
X12724470Y-6857530D02*
X12569530Y-7012470D01*
X12724470Y-6935000D02*
G75*
G03*
X12724470Y-6935000I-77470J0D01*
G01*
X12823530Y-5587530D02*
X12978470Y-5742470D01*
X12978470Y-5587530D02*
X12823530Y-5742470D01*
X12978470Y-5665000D02*
G75*
G03*
X12978470Y-5665000I-77470J0D01*
G01*
X12823530Y-6857530D02*
X12978470Y-7012470D01*
X12978470Y-6857530D02*
X12823530Y-7012470D01*
X12978470Y-6935000D02*
G75*
G03*
X12978470Y-6935000I-77470J0D01*
G01*
X13077530Y-5587530D02*
X13232470Y-5742470D01*
X13232470Y-5587530D02*
X13077530Y-5742470D01*
X13232470Y-5665000D02*
G75*
G03*
X13232470Y-5665000I-77470J0D01*
G01*
X13077530Y-6857530D02*
X13232470Y-7012470D01*
X13232470Y-6857530D02*
X13077530Y-7012470D01*
X13232470Y-6935000D02*
G75*
G03*
X13232470Y-6935000I-77470J0D01*
G01*
X13331530Y-5587530D02*
X13486470Y-5742470D01*
X13486470Y-5587530D02*
X13331530Y-5742470D01*
X13486470Y-5665000D02*
G75*
G03*
X13486470Y-5665000I-77470J0D01*
G01*
X13331530Y-6857530D02*
X13486470Y-7012470D01*
X13486470Y-6857530D02*
X13331530Y-7012470D01*
X13486470Y-6935000D02*
G75*
G03*
X13486470Y-6935000I-77470J0D01*
G01*
D11*
X9652619Y-13415476D02*
X9652619Y-13215476D01*
X9700238Y-13215476D01*
X9728809Y-13225000D01*
X9747857Y-13244048D01*
X9757381Y-13263095D01*
X9766905Y-13301190D01*
X9766905Y-13329762D01*
X9757381Y-13367857D01*
X9747857Y-13386905D01*
X9728809Y-13405952D01*
X9700238Y-13415476D01*
X9652619Y-13415476D01*
X9852619Y-13415476D02*
X9852619Y-13282143D01*
X9852619Y-13320238D02*
X9862143Y-13301190D01*
X9871667Y-13291667D01*
X9890714Y-13282143D01*
X9909762Y-13282143D01*
X9976428Y-13415476D02*
X9976428Y-13282143D01*
X9976428Y-13215476D02*
X9966905Y-13225000D01*
X9976428Y-13234524D01*
X9985952Y-13225000D01*
X9976428Y-13215476D01*
X9976428Y-13234524D01*
X10100238Y-13415476D02*
X10081190Y-13405952D01*
X10071667Y-13386905D01*
X10071667Y-13215476D01*
X10205000Y-13415476D02*
X10185952Y-13405952D01*
X10176428Y-13386905D01*
X10176428Y-13215476D01*
X10433571Y-13415476D02*
X10433571Y-13215476D01*
X10500238Y-13358333D01*
X10566905Y-13215476D01*
X10566905Y-13415476D01*
X10747857Y-13415476D02*
X10747857Y-13310714D01*
X10738333Y-13291667D01*
X10719286Y-13282143D01*
X10681190Y-13282143D01*
X10662143Y-13291667D01*
X10747857Y-13405952D02*
X10728809Y-13415476D01*
X10681190Y-13415476D01*
X10662143Y-13405952D01*
X10652619Y-13386905D01*
X10652619Y-13367857D01*
X10662143Y-13348810D01*
X10681190Y-13339286D01*
X10728809Y-13339286D01*
X10747857Y-13329762D01*
X10843095Y-13282143D02*
X10843095Y-13482143D01*
X10843095Y-13291667D02*
X10862143Y-13282143D01*
X10900238Y-13282143D01*
X10919286Y-13291667D01*
X10928809Y-13301190D01*
X10938333Y-13320238D01*
X10938333Y-13377381D01*
X10928809Y-13396429D01*
X10919286Y-13405952D01*
X10900238Y-13415476D01*
X10862143Y-13415476D01*
X10843095Y-13405952D01*
X11024048Y-13396429D02*
X11033571Y-13405952D01*
X11024048Y-13415476D01*
X11014524Y-13405952D01*
X11024048Y-13396429D01*
X11024048Y-13415476D01*
X11024048Y-13291667D02*
X11033571Y-13301190D01*
X11024048Y-13310714D01*
X11014524Y-13301190D01*
X11024048Y-13291667D01*
X11024048Y-13310714D01*
D12*
X9355000Y-13725000D02*
X9395000Y-13765000D01*
X9395000Y-13725000D02*
X9355000Y-13765000D01*
D11*
X9690714Y-13635476D02*
X9709762Y-13635476D01*
X9728809Y-13645000D01*
X9738333Y-13654524D01*
X9747857Y-13673571D01*
X9757381Y-13711667D01*
X9757381Y-13759286D01*
X9747857Y-13797381D01*
X9738333Y-13816429D01*
X9728809Y-13825952D01*
X9709762Y-13835476D01*
X9690714Y-13835476D01*
X9671667Y-13825952D01*
X9662143Y-13816429D01*
X9652619Y-13797381D01*
X9643095Y-13759286D01*
X9643095Y-13711667D01*
X9652619Y-13673571D01*
X9662143Y-13654524D01*
X9671667Y-13645000D01*
X9690714Y-13635476D01*
X9843095Y-13816429D02*
X9852619Y-13825952D01*
X9843095Y-13835476D01*
X9833571Y-13825952D01*
X9843095Y-13816429D01*
X9843095Y-13835476D01*
X10024048Y-13702143D02*
X10024048Y-13835476D01*
X9976428Y-13625952D02*
X9928809Y-13768810D01*
X10052619Y-13768810D01*
X10166905Y-13635476D02*
X10185952Y-13635476D01*
X10205000Y-13645000D01*
X10214524Y-13654524D01*
X10224048Y-13673571D01*
X10233571Y-13711667D01*
X10233571Y-13759286D01*
X10224048Y-13797381D01*
X10214524Y-13816429D01*
X10205000Y-13825952D01*
X10185952Y-13835476D01*
X10166905Y-13835476D01*
X10147857Y-13825952D01*
X10138333Y-13816429D01*
X10128809Y-13797381D01*
X10119286Y-13759286D01*
X10119286Y-13711667D01*
X10128809Y-13673571D01*
X10138333Y-13654524D01*
X10147857Y-13645000D01*
X10166905Y-13635476D01*
X10357381Y-13635476D02*
X10376428Y-13635476D01*
X10395476Y-13645000D01*
X10405000Y-13654524D01*
X10414524Y-13673571D01*
X10424048Y-13711667D01*
X10424048Y-13759286D01*
X10414524Y-13797381D01*
X10405000Y-13816429D01*
X10395476Y-13825952D01*
X10376428Y-13835476D01*
X10357381Y-13835476D01*
X10338333Y-13825952D01*
X10328809Y-13816429D01*
X10319286Y-13797381D01*
X10309762Y-13759286D01*
X10309762Y-13711667D01*
X10319286Y-13673571D01*
X10328809Y-13654524D01*
X10338333Y-13645000D01*
X10357381Y-13635476D01*
X10509762Y-13835476D02*
X10509762Y-13702143D01*
X10509762Y-13721190D02*
X10519286Y-13711667D01*
X10538333Y-13702143D01*
X10566905Y-13702143D01*
X10585952Y-13711667D01*
X10595476Y-13730714D01*
X10595476Y-13835476D01*
X10595476Y-13730714D02*
X10605000Y-13711667D01*
X10624048Y-13702143D01*
X10652619Y-13702143D01*
X10671667Y-13711667D01*
X10681190Y-13730714D01*
X10681190Y-13835476D01*
X10776428Y-13835476D02*
X10776428Y-13702143D01*
X10776428Y-13721190D02*
X10785952Y-13711667D01*
X10805000Y-13702143D01*
X10833571Y-13702143D01*
X10852619Y-13711667D01*
X10862143Y-13730714D01*
X10862143Y-13835476D01*
X10862143Y-13730714D02*
X10871667Y-13711667D01*
X10890714Y-13702143D01*
X10919286Y-13702143D01*
X10938333Y-13711667D01*
X10947857Y-13730714D01*
X10947857Y-13835476D01*
X11338333Y-13625952D02*
X11166905Y-13883095D01*
X11595476Y-13635476D02*
X11614524Y-13635476D01*
X11633571Y-13645000D01*
X11643095Y-13654524D01*
X11652619Y-13673571D01*
X11662143Y-13711667D01*
X11662143Y-13759286D01*
X11652619Y-13797381D01*
X11643095Y-13816429D01*
X11633571Y-13825952D01*
X11614524Y-13835476D01*
X11595476Y-13835476D01*
X11576428Y-13825952D01*
X11566905Y-13816429D01*
X11557381Y-13797381D01*
X11547857Y-13759286D01*
X11547857Y-13711667D01*
X11557381Y-13673571D01*
X11566905Y-13654524D01*
X11576428Y-13645000D01*
X11595476Y-13635476D01*
X11747857Y-13816429D02*
X11757381Y-13825952D01*
X11747857Y-13835476D01*
X11738333Y-13825952D01*
X11747857Y-13816429D01*
X11747857Y-13835476D01*
X11881190Y-13635476D02*
X11900238Y-13635476D01*
X11919286Y-13645000D01*
X11928809Y-13654524D01*
X11938333Y-13673571D01*
X11947857Y-13711667D01*
X11947857Y-13759286D01*
X11938333Y-13797381D01*
X11928809Y-13816429D01*
X11919286Y-13825952D01*
X11900238Y-13835476D01*
X11881190Y-13835476D01*
X11862143Y-13825952D01*
X11852619Y-13816429D01*
X11843095Y-13797381D01*
X11833571Y-13759286D01*
X11833571Y-13711667D01*
X11843095Y-13673571D01*
X11852619Y-13654524D01*
X11862143Y-13645000D01*
X11881190Y-13635476D01*
X12138333Y-13835476D02*
X12024047Y-13835476D01*
X12081190Y-13835476D02*
X12081190Y-13635476D01*
X12062143Y-13664048D01*
X12043095Y-13683095D01*
X12024047Y-13692619D01*
X12319286Y-13635476D02*
X12224047Y-13635476D01*
X12214524Y-13730714D01*
X12224047Y-13721190D01*
X12243095Y-13711667D01*
X12290714Y-13711667D01*
X12309762Y-13721190D01*
X12319286Y-13730714D01*
X12328809Y-13749762D01*
X12328809Y-13797381D01*
X12319286Y-13816429D01*
X12309762Y-13825952D01*
X12290714Y-13835476D01*
X12243095Y-13835476D01*
X12224047Y-13825952D01*
X12214524Y-13816429D01*
X12395476Y-13635476D02*
X12528809Y-13635476D01*
X12443095Y-13835476D01*
X12595476Y-13635476D02*
X12595476Y-13673571D01*
X12671666Y-13635476D02*
X12671666Y-13673571D01*
X12966905Y-13911667D02*
X12957381Y-13902143D01*
X12938333Y-13873571D01*
X12928809Y-13854524D01*
X12919286Y-13825952D01*
X12909762Y-13778333D01*
X12909762Y-13740238D01*
X12919286Y-13692619D01*
X12928809Y-13664048D01*
X12938333Y-13645000D01*
X12957381Y-13616429D01*
X12966905Y-13606905D01*
X13128809Y-13702143D02*
X13128809Y-13835476D01*
X13081190Y-13625952D02*
X13033571Y-13768810D01*
X13157381Y-13768810D01*
X13319286Y-13702143D02*
X13319286Y-13835476D01*
X13271666Y-13625952D02*
X13224047Y-13768810D01*
X13347857Y-13768810D01*
X13576428Y-13835476D02*
X13576428Y-13635476D01*
X13662143Y-13835476D02*
X13662143Y-13730714D01*
X13652619Y-13711667D01*
X13633571Y-13702143D01*
X13605000Y-13702143D01*
X13585952Y-13711667D01*
X13576428Y-13721190D01*
X13785952Y-13835476D02*
X13766905Y-13825952D01*
X13757381Y-13816429D01*
X13747857Y-13797381D01*
X13747857Y-13740238D01*
X13757381Y-13721190D01*
X13766905Y-13711667D01*
X13785952Y-13702143D01*
X13814524Y-13702143D01*
X13833571Y-13711667D01*
X13843095Y-13721190D01*
X13852619Y-13740238D01*
X13852619Y-13797381D01*
X13843095Y-13816429D01*
X13833571Y-13825952D01*
X13814524Y-13835476D01*
X13785952Y-13835476D01*
X13966905Y-13835476D02*
X13947857Y-13825952D01*
X13938333Y-13806905D01*
X13938333Y-13635476D01*
X14119286Y-13825952D02*
X14100238Y-13835476D01*
X14062143Y-13835476D01*
X14043095Y-13825952D01*
X14033571Y-13806905D01*
X14033571Y-13730714D01*
X14043095Y-13711667D01*
X14062143Y-13702143D01*
X14100238Y-13702143D01*
X14119286Y-13711667D01*
X14128809Y-13730714D01*
X14128809Y-13749762D01*
X14033571Y-13768810D01*
X14205000Y-13825952D02*
X14224047Y-13835476D01*
X14262143Y-13835476D01*
X14281190Y-13825952D01*
X14290714Y-13806905D01*
X14290714Y-13797381D01*
X14281190Y-13778333D01*
X14262143Y-13768810D01*
X14233571Y-13768810D01*
X14214524Y-13759286D01*
X14205000Y-13740238D01*
X14205000Y-13730714D01*
X14214524Y-13711667D01*
X14233571Y-13702143D01*
X14262143Y-13702143D01*
X14281190Y-13711667D01*
X14357381Y-13911667D02*
X14366905Y-13902143D01*
X14385952Y-13873571D01*
X14395476Y-13854524D01*
X14405000Y-13825952D01*
X14414524Y-13778333D01*
X14414524Y-13740238D01*
X14405000Y-13692619D01*
X14395476Y-13664048D01*
X14385952Y-13645000D01*
X14366905Y-13616429D01*
X14357381Y-13606905D01*
D13*
X9395000Y-14009000D02*
G75*
G03*
X9395000Y-14009000I-25000J0D01*
G01*
D11*
X9690714Y-13899476D02*
X9709762Y-13899476D01*
X9728809Y-13909000D01*
X9738333Y-13918524D01*
X9747857Y-13937571D01*
X9757381Y-13975667D01*
X9757381Y-14023286D01*
X9747857Y-14061381D01*
X9738333Y-14080429D01*
X9728809Y-14089952D01*
X9709762Y-14099476D01*
X9690714Y-14099476D01*
X9671667Y-14089952D01*
X9662143Y-14080429D01*
X9652619Y-14061381D01*
X9643095Y-14023286D01*
X9643095Y-13975667D01*
X9652619Y-13937571D01*
X9662143Y-13918524D01*
X9671667Y-13909000D01*
X9690714Y-13899476D01*
X9843095Y-14080429D02*
X9852619Y-14089952D01*
X9843095Y-14099476D01*
X9833571Y-14089952D01*
X9843095Y-14080429D01*
X9843095Y-14099476D01*
X10033571Y-13899476D02*
X9938333Y-13899476D01*
X9928809Y-13994714D01*
X9938333Y-13985190D01*
X9957381Y-13975667D01*
X10005000Y-13975667D01*
X10024048Y-13985190D01*
X10033571Y-13994714D01*
X10043095Y-14013762D01*
X10043095Y-14061381D01*
X10033571Y-14080429D01*
X10024048Y-14089952D01*
X10005000Y-14099476D01*
X9957381Y-14099476D01*
X9938333Y-14089952D01*
X9928809Y-14080429D01*
X10166905Y-13899476D02*
X10185952Y-13899476D01*
X10205000Y-13909000D01*
X10214524Y-13918524D01*
X10224048Y-13937571D01*
X10233571Y-13975667D01*
X10233571Y-14023286D01*
X10224048Y-14061381D01*
X10214524Y-14080429D01*
X10205000Y-14089952D01*
X10185952Y-14099476D01*
X10166905Y-14099476D01*
X10147857Y-14089952D01*
X10138333Y-14080429D01*
X10128809Y-14061381D01*
X10119286Y-14023286D01*
X10119286Y-13975667D01*
X10128809Y-13937571D01*
X10138333Y-13918524D01*
X10147857Y-13909000D01*
X10166905Y-13899476D01*
X10357381Y-13899476D02*
X10376428Y-13899476D01*
X10395476Y-13909000D01*
X10405000Y-13918524D01*
X10414524Y-13937571D01*
X10424048Y-13975667D01*
X10424048Y-14023286D01*
X10414524Y-14061381D01*
X10405000Y-14080429D01*
X10395476Y-14089952D01*
X10376428Y-14099476D01*
X10357381Y-14099476D01*
X10338333Y-14089952D01*
X10328809Y-14080429D01*
X10319286Y-14061381D01*
X10309762Y-14023286D01*
X10309762Y-13975667D01*
X10319286Y-13937571D01*
X10328809Y-13918524D01*
X10338333Y-13909000D01*
X10357381Y-13899476D01*
X10509762Y-14099476D02*
X10509762Y-13966143D01*
X10509762Y-13985190D02*
X10519286Y-13975667D01*
X10538333Y-13966143D01*
X10566905Y-13966143D01*
X10585952Y-13975667D01*
X10595476Y-13994714D01*
X10595476Y-14099476D01*
X10595476Y-13994714D02*
X10605000Y-13975667D01*
X10624048Y-13966143D01*
X10652619Y-13966143D01*
X10671667Y-13975667D01*
X10681190Y-13994714D01*
X10681190Y-14099476D01*
X10776428Y-14099476D02*
X10776428Y-13966143D01*
X10776428Y-13985190D02*
X10785952Y-13975667D01*
X10805000Y-13966143D01*
X10833571Y-13966143D01*
X10852619Y-13975667D01*
X10862143Y-13994714D01*
X10862143Y-14099476D01*
X10862143Y-13994714D02*
X10871667Y-13975667D01*
X10890714Y-13966143D01*
X10919286Y-13966143D01*
X10938333Y-13975667D01*
X10947857Y-13994714D01*
X10947857Y-14099476D01*
X11338333Y-13889952D02*
X11166905Y-14147095D01*
X11595476Y-13899476D02*
X11614524Y-13899476D01*
X11633571Y-13909000D01*
X11643095Y-13918524D01*
X11652619Y-13937571D01*
X11662143Y-13975667D01*
X11662143Y-14023286D01*
X11652619Y-14061381D01*
X11643095Y-14080429D01*
X11633571Y-14089952D01*
X11614524Y-14099476D01*
X11595476Y-14099476D01*
X11576428Y-14089952D01*
X11566905Y-14080429D01*
X11557381Y-14061381D01*
X11547857Y-14023286D01*
X11547857Y-13975667D01*
X11557381Y-13937571D01*
X11566905Y-13918524D01*
X11576428Y-13909000D01*
X11595476Y-13899476D01*
X11747857Y-14080429D02*
X11757381Y-14089952D01*
X11747857Y-14099476D01*
X11738333Y-14089952D01*
X11747857Y-14080429D01*
X11747857Y-14099476D01*
X11881190Y-13899476D02*
X11900238Y-13899476D01*
X11919286Y-13909000D01*
X11928809Y-13918524D01*
X11938333Y-13937571D01*
X11947857Y-13975667D01*
X11947857Y-14023286D01*
X11938333Y-14061381D01*
X11928809Y-14080429D01*
X11919286Y-14089952D01*
X11900238Y-14099476D01*
X11881190Y-14099476D01*
X11862143Y-14089952D01*
X11852619Y-14080429D01*
X11843095Y-14061381D01*
X11833571Y-14023286D01*
X11833571Y-13975667D01*
X11843095Y-13937571D01*
X11852619Y-13918524D01*
X11862143Y-13909000D01*
X11881190Y-13899476D01*
X12138333Y-14099476D02*
X12024047Y-14099476D01*
X12081190Y-14099476D02*
X12081190Y-13899476D01*
X12062143Y-13928048D01*
X12043095Y-13947095D01*
X12024047Y-13956619D01*
X12233571Y-14099476D02*
X12271666Y-14099476D01*
X12290714Y-14089952D01*
X12300238Y-14080429D01*
X12319286Y-14051857D01*
X12328809Y-14013762D01*
X12328809Y-13937571D01*
X12319286Y-13918524D01*
X12309762Y-13909000D01*
X12290714Y-13899476D01*
X12252619Y-13899476D01*
X12233571Y-13909000D01*
X12224047Y-13918524D01*
X12214524Y-13937571D01*
X12214524Y-13985190D01*
X12224047Y-14004238D01*
X12233571Y-14013762D01*
X12252619Y-14023286D01*
X12290714Y-14023286D01*
X12309762Y-14013762D01*
X12319286Y-14004238D01*
X12328809Y-13985190D01*
X12395476Y-13899476D02*
X12528809Y-13899476D01*
X12443095Y-14099476D01*
X12595476Y-13899476D02*
X12595476Y-13937571D01*
X12671666Y-13899476D02*
X12671666Y-13937571D01*
X12966905Y-14175667D02*
X12957381Y-14166143D01*
X12938333Y-14137571D01*
X12928809Y-14118524D01*
X12919286Y-14089952D01*
X12909762Y-14042333D01*
X12909762Y-14004238D01*
X12919286Y-13956619D01*
X12928809Y-13928048D01*
X12938333Y-13909000D01*
X12957381Y-13880429D01*
X12966905Y-13870905D01*
X13024047Y-13899476D02*
X13147857Y-13899476D01*
X13081190Y-13975667D01*
X13109762Y-13975667D01*
X13128809Y-13985190D01*
X13138333Y-13994714D01*
X13147857Y-14013762D01*
X13147857Y-14061381D01*
X13138333Y-14080429D01*
X13128809Y-14089952D01*
X13109762Y-14099476D01*
X13052619Y-14099476D01*
X13033571Y-14089952D01*
X13024047Y-14080429D01*
X13214524Y-13899476D02*
X13338333Y-13899476D01*
X13271666Y-13975667D01*
X13300238Y-13975667D01*
X13319286Y-13985190D01*
X13328809Y-13994714D01*
X13338333Y-14013762D01*
X13338333Y-14061381D01*
X13328809Y-14080429D01*
X13319286Y-14089952D01*
X13300238Y-14099476D01*
X13243095Y-14099476D01*
X13224047Y-14089952D01*
X13214524Y-14080429D01*
X13576428Y-14099476D02*
X13576428Y-13899476D01*
X13662143Y-14099476D02*
X13662143Y-13994714D01*
X13652619Y-13975667D01*
X13633571Y-13966143D01*
X13605000Y-13966143D01*
X13585952Y-13975667D01*
X13576428Y-13985190D01*
X13785952Y-14099476D02*
X13766905Y-14089952D01*
X13757381Y-14080429D01*
X13747857Y-14061381D01*
X13747857Y-14004238D01*
X13757381Y-13985190D01*
X13766905Y-13975667D01*
X13785952Y-13966143D01*
X13814524Y-13966143D01*
X13833571Y-13975667D01*
X13843095Y-13985190D01*
X13852619Y-14004238D01*
X13852619Y-14061381D01*
X13843095Y-14080429D01*
X13833571Y-14089952D01*
X13814524Y-14099476D01*
X13785952Y-14099476D01*
X13966905Y-14099476D02*
X13947857Y-14089952D01*
X13938333Y-14070905D01*
X13938333Y-13899476D01*
X14119286Y-14089952D02*
X14100238Y-14099476D01*
X14062143Y-14099476D01*
X14043095Y-14089952D01*
X14033571Y-14070905D01*
X14033571Y-13994714D01*
X14043095Y-13975667D01*
X14062143Y-13966143D01*
X14100238Y-13966143D01*
X14119286Y-13975667D01*
X14128809Y-13994714D01*
X14128809Y-14013762D01*
X14033571Y-14032810D01*
X14205000Y-14089952D02*
X14224047Y-14099476D01*
X14262143Y-14099476D01*
X14281190Y-14089952D01*
X14290714Y-14070905D01*
X14290714Y-14061381D01*
X14281190Y-14042333D01*
X14262143Y-14032810D01*
X14233571Y-14032810D01*
X14214524Y-14023286D01*
X14205000Y-14004238D01*
X14205000Y-13994714D01*
X14214524Y-13975667D01*
X14233571Y-13966143D01*
X14262143Y-13966143D01*
X14281190Y-13975667D01*
X14357381Y-14175667D02*
X14366905Y-14166143D01*
X14385952Y-14137571D01*
X14395476Y-14118524D01*
X14405000Y-14089952D01*
X14414524Y-14042333D01*
X14414524Y-14004238D01*
X14405000Y-13956619D01*
X14395476Y-13928048D01*
X14385952Y-13909000D01*
X14366905Y-13880429D01*
X14357381Y-13870905D01*
D14*
X9356900Y-14234900D02*
X9356900Y-14311100D01*
X9318800Y-14273000D02*
X9395000Y-14273000D01*
D11*
X9690714Y-14163476D02*
X9709762Y-14163476D01*
X9728809Y-14173000D01*
X9738333Y-14182524D01*
X9747857Y-14201571D01*
X9757381Y-14239667D01*
X9757381Y-14287286D01*
X9747857Y-14325381D01*
X9738333Y-14344429D01*
X9728809Y-14353952D01*
X9709762Y-14363476D01*
X9690714Y-14363476D01*
X9671667Y-14353952D01*
X9662143Y-14344429D01*
X9652619Y-14325381D01*
X9643095Y-14287286D01*
X9643095Y-14239667D01*
X9652619Y-14201571D01*
X9662143Y-14182524D01*
X9671667Y-14173000D01*
X9690714Y-14163476D01*
X9843095Y-14344429D02*
X9852619Y-14353952D01*
X9843095Y-14363476D01*
X9833571Y-14353952D01*
X9843095Y-14344429D01*
X9843095Y-14363476D01*
X9919286Y-14163476D02*
X10052619Y-14163476D01*
X9966905Y-14363476D01*
X10214524Y-14163476D02*
X10176428Y-14163476D01*
X10157381Y-14173000D01*
X10147857Y-14182524D01*
X10128809Y-14211095D01*
X10119286Y-14249190D01*
X10119286Y-14325381D01*
X10128809Y-14344429D01*
X10138333Y-14353952D01*
X10157381Y-14363476D01*
X10195476Y-14363476D01*
X10214524Y-14353952D01*
X10224048Y-14344429D01*
X10233571Y-14325381D01*
X10233571Y-14277762D01*
X10224048Y-14258714D01*
X10214524Y-14249190D01*
X10195476Y-14239667D01*
X10157381Y-14239667D01*
X10138333Y-14249190D01*
X10128809Y-14258714D01*
X10119286Y-14277762D01*
X10309762Y-14182524D02*
X10319286Y-14173000D01*
X10338333Y-14163476D01*
X10385952Y-14163476D01*
X10405000Y-14173000D01*
X10414524Y-14182524D01*
X10424048Y-14201571D01*
X10424048Y-14220619D01*
X10414524Y-14249190D01*
X10300238Y-14363476D01*
X10424048Y-14363476D01*
X10509762Y-14363476D02*
X10509762Y-14230143D01*
X10509762Y-14249190D02*
X10519286Y-14239667D01*
X10538333Y-14230143D01*
X10566905Y-14230143D01*
X10585952Y-14239667D01*
X10595476Y-14258714D01*
X10595476Y-14363476D01*
X10595476Y-14258714D02*
X10605000Y-14239667D01*
X10624048Y-14230143D01*
X10652619Y-14230143D01*
X10671667Y-14239667D01*
X10681190Y-14258714D01*
X10681190Y-14363476D01*
X10776428Y-14363476D02*
X10776428Y-14230143D01*
X10776428Y-14249190D02*
X10785952Y-14239667D01*
X10805000Y-14230143D01*
X10833571Y-14230143D01*
X10852619Y-14239667D01*
X10862143Y-14258714D01*
X10862143Y-14363476D01*
X10862143Y-14258714D02*
X10871667Y-14239667D01*
X10890714Y-14230143D01*
X10919286Y-14230143D01*
X10938333Y-14239667D01*
X10947857Y-14258714D01*
X10947857Y-14363476D01*
X11338333Y-14153952D02*
X11166905Y-14411095D01*
X11595476Y-14163476D02*
X11614524Y-14163476D01*
X11633571Y-14173000D01*
X11643095Y-14182524D01*
X11652619Y-14201571D01*
X11662143Y-14239667D01*
X11662143Y-14287286D01*
X11652619Y-14325381D01*
X11643095Y-14344429D01*
X11633571Y-14353952D01*
X11614524Y-14363476D01*
X11595476Y-14363476D01*
X11576428Y-14353952D01*
X11566905Y-14344429D01*
X11557381Y-14325381D01*
X11547857Y-14287286D01*
X11547857Y-14239667D01*
X11557381Y-14201571D01*
X11566905Y-14182524D01*
X11576428Y-14173000D01*
X11595476Y-14163476D01*
X11747857Y-14344429D02*
X11757381Y-14353952D01*
X11747857Y-14363476D01*
X11738333Y-14353952D01*
X11747857Y-14344429D01*
X11747857Y-14363476D01*
X11881190Y-14163476D02*
X11900238Y-14163476D01*
X11919286Y-14173000D01*
X11928809Y-14182524D01*
X11938333Y-14201571D01*
X11947857Y-14239667D01*
X11947857Y-14287286D01*
X11938333Y-14325381D01*
X11928809Y-14344429D01*
X11919286Y-14353952D01*
X11900238Y-14363476D01*
X11881190Y-14363476D01*
X11862143Y-14353952D01*
X11852619Y-14344429D01*
X11843095Y-14325381D01*
X11833571Y-14287286D01*
X11833571Y-14239667D01*
X11843095Y-14201571D01*
X11852619Y-14182524D01*
X11862143Y-14173000D01*
X11881190Y-14163476D01*
X12014524Y-14163476D02*
X12138333Y-14163476D01*
X12071666Y-14239667D01*
X12100238Y-14239667D01*
X12119286Y-14249190D01*
X12128809Y-14258714D01*
X12138333Y-14277762D01*
X12138333Y-14325381D01*
X12128809Y-14344429D01*
X12119286Y-14353952D01*
X12100238Y-14363476D01*
X12043095Y-14363476D01*
X12024047Y-14353952D01*
X12014524Y-14344429D01*
X12262143Y-14163476D02*
X12281190Y-14163476D01*
X12300238Y-14173000D01*
X12309762Y-14182524D01*
X12319286Y-14201571D01*
X12328809Y-14239667D01*
X12328809Y-14287286D01*
X12319286Y-14325381D01*
X12309762Y-14344429D01*
X12300238Y-14353952D01*
X12281190Y-14363476D01*
X12262143Y-14363476D01*
X12243095Y-14353952D01*
X12233571Y-14344429D01*
X12224047Y-14325381D01*
X12214524Y-14287286D01*
X12214524Y-14239667D01*
X12224047Y-14201571D01*
X12233571Y-14182524D01*
X12243095Y-14173000D01*
X12262143Y-14163476D01*
X12452619Y-14163476D02*
X12471666Y-14163476D01*
X12490714Y-14173000D01*
X12500238Y-14182524D01*
X12509762Y-14201571D01*
X12519286Y-14239667D01*
X12519286Y-14287286D01*
X12509762Y-14325381D01*
X12500238Y-14344429D01*
X12490714Y-14353952D01*
X12471666Y-14363476D01*
X12452619Y-14363476D01*
X12433571Y-14353952D01*
X12424047Y-14344429D01*
X12414524Y-14325381D01*
X12405000Y-14287286D01*
X12405000Y-14239667D01*
X12414524Y-14201571D01*
X12424047Y-14182524D01*
X12433571Y-14173000D01*
X12452619Y-14163476D01*
X12595476Y-14163476D02*
X12595476Y-14201571D01*
X12671666Y-14163476D02*
X12671666Y-14201571D01*
X12966905Y-14439667D02*
X12957381Y-14430143D01*
X12938333Y-14401571D01*
X12928809Y-14382524D01*
X12919286Y-14353952D01*
X12909762Y-14306333D01*
X12909762Y-14268238D01*
X12919286Y-14220619D01*
X12928809Y-14192048D01*
X12938333Y-14173000D01*
X12957381Y-14144429D01*
X12966905Y-14134905D01*
X13147857Y-14363476D02*
X13033571Y-14363476D01*
X13090714Y-14363476D02*
X13090714Y-14163476D01*
X13071666Y-14192048D01*
X13052619Y-14211095D01*
X13033571Y-14220619D01*
X13224047Y-14182524D02*
X13233571Y-14173000D01*
X13252619Y-14163476D01*
X13300238Y-14163476D01*
X13319286Y-14173000D01*
X13328809Y-14182524D01*
X13338333Y-14201571D01*
X13338333Y-14220619D01*
X13328809Y-14249190D01*
X13214524Y-14363476D01*
X13338333Y-14363476D01*
X13576428Y-14363476D02*
X13576428Y-14163476D01*
X13662143Y-14363476D02*
X13662143Y-14258714D01*
X13652619Y-14239667D01*
X13633571Y-14230143D01*
X13605000Y-14230143D01*
X13585952Y-14239667D01*
X13576428Y-14249190D01*
X13785952Y-14363476D02*
X13766905Y-14353952D01*
X13757381Y-14344429D01*
X13747857Y-14325381D01*
X13747857Y-14268238D01*
X13757381Y-14249190D01*
X13766905Y-14239667D01*
X13785952Y-14230143D01*
X13814524Y-14230143D01*
X13833571Y-14239667D01*
X13843095Y-14249190D01*
X13852619Y-14268238D01*
X13852619Y-14325381D01*
X13843095Y-14344429D01*
X13833571Y-14353952D01*
X13814524Y-14363476D01*
X13785952Y-14363476D01*
X13966905Y-14363476D02*
X13947857Y-14353952D01*
X13938333Y-14334905D01*
X13938333Y-14163476D01*
X14119286Y-14353952D02*
X14100238Y-14363476D01*
X14062143Y-14363476D01*
X14043095Y-14353952D01*
X14033571Y-14334905D01*
X14033571Y-14258714D01*
X14043095Y-14239667D01*
X14062143Y-14230143D01*
X14100238Y-14230143D01*
X14119286Y-14239667D01*
X14128809Y-14258714D01*
X14128809Y-14277762D01*
X14033571Y-14296810D01*
X14205000Y-14353952D02*
X14224047Y-14363476D01*
X14262143Y-14363476D01*
X14281190Y-14353952D01*
X14290714Y-14334905D01*
X14290714Y-14325381D01*
X14281190Y-14306333D01*
X14262143Y-14296810D01*
X14233571Y-14296810D01*
X14214524Y-14287286D01*
X14205000Y-14268238D01*
X14205000Y-14258714D01*
X14214524Y-14239667D01*
X14233571Y-14230143D01*
X14262143Y-14230143D01*
X14281190Y-14239667D01*
X14357381Y-14439667D02*
X14366905Y-14430143D01*
X14385952Y-14401571D01*
X14395476Y-14382524D01*
X14405000Y-14353952D01*
X14414524Y-14306333D01*
X14414524Y-14268238D01*
X14405000Y-14220619D01*
X14395476Y-14192048D01*
X14385952Y-14173000D01*
X14366905Y-14144429D01*
X14357381Y-14134905D01*
D15*
X9380356Y-14572356D02*
X9380356Y-14501644D01*
X9309644Y-14501644D01*
X9309644Y-14572356D01*
X9380356Y-14572356D01*
D11*
X9757381Y-14627476D02*
X9643095Y-14627476D01*
X9700238Y-14627476D02*
X9700238Y-14427476D01*
X9681190Y-14456048D01*
X9662143Y-14475095D01*
X9643095Y-14484619D01*
X9843095Y-14608429D02*
X9852619Y-14617952D01*
X9843095Y-14627476D01*
X9833571Y-14617952D01*
X9843095Y-14608429D01*
X9843095Y-14627476D01*
X9976428Y-14427476D02*
X9995476Y-14427476D01*
X10014524Y-14437000D01*
X10024048Y-14446524D01*
X10033571Y-14465571D01*
X10043095Y-14503667D01*
X10043095Y-14551286D01*
X10033571Y-14589381D01*
X10024048Y-14608429D01*
X10014524Y-14617952D01*
X9995476Y-14627476D01*
X9976428Y-14627476D01*
X9957381Y-14617952D01*
X9947857Y-14608429D01*
X9938333Y-14589381D01*
X9928809Y-14551286D01*
X9928809Y-14503667D01*
X9938333Y-14465571D01*
X9947857Y-14446524D01*
X9957381Y-14437000D01*
X9976428Y-14427476D01*
X10166905Y-14427476D02*
X10185952Y-14427476D01*
X10205000Y-14437000D01*
X10214524Y-14446524D01*
X10224048Y-14465571D01*
X10233571Y-14503667D01*
X10233571Y-14551286D01*
X10224048Y-14589381D01*
X10214524Y-14608429D01*
X10205000Y-14617952D01*
X10185952Y-14627476D01*
X10166905Y-14627476D01*
X10147857Y-14617952D01*
X10138333Y-14608429D01*
X10128809Y-14589381D01*
X10119286Y-14551286D01*
X10119286Y-14503667D01*
X10128809Y-14465571D01*
X10138333Y-14446524D01*
X10147857Y-14437000D01*
X10166905Y-14427476D01*
X10357381Y-14427476D02*
X10376428Y-14427476D01*
X10395476Y-14437000D01*
X10405000Y-14446524D01*
X10414524Y-14465571D01*
X10424048Y-14503667D01*
X10424048Y-14551286D01*
X10414524Y-14589381D01*
X10405000Y-14608429D01*
X10395476Y-14617952D01*
X10376428Y-14627476D01*
X10357381Y-14627476D01*
X10338333Y-14617952D01*
X10328809Y-14608429D01*
X10319286Y-14589381D01*
X10309762Y-14551286D01*
X10309762Y-14503667D01*
X10319286Y-14465571D01*
X10328809Y-14446524D01*
X10338333Y-14437000D01*
X10357381Y-14427476D01*
X10509762Y-14627476D02*
X10509762Y-14494143D01*
X10509762Y-14513190D02*
X10519286Y-14503667D01*
X10538333Y-14494143D01*
X10566905Y-14494143D01*
X10585952Y-14503667D01*
X10595476Y-14522714D01*
X10595476Y-14627476D01*
X10595476Y-14522714D02*
X10605000Y-14503667D01*
X10624048Y-14494143D01*
X10652619Y-14494143D01*
X10671667Y-14503667D01*
X10681190Y-14522714D01*
X10681190Y-14627476D01*
X10776428Y-14627476D02*
X10776428Y-14494143D01*
X10776428Y-14513190D02*
X10785952Y-14503667D01*
X10805000Y-14494143D01*
X10833571Y-14494143D01*
X10852619Y-14503667D01*
X10862143Y-14522714D01*
X10862143Y-14627476D01*
X10862143Y-14522714D02*
X10871667Y-14503667D01*
X10890714Y-14494143D01*
X10919286Y-14494143D01*
X10938333Y-14503667D01*
X10947857Y-14522714D01*
X10947857Y-14627476D01*
X11338333Y-14417952D02*
X11166905Y-14675095D01*
X11595476Y-14427476D02*
X11614524Y-14427476D01*
X11633571Y-14437000D01*
X11643095Y-14446524D01*
X11652619Y-14465571D01*
X11662143Y-14503667D01*
X11662143Y-14551286D01*
X11652619Y-14589381D01*
X11643095Y-14608429D01*
X11633571Y-14617952D01*
X11614524Y-14627476D01*
X11595476Y-14627476D01*
X11576428Y-14617952D01*
X11566905Y-14608429D01*
X11557381Y-14589381D01*
X11547857Y-14551286D01*
X11547857Y-14503667D01*
X11557381Y-14465571D01*
X11566905Y-14446524D01*
X11576428Y-14437000D01*
X11595476Y-14427476D01*
X11747857Y-14608429D02*
X11757381Y-14617952D01*
X11747857Y-14627476D01*
X11738333Y-14617952D01*
X11747857Y-14608429D01*
X11747857Y-14627476D01*
X11881190Y-14427476D02*
X11900238Y-14427476D01*
X11919286Y-14437000D01*
X11928809Y-14446524D01*
X11938333Y-14465571D01*
X11947857Y-14503667D01*
X11947857Y-14551286D01*
X11938333Y-14589381D01*
X11928809Y-14608429D01*
X11919286Y-14617952D01*
X11900238Y-14627476D01*
X11881190Y-14627476D01*
X11862143Y-14617952D01*
X11852619Y-14608429D01*
X11843095Y-14589381D01*
X11833571Y-14551286D01*
X11833571Y-14503667D01*
X11843095Y-14465571D01*
X11852619Y-14446524D01*
X11862143Y-14437000D01*
X11881190Y-14427476D01*
X12014524Y-14427476D02*
X12138333Y-14427476D01*
X12071666Y-14503667D01*
X12100238Y-14503667D01*
X12119286Y-14513190D01*
X12128809Y-14522714D01*
X12138333Y-14541762D01*
X12138333Y-14589381D01*
X12128809Y-14608429D01*
X12119286Y-14617952D01*
X12100238Y-14627476D01*
X12043095Y-14627476D01*
X12024047Y-14617952D01*
X12014524Y-14608429D01*
X12233571Y-14627476D02*
X12271666Y-14627476D01*
X12290714Y-14617952D01*
X12300238Y-14608429D01*
X12319286Y-14579857D01*
X12328809Y-14541762D01*
X12328809Y-14465571D01*
X12319286Y-14446524D01*
X12309762Y-14437000D01*
X12290714Y-14427476D01*
X12252619Y-14427476D01*
X12233571Y-14437000D01*
X12224047Y-14446524D01*
X12214524Y-14465571D01*
X12214524Y-14513190D01*
X12224047Y-14532238D01*
X12233571Y-14541762D01*
X12252619Y-14551286D01*
X12290714Y-14551286D01*
X12309762Y-14541762D01*
X12319286Y-14532238D01*
X12328809Y-14513190D01*
X12500238Y-14494143D02*
X12500238Y-14627476D01*
X12452619Y-14417952D02*
X12405000Y-14560810D01*
X12528809Y-14560810D01*
X12595476Y-14427476D02*
X12595476Y-14465571D01*
X12671666Y-14427476D02*
X12671666Y-14465571D01*
X12966905Y-14703667D02*
X12957381Y-14694143D01*
X12938333Y-14665571D01*
X12928809Y-14646524D01*
X12919286Y-14617952D01*
X12909762Y-14570333D01*
X12909762Y-14532238D01*
X12919286Y-14484619D01*
X12928809Y-14456048D01*
X12938333Y-14437000D01*
X12957381Y-14408429D01*
X12966905Y-14398905D01*
X13147857Y-14627476D02*
X13033571Y-14627476D01*
X13090714Y-14627476D02*
X13090714Y-14427476D01*
X13071666Y-14456048D01*
X13052619Y-14475095D01*
X13033571Y-14484619D01*
X13262143Y-14513190D02*
X13243095Y-14503667D01*
X13233571Y-14494143D01*
X13224047Y-14475095D01*
X13224047Y-14465571D01*
X13233571Y-14446524D01*
X13243095Y-14437000D01*
X13262143Y-14427476D01*
X13300238Y-14427476D01*
X13319286Y-14437000D01*
X13328809Y-14446524D01*
X13338333Y-14465571D01*
X13338333Y-14475095D01*
X13328809Y-14494143D01*
X13319286Y-14503667D01*
X13300238Y-14513190D01*
X13262143Y-14513190D01*
X13243095Y-14522714D01*
X13233571Y-14532238D01*
X13224047Y-14551286D01*
X13224047Y-14589381D01*
X13233571Y-14608429D01*
X13243095Y-14617952D01*
X13262143Y-14627476D01*
X13300238Y-14627476D01*
X13319286Y-14617952D01*
X13328809Y-14608429D01*
X13338333Y-14589381D01*
X13338333Y-14551286D01*
X13328809Y-14532238D01*
X13319286Y-14522714D01*
X13300238Y-14513190D01*
X13576428Y-14627476D02*
X13576428Y-14427476D01*
X13662143Y-14627476D02*
X13662143Y-14522714D01*
X13652619Y-14503667D01*
X13633571Y-14494143D01*
X13605000Y-14494143D01*
X13585952Y-14503667D01*
X13576428Y-14513190D01*
X13785952Y-14627476D02*
X13766905Y-14617952D01*
X13757381Y-14608429D01*
X13747857Y-14589381D01*
X13747857Y-14532238D01*
X13757381Y-14513190D01*
X13766905Y-14503667D01*
X13785952Y-14494143D01*
X13814524Y-14494143D01*
X13833571Y-14503667D01*
X13843095Y-14513190D01*
X13852619Y-14532238D01*
X13852619Y-14589381D01*
X13843095Y-14608429D01*
X13833571Y-14617952D01*
X13814524Y-14627476D01*
X13785952Y-14627476D01*
X13966905Y-14627476D02*
X13947857Y-14617952D01*
X13938333Y-14598905D01*
X13938333Y-14427476D01*
X14119286Y-14617952D02*
X14100238Y-14627476D01*
X14062143Y-14627476D01*
X14043095Y-14617952D01*
X14033571Y-14598905D01*
X14033571Y-14522714D01*
X14043095Y-14503667D01*
X14062143Y-14494143D01*
X14100238Y-14494143D01*
X14119286Y-14503667D01*
X14128809Y-14522714D01*
X14128809Y-14541762D01*
X14033571Y-14560810D01*
X14205000Y-14617952D02*
X14224047Y-14627476D01*
X14262143Y-14627476D01*
X14281190Y-14617952D01*
X14290714Y-14598905D01*
X14290714Y-14589381D01*
X14281190Y-14570333D01*
X14262143Y-14560810D01*
X14233571Y-14560810D01*
X14214524Y-14551286D01*
X14205000Y-14532238D01*
X14205000Y-14522714D01*
X14214524Y-14503667D01*
X14233571Y-14494143D01*
X14262143Y-14494143D01*
X14281190Y-14503667D01*
X14357381Y-14703667D02*
X14366905Y-14694143D01*
X14385952Y-14665571D01*
X14395476Y-14646524D01*
X14405000Y-14617952D01*
X14414524Y-14570333D01*
X14414524Y-14532238D01*
X14405000Y-14484619D01*
X14395476Y-14456048D01*
X14385952Y-14437000D01*
X14366905Y-14408429D01*
X14357381Y-14398905D01*
D16*
X9335000Y-14861000D02*
X9395000Y-14801000D01*
X9335000Y-14741000D01*
X9275000Y-14801000D01*
X9335000Y-14861000D01*
D11*
X9757381Y-14891476D02*
X9643095Y-14891476D01*
X9700238Y-14891476D02*
X9700238Y-14691476D01*
X9681190Y-14720048D01*
X9662143Y-14739095D01*
X9643095Y-14748619D01*
X9843095Y-14872429D02*
X9852619Y-14881952D01*
X9843095Y-14891476D01*
X9833571Y-14881952D01*
X9843095Y-14872429D01*
X9843095Y-14891476D01*
X9928809Y-14710524D02*
X9938333Y-14701000D01*
X9957381Y-14691476D01*
X10005000Y-14691476D01*
X10024048Y-14701000D01*
X10033571Y-14710524D01*
X10043095Y-14729571D01*
X10043095Y-14748619D01*
X10033571Y-14777190D01*
X9919286Y-14891476D01*
X10043095Y-14891476D01*
X10166905Y-14691476D02*
X10185952Y-14691476D01*
X10205000Y-14701000D01*
X10214524Y-14710524D01*
X10224048Y-14729571D01*
X10233571Y-14767667D01*
X10233571Y-14815286D01*
X10224048Y-14853381D01*
X10214524Y-14872429D01*
X10205000Y-14881952D01*
X10185952Y-14891476D01*
X10166905Y-14891476D01*
X10147857Y-14881952D01*
X10138333Y-14872429D01*
X10128809Y-14853381D01*
X10119286Y-14815286D01*
X10119286Y-14767667D01*
X10128809Y-14729571D01*
X10138333Y-14710524D01*
X10147857Y-14701000D01*
X10166905Y-14691476D01*
X10357381Y-14691476D02*
X10376428Y-14691476D01*
X10395476Y-14701000D01*
X10405000Y-14710524D01*
X10414524Y-14729571D01*
X10424048Y-14767667D01*
X10424048Y-14815286D01*
X10414524Y-14853381D01*
X10405000Y-14872429D01*
X10395476Y-14881952D01*
X10376428Y-14891476D01*
X10357381Y-14891476D01*
X10338333Y-14881952D01*
X10328809Y-14872429D01*
X10319286Y-14853381D01*
X10309762Y-14815286D01*
X10309762Y-14767667D01*
X10319286Y-14729571D01*
X10328809Y-14710524D01*
X10338333Y-14701000D01*
X10357381Y-14691476D01*
X10509762Y-14891476D02*
X10509762Y-14758143D01*
X10509762Y-14777190D02*
X10519286Y-14767667D01*
X10538333Y-14758143D01*
X10566905Y-14758143D01*
X10585952Y-14767667D01*
X10595476Y-14786714D01*
X10595476Y-14891476D01*
X10595476Y-14786714D02*
X10605000Y-14767667D01*
X10624048Y-14758143D01*
X10652619Y-14758143D01*
X10671667Y-14767667D01*
X10681190Y-14786714D01*
X10681190Y-14891476D01*
X10776428Y-14891476D02*
X10776428Y-14758143D01*
X10776428Y-14777190D02*
X10785952Y-14767667D01*
X10805000Y-14758143D01*
X10833571Y-14758143D01*
X10852619Y-14767667D01*
X10862143Y-14786714D01*
X10862143Y-14891476D01*
X10862143Y-14786714D02*
X10871667Y-14767667D01*
X10890714Y-14758143D01*
X10919286Y-14758143D01*
X10938333Y-14767667D01*
X10947857Y-14786714D01*
X10947857Y-14891476D01*
X11338333Y-14681952D02*
X11166905Y-14939095D01*
X11595476Y-14691476D02*
X11614524Y-14691476D01*
X11633571Y-14701000D01*
X11643095Y-14710524D01*
X11652619Y-14729571D01*
X11662143Y-14767667D01*
X11662143Y-14815286D01*
X11652619Y-14853381D01*
X11643095Y-14872429D01*
X11633571Y-14881952D01*
X11614524Y-14891476D01*
X11595476Y-14891476D01*
X11576428Y-14881952D01*
X11566905Y-14872429D01*
X11557381Y-14853381D01*
X11547857Y-14815286D01*
X11547857Y-14767667D01*
X11557381Y-14729571D01*
X11566905Y-14710524D01*
X11576428Y-14701000D01*
X11595476Y-14691476D01*
X11747857Y-14872429D02*
X11757381Y-14881952D01*
X11747857Y-14891476D01*
X11738333Y-14881952D01*
X11747857Y-14872429D01*
X11747857Y-14891476D01*
X11881190Y-14691476D02*
X11900238Y-14691476D01*
X11919286Y-14701000D01*
X11928809Y-14710524D01*
X11938333Y-14729571D01*
X11947857Y-14767667D01*
X11947857Y-14815286D01*
X11938333Y-14853381D01*
X11928809Y-14872429D01*
X11919286Y-14881952D01*
X11900238Y-14891476D01*
X11881190Y-14891476D01*
X11862143Y-14881952D01*
X11852619Y-14872429D01*
X11843095Y-14853381D01*
X11833571Y-14815286D01*
X11833571Y-14767667D01*
X11843095Y-14729571D01*
X11852619Y-14710524D01*
X11862143Y-14701000D01*
X11881190Y-14691476D01*
X12119286Y-14758143D02*
X12119286Y-14891476D01*
X12071666Y-14681952D02*
X12024047Y-14824810D01*
X12147857Y-14824810D01*
X12205000Y-14691476D02*
X12338333Y-14691476D01*
X12252619Y-14891476D01*
X12405000Y-14710524D02*
X12414524Y-14701000D01*
X12433571Y-14691476D01*
X12481190Y-14691476D01*
X12500238Y-14701000D01*
X12509762Y-14710524D01*
X12519286Y-14729571D01*
X12519286Y-14748619D01*
X12509762Y-14777190D01*
X12395476Y-14891476D01*
X12519286Y-14891476D01*
X12595476Y-14691476D02*
X12595476Y-14729571D01*
X12671666Y-14691476D02*
X12671666Y-14729571D01*
X12966905Y-14967667D02*
X12957381Y-14958143D01*
X12938333Y-14929571D01*
X12928809Y-14910524D01*
X12919286Y-14881952D01*
X12909762Y-14834333D01*
X12909762Y-14796238D01*
X12919286Y-14748619D01*
X12928809Y-14720048D01*
X12938333Y-14701000D01*
X12957381Y-14672429D01*
X12966905Y-14662905D01*
X13147857Y-14891476D02*
X13033571Y-14891476D01*
X13090714Y-14891476D02*
X13090714Y-14691476D01*
X13071666Y-14720048D01*
X13052619Y-14739095D01*
X13033571Y-14748619D01*
X13319286Y-14691476D02*
X13281190Y-14691476D01*
X13262143Y-14701000D01*
X13252619Y-14710524D01*
X13233571Y-14739095D01*
X13224047Y-14777190D01*
X13224047Y-14853381D01*
X13233571Y-14872429D01*
X13243095Y-14881952D01*
X13262143Y-14891476D01*
X13300238Y-14891476D01*
X13319286Y-14881952D01*
X13328809Y-14872429D01*
X13338333Y-14853381D01*
X13338333Y-14805762D01*
X13328809Y-14786714D01*
X13319286Y-14777190D01*
X13300238Y-14767667D01*
X13262143Y-14767667D01*
X13243095Y-14777190D01*
X13233571Y-14786714D01*
X13224047Y-14805762D01*
X13576428Y-14891476D02*
X13576428Y-14691476D01*
X13662143Y-14891476D02*
X13662143Y-14786714D01*
X13652619Y-14767667D01*
X13633571Y-14758143D01*
X13605000Y-14758143D01*
X13585952Y-14767667D01*
X13576428Y-14777190D01*
X13785952Y-14891476D02*
X13766905Y-14881952D01*
X13757381Y-14872429D01*
X13747857Y-14853381D01*
X13747857Y-14796238D01*
X13757381Y-14777190D01*
X13766905Y-14767667D01*
X13785952Y-14758143D01*
X13814524Y-14758143D01*
X13833571Y-14767667D01*
X13843095Y-14777190D01*
X13852619Y-14796238D01*
X13852619Y-14853381D01*
X13843095Y-14872429D01*
X13833571Y-14881952D01*
X13814524Y-14891476D01*
X13785952Y-14891476D01*
X13966905Y-14891476D02*
X13947857Y-14881952D01*
X13938333Y-14862905D01*
X13938333Y-14691476D01*
X14119286Y-14881952D02*
X14100238Y-14891476D01*
X14062143Y-14891476D01*
X14043095Y-14881952D01*
X14033571Y-14862905D01*
X14033571Y-14786714D01*
X14043095Y-14767667D01*
X14062143Y-14758143D01*
X14100238Y-14758143D01*
X14119286Y-14767667D01*
X14128809Y-14786714D01*
X14128809Y-14805762D01*
X14033571Y-14824810D01*
X14205000Y-14881952D02*
X14224047Y-14891476D01*
X14262143Y-14891476D01*
X14281190Y-14881952D01*
X14290714Y-14862905D01*
X14290714Y-14853381D01*
X14281190Y-14834333D01*
X14262143Y-14824810D01*
X14233571Y-14824810D01*
X14214524Y-14815286D01*
X14205000Y-14796238D01*
X14205000Y-14786714D01*
X14214524Y-14767667D01*
X14233571Y-14758143D01*
X14262143Y-14758143D01*
X14281190Y-14767667D01*
X14357381Y-14967667D02*
X14366905Y-14958143D01*
X14385952Y-14929571D01*
X14395476Y-14910524D01*
X14405000Y-14881952D01*
X14414524Y-14834333D01*
X14414524Y-14796238D01*
X14405000Y-14748619D01*
X14395476Y-14720048D01*
X14385952Y-14701000D01*
X14366905Y-14672429D01*
X14357381Y-14662905D01*
D17*
X9240060Y-14987530D02*
X9395000Y-15142470D01*
X9395000Y-14987530D02*
X9240060Y-15142470D01*
X9395000Y-15065000D02*
G75*
G03*
X9395000Y-15065000I-77470J0D01*
G01*
D11*
X9757381Y-15155476D02*
X9643095Y-15155476D01*
X9700238Y-15155476D02*
X9700238Y-14955476D01*
X9681190Y-14984048D01*
X9662143Y-15003095D01*
X9643095Y-15012619D01*
X9843095Y-15136429D02*
X9852619Y-15145952D01*
X9843095Y-15155476D01*
X9833571Y-15145952D01*
X9843095Y-15136429D01*
X9843095Y-15155476D01*
X10033571Y-14955476D02*
X9938333Y-14955476D01*
X9928809Y-15050714D01*
X9938333Y-15041190D01*
X9957381Y-15031667D01*
X10005000Y-15031667D01*
X10024048Y-15041190D01*
X10033571Y-15050714D01*
X10043095Y-15069762D01*
X10043095Y-15117381D01*
X10033571Y-15136429D01*
X10024048Y-15145952D01*
X10005000Y-15155476D01*
X9957381Y-15155476D01*
X9938333Y-15145952D01*
X9928809Y-15136429D01*
X10214524Y-15022143D02*
X10214524Y-15155476D01*
X10166905Y-14945952D02*
X10119286Y-15088810D01*
X10243095Y-15088810D01*
X10328809Y-15155476D02*
X10366905Y-15155476D01*
X10385952Y-15145952D01*
X10395476Y-15136429D01*
X10414524Y-15107857D01*
X10424048Y-15069762D01*
X10424048Y-14993571D01*
X10414524Y-14974524D01*
X10405000Y-14965000D01*
X10385952Y-14955476D01*
X10347857Y-14955476D01*
X10328809Y-14965000D01*
X10319286Y-14974524D01*
X10309762Y-14993571D01*
X10309762Y-15041190D01*
X10319286Y-15060238D01*
X10328809Y-15069762D01*
X10347857Y-15079286D01*
X10385952Y-15079286D01*
X10405000Y-15069762D01*
X10414524Y-15060238D01*
X10424048Y-15041190D01*
X10509762Y-15155476D02*
X10509762Y-15022143D01*
X10509762Y-15041190D02*
X10519286Y-15031667D01*
X10538333Y-15022143D01*
X10566905Y-15022143D01*
X10585952Y-15031667D01*
X10595476Y-15050714D01*
X10595476Y-15155476D01*
X10595476Y-15050714D02*
X10605000Y-15031667D01*
X10624048Y-15022143D01*
X10652619Y-15022143D01*
X10671667Y-15031667D01*
X10681190Y-15050714D01*
X10681190Y-15155476D01*
X10776428Y-15155476D02*
X10776428Y-15022143D01*
X10776428Y-15041190D02*
X10785952Y-15031667D01*
X10805000Y-15022143D01*
X10833571Y-15022143D01*
X10852619Y-15031667D01*
X10862143Y-15050714D01*
X10862143Y-15155476D01*
X10862143Y-15050714D02*
X10871667Y-15031667D01*
X10890714Y-15022143D01*
X10919286Y-15022143D01*
X10938333Y-15031667D01*
X10947857Y-15050714D01*
X10947857Y-15155476D01*
X11338333Y-14945952D02*
X11166905Y-15203095D01*
X11595476Y-14955476D02*
X11614524Y-14955476D01*
X11633571Y-14965000D01*
X11643095Y-14974524D01*
X11652619Y-14993571D01*
X11662143Y-15031667D01*
X11662143Y-15079286D01*
X11652619Y-15117381D01*
X11643095Y-15136429D01*
X11633571Y-15145952D01*
X11614524Y-15155476D01*
X11595476Y-15155476D01*
X11576428Y-15145952D01*
X11566905Y-15136429D01*
X11557381Y-15117381D01*
X11547857Y-15079286D01*
X11547857Y-15031667D01*
X11557381Y-14993571D01*
X11566905Y-14974524D01*
X11576428Y-14965000D01*
X11595476Y-14955476D01*
X11747857Y-15136429D02*
X11757381Y-15145952D01*
X11747857Y-15155476D01*
X11738333Y-15145952D01*
X11747857Y-15136429D01*
X11747857Y-15155476D01*
X11881190Y-14955476D02*
X11900238Y-14955476D01*
X11919286Y-14965000D01*
X11928809Y-14974524D01*
X11938333Y-14993571D01*
X11947857Y-15031667D01*
X11947857Y-15079286D01*
X11938333Y-15117381D01*
X11928809Y-15136429D01*
X11919286Y-15145952D01*
X11900238Y-15155476D01*
X11881190Y-15155476D01*
X11862143Y-15145952D01*
X11852619Y-15136429D01*
X11843095Y-15117381D01*
X11833571Y-15079286D01*
X11833571Y-15031667D01*
X11843095Y-14993571D01*
X11852619Y-14974524D01*
X11862143Y-14965000D01*
X11881190Y-14955476D01*
X12119286Y-14955476D02*
X12081190Y-14955476D01*
X12062143Y-14965000D01*
X12052619Y-14974524D01*
X12033571Y-15003095D01*
X12024047Y-15041190D01*
X12024047Y-15117381D01*
X12033571Y-15136429D01*
X12043095Y-15145952D01*
X12062143Y-15155476D01*
X12100238Y-15155476D01*
X12119286Y-15145952D01*
X12128809Y-15136429D01*
X12138333Y-15117381D01*
X12138333Y-15069762D01*
X12128809Y-15050714D01*
X12119286Y-15041190D01*
X12100238Y-15031667D01*
X12062143Y-15031667D01*
X12043095Y-15041190D01*
X12033571Y-15050714D01*
X12024047Y-15069762D01*
X12328809Y-15155476D02*
X12214524Y-15155476D01*
X12271666Y-15155476D02*
X12271666Y-14955476D01*
X12252619Y-14984048D01*
X12233571Y-15003095D01*
X12214524Y-15012619D01*
X12452619Y-14955476D02*
X12471666Y-14955476D01*
X12490714Y-14965000D01*
X12500238Y-14974524D01*
X12509762Y-14993571D01*
X12519286Y-15031667D01*
X12519286Y-15079286D01*
X12509762Y-15117381D01*
X12500238Y-15136429D01*
X12490714Y-15145952D01*
X12471666Y-15155476D01*
X12452619Y-15155476D01*
X12433571Y-15145952D01*
X12424047Y-15136429D01*
X12414524Y-15117381D01*
X12405000Y-15079286D01*
X12405000Y-15031667D01*
X12414524Y-14993571D01*
X12424047Y-14974524D01*
X12433571Y-14965000D01*
X12452619Y-14955476D01*
X12595476Y-14955476D02*
X12595476Y-14993571D01*
X12671666Y-14955476D02*
X12671666Y-14993571D01*
X12966905Y-15231667D02*
X12957381Y-15222143D01*
X12938333Y-15193571D01*
X12928809Y-15174524D01*
X12919286Y-15145952D01*
X12909762Y-15098333D01*
X12909762Y-15060238D01*
X12919286Y-15012619D01*
X12928809Y-14984048D01*
X12938333Y-14965000D01*
X12957381Y-14936429D01*
X12966905Y-14926905D01*
X13138333Y-14955476D02*
X13043095Y-14955476D01*
X13033571Y-15050714D01*
X13043095Y-15041190D01*
X13062143Y-15031667D01*
X13109762Y-15031667D01*
X13128809Y-15041190D01*
X13138333Y-15050714D01*
X13147857Y-15069762D01*
X13147857Y-15117381D01*
X13138333Y-15136429D01*
X13128809Y-15145952D01*
X13109762Y-15155476D01*
X13062143Y-15155476D01*
X13043095Y-15145952D01*
X13033571Y-15136429D01*
X13319286Y-15022143D02*
X13319286Y-15155476D01*
X13271666Y-14945952D02*
X13224047Y-15088810D01*
X13347857Y-15088810D01*
X13576428Y-15155476D02*
X13576428Y-14955476D01*
X13662143Y-15155476D02*
X13662143Y-15050714D01*
X13652619Y-15031667D01*
X13633571Y-15022143D01*
X13605000Y-15022143D01*
X13585952Y-15031667D01*
X13576428Y-15041190D01*
X13785952Y-15155476D02*
X13766905Y-15145952D01*
X13757381Y-15136429D01*
X13747857Y-15117381D01*
X13747857Y-15060238D01*
X13757381Y-15041190D01*
X13766905Y-15031667D01*
X13785952Y-15022143D01*
X13814524Y-15022143D01*
X13833571Y-15031667D01*
X13843095Y-15041190D01*
X13852619Y-15060238D01*
X13852619Y-15117381D01*
X13843095Y-15136429D01*
X13833571Y-15145952D01*
X13814524Y-15155476D01*
X13785952Y-15155476D01*
X13966905Y-15155476D02*
X13947857Y-15145952D01*
X13938333Y-15126905D01*
X13938333Y-14955476D01*
X14119286Y-15145952D02*
X14100238Y-15155476D01*
X14062143Y-15155476D01*
X14043095Y-15145952D01*
X14033571Y-15126905D01*
X14033571Y-15050714D01*
X14043095Y-15031667D01*
X14062143Y-15022143D01*
X14100238Y-15022143D01*
X14119286Y-15031667D01*
X14128809Y-15050714D01*
X14128809Y-15069762D01*
X14033571Y-15088810D01*
X14205000Y-15145952D02*
X14224047Y-15155476D01*
X14262143Y-15155476D01*
X14281190Y-15145952D01*
X14290714Y-15126905D01*
X14290714Y-15117381D01*
X14281190Y-15098333D01*
X14262143Y-15088810D01*
X14233571Y-15088810D01*
X14214524Y-15079286D01*
X14205000Y-15060238D01*
X14205000Y-15050714D01*
X14214524Y-15031667D01*
X14233571Y-15022143D01*
X14262143Y-15022143D01*
X14281190Y-15031667D01*
X14357381Y-15231667D02*
X14366905Y-15222143D01*
X14385952Y-15193571D01*
X14395476Y-15174524D01*
X14405000Y-15145952D01*
X14414524Y-15098333D01*
X14414524Y-15060238D01*
X14405000Y-15012619D01*
X14395476Y-14984048D01*
X14385952Y-14965000D01*
X14366905Y-14936429D01*
X14357381Y-14926905D01*
M02*
