G04 #@! TF.GenerationSoftware,KiCad,Pcbnew,(5.99.0-1438-g3759799d1)*
G04 #@! TF.CreationDate,2020-05-11T10:33:07+02:00*
G04 #@! TF.ProjectId,Uni_stick,556e695f-7374-4696-936b-2e6b69636164,rev?*
G04 #@! TF.SameCoordinates,Original*
G04 #@! TF.FileFunction,Copper,L1,Top*
G04 #@! TF.FilePolarity,Positive*
%FSLAX46Y46*%
G04 Gerber Fmt 4.6, Leading zero omitted, Abs format (unit mm)*
G04 Created by KiCad (PCBNEW (5.99.0-1438-g3759799d1)) date 2020-05-11 10:33:07*
%MOMM*%
%LPD*%
G01*
G04 APERTURE LIST*
G04 #@! TA.AperFunction,EtchedComponent*
%ADD10C,0.100000*%
G04 #@! TD*
G04 #@! TA.AperFunction,SMDPad,CuDef*
%ADD11R,2.000000X1.300000*%
G04 #@! TD*
G04 #@! TA.AperFunction,SMDPad,CuDef*
%ADD12R,2.000000X2.000000*%
G04 #@! TD*
G04 #@! TA.AperFunction,ComponentPad*
%ADD13O,3.600000X1.800000*%
G04 #@! TD*
G04 #@! TA.AperFunction,SMDPad,CuDef*
%ADD14R,3.000000X1.500000*%
G04 #@! TD*
G04 #@! TA.AperFunction,SMDPad,CuDef*
%ADD15R,1.800000X2.600000*%
G04 #@! TD*
G04 #@! TA.AperFunction,SMDPad,CuDef*
%ADD16R,0.800000X0.300000*%
G04 #@! TD*
G04 #@! TA.AperFunction,ComponentPad*
%ADD17C,2.057400*%
G04 #@! TD*
G04 #@! TA.AperFunction,ComponentPad*
%ADD18O,2.032000X3.048000*%
G04 #@! TD*
G04 #@! TA.AperFunction,SMDPad,CuDef*
%ADD19R,1.500000X1.000000*%
G04 #@! TD*
G04 #@! TA.AperFunction,WasherPad*
%ADD20C,5.000000*%
G04 #@! TD*
G04 #@! TA.AperFunction,ComponentPad*
%ADD21C,1.524000*%
G04 #@! TD*
G04 #@! TA.AperFunction,ComponentPad*
%ADD22O,1.700000X1.700000*%
G04 #@! TD*
G04 #@! TA.AperFunction,ComponentPad*
%ADD23R,1.700000X1.700000*%
G04 #@! TD*
G04 #@! TA.AperFunction,ViaPad*
%ADD24C,0.750000*%
G04 #@! TD*
G04 #@! TA.AperFunction,ViaPad*
%ADD25C,0.800000*%
G04 #@! TD*
G04 #@! TA.AperFunction,ViaPad*
%ADD26C,1.000000*%
G04 #@! TD*
G04 #@! TA.AperFunction,ViaPad*
%ADD27C,0.900000*%
G04 #@! TD*
G04 #@! TA.AperFunction,Conductor*
%ADD28C,0.300000*%
G04 #@! TD*
G04 #@! TA.AperFunction,Conductor*
%ADD29C,1.000000*%
G04 #@! TD*
G04 #@! TA.AperFunction,Conductor*
%ADD30C,0.400000*%
G04 #@! TD*
G04 #@! TA.AperFunction,Conductor*
%ADD31C,0.800000*%
G04 #@! TD*
G04 #@! TA.AperFunction,Conductor*
%ADD32C,0.250000*%
G04 #@! TD*
G04 APERTURE END LIST*
G36*
X116600000Y-73300000D02*
G01*
X116000000Y-73300000D01*
X116000000Y-72800000D01*
X116600000Y-72800000D01*
X116600000Y-73300000D01*
G37*
D10*
X116600000Y-73300000D02*
X116000000Y-73300000D01*
X116000000Y-72800000D01*
X116600000Y-72800000D01*
X116600000Y-73300000D01*
G36*
X120400000Y-73300000D02*
G01*
X119800000Y-73300000D01*
X119800000Y-72800000D01*
X120400000Y-72800000D01*
X120400000Y-73300000D01*
G37*
X120400000Y-73300000D02*
X119800000Y-73300000D01*
X119800000Y-72800000D01*
X120400000Y-72800000D01*
X120400000Y-73300000D01*
G36*
X124200000Y-73300000D02*
G01*
X123600000Y-73300000D01*
X123600000Y-72800000D01*
X124200000Y-72800000D01*
X124200000Y-73300000D01*
G37*
X124200000Y-73300000D02*
X123600000Y-73300000D01*
X123600000Y-72800000D01*
X124200000Y-72800000D01*
X124200000Y-73300000D01*
G36*
X116600000Y-98800000D02*
G01*
X116000000Y-98800000D01*
X116000000Y-98300000D01*
X116600000Y-98300000D01*
X116600000Y-98800000D01*
G37*
X116600000Y-98800000D02*
X116000000Y-98800000D01*
X116000000Y-98300000D01*
X116600000Y-98300000D01*
X116600000Y-98800000D01*
G36*
X120500000Y-98800000D02*
G01*
X119900000Y-98800000D01*
X119900000Y-98300000D01*
X120500000Y-98300000D01*
X120500000Y-98800000D01*
G37*
X120500000Y-98800000D02*
X119900000Y-98800000D01*
X119900000Y-98300000D01*
X120500000Y-98300000D01*
X120500000Y-98800000D01*
G36*
X124200000Y-98800000D02*
G01*
X123600000Y-98800000D01*
X123600000Y-98300000D01*
X124200000Y-98300000D01*
X124200000Y-98800000D01*
G37*
X124200000Y-98800000D02*
X123600000Y-98800000D01*
X123600000Y-98300000D01*
X124200000Y-98300000D01*
X124200000Y-98800000D01*
G36*
X116500000Y-124300000D02*
G01*
X115900000Y-124300000D01*
X115900000Y-123800000D01*
X116500000Y-123800000D01*
X116500000Y-124300000D01*
G37*
X116500000Y-124300000D02*
X115900000Y-124300000D01*
X115900000Y-123800000D01*
X116500000Y-123800000D01*
X116500000Y-124300000D01*
G36*
X120500000Y-124300000D02*
G01*
X119900000Y-124300000D01*
X119900000Y-123800000D01*
X120500000Y-123800000D01*
X120500000Y-124300000D01*
G37*
X120500000Y-124300000D02*
X119900000Y-124300000D01*
X119900000Y-123800000D01*
X120500000Y-123800000D01*
X120500000Y-124300000D01*
G36*
X124250000Y-124300000D02*
G01*
X123650000Y-124300000D01*
X123650000Y-123800000D01*
X124250000Y-123800000D01*
X124250000Y-124300000D01*
G37*
X124250000Y-124300000D02*
X123650000Y-124300000D01*
X123650000Y-123800000D01*
X124250000Y-123800000D01*
X124250000Y-124300000D01*
G04 #@! TA.AperFunction,SMDPad,CuDef*
G36*
G01*
X145475000Y-49675000D02*
X145475000Y-47625000D01*
G75*
G02*
X145725000Y-47375000I250000J0D01*
G01*
X147300000Y-47375000D01*
G75*
G02*
X147550000Y-47625000I0J-250000D01*
G01*
X147550000Y-49675000D01*
G75*
G02*
X147300000Y-49925000I-250000J0D01*
G01*
X145725000Y-49925000D01*
G75*
G02*
X145475000Y-49675000I0J250000D01*
G01*
G37*
G04 #@! TD.AperFunction*
G04 #@! TA.AperFunction,SMDPad,CuDef*
G36*
G01*
X139250000Y-49675000D02*
X139250000Y-47625000D01*
G75*
G02*
X139500000Y-47375000I250000J0D01*
G01*
X141075000Y-47375000D01*
G75*
G02*
X141325000Y-47625000I0J-250000D01*
G01*
X141325000Y-49675000D01*
G75*
G02*
X141075000Y-49925000I-250000J0D01*
G01*
X139500000Y-49925000D01*
G75*
G02*
X139250000Y-49675000I0J250000D01*
G01*
G37*
G04 #@! TD.AperFunction*
G04 #@! TA.AperFunction,SMDPad,CuDef*
G36*
G01*
X141050000Y-53493750D02*
X141050000Y-54006250D01*
G75*
G02*
X140831250Y-54225000I-218750J0D01*
G01*
X140393750Y-54225000D01*
G75*
G02*
X140175000Y-54006250I0J218750D01*
G01*
X140175000Y-53493750D01*
G75*
G02*
X140393750Y-53275000I218750J0D01*
G01*
X140831250Y-53275000D01*
G75*
G02*
X141050000Y-53493750I0J-218750D01*
G01*
G37*
G04 #@! TD.AperFunction*
G04 #@! TA.AperFunction,SMDPad,CuDef*
G36*
G01*
X142625000Y-53493750D02*
X142625000Y-54006250D01*
G75*
G02*
X142406250Y-54225000I-218750J0D01*
G01*
X141968750Y-54225000D01*
G75*
G02*
X141750000Y-54006250I0J218750D01*
G01*
X141750000Y-53493750D01*
G75*
G02*
X141968750Y-53275000I218750J0D01*
G01*
X142406250Y-53275000D01*
G75*
G02*
X142625000Y-53493750I0J-218750D01*
G01*
G37*
G04 #@! TD.AperFunction*
D11*
X143600000Y-62150000D03*
D12*
X147600000Y-63300000D03*
D11*
X143600000Y-64450000D03*
D13*
X97900000Y-61300000D03*
X97900000Y-57800000D03*
X97900000Y-54300000D03*
G04 #@! TA.AperFunction,ComponentPad*
G36*
G01*
X96350000Y-49900000D02*
X99450000Y-49900000D01*
G75*
G02*
X99700000Y-50150000I0J-250000D01*
G01*
X99700000Y-51450000D01*
G75*
G02*
X99450000Y-51700000I-250000J0D01*
G01*
X96350000Y-51700000D01*
G75*
G02*
X96100000Y-51450000I0J250000D01*
G01*
X96100000Y-50150000D01*
G75*
G02*
X96350000Y-49900000I250000J0D01*
G01*
G37*
G04 #@! TD.AperFunction*
D14*
X151650000Y-122285000D03*
X147150000Y-121015000D03*
X151650000Y-119745000D03*
X147150000Y-118475000D03*
X151650000Y-117205000D03*
X147150000Y-115935000D03*
X151650000Y-114665000D03*
X147150000Y-113395000D03*
X151650000Y-112125000D03*
X147150000Y-110855000D03*
X151650000Y-109585000D03*
X147150000Y-123555000D03*
G04 #@! TA.AperFunction,SMDPad,CuDef*
G36*
G01*
X147306250Y-43200000D02*
X146793750Y-43200000D01*
G75*
G02*
X146575000Y-42981250I0J218750D01*
G01*
X146575000Y-42543750D01*
G75*
G02*
X146793750Y-42325000I218750J0D01*
G01*
X147306250Y-42325000D01*
G75*
G02*
X147525000Y-42543750I0J-218750D01*
G01*
X147525000Y-42981250D01*
G75*
G02*
X147306250Y-43200000I-218750J0D01*
G01*
G37*
G04 #@! TD.AperFunction*
G04 #@! TA.AperFunction,SMDPad,CuDef*
G36*
G01*
X147306250Y-44775000D02*
X146793750Y-44775000D01*
G75*
G02*
X146575000Y-44556250I0J218750D01*
G01*
X146575000Y-44118750D01*
G75*
G02*
X146793750Y-43900000I218750J0D01*
G01*
X147306250Y-43900000D01*
G75*
G02*
X147525000Y-44118750I0J-218750D01*
G01*
X147525000Y-44556250D01*
G75*
G02*
X147306250Y-44775000I-218750J0D01*
G01*
G37*
G04 #@! TD.AperFunction*
G04 #@! TA.AperFunction,SMDPad,CuDef*
G36*
G01*
X151775000Y-44475000D02*
X151775000Y-43225000D01*
G75*
G02*
X152025000Y-42975000I250000J0D01*
G01*
X152775000Y-42975000D01*
G75*
G02*
X153025000Y-43225000I0J-250000D01*
G01*
X153025000Y-44475000D01*
G75*
G02*
X152775000Y-44725000I-250000J0D01*
G01*
X152025000Y-44725000D01*
G75*
G02*
X151775000Y-44475000I0J250000D01*
G01*
G37*
G04 #@! TD.AperFunction*
G04 #@! TA.AperFunction,SMDPad,CuDef*
G36*
G01*
X148975000Y-44475000D02*
X148975000Y-43225000D01*
G75*
G02*
X149225000Y-42975000I250000J0D01*
G01*
X149975000Y-42975000D01*
G75*
G02*
X150225000Y-43225000I0J-250000D01*
G01*
X150225000Y-44475000D01*
G75*
G02*
X149975000Y-44725000I-250000J0D01*
G01*
X149225000Y-44725000D01*
G75*
G02*
X148975000Y-44475000I0J250000D01*
G01*
G37*
G04 #@! TD.AperFunction*
G04 #@! TA.AperFunction,SMDPad,CuDef*
G36*
G01*
X152775000Y-48175000D02*
X151525000Y-48175000D01*
G75*
G02*
X151275000Y-47925000I0J250000D01*
G01*
X151275000Y-47175000D01*
G75*
G02*
X151525000Y-46925000I250000J0D01*
G01*
X152775000Y-46925000D01*
G75*
G02*
X153025000Y-47175000I0J-250000D01*
G01*
X153025000Y-47925000D01*
G75*
G02*
X152775000Y-48175000I-250000J0D01*
G01*
G37*
G04 #@! TD.AperFunction*
G04 #@! TA.AperFunction,SMDPad,CuDef*
G36*
G01*
X152775000Y-50975000D02*
X151525000Y-50975000D01*
G75*
G02*
X151275000Y-50725000I0J250000D01*
G01*
X151275000Y-49975000D01*
G75*
G02*
X151525000Y-49725000I250000J0D01*
G01*
X152775000Y-49725000D01*
G75*
G02*
X153025000Y-49975000I0J-250000D01*
G01*
X153025000Y-50725000D01*
G75*
G02*
X152775000Y-50975000I-250000J0D01*
G01*
G37*
G04 #@! TD.AperFunction*
G04 #@! TA.AperFunction,SMDPad,CuDef*
G36*
G01*
X151400000Y-59193750D02*
X151400000Y-59706250D01*
G75*
G02*
X151181250Y-59925000I-218750J0D01*
G01*
X150743750Y-59925000D01*
G75*
G02*
X150525000Y-59706250I0J218750D01*
G01*
X150525000Y-59193750D01*
G75*
G02*
X150743750Y-58975000I218750J0D01*
G01*
X151181250Y-58975000D01*
G75*
G02*
X151400000Y-59193750I0J-218750D01*
G01*
G37*
G04 #@! TD.AperFunction*
G04 #@! TA.AperFunction,SMDPad,CuDef*
G36*
G01*
X152975000Y-59193750D02*
X152975000Y-59706250D01*
G75*
G02*
X152756250Y-59925000I-218750J0D01*
G01*
X152318750Y-59925000D01*
G75*
G02*
X152100000Y-59706250I0J218750D01*
G01*
X152100000Y-59193750D01*
G75*
G02*
X152318750Y-58975000I218750J0D01*
G01*
X152756250Y-58975000D01*
G75*
G02*
X152975000Y-59193750I0J-218750D01*
G01*
G37*
G04 #@! TD.AperFunction*
G04 #@! TA.AperFunction,SMDPad,CuDef*
G36*
G01*
X151525000Y-55675000D02*
X152775000Y-55675000D01*
G75*
G02*
X153025000Y-55925000I0J-250000D01*
G01*
X153025000Y-56675000D01*
G75*
G02*
X152775000Y-56925000I-250000J0D01*
G01*
X151525000Y-56925000D01*
G75*
G02*
X151275000Y-56675000I0J250000D01*
G01*
X151275000Y-55925000D01*
G75*
G02*
X151525000Y-55675000I250000J0D01*
G01*
G37*
G04 #@! TD.AperFunction*
G04 #@! TA.AperFunction,SMDPad,CuDef*
G36*
G01*
X151525000Y-52875000D02*
X152775000Y-52875000D01*
G75*
G02*
X153025000Y-53125000I0J-250000D01*
G01*
X153025000Y-53875000D01*
G75*
G02*
X152775000Y-54125000I-250000J0D01*
G01*
X151525000Y-54125000D01*
G75*
G02*
X151275000Y-53875000I0J250000D01*
G01*
X151275000Y-53125000D01*
G75*
G02*
X151525000Y-52875000I250000J0D01*
G01*
G37*
G04 #@! TD.AperFunction*
D15*
X146900000Y-55300000D03*
D16*
X148400000Y-54050000D03*
X148400000Y-54550000D03*
X148400000Y-55050000D03*
X148400000Y-55550000D03*
X148400000Y-56050000D03*
X148400000Y-56550000D03*
X145400000Y-56550000D03*
X145400000Y-56050000D03*
X145400000Y-55550000D03*
X145400000Y-55050000D03*
X145400000Y-54550000D03*
X145400000Y-54050000D03*
D13*
X97900000Y-87000000D03*
X97900000Y-83500000D03*
X97900000Y-80000000D03*
G04 #@! TA.AperFunction,ComponentPad*
G36*
G01*
X96350000Y-75600000D02*
X99450000Y-75600000D01*
G75*
G02*
X99700000Y-75850000I0J-250000D01*
G01*
X99700000Y-77150000D01*
G75*
G02*
X99450000Y-77400000I-250000J0D01*
G01*
X96350000Y-77400000D01*
G75*
G02*
X96100000Y-77150000I0J250000D01*
G01*
X96100000Y-75850000D01*
G75*
G02*
X96350000Y-75600000I250000J0D01*
G01*
G37*
G04 #@! TD.AperFunction*
X97900000Y-103700000D03*
X97900000Y-100200000D03*
X97900000Y-96700000D03*
G04 #@! TA.AperFunction,ComponentPad*
G36*
G01*
X96350000Y-92300000D02*
X99450000Y-92300000D01*
G75*
G02*
X99700000Y-92550000I0J-250000D01*
G01*
X99700000Y-93850000D01*
G75*
G02*
X99450000Y-94100000I-250000J0D01*
G01*
X96350000Y-94100000D01*
G75*
G02*
X96100000Y-93850000I0J250000D01*
G01*
X96100000Y-92550000D01*
G75*
G02*
X96350000Y-92300000I250000J0D01*
G01*
G37*
G04 #@! TD.AperFunction*
X97900000Y-120400000D03*
X97900000Y-116900000D03*
X97900000Y-113400000D03*
G04 #@! TA.AperFunction,ComponentPad*
G36*
G01*
X96350000Y-109000000D02*
X99450000Y-109000000D01*
G75*
G02*
X99700000Y-109250000I0J-250000D01*
G01*
X99700000Y-110550000D01*
G75*
G02*
X99450000Y-110800000I-250000J0D01*
G01*
X96350000Y-110800000D01*
G75*
G02*
X96100000Y-110550000I0J250000D01*
G01*
X96100000Y-109250000D01*
G75*
G02*
X96350000Y-109000000I250000J0D01*
G01*
G37*
G04 #@! TD.AperFunction*
D17*
X116310000Y-115270000D03*
X116310000Y-117810000D03*
D18*
X134090000Y-120350000D03*
X131550000Y-120350000D03*
X129010000Y-120350000D03*
X126470000Y-120350000D03*
X123930000Y-120350000D03*
X121390000Y-120350000D03*
X118850000Y-120350000D03*
D17*
X116310000Y-120350000D03*
D18*
X116310000Y-107650000D03*
X118850000Y-107650000D03*
X121390000Y-107650000D03*
X123930000Y-107650000D03*
X126470000Y-107650000D03*
X129010000Y-107650000D03*
X131550000Y-107650000D03*
X134090000Y-107650000D03*
D17*
X116310000Y-64270000D03*
X116310000Y-66810000D03*
D18*
X134090000Y-69350000D03*
X131550000Y-69350000D03*
X129010000Y-69350000D03*
X126470000Y-69350000D03*
X123930000Y-69350000D03*
X121390000Y-69350000D03*
X118850000Y-69350000D03*
D17*
X116310000Y-69350000D03*
D18*
X116310000Y-56650000D03*
X118850000Y-56650000D03*
X121390000Y-56650000D03*
X123930000Y-56650000D03*
X126470000Y-56650000D03*
X129010000Y-56650000D03*
X131550000Y-56650000D03*
X134090000Y-56650000D03*
D17*
X116310000Y-89770000D03*
X116310000Y-92310000D03*
D18*
X134090000Y-94850000D03*
X131550000Y-94850000D03*
X129010000Y-94850000D03*
X126470000Y-94850000D03*
X123930000Y-94850000D03*
X121390000Y-94850000D03*
X118850000Y-94850000D03*
D17*
X116310000Y-94850000D03*
D18*
X116310000Y-82150000D03*
X118850000Y-82150000D03*
X121390000Y-82150000D03*
X123930000Y-82150000D03*
X126470000Y-82150000D03*
X129010000Y-82150000D03*
X131550000Y-82150000D03*
X134090000Y-82150000D03*
G04 #@! TA.AperFunction,SMDPad,CuDef*
G36*
G01*
X148943750Y-72550000D02*
X149456250Y-72550000D01*
G75*
G02*
X149675000Y-72768750I0J-218750D01*
G01*
X149675000Y-73206250D01*
G75*
G02*
X149456250Y-73425000I-218750J0D01*
G01*
X148943750Y-73425000D01*
G75*
G02*
X148725000Y-73206250I0J218750D01*
G01*
X148725000Y-72768750D01*
G75*
G02*
X148943750Y-72550000I218750J0D01*
G01*
G37*
G04 #@! TD.AperFunction*
G04 #@! TA.AperFunction,SMDPad,CuDef*
G36*
G01*
X148943750Y-70975000D02*
X149456250Y-70975000D01*
G75*
G02*
X149675000Y-71193750I0J-218750D01*
G01*
X149675000Y-71631250D01*
G75*
G02*
X149456250Y-71850000I-218750J0D01*
G01*
X148943750Y-71850000D01*
G75*
G02*
X148725000Y-71631250I0J218750D01*
G01*
X148725000Y-71193750D01*
G75*
G02*
X148943750Y-70975000I218750J0D01*
G01*
G37*
G04 #@! TD.AperFunction*
G04 #@! TA.AperFunction,SMDPad,CuDef*
G36*
G01*
X146443750Y-72550000D02*
X146956250Y-72550000D01*
G75*
G02*
X147175000Y-72768750I0J-218750D01*
G01*
X147175000Y-73206250D01*
G75*
G02*
X146956250Y-73425000I-218750J0D01*
G01*
X146443750Y-73425000D01*
G75*
G02*
X146225000Y-73206250I0J218750D01*
G01*
X146225000Y-72768750D01*
G75*
G02*
X146443750Y-72550000I218750J0D01*
G01*
G37*
G04 #@! TD.AperFunction*
G04 #@! TA.AperFunction,SMDPad,CuDef*
G36*
G01*
X146443750Y-70975000D02*
X146956250Y-70975000D01*
G75*
G02*
X147175000Y-71193750I0J-218750D01*
G01*
X147175000Y-71631250D01*
G75*
G02*
X146956250Y-71850000I-218750J0D01*
G01*
X146443750Y-71850000D01*
G75*
G02*
X146225000Y-71631250I0J218750D01*
G01*
X146225000Y-71193750D01*
G75*
G02*
X146443750Y-70975000I218750J0D01*
G01*
G37*
G04 #@! TD.AperFunction*
G04 #@! TA.AperFunction,SMDPad,CuDef*
G36*
G01*
X139743750Y-60550000D02*
X140256250Y-60550000D01*
G75*
G02*
X140475000Y-60768750I0J-218750D01*
G01*
X140475000Y-61206250D01*
G75*
G02*
X140256250Y-61425000I-218750J0D01*
G01*
X139743750Y-61425000D01*
G75*
G02*
X139525000Y-61206250I0J218750D01*
G01*
X139525000Y-60768750D01*
G75*
G02*
X139743750Y-60550000I218750J0D01*
G01*
G37*
G04 #@! TD.AperFunction*
G04 #@! TA.AperFunction,SMDPad,CuDef*
G36*
G01*
X139743750Y-58975000D02*
X140256250Y-58975000D01*
G75*
G02*
X140475000Y-59193750I0J-218750D01*
G01*
X140475000Y-59631250D01*
G75*
G02*
X140256250Y-59850000I-218750J0D01*
G01*
X139743750Y-59850000D01*
G75*
G02*
X139525000Y-59631250I0J218750D01*
G01*
X139525000Y-59193750D01*
G75*
G02*
X139743750Y-58975000I218750J0D01*
G01*
G37*
G04 #@! TD.AperFunction*
G04 #@! TA.AperFunction,SMDPad,CuDef*
G36*
G01*
X139550000Y-56043750D02*
X139550000Y-56556250D01*
G75*
G02*
X139331250Y-56775000I-218750J0D01*
G01*
X138893750Y-56775000D01*
G75*
G02*
X138675000Y-56556250I0J218750D01*
G01*
X138675000Y-56043750D01*
G75*
G02*
X138893750Y-55825000I218750J0D01*
G01*
X139331250Y-55825000D01*
G75*
G02*
X139550000Y-56043750I0J-218750D01*
G01*
G37*
G04 #@! TD.AperFunction*
G04 #@! TA.AperFunction,SMDPad,CuDef*
G36*
G01*
X141125000Y-56043750D02*
X141125000Y-56556250D01*
G75*
G02*
X140906250Y-56775000I-218750J0D01*
G01*
X140468750Y-56775000D01*
G75*
G02*
X140250000Y-56556250I0J218750D01*
G01*
X140250000Y-56043750D01*
G75*
G02*
X140468750Y-55825000I218750J0D01*
G01*
X140906250Y-55825000D01*
G75*
G02*
X141125000Y-56043750I0J-218750D01*
G01*
G37*
G04 #@! TD.AperFunction*
G04 #@! TA.AperFunction,SMDPad,CuDef*
G36*
G01*
X128550000Y-72556250D02*
X128550000Y-72043750D01*
G75*
G02*
X128768750Y-71825000I218750J0D01*
G01*
X129206250Y-71825000D01*
G75*
G02*
X129425000Y-72043750I0J-218750D01*
G01*
X129425000Y-72556250D01*
G75*
G02*
X129206250Y-72775000I-218750J0D01*
G01*
X128768750Y-72775000D01*
G75*
G02*
X128550000Y-72556250I0J218750D01*
G01*
G37*
G04 #@! TD.AperFunction*
G04 #@! TA.AperFunction,SMDPad,CuDef*
G36*
G01*
X126975000Y-72556250D02*
X126975000Y-72043750D01*
G75*
G02*
X127193750Y-71825000I218750J0D01*
G01*
X127631250Y-71825000D01*
G75*
G02*
X127850000Y-72043750I0J-218750D01*
G01*
X127850000Y-72556250D01*
G75*
G02*
X127631250Y-72775000I-218750J0D01*
G01*
X127193750Y-72775000D01*
G75*
G02*
X126975000Y-72556250I0J218750D01*
G01*
G37*
G04 #@! TD.AperFunction*
G04 #@! TA.AperFunction,SMDPad,CuDef*
G36*
G01*
X128550000Y-74856250D02*
X128550000Y-74343750D01*
G75*
G02*
X128768750Y-74125000I218750J0D01*
G01*
X129206250Y-74125000D01*
G75*
G02*
X129425000Y-74343750I0J-218750D01*
G01*
X129425000Y-74856250D01*
G75*
G02*
X129206250Y-75075000I-218750J0D01*
G01*
X128768750Y-75075000D01*
G75*
G02*
X128550000Y-74856250I0J218750D01*
G01*
G37*
G04 #@! TD.AperFunction*
G04 #@! TA.AperFunction,SMDPad,CuDef*
G36*
G01*
X126975000Y-74856250D02*
X126975000Y-74343750D01*
G75*
G02*
X127193750Y-74125000I218750J0D01*
G01*
X127631250Y-74125000D01*
G75*
G02*
X127850000Y-74343750I0J-218750D01*
G01*
X127850000Y-74856250D01*
G75*
G02*
X127631250Y-75075000I-218750J0D01*
G01*
X127193750Y-75075000D01*
G75*
G02*
X126975000Y-74856250I0J218750D01*
G01*
G37*
G04 #@! TD.AperFunction*
G04 #@! TA.AperFunction,SMDPad,CuDef*
G36*
G01*
X128550000Y-98056250D02*
X128550000Y-97543750D01*
G75*
G02*
X128768750Y-97325000I218750J0D01*
G01*
X129206250Y-97325000D01*
G75*
G02*
X129425000Y-97543750I0J-218750D01*
G01*
X129425000Y-98056250D01*
G75*
G02*
X129206250Y-98275000I-218750J0D01*
G01*
X128768750Y-98275000D01*
G75*
G02*
X128550000Y-98056250I0J218750D01*
G01*
G37*
G04 #@! TD.AperFunction*
G04 #@! TA.AperFunction,SMDPad,CuDef*
G36*
G01*
X126975000Y-98056250D02*
X126975000Y-97543750D01*
G75*
G02*
X127193750Y-97325000I218750J0D01*
G01*
X127631250Y-97325000D01*
G75*
G02*
X127850000Y-97543750I0J-218750D01*
G01*
X127850000Y-98056250D01*
G75*
G02*
X127631250Y-98275000I-218750J0D01*
G01*
X127193750Y-98275000D01*
G75*
G02*
X126975000Y-98056250I0J218750D01*
G01*
G37*
G04 #@! TD.AperFunction*
G04 #@! TA.AperFunction,SMDPad,CuDef*
G36*
G01*
X128550000Y-100356250D02*
X128550000Y-99843750D01*
G75*
G02*
X128768750Y-99625000I218750J0D01*
G01*
X129206250Y-99625000D01*
G75*
G02*
X129425000Y-99843750I0J-218750D01*
G01*
X129425000Y-100356250D01*
G75*
G02*
X129206250Y-100575000I-218750J0D01*
G01*
X128768750Y-100575000D01*
G75*
G02*
X128550000Y-100356250I0J218750D01*
G01*
G37*
G04 #@! TD.AperFunction*
G04 #@! TA.AperFunction,SMDPad,CuDef*
G36*
G01*
X126975000Y-100356250D02*
X126975000Y-99843750D01*
G75*
G02*
X127193750Y-99625000I218750J0D01*
G01*
X127631250Y-99625000D01*
G75*
G02*
X127850000Y-99843750I0J-218750D01*
G01*
X127850000Y-100356250D01*
G75*
G02*
X127631250Y-100575000I-218750J0D01*
G01*
X127193750Y-100575000D01*
G75*
G02*
X126975000Y-100356250I0J218750D01*
G01*
G37*
G04 #@! TD.AperFunction*
G04 #@! TA.AperFunction,SMDPad,CuDef*
G36*
G01*
X128562500Y-125856250D02*
X128562500Y-125343750D01*
G75*
G02*
X128781250Y-125125000I218750J0D01*
G01*
X129218750Y-125125000D01*
G75*
G02*
X129437500Y-125343750I0J-218750D01*
G01*
X129437500Y-125856250D01*
G75*
G02*
X129218750Y-126075000I-218750J0D01*
G01*
X128781250Y-126075000D01*
G75*
G02*
X128562500Y-125856250I0J218750D01*
G01*
G37*
G04 #@! TD.AperFunction*
G04 #@! TA.AperFunction,SMDPad,CuDef*
G36*
G01*
X126987500Y-125856250D02*
X126987500Y-125343750D01*
G75*
G02*
X127206250Y-125125000I218750J0D01*
G01*
X127643750Y-125125000D01*
G75*
G02*
X127862500Y-125343750I0J-218750D01*
G01*
X127862500Y-125856250D01*
G75*
G02*
X127643750Y-126075000I-218750J0D01*
G01*
X127206250Y-126075000D01*
G75*
G02*
X126987500Y-125856250I0J218750D01*
G01*
G37*
G04 #@! TD.AperFunction*
G04 #@! TA.AperFunction,SMDPad,CuDef*
G36*
X117050000Y-72437424D02*
G01*
X117049999Y-72950000D01*
X115550000Y-72949999D01*
X115550000Y-72431335D01*
X115544944Y-72390743D01*
X115567842Y-72249363D01*
X115629501Y-72120092D01*
X115724965Y-72013323D01*
X115846557Y-71937639D01*
X115984504Y-71899123D01*
X116056274Y-71900000D01*
X116481362Y-71900001D01*
X116484503Y-71899124D01*
X116627715Y-71900874D01*
X116764680Y-71942748D01*
X116884386Y-72021381D01*
X116977212Y-72130450D01*
X117035694Y-72261189D01*
X117055132Y-72403086D01*
X117050000Y-72437424D01*
G37*
G04 #@! TD.AperFunction*
D19*
X116300000Y-73700000D03*
G04 #@! TA.AperFunction,SMDPad,CuDef*
G36*
X117033962Y-75144735D02*
G01*
X116973887Y-75274750D01*
X116879735Y-75382677D01*
X116759076Y-75459841D01*
X116621610Y-75500039D01*
X116549999Y-75499164D01*
X116549999Y-75500000D01*
X116121744Y-75499999D01*
X116121611Y-75500038D01*
X116118419Y-75499999D01*
X116050000Y-75499999D01*
X116050000Y-75499163D01*
X115966193Y-75498139D01*
X115829750Y-75454595D01*
X115711013Y-75374506D01*
X115619527Y-75264310D01*
X115562646Y-75132867D01*
X115544944Y-74990743D01*
X115550000Y-74959526D01*
X115550001Y-74450000D01*
X117050000Y-74450001D01*
X117050000Y-74965623D01*
X117055132Y-75003086D01*
X117033962Y-75144735D01*
G37*
G04 #@! TD.AperFunction*
G04 #@! TA.AperFunction,SMDPad,CuDef*
G36*
X120850000Y-72437424D02*
G01*
X120849999Y-72950000D01*
X119350000Y-72949999D01*
X119350000Y-72431335D01*
X119344944Y-72390743D01*
X119367842Y-72249363D01*
X119429501Y-72120092D01*
X119524965Y-72013323D01*
X119646557Y-71937639D01*
X119784504Y-71899123D01*
X119856274Y-71900000D01*
X120281362Y-71900001D01*
X120284503Y-71899124D01*
X120427715Y-71900874D01*
X120564680Y-71942748D01*
X120684386Y-72021381D01*
X120777212Y-72130450D01*
X120835694Y-72261189D01*
X120855132Y-72403086D01*
X120850000Y-72437424D01*
G37*
G04 #@! TD.AperFunction*
X120100000Y-73700000D03*
G04 #@! TA.AperFunction,SMDPad,CuDef*
G36*
X120833962Y-75144735D02*
G01*
X120773887Y-75274750D01*
X120679735Y-75382677D01*
X120559076Y-75459841D01*
X120421610Y-75500039D01*
X120349999Y-75499164D01*
X120349999Y-75500000D01*
X119921744Y-75499999D01*
X119921611Y-75500038D01*
X119918419Y-75499999D01*
X119850000Y-75499999D01*
X119850000Y-75499163D01*
X119766193Y-75498139D01*
X119629750Y-75454595D01*
X119511013Y-75374506D01*
X119419527Y-75264310D01*
X119362646Y-75132867D01*
X119344944Y-74990743D01*
X119350000Y-74959526D01*
X119350001Y-74450000D01*
X120850000Y-74450001D01*
X120850000Y-74965623D01*
X120855132Y-75003086D01*
X120833962Y-75144735D01*
G37*
G04 #@! TD.AperFunction*
G04 #@! TA.AperFunction,SMDPad,CuDef*
G36*
X124650000Y-72437424D02*
G01*
X124649999Y-72950000D01*
X123150000Y-72949999D01*
X123150000Y-72431335D01*
X123144944Y-72390743D01*
X123167842Y-72249363D01*
X123229501Y-72120092D01*
X123324965Y-72013323D01*
X123446557Y-71937639D01*
X123584504Y-71899123D01*
X123656274Y-71900000D01*
X124081362Y-71900001D01*
X124084503Y-71899124D01*
X124227715Y-71900874D01*
X124364680Y-71942748D01*
X124484386Y-72021381D01*
X124577212Y-72130450D01*
X124635694Y-72261189D01*
X124655132Y-72403086D01*
X124650000Y-72437424D01*
G37*
G04 #@! TD.AperFunction*
X123900000Y-73700000D03*
G04 #@! TA.AperFunction,SMDPad,CuDef*
G36*
X124633962Y-75144735D02*
G01*
X124573887Y-75274750D01*
X124479735Y-75382677D01*
X124359076Y-75459841D01*
X124221610Y-75500039D01*
X124149999Y-75499164D01*
X124149999Y-75500000D01*
X123721744Y-75499999D01*
X123721611Y-75500038D01*
X123718419Y-75499999D01*
X123650000Y-75499999D01*
X123650000Y-75499163D01*
X123566193Y-75498139D01*
X123429750Y-75454595D01*
X123311013Y-75374506D01*
X123219527Y-75264310D01*
X123162646Y-75132867D01*
X123144944Y-74990743D01*
X123150000Y-74959526D01*
X123150001Y-74450000D01*
X124650000Y-74450001D01*
X124650000Y-74965623D01*
X124655132Y-75003086D01*
X124633962Y-75144735D01*
G37*
G04 #@! TD.AperFunction*
G04 #@! TA.AperFunction,SMDPad,CuDef*
G36*
X117050000Y-97937424D02*
G01*
X117049999Y-98450000D01*
X115550000Y-98449999D01*
X115550000Y-97931335D01*
X115544944Y-97890743D01*
X115567842Y-97749363D01*
X115629501Y-97620092D01*
X115724965Y-97513323D01*
X115846557Y-97437639D01*
X115984504Y-97399123D01*
X116056274Y-97400000D01*
X116481362Y-97400001D01*
X116484503Y-97399124D01*
X116627715Y-97400874D01*
X116764680Y-97442748D01*
X116884386Y-97521381D01*
X116977212Y-97630450D01*
X117035694Y-97761189D01*
X117055132Y-97903086D01*
X117050000Y-97937424D01*
G37*
G04 #@! TD.AperFunction*
X116300000Y-99200000D03*
G04 #@! TA.AperFunction,SMDPad,CuDef*
G36*
X117033962Y-100644735D02*
G01*
X116973887Y-100774750D01*
X116879735Y-100882677D01*
X116759076Y-100959841D01*
X116621610Y-101000039D01*
X116549999Y-100999164D01*
X116549999Y-101000000D01*
X116121744Y-100999999D01*
X116121611Y-101000038D01*
X116118419Y-100999999D01*
X116050000Y-100999999D01*
X116050000Y-100999163D01*
X115966193Y-100998139D01*
X115829750Y-100954595D01*
X115711013Y-100874506D01*
X115619527Y-100764310D01*
X115562646Y-100632867D01*
X115544944Y-100490743D01*
X115550000Y-100459526D01*
X115550001Y-99950000D01*
X117050000Y-99950001D01*
X117050000Y-100465623D01*
X117055132Y-100503086D01*
X117033962Y-100644735D01*
G37*
G04 #@! TD.AperFunction*
G04 #@! TA.AperFunction,SMDPad,CuDef*
G36*
X120950000Y-97937424D02*
G01*
X120949999Y-98450000D01*
X119450000Y-98449999D01*
X119450000Y-97931335D01*
X119444944Y-97890743D01*
X119467842Y-97749363D01*
X119529501Y-97620092D01*
X119624965Y-97513323D01*
X119746557Y-97437639D01*
X119884504Y-97399123D01*
X119956274Y-97400000D01*
X120381362Y-97400001D01*
X120384503Y-97399124D01*
X120527715Y-97400874D01*
X120664680Y-97442748D01*
X120784386Y-97521381D01*
X120877212Y-97630450D01*
X120935694Y-97761189D01*
X120955132Y-97903086D01*
X120950000Y-97937424D01*
G37*
G04 #@! TD.AperFunction*
X120200000Y-99200000D03*
G04 #@! TA.AperFunction,SMDPad,CuDef*
G36*
X120933962Y-100644735D02*
G01*
X120873887Y-100774750D01*
X120779735Y-100882677D01*
X120659076Y-100959841D01*
X120521610Y-101000039D01*
X120449999Y-100999164D01*
X120449999Y-101000000D01*
X120021744Y-100999999D01*
X120021611Y-101000038D01*
X120018419Y-100999999D01*
X119950000Y-100999999D01*
X119950000Y-100999163D01*
X119866193Y-100998139D01*
X119729750Y-100954595D01*
X119611013Y-100874506D01*
X119519527Y-100764310D01*
X119462646Y-100632867D01*
X119444944Y-100490743D01*
X119450000Y-100459526D01*
X119450001Y-99950000D01*
X120950000Y-99950001D01*
X120950000Y-100465623D01*
X120955132Y-100503086D01*
X120933962Y-100644735D01*
G37*
G04 #@! TD.AperFunction*
G04 #@! TA.AperFunction,SMDPad,CuDef*
G36*
X124650000Y-97937424D02*
G01*
X124649999Y-98450000D01*
X123150000Y-98449999D01*
X123150000Y-97931335D01*
X123144944Y-97890743D01*
X123167842Y-97749363D01*
X123229501Y-97620092D01*
X123324965Y-97513323D01*
X123446557Y-97437639D01*
X123584504Y-97399123D01*
X123656274Y-97400000D01*
X124081362Y-97400001D01*
X124084503Y-97399124D01*
X124227715Y-97400874D01*
X124364680Y-97442748D01*
X124484386Y-97521381D01*
X124577212Y-97630450D01*
X124635694Y-97761189D01*
X124655132Y-97903086D01*
X124650000Y-97937424D01*
G37*
G04 #@! TD.AperFunction*
X123900000Y-99200000D03*
G04 #@! TA.AperFunction,SMDPad,CuDef*
G36*
X124633962Y-100644735D02*
G01*
X124573887Y-100774750D01*
X124479735Y-100882677D01*
X124359076Y-100959841D01*
X124221610Y-101000039D01*
X124149999Y-100999164D01*
X124149999Y-101000000D01*
X123721744Y-100999999D01*
X123721611Y-101000038D01*
X123718419Y-100999999D01*
X123650000Y-100999999D01*
X123650000Y-100999163D01*
X123566193Y-100998139D01*
X123429750Y-100954595D01*
X123311013Y-100874506D01*
X123219527Y-100764310D01*
X123162646Y-100632867D01*
X123144944Y-100490743D01*
X123150000Y-100459526D01*
X123150001Y-99950000D01*
X124650000Y-99950001D01*
X124650000Y-100465623D01*
X124655132Y-100503086D01*
X124633962Y-100644735D01*
G37*
G04 #@! TD.AperFunction*
G04 #@! TA.AperFunction,SMDPad,CuDef*
G36*
X116950000Y-123437424D02*
G01*
X116949999Y-123950000D01*
X115450000Y-123949999D01*
X115450000Y-123431335D01*
X115444944Y-123390743D01*
X115467842Y-123249363D01*
X115529501Y-123120092D01*
X115624965Y-123013323D01*
X115746557Y-122937639D01*
X115884504Y-122899123D01*
X115956274Y-122900000D01*
X116381362Y-122900001D01*
X116384503Y-122899124D01*
X116527715Y-122900874D01*
X116664680Y-122942748D01*
X116784386Y-123021381D01*
X116877212Y-123130450D01*
X116935694Y-123261189D01*
X116955132Y-123403086D01*
X116950000Y-123437424D01*
G37*
G04 #@! TD.AperFunction*
X116200000Y-124700000D03*
G04 #@! TA.AperFunction,SMDPad,CuDef*
G36*
X116933962Y-126144735D02*
G01*
X116873887Y-126274750D01*
X116779735Y-126382677D01*
X116659076Y-126459841D01*
X116521610Y-126500039D01*
X116449999Y-126499164D01*
X116449999Y-126500000D01*
X116021744Y-126499999D01*
X116021611Y-126500038D01*
X116018419Y-126499999D01*
X115950000Y-126499999D01*
X115950000Y-126499163D01*
X115866193Y-126498139D01*
X115729750Y-126454595D01*
X115611013Y-126374506D01*
X115519527Y-126264310D01*
X115462646Y-126132867D01*
X115444944Y-125990743D01*
X115450000Y-125959526D01*
X115450001Y-125450000D01*
X116950000Y-125450001D01*
X116950000Y-125965623D01*
X116955132Y-126003086D01*
X116933962Y-126144735D01*
G37*
G04 #@! TD.AperFunction*
G04 #@! TA.AperFunction,SMDPad,CuDef*
G36*
X120950000Y-123437424D02*
G01*
X120949999Y-123950000D01*
X119450000Y-123949999D01*
X119450000Y-123431335D01*
X119444944Y-123390743D01*
X119467842Y-123249363D01*
X119529501Y-123120092D01*
X119624965Y-123013323D01*
X119746557Y-122937639D01*
X119884504Y-122899123D01*
X119956274Y-122900000D01*
X120381362Y-122900001D01*
X120384503Y-122899124D01*
X120527715Y-122900874D01*
X120664680Y-122942748D01*
X120784386Y-123021381D01*
X120877212Y-123130450D01*
X120935694Y-123261189D01*
X120955132Y-123403086D01*
X120950000Y-123437424D01*
G37*
G04 #@! TD.AperFunction*
X120200000Y-124700000D03*
G04 #@! TA.AperFunction,SMDPad,CuDef*
G36*
X120933962Y-126144735D02*
G01*
X120873887Y-126274750D01*
X120779735Y-126382677D01*
X120659076Y-126459841D01*
X120521610Y-126500039D01*
X120449999Y-126499164D01*
X120449999Y-126500000D01*
X120021744Y-126499999D01*
X120021611Y-126500038D01*
X120018419Y-126499999D01*
X119950000Y-126499999D01*
X119950000Y-126499163D01*
X119866193Y-126498139D01*
X119729750Y-126454595D01*
X119611013Y-126374506D01*
X119519527Y-126264310D01*
X119462646Y-126132867D01*
X119444944Y-125990743D01*
X119450000Y-125959526D01*
X119450001Y-125450000D01*
X120950000Y-125450001D01*
X120950000Y-125965623D01*
X120955132Y-126003086D01*
X120933962Y-126144735D01*
G37*
G04 #@! TD.AperFunction*
G04 #@! TA.AperFunction,SMDPad,CuDef*
G36*
X124700000Y-123437424D02*
G01*
X124699999Y-123950000D01*
X123200000Y-123949999D01*
X123200000Y-123431335D01*
X123194944Y-123390743D01*
X123217842Y-123249363D01*
X123279501Y-123120092D01*
X123374965Y-123013323D01*
X123496557Y-122937639D01*
X123634504Y-122899123D01*
X123706274Y-122900000D01*
X124131362Y-122900001D01*
X124134503Y-122899124D01*
X124277715Y-122900874D01*
X124414680Y-122942748D01*
X124534386Y-123021381D01*
X124627212Y-123130450D01*
X124685694Y-123261189D01*
X124705132Y-123403086D01*
X124700000Y-123437424D01*
G37*
G04 #@! TD.AperFunction*
X123950000Y-124700000D03*
G04 #@! TA.AperFunction,SMDPad,CuDef*
G36*
X124683962Y-126144735D02*
G01*
X124623887Y-126274750D01*
X124529735Y-126382677D01*
X124409076Y-126459841D01*
X124271610Y-126500039D01*
X124199999Y-126499164D01*
X124199999Y-126500000D01*
X123771744Y-126499999D01*
X123771611Y-126500038D01*
X123768419Y-126499999D01*
X123700000Y-126499999D01*
X123700000Y-126499163D01*
X123616193Y-126498139D01*
X123479750Y-126454595D01*
X123361013Y-126374506D01*
X123269527Y-126264310D01*
X123212646Y-126132867D01*
X123194944Y-125990743D01*
X123200000Y-125959526D01*
X123200001Y-125450000D01*
X124700000Y-125450001D01*
X124700000Y-125965623D01*
X124705132Y-126003086D01*
X124683962Y-126144735D01*
G37*
G04 #@! TD.AperFunction*
D20*
X151950000Y-79095000D03*
X151950000Y-102205000D03*
D21*
X138950000Y-84300000D03*
X138950000Y-86840000D03*
X138950000Y-89380000D03*
X138950000Y-91920000D03*
X138950000Y-94460000D03*
X138950000Y-97000000D03*
G04 #@! TA.AperFunction,SMDPad,CuDef*
G36*
G01*
X111350000Y-108843750D02*
X111350000Y-109356250D01*
G75*
G02*
X111131250Y-109575000I-218750J0D01*
G01*
X110693750Y-109575000D01*
G75*
G02*
X110475000Y-109356250I0J218750D01*
G01*
X110475000Y-108843750D01*
G75*
G02*
X110693750Y-108625000I218750J0D01*
G01*
X111131250Y-108625000D01*
G75*
G02*
X111350000Y-108843750I0J-218750D01*
G01*
G37*
G04 #@! TD.AperFunction*
G04 #@! TA.AperFunction,SMDPad,CuDef*
G36*
G01*
X112925000Y-108843750D02*
X112925000Y-109356250D01*
G75*
G02*
X112706250Y-109575000I-218750J0D01*
G01*
X112268750Y-109575000D01*
G75*
G02*
X112050000Y-109356250I0J218750D01*
G01*
X112050000Y-108843750D01*
G75*
G02*
X112268750Y-108625000I218750J0D01*
G01*
X112706250Y-108625000D01*
G75*
G02*
X112925000Y-108843750I0J-218750D01*
G01*
G37*
G04 #@! TD.AperFunction*
G04 #@! TA.AperFunction,SMDPad,CuDef*
G36*
G01*
X138456250Y-54225000D02*
X137943750Y-54225000D01*
G75*
G02*
X137725000Y-54006250I0J218750D01*
G01*
X137725000Y-53568750D01*
G75*
G02*
X137943750Y-53350000I218750J0D01*
G01*
X138456250Y-53350000D01*
G75*
G02*
X138675000Y-53568750I0J-218750D01*
G01*
X138675000Y-54006250D01*
G75*
G02*
X138456250Y-54225000I-218750J0D01*
G01*
G37*
G04 #@! TD.AperFunction*
G04 #@! TA.AperFunction,SMDPad,CuDef*
G36*
G01*
X138456250Y-52650000D02*
X137943750Y-52650000D01*
G75*
G02*
X137725000Y-52431250I0J218750D01*
G01*
X137725000Y-51993750D01*
G75*
G02*
X137943750Y-51775000I218750J0D01*
G01*
X138456250Y-51775000D01*
G75*
G02*
X138675000Y-51993750I0J-218750D01*
G01*
X138675000Y-52431250D01*
G75*
G02*
X138456250Y-52650000I-218750J0D01*
G01*
G37*
G04 #@! TD.AperFunction*
G04 #@! TA.AperFunction,SMDPad,CuDef*
G36*
G01*
X107325000Y-61375000D02*
X107325000Y-63425000D01*
G75*
G02*
X107075000Y-63675000I-250000J0D01*
G01*
X105500000Y-63675000D01*
G75*
G02*
X105250000Y-63425000I0J250000D01*
G01*
X105250000Y-61375000D01*
G75*
G02*
X105500000Y-61125000I250000J0D01*
G01*
X107075000Y-61125000D01*
G75*
G02*
X107325000Y-61375000I0J-250000D01*
G01*
G37*
G04 #@! TD.AperFunction*
G04 #@! TA.AperFunction,SMDPad,CuDef*
G36*
G01*
X113550000Y-61375000D02*
X113550000Y-63425000D01*
G75*
G02*
X113300000Y-63675000I-250000J0D01*
G01*
X111725000Y-63675000D01*
G75*
G02*
X111475000Y-63425000I0J250000D01*
G01*
X111475000Y-61375000D01*
G75*
G02*
X111725000Y-61125000I250000J0D01*
G01*
X113300000Y-61125000D01*
G75*
G02*
X113550000Y-61375000I0J-250000D01*
G01*
G37*
G04 #@! TD.AperFunction*
G04 #@! TA.AperFunction,SMDPad,CuDef*
G36*
G01*
X107325000Y-67375000D02*
X107325000Y-69425000D01*
G75*
G02*
X107075000Y-69675000I-250000J0D01*
G01*
X105500000Y-69675000D01*
G75*
G02*
X105250000Y-69425000I0J250000D01*
G01*
X105250000Y-67375000D01*
G75*
G02*
X105500000Y-67125000I250000J0D01*
G01*
X107075000Y-67125000D01*
G75*
G02*
X107325000Y-67375000I0J-250000D01*
G01*
G37*
G04 #@! TD.AperFunction*
G04 #@! TA.AperFunction,SMDPad,CuDef*
G36*
G01*
X113550000Y-67375000D02*
X113550000Y-69425000D01*
G75*
G02*
X113300000Y-69675000I-250000J0D01*
G01*
X111725000Y-69675000D01*
G75*
G02*
X111475000Y-69425000I0J250000D01*
G01*
X111475000Y-67375000D01*
G75*
G02*
X111725000Y-67125000I250000J0D01*
G01*
X113300000Y-67125000D01*
G75*
G02*
X113550000Y-67375000I0J-250000D01*
G01*
G37*
G04 #@! TD.AperFunction*
G04 #@! TA.AperFunction,SMDPad,CuDef*
G36*
G01*
X137256250Y-60450000D02*
X136743750Y-60450000D01*
G75*
G02*
X136525000Y-60231250I0J218750D01*
G01*
X136525000Y-59793750D01*
G75*
G02*
X136743750Y-59575000I218750J0D01*
G01*
X137256250Y-59575000D01*
G75*
G02*
X137475000Y-59793750I0J-218750D01*
G01*
X137475000Y-60231250D01*
G75*
G02*
X137256250Y-60450000I-218750J0D01*
G01*
G37*
G04 #@! TD.AperFunction*
G04 #@! TA.AperFunction,SMDPad,CuDef*
G36*
G01*
X137256250Y-62025000D02*
X136743750Y-62025000D01*
G75*
G02*
X136525000Y-61806250I0J218750D01*
G01*
X136525000Y-61368750D01*
G75*
G02*
X136743750Y-61150000I218750J0D01*
G01*
X137256250Y-61150000D01*
G75*
G02*
X137475000Y-61368750I0J-218750D01*
G01*
X137475000Y-61806250D01*
G75*
G02*
X137256250Y-62025000I-218750J0D01*
G01*
G37*
G04 #@! TD.AperFunction*
G04 #@! TA.AperFunction,SMDPad,CuDef*
G36*
G01*
X111350000Y-57843750D02*
X111350000Y-58356250D01*
G75*
G02*
X111131250Y-58575000I-218750J0D01*
G01*
X110693750Y-58575000D01*
G75*
G02*
X110475000Y-58356250I0J218750D01*
G01*
X110475000Y-57843750D01*
G75*
G02*
X110693750Y-57625000I218750J0D01*
G01*
X111131250Y-57625000D01*
G75*
G02*
X111350000Y-57843750I0J-218750D01*
G01*
G37*
G04 #@! TD.AperFunction*
G04 #@! TA.AperFunction,SMDPad,CuDef*
G36*
G01*
X112925000Y-57843750D02*
X112925000Y-58356250D01*
G75*
G02*
X112706250Y-58575000I-218750J0D01*
G01*
X112268750Y-58575000D01*
G75*
G02*
X112050000Y-58356250I0J218750D01*
G01*
X112050000Y-57843750D01*
G75*
G02*
X112268750Y-57625000I218750J0D01*
G01*
X112706250Y-57625000D01*
G75*
G02*
X112925000Y-57843750I0J-218750D01*
G01*
G37*
G04 #@! TD.AperFunction*
G04 #@! TA.AperFunction,SMDPad,CuDef*
G36*
G01*
X136556250Y-88250000D02*
X136043750Y-88250000D01*
G75*
G02*
X135825000Y-88031250I0J218750D01*
G01*
X135825000Y-87593750D01*
G75*
G02*
X136043750Y-87375000I218750J0D01*
G01*
X136556250Y-87375000D01*
G75*
G02*
X136775000Y-87593750I0J-218750D01*
G01*
X136775000Y-88031250D01*
G75*
G02*
X136556250Y-88250000I-218750J0D01*
G01*
G37*
G04 #@! TD.AperFunction*
G04 #@! TA.AperFunction,SMDPad,CuDef*
G36*
G01*
X136556250Y-89825000D02*
X136043750Y-89825000D01*
G75*
G02*
X135825000Y-89606250I0J218750D01*
G01*
X135825000Y-89168750D01*
G75*
G02*
X136043750Y-88950000I218750J0D01*
G01*
X136556250Y-88950000D01*
G75*
G02*
X136775000Y-89168750I0J-218750D01*
G01*
X136775000Y-89606250D01*
G75*
G02*
X136556250Y-89825000I-218750J0D01*
G01*
G37*
G04 #@! TD.AperFunction*
G04 #@! TA.AperFunction,SMDPad,CuDef*
G36*
G01*
X107325000Y-92875000D02*
X107325000Y-94925000D01*
G75*
G02*
X107075000Y-95175000I-250000J0D01*
G01*
X105500000Y-95175000D01*
G75*
G02*
X105250000Y-94925000I0J250000D01*
G01*
X105250000Y-92875000D01*
G75*
G02*
X105500000Y-92625000I250000J0D01*
G01*
X107075000Y-92625000D01*
G75*
G02*
X107325000Y-92875000I0J-250000D01*
G01*
G37*
G04 #@! TD.AperFunction*
G04 #@! TA.AperFunction,SMDPad,CuDef*
G36*
G01*
X113550000Y-92875000D02*
X113550000Y-94925000D01*
G75*
G02*
X113300000Y-95175000I-250000J0D01*
G01*
X111725000Y-95175000D01*
G75*
G02*
X111475000Y-94925000I0J250000D01*
G01*
X111475000Y-92875000D01*
G75*
G02*
X111725000Y-92625000I250000J0D01*
G01*
X113300000Y-92625000D01*
G75*
G02*
X113550000Y-92875000I0J-250000D01*
G01*
G37*
G04 #@! TD.AperFunction*
G04 #@! TA.AperFunction,SMDPad,CuDef*
G36*
G01*
X107325000Y-86875000D02*
X107325000Y-88925000D01*
G75*
G02*
X107075000Y-89175000I-250000J0D01*
G01*
X105500000Y-89175000D01*
G75*
G02*
X105250000Y-88925000I0J250000D01*
G01*
X105250000Y-86875000D01*
G75*
G02*
X105500000Y-86625000I250000J0D01*
G01*
X107075000Y-86625000D01*
G75*
G02*
X107325000Y-86875000I0J-250000D01*
G01*
G37*
G04 #@! TD.AperFunction*
G04 #@! TA.AperFunction,SMDPad,CuDef*
G36*
G01*
X113550000Y-86875000D02*
X113550000Y-88925000D01*
G75*
G02*
X113300000Y-89175000I-250000J0D01*
G01*
X111725000Y-89175000D01*
G75*
G02*
X111475000Y-88925000I0J250000D01*
G01*
X111475000Y-86875000D01*
G75*
G02*
X111725000Y-86625000I250000J0D01*
G01*
X113300000Y-86625000D01*
G75*
G02*
X113550000Y-86875000I0J-250000D01*
G01*
G37*
G04 #@! TD.AperFunction*
G04 #@! TA.AperFunction,SMDPad,CuDef*
G36*
G01*
X134250000Y-79356250D02*
X134250000Y-78843750D01*
G75*
G02*
X134468750Y-78625000I218750J0D01*
G01*
X134906250Y-78625000D01*
G75*
G02*
X135125000Y-78843750I0J-218750D01*
G01*
X135125000Y-79356250D01*
G75*
G02*
X134906250Y-79575000I-218750J0D01*
G01*
X134468750Y-79575000D01*
G75*
G02*
X134250000Y-79356250I0J218750D01*
G01*
G37*
G04 #@! TD.AperFunction*
G04 #@! TA.AperFunction,SMDPad,CuDef*
G36*
G01*
X132675000Y-79356250D02*
X132675000Y-78843750D01*
G75*
G02*
X132893750Y-78625000I218750J0D01*
G01*
X133331250Y-78625000D01*
G75*
G02*
X133550000Y-78843750I0J-218750D01*
G01*
X133550000Y-79356250D01*
G75*
G02*
X133331250Y-79575000I-218750J0D01*
G01*
X132893750Y-79575000D01*
G75*
G02*
X132675000Y-79356250I0J218750D01*
G01*
G37*
G04 #@! TD.AperFunction*
G04 #@! TA.AperFunction,SMDPad,CuDef*
G36*
G01*
X111350000Y-83343750D02*
X111350000Y-83856250D01*
G75*
G02*
X111131250Y-84075000I-218750J0D01*
G01*
X110693750Y-84075000D01*
G75*
G02*
X110475000Y-83856250I0J218750D01*
G01*
X110475000Y-83343750D01*
G75*
G02*
X110693750Y-83125000I218750J0D01*
G01*
X111131250Y-83125000D01*
G75*
G02*
X111350000Y-83343750I0J-218750D01*
G01*
G37*
G04 #@! TD.AperFunction*
G04 #@! TA.AperFunction,SMDPad,CuDef*
G36*
G01*
X112925000Y-83343750D02*
X112925000Y-83856250D01*
G75*
G02*
X112706250Y-84075000I-218750J0D01*
G01*
X112268750Y-84075000D01*
G75*
G02*
X112050000Y-83856250I0J218750D01*
G01*
X112050000Y-83343750D01*
G75*
G02*
X112268750Y-83125000I218750J0D01*
G01*
X112706250Y-83125000D01*
G75*
G02*
X112925000Y-83343750I0J-218750D01*
G01*
G37*
G04 #@! TD.AperFunction*
G04 #@! TA.AperFunction,SMDPad,CuDef*
G36*
G01*
X107325000Y-118275000D02*
X107325000Y-120325000D01*
G75*
G02*
X107075000Y-120575000I-250000J0D01*
G01*
X105500000Y-120575000D01*
G75*
G02*
X105250000Y-120325000I0J250000D01*
G01*
X105250000Y-118275000D01*
G75*
G02*
X105500000Y-118025000I250000J0D01*
G01*
X107075000Y-118025000D01*
G75*
G02*
X107325000Y-118275000I0J-250000D01*
G01*
G37*
G04 #@! TD.AperFunction*
G04 #@! TA.AperFunction,SMDPad,CuDef*
G36*
G01*
X113550000Y-118275000D02*
X113550000Y-120325000D01*
G75*
G02*
X113300000Y-120575000I-250000J0D01*
G01*
X111725000Y-120575000D01*
G75*
G02*
X111475000Y-120325000I0J250000D01*
G01*
X111475000Y-118275000D01*
G75*
G02*
X111725000Y-118025000I250000J0D01*
G01*
X113300000Y-118025000D01*
G75*
G02*
X113550000Y-118275000I0J-250000D01*
G01*
G37*
G04 #@! TD.AperFunction*
G04 #@! TA.AperFunction,SMDPad,CuDef*
G36*
G01*
X107325000Y-112375000D02*
X107325000Y-114425000D01*
G75*
G02*
X107075000Y-114675000I-250000J0D01*
G01*
X105500000Y-114675000D01*
G75*
G02*
X105250000Y-114425000I0J250000D01*
G01*
X105250000Y-112375000D01*
G75*
G02*
X105500000Y-112125000I250000J0D01*
G01*
X107075000Y-112125000D01*
G75*
G02*
X107325000Y-112375000I0J-250000D01*
G01*
G37*
G04 #@! TD.AperFunction*
G04 #@! TA.AperFunction,SMDPad,CuDef*
G36*
G01*
X113550000Y-112375000D02*
X113550000Y-114425000D01*
G75*
G02*
X113300000Y-114675000I-250000J0D01*
G01*
X111725000Y-114675000D01*
G75*
G02*
X111475000Y-114425000I0J250000D01*
G01*
X111475000Y-112375000D01*
G75*
G02*
X111725000Y-112125000I250000J0D01*
G01*
X113300000Y-112125000D01*
G75*
G02*
X113550000Y-112375000I0J-250000D01*
G01*
G37*
G04 #@! TD.AperFunction*
G04 #@! TA.AperFunction,SMDPad,CuDef*
G36*
G01*
X134350000Y-104856250D02*
X134350000Y-104343750D01*
G75*
G02*
X134568750Y-104125000I218750J0D01*
G01*
X135006250Y-104125000D01*
G75*
G02*
X135225000Y-104343750I0J-218750D01*
G01*
X135225000Y-104856250D01*
G75*
G02*
X135006250Y-105075000I-218750J0D01*
G01*
X134568750Y-105075000D01*
G75*
G02*
X134350000Y-104856250I0J218750D01*
G01*
G37*
G04 #@! TD.AperFunction*
G04 #@! TA.AperFunction,SMDPad,CuDef*
G36*
G01*
X132775000Y-104856250D02*
X132775000Y-104343750D01*
G75*
G02*
X132993750Y-104125000I218750J0D01*
G01*
X133431250Y-104125000D01*
G75*
G02*
X133650000Y-104343750I0J-218750D01*
G01*
X133650000Y-104856250D01*
G75*
G02*
X133431250Y-105075000I-218750J0D01*
G01*
X132993750Y-105075000D01*
G75*
G02*
X132775000Y-104856250I0J218750D01*
G01*
G37*
G04 #@! TD.AperFunction*
D22*
X129500000Y-78000000D03*
X126960000Y-78000000D03*
X124420000Y-78000000D03*
X121880000Y-78000000D03*
X119340000Y-78000000D03*
D23*
X116800000Y-78000000D03*
D22*
X129500000Y-103500000D03*
X126960000Y-103500000D03*
X124420000Y-103500000D03*
X121880000Y-103500000D03*
X119340000Y-103500000D03*
D23*
X116800000Y-103500000D03*
G04 #@! TA.AperFunction,SMDPad,CuDef*
G36*
G01*
X128562500Y-123356250D02*
X128562500Y-122843750D01*
G75*
G02*
X128781250Y-122625000I218750J0D01*
G01*
X129218750Y-122625000D01*
G75*
G02*
X129437500Y-122843750I0J-218750D01*
G01*
X129437500Y-123356250D01*
G75*
G02*
X129218750Y-123575000I-218750J0D01*
G01*
X128781250Y-123575000D01*
G75*
G02*
X128562500Y-123356250I0J218750D01*
G01*
G37*
G04 #@! TD.AperFunction*
G04 #@! TA.AperFunction,SMDPad,CuDef*
G36*
G01*
X126987500Y-123356250D02*
X126987500Y-122843750D01*
G75*
G02*
X127206250Y-122625000I218750J0D01*
G01*
X127643750Y-122625000D01*
G75*
G02*
X127862500Y-122843750I0J-218750D01*
G01*
X127862500Y-123356250D01*
G75*
G02*
X127643750Y-123575000I-218750J0D01*
G01*
X127206250Y-123575000D01*
G75*
G02*
X126987500Y-123356250I0J218750D01*
G01*
G37*
G04 #@! TD.AperFunction*
D22*
X129400000Y-129000000D03*
X126860000Y-129000000D03*
X124320000Y-129000000D03*
X121780000Y-129000000D03*
X119240000Y-129000000D03*
D23*
X116700000Y-129000000D03*
D20*
X109495000Y-39700000D03*
X132605000Y-39700000D03*
D21*
X114700000Y-52700000D03*
X117240000Y-52700000D03*
X119780000Y-52700000D03*
X122320000Y-52700000D03*
X124860000Y-52700000D03*
X127400000Y-52700000D03*
D24*
X139100000Y-55050000D03*
D25*
X125700000Y-126000000D03*
X121900000Y-126000000D03*
X117900000Y-126000000D03*
X125600000Y-75000000D03*
X121800000Y-75000000D03*
X118000000Y-75000000D03*
X133100000Y-77900000D03*
X134700000Y-77900000D03*
X134800000Y-103400000D03*
X133200000Y-103400000D03*
X125600000Y-100500000D03*
X121900000Y-100500000D03*
X118000000Y-100500000D03*
D26*
X104400000Y-87900000D03*
X104400000Y-93900000D03*
X104400000Y-68400000D03*
X104400000Y-62400000D03*
X104400000Y-113400000D03*
X104400000Y-119300000D03*
X110900000Y-85000000D03*
X110900000Y-59400000D03*
D25*
X130200000Y-97800000D03*
D26*
X151700000Y-123800000D03*
X153900000Y-122300000D03*
D25*
X144900000Y-100700000D03*
X136300000Y-86600000D03*
X150400000Y-73000000D03*
X145000000Y-110900000D03*
X151700000Y-108200000D03*
X144200000Y-98800000D03*
X143400000Y-96600000D03*
X149400000Y-121000000D03*
X144700000Y-115900000D03*
X144700000Y-118400000D03*
X142200000Y-99900000D03*
X145800000Y-92900000D03*
X145800000Y-65670000D03*
X147090000Y-88160000D03*
X149360000Y-123550000D03*
D26*
X136800000Y-52200000D03*
D24*
X136100000Y-59100000D03*
X141400000Y-59400000D03*
X148100000Y-57350000D03*
D26*
X147050000Y-41200000D03*
X144300000Y-48650000D03*
X140600000Y-52150000D03*
D24*
X152550000Y-58150000D03*
D27*
X143650000Y-60750000D03*
X135650000Y-64200000D03*
X138519669Y-64219669D03*
D24*
X140000000Y-62150000D03*
X143150000Y-55225000D03*
X149300000Y-52600000D03*
X144050000Y-55750000D03*
X150100000Y-51450000D03*
D26*
X109800000Y-108000000D03*
X109600000Y-110100000D03*
X110500000Y-111250000D03*
X110000000Y-113300000D03*
X110000000Y-116000000D03*
X107500000Y-85600000D03*
X107800000Y-90000000D03*
X107600000Y-96200000D03*
X107700000Y-98900000D03*
X107500000Y-64600000D03*
X107600000Y-70500000D03*
X107400000Y-74300000D03*
X107400000Y-76700000D03*
D27*
X147300000Y-58000000D03*
X146300000Y-57400000D03*
X143600000Y-51500000D03*
D25*
X132100000Y-98300000D03*
X132900000Y-123400000D03*
X130500000Y-123100000D03*
X130100000Y-72300000D03*
X132400000Y-72700000D03*
D28*
X139112500Y-56300000D02*
X139112500Y-55062500D01*
X139112500Y-55062500D02*
X139100000Y-55050000D01*
X129010000Y-123090000D02*
X129000000Y-123100000D01*
X129010000Y-120350000D02*
X129010000Y-123090000D01*
X129000000Y-126860000D02*
X126860000Y-129000000D01*
X129000000Y-125600000D02*
X129000000Y-126860000D01*
X127425000Y-125895000D02*
X124320000Y-129000000D01*
X127425000Y-125600000D02*
X127425000Y-125895000D01*
X126470000Y-122145000D02*
X127425000Y-123100000D01*
X126470000Y-120350000D02*
X126470000Y-122145000D01*
X123950000Y-126000000D02*
X125700000Y-126000000D01*
X120200000Y-126000000D02*
X121900000Y-126000000D01*
X123930000Y-123380000D02*
X123950000Y-123400000D01*
X123930000Y-120350000D02*
X123930000Y-123380000D01*
X121390000Y-122210000D02*
X120200000Y-123400000D01*
X121390000Y-120350000D02*
X121390000Y-122210000D01*
X118850000Y-120750000D02*
X116200000Y-123400000D01*
X118850000Y-120350000D02*
X118850000Y-120750000D01*
X116200000Y-126000000D02*
X117900000Y-126000000D01*
X129010000Y-72277500D02*
X128987500Y-72300000D01*
X129010000Y-69350000D02*
X129010000Y-72277500D01*
X128987500Y-75972500D02*
X126960000Y-78000000D01*
X128987500Y-74600000D02*
X128987500Y-75972500D01*
X127412500Y-75007500D02*
X124420000Y-78000000D01*
X127412500Y-74600000D02*
X127412500Y-75007500D01*
X126470000Y-71357500D02*
X127412500Y-72300000D01*
X126470000Y-69350000D02*
X126470000Y-71357500D01*
X123930000Y-72370000D02*
X123900000Y-72400000D01*
X123930000Y-69350000D02*
X123930000Y-72370000D01*
X123900000Y-75000000D02*
X125600000Y-75000000D01*
X120100000Y-75000000D02*
X121800000Y-75000000D01*
X116300000Y-75000000D02*
X118000000Y-75000000D01*
X121390000Y-71110000D02*
X120100000Y-72400000D01*
X121390000Y-69350000D02*
X121390000Y-71110000D01*
X118850000Y-69850000D02*
X118850000Y-69350000D01*
X116300000Y-72400000D02*
X118850000Y-69850000D01*
X133112500Y-77912500D02*
X133100000Y-77900000D01*
X133112500Y-79100000D02*
X133112500Y-77912500D01*
X134687500Y-77912500D02*
X134700000Y-77900000D01*
X134687500Y-79100000D02*
X134687500Y-77912500D01*
X134787500Y-103412500D02*
X134800000Y-103400000D01*
X134787500Y-104600000D02*
X134787500Y-103412500D01*
X133212500Y-104600000D02*
X133212500Y-103412500D01*
X133212500Y-103412500D02*
X133200000Y-103400000D01*
X129010000Y-97777500D02*
X128987500Y-97800000D01*
X129010000Y-94850000D02*
X129010000Y-97777500D01*
X128987500Y-101472500D02*
X126960000Y-103500000D01*
X128987500Y-100100000D02*
X128987500Y-101472500D01*
X127412500Y-100507500D02*
X124420000Y-103500000D01*
X127412500Y-100100000D02*
X127412500Y-100507500D01*
X126470000Y-96857500D02*
X127412500Y-97800000D01*
X126470000Y-94850000D02*
X126470000Y-96857500D01*
X123930000Y-97870000D02*
X123900000Y-97900000D01*
X123930000Y-94850000D02*
X123930000Y-97870000D01*
X121390000Y-96710000D02*
X120200000Y-97900000D01*
X121390000Y-94850000D02*
X121390000Y-96710000D01*
X118850000Y-95350000D02*
X118850000Y-94850000D01*
X116300000Y-97900000D02*
X118850000Y-95350000D01*
X123900000Y-100500000D02*
X125600000Y-100500000D01*
X120200000Y-100500000D02*
X121900000Y-100500000D01*
X116300000Y-100500000D02*
X118000000Y-100500000D01*
D29*
X107000000Y-57800000D02*
X108150000Y-56650000D01*
X112487500Y-57087500D02*
X112050000Y-56650000D01*
X112487500Y-58100000D02*
X112487500Y-57087500D01*
X108150000Y-56650000D02*
X112050000Y-56650000D01*
X112050000Y-56650000D02*
X116310000Y-56650000D01*
X112487500Y-62375000D02*
X112512500Y-62400000D01*
X112487500Y-58100000D02*
X112487500Y-62375000D01*
X112512500Y-62400000D02*
X112512500Y-68400000D01*
X109100000Y-105300000D02*
X111450000Y-107650000D01*
X107000000Y-57800000D02*
X108800000Y-59600000D01*
X108800000Y-59600000D02*
X109100000Y-59900000D01*
X112487500Y-107887500D02*
X112250000Y-107650000D01*
X112487500Y-109100000D02*
X112487500Y-107887500D01*
X111450000Y-107650000D02*
X112250000Y-107650000D01*
X112250000Y-107650000D02*
X116310000Y-107650000D01*
X112512500Y-109125000D02*
X112487500Y-109100000D01*
X112512500Y-113400000D02*
X112512500Y-109125000D01*
X112512500Y-113400000D02*
X112512500Y-119300000D01*
X110250000Y-82150000D02*
X109100000Y-81000000D01*
X109100000Y-59900000D02*
X109100000Y-81000000D01*
X109100000Y-81000000D02*
X109100000Y-105300000D01*
X112487500Y-83600000D02*
X112487500Y-82787500D01*
X112487500Y-82787500D02*
X111850000Y-82150000D01*
X116310000Y-82150000D02*
X111850000Y-82150000D01*
X111850000Y-82150000D02*
X110250000Y-82150000D01*
X112512500Y-83625000D02*
X112487500Y-83600000D01*
X112512500Y-87900000D02*
X112512500Y-83625000D01*
X112512500Y-87900000D02*
X112512500Y-93900000D01*
X106287500Y-87900000D02*
X104400000Y-87900000D01*
X106287500Y-93900000D02*
X104400000Y-93900000D01*
X106287500Y-68400000D02*
X104400000Y-68400000D01*
X106287500Y-62400000D02*
X104400000Y-62400000D01*
X106287500Y-113400000D02*
X104400000Y-113400000D01*
X106287500Y-119300000D02*
X104400000Y-119300000D01*
X110912500Y-84987500D02*
X110900000Y-85000000D01*
X110912500Y-83600000D02*
X110912500Y-84987500D01*
X110912500Y-59387500D02*
X110900000Y-59400000D01*
X110912500Y-58100000D02*
X110912500Y-59387500D01*
X100900000Y-57800000D02*
X107000000Y-57800000D01*
X97900000Y-57800000D02*
X100900000Y-57800000D01*
D30*
X116200000Y-124700000D02*
X120200000Y-124700000D01*
X120200000Y-124700000D02*
X123950000Y-124700000D01*
X123950000Y-124700000D02*
X126000000Y-124700000D01*
X126000000Y-124700000D02*
X126300000Y-124400000D01*
X136895000Y-117205000D02*
X136500000Y-117600000D01*
X151650000Y-117205000D02*
X136895000Y-117205000D01*
X136895000Y-117195000D02*
X136500000Y-116800000D01*
X136895000Y-117205000D02*
X136895000Y-117195000D01*
X136500000Y-117600000D02*
X136500000Y-116800000D01*
X136500000Y-116800000D02*
X136500000Y-111900000D01*
X116300000Y-99200000D02*
X120200000Y-99200000D01*
X120200000Y-99200000D02*
X123900000Y-99200000D01*
X123900000Y-99200000D02*
X125600000Y-99200000D01*
X125600000Y-99200000D02*
X125900000Y-98900000D01*
X116300000Y-73700000D02*
X120100000Y-73700000D01*
X120100000Y-73700000D02*
X123900000Y-73700000D01*
X123900000Y-73700000D02*
X125900000Y-73700000D01*
X125900000Y-73700000D02*
X126200000Y-73400000D01*
X136100000Y-80100000D02*
X136500000Y-80500000D01*
X133600000Y-80100000D02*
X136100000Y-80100000D01*
X133112500Y-79100000D02*
X133112500Y-79612500D01*
X133112500Y-79612500D02*
X133600000Y-80100000D01*
X136500000Y-80500000D02*
X136500000Y-74200000D01*
X131550000Y-80950000D02*
X131550000Y-82150000D01*
X132400000Y-80100000D02*
X131550000Y-80950000D01*
X133600000Y-80100000D02*
X132400000Y-80100000D01*
X136200000Y-105600000D02*
X136500000Y-105900000D01*
X133600000Y-105600000D02*
X136200000Y-105600000D01*
X133212500Y-104600000D02*
X133212500Y-105212500D01*
X133212500Y-105212500D02*
X133600000Y-105600000D01*
X136500000Y-111900000D02*
X136500000Y-105900000D01*
X136500000Y-105900000D02*
X136500000Y-99800000D01*
X132200000Y-105600000D02*
X131550000Y-106250000D01*
X131550000Y-106250000D02*
X131550000Y-107650000D01*
X133600000Y-105600000D02*
X132200000Y-105600000D01*
D28*
X128987500Y-97800000D02*
X130200000Y-97800000D01*
D31*
X147680000Y-89380000D02*
X148750001Y-90450001D01*
X138950000Y-89380000D02*
X147680000Y-89380000D01*
X148750001Y-103949999D02*
X148750001Y-90450001D01*
D29*
X151650000Y-123750000D02*
X151700000Y-123800000D01*
X151650000Y-122285000D02*
X151650000Y-123750000D01*
X153885000Y-122285000D02*
X153900000Y-122300000D01*
X151650000Y-122285000D02*
X153885000Y-122285000D01*
D28*
X152400000Y-107300000D02*
X147100000Y-107300000D01*
X153700000Y-108600000D02*
X152400000Y-107300000D01*
X151650000Y-114665000D02*
X153035000Y-114665000D01*
X147100000Y-107300000D02*
X145400000Y-105600000D01*
X153035000Y-114665000D02*
X153700000Y-114000000D01*
X153700000Y-114000000D02*
X153700000Y-108600000D01*
X147150000Y-115935000D02*
X147865000Y-115935000D01*
X147865000Y-115935000D02*
X149100000Y-114700000D01*
X149100000Y-114700000D02*
X149100000Y-109900000D01*
X146913599Y-107750009D02*
X144949990Y-105786400D01*
X149550010Y-110775010D02*
X149550010Y-108550010D01*
X150900000Y-112125000D02*
X149550010Y-110775010D01*
X149550010Y-108550010D02*
X148750010Y-107750010D01*
X151650000Y-112125000D02*
X150900000Y-112125000D01*
X148750010Y-107750010D02*
X146913599Y-107750009D01*
X149100000Y-109900000D02*
X149100000Y-108736410D01*
X146727198Y-108200018D02*
X144499980Y-105972800D01*
X148563610Y-108200020D02*
X146727198Y-108200018D01*
X149100000Y-108736410D02*
X148563610Y-108200020D01*
X145195000Y-113395000D02*
X144000000Y-112200000D01*
X147150000Y-113395000D02*
X145195000Y-113395000D01*
X144949990Y-100749990D02*
X144900000Y-100700000D01*
X144949990Y-105786400D02*
X144949990Y-100749990D01*
X144199999Y-101199999D02*
X144199999Y-98800001D01*
X144499980Y-101499980D02*
X144199999Y-101199999D01*
X144499980Y-105972800D02*
X144499980Y-101499980D01*
X145400000Y-105600000D02*
X145400000Y-101600000D01*
X145700000Y-101300000D02*
X145700000Y-98900000D01*
X145400000Y-101600000D02*
X145700000Y-101300000D01*
X144000000Y-112200000D02*
X144000000Y-101700000D01*
D31*
X151100002Y-106300000D02*
X148750001Y-103949999D01*
X152500000Y-106300000D02*
X151100002Y-106300000D01*
X151650000Y-119745000D02*
X152955000Y-119745000D01*
X154500000Y-118200000D02*
X154500000Y-108300000D01*
X152955000Y-119745000D02*
X154500000Y-118200000D01*
X154500000Y-108300000D02*
X152500000Y-106300000D01*
D30*
X133900000Y-86400000D02*
X136500000Y-83800000D01*
X133900000Y-91600000D02*
X133900000Y-86400000D01*
X136500000Y-83800000D02*
X136500000Y-80500000D01*
X136500000Y-94200000D02*
X133900000Y-91600000D01*
X136500000Y-94600000D02*
X136500000Y-94200000D01*
D31*
X136307500Y-89380000D02*
X136300000Y-89387500D01*
X136300000Y-87812500D02*
X136300000Y-86600000D01*
D28*
X138950000Y-80737500D02*
X146700000Y-72987500D01*
X138950000Y-84300000D02*
X138950000Y-80737500D01*
X150387500Y-72987500D02*
X150400000Y-73000000D01*
X149200000Y-72987500D02*
X150387500Y-72987500D01*
X145045000Y-110855000D02*
X145000000Y-110900000D01*
X147150000Y-110855000D02*
X145045000Y-110855000D01*
X151650000Y-108250000D02*
X151700000Y-108200000D01*
X151650000Y-109585000D02*
X151650000Y-108250000D01*
X144199999Y-98800001D02*
X144200000Y-98800000D01*
X145700000Y-98900000D02*
X143400000Y-96600000D01*
X149400000Y-121000000D02*
X147165000Y-121000000D01*
X147165000Y-121000000D02*
X147150000Y-121015000D01*
X142500000Y-113700000D02*
X142500000Y-101800000D01*
X144775000Y-118475000D02*
X144700000Y-118400000D01*
X147150000Y-118475000D02*
X144775000Y-118475000D01*
X144700000Y-115900000D02*
X142500000Y-113700000D01*
X144000000Y-101700000D02*
X142200000Y-99900000D01*
X142500000Y-101800000D02*
X141800000Y-101100000D01*
X141800000Y-101100000D02*
X141300000Y-100600000D01*
X141300000Y-100600000D02*
X141300000Y-97400000D01*
X141300000Y-97400000D02*
X145800000Y-92900000D01*
X149360000Y-123550000D02*
X147155000Y-123550000D01*
X147872500Y-71412500D02*
X149200000Y-71412500D01*
X147872500Y-75067500D02*
X147090000Y-75850000D01*
X146700000Y-71412500D02*
X147872500Y-71412500D01*
X147155000Y-123550000D02*
X147150000Y-123555000D01*
X147872500Y-71412500D02*
X147872500Y-75067500D01*
X147090000Y-75850000D02*
X147090000Y-88160000D01*
D31*
X137400000Y-87231762D02*
X137400000Y-65900000D01*
X137400000Y-87231762D02*
X137400000Y-88660000D01*
X137400000Y-88660000D02*
X138120000Y-89380000D01*
X138950000Y-89380000D02*
X138120000Y-89380000D01*
X138120000Y-89380000D02*
X136307500Y-89380000D01*
X119780000Y-52980000D02*
X119780000Y-52700000D01*
X121100000Y-54300000D02*
X119780000Y-52980000D01*
X135800000Y-54300000D02*
X121100000Y-54300000D01*
X137400000Y-57200000D02*
X137400000Y-55900000D01*
X137400000Y-55900000D02*
X135800000Y-54300000D01*
X137400000Y-54587500D02*
X138200000Y-53787500D01*
X137400000Y-55900000D02*
X137400000Y-54587500D01*
X136812500Y-52212500D02*
X136800000Y-52200000D01*
X138200000Y-52212500D02*
X136812500Y-52212500D01*
D29*
X108150000Y-56650000D02*
X110100000Y-54700000D01*
D30*
X136500000Y-63100000D02*
X131550000Y-58150000D01*
X131550000Y-58150000D02*
X131550000Y-56650000D01*
X136500000Y-64800000D02*
X136500000Y-63100000D01*
D31*
X138700000Y-58900000D02*
X137400000Y-57600000D01*
X138700000Y-62500000D02*
X138700000Y-58900000D01*
X137400000Y-63800000D02*
X138700000Y-62500000D01*
X137400000Y-65900000D02*
X137400000Y-64300000D01*
X137400000Y-64300000D02*
X137400000Y-63800000D01*
X137400000Y-57600000D02*
X137400000Y-57200000D01*
D30*
X136500000Y-62087500D02*
X137000000Y-61587500D01*
X136500000Y-63100000D02*
X136500000Y-62087500D01*
X137000000Y-60000000D02*
X136100000Y-59100000D01*
X137000000Y-60012500D02*
X137000000Y-60000000D01*
D28*
X140012500Y-59400000D02*
X140000000Y-59412500D01*
X141400000Y-59400000D02*
X140012500Y-59400000D01*
X140687500Y-58687500D02*
X141400000Y-59400000D01*
X140687500Y-56300000D02*
X140687500Y-58687500D01*
D29*
X142187500Y-53750000D02*
X142187500Y-54037500D01*
X142187500Y-54037500D02*
X142350000Y-54200000D01*
D32*
X144699999Y-54550000D02*
X144349999Y-54200000D01*
X144000000Y-54550000D02*
X143650000Y-54200000D01*
D29*
X142350000Y-54200000D02*
X143650000Y-54200000D01*
D32*
X144699999Y-54550000D02*
X144000000Y-54550000D01*
D29*
X143650000Y-54200000D02*
X144349999Y-54200000D01*
D32*
X144950000Y-54550000D02*
X144854998Y-54550000D01*
X144724999Y-54420001D02*
X144724999Y-54050000D01*
X144854998Y-54550000D02*
X144724999Y-54420001D01*
X145400000Y-54550000D02*
X144950000Y-54550000D01*
X144950000Y-54550000D02*
X144699999Y-54550000D01*
X144450000Y-56350000D02*
X144750000Y-56050000D01*
X144750000Y-56050000D02*
X145400000Y-56050000D01*
X145800000Y-65670000D02*
X145800000Y-59100000D01*
X144450000Y-57750000D02*
X144450000Y-56350000D01*
X145800000Y-59100000D02*
X144450000Y-57750000D01*
X148400000Y-57050000D02*
X148100000Y-57350000D01*
X148400000Y-56550000D02*
X148400000Y-57050000D01*
X148900000Y-56050000D02*
X148400000Y-56050000D01*
X147600000Y-63300000D02*
X147600000Y-59000000D01*
X149150000Y-56300000D02*
X148900000Y-56050000D01*
X149150000Y-57450000D02*
X149150000Y-56300000D01*
X147600000Y-59000000D02*
X149150000Y-57450000D01*
X149050000Y-55550000D02*
X148400000Y-55550000D01*
X150250000Y-56750000D02*
X149050000Y-55550000D01*
X150250000Y-58412500D02*
X150250000Y-56750000D01*
X150250000Y-58737500D02*
X150962500Y-59450000D01*
X150250000Y-58412500D02*
X150250000Y-58737500D01*
X150365698Y-56300000D02*
X152150000Y-56300000D01*
X149115699Y-55050001D02*
X150365698Y-56300000D01*
X148400000Y-55050000D02*
X149115699Y-55050001D01*
D29*
X151550000Y-54100000D02*
X151350000Y-54300000D01*
X152150000Y-53500000D02*
X151550000Y-54100000D01*
D30*
X149800000Y-54050000D02*
X150050000Y-54300000D01*
D29*
X151350000Y-54300000D02*
X150050000Y-54300000D01*
D30*
X148400000Y-54050000D02*
X149800000Y-54050000D01*
D29*
X150050000Y-54300000D02*
X149500000Y-54300000D01*
D30*
X149800000Y-54550000D02*
X150050000Y-54300000D01*
X148400000Y-54550000D02*
X149800000Y-54550000D01*
D29*
X152150000Y-53500000D02*
X152150000Y-50350000D01*
X140287500Y-48650000D02*
X116150000Y-48650000D01*
X116150000Y-48650000D02*
X115575000Y-49225000D01*
X110100000Y-54700000D02*
X115575000Y-49225000D01*
X142187500Y-50550000D02*
X142187500Y-53750000D01*
X140287500Y-48650000D02*
X142187500Y-50550000D01*
X152400000Y-47300000D02*
X152150000Y-47550000D01*
X152400000Y-43850000D02*
X152400000Y-47300000D01*
X149112500Y-44337500D02*
X149600000Y-43850000D01*
X147050000Y-44337500D02*
X149112500Y-44337500D01*
X147050000Y-44337500D02*
X147050000Y-44350000D01*
X147050000Y-44350000D02*
X145050000Y-46350000D01*
X109050000Y-50800000D02*
X97900000Y-50800000D01*
X113500000Y-46350000D02*
X109050000Y-50800000D01*
X145050000Y-46350000D02*
X113500000Y-46350000D01*
X147050000Y-42762500D02*
X147050000Y-41200000D01*
X146512500Y-48650000D02*
X144300000Y-48650000D01*
X140612500Y-52162500D02*
X140600000Y-52150000D01*
X140612500Y-53750000D02*
X140612500Y-52162500D01*
D32*
X152537500Y-58162500D02*
X152550000Y-58150000D01*
X152537500Y-59450000D02*
X152537500Y-58162500D01*
D30*
X143600000Y-60800000D02*
X143650000Y-60750000D01*
X143600000Y-62150000D02*
X143600000Y-60800000D01*
X136500000Y-65200000D02*
X136500000Y-64800000D01*
X136500000Y-65050000D02*
X136500000Y-65200000D01*
X143600000Y-64450000D02*
X138750000Y-64450000D01*
X135650000Y-64200000D02*
X136500000Y-65050000D01*
X138750000Y-64450000D02*
X138519669Y-64219669D01*
D32*
X140000000Y-60987500D02*
X140000000Y-62150000D01*
X143325000Y-55050000D02*
X143150000Y-55225000D01*
X145400000Y-55050000D02*
X143325000Y-55050000D01*
X149300000Y-44150000D02*
X149600000Y-43850000D01*
X145400000Y-55550000D02*
X144250000Y-55550000D01*
X149300000Y-52600000D02*
X149300000Y-44150000D01*
X144250000Y-55550000D02*
X144050000Y-55750000D01*
X151250000Y-47550000D02*
X152150000Y-47550000D01*
X150100000Y-48700000D02*
X151250000Y-47550000D01*
X150100000Y-51450000D02*
X150100000Y-48700000D01*
D30*
X146900000Y-55300000D02*
X147400000Y-55300000D01*
X147400000Y-55300000D02*
X147450000Y-55250000D01*
X146900000Y-55300000D02*
X146750000Y-55300000D01*
X146750000Y-55300000D02*
X146300000Y-55750000D01*
D29*
X110900000Y-109100000D02*
X109800000Y-108000000D01*
X110912500Y-109100000D02*
X110900000Y-109100000D01*
X98100000Y-110100000D02*
X97900000Y-109900000D01*
X109600000Y-110100000D02*
X98100000Y-110100000D01*
X103450000Y-111250000D02*
X101300000Y-113400000D01*
X110500000Y-111250000D02*
X103450000Y-111250000D01*
X101300000Y-113400000D02*
X97900000Y-113400000D01*
X107600000Y-115700000D02*
X99100000Y-115700000D01*
X99100000Y-115700000D02*
X97900000Y-116900000D01*
X110000000Y-113300000D02*
X107600000Y-115700000D01*
X110000000Y-116000000D02*
X108900000Y-117100000D01*
X108900000Y-117100000D02*
X103200000Y-117100000D01*
X100500000Y-119800000D02*
X99900000Y-120400000D01*
X99900000Y-120400000D02*
X97900000Y-120400000D01*
X103200000Y-117100000D02*
X100500000Y-119800000D01*
X101800000Y-91800000D02*
X100400000Y-93200000D01*
X101800000Y-87600000D02*
X101800000Y-91800000D01*
X103800000Y-85600000D02*
X101800000Y-87600000D01*
X100400000Y-93200000D02*
X97900000Y-93200000D01*
X107500000Y-85600000D02*
X103800000Y-85600000D01*
X99500000Y-96700000D02*
X97900000Y-96700000D01*
X104800000Y-90000000D02*
X103200000Y-91600000D01*
X107800000Y-90000000D02*
X104800000Y-90000000D01*
X103200000Y-93000000D02*
X99500000Y-96700000D01*
X103200000Y-91600000D02*
X103200000Y-93000000D01*
X103600000Y-100200000D02*
X97900000Y-100200000D01*
X107600000Y-96200000D02*
X103600000Y-100200000D01*
X102900000Y-103700000D02*
X97900000Y-103700000D01*
X107700000Y-98900000D02*
X102900000Y-103700000D01*
X102700000Y-71700000D02*
X97900000Y-76500000D01*
X104200000Y-64600000D02*
X102700000Y-66100000D01*
X102700000Y-66100000D02*
X102700000Y-71700000D01*
X107500000Y-64600000D02*
X104200000Y-64600000D01*
X99400000Y-80000000D02*
X97900000Y-80000000D01*
X107600000Y-71800000D02*
X99400000Y-80000000D01*
X107600000Y-70500000D02*
X107600000Y-71800000D01*
X107400000Y-74300000D02*
X98200000Y-83500000D01*
X98200000Y-83500000D02*
X97900000Y-83500000D01*
X99600000Y-87000000D02*
X97900000Y-87000000D01*
X107400000Y-79200000D02*
X99600000Y-87000000D01*
X107400000Y-76700000D02*
X107400000Y-79200000D01*
D30*
X146900000Y-55500000D02*
X147300000Y-55900000D01*
X146900000Y-55300000D02*
X146900000Y-55500000D01*
X147300000Y-55900000D02*
X147300000Y-58000000D01*
X146900000Y-55300000D02*
X146900000Y-55600000D01*
X146300000Y-56200000D02*
X146300000Y-57400000D01*
X146900000Y-55600000D02*
X146300000Y-56200000D01*
X145400000Y-53300000D02*
X143600000Y-51500000D01*
X145400000Y-54050000D02*
X145400000Y-53300000D01*
X132600000Y-122400000D02*
X135300000Y-122400000D01*
X130600000Y-124400000D02*
X132600000Y-122400000D01*
X128500000Y-124400000D02*
X130600000Y-124400000D01*
X136500000Y-117600000D02*
X136500000Y-121200000D01*
X135300000Y-122400000D02*
X136500000Y-121200000D01*
X126300000Y-124400000D02*
X128500000Y-124400000D01*
X135700000Y-97500000D02*
X136500000Y-98300000D01*
X131610002Y-97500000D02*
X135700000Y-97500000D01*
X136500000Y-98300000D02*
X136500000Y-94600000D01*
X128900000Y-98900000D02*
X130210002Y-98900000D01*
X130210002Y-98900000D02*
X131610002Y-97500000D01*
X125900000Y-98900000D02*
X128900000Y-98900000D01*
X136500000Y-99800000D02*
X136500000Y-98300000D01*
X132100000Y-98300000D02*
X130300000Y-100100000D01*
X130300000Y-100100000D02*
X128987500Y-100100000D01*
X130700000Y-125600000D02*
X129000000Y-125600000D01*
X132900000Y-123400000D02*
X130700000Y-125600000D01*
X129000000Y-123100000D02*
X130500000Y-123100000D01*
D28*
X128987500Y-72300000D02*
X130100000Y-72300000D01*
D30*
X132100000Y-71500000D02*
X135800000Y-71500000D01*
X136500000Y-72200000D02*
X136500000Y-65200000D01*
X126200000Y-73400000D02*
X129500000Y-73400000D01*
X130200000Y-73400000D02*
X132100000Y-71500000D01*
X135800000Y-71500000D02*
X136500000Y-72200000D01*
X129500000Y-73400000D02*
X130200000Y-73400000D01*
X136500000Y-74200000D02*
X136500000Y-72200000D01*
X132400000Y-72700000D02*
X130500000Y-74600000D01*
X130500000Y-74600000D02*
X128987500Y-74600000D01*
M02*
