G04 #@! TF.GenerationSoftware,KiCad,Pcbnew,(5.99.0-1438-g3759799d1)*
G04 #@! TF.CreationDate,2020-05-11T10:33:08+02:00*
G04 #@! TF.ProjectId,Uni_stick,556e695f-7374-4696-936b-2e6b69636164,rev?*
G04 #@! TF.SameCoordinates,Original*
G04 #@! TF.FileFunction,Paste,Top*
G04 #@! TF.FilePolarity,Positive*
%FSLAX46Y46*%
G04 Gerber Fmt 4.6, Leading zero omitted, Abs format (unit mm)*
G04 Created by KiCad (PCBNEW (5.99.0-1438-g3759799d1)) date 2020-05-11 10:33:08*
%MOMM*%
%LPD*%
G01*
G04 APERTURE LIST*
%ADD10R,2.000000X1.300000*%
%ADD11R,2.000000X2.000000*%
%ADD12R,3.000000X1.500000*%
%ADD13R,1.800000X2.600000*%
%ADD14R,0.800000X0.300000*%
G04 APERTURE END LIST*
G36*
G01*
X145475000Y-49675000D02*
X145475000Y-47625000D01*
G75*
G02*
X145725000Y-47375000I250000J0D01*
G01*
X147300000Y-47375000D01*
G75*
G02*
X147550000Y-47625000I0J-250000D01*
G01*
X147550000Y-49675000D01*
G75*
G02*
X147300000Y-49925000I-250000J0D01*
G01*
X145725000Y-49925000D01*
G75*
G02*
X145475000Y-49675000I0J250000D01*
G01*
G37*
G36*
G01*
X139250000Y-49675000D02*
X139250000Y-47625000D01*
G75*
G02*
X139500000Y-47375000I250000J0D01*
G01*
X141075000Y-47375000D01*
G75*
G02*
X141325000Y-47625000I0J-250000D01*
G01*
X141325000Y-49675000D01*
G75*
G02*
X141075000Y-49925000I-250000J0D01*
G01*
X139500000Y-49925000D01*
G75*
G02*
X139250000Y-49675000I0J250000D01*
G01*
G37*
G36*
G01*
X141050000Y-53493750D02*
X141050000Y-54006250D01*
G75*
G02*
X140831250Y-54225000I-218750J0D01*
G01*
X140393750Y-54225000D01*
G75*
G02*
X140175000Y-54006250I0J218750D01*
G01*
X140175000Y-53493750D01*
G75*
G02*
X140393750Y-53275000I218750J0D01*
G01*
X140831250Y-53275000D01*
G75*
G02*
X141050000Y-53493750I0J-218750D01*
G01*
G37*
G36*
G01*
X142625000Y-53493750D02*
X142625000Y-54006250D01*
G75*
G02*
X142406250Y-54225000I-218750J0D01*
G01*
X141968750Y-54225000D01*
G75*
G02*
X141750000Y-54006250I0J218750D01*
G01*
X141750000Y-53493750D01*
G75*
G02*
X141968750Y-53275000I218750J0D01*
G01*
X142406250Y-53275000D01*
G75*
G02*
X142625000Y-53493750I0J-218750D01*
G01*
G37*
D10*
X143600000Y-62150000D03*
D11*
X147600000Y-63300000D03*
D10*
X143600000Y-64450000D03*
D12*
X151650000Y-122285000D03*
X147150000Y-121015000D03*
X151650000Y-119745000D03*
X147150000Y-118475000D03*
X151650000Y-117205000D03*
X147150000Y-115935000D03*
X151650000Y-114665000D03*
X147150000Y-113395000D03*
X151650000Y-112125000D03*
X147150000Y-110855000D03*
X151650000Y-109585000D03*
X147150000Y-123555000D03*
G36*
G01*
X147306250Y-43200000D02*
X146793750Y-43200000D01*
G75*
G02*
X146575000Y-42981250I0J218750D01*
G01*
X146575000Y-42543750D01*
G75*
G02*
X146793750Y-42325000I218750J0D01*
G01*
X147306250Y-42325000D01*
G75*
G02*
X147525000Y-42543750I0J-218750D01*
G01*
X147525000Y-42981250D01*
G75*
G02*
X147306250Y-43200000I-218750J0D01*
G01*
G37*
G36*
G01*
X147306250Y-44775000D02*
X146793750Y-44775000D01*
G75*
G02*
X146575000Y-44556250I0J218750D01*
G01*
X146575000Y-44118750D01*
G75*
G02*
X146793750Y-43900000I218750J0D01*
G01*
X147306250Y-43900000D01*
G75*
G02*
X147525000Y-44118750I0J-218750D01*
G01*
X147525000Y-44556250D01*
G75*
G02*
X147306250Y-44775000I-218750J0D01*
G01*
G37*
G36*
G01*
X151775000Y-44475000D02*
X151775000Y-43225000D01*
G75*
G02*
X152025000Y-42975000I250000J0D01*
G01*
X152775000Y-42975000D01*
G75*
G02*
X153025000Y-43225000I0J-250000D01*
G01*
X153025000Y-44475000D01*
G75*
G02*
X152775000Y-44725000I-250000J0D01*
G01*
X152025000Y-44725000D01*
G75*
G02*
X151775000Y-44475000I0J250000D01*
G01*
G37*
G36*
G01*
X148975000Y-44475000D02*
X148975000Y-43225000D01*
G75*
G02*
X149225000Y-42975000I250000J0D01*
G01*
X149975000Y-42975000D01*
G75*
G02*
X150225000Y-43225000I0J-250000D01*
G01*
X150225000Y-44475000D01*
G75*
G02*
X149975000Y-44725000I-250000J0D01*
G01*
X149225000Y-44725000D01*
G75*
G02*
X148975000Y-44475000I0J250000D01*
G01*
G37*
G36*
G01*
X152775000Y-48175000D02*
X151525000Y-48175000D01*
G75*
G02*
X151275000Y-47925000I0J250000D01*
G01*
X151275000Y-47175000D01*
G75*
G02*
X151525000Y-46925000I250000J0D01*
G01*
X152775000Y-46925000D01*
G75*
G02*
X153025000Y-47175000I0J-250000D01*
G01*
X153025000Y-47925000D01*
G75*
G02*
X152775000Y-48175000I-250000J0D01*
G01*
G37*
G36*
G01*
X152775000Y-50975000D02*
X151525000Y-50975000D01*
G75*
G02*
X151275000Y-50725000I0J250000D01*
G01*
X151275000Y-49975000D01*
G75*
G02*
X151525000Y-49725000I250000J0D01*
G01*
X152775000Y-49725000D01*
G75*
G02*
X153025000Y-49975000I0J-250000D01*
G01*
X153025000Y-50725000D01*
G75*
G02*
X152775000Y-50975000I-250000J0D01*
G01*
G37*
G36*
G01*
X151400000Y-59193750D02*
X151400000Y-59706250D01*
G75*
G02*
X151181250Y-59925000I-218750J0D01*
G01*
X150743750Y-59925000D01*
G75*
G02*
X150525000Y-59706250I0J218750D01*
G01*
X150525000Y-59193750D01*
G75*
G02*
X150743750Y-58975000I218750J0D01*
G01*
X151181250Y-58975000D01*
G75*
G02*
X151400000Y-59193750I0J-218750D01*
G01*
G37*
G36*
G01*
X152975000Y-59193750D02*
X152975000Y-59706250D01*
G75*
G02*
X152756250Y-59925000I-218750J0D01*
G01*
X152318750Y-59925000D01*
G75*
G02*
X152100000Y-59706250I0J218750D01*
G01*
X152100000Y-59193750D01*
G75*
G02*
X152318750Y-58975000I218750J0D01*
G01*
X152756250Y-58975000D01*
G75*
G02*
X152975000Y-59193750I0J-218750D01*
G01*
G37*
G36*
G01*
X151525000Y-55675000D02*
X152775000Y-55675000D01*
G75*
G02*
X153025000Y-55925000I0J-250000D01*
G01*
X153025000Y-56675000D01*
G75*
G02*
X152775000Y-56925000I-250000J0D01*
G01*
X151525000Y-56925000D01*
G75*
G02*
X151275000Y-56675000I0J250000D01*
G01*
X151275000Y-55925000D01*
G75*
G02*
X151525000Y-55675000I250000J0D01*
G01*
G37*
G36*
G01*
X151525000Y-52875000D02*
X152775000Y-52875000D01*
G75*
G02*
X153025000Y-53125000I0J-250000D01*
G01*
X153025000Y-53875000D01*
G75*
G02*
X152775000Y-54125000I-250000J0D01*
G01*
X151525000Y-54125000D01*
G75*
G02*
X151275000Y-53875000I0J250000D01*
G01*
X151275000Y-53125000D01*
G75*
G02*
X151525000Y-52875000I250000J0D01*
G01*
G37*
D13*
X146900000Y-55300000D03*
D14*
X148400000Y-54050000D03*
X148400000Y-54550000D03*
X148400000Y-55050000D03*
X148400000Y-55550000D03*
X148400000Y-56050000D03*
X148400000Y-56550000D03*
X145400000Y-56550000D03*
X145400000Y-56050000D03*
X145400000Y-55550000D03*
X145400000Y-55050000D03*
X145400000Y-54550000D03*
X145400000Y-54050000D03*
G36*
G01*
X148943750Y-72550000D02*
X149456250Y-72550000D01*
G75*
G02*
X149675000Y-72768750I0J-218750D01*
G01*
X149675000Y-73206250D01*
G75*
G02*
X149456250Y-73425000I-218750J0D01*
G01*
X148943750Y-73425000D01*
G75*
G02*
X148725000Y-73206250I0J218750D01*
G01*
X148725000Y-72768750D01*
G75*
G02*
X148943750Y-72550000I218750J0D01*
G01*
G37*
G36*
G01*
X148943750Y-70975000D02*
X149456250Y-70975000D01*
G75*
G02*
X149675000Y-71193750I0J-218750D01*
G01*
X149675000Y-71631250D01*
G75*
G02*
X149456250Y-71850000I-218750J0D01*
G01*
X148943750Y-71850000D01*
G75*
G02*
X148725000Y-71631250I0J218750D01*
G01*
X148725000Y-71193750D01*
G75*
G02*
X148943750Y-70975000I218750J0D01*
G01*
G37*
G36*
G01*
X146443750Y-72550000D02*
X146956250Y-72550000D01*
G75*
G02*
X147175000Y-72768750I0J-218750D01*
G01*
X147175000Y-73206250D01*
G75*
G02*
X146956250Y-73425000I-218750J0D01*
G01*
X146443750Y-73425000D01*
G75*
G02*
X146225000Y-73206250I0J218750D01*
G01*
X146225000Y-72768750D01*
G75*
G02*
X146443750Y-72550000I218750J0D01*
G01*
G37*
G36*
G01*
X146443750Y-70975000D02*
X146956250Y-70975000D01*
G75*
G02*
X147175000Y-71193750I0J-218750D01*
G01*
X147175000Y-71631250D01*
G75*
G02*
X146956250Y-71850000I-218750J0D01*
G01*
X146443750Y-71850000D01*
G75*
G02*
X146225000Y-71631250I0J218750D01*
G01*
X146225000Y-71193750D01*
G75*
G02*
X146443750Y-70975000I218750J0D01*
G01*
G37*
G36*
G01*
X139743750Y-60550000D02*
X140256250Y-60550000D01*
G75*
G02*
X140475000Y-60768750I0J-218750D01*
G01*
X140475000Y-61206250D01*
G75*
G02*
X140256250Y-61425000I-218750J0D01*
G01*
X139743750Y-61425000D01*
G75*
G02*
X139525000Y-61206250I0J218750D01*
G01*
X139525000Y-60768750D01*
G75*
G02*
X139743750Y-60550000I218750J0D01*
G01*
G37*
G36*
G01*
X139743750Y-58975000D02*
X140256250Y-58975000D01*
G75*
G02*
X140475000Y-59193750I0J-218750D01*
G01*
X140475000Y-59631250D01*
G75*
G02*
X140256250Y-59850000I-218750J0D01*
G01*
X139743750Y-59850000D01*
G75*
G02*
X139525000Y-59631250I0J218750D01*
G01*
X139525000Y-59193750D01*
G75*
G02*
X139743750Y-58975000I218750J0D01*
G01*
G37*
G36*
G01*
X139550000Y-56043750D02*
X139550000Y-56556250D01*
G75*
G02*
X139331250Y-56775000I-218750J0D01*
G01*
X138893750Y-56775000D01*
G75*
G02*
X138675000Y-56556250I0J218750D01*
G01*
X138675000Y-56043750D01*
G75*
G02*
X138893750Y-55825000I218750J0D01*
G01*
X139331250Y-55825000D01*
G75*
G02*
X139550000Y-56043750I0J-218750D01*
G01*
G37*
G36*
G01*
X141125000Y-56043750D02*
X141125000Y-56556250D01*
G75*
G02*
X140906250Y-56775000I-218750J0D01*
G01*
X140468750Y-56775000D01*
G75*
G02*
X140250000Y-56556250I0J218750D01*
G01*
X140250000Y-56043750D01*
G75*
G02*
X140468750Y-55825000I218750J0D01*
G01*
X140906250Y-55825000D01*
G75*
G02*
X141125000Y-56043750I0J-218750D01*
G01*
G37*
G36*
G01*
X128550000Y-72556250D02*
X128550000Y-72043750D01*
G75*
G02*
X128768750Y-71825000I218750J0D01*
G01*
X129206250Y-71825000D01*
G75*
G02*
X129425000Y-72043750I0J-218750D01*
G01*
X129425000Y-72556250D01*
G75*
G02*
X129206250Y-72775000I-218750J0D01*
G01*
X128768750Y-72775000D01*
G75*
G02*
X128550000Y-72556250I0J218750D01*
G01*
G37*
G36*
G01*
X126975000Y-72556250D02*
X126975000Y-72043750D01*
G75*
G02*
X127193750Y-71825000I218750J0D01*
G01*
X127631250Y-71825000D01*
G75*
G02*
X127850000Y-72043750I0J-218750D01*
G01*
X127850000Y-72556250D01*
G75*
G02*
X127631250Y-72775000I-218750J0D01*
G01*
X127193750Y-72775000D01*
G75*
G02*
X126975000Y-72556250I0J218750D01*
G01*
G37*
G36*
G01*
X128550000Y-74856250D02*
X128550000Y-74343750D01*
G75*
G02*
X128768750Y-74125000I218750J0D01*
G01*
X129206250Y-74125000D01*
G75*
G02*
X129425000Y-74343750I0J-218750D01*
G01*
X129425000Y-74856250D01*
G75*
G02*
X129206250Y-75075000I-218750J0D01*
G01*
X128768750Y-75075000D01*
G75*
G02*
X128550000Y-74856250I0J218750D01*
G01*
G37*
G36*
G01*
X126975000Y-74856250D02*
X126975000Y-74343750D01*
G75*
G02*
X127193750Y-74125000I218750J0D01*
G01*
X127631250Y-74125000D01*
G75*
G02*
X127850000Y-74343750I0J-218750D01*
G01*
X127850000Y-74856250D01*
G75*
G02*
X127631250Y-75075000I-218750J0D01*
G01*
X127193750Y-75075000D01*
G75*
G02*
X126975000Y-74856250I0J218750D01*
G01*
G37*
G36*
G01*
X128550000Y-98056250D02*
X128550000Y-97543750D01*
G75*
G02*
X128768750Y-97325000I218750J0D01*
G01*
X129206250Y-97325000D01*
G75*
G02*
X129425000Y-97543750I0J-218750D01*
G01*
X129425000Y-98056250D01*
G75*
G02*
X129206250Y-98275000I-218750J0D01*
G01*
X128768750Y-98275000D01*
G75*
G02*
X128550000Y-98056250I0J218750D01*
G01*
G37*
G36*
G01*
X126975000Y-98056250D02*
X126975000Y-97543750D01*
G75*
G02*
X127193750Y-97325000I218750J0D01*
G01*
X127631250Y-97325000D01*
G75*
G02*
X127850000Y-97543750I0J-218750D01*
G01*
X127850000Y-98056250D01*
G75*
G02*
X127631250Y-98275000I-218750J0D01*
G01*
X127193750Y-98275000D01*
G75*
G02*
X126975000Y-98056250I0J218750D01*
G01*
G37*
G36*
G01*
X128550000Y-100356250D02*
X128550000Y-99843750D01*
G75*
G02*
X128768750Y-99625000I218750J0D01*
G01*
X129206250Y-99625000D01*
G75*
G02*
X129425000Y-99843750I0J-218750D01*
G01*
X129425000Y-100356250D01*
G75*
G02*
X129206250Y-100575000I-218750J0D01*
G01*
X128768750Y-100575000D01*
G75*
G02*
X128550000Y-100356250I0J218750D01*
G01*
G37*
G36*
G01*
X126975000Y-100356250D02*
X126975000Y-99843750D01*
G75*
G02*
X127193750Y-99625000I218750J0D01*
G01*
X127631250Y-99625000D01*
G75*
G02*
X127850000Y-99843750I0J-218750D01*
G01*
X127850000Y-100356250D01*
G75*
G02*
X127631250Y-100575000I-218750J0D01*
G01*
X127193750Y-100575000D01*
G75*
G02*
X126975000Y-100356250I0J218750D01*
G01*
G37*
G36*
G01*
X128562500Y-125856250D02*
X128562500Y-125343750D01*
G75*
G02*
X128781250Y-125125000I218750J0D01*
G01*
X129218750Y-125125000D01*
G75*
G02*
X129437500Y-125343750I0J-218750D01*
G01*
X129437500Y-125856250D01*
G75*
G02*
X129218750Y-126075000I-218750J0D01*
G01*
X128781250Y-126075000D01*
G75*
G02*
X128562500Y-125856250I0J218750D01*
G01*
G37*
G36*
G01*
X126987500Y-125856250D02*
X126987500Y-125343750D01*
G75*
G02*
X127206250Y-125125000I218750J0D01*
G01*
X127643750Y-125125000D01*
G75*
G02*
X127862500Y-125343750I0J-218750D01*
G01*
X127862500Y-125856250D01*
G75*
G02*
X127643750Y-126075000I-218750J0D01*
G01*
X127206250Y-126075000D01*
G75*
G02*
X126987500Y-125856250I0J218750D01*
G01*
G37*
G36*
G01*
X111350000Y-108843750D02*
X111350000Y-109356250D01*
G75*
G02*
X111131250Y-109575000I-218750J0D01*
G01*
X110693750Y-109575000D01*
G75*
G02*
X110475000Y-109356250I0J218750D01*
G01*
X110475000Y-108843750D01*
G75*
G02*
X110693750Y-108625000I218750J0D01*
G01*
X111131250Y-108625000D01*
G75*
G02*
X111350000Y-108843750I0J-218750D01*
G01*
G37*
G36*
G01*
X112925000Y-108843750D02*
X112925000Y-109356250D01*
G75*
G02*
X112706250Y-109575000I-218750J0D01*
G01*
X112268750Y-109575000D01*
G75*
G02*
X112050000Y-109356250I0J218750D01*
G01*
X112050000Y-108843750D01*
G75*
G02*
X112268750Y-108625000I218750J0D01*
G01*
X112706250Y-108625000D01*
G75*
G02*
X112925000Y-108843750I0J-218750D01*
G01*
G37*
G36*
G01*
X138456250Y-54225000D02*
X137943750Y-54225000D01*
G75*
G02*
X137725000Y-54006250I0J218750D01*
G01*
X137725000Y-53568750D01*
G75*
G02*
X137943750Y-53350000I218750J0D01*
G01*
X138456250Y-53350000D01*
G75*
G02*
X138675000Y-53568750I0J-218750D01*
G01*
X138675000Y-54006250D01*
G75*
G02*
X138456250Y-54225000I-218750J0D01*
G01*
G37*
G36*
G01*
X138456250Y-52650000D02*
X137943750Y-52650000D01*
G75*
G02*
X137725000Y-52431250I0J218750D01*
G01*
X137725000Y-51993750D01*
G75*
G02*
X137943750Y-51775000I218750J0D01*
G01*
X138456250Y-51775000D01*
G75*
G02*
X138675000Y-51993750I0J-218750D01*
G01*
X138675000Y-52431250D01*
G75*
G02*
X138456250Y-52650000I-218750J0D01*
G01*
G37*
G36*
G01*
X107325000Y-61375000D02*
X107325000Y-63425000D01*
G75*
G02*
X107075000Y-63675000I-250000J0D01*
G01*
X105500000Y-63675000D01*
G75*
G02*
X105250000Y-63425000I0J250000D01*
G01*
X105250000Y-61375000D01*
G75*
G02*
X105500000Y-61125000I250000J0D01*
G01*
X107075000Y-61125000D01*
G75*
G02*
X107325000Y-61375000I0J-250000D01*
G01*
G37*
G36*
G01*
X113550000Y-61375000D02*
X113550000Y-63425000D01*
G75*
G02*
X113300000Y-63675000I-250000J0D01*
G01*
X111725000Y-63675000D01*
G75*
G02*
X111475000Y-63425000I0J250000D01*
G01*
X111475000Y-61375000D01*
G75*
G02*
X111725000Y-61125000I250000J0D01*
G01*
X113300000Y-61125000D01*
G75*
G02*
X113550000Y-61375000I0J-250000D01*
G01*
G37*
G36*
G01*
X107325000Y-67375000D02*
X107325000Y-69425000D01*
G75*
G02*
X107075000Y-69675000I-250000J0D01*
G01*
X105500000Y-69675000D01*
G75*
G02*
X105250000Y-69425000I0J250000D01*
G01*
X105250000Y-67375000D01*
G75*
G02*
X105500000Y-67125000I250000J0D01*
G01*
X107075000Y-67125000D01*
G75*
G02*
X107325000Y-67375000I0J-250000D01*
G01*
G37*
G36*
G01*
X113550000Y-67375000D02*
X113550000Y-69425000D01*
G75*
G02*
X113300000Y-69675000I-250000J0D01*
G01*
X111725000Y-69675000D01*
G75*
G02*
X111475000Y-69425000I0J250000D01*
G01*
X111475000Y-67375000D01*
G75*
G02*
X111725000Y-67125000I250000J0D01*
G01*
X113300000Y-67125000D01*
G75*
G02*
X113550000Y-67375000I0J-250000D01*
G01*
G37*
G36*
G01*
X137256250Y-60450000D02*
X136743750Y-60450000D01*
G75*
G02*
X136525000Y-60231250I0J218750D01*
G01*
X136525000Y-59793750D01*
G75*
G02*
X136743750Y-59575000I218750J0D01*
G01*
X137256250Y-59575000D01*
G75*
G02*
X137475000Y-59793750I0J-218750D01*
G01*
X137475000Y-60231250D01*
G75*
G02*
X137256250Y-60450000I-218750J0D01*
G01*
G37*
G36*
G01*
X137256250Y-62025000D02*
X136743750Y-62025000D01*
G75*
G02*
X136525000Y-61806250I0J218750D01*
G01*
X136525000Y-61368750D01*
G75*
G02*
X136743750Y-61150000I218750J0D01*
G01*
X137256250Y-61150000D01*
G75*
G02*
X137475000Y-61368750I0J-218750D01*
G01*
X137475000Y-61806250D01*
G75*
G02*
X137256250Y-62025000I-218750J0D01*
G01*
G37*
G36*
G01*
X111350000Y-57843750D02*
X111350000Y-58356250D01*
G75*
G02*
X111131250Y-58575000I-218750J0D01*
G01*
X110693750Y-58575000D01*
G75*
G02*
X110475000Y-58356250I0J218750D01*
G01*
X110475000Y-57843750D01*
G75*
G02*
X110693750Y-57625000I218750J0D01*
G01*
X111131250Y-57625000D01*
G75*
G02*
X111350000Y-57843750I0J-218750D01*
G01*
G37*
G36*
G01*
X112925000Y-57843750D02*
X112925000Y-58356250D01*
G75*
G02*
X112706250Y-58575000I-218750J0D01*
G01*
X112268750Y-58575000D01*
G75*
G02*
X112050000Y-58356250I0J218750D01*
G01*
X112050000Y-57843750D01*
G75*
G02*
X112268750Y-57625000I218750J0D01*
G01*
X112706250Y-57625000D01*
G75*
G02*
X112925000Y-57843750I0J-218750D01*
G01*
G37*
G36*
G01*
X136556250Y-88250000D02*
X136043750Y-88250000D01*
G75*
G02*
X135825000Y-88031250I0J218750D01*
G01*
X135825000Y-87593750D01*
G75*
G02*
X136043750Y-87375000I218750J0D01*
G01*
X136556250Y-87375000D01*
G75*
G02*
X136775000Y-87593750I0J-218750D01*
G01*
X136775000Y-88031250D01*
G75*
G02*
X136556250Y-88250000I-218750J0D01*
G01*
G37*
G36*
G01*
X136556250Y-89825000D02*
X136043750Y-89825000D01*
G75*
G02*
X135825000Y-89606250I0J218750D01*
G01*
X135825000Y-89168750D01*
G75*
G02*
X136043750Y-88950000I218750J0D01*
G01*
X136556250Y-88950000D01*
G75*
G02*
X136775000Y-89168750I0J-218750D01*
G01*
X136775000Y-89606250D01*
G75*
G02*
X136556250Y-89825000I-218750J0D01*
G01*
G37*
G36*
G01*
X107325000Y-92875000D02*
X107325000Y-94925000D01*
G75*
G02*
X107075000Y-95175000I-250000J0D01*
G01*
X105500000Y-95175000D01*
G75*
G02*
X105250000Y-94925000I0J250000D01*
G01*
X105250000Y-92875000D01*
G75*
G02*
X105500000Y-92625000I250000J0D01*
G01*
X107075000Y-92625000D01*
G75*
G02*
X107325000Y-92875000I0J-250000D01*
G01*
G37*
G36*
G01*
X113550000Y-92875000D02*
X113550000Y-94925000D01*
G75*
G02*
X113300000Y-95175000I-250000J0D01*
G01*
X111725000Y-95175000D01*
G75*
G02*
X111475000Y-94925000I0J250000D01*
G01*
X111475000Y-92875000D01*
G75*
G02*
X111725000Y-92625000I250000J0D01*
G01*
X113300000Y-92625000D01*
G75*
G02*
X113550000Y-92875000I0J-250000D01*
G01*
G37*
G36*
G01*
X107325000Y-86875000D02*
X107325000Y-88925000D01*
G75*
G02*
X107075000Y-89175000I-250000J0D01*
G01*
X105500000Y-89175000D01*
G75*
G02*
X105250000Y-88925000I0J250000D01*
G01*
X105250000Y-86875000D01*
G75*
G02*
X105500000Y-86625000I250000J0D01*
G01*
X107075000Y-86625000D01*
G75*
G02*
X107325000Y-86875000I0J-250000D01*
G01*
G37*
G36*
G01*
X113550000Y-86875000D02*
X113550000Y-88925000D01*
G75*
G02*
X113300000Y-89175000I-250000J0D01*
G01*
X111725000Y-89175000D01*
G75*
G02*
X111475000Y-88925000I0J250000D01*
G01*
X111475000Y-86875000D01*
G75*
G02*
X111725000Y-86625000I250000J0D01*
G01*
X113300000Y-86625000D01*
G75*
G02*
X113550000Y-86875000I0J-250000D01*
G01*
G37*
G36*
G01*
X134250000Y-79356250D02*
X134250000Y-78843750D01*
G75*
G02*
X134468750Y-78625000I218750J0D01*
G01*
X134906250Y-78625000D01*
G75*
G02*
X135125000Y-78843750I0J-218750D01*
G01*
X135125000Y-79356250D01*
G75*
G02*
X134906250Y-79575000I-218750J0D01*
G01*
X134468750Y-79575000D01*
G75*
G02*
X134250000Y-79356250I0J218750D01*
G01*
G37*
G36*
G01*
X132675000Y-79356250D02*
X132675000Y-78843750D01*
G75*
G02*
X132893750Y-78625000I218750J0D01*
G01*
X133331250Y-78625000D01*
G75*
G02*
X133550000Y-78843750I0J-218750D01*
G01*
X133550000Y-79356250D01*
G75*
G02*
X133331250Y-79575000I-218750J0D01*
G01*
X132893750Y-79575000D01*
G75*
G02*
X132675000Y-79356250I0J218750D01*
G01*
G37*
G36*
G01*
X111350000Y-83343750D02*
X111350000Y-83856250D01*
G75*
G02*
X111131250Y-84075000I-218750J0D01*
G01*
X110693750Y-84075000D01*
G75*
G02*
X110475000Y-83856250I0J218750D01*
G01*
X110475000Y-83343750D01*
G75*
G02*
X110693750Y-83125000I218750J0D01*
G01*
X111131250Y-83125000D01*
G75*
G02*
X111350000Y-83343750I0J-218750D01*
G01*
G37*
G36*
G01*
X112925000Y-83343750D02*
X112925000Y-83856250D01*
G75*
G02*
X112706250Y-84075000I-218750J0D01*
G01*
X112268750Y-84075000D01*
G75*
G02*
X112050000Y-83856250I0J218750D01*
G01*
X112050000Y-83343750D01*
G75*
G02*
X112268750Y-83125000I218750J0D01*
G01*
X112706250Y-83125000D01*
G75*
G02*
X112925000Y-83343750I0J-218750D01*
G01*
G37*
G36*
G01*
X107325000Y-118275000D02*
X107325000Y-120325000D01*
G75*
G02*
X107075000Y-120575000I-250000J0D01*
G01*
X105500000Y-120575000D01*
G75*
G02*
X105250000Y-120325000I0J250000D01*
G01*
X105250000Y-118275000D01*
G75*
G02*
X105500000Y-118025000I250000J0D01*
G01*
X107075000Y-118025000D01*
G75*
G02*
X107325000Y-118275000I0J-250000D01*
G01*
G37*
G36*
G01*
X113550000Y-118275000D02*
X113550000Y-120325000D01*
G75*
G02*
X113300000Y-120575000I-250000J0D01*
G01*
X111725000Y-120575000D01*
G75*
G02*
X111475000Y-120325000I0J250000D01*
G01*
X111475000Y-118275000D01*
G75*
G02*
X111725000Y-118025000I250000J0D01*
G01*
X113300000Y-118025000D01*
G75*
G02*
X113550000Y-118275000I0J-250000D01*
G01*
G37*
G36*
G01*
X107325000Y-112375000D02*
X107325000Y-114425000D01*
G75*
G02*
X107075000Y-114675000I-250000J0D01*
G01*
X105500000Y-114675000D01*
G75*
G02*
X105250000Y-114425000I0J250000D01*
G01*
X105250000Y-112375000D01*
G75*
G02*
X105500000Y-112125000I250000J0D01*
G01*
X107075000Y-112125000D01*
G75*
G02*
X107325000Y-112375000I0J-250000D01*
G01*
G37*
G36*
G01*
X113550000Y-112375000D02*
X113550000Y-114425000D01*
G75*
G02*
X113300000Y-114675000I-250000J0D01*
G01*
X111725000Y-114675000D01*
G75*
G02*
X111475000Y-114425000I0J250000D01*
G01*
X111475000Y-112375000D01*
G75*
G02*
X111725000Y-112125000I250000J0D01*
G01*
X113300000Y-112125000D01*
G75*
G02*
X113550000Y-112375000I0J-250000D01*
G01*
G37*
G36*
G01*
X134350000Y-104856250D02*
X134350000Y-104343750D01*
G75*
G02*
X134568750Y-104125000I218750J0D01*
G01*
X135006250Y-104125000D01*
G75*
G02*
X135225000Y-104343750I0J-218750D01*
G01*
X135225000Y-104856250D01*
G75*
G02*
X135006250Y-105075000I-218750J0D01*
G01*
X134568750Y-105075000D01*
G75*
G02*
X134350000Y-104856250I0J218750D01*
G01*
G37*
G36*
G01*
X132775000Y-104856250D02*
X132775000Y-104343750D01*
G75*
G02*
X132993750Y-104125000I218750J0D01*
G01*
X133431250Y-104125000D01*
G75*
G02*
X133650000Y-104343750I0J-218750D01*
G01*
X133650000Y-104856250D01*
G75*
G02*
X133431250Y-105075000I-218750J0D01*
G01*
X132993750Y-105075000D01*
G75*
G02*
X132775000Y-104856250I0J218750D01*
G01*
G37*
G36*
G01*
X128562500Y-123356250D02*
X128562500Y-122843750D01*
G75*
G02*
X128781250Y-122625000I218750J0D01*
G01*
X129218750Y-122625000D01*
G75*
G02*
X129437500Y-122843750I0J-218750D01*
G01*
X129437500Y-123356250D01*
G75*
G02*
X129218750Y-123575000I-218750J0D01*
G01*
X128781250Y-123575000D01*
G75*
G02*
X128562500Y-123356250I0J218750D01*
G01*
G37*
G36*
G01*
X126987500Y-123356250D02*
X126987500Y-122843750D01*
G75*
G02*
X127206250Y-122625000I218750J0D01*
G01*
X127643750Y-122625000D01*
G75*
G02*
X127862500Y-122843750I0J-218750D01*
G01*
X127862500Y-123356250D01*
G75*
G02*
X127643750Y-123575000I-218750J0D01*
G01*
X127206250Y-123575000D01*
G75*
G02*
X126987500Y-123356250I0J218750D01*
G01*
G37*
M02*
