%FSLAX45Y45*%
G04 Gerber Fmt 4.5, Leading zero omitted, Abs format (unit mm)*
G04 Created by KiCad (PCBNEW (5.99.0-1438-g3759799d1)) date 2020-05-11 10:33:17*
%MOMM*%
%LPD*%
G01*
G04 APERTURE LIST*
%TA.AperFunction,Profile*%
%ADD10C,0.200000*%
%TD*%
%ADD11C,-0.000001*%
%ADD12C,0.320000*%
%ADD13C,0.400000*%
%ADD14C,0.200000*%
G04 APERTURE END LIST*
D10*
X9400000Y-3500000D02*
X15650000Y-3500000D01*
X15650000Y-13100000D02*
X9400000Y-13100000D01*
X9400000Y-13100000D02*
X9400000Y-3500000D01*
X15650000Y-3500000D02*
X15650000Y-13100000D01*
D11*
D12*
X9640000Y-12540000D02*
X9960000Y-12860000D01*
X9960000Y-12540000D02*
X9640000Y-12860000D01*
X14040000Y-4040000D02*
X14360000Y-4360000D01*
X14360000Y-4040000D02*
X14040000Y-4360000D01*
X14040000Y-6840000D02*
X14360000Y-7160000D01*
X14360000Y-6840000D02*
X14040000Y-7160000D01*
X9640000Y-6840000D02*
X9960000Y-7160000D01*
X9960000Y-6840000D02*
X9640000Y-7160000D01*
X9640000Y-4040000D02*
X9960000Y-4360000D01*
X9960000Y-4040000D02*
X9640000Y-4360000D01*
X14040000Y-12540000D02*
X14360000Y-12860000D01*
X14360000Y-12540000D02*
X14040000Y-12860000D01*
D13*
X15395000Y-7909500D02*
G75*
G03*
X15395000Y-7909500I-200000J0D01*
G01*
X15395000Y-10220500D02*
G75*
G03*
X15395000Y-10220500I-200000J0D01*
G01*
X11149500Y-3970000D02*
G75*
G03*
X11149500Y-3970000I-200000J0D01*
G01*
X13460500Y-3970000D02*
G75*
G03*
X13460500Y-3970000I-200000J0D01*
G01*
D11*
X9652619Y-13415476D02*
X9652619Y-13215476D01*
X9700238Y-13215476D01*
X9728809Y-13225000D01*
X9747857Y-13244048D01*
X9757381Y-13263095D01*
X9766905Y-13301190D01*
X9766905Y-13329762D01*
X9757381Y-13367857D01*
X9747857Y-13386905D01*
X9728809Y-13405952D01*
X9700238Y-13415476D01*
X9652619Y-13415476D01*
X9852619Y-13415476D02*
X9852619Y-13282143D01*
X9852619Y-13320238D02*
X9862143Y-13301190D01*
X9871667Y-13291667D01*
X9890714Y-13282143D01*
X9909762Y-13282143D01*
X9976428Y-13415476D02*
X9976428Y-13282143D01*
X9976428Y-13215476D02*
X9966905Y-13225000D01*
X9976428Y-13234524D01*
X9985952Y-13225000D01*
X9976428Y-13215476D01*
X9976428Y-13234524D01*
X10100238Y-13415476D02*
X10081190Y-13405952D01*
X10071667Y-13386905D01*
X10071667Y-13215476D01*
X10205000Y-13415476D02*
X10185952Y-13405952D01*
X10176428Y-13386905D01*
X10176428Y-13215476D01*
X10433571Y-13415476D02*
X10433571Y-13215476D01*
X10500238Y-13358333D01*
X10566905Y-13215476D01*
X10566905Y-13415476D01*
X10747857Y-13415476D02*
X10747857Y-13310714D01*
X10738333Y-13291667D01*
X10719286Y-13282143D01*
X10681190Y-13282143D01*
X10662143Y-13291667D01*
X10747857Y-13405952D02*
X10728809Y-13415476D01*
X10681190Y-13415476D01*
X10662143Y-13405952D01*
X10652619Y-13386905D01*
X10652619Y-13367857D01*
X10662143Y-13348810D01*
X10681190Y-13339286D01*
X10728809Y-13339286D01*
X10747857Y-13329762D01*
X10843095Y-13282143D02*
X10843095Y-13482143D01*
X10843095Y-13291667D02*
X10862143Y-13282143D01*
X10900238Y-13282143D01*
X10919286Y-13291667D01*
X10928809Y-13301190D01*
X10938333Y-13320238D01*
X10938333Y-13377381D01*
X10928809Y-13396429D01*
X10919286Y-13405952D01*
X10900238Y-13415476D01*
X10862143Y-13415476D01*
X10843095Y-13405952D01*
X11024048Y-13396429D02*
X11033571Y-13405952D01*
X11024048Y-13415476D01*
X11014524Y-13405952D01*
X11024048Y-13396429D01*
X11024048Y-13415476D01*
X11024048Y-13291667D02*
X11033571Y-13301190D01*
X11024048Y-13310714D01*
X11014524Y-13301190D01*
X11024048Y-13291667D01*
X11024048Y-13310714D01*
D14*
X9195000Y-13645000D02*
X9395000Y-13845000D01*
X9395000Y-13645000D02*
X9195000Y-13845000D01*
D11*
X9633571Y-13635476D02*
X9757381Y-13635476D01*
X9690714Y-13711667D01*
X9719286Y-13711667D01*
X9738333Y-13721190D01*
X9747857Y-13730714D01*
X9757381Y-13749762D01*
X9757381Y-13797381D01*
X9747857Y-13816429D01*
X9738333Y-13825952D01*
X9719286Y-13835476D01*
X9662143Y-13835476D01*
X9643095Y-13825952D01*
X9633571Y-13816429D01*
X9843095Y-13816429D02*
X9852619Y-13825952D01*
X9843095Y-13835476D01*
X9833571Y-13825952D01*
X9843095Y-13816429D01*
X9843095Y-13835476D01*
X9928809Y-13654524D02*
X9938333Y-13645000D01*
X9957381Y-13635476D01*
X10005000Y-13635476D01*
X10024048Y-13645000D01*
X10033571Y-13654524D01*
X10043095Y-13673571D01*
X10043095Y-13692619D01*
X10033571Y-13721190D01*
X9919286Y-13835476D01*
X10043095Y-13835476D01*
X10166905Y-13635476D02*
X10185952Y-13635476D01*
X10205000Y-13645000D01*
X10214524Y-13654524D01*
X10224048Y-13673571D01*
X10233571Y-13711667D01*
X10233571Y-13759286D01*
X10224048Y-13797381D01*
X10214524Y-13816429D01*
X10205000Y-13825952D01*
X10185952Y-13835476D01*
X10166905Y-13835476D01*
X10147857Y-13825952D01*
X10138333Y-13816429D01*
X10128809Y-13797381D01*
X10119286Y-13759286D01*
X10119286Y-13711667D01*
X10128809Y-13673571D01*
X10138333Y-13654524D01*
X10147857Y-13645000D01*
X10166905Y-13635476D01*
X10357381Y-13635476D02*
X10376428Y-13635476D01*
X10395476Y-13645000D01*
X10405000Y-13654524D01*
X10414524Y-13673571D01*
X10424048Y-13711667D01*
X10424048Y-13759286D01*
X10414524Y-13797381D01*
X10405000Y-13816429D01*
X10395476Y-13825952D01*
X10376428Y-13835476D01*
X10357381Y-13835476D01*
X10338333Y-13825952D01*
X10328809Y-13816429D01*
X10319286Y-13797381D01*
X10309762Y-13759286D01*
X10309762Y-13711667D01*
X10319286Y-13673571D01*
X10328809Y-13654524D01*
X10338333Y-13645000D01*
X10357381Y-13635476D01*
X10509762Y-13835476D02*
X10509762Y-13702143D01*
X10509762Y-13721190D02*
X10519286Y-13711667D01*
X10538333Y-13702143D01*
X10566905Y-13702143D01*
X10585952Y-13711667D01*
X10595476Y-13730714D01*
X10595476Y-13835476D01*
X10595476Y-13730714D02*
X10605000Y-13711667D01*
X10624048Y-13702143D01*
X10652619Y-13702143D01*
X10671667Y-13711667D01*
X10681190Y-13730714D01*
X10681190Y-13835476D01*
X10776428Y-13835476D02*
X10776428Y-13702143D01*
X10776428Y-13721190D02*
X10785952Y-13711667D01*
X10805000Y-13702143D01*
X10833571Y-13702143D01*
X10852619Y-13711667D01*
X10862143Y-13730714D01*
X10862143Y-13835476D01*
X10862143Y-13730714D02*
X10871667Y-13711667D01*
X10890714Y-13702143D01*
X10919286Y-13702143D01*
X10938333Y-13711667D01*
X10947857Y-13730714D01*
X10947857Y-13835476D01*
X11338333Y-13625952D02*
X11166905Y-13883095D01*
X11595476Y-13635476D02*
X11614524Y-13635476D01*
X11633571Y-13645000D01*
X11643095Y-13654524D01*
X11652619Y-13673571D01*
X11662143Y-13711667D01*
X11662143Y-13759286D01*
X11652619Y-13797381D01*
X11643095Y-13816429D01*
X11633571Y-13825952D01*
X11614524Y-13835476D01*
X11595476Y-13835476D01*
X11576428Y-13825952D01*
X11566905Y-13816429D01*
X11557381Y-13797381D01*
X11547857Y-13759286D01*
X11547857Y-13711667D01*
X11557381Y-13673571D01*
X11566905Y-13654524D01*
X11576428Y-13645000D01*
X11595476Y-13635476D01*
X11747857Y-13816429D02*
X11757381Y-13825952D01*
X11747857Y-13835476D01*
X11738333Y-13825952D01*
X11747857Y-13816429D01*
X11747857Y-13835476D01*
X11947857Y-13835476D02*
X11833571Y-13835476D01*
X11890714Y-13835476D02*
X11890714Y-13635476D01*
X11871666Y-13664048D01*
X11852619Y-13683095D01*
X11833571Y-13692619D01*
X12024047Y-13654524D02*
X12033571Y-13645000D01*
X12052619Y-13635476D01*
X12100238Y-13635476D01*
X12119286Y-13645000D01*
X12128809Y-13654524D01*
X12138333Y-13673571D01*
X12138333Y-13692619D01*
X12128809Y-13721190D01*
X12014524Y-13835476D01*
X12138333Y-13835476D01*
X12309762Y-13635476D02*
X12271666Y-13635476D01*
X12252619Y-13645000D01*
X12243095Y-13654524D01*
X12224047Y-13683095D01*
X12214524Y-13721190D01*
X12214524Y-13797381D01*
X12224047Y-13816429D01*
X12233571Y-13825952D01*
X12252619Y-13835476D01*
X12290714Y-13835476D01*
X12309762Y-13825952D01*
X12319286Y-13816429D01*
X12328809Y-13797381D01*
X12328809Y-13749762D01*
X12319286Y-13730714D01*
X12309762Y-13721190D01*
X12290714Y-13711667D01*
X12252619Y-13711667D01*
X12233571Y-13721190D01*
X12224047Y-13730714D01*
X12214524Y-13749762D01*
X12452619Y-13635476D02*
X12471666Y-13635476D01*
X12490714Y-13645000D01*
X12500238Y-13654524D01*
X12509762Y-13673571D01*
X12519286Y-13711667D01*
X12519286Y-13759286D01*
X12509762Y-13797381D01*
X12500238Y-13816429D01*
X12490714Y-13825952D01*
X12471666Y-13835476D01*
X12452619Y-13835476D01*
X12433571Y-13825952D01*
X12424047Y-13816429D01*
X12414524Y-13797381D01*
X12405000Y-13759286D01*
X12405000Y-13711667D01*
X12414524Y-13673571D01*
X12424047Y-13654524D01*
X12433571Y-13645000D01*
X12452619Y-13635476D01*
X12595476Y-13635476D02*
X12595476Y-13673571D01*
X12671666Y-13635476D02*
X12671666Y-13673571D01*
X12966905Y-13911667D02*
X12957381Y-13902143D01*
X12938333Y-13873571D01*
X12928809Y-13854524D01*
X12919286Y-13825952D01*
X12909762Y-13778333D01*
X12909762Y-13740238D01*
X12919286Y-13692619D01*
X12928809Y-13664048D01*
X12938333Y-13645000D01*
X12957381Y-13616429D01*
X12966905Y-13606905D01*
X13128809Y-13635476D02*
X13090714Y-13635476D01*
X13071666Y-13645000D01*
X13062143Y-13654524D01*
X13043095Y-13683095D01*
X13033571Y-13721190D01*
X13033571Y-13797381D01*
X13043095Y-13816429D01*
X13052619Y-13825952D01*
X13071666Y-13835476D01*
X13109762Y-13835476D01*
X13128809Y-13825952D01*
X13138333Y-13816429D01*
X13147857Y-13797381D01*
X13147857Y-13749762D01*
X13138333Y-13730714D01*
X13128809Y-13721190D01*
X13109762Y-13711667D01*
X13071666Y-13711667D01*
X13052619Y-13721190D01*
X13043095Y-13730714D01*
X13033571Y-13749762D01*
X13385952Y-13835476D02*
X13385952Y-13635476D01*
X13471666Y-13835476D02*
X13471666Y-13730714D01*
X13462143Y-13711667D01*
X13443095Y-13702143D01*
X13414524Y-13702143D01*
X13395476Y-13711667D01*
X13385952Y-13721190D01*
X13595476Y-13835476D02*
X13576428Y-13825952D01*
X13566905Y-13816429D01*
X13557381Y-13797381D01*
X13557381Y-13740238D01*
X13566905Y-13721190D01*
X13576428Y-13711667D01*
X13595476Y-13702143D01*
X13624047Y-13702143D01*
X13643095Y-13711667D01*
X13652619Y-13721190D01*
X13662143Y-13740238D01*
X13662143Y-13797381D01*
X13652619Y-13816429D01*
X13643095Y-13825952D01*
X13624047Y-13835476D01*
X13595476Y-13835476D01*
X13776428Y-13835476D02*
X13757381Y-13825952D01*
X13747857Y-13806905D01*
X13747857Y-13635476D01*
X13928809Y-13825952D02*
X13909762Y-13835476D01*
X13871666Y-13835476D01*
X13852619Y-13825952D01*
X13843095Y-13806905D01*
X13843095Y-13730714D01*
X13852619Y-13711667D01*
X13871666Y-13702143D01*
X13909762Y-13702143D01*
X13928809Y-13711667D01*
X13938333Y-13730714D01*
X13938333Y-13749762D01*
X13843095Y-13768810D01*
X14014524Y-13825952D02*
X14033571Y-13835476D01*
X14071666Y-13835476D01*
X14090714Y-13825952D01*
X14100238Y-13806905D01*
X14100238Y-13797381D01*
X14090714Y-13778333D01*
X14071666Y-13768810D01*
X14043095Y-13768810D01*
X14024047Y-13759286D01*
X14014524Y-13740238D01*
X14014524Y-13730714D01*
X14024047Y-13711667D01*
X14043095Y-13702143D01*
X14071666Y-13702143D01*
X14090714Y-13711667D01*
X14166905Y-13911667D02*
X14176428Y-13902143D01*
X14195476Y-13873571D01*
X14205000Y-13854524D01*
X14214524Y-13825952D01*
X14224047Y-13778333D01*
X14224047Y-13740238D01*
X14214524Y-13692619D01*
X14205000Y-13664048D01*
X14195476Y-13645000D01*
X14176428Y-13616429D01*
X14166905Y-13606905D01*
X14528809Y-13911667D02*
X14519286Y-13902143D01*
X14500238Y-13873571D01*
X14490714Y-13854524D01*
X14481190Y-13825952D01*
X14471666Y-13778333D01*
X14471666Y-13740238D01*
X14481190Y-13692619D01*
X14490714Y-13664048D01*
X14500238Y-13645000D01*
X14519286Y-13616429D01*
X14528809Y-13606905D01*
X14605000Y-13702143D02*
X14605000Y-13835476D01*
X14605000Y-13721190D02*
X14614524Y-13711667D01*
X14633571Y-13702143D01*
X14662143Y-13702143D01*
X14681190Y-13711667D01*
X14690714Y-13730714D01*
X14690714Y-13835476D01*
X14814524Y-13835476D02*
X14795476Y-13825952D01*
X14785952Y-13816429D01*
X14776428Y-13797381D01*
X14776428Y-13740238D01*
X14785952Y-13721190D01*
X14795476Y-13711667D01*
X14814524Y-13702143D01*
X14843095Y-13702143D01*
X14862143Y-13711667D01*
X14871666Y-13721190D01*
X14881190Y-13740238D01*
X14881190Y-13797381D01*
X14871666Y-13816429D01*
X14862143Y-13825952D01*
X14843095Y-13835476D01*
X14814524Y-13835476D01*
X14938333Y-13702143D02*
X15014524Y-13702143D01*
X14966905Y-13635476D02*
X14966905Y-13806905D01*
X14976428Y-13825952D01*
X14995476Y-13835476D01*
X15014524Y-13835476D01*
X15233571Y-13702143D02*
X15233571Y-13902143D01*
X15233571Y-13711667D02*
X15252619Y-13702143D01*
X15290714Y-13702143D01*
X15309762Y-13711667D01*
X15319286Y-13721190D01*
X15328809Y-13740238D01*
X15328809Y-13797381D01*
X15319286Y-13816429D01*
X15309762Y-13825952D01*
X15290714Y-13835476D01*
X15252619Y-13835476D01*
X15233571Y-13825952D01*
X15443095Y-13835476D02*
X15424047Y-13825952D01*
X15414524Y-13806905D01*
X15414524Y-13635476D01*
X15605000Y-13835476D02*
X15605000Y-13730714D01*
X15595476Y-13711667D01*
X15576428Y-13702143D01*
X15538333Y-13702143D01*
X15519286Y-13711667D01*
X15605000Y-13825952D02*
X15585952Y-13835476D01*
X15538333Y-13835476D01*
X15519286Y-13825952D01*
X15509762Y-13806905D01*
X15509762Y-13787857D01*
X15519286Y-13768810D01*
X15538333Y-13759286D01*
X15585952Y-13759286D01*
X15605000Y-13749762D01*
X15671666Y-13702143D02*
X15747857Y-13702143D01*
X15700238Y-13635476D02*
X15700238Y-13806905D01*
X15709762Y-13825952D01*
X15728809Y-13835476D01*
X15747857Y-13835476D01*
X15890714Y-13825952D02*
X15871666Y-13835476D01*
X15833571Y-13835476D01*
X15814524Y-13825952D01*
X15805000Y-13806905D01*
X15805000Y-13730714D01*
X15814524Y-13711667D01*
X15833571Y-13702143D01*
X15871666Y-13702143D01*
X15890714Y-13711667D01*
X15900238Y-13730714D01*
X15900238Y-13749762D01*
X15805000Y-13768810D01*
X16071666Y-13835476D02*
X16071666Y-13635476D01*
X16071666Y-13825952D02*
X16052619Y-13835476D01*
X16014524Y-13835476D01*
X15995476Y-13825952D01*
X15985952Y-13816429D01*
X15976428Y-13797381D01*
X15976428Y-13740238D01*
X15985952Y-13721190D01*
X15995476Y-13711667D01*
X16014524Y-13702143D01*
X16052619Y-13702143D01*
X16071666Y-13711667D01*
X16147857Y-13911667D02*
X16157381Y-13902143D01*
X16176428Y-13873571D01*
X16185952Y-13854524D01*
X16195476Y-13825952D01*
X16205000Y-13778333D01*
X16205000Y-13740238D01*
X16195476Y-13692619D01*
X16185952Y-13664048D01*
X16176428Y-13645000D01*
X16157381Y-13616429D01*
X16147857Y-13606905D01*
D14*
X9395000Y-14065000D02*
G75*
G03*
X9395000Y-14065000I-100000J0D01*
G01*
D11*
X9738333Y-14022143D02*
X9738333Y-14155476D01*
X9690714Y-13945952D02*
X9643095Y-14088810D01*
X9766905Y-14088810D01*
X9843095Y-14136429D02*
X9852619Y-14145952D01*
X9843095Y-14155476D01*
X9833571Y-14145952D01*
X9843095Y-14136429D01*
X9843095Y-14155476D01*
X9976428Y-13955476D02*
X9995476Y-13955476D01*
X10014524Y-13965000D01*
X10024048Y-13974524D01*
X10033571Y-13993571D01*
X10043095Y-14031667D01*
X10043095Y-14079286D01*
X10033571Y-14117381D01*
X10024048Y-14136429D01*
X10014524Y-14145952D01*
X9995476Y-14155476D01*
X9976428Y-14155476D01*
X9957381Y-14145952D01*
X9947857Y-14136429D01*
X9938333Y-14117381D01*
X9928809Y-14079286D01*
X9928809Y-14031667D01*
X9938333Y-13993571D01*
X9947857Y-13974524D01*
X9957381Y-13965000D01*
X9976428Y-13955476D01*
X10166905Y-13955476D02*
X10185952Y-13955476D01*
X10205000Y-13965000D01*
X10214524Y-13974524D01*
X10224048Y-13993571D01*
X10233571Y-14031667D01*
X10233571Y-14079286D01*
X10224048Y-14117381D01*
X10214524Y-14136429D01*
X10205000Y-14145952D01*
X10185952Y-14155476D01*
X10166905Y-14155476D01*
X10147857Y-14145952D01*
X10138333Y-14136429D01*
X10128809Y-14117381D01*
X10119286Y-14079286D01*
X10119286Y-14031667D01*
X10128809Y-13993571D01*
X10138333Y-13974524D01*
X10147857Y-13965000D01*
X10166905Y-13955476D01*
X10357381Y-13955476D02*
X10376428Y-13955476D01*
X10395476Y-13965000D01*
X10405000Y-13974524D01*
X10414524Y-13993571D01*
X10424048Y-14031667D01*
X10424048Y-14079286D01*
X10414524Y-14117381D01*
X10405000Y-14136429D01*
X10395476Y-14145952D01*
X10376428Y-14155476D01*
X10357381Y-14155476D01*
X10338333Y-14145952D01*
X10328809Y-14136429D01*
X10319286Y-14117381D01*
X10309762Y-14079286D01*
X10309762Y-14031667D01*
X10319286Y-13993571D01*
X10328809Y-13974524D01*
X10338333Y-13965000D01*
X10357381Y-13955476D01*
X10509762Y-14155476D02*
X10509762Y-14022143D01*
X10509762Y-14041190D02*
X10519286Y-14031667D01*
X10538333Y-14022143D01*
X10566905Y-14022143D01*
X10585952Y-14031667D01*
X10595476Y-14050714D01*
X10595476Y-14155476D01*
X10595476Y-14050714D02*
X10605000Y-14031667D01*
X10624048Y-14022143D01*
X10652619Y-14022143D01*
X10671667Y-14031667D01*
X10681190Y-14050714D01*
X10681190Y-14155476D01*
X10776428Y-14155476D02*
X10776428Y-14022143D01*
X10776428Y-14041190D02*
X10785952Y-14031667D01*
X10805000Y-14022143D01*
X10833571Y-14022143D01*
X10852619Y-14031667D01*
X10862143Y-14050714D01*
X10862143Y-14155476D01*
X10862143Y-14050714D02*
X10871667Y-14031667D01*
X10890714Y-14022143D01*
X10919286Y-14022143D01*
X10938333Y-14031667D01*
X10947857Y-14050714D01*
X10947857Y-14155476D01*
X11338333Y-13945952D02*
X11166905Y-14203095D01*
X11595476Y-13955476D02*
X11614524Y-13955476D01*
X11633571Y-13965000D01*
X11643095Y-13974524D01*
X11652619Y-13993571D01*
X11662143Y-14031667D01*
X11662143Y-14079286D01*
X11652619Y-14117381D01*
X11643095Y-14136429D01*
X11633571Y-14145952D01*
X11614524Y-14155476D01*
X11595476Y-14155476D01*
X11576428Y-14145952D01*
X11566905Y-14136429D01*
X11557381Y-14117381D01*
X11547857Y-14079286D01*
X11547857Y-14031667D01*
X11557381Y-13993571D01*
X11566905Y-13974524D01*
X11576428Y-13965000D01*
X11595476Y-13955476D01*
X11747857Y-14136429D02*
X11757381Y-14145952D01*
X11747857Y-14155476D01*
X11738333Y-14145952D01*
X11747857Y-14136429D01*
X11747857Y-14155476D01*
X11947857Y-14155476D02*
X11833571Y-14155476D01*
X11890714Y-14155476D02*
X11890714Y-13955476D01*
X11871666Y-13984048D01*
X11852619Y-14003095D01*
X11833571Y-14012619D01*
X12128809Y-13955476D02*
X12033571Y-13955476D01*
X12024047Y-14050714D01*
X12033571Y-14041190D01*
X12052619Y-14031667D01*
X12100238Y-14031667D01*
X12119286Y-14041190D01*
X12128809Y-14050714D01*
X12138333Y-14069762D01*
X12138333Y-14117381D01*
X12128809Y-14136429D01*
X12119286Y-14145952D01*
X12100238Y-14155476D01*
X12052619Y-14155476D01*
X12033571Y-14145952D01*
X12024047Y-14136429D01*
X12205000Y-13955476D02*
X12338333Y-13955476D01*
X12252619Y-14155476D01*
X12509762Y-13955476D02*
X12414524Y-13955476D01*
X12405000Y-14050714D01*
X12414524Y-14041190D01*
X12433571Y-14031667D01*
X12481190Y-14031667D01*
X12500238Y-14041190D01*
X12509762Y-14050714D01*
X12519286Y-14069762D01*
X12519286Y-14117381D01*
X12509762Y-14136429D01*
X12500238Y-14145952D01*
X12481190Y-14155476D01*
X12433571Y-14155476D01*
X12414524Y-14145952D01*
X12405000Y-14136429D01*
X12595476Y-13955476D02*
X12595476Y-13993571D01*
X12671666Y-13955476D02*
X12671666Y-13993571D01*
X12966905Y-14231667D02*
X12957381Y-14222143D01*
X12938333Y-14193571D01*
X12928809Y-14174524D01*
X12919286Y-14145952D01*
X12909762Y-14098333D01*
X12909762Y-14060238D01*
X12919286Y-14012619D01*
X12928809Y-13984048D01*
X12938333Y-13965000D01*
X12957381Y-13936429D01*
X12966905Y-13926905D01*
X13128809Y-14022143D02*
X13128809Y-14155476D01*
X13081190Y-13945952D02*
X13033571Y-14088810D01*
X13157381Y-14088810D01*
X13385952Y-14155476D02*
X13385952Y-13955476D01*
X13471666Y-14155476D02*
X13471666Y-14050714D01*
X13462143Y-14031667D01*
X13443095Y-14022143D01*
X13414524Y-14022143D01*
X13395476Y-14031667D01*
X13385952Y-14041190D01*
X13595476Y-14155476D02*
X13576428Y-14145952D01*
X13566905Y-14136429D01*
X13557381Y-14117381D01*
X13557381Y-14060238D01*
X13566905Y-14041190D01*
X13576428Y-14031667D01*
X13595476Y-14022143D01*
X13624047Y-14022143D01*
X13643095Y-14031667D01*
X13652619Y-14041190D01*
X13662143Y-14060238D01*
X13662143Y-14117381D01*
X13652619Y-14136429D01*
X13643095Y-14145952D01*
X13624047Y-14155476D01*
X13595476Y-14155476D01*
X13776428Y-14155476D02*
X13757381Y-14145952D01*
X13747857Y-14126905D01*
X13747857Y-13955476D01*
X13928809Y-14145952D02*
X13909762Y-14155476D01*
X13871666Y-14155476D01*
X13852619Y-14145952D01*
X13843095Y-14126905D01*
X13843095Y-14050714D01*
X13852619Y-14031667D01*
X13871666Y-14022143D01*
X13909762Y-14022143D01*
X13928809Y-14031667D01*
X13938333Y-14050714D01*
X13938333Y-14069762D01*
X13843095Y-14088810D01*
X14014524Y-14145952D02*
X14033571Y-14155476D01*
X14071666Y-14155476D01*
X14090714Y-14145952D01*
X14100238Y-14126905D01*
X14100238Y-14117381D01*
X14090714Y-14098333D01*
X14071666Y-14088810D01*
X14043095Y-14088810D01*
X14024047Y-14079286D01*
X14014524Y-14060238D01*
X14014524Y-14050714D01*
X14024047Y-14031667D01*
X14043095Y-14022143D01*
X14071666Y-14022143D01*
X14090714Y-14031667D01*
X14166905Y-14231667D02*
X14176428Y-14222143D01*
X14195476Y-14193571D01*
X14205000Y-14174524D01*
X14214524Y-14145952D01*
X14224047Y-14098333D01*
X14224047Y-14060238D01*
X14214524Y-14012619D01*
X14205000Y-13984048D01*
X14195476Y-13965000D01*
X14176428Y-13936429D01*
X14166905Y-13926905D01*
X14528809Y-14231667D02*
X14519286Y-14222143D01*
X14500238Y-14193571D01*
X14490714Y-14174524D01*
X14481190Y-14145952D01*
X14471666Y-14098333D01*
X14471666Y-14060238D01*
X14481190Y-14012619D01*
X14490714Y-13984048D01*
X14500238Y-13965000D01*
X14519286Y-13936429D01*
X14528809Y-13926905D01*
X14605000Y-14022143D02*
X14605000Y-14155476D01*
X14605000Y-14041190D02*
X14614524Y-14031667D01*
X14633571Y-14022143D01*
X14662143Y-14022143D01*
X14681190Y-14031667D01*
X14690714Y-14050714D01*
X14690714Y-14155476D01*
X14814524Y-14155476D02*
X14795476Y-14145952D01*
X14785952Y-14136429D01*
X14776428Y-14117381D01*
X14776428Y-14060238D01*
X14785952Y-14041190D01*
X14795476Y-14031667D01*
X14814524Y-14022143D01*
X14843095Y-14022143D01*
X14862143Y-14031667D01*
X14871666Y-14041190D01*
X14881190Y-14060238D01*
X14881190Y-14117381D01*
X14871666Y-14136429D01*
X14862143Y-14145952D01*
X14843095Y-14155476D01*
X14814524Y-14155476D01*
X14938333Y-14022143D02*
X15014524Y-14022143D01*
X14966905Y-13955476D02*
X14966905Y-14126905D01*
X14976428Y-14145952D01*
X14995476Y-14155476D01*
X15014524Y-14155476D01*
X15233571Y-14022143D02*
X15233571Y-14222143D01*
X15233571Y-14031667D02*
X15252619Y-14022143D01*
X15290714Y-14022143D01*
X15309762Y-14031667D01*
X15319286Y-14041190D01*
X15328809Y-14060238D01*
X15328809Y-14117381D01*
X15319286Y-14136429D01*
X15309762Y-14145952D01*
X15290714Y-14155476D01*
X15252619Y-14155476D01*
X15233571Y-14145952D01*
X15443095Y-14155476D02*
X15424047Y-14145952D01*
X15414524Y-14126905D01*
X15414524Y-13955476D01*
X15605000Y-14155476D02*
X15605000Y-14050714D01*
X15595476Y-14031667D01*
X15576428Y-14022143D01*
X15538333Y-14022143D01*
X15519286Y-14031667D01*
X15605000Y-14145952D02*
X15585952Y-14155476D01*
X15538333Y-14155476D01*
X15519286Y-14145952D01*
X15509762Y-14126905D01*
X15509762Y-14107857D01*
X15519286Y-14088810D01*
X15538333Y-14079286D01*
X15585952Y-14079286D01*
X15605000Y-14069762D01*
X15671666Y-14022143D02*
X15747857Y-14022143D01*
X15700238Y-13955476D02*
X15700238Y-14126905D01*
X15709762Y-14145952D01*
X15728809Y-14155476D01*
X15747857Y-14155476D01*
X15890714Y-14145952D02*
X15871666Y-14155476D01*
X15833571Y-14155476D01*
X15814524Y-14145952D01*
X15805000Y-14126905D01*
X15805000Y-14050714D01*
X15814524Y-14031667D01*
X15833571Y-14022143D01*
X15871666Y-14022143D01*
X15890714Y-14031667D01*
X15900238Y-14050714D01*
X15900238Y-14069762D01*
X15805000Y-14088810D01*
X16071666Y-14155476D02*
X16071666Y-13955476D01*
X16071666Y-14145952D02*
X16052619Y-14155476D01*
X16014524Y-14155476D01*
X15995476Y-14145952D01*
X15985952Y-14136429D01*
X15976428Y-14117381D01*
X15976428Y-14060238D01*
X15985952Y-14041190D01*
X15995476Y-14031667D01*
X16014524Y-14022143D01*
X16052619Y-14022143D01*
X16071666Y-14031667D01*
X16147857Y-14231667D02*
X16157381Y-14222143D01*
X16176428Y-14193571D01*
X16185952Y-14174524D01*
X16195476Y-14145952D01*
X16205000Y-14098333D01*
X16205000Y-14060238D01*
X16195476Y-14012619D01*
X16185952Y-13984048D01*
X16176428Y-13965000D01*
X16157381Y-13936429D01*
X16147857Y-13926905D01*
M02*
