G04 #@! TF.GenerationSoftware,KiCad,Pcbnew,5.99.0-unknown-14cba9723f~116~ubuntu18.04.1*
G04 #@! TF.CreationDate,2021-02-18T14:39:47+01:00*
G04 #@! TF.ProjectId,Uni_stick,556e695f-7374-4696-936b-2e6b69636164,rev?*
G04 #@! TF.SameCoordinates,Original*
G04 #@! TF.FileFunction,Paste,Top*
G04 #@! TF.FilePolarity,Positive*
%FSLAX46Y46*%
G04 Gerber Fmt 4.6, Leading zero omitted, Abs format (unit mm)*
G04 Created by KiCad (PCBNEW 5.99.0-unknown-14cba9723f~116~ubuntu18.04.1) date 2021-02-18 14:39:47*
%MOMM*%
%LPD*%
G01*
G04 APERTURE LIST*
G04 Aperture macros list*
%AMRoundRect*
0 Rectangle with rounded corners*
0 $1 Rounding radius*
0 $2 $3 $4 $5 $6 $7 $8 $9 X,Y pos of 4 corners*
0 Add a 4 corners polygon primitive as box body*
4,1,4,$2,$3,$4,$5,$6,$7,$8,$9,$2,$3,0*
0 Add four circle primitives for the rounded corners*
1,1,$1+$1,$2,$3*
1,1,$1+$1,$4,$5*
1,1,$1+$1,$6,$7*
1,1,$1+$1,$8,$9*
0 Add four rect primitives between the rounded corners*
20,1,$1+$1,$2,$3,$4,$5,0*
20,1,$1+$1,$4,$5,$6,$7,0*
20,1,$1+$1,$6,$7,$8,$9,0*
20,1,$1+$1,$8,$9,$2,$3,0*%
G04 Aperture macros list end*
%ADD10RoundRect,0.218750X0.256250X-0.218750X0.256250X0.218750X-0.256250X0.218750X-0.256250X-0.218750X0*%
%ADD11R,0.690000X1.350000*%
%ADD12RoundRect,0.218750X0.218750X0.256250X-0.218750X0.256250X-0.218750X-0.256250X0.218750X-0.256250X0*%
%ADD13RoundRect,0.250000X0.787500X1.025000X-0.787500X1.025000X-0.787500X-1.025000X0.787500X-1.025000X0*%
%ADD14R,1.350000X0.690000*%
%ADD15RoundRect,0.218750X-0.218750X-0.256250X0.218750X-0.256250X0.218750X0.256250X-0.218750X0.256250X0*%
G04 APERTURE END LIST*
D10*
X125400000Y-100087500D03*
X125400000Y-98512500D03*
D11*
X139105000Y-101197500D03*
X137835000Y-101197500D03*
X136565000Y-101197500D03*
X135295000Y-101197500D03*
X135295000Y-111027500D03*
X136565000Y-111027500D03*
X137835000Y-111027500D03*
X139105000Y-111027500D03*
D12*
X113287500Y-55900000D03*
X111712500Y-55900000D03*
D10*
X123200000Y-100087500D03*
X123200000Y-98512500D03*
D13*
X112712500Y-59700000D03*
X106487500Y-59700000D03*
D14*
X116197500Y-41395000D03*
X116197500Y-42665000D03*
X116197500Y-43935000D03*
X116197500Y-45205000D03*
X126027500Y-45205000D03*
X126027500Y-43935000D03*
X126027500Y-42665000D03*
X126027500Y-41395000D03*
D10*
X122200000Y-103887500D03*
X122200000Y-102312500D03*
X141600000Y-53787500D03*
X141600000Y-52212500D03*
D15*
X126912500Y-72600000D03*
X128487500Y-72600000D03*
D13*
X101312500Y-114300000D03*
X95087500Y-114300000D03*
D12*
X109087500Y-55900000D03*
X107512500Y-55900000D03*
D10*
X113500000Y-77387500D03*
X113500000Y-75812500D03*
D15*
X116012500Y-100200000D03*
X117587500Y-100200000D03*
D13*
X101312500Y-108500000D03*
X95087500Y-108500000D03*
X112712500Y-65200000D03*
X106487500Y-65200000D03*
D15*
X116012500Y-97900000D03*
X117587500Y-97900000D03*
D13*
X110912500Y-70600000D03*
X104687500Y-70600000D03*
D10*
X125300000Y-103887500D03*
X125300000Y-102312500D03*
X127500000Y-86487500D03*
X127500000Y-84912500D03*
D12*
X98787500Y-104500000D03*
X97212500Y-104500000D03*
D10*
X137400000Y-59887500D03*
X137400000Y-58312500D03*
D15*
X115912500Y-122500000D03*
X117487500Y-122500000D03*
D10*
X139000000Y-53787500D03*
X139000000Y-52212500D03*
D15*
X115912500Y-124800000D03*
X117487500Y-124800000D03*
D13*
X110912500Y-76500000D03*
X104687500Y-76500000D03*
D15*
X126912500Y-74800000D03*
X128487500Y-74800000D03*
M02*
