M48
; DRILL file {KiCad 5.99.0-unknown-14cba9723f~116~ubuntu18.04.1} date Thu Feb 18 14:39:51 2021
; FORMAT={-:-/ absolute / inch / decimal}
; #@! TF.CreationDate,2021-02-18T14:39:51+01:00
; #@! TF.GenerationSoftware,Kicad,Pcbnew,5.99.0-unknown-14cba9723f~116~ubuntu18.04.1
; #@! TF.FileFunction,Plated,1,2,PTH
FMAT,2
INCH
T1C0.0118
T2C0.0157
T3C0.0300
T4C0.0394
T5C0.0472
T6C0.0610
%
G90
G05
T1
X0.2913Y0.6929
X0.315Y0.7185
X0.594Y0.6673
X0.5945Y0.7185
X0.6142Y0.6929
X0.6142Y0.6417
X0.7835Y1.1693
X0.7874Y1.1299
X0.7874Y1.0984
X0.7913Y1.6299
X0.7913Y1.5984
X0.7913Y1.5669
X0.7913Y1.5354
X0.7913Y1.5039
X0.8661Y2.5906
X0.9055Y2.5906
X0.9803Y0.5157
X1.0591Y1.1299
X1.0591Y1.0984
X1.0984Y0.7736
X1.126Y1.2008
X1.153Y1.75
X1.1535Y1.6988
X1.1732Y0.6811
X1.1772Y1.7244
X1.1811Y3.0236
X1.2047Y0.6811
X1.2047Y0.1969
X1.2402Y0.6811
X1.252Y1.2047
X1.2559Y1.9921
X1.2717Y0.6811
X1.2776Y2.0177
X1.2992Y2.0433
X1.3031Y0.1969
X1.3071Y1.1654
X1.3209Y2.0689
X1.4016Y0.1969
X1.4055Y1.1654
X1.4961Y2.8071
X1.4961Y2.7756
X1.5906Y3.4291
X1.6142Y0.3346
X1.6142Y0.2441
X1.6299Y2.1654
X1.6299Y1.3031
X1.6299Y1.2126
X1.6772Y1.2323
X1.6772Y1.189
X1.7283Y2.1654
X1.7402Y1.1654
X1.8228Y0.6457
X1.8228Y0.6142
X1.8268Y2.1654
X1.8386Y1.2795
X1.9252Y1.1299
X1.9646Y0.6457
X1.9646Y0.6142
X1.9685Y1.8504
X2.0433Y2.2992
X2.0433Y2.2126
X2.0787Y2.1693
X2.1102Y2.1693
X2.2756Y1.2717
X2.3228Y1.2402
X2.3583Y2.9055
X2.374Y1.1181
X2.5236Y3.1417
T2
X0.7323Y1.0433
X0.752Y0.9173
X0.752Y0.8543
X0.7559Y0.689
X0.7559Y0.626
X1.126Y2.1772
X1.126Y2.1142
X1.1299Y2.4094
X1.1299Y2.3465
X1.1969Y2.622
X1.1969Y2.5591
X1.2008Y2.8386
X1.2008Y2.7756
X1.3071Y2.9567
X1.4606Y2.2165
T3
X1.4646Y3.0827
X1.5646Y3.0827
X1.6646Y3.0827
X1.7646Y3.0827
X1.8646Y3.0827
X1.9646Y3.0827
X2.0079Y1.2717
X2.0079Y1.1717
X2.0079Y1.0717
X2.0079Y0.9717
X2.0079Y0.8717
X2.0079Y0.7717
T4
X0.0591Y1.3579
X0.0591Y1.2579
X0.0591Y1.1579
X0.0591Y1.0579
X0.0591Y0.9579
X0.0591Y0.8579
X0.0591Y0.7579
X0.0591Y0.6579
X0.0591Y0.5579
X0.0591Y0.4579
X0.0591Y0.3579
X0.0591Y0.2579
X0.0591Y0.1579
X0.0591Y0.0579
X0.1591Y1.3579
X0.1591Y1.2579
X0.1591Y1.1579
X0.1591Y1.0579
X0.1591Y0.9579
X0.1591Y0.8579
X0.1591Y0.7579
X0.1591Y0.6579
X0.1591Y0.5579
X0.1591Y0.4579
X0.1591Y0.3579
X0.1591Y0.2579
X0.1591Y0.1579
X0.1591Y0.0579
X1.122Y1.0827
X1.126Y0.122
X1.222Y1.0827
X1.226Y0.122
X1.322Y1.0827
X1.326Y0.122
X1.422Y1.0827
X1.426Y0.122
X1.522Y1.0827
X1.526Y0.122
X1.5472Y2.0906
X1.622Y1.0827
X1.626Y0.122
X1.6472Y2.0906
X1.7472Y2.0906
X1.8472Y2.0906
X1.9472Y2.0906
X2.0472Y2.0906
T5
X0.3937Y1.2638
X0.3937Y1.126
X0.3937Y0.9882
X0.3937Y0.8504
X0.3937Y0.5669
X0.3937Y0.4291
X0.3937Y0.2913
X0.3937Y0.1535
X0.7913Y3.0709
X0.7913Y2.9331
X0.7913Y2.1457
X0.7913Y2.0079
X0.7913Y1.8701
X0.7913Y1.7323
T6
X1.1028Y0.9469
X1.1028Y0.6469
X1.1028Y0.5469
X1.1028Y0.4469
X1.1067Y1.9154
X1.1067Y1.6154
X1.1067Y1.5154
X1.1067Y1.4154
X1.2028Y0.9469
X1.2028Y0.4469
X1.2067Y1.9154
X1.2067Y1.4154
X1.3028Y0.9469
X1.3028Y0.4469
X1.3067Y1.9154
X1.3067Y1.4154
X1.4028Y0.9469
X1.4028Y0.4469
X1.4067Y1.9154
X1.4067Y1.4154
X1.5028Y0.9469
X1.5028Y0.4469
X1.5067Y1.9154
X1.5067Y1.4154
X1.528Y2.9154
X1.528Y2.6154
X1.528Y2.5154
X1.528Y2.4154
X1.6028Y0.9469
X1.6028Y0.4469
X1.6067Y1.9154
X1.6067Y1.4154
X1.628Y2.9154
X1.628Y2.4154
X1.7028Y0.9469
X1.7028Y0.4469
X1.7067Y1.9154
X1.7067Y1.4154
X1.728Y2.9154
X1.728Y2.4154
X1.8028Y0.9469
X1.8028Y0.4469
X1.8067Y1.9154
X1.8067Y1.4154
X1.828Y2.9154
X1.828Y2.4154
X1.928Y2.9154
X1.928Y2.4154
X2.028Y2.9154
X2.028Y2.4154
X2.128Y2.9154
X2.128Y2.4154
X2.228Y2.9154
X2.228Y2.4154
T0
M30
