G04 #@! TF.GenerationSoftware,KiCad,Pcbnew,5.99.0-unknown-14cba9723f~116~ubuntu18.04.1*
G04 #@! TF.CreationDate,2021-02-18T14:39:48+01:00*
G04 #@! TF.ProjectId,Uni_stick,556e695f-7374-4696-936b-2e6b69636164,rev?*
G04 #@! TF.SameCoordinates,Original*
G04 #@! TF.FileFunction,Legend,Top*
G04 #@! TF.FilePolarity,Positive*
%FSLAX46Y46*%
G04 Gerber Fmt 4.6, Leading zero omitted, Abs format (unit mm)*
G04 Created by KiCad (PCBNEW 5.99.0-unknown-14cba9723f~116~ubuntu18.04.1) date 2021-02-18 14:39:48*
%MOMM*%
%LPD*%
G01*
G04 APERTURE LIST*
%ADD10C,0.254000*%
%ADD11C,0.125000*%
%ADD12C,0.120000*%
%ADD13C,0.150000*%
%ADD14C,0.100000*%
%ADD15C,0.228600*%
G04 APERTURE END LIST*
D10*
X136504523Y-106768119D02*
X137532619Y-106768119D01*
X137653571Y-106707642D01*
X137714047Y-106647166D01*
X137774523Y-106526214D01*
X137774523Y-106284309D01*
X137714047Y-106163357D01*
X137653571Y-106102880D01*
X137532619Y-106042404D01*
X136504523Y-106042404D01*
X136625476Y-105498119D02*
X136565000Y-105437642D01*
X136504523Y-105316690D01*
X136504523Y-105014309D01*
X136565000Y-104893357D01*
X136625476Y-104832880D01*
X136746428Y-104772404D01*
X136867380Y-104772404D01*
X137048809Y-104832880D01*
X137774523Y-105558595D01*
X137774523Y-104772404D01*
X119832880Y-42604523D02*
X119832880Y-43632619D01*
X119893357Y-43753571D01*
X119953833Y-43814047D01*
X120074785Y-43874523D01*
X120316690Y-43874523D01*
X120437642Y-43814047D01*
X120498119Y-43753571D01*
X120558595Y-43632619D01*
X120558595Y-42604523D01*
X121828595Y-43874523D02*
X121102880Y-43874523D01*
X121465738Y-43874523D02*
X121465738Y-42604523D01*
X121344785Y-42785952D01*
X121223833Y-42906904D01*
X121102880Y-42967380D01*
X131961238Y-67484952D02*
X132009619Y-67339809D01*
X132009619Y-67097904D01*
X131961238Y-67001142D01*
X131912857Y-66952761D01*
X131816095Y-66904380D01*
X131719333Y-66904380D01*
X131622571Y-66952761D01*
X131574190Y-67001142D01*
X131525809Y-67097904D01*
X131477428Y-67291428D01*
X131429047Y-67388190D01*
X131380666Y-67436571D01*
X131283904Y-67484952D01*
X131187142Y-67484952D01*
X131090380Y-67436571D01*
X131042000Y-67388190D01*
X130993619Y-67291428D01*
X130993619Y-67049523D01*
X131042000Y-66904380D01*
X130993619Y-66614095D02*
X130993619Y-66033523D01*
X132009619Y-66323809D02*
X130993619Y-66323809D01*
X131477428Y-65694857D02*
X131477428Y-65356190D01*
X132009619Y-65211047D02*
X132009619Y-65694857D01*
X130993619Y-65694857D01*
X130993619Y-65211047D01*
X132009619Y-64775619D02*
X130993619Y-64775619D01*
X130993619Y-64388571D01*
X131042000Y-64291809D01*
X131090380Y-64243428D01*
X131187142Y-64195047D01*
X131332285Y-64195047D01*
X131429047Y-64243428D01*
X131477428Y-64291809D01*
X131525809Y-64388571D01*
X131525809Y-64775619D01*
X121849619Y-67146285D02*
X120833619Y-67146285D01*
X121559333Y-66807619D01*
X120833619Y-66468952D01*
X121849619Y-66468952D01*
X121801238Y-66033523D02*
X121849619Y-65888380D01*
X121849619Y-65646476D01*
X121801238Y-65549714D01*
X121752857Y-65501333D01*
X121656095Y-65452952D01*
X121559333Y-65452952D01*
X121462571Y-65501333D01*
X121414190Y-65549714D01*
X121365809Y-65646476D01*
X121317428Y-65840000D01*
X121269047Y-65936761D01*
X121220666Y-65985142D01*
X121123904Y-66033523D01*
X121027142Y-66033523D01*
X120930380Y-65985142D01*
X120882000Y-65936761D01*
X120833619Y-65840000D01*
X120833619Y-65598095D01*
X120882000Y-65452952D01*
X120930380Y-65065904D02*
X120882000Y-65017523D01*
X120833619Y-64920761D01*
X120833619Y-64678857D01*
X120882000Y-64582095D01*
X120930380Y-64533714D01*
X121027142Y-64485333D01*
X121123904Y-64485333D01*
X121269047Y-64533714D01*
X121849619Y-65114285D01*
X121849619Y-64485333D01*
X119859619Y-67206285D02*
X118843619Y-67206285D01*
X119569333Y-66867619D01*
X118843619Y-66528952D01*
X119859619Y-66528952D01*
X119811238Y-66093523D02*
X119859619Y-65948380D01*
X119859619Y-65706476D01*
X119811238Y-65609714D01*
X119762857Y-65561333D01*
X119666095Y-65512952D01*
X119569333Y-65512952D01*
X119472571Y-65561333D01*
X119424190Y-65609714D01*
X119375809Y-65706476D01*
X119327428Y-65900000D01*
X119279047Y-65996761D01*
X119230666Y-66045142D01*
X119133904Y-66093523D01*
X119037142Y-66093523D01*
X118940380Y-66045142D01*
X118892000Y-65996761D01*
X118843619Y-65900000D01*
X118843619Y-65658095D01*
X118892000Y-65512952D01*
X119859619Y-64545333D02*
X119859619Y-65125904D01*
X119859619Y-64835619D02*
X118843619Y-64835619D01*
X118988761Y-64932380D01*
X119085523Y-65029142D01*
X119133904Y-65125904D01*
X124389619Y-62017904D02*
X123373619Y-62017904D01*
X124099333Y-61679238D01*
X123373619Y-61340571D01*
X124389619Y-61340571D01*
X123470380Y-60905142D02*
X123422000Y-60856761D01*
X123373619Y-60760000D01*
X123373619Y-60518095D01*
X123422000Y-60421333D01*
X123470380Y-60372952D01*
X123567142Y-60324571D01*
X123663904Y-60324571D01*
X123809047Y-60372952D01*
X124389619Y-60953523D01*
X124389619Y-60324571D01*
X124099333Y-59937523D02*
X124099333Y-59453714D01*
X124389619Y-60034285D02*
X123373619Y-59695619D01*
X124389619Y-59356952D01*
X134549619Y-66856000D02*
X133533619Y-66856000D01*
X133533619Y-66614095D01*
X133582000Y-66468952D01*
X133678761Y-66372190D01*
X133775523Y-66323809D01*
X133969047Y-66275428D01*
X134114190Y-66275428D01*
X134307714Y-66323809D01*
X134404476Y-66372190D01*
X134501238Y-66468952D01*
X134549619Y-66614095D01*
X134549619Y-66856000D01*
X134549619Y-65840000D02*
X133533619Y-65840000D01*
X134549619Y-64775619D02*
X134065809Y-65114285D01*
X134549619Y-65356190D02*
X133533619Y-65356190D01*
X133533619Y-64969142D01*
X133582000Y-64872380D01*
X133630380Y-64824000D01*
X133727142Y-64775619D01*
X133872285Y-64775619D01*
X133969047Y-64824000D01*
X134017428Y-64872380D01*
X134065809Y-64969142D01*
X134065809Y-65356190D01*
X115753619Y-61679238D02*
X116769619Y-61340571D01*
X115753619Y-61001904D01*
X116769619Y-60663238D02*
X115753619Y-60663238D01*
X116479333Y-60324571D01*
X115753619Y-59985904D01*
X116769619Y-59985904D01*
X126929619Y-62017904D02*
X125913619Y-62017904D01*
X126639333Y-61679238D01*
X125913619Y-61340571D01*
X126929619Y-61340571D01*
X126929619Y-60324571D02*
X126929619Y-60905142D01*
X126929619Y-60614857D02*
X125913619Y-60614857D01*
X126058761Y-60711619D01*
X126155523Y-60808380D01*
X126203904Y-60905142D01*
X126639333Y-59937523D02*
X126639333Y-59453714D01*
X126929619Y-60034285D02*
X125913619Y-59695619D01*
X126929619Y-59356952D01*
X129459619Y-67106285D02*
X128443619Y-67106285D01*
X128443619Y-66719238D01*
X128492000Y-66622476D01*
X128540380Y-66574095D01*
X128637142Y-66525714D01*
X128782285Y-66525714D01*
X128879047Y-66574095D01*
X128927428Y-66622476D01*
X128975809Y-66719238D01*
X128975809Y-67106285D01*
X129459619Y-66090285D02*
X128443619Y-66090285D01*
X128443619Y-65848380D01*
X128492000Y-65703238D01*
X128588761Y-65606476D01*
X128685523Y-65558095D01*
X128879047Y-65509714D01*
X129024190Y-65509714D01*
X129217714Y-65558095D01*
X129314476Y-65606476D01*
X129411238Y-65703238D01*
X129459619Y-65848380D01*
X129459619Y-66090285D01*
X129459619Y-65074285D02*
X128443619Y-65074285D01*
X129459619Y-64493714D01*
X128443619Y-64493714D01*
X133582000Y-61534095D02*
X133533619Y-61630857D01*
X133533619Y-61776000D01*
X133582000Y-61921142D01*
X133678761Y-62017904D01*
X133775523Y-62066285D01*
X133969047Y-62114666D01*
X134114190Y-62114666D01*
X134307714Y-62066285D01*
X134404476Y-62017904D01*
X134501238Y-61921142D01*
X134549619Y-61776000D01*
X134549619Y-61679238D01*
X134501238Y-61534095D01*
X134452857Y-61485714D01*
X134114190Y-61485714D01*
X134114190Y-61679238D01*
X134549619Y-61050285D02*
X133533619Y-61050285D01*
X134549619Y-60469714D01*
X133533619Y-60469714D01*
X134549619Y-59985904D02*
X133533619Y-59985904D01*
X133533619Y-59744000D01*
X133582000Y-59598857D01*
X133678761Y-59502095D01*
X133775523Y-59453714D01*
X133969047Y-59405333D01*
X134114190Y-59405333D01*
X134307714Y-59453714D01*
X134404476Y-59502095D01*
X134501238Y-59598857D01*
X134549619Y-59744000D01*
X134549619Y-59985904D01*
X129469619Y-62090476D02*
X128453619Y-62090476D01*
X129179333Y-61751809D01*
X128453619Y-61413142D01*
X129469619Y-61413142D01*
X129469619Y-60397142D02*
X129469619Y-60977714D01*
X129469619Y-60687428D02*
X128453619Y-60687428D01*
X128598761Y-60784190D01*
X128695523Y-60880952D01*
X128743904Y-60977714D01*
X128937428Y-59623047D02*
X128985809Y-59477904D01*
X129034190Y-59429523D01*
X129130952Y-59381142D01*
X129276095Y-59381142D01*
X129372857Y-59429523D01*
X129421238Y-59477904D01*
X129469619Y-59574666D01*
X129469619Y-59961714D01*
X128453619Y-59961714D01*
X128453619Y-59623047D01*
X128502000Y-59526285D01*
X128550380Y-59477904D01*
X128647142Y-59429523D01*
X128743904Y-59429523D01*
X128840666Y-59477904D01*
X128889047Y-59526285D01*
X128937428Y-59623047D01*
X128937428Y-59961714D01*
X130993619Y-61872761D02*
X132009619Y-61534095D01*
X130993619Y-61195428D01*
X132009619Y-60856761D02*
X130993619Y-60856761D01*
X130993619Y-60179428D02*
X130993619Y-59985904D01*
X131042000Y-59889142D01*
X131138761Y-59792380D01*
X131332285Y-59744000D01*
X131670952Y-59744000D01*
X131864476Y-59792380D01*
X131961238Y-59889142D01*
X132009619Y-59985904D01*
X132009619Y-60179428D01*
X131961238Y-60276190D01*
X131864476Y-60372952D01*
X131670952Y-60421333D01*
X131332285Y-60421333D01*
X131138761Y-60372952D01*
X131042000Y-60276190D01*
X130993619Y-60179428D01*
X124341238Y-67146285D02*
X124389619Y-67001142D01*
X124389619Y-66759238D01*
X124341238Y-66662476D01*
X124292857Y-66614095D01*
X124196095Y-66565714D01*
X124099333Y-66565714D01*
X124002571Y-66614095D01*
X123954190Y-66662476D01*
X123905809Y-66759238D01*
X123857428Y-66952761D01*
X123809047Y-67049523D01*
X123760666Y-67097904D01*
X123663904Y-67146285D01*
X123567142Y-67146285D01*
X123470380Y-67097904D01*
X123422000Y-67049523D01*
X123373619Y-66952761D01*
X123373619Y-66710857D01*
X123422000Y-66565714D01*
X124389619Y-66130285D02*
X123373619Y-66130285D01*
X123373619Y-65743238D01*
X123422000Y-65646476D01*
X123470380Y-65598095D01*
X123567142Y-65549714D01*
X123712285Y-65549714D01*
X123809047Y-65598095D01*
X123857428Y-65646476D01*
X123905809Y-65743238D01*
X123905809Y-66130285D01*
X124389619Y-64533714D02*
X123905809Y-64872380D01*
X124389619Y-65114285D02*
X123373619Y-65114285D01*
X123373619Y-64727238D01*
X123422000Y-64630476D01*
X123470380Y-64582095D01*
X123567142Y-64533714D01*
X123712285Y-64533714D01*
X123809047Y-64582095D01*
X123857428Y-64630476D01*
X123905809Y-64727238D01*
X123905809Y-65114285D01*
X125913619Y-67025333D02*
X126736095Y-67025333D01*
X126832857Y-66976952D01*
X126881238Y-66928571D01*
X126929619Y-66831809D01*
X126929619Y-66638285D01*
X126881238Y-66541523D01*
X126832857Y-66493142D01*
X126736095Y-66444761D01*
X125913619Y-66444761D01*
X126929619Y-65380380D02*
X126445809Y-65719047D01*
X126929619Y-65960952D02*
X125913619Y-65960952D01*
X125913619Y-65573904D01*
X125962000Y-65477142D01*
X126010380Y-65428761D01*
X126107142Y-65380380D01*
X126252285Y-65380380D01*
X126349047Y-65428761D01*
X126397428Y-65477142D01*
X126445809Y-65573904D01*
X126445809Y-65960952D01*
X125913619Y-65090095D02*
X125913619Y-64509523D01*
X126929619Y-64799809D02*
X125913619Y-64799809D01*
X118392000Y-61474095D02*
X118343619Y-61570857D01*
X118343619Y-61716000D01*
X118392000Y-61861142D01*
X118488761Y-61957904D01*
X118585523Y-62006285D01*
X118779047Y-62054666D01*
X118924190Y-62054666D01*
X119117714Y-62006285D01*
X119214476Y-61957904D01*
X119311238Y-61861142D01*
X119359619Y-61716000D01*
X119359619Y-61619238D01*
X119311238Y-61474095D01*
X119262857Y-61425714D01*
X118924190Y-61425714D01*
X118924190Y-61619238D01*
X119359619Y-60990285D02*
X118343619Y-60990285D01*
X119359619Y-60409714D01*
X118343619Y-60409714D01*
X119359619Y-59925904D02*
X118343619Y-59925904D01*
X118343619Y-59684000D01*
X118392000Y-59538857D01*
X118488761Y-59442095D01*
X118585523Y-59393714D01*
X118779047Y-59345333D01*
X118924190Y-59345333D01*
X119117714Y-59393714D01*
X119214476Y-59442095D01*
X119311238Y-59538857D01*
X119359619Y-59684000D01*
X119359619Y-59925904D01*
D11*
X117864285Y-67869047D02*
X117864285Y-67702380D01*
X118126190Y-67630952D02*
X118126190Y-67869047D01*
X117626190Y-67869047D01*
X117626190Y-67630952D01*
X118126190Y-67416666D02*
X117626190Y-67416666D01*
X118126190Y-67130952D01*
X117626190Y-67130952D01*
D10*
X121849619Y-62090476D02*
X120833619Y-62090476D01*
X121559333Y-61751809D01*
X120833619Y-61413142D01*
X121849619Y-61413142D01*
X120930380Y-60977714D02*
X120882000Y-60929333D01*
X120833619Y-60832571D01*
X120833619Y-60590666D01*
X120882000Y-60493904D01*
X120930380Y-60445523D01*
X121027142Y-60397142D01*
X121123904Y-60397142D01*
X121269047Y-60445523D01*
X121849619Y-61026095D01*
X121849619Y-60397142D01*
X121317428Y-59623047D02*
X121365809Y-59477904D01*
X121414190Y-59429523D01*
X121510952Y-59381142D01*
X121656095Y-59381142D01*
X121752857Y-59429523D01*
X121801238Y-59477904D01*
X121849619Y-59574666D01*
X121849619Y-59961714D01*
X120833619Y-59961714D01*
X120833619Y-59623047D01*
X120882000Y-59526285D01*
X120930380Y-59477904D01*
X121027142Y-59429523D01*
X121123904Y-59429523D01*
X121220666Y-59477904D01*
X121269047Y-59526285D01*
X121317428Y-59623047D01*
X121317428Y-59961714D01*
X133582000Y-61534095D02*
X133533619Y-61630857D01*
X133533619Y-61776000D01*
X133582000Y-61921142D01*
X133678761Y-62017904D01*
X133775523Y-62066285D01*
X133969047Y-62114666D01*
X134114190Y-62114666D01*
X134307714Y-62066285D01*
X134404476Y-62017904D01*
X134501238Y-61921142D01*
X134549619Y-61776000D01*
X134549619Y-61679238D01*
X134501238Y-61534095D01*
X134452857Y-61485714D01*
X134114190Y-61485714D01*
X134114190Y-61679238D01*
X134549619Y-61050285D02*
X133533619Y-61050285D01*
X134549619Y-60469714D01*
X133533619Y-60469714D01*
X134549619Y-59985904D02*
X133533619Y-59985904D01*
X133533619Y-59744000D01*
X133582000Y-59598857D01*
X133678761Y-59502095D01*
X133775523Y-59453714D01*
X133969047Y-59405333D01*
X134114190Y-59405333D01*
X134307714Y-59453714D01*
X134404476Y-59502095D01*
X134501238Y-59598857D01*
X134549619Y-59744000D01*
X134549619Y-59985904D01*
X120193619Y-111872761D02*
X121209619Y-111534095D01*
X120193619Y-111195428D01*
X121209619Y-110856761D02*
X120193619Y-110856761D01*
X120193619Y-110179428D02*
X120193619Y-109985904D01*
X120242000Y-109889142D01*
X120338761Y-109792380D01*
X120532285Y-109744000D01*
X120870952Y-109744000D01*
X121064476Y-109792380D01*
X121161238Y-109889142D01*
X121209619Y-109985904D01*
X121209619Y-110179428D01*
X121161238Y-110276190D01*
X121064476Y-110372952D01*
X120870952Y-110421333D01*
X120532285Y-110421333D01*
X120338761Y-110372952D01*
X120242000Y-110276190D01*
X120193619Y-110179428D01*
X118659619Y-117106285D02*
X117643619Y-117106285D01*
X117643619Y-116719238D01*
X117692000Y-116622476D01*
X117740380Y-116574095D01*
X117837142Y-116525714D01*
X117982285Y-116525714D01*
X118079047Y-116574095D01*
X118127428Y-116622476D01*
X118175809Y-116719238D01*
X118175809Y-117106285D01*
X118659619Y-116090285D02*
X117643619Y-116090285D01*
X117643619Y-115848380D01*
X117692000Y-115703238D01*
X117788761Y-115606476D01*
X117885523Y-115558095D01*
X118079047Y-115509714D01*
X118224190Y-115509714D01*
X118417714Y-115558095D01*
X118514476Y-115606476D01*
X118611238Y-115703238D01*
X118659619Y-115848380D01*
X118659619Y-116090285D01*
X118659619Y-115074285D02*
X117643619Y-115074285D01*
X118659619Y-114493714D01*
X117643619Y-114493714D01*
D11*
X107064285Y-117869047D02*
X107064285Y-117702380D01*
X107326190Y-117630952D02*
X107326190Y-117869047D01*
X106826190Y-117869047D01*
X106826190Y-117630952D01*
X107326190Y-117416666D02*
X106826190Y-117416666D01*
X107326190Y-117130952D01*
X106826190Y-117130952D01*
D10*
X111049619Y-117146285D02*
X110033619Y-117146285D01*
X110759333Y-116807619D01*
X110033619Y-116468952D01*
X111049619Y-116468952D01*
X111001238Y-116033523D02*
X111049619Y-115888380D01*
X111049619Y-115646476D01*
X111001238Y-115549714D01*
X110952857Y-115501333D01*
X110856095Y-115452952D01*
X110759333Y-115452952D01*
X110662571Y-115501333D01*
X110614190Y-115549714D01*
X110565809Y-115646476D01*
X110517428Y-115840000D01*
X110469047Y-115936761D01*
X110420666Y-115985142D01*
X110323904Y-116033523D01*
X110227142Y-116033523D01*
X110130380Y-115985142D01*
X110082000Y-115936761D01*
X110033619Y-115840000D01*
X110033619Y-115598095D01*
X110082000Y-115452952D01*
X110130380Y-115065904D02*
X110082000Y-115017523D01*
X110033619Y-114920761D01*
X110033619Y-114678857D01*
X110082000Y-114582095D01*
X110130380Y-114533714D01*
X110227142Y-114485333D01*
X110323904Y-114485333D01*
X110469047Y-114533714D01*
X111049619Y-115114285D01*
X111049619Y-114485333D01*
X122782000Y-111534095D02*
X122733619Y-111630857D01*
X122733619Y-111776000D01*
X122782000Y-111921142D01*
X122878761Y-112017904D01*
X122975523Y-112066285D01*
X123169047Y-112114666D01*
X123314190Y-112114666D01*
X123507714Y-112066285D01*
X123604476Y-112017904D01*
X123701238Y-111921142D01*
X123749619Y-111776000D01*
X123749619Y-111679238D01*
X123701238Y-111534095D01*
X123652857Y-111485714D01*
X123314190Y-111485714D01*
X123314190Y-111679238D01*
X123749619Y-111050285D02*
X122733619Y-111050285D01*
X123749619Y-110469714D01*
X122733619Y-110469714D01*
X123749619Y-109985904D02*
X122733619Y-109985904D01*
X122733619Y-109744000D01*
X122782000Y-109598857D01*
X122878761Y-109502095D01*
X122975523Y-109453714D01*
X123169047Y-109405333D01*
X123314190Y-109405333D01*
X123507714Y-109453714D01*
X123604476Y-109502095D01*
X123701238Y-109598857D01*
X123749619Y-109744000D01*
X123749619Y-109985904D01*
X123749619Y-116856000D02*
X122733619Y-116856000D01*
X122733619Y-116614095D01*
X122782000Y-116468952D01*
X122878761Y-116372190D01*
X122975523Y-116323809D01*
X123169047Y-116275428D01*
X123314190Y-116275428D01*
X123507714Y-116323809D01*
X123604476Y-116372190D01*
X123701238Y-116468952D01*
X123749619Y-116614095D01*
X123749619Y-116856000D01*
X123749619Y-115840000D02*
X122733619Y-115840000D01*
X123749619Y-114775619D02*
X123265809Y-115114285D01*
X123749619Y-115356190D02*
X122733619Y-115356190D01*
X122733619Y-114969142D01*
X122782000Y-114872380D01*
X122830380Y-114824000D01*
X122927142Y-114775619D01*
X123072285Y-114775619D01*
X123169047Y-114824000D01*
X123217428Y-114872380D01*
X123265809Y-114969142D01*
X123265809Y-115356190D01*
X111049619Y-112090476D02*
X110033619Y-112090476D01*
X110759333Y-111751809D01*
X110033619Y-111413142D01*
X111049619Y-111413142D01*
X110130380Y-110977714D02*
X110082000Y-110929333D01*
X110033619Y-110832571D01*
X110033619Y-110590666D01*
X110082000Y-110493904D01*
X110130380Y-110445523D01*
X110227142Y-110397142D01*
X110323904Y-110397142D01*
X110469047Y-110445523D01*
X111049619Y-111026095D01*
X111049619Y-110397142D01*
X110517428Y-109623047D02*
X110565809Y-109477904D01*
X110614190Y-109429523D01*
X110710952Y-109381142D01*
X110856095Y-109381142D01*
X110952857Y-109429523D01*
X111001238Y-109477904D01*
X111049619Y-109574666D01*
X111049619Y-109961714D01*
X110033619Y-109961714D01*
X110033619Y-109623047D01*
X110082000Y-109526285D01*
X110130380Y-109477904D01*
X110227142Y-109429523D01*
X110323904Y-109429523D01*
X110420666Y-109477904D01*
X110469047Y-109526285D01*
X110517428Y-109623047D01*
X110517428Y-109961714D01*
X113589619Y-112017904D02*
X112573619Y-112017904D01*
X113299333Y-111679238D01*
X112573619Y-111340571D01*
X113589619Y-111340571D01*
X112670380Y-110905142D02*
X112622000Y-110856761D01*
X112573619Y-110760000D01*
X112573619Y-110518095D01*
X112622000Y-110421333D01*
X112670380Y-110372952D01*
X112767142Y-110324571D01*
X112863904Y-110324571D01*
X113009047Y-110372952D01*
X113589619Y-110953523D01*
X113589619Y-110324571D01*
X113299333Y-109937523D02*
X113299333Y-109453714D01*
X113589619Y-110034285D02*
X112573619Y-109695619D01*
X113589619Y-109356952D01*
X122782000Y-111534095D02*
X122733619Y-111630857D01*
X122733619Y-111776000D01*
X122782000Y-111921142D01*
X122878761Y-112017904D01*
X122975523Y-112066285D01*
X123169047Y-112114666D01*
X123314190Y-112114666D01*
X123507714Y-112066285D01*
X123604476Y-112017904D01*
X123701238Y-111921142D01*
X123749619Y-111776000D01*
X123749619Y-111679238D01*
X123701238Y-111534095D01*
X123652857Y-111485714D01*
X123314190Y-111485714D01*
X123314190Y-111679238D01*
X123749619Y-111050285D02*
X122733619Y-111050285D01*
X123749619Y-110469714D01*
X122733619Y-110469714D01*
X123749619Y-109985904D02*
X122733619Y-109985904D01*
X122733619Y-109744000D01*
X122782000Y-109598857D01*
X122878761Y-109502095D01*
X122975523Y-109453714D01*
X123169047Y-109405333D01*
X123314190Y-109405333D01*
X123507714Y-109453714D01*
X123604476Y-109502095D01*
X123701238Y-109598857D01*
X123749619Y-109744000D01*
X123749619Y-109985904D01*
X104953619Y-111679238D02*
X105969619Y-111340571D01*
X104953619Y-111001904D01*
X105969619Y-110663238D02*
X104953619Y-110663238D01*
X105679333Y-110324571D01*
X104953619Y-109985904D01*
X105969619Y-109985904D01*
X121161238Y-117484952D02*
X121209619Y-117339809D01*
X121209619Y-117097904D01*
X121161238Y-117001142D01*
X121112857Y-116952761D01*
X121016095Y-116904380D01*
X120919333Y-116904380D01*
X120822571Y-116952761D01*
X120774190Y-117001142D01*
X120725809Y-117097904D01*
X120677428Y-117291428D01*
X120629047Y-117388190D01*
X120580666Y-117436571D01*
X120483904Y-117484952D01*
X120387142Y-117484952D01*
X120290380Y-117436571D01*
X120242000Y-117388190D01*
X120193619Y-117291428D01*
X120193619Y-117049523D01*
X120242000Y-116904380D01*
X120193619Y-116614095D02*
X120193619Y-116033523D01*
X121209619Y-116323809D02*
X120193619Y-116323809D01*
X120677428Y-115694857D02*
X120677428Y-115356190D01*
X121209619Y-115211047D02*
X121209619Y-115694857D01*
X120193619Y-115694857D01*
X120193619Y-115211047D01*
X121209619Y-114775619D02*
X120193619Y-114775619D01*
X120193619Y-114388571D01*
X120242000Y-114291809D01*
X120290380Y-114243428D01*
X120387142Y-114195047D01*
X120532285Y-114195047D01*
X120629047Y-114243428D01*
X120677428Y-114291809D01*
X120725809Y-114388571D01*
X120725809Y-114775619D01*
X107592000Y-111474095D02*
X107543619Y-111570857D01*
X107543619Y-111716000D01*
X107592000Y-111861142D01*
X107688761Y-111957904D01*
X107785523Y-112006285D01*
X107979047Y-112054666D01*
X108124190Y-112054666D01*
X108317714Y-112006285D01*
X108414476Y-111957904D01*
X108511238Y-111861142D01*
X108559619Y-111716000D01*
X108559619Y-111619238D01*
X108511238Y-111474095D01*
X108462857Y-111425714D01*
X108124190Y-111425714D01*
X108124190Y-111619238D01*
X108559619Y-110990285D02*
X107543619Y-110990285D01*
X108559619Y-110409714D01*
X107543619Y-110409714D01*
X108559619Y-109925904D02*
X107543619Y-109925904D01*
X107543619Y-109684000D01*
X107592000Y-109538857D01*
X107688761Y-109442095D01*
X107785523Y-109393714D01*
X107979047Y-109345333D01*
X108124190Y-109345333D01*
X108317714Y-109393714D01*
X108414476Y-109442095D01*
X108511238Y-109538857D01*
X108559619Y-109684000D01*
X108559619Y-109925904D01*
X118669619Y-112090476D02*
X117653619Y-112090476D01*
X118379333Y-111751809D01*
X117653619Y-111413142D01*
X118669619Y-111413142D01*
X118669619Y-110397142D02*
X118669619Y-110977714D01*
X118669619Y-110687428D02*
X117653619Y-110687428D01*
X117798761Y-110784190D01*
X117895523Y-110880952D01*
X117943904Y-110977714D01*
X118137428Y-109623047D02*
X118185809Y-109477904D01*
X118234190Y-109429523D01*
X118330952Y-109381142D01*
X118476095Y-109381142D01*
X118572857Y-109429523D01*
X118621238Y-109477904D01*
X118669619Y-109574666D01*
X118669619Y-109961714D01*
X117653619Y-109961714D01*
X117653619Y-109623047D01*
X117702000Y-109526285D01*
X117750380Y-109477904D01*
X117847142Y-109429523D01*
X117943904Y-109429523D01*
X118040666Y-109477904D01*
X118089047Y-109526285D01*
X118137428Y-109623047D01*
X118137428Y-109961714D01*
X113541238Y-117146285D02*
X113589619Y-117001142D01*
X113589619Y-116759238D01*
X113541238Y-116662476D01*
X113492857Y-116614095D01*
X113396095Y-116565714D01*
X113299333Y-116565714D01*
X113202571Y-116614095D01*
X113154190Y-116662476D01*
X113105809Y-116759238D01*
X113057428Y-116952761D01*
X113009047Y-117049523D01*
X112960666Y-117097904D01*
X112863904Y-117146285D01*
X112767142Y-117146285D01*
X112670380Y-117097904D01*
X112622000Y-117049523D01*
X112573619Y-116952761D01*
X112573619Y-116710857D01*
X112622000Y-116565714D01*
X113589619Y-116130285D02*
X112573619Y-116130285D01*
X112573619Y-115743238D01*
X112622000Y-115646476D01*
X112670380Y-115598095D01*
X112767142Y-115549714D01*
X112912285Y-115549714D01*
X113009047Y-115598095D01*
X113057428Y-115646476D01*
X113105809Y-115743238D01*
X113105809Y-116130285D01*
X113589619Y-114533714D02*
X113105809Y-114872380D01*
X113589619Y-115114285D02*
X112573619Y-115114285D01*
X112573619Y-114727238D01*
X112622000Y-114630476D01*
X112670380Y-114582095D01*
X112767142Y-114533714D01*
X112912285Y-114533714D01*
X113009047Y-114582095D01*
X113057428Y-114630476D01*
X113105809Y-114727238D01*
X113105809Y-115114285D01*
X115113619Y-117025333D02*
X115936095Y-117025333D01*
X116032857Y-116976952D01*
X116081238Y-116928571D01*
X116129619Y-116831809D01*
X116129619Y-116638285D01*
X116081238Y-116541523D01*
X116032857Y-116493142D01*
X115936095Y-116444761D01*
X115113619Y-116444761D01*
X116129619Y-115380380D02*
X115645809Y-115719047D01*
X116129619Y-115960952D02*
X115113619Y-115960952D01*
X115113619Y-115573904D01*
X115162000Y-115477142D01*
X115210380Y-115428761D01*
X115307142Y-115380380D01*
X115452285Y-115380380D01*
X115549047Y-115428761D01*
X115597428Y-115477142D01*
X115645809Y-115573904D01*
X115645809Y-115960952D01*
X115113619Y-115090095D02*
X115113619Y-114509523D01*
X116129619Y-114799809D02*
X115113619Y-114799809D01*
X116129619Y-112017904D02*
X115113619Y-112017904D01*
X115839333Y-111679238D01*
X115113619Y-111340571D01*
X116129619Y-111340571D01*
X116129619Y-110324571D02*
X116129619Y-110905142D01*
X116129619Y-110614857D02*
X115113619Y-110614857D01*
X115258761Y-110711619D01*
X115355523Y-110808380D01*
X115403904Y-110905142D01*
X115839333Y-109937523D02*
X115839333Y-109453714D01*
X116129619Y-110034285D02*
X115113619Y-109695619D01*
X116129619Y-109356952D01*
X109059619Y-117206285D02*
X108043619Y-117206285D01*
X108769333Y-116867619D01*
X108043619Y-116528952D01*
X109059619Y-116528952D01*
X109011238Y-116093523D02*
X109059619Y-115948380D01*
X109059619Y-115706476D01*
X109011238Y-115609714D01*
X108962857Y-115561333D01*
X108866095Y-115512952D01*
X108769333Y-115512952D01*
X108672571Y-115561333D01*
X108624190Y-115609714D01*
X108575809Y-115706476D01*
X108527428Y-115900000D01*
X108479047Y-115996761D01*
X108430666Y-116045142D01*
X108333904Y-116093523D01*
X108237142Y-116093523D01*
X108140380Y-116045142D01*
X108092000Y-115996761D01*
X108043619Y-115900000D01*
X108043619Y-115658095D01*
X108092000Y-115512952D01*
X109059619Y-114545333D02*
X109059619Y-115125904D01*
X109059619Y-114835619D02*
X108043619Y-114835619D01*
X108188761Y-114932380D01*
X108285523Y-115029142D01*
X108333904Y-115125904D01*
X120293619Y-87272761D02*
X121309619Y-86934095D01*
X120293619Y-86595428D01*
X121309619Y-86256761D02*
X120293619Y-86256761D01*
X120293619Y-85579428D02*
X120293619Y-85385904D01*
X120342000Y-85289142D01*
X120438761Y-85192380D01*
X120632285Y-85144000D01*
X120970952Y-85144000D01*
X121164476Y-85192380D01*
X121261238Y-85289142D01*
X121309619Y-85385904D01*
X121309619Y-85579428D01*
X121261238Y-85676190D01*
X121164476Y-85772952D01*
X120970952Y-85821333D01*
X120632285Y-85821333D01*
X120438761Y-85772952D01*
X120342000Y-85676190D01*
X120293619Y-85579428D01*
X123849619Y-92256000D02*
X122833619Y-92256000D01*
X122833619Y-92014095D01*
X122882000Y-91868952D01*
X122978761Y-91772190D01*
X123075523Y-91723809D01*
X123269047Y-91675428D01*
X123414190Y-91675428D01*
X123607714Y-91723809D01*
X123704476Y-91772190D01*
X123801238Y-91868952D01*
X123849619Y-92014095D01*
X123849619Y-92256000D01*
X123849619Y-91240000D02*
X122833619Y-91240000D01*
X123849619Y-90175619D02*
X123365809Y-90514285D01*
X123849619Y-90756190D02*
X122833619Y-90756190D01*
X122833619Y-90369142D01*
X122882000Y-90272380D01*
X122930380Y-90224000D01*
X123027142Y-90175619D01*
X123172285Y-90175619D01*
X123269047Y-90224000D01*
X123317428Y-90272380D01*
X123365809Y-90369142D01*
X123365809Y-90756190D01*
X121261238Y-92884952D02*
X121309619Y-92739809D01*
X121309619Y-92497904D01*
X121261238Y-92401142D01*
X121212857Y-92352761D01*
X121116095Y-92304380D01*
X121019333Y-92304380D01*
X120922571Y-92352761D01*
X120874190Y-92401142D01*
X120825809Y-92497904D01*
X120777428Y-92691428D01*
X120729047Y-92788190D01*
X120680666Y-92836571D01*
X120583904Y-92884952D01*
X120487142Y-92884952D01*
X120390380Y-92836571D01*
X120342000Y-92788190D01*
X120293619Y-92691428D01*
X120293619Y-92449523D01*
X120342000Y-92304380D01*
X120293619Y-92014095D02*
X120293619Y-91433523D01*
X121309619Y-91723809D02*
X120293619Y-91723809D01*
X120777428Y-91094857D02*
X120777428Y-90756190D01*
X121309619Y-90611047D02*
X121309619Y-91094857D01*
X120293619Y-91094857D01*
X120293619Y-90611047D01*
X121309619Y-90175619D02*
X120293619Y-90175619D01*
X120293619Y-89788571D01*
X120342000Y-89691809D01*
X120390380Y-89643428D01*
X120487142Y-89595047D01*
X120632285Y-89595047D01*
X120729047Y-89643428D01*
X120777428Y-89691809D01*
X120825809Y-89788571D01*
X120825809Y-90175619D01*
X115213619Y-92425333D02*
X116036095Y-92425333D01*
X116132857Y-92376952D01*
X116181238Y-92328571D01*
X116229619Y-92231809D01*
X116229619Y-92038285D01*
X116181238Y-91941523D01*
X116132857Y-91893142D01*
X116036095Y-91844761D01*
X115213619Y-91844761D01*
X116229619Y-90780380D02*
X115745809Y-91119047D01*
X116229619Y-91360952D02*
X115213619Y-91360952D01*
X115213619Y-90973904D01*
X115262000Y-90877142D01*
X115310380Y-90828761D01*
X115407142Y-90780380D01*
X115552285Y-90780380D01*
X115649047Y-90828761D01*
X115697428Y-90877142D01*
X115745809Y-90973904D01*
X115745809Y-91360952D01*
X115213619Y-90490095D02*
X115213619Y-89909523D01*
X116229619Y-90199809D02*
X115213619Y-90199809D01*
X118759619Y-92506285D02*
X117743619Y-92506285D01*
X117743619Y-92119238D01*
X117792000Y-92022476D01*
X117840380Y-91974095D01*
X117937142Y-91925714D01*
X118082285Y-91925714D01*
X118179047Y-91974095D01*
X118227428Y-92022476D01*
X118275809Y-92119238D01*
X118275809Y-92506285D01*
X118759619Y-91490285D02*
X117743619Y-91490285D01*
X117743619Y-91248380D01*
X117792000Y-91103238D01*
X117888761Y-91006476D01*
X117985523Y-90958095D01*
X118179047Y-90909714D01*
X118324190Y-90909714D01*
X118517714Y-90958095D01*
X118614476Y-91006476D01*
X118711238Y-91103238D01*
X118759619Y-91248380D01*
X118759619Y-91490285D01*
X118759619Y-90474285D02*
X117743619Y-90474285D01*
X118759619Y-89893714D01*
X117743619Y-89893714D01*
X109159619Y-92606285D02*
X108143619Y-92606285D01*
X108869333Y-92267619D01*
X108143619Y-91928952D01*
X109159619Y-91928952D01*
X109111238Y-91493523D02*
X109159619Y-91348380D01*
X109159619Y-91106476D01*
X109111238Y-91009714D01*
X109062857Y-90961333D01*
X108966095Y-90912952D01*
X108869333Y-90912952D01*
X108772571Y-90961333D01*
X108724190Y-91009714D01*
X108675809Y-91106476D01*
X108627428Y-91300000D01*
X108579047Y-91396761D01*
X108530666Y-91445142D01*
X108433904Y-91493523D01*
X108337142Y-91493523D01*
X108240380Y-91445142D01*
X108192000Y-91396761D01*
X108143619Y-91300000D01*
X108143619Y-91058095D01*
X108192000Y-90912952D01*
X109159619Y-89945333D02*
X109159619Y-90525904D01*
X109159619Y-90235619D02*
X108143619Y-90235619D01*
X108288761Y-90332380D01*
X108385523Y-90429142D01*
X108433904Y-90525904D01*
X111149619Y-87490476D02*
X110133619Y-87490476D01*
X110859333Y-87151809D01*
X110133619Y-86813142D01*
X111149619Y-86813142D01*
X110230380Y-86377714D02*
X110182000Y-86329333D01*
X110133619Y-86232571D01*
X110133619Y-85990666D01*
X110182000Y-85893904D01*
X110230380Y-85845523D01*
X110327142Y-85797142D01*
X110423904Y-85797142D01*
X110569047Y-85845523D01*
X111149619Y-86426095D01*
X111149619Y-85797142D01*
X110617428Y-85023047D02*
X110665809Y-84877904D01*
X110714190Y-84829523D01*
X110810952Y-84781142D01*
X110956095Y-84781142D01*
X111052857Y-84829523D01*
X111101238Y-84877904D01*
X111149619Y-84974666D01*
X111149619Y-85361714D01*
X110133619Y-85361714D01*
X110133619Y-85023047D01*
X110182000Y-84926285D01*
X110230380Y-84877904D01*
X110327142Y-84829523D01*
X110423904Y-84829523D01*
X110520666Y-84877904D01*
X110569047Y-84926285D01*
X110617428Y-85023047D01*
X110617428Y-85361714D01*
X122882000Y-86934095D02*
X122833619Y-87030857D01*
X122833619Y-87176000D01*
X122882000Y-87321142D01*
X122978761Y-87417904D01*
X123075523Y-87466285D01*
X123269047Y-87514666D01*
X123414190Y-87514666D01*
X123607714Y-87466285D01*
X123704476Y-87417904D01*
X123801238Y-87321142D01*
X123849619Y-87176000D01*
X123849619Y-87079238D01*
X123801238Y-86934095D01*
X123752857Y-86885714D01*
X123414190Y-86885714D01*
X123414190Y-87079238D01*
X123849619Y-86450285D02*
X122833619Y-86450285D01*
X123849619Y-85869714D01*
X122833619Y-85869714D01*
X123849619Y-85385904D02*
X122833619Y-85385904D01*
X122833619Y-85144000D01*
X122882000Y-84998857D01*
X122978761Y-84902095D01*
X123075523Y-84853714D01*
X123269047Y-84805333D01*
X123414190Y-84805333D01*
X123607714Y-84853714D01*
X123704476Y-84902095D01*
X123801238Y-84998857D01*
X123849619Y-85144000D01*
X123849619Y-85385904D01*
X113641238Y-92546285D02*
X113689619Y-92401142D01*
X113689619Y-92159238D01*
X113641238Y-92062476D01*
X113592857Y-92014095D01*
X113496095Y-91965714D01*
X113399333Y-91965714D01*
X113302571Y-92014095D01*
X113254190Y-92062476D01*
X113205809Y-92159238D01*
X113157428Y-92352761D01*
X113109047Y-92449523D01*
X113060666Y-92497904D01*
X112963904Y-92546285D01*
X112867142Y-92546285D01*
X112770380Y-92497904D01*
X112722000Y-92449523D01*
X112673619Y-92352761D01*
X112673619Y-92110857D01*
X112722000Y-91965714D01*
X113689619Y-91530285D02*
X112673619Y-91530285D01*
X112673619Y-91143238D01*
X112722000Y-91046476D01*
X112770380Y-90998095D01*
X112867142Y-90949714D01*
X113012285Y-90949714D01*
X113109047Y-90998095D01*
X113157428Y-91046476D01*
X113205809Y-91143238D01*
X113205809Y-91530285D01*
X113689619Y-89933714D02*
X113205809Y-90272380D01*
X113689619Y-90514285D02*
X112673619Y-90514285D01*
X112673619Y-90127238D01*
X112722000Y-90030476D01*
X112770380Y-89982095D01*
X112867142Y-89933714D01*
X113012285Y-89933714D01*
X113109047Y-89982095D01*
X113157428Y-90030476D01*
X113205809Y-90127238D01*
X113205809Y-90514285D01*
X111149619Y-92546285D02*
X110133619Y-92546285D01*
X110859333Y-92207619D01*
X110133619Y-91868952D01*
X111149619Y-91868952D01*
X111101238Y-91433523D02*
X111149619Y-91288380D01*
X111149619Y-91046476D01*
X111101238Y-90949714D01*
X111052857Y-90901333D01*
X110956095Y-90852952D01*
X110859333Y-90852952D01*
X110762571Y-90901333D01*
X110714190Y-90949714D01*
X110665809Y-91046476D01*
X110617428Y-91240000D01*
X110569047Y-91336761D01*
X110520666Y-91385142D01*
X110423904Y-91433523D01*
X110327142Y-91433523D01*
X110230380Y-91385142D01*
X110182000Y-91336761D01*
X110133619Y-91240000D01*
X110133619Y-90998095D01*
X110182000Y-90852952D01*
X110230380Y-90465904D02*
X110182000Y-90417523D01*
X110133619Y-90320761D01*
X110133619Y-90078857D01*
X110182000Y-89982095D01*
X110230380Y-89933714D01*
X110327142Y-89885333D01*
X110423904Y-89885333D01*
X110569047Y-89933714D01*
X111149619Y-90514285D01*
X111149619Y-89885333D01*
X107692000Y-86874095D02*
X107643619Y-86970857D01*
X107643619Y-87116000D01*
X107692000Y-87261142D01*
X107788761Y-87357904D01*
X107885523Y-87406285D01*
X108079047Y-87454666D01*
X108224190Y-87454666D01*
X108417714Y-87406285D01*
X108514476Y-87357904D01*
X108611238Y-87261142D01*
X108659619Y-87116000D01*
X108659619Y-87019238D01*
X108611238Y-86874095D01*
X108562857Y-86825714D01*
X108224190Y-86825714D01*
X108224190Y-87019238D01*
X108659619Y-86390285D02*
X107643619Y-86390285D01*
X108659619Y-85809714D01*
X107643619Y-85809714D01*
X108659619Y-85325904D02*
X107643619Y-85325904D01*
X107643619Y-85084000D01*
X107692000Y-84938857D01*
X107788761Y-84842095D01*
X107885523Y-84793714D01*
X108079047Y-84745333D01*
X108224190Y-84745333D01*
X108417714Y-84793714D01*
X108514476Y-84842095D01*
X108611238Y-84938857D01*
X108659619Y-85084000D01*
X108659619Y-85325904D01*
X113689619Y-87417904D02*
X112673619Y-87417904D01*
X113399333Y-87079238D01*
X112673619Y-86740571D01*
X113689619Y-86740571D01*
X112770380Y-86305142D02*
X112722000Y-86256761D01*
X112673619Y-86160000D01*
X112673619Y-85918095D01*
X112722000Y-85821333D01*
X112770380Y-85772952D01*
X112867142Y-85724571D01*
X112963904Y-85724571D01*
X113109047Y-85772952D01*
X113689619Y-86353523D01*
X113689619Y-85724571D01*
X113399333Y-85337523D02*
X113399333Y-84853714D01*
X113689619Y-85434285D02*
X112673619Y-85095619D01*
X113689619Y-84756952D01*
X116229619Y-87417904D02*
X115213619Y-87417904D01*
X115939333Y-87079238D01*
X115213619Y-86740571D01*
X116229619Y-86740571D01*
X116229619Y-85724571D02*
X116229619Y-86305142D01*
X116229619Y-86014857D02*
X115213619Y-86014857D01*
X115358761Y-86111619D01*
X115455523Y-86208380D01*
X115503904Y-86305142D01*
X115939333Y-85337523D02*
X115939333Y-84853714D01*
X116229619Y-85434285D02*
X115213619Y-85095619D01*
X116229619Y-84756952D01*
X118769619Y-87490476D02*
X117753619Y-87490476D01*
X118479333Y-87151809D01*
X117753619Y-86813142D01*
X118769619Y-86813142D01*
X118769619Y-85797142D02*
X118769619Y-86377714D01*
X118769619Y-86087428D02*
X117753619Y-86087428D01*
X117898761Y-86184190D01*
X117995523Y-86280952D01*
X118043904Y-86377714D01*
X118237428Y-85023047D02*
X118285809Y-84877904D01*
X118334190Y-84829523D01*
X118430952Y-84781142D01*
X118576095Y-84781142D01*
X118672857Y-84829523D01*
X118721238Y-84877904D01*
X118769619Y-84974666D01*
X118769619Y-85361714D01*
X117753619Y-85361714D01*
X117753619Y-85023047D01*
X117802000Y-84926285D01*
X117850380Y-84877904D01*
X117947142Y-84829523D01*
X118043904Y-84829523D01*
X118140666Y-84877904D01*
X118189047Y-84926285D01*
X118237428Y-85023047D01*
X118237428Y-85361714D01*
D11*
X107164285Y-93269047D02*
X107164285Y-93102380D01*
X107426190Y-93030952D02*
X107426190Y-93269047D01*
X106926190Y-93269047D01*
X106926190Y-93030952D01*
X107426190Y-92816666D02*
X106926190Y-92816666D01*
X107426190Y-92530952D01*
X106926190Y-92530952D01*
D10*
X105053619Y-87079238D02*
X106069619Y-86740571D01*
X105053619Y-86401904D01*
X106069619Y-86063238D02*
X105053619Y-86063238D01*
X105779333Y-85724571D01*
X105053619Y-85385904D01*
X106069619Y-85385904D01*
X122882000Y-86934095D02*
X122833619Y-87030857D01*
X122833619Y-87176000D01*
X122882000Y-87321142D01*
X122978761Y-87417904D01*
X123075523Y-87466285D01*
X123269047Y-87514666D01*
X123414190Y-87514666D01*
X123607714Y-87466285D01*
X123704476Y-87417904D01*
X123801238Y-87321142D01*
X123849619Y-87176000D01*
X123849619Y-87079238D01*
X123801238Y-86934095D01*
X123752857Y-86885714D01*
X123414190Y-86885714D01*
X123414190Y-87079238D01*
X123849619Y-86450285D02*
X122833619Y-86450285D01*
X123849619Y-85869714D01*
X122833619Y-85869714D01*
X123849619Y-85385904D02*
X122833619Y-85385904D01*
X122833619Y-85144000D01*
X122882000Y-84998857D01*
X122978761Y-84902095D01*
X123075523Y-84853714D01*
X123269047Y-84805333D01*
X123414190Y-84805333D01*
X123607714Y-84853714D01*
X123704476Y-84902095D01*
X123801238Y-84998857D01*
X123849619Y-85144000D01*
X123849619Y-85385904D01*
D12*
X130830000Y-79230000D02*
X130830000Y-76570000D01*
X118070000Y-76570000D02*
X130830000Y-76570000D01*
X115470000Y-79230000D02*
X115470000Y-77900000D01*
X118070000Y-79230000D02*
X118070000Y-76570000D01*
X116800000Y-79230000D02*
X115470000Y-79230000D01*
X118070000Y-79230000D02*
X130830000Y-79230000D01*
D13*
X104995000Y-35200000D02*
X104995000Y-54400000D01*
X137105000Y-35200000D02*
X137105000Y-54400000D01*
X104995000Y-35200000D02*
X137105000Y-35200000D01*
X104995000Y-54400000D02*
X137105000Y-54400000D01*
D12*
X107370000Y-126570000D02*
X120130000Y-126570000D01*
X106100000Y-129230000D02*
X104770000Y-129230000D01*
X104770000Y-129230000D02*
X104770000Y-127900000D01*
X107370000Y-129230000D02*
X120130000Y-129230000D01*
X120130000Y-129230000D02*
X120130000Y-126570000D01*
X107370000Y-129230000D02*
X107370000Y-126570000D01*
X107270000Y-102170000D02*
X120030000Y-102170000D01*
X107270000Y-104830000D02*
X120030000Y-104830000D01*
X104670000Y-104830000D02*
X104670000Y-103500000D01*
X106000000Y-104830000D02*
X104670000Y-104830000D01*
X107270000Y-104830000D02*
X107270000Y-102170000D01*
X120030000Y-104830000D02*
X120030000Y-102170000D01*
X91860000Y-111960000D02*
X91860000Y-96340000D01*
X90900000Y-107400000D02*
X89900000Y-107150000D01*
X89900000Y-100150000D02*
X89900000Y-99650000D01*
X89900000Y-103150000D02*
X89550000Y-103150000D01*
X89550000Y-99650000D02*
X89550000Y-100400000D01*
X85250000Y-101650000D02*
X85250000Y-100900000D01*
X84390000Y-96340000D02*
X84390000Y-111960000D01*
X89900000Y-104650000D02*
X90900000Y-104400000D01*
X89900000Y-101650000D02*
X89900000Y-101150000D01*
X89900000Y-97650000D02*
X90900000Y-97400000D01*
X85250000Y-105150000D02*
X85250000Y-104400000D01*
X89550000Y-103900000D02*
X85250000Y-103900000D01*
X89900000Y-108650000D02*
X89900000Y-108150000D01*
X89550000Y-101650000D02*
X89900000Y-101650000D01*
X89550000Y-105150000D02*
X89900000Y-105150000D01*
X89550000Y-106650000D02*
X89550000Y-107400000D01*
X90900000Y-97400000D02*
X90900000Y-100400000D01*
X90900000Y-103900000D02*
X89900000Y-103650000D01*
X85250000Y-104400000D02*
X89550000Y-104400000D01*
X89550000Y-108650000D02*
X89900000Y-108650000D01*
X85250000Y-100400000D02*
X85250000Y-99650000D01*
X89900000Y-105150000D02*
X89900000Y-104650000D01*
X90900000Y-107900000D02*
X90900000Y-110900000D01*
X89550000Y-97400000D02*
X89550000Y-98150000D01*
X90900000Y-110900000D02*
X89900000Y-110650000D01*
X89550000Y-110900000D02*
X85250000Y-110900000D01*
X89900000Y-108150000D02*
X90900000Y-107900000D01*
X89550000Y-98150000D02*
X89900000Y-98150000D01*
X85250000Y-107900000D02*
X89550000Y-107900000D01*
X89900000Y-101150000D02*
X90900000Y-100900000D01*
X91860000Y-96340000D02*
X84390000Y-96340000D01*
X89900000Y-103650000D02*
X89900000Y-103150000D01*
X89550000Y-110150000D02*
X89550000Y-110900000D01*
X90900000Y-100400000D02*
X89900000Y-100150000D01*
X89900000Y-98150000D02*
X89900000Y-97650000D01*
X89900000Y-99650000D02*
X89550000Y-99650000D01*
X89550000Y-100400000D02*
X85250000Y-100400000D01*
X89900000Y-106650000D02*
X89550000Y-106650000D01*
X85250000Y-97400000D02*
X89550000Y-97400000D01*
X89900000Y-110650000D02*
X89900000Y-110150000D01*
X89550000Y-107400000D02*
X85250000Y-107400000D01*
X85250000Y-98150000D02*
X85250000Y-97400000D01*
X85250000Y-103900000D02*
X85250000Y-103150000D01*
X92250000Y-95950000D02*
X92250000Y-97950000D01*
X85250000Y-107400000D02*
X85250000Y-106650000D01*
X89550000Y-104400000D02*
X89550000Y-105150000D01*
X89550000Y-107900000D02*
X89550000Y-108650000D01*
X84390000Y-111960000D02*
X91860000Y-111960000D01*
X85250000Y-110900000D02*
X85250000Y-110150000D01*
X89550000Y-100900000D02*
X89550000Y-101650000D01*
X89550000Y-103150000D02*
X89550000Y-103900000D01*
X85250000Y-100900000D02*
X89550000Y-100900000D01*
X89900000Y-110150000D02*
X89550000Y-110150000D01*
X90900000Y-104400000D02*
X90900000Y-107400000D01*
X89900000Y-107150000D02*
X89900000Y-106650000D01*
X91000000Y-95950000D02*
X92250000Y-95950000D01*
X90900000Y-100900000D02*
X90900000Y-103900000D01*
X85250000Y-108650000D02*
X85250000Y-107900000D01*
X85250155Y-110149647D02*
G75*
G03*
X85250000Y-108650000I-1700155J749647D01*
G01*
X85250155Y-106649647D02*
G75*
G03*
X85250000Y-105150000I-1700155J749647D01*
G01*
X85250155Y-103149647D02*
G75*
G03*
X85250000Y-101650000I-1700155J749647D01*
G01*
X85250155Y-99649647D02*
G75*
G03*
X85250000Y-98150000I-1700155J749647D01*
G01*
X106900000Y-122500000D02*
X106600000Y-122200000D01*
X108400000Y-125750000D02*
X107800000Y-125750000D01*
X107100000Y-125100000D02*
X107100000Y-122300000D01*
X107800000Y-121650000D02*
X108400000Y-121650000D01*
X106600000Y-122200000D02*
X106600000Y-122800000D01*
X106900000Y-122500000D02*
X106600000Y-122800000D01*
X109100000Y-122300000D02*
X109100000Y-125100000D01*
X108400000Y-121650000D02*
G75*
G02*
X109100000Y-122350000I0J-700000D01*
G01*
X107800000Y-125750000D02*
G75*
G02*
X107100000Y-125050000I0J700000D01*
G01*
X109100000Y-125050000D02*
G75*
G02*
X108400000Y-125750000I-700000J0D01*
G01*
X107100000Y-122350000D02*
G75*
G02*
X107800000Y-121650000I700000J0D01*
G01*
X125910000Y-99462779D02*
X125910000Y-99137221D01*
X124890000Y-99462779D02*
X124890000Y-99137221D01*
X111750001Y-97600000D02*
X111750001Y-98200000D01*
X113550001Y-101150000D02*
X112950001Y-101150000D01*
X114250001Y-97700000D02*
X114250001Y-100500000D01*
X112050001Y-97900000D02*
X111750001Y-97600000D01*
X112050001Y-97900000D02*
X111750001Y-98200000D01*
X112950001Y-97050000D02*
X113550001Y-97050000D01*
X112250001Y-100500000D02*
X112250001Y-97700000D01*
X113550001Y-97050000D02*
G75*
G02*
X114250001Y-97750000I0J-700000D01*
G01*
X114250001Y-100450000D02*
G75*
G02*
X113550001Y-101150000I-700000J0D01*
G01*
X112950001Y-101150000D02*
G75*
G02*
X112250001Y-100450000I0J700000D01*
G01*
X112250001Y-97750000D02*
G75*
G02*
X112950001Y-97050000I700000J0D01*
G01*
D14*
X140605000Y-99897500D02*
X140605000Y-99897500D01*
X140605000Y-99997500D02*
X140605000Y-99997500D01*
X141450000Y-101862500D02*
X141450000Y-110362500D01*
X132950000Y-101862500D02*
X141450000Y-101862500D01*
X141450000Y-110362500D02*
X132950000Y-110362500D01*
X132950000Y-110362500D02*
X132950000Y-101862500D01*
X140605000Y-99897500D02*
G75*
G02*
X140605000Y-99997500I0J-50000D01*
G01*
X140605000Y-99997500D02*
G75*
G02*
X140605000Y-99897500I0J50000D01*
G01*
D12*
X112662779Y-56410000D02*
X112337221Y-56410000D01*
X112662779Y-55390000D02*
X112337221Y-55390000D01*
X123710000Y-99462779D02*
X123710000Y-99137221D01*
X122690000Y-99462779D02*
X122690000Y-99137221D01*
X119900000Y-72200000D02*
X119900000Y-72800000D01*
X120200000Y-72500000D02*
X119900000Y-72800000D01*
X121700000Y-75750000D02*
X121100000Y-75750000D01*
X120200000Y-72500000D02*
X119900000Y-72200000D01*
X121100000Y-71650000D02*
X121700000Y-71650000D01*
X120400000Y-75100000D02*
X120400000Y-72300000D01*
X122400000Y-72300000D02*
X122400000Y-75100000D01*
X122400000Y-75050000D02*
G75*
G02*
X121700000Y-75750000I-700000J0D01*
G01*
X120400000Y-72350000D02*
G75*
G02*
X121100000Y-71650000I700000J0D01*
G01*
X121700000Y-71650000D02*
G75*
G02*
X122400000Y-72350000I0J-700000D01*
G01*
X121100000Y-75750000D02*
G75*
G02*
X120400000Y-75050000I0J700000D01*
G01*
X105950000Y-61960000D02*
X114010000Y-61960000D01*
X114010000Y-57440000D02*
X105950000Y-57440000D01*
X114010000Y-61960000D02*
X114010000Y-57440000D01*
D14*
X125362500Y-47550000D02*
X116862500Y-47550000D01*
X116862500Y-39050000D02*
X125362500Y-39050000D01*
X116862500Y-47550000D02*
X116862500Y-39050000D01*
X114997500Y-39895000D02*
X114997500Y-39895000D01*
X114897500Y-39895000D02*
X114897500Y-39895000D01*
X125362500Y-39050000D02*
X125362500Y-47550000D01*
X114997500Y-39895000D02*
G75*
G02*
X114897500Y-39895000I-50000J0D01*
G01*
X114897500Y-39895000D02*
G75*
G02*
X114997500Y-39895000I50000J0D01*
G01*
D12*
X89550000Y-122100000D02*
X89550000Y-122850000D01*
X91860000Y-129660000D02*
X91860000Y-114040000D01*
X89550000Y-121600000D02*
X85250000Y-121600000D01*
X90900000Y-118600000D02*
X90900000Y-121600000D01*
X89550000Y-119350000D02*
X89900000Y-119350000D01*
X89900000Y-118850000D02*
X90900000Y-118600000D01*
X90900000Y-128600000D02*
X89900000Y-128350000D01*
X89900000Y-120850000D02*
X89550000Y-120850000D01*
X89550000Y-128600000D02*
X85250000Y-128600000D01*
X85250000Y-122850000D02*
X85250000Y-122100000D01*
X85250000Y-126350000D02*
X85250000Y-125600000D01*
X85250000Y-119350000D02*
X85250000Y-118600000D01*
X89900000Y-124350000D02*
X89550000Y-124350000D01*
X89550000Y-120850000D02*
X89550000Y-121600000D01*
X85250000Y-125100000D02*
X85250000Y-124350000D01*
X84390000Y-129660000D02*
X91860000Y-129660000D01*
X90900000Y-115100000D02*
X90900000Y-118100000D01*
X89900000Y-125850000D02*
X90900000Y-125600000D01*
X89900000Y-121350000D02*
X89900000Y-120850000D01*
X84390000Y-114040000D02*
X84390000Y-129660000D01*
X91860000Y-114040000D02*
X84390000Y-114040000D01*
X89550000Y-115850000D02*
X89900000Y-115850000D01*
X89550000Y-125100000D02*
X85250000Y-125100000D01*
X89900000Y-117350000D02*
X89550000Y-117350000D01*
X89900000Y-128350000D02*
X89900000Y-127850000D01*
X89550000Y-125600000D02*
X89550000Y-126350000D01*
X89550000Y-124350000D02*
X89550000Y-125100000D01*
X89550000Y-117350000D02*
X89550000Y-118100000D01*
X89900000Y-119350000D02*
X89900000Y-118850000D01*
X85250000Y-118100000D02*
X85250000Y-117350000D01*
X85250000Y-118600000D02*
X89550000Y-118600000D01*
X85250000Y-128600000D02*
X85250000Y-127850000D01*
X89550000Y-118100000D02*
X85250000Y-118100000D01*
X89550000Y-122850000D02*
X89900000Y-122850000D01*
X85250000Y-115850000D02*
X85250000Y-115100000D01*
X89550000Y-115100000D02*
X89550000Y-115850000D01*
X89550000Y-127850000D02*
X89550000Y-128600000D01*
X89550000Y-126350000D02*
X89900000Y-126350000D01*
X85250000Y-125600000D02*
X89550000Y-125600000D01*
X89900000Y-117850000D02*
X89900000Y-117350000D01*
X85250000Y-122100000D02*
X89550000Y-122100000D01*
X89900000Y-115850000D02*
X89900000Y-115350000D01*
X89550000Y-118600000D02*
X89550000Y-119350000D01*
X90900000Y-125600000D02*
X90900000Y-128600000D01*
X89900000Y-126350000D02*
X89900000Y-125850000D01*
X92250000Y-113650000D02*
X92250000Y-115650000D01*
X85250000Y-121600000D02*
X85250000Y-120850000D01*
X89900000Y-127850000D02*
X89550000Y-127850000D01*
X91000000Y-113650000D02*
X92250000Y-113650000D01*
X89900000Y-122350000D02*
X90900000Y-122100000D01*
X90900000Y-125100000D02*
X89900000Y-124850000D01*
X90900000Y-121600000D02*
X89900000Y-121350000D01*
X85250000Y-115100000D02*
X89550000Y-115100000D01*
X90900000Y-118100000D02*
X89900000Y-117850000D01*
X90900000Y-122100000D02*
X90900000Y-125100000D01*
X89900000Y-124850000D02*
X89900000Y-124350000D01*
X89900000Y-115350000D02*
X90900000Y-115100000D01*
X89900000Y-122850000D02*
X89900000Y-122350000D01*
X85250155Y-120849647D02*
G75*
G03*
X85250000Y-119350000I-1700155J749647D01*
G01*
X85250155Y-127849647D02*
G75*
G03*
X85250000Y-126350000I-1700155J749647D01*
G01*
X85250155Y-117349647D02*
G75*
G03*
X85250000Y-115850000I-1700155J749647D01*
G01*
X85250155Y-124349647D02*
G75*
G03*
X85250000Y-122850000I-1700155J749647D01*
G01*
X122710000Y-103262779D02*
X122710000Y-102937221D01*
X121690000Y-103262779D02*
X121690000Y-102937221D01*
D15*
X135360000Y-70920000D02*
X135360000Y-55680000D01*
X115040000Y-55680000D02*
X115040000Y-70920000D01*
X115040000Y-70920000D02*
X135360000Y-70920000D01*
X135360000Y-55680000D02*
X115040000Y-55680000D01*
X135154000Y-58900000D02*
G75*
G03*
X135154000Y-58900000I-254000J0D01*
G01*
D12*
X141090000Y-53162779D02*
X141090000Y-52837221D01*
X142110000Y-53162779D02*
X142110000Y-52837221D01*
X127537221Y-73110000D02*
X127862779Y-73110000D01*
X127537221Y-72090000D02*
X127862779Y-72090000D01*
D13*
X146000000Y-88995000D02*
X126800000Y-88995000D01*
X126800000Y-88995000D02*
X126800000Y-121105000D01*
X146000000Y-121105000D02*
X126800000Y-121105000D01*
X146000000Y-88995000D02*
X146000000Y-121105000D01*
D15*
X124560000Y-120920000D02*
X124560000Y-105680000D01*
X104240000Y-120920000D02*
X124560000Y-120920000D01*
X124560000Y-105680000D02*
X104240000Y-105680000D01*
X104240000Y-105680000D02*
X104240000Y-120920000D01*
X124354000Y-108900000D02*
G75*
G03*
X124354000Y-108900000I-254000J0D01*
G01*
D12*
X119900000Y-72300000D02*
X119900000Y-75100000D01*
X117900000Y-75100000D02*
X117900000Y-72300000D01*
X117700000Y-72500000D02*
X117400000Y-72200000D01*
X119200000Y-75750000D02*
X118600000Y-75750000D01*
X117400000Y-72200000D02*
X117400000Y-72800000D01*
X118600000Y-71650000D02*
X119200000Y-71650000D01*
X117700000Y-72500000D02*
X117400000Y-72800000D01*
X119200000Y-71650000D02*
G75*
G02*
X119900000Y-72350000I0J-700000D01*
G01*
X117900000Y-72350000D02*
G75*
G02*
X118600000Y-71650000I700000J0D01*
G01*
X119900000Y-75050000D02*
G75*
G02*
X119200000Y-75750000I-700000J0D01*
G01*
X118600000Y-75750000D02*
G75*
G02*
X117900000Y-75050000I0J700000D01*
G01*
X99650000Y-57250000D02*
X99650000Y-58000000D01*
X99650000Y-51500000D02*
X99650000Y-52250000D01*
X99650000Y-54500000D02*
X95350000Y-54500000D01*
X95350000Y-55750000D02*
X95350000Y-55000000D01*
X101000000Y-58000000D02*
X100000000Y-57750000D01*
X100000000Y-53750000D02*
X99650000Y-53750000D01*
X100000000Y-51750000D02*
X101000000Y-51500000D01*
X100000000Y-57750000D02*
X100000000Y-57250000D01*
X101000000Y-55000000D02*
X101000000Y-58000000D01*
X101000000Y-51500000D02*
X101000000Y-54500000D01*
X95350000Y-51500000D02*
X99650000Y-51500000D01*
X101000000Y-54500000D02*
X100000000Y-54250000D01*
X95350000Y-54500000D02*
X95350000Y-53750000D01*
X99650000Y-55750000D02*
X100000000Y-55750000D01*
X99650000Y-53750000D02*
X99650000Y-54500000D01*
X95350000Y-58000000D02*
X95350000Y-57250000D01*
X99650000Y-58000000D02*
X95350000Y-58000000D01*
X100000000Y-57250000D02*
X99650000Y-57250000D01*
X95350000Y-55000000D02*
X99650000Y-55000000D01*
X95350000Y-52250000D02*
X95350000Y-51500000D01*
X99650000Y-55000000D02*
X99650000Y-55750000D01*
X100000000Y-55250000D02*
X101000000Y-55000000D01*
X94490000Y-50440000D02*
X94490000Y-59060000D01*
X101960000Y-59060000D02*
X101960000Y-50440000D01*
X100000000Y-52250000D02*
X100000000Y-51750000D01*
X94490000Y-59060000D02*
X101960000Y-59060000D01*
X101960000Y-50440000D02*
X94490000Y-50440000D01*
X99650000Y-52250000D02*
X100000000Y-52250000D01*
X100000000Y-55750000D02*
X100000000Y-55250000D01*
X101100000Y-50050000D02*
X102350000Y-50050000D01*
X102350000Y-50050000D02*
X102350000Y-52050000D01*
X100000000Y-54250000D02*
X100000000Y-53750000D01*
X95350155Y-53749647D02*
G75*
G03*
X95350000Y-52250000I-1700155J749647D01*
G01*
X95350155Y-57249647D02*
G75*
G03*
X95350000Y-55750000I-1700155J749647D01*
G01*
X94550000Y-116560000D02*
X102610000Y-116560000D01*
X102610000Y-112040000D02*
X94550000Y-112040000D01*
X102610000Y-116560000D02*
X102610000Y-112040000D01*
X108462779Y-56410000D02*
X108137221Y-56410000D01*
X108462779Y-55390000D02*
X108137221Y-55390000D01*
X114010000Y-76762779D02*
X114010000Y-76437221D01*
X112990000Y-76762779D02*
X112990000Y-76437221D01*
X116637221Y-99690000D02*
X116962779Y-99690000D01*
X116637221Y-100710000D02*
X116962779Y-100710000D01*
X102610000Y-106240000D02*
X94550000Y-106240000D01*
X94550000Y-110760000D02*
X102610000Y-110760000D01*
X102610000Y-110760000D02*
X102610000Y-106240000D01*
X122700000Y-72500000D02*
X122400000Y-72800000D01*
X124900000Y-72300000D02*
X124900000Y-75100000D01*
X124200000Y-75750000D02*
X123600000Y-75750000D01*
X122700000Y-72500000D02*
X122400000Y-72200000D01*
X123600000Y-71650000D02*
X124200000Y-71650000D01*
X122900000Y-75100000D02*
X122900000Y-72300000D01*
X122400000Y-72200000D02*
X122400000Y-72800000D01*
X124200000Y-71650000D02*
G75*
G02*
X124900000Y-72350000I0J-700000D01*
G01*
X123600000Y-75750000D02*
G75*
G02*
X122900000Y-75050000I0J700000D01*
G01*
X122900000Y-72350000D02*
G75*
G02*
X123600000Y-71650000I700000J0D01*
G01*
X124900000Y-75050000D02*
G75*
G02*
X124200000Y-75750000I-700000J0D01*
G01*
X111700000Y-97700000D02*
X111700000Y-100500000D01*
X111000000Y-101150000D02*
X110400000Y-101150000D01*
X110400000Y-97050000D02*
X111000000Y-97050000D01*
X109200000Y-97600000D02*
X109200000Y-98200000D01*
X109700000Y-100500000D02*
X109700000Y-97700000D01*
X109500000Y-97900000D02*
X109200000Y-97600000D01*
X109500000Y-97900000D02*
X109200000Y-98200000D01*
X109700000Y-97750000D02*
G75*
G02*
X110400000Y-97050000I700000J0D01*
G01*
X111700000Y-100450000D02*
G75*
G02*
X111000000Y-101150000I-700000J0D01*
G01*
X110400000Y-101150000D02*
G75*
G02*
X109700000Y-100450000I0J700000D01*
G01*
X111000000Y-97050000D02*
G75*
G02*
X111700000Y-97750000I0J-700000D01*
G01*
D15*
X104340000Y-81080000D02*
X104340000Y-96320000D01*
X124660000Y-81080000D02*
X104340000Y-81080000D01*
X124660000Y-96320000D02*
X124660000Y-81080000D01*
X104340000Y-96320000D02*
X124660000Y-96320000D01*
X124454000Y-84300000D02*
G75*
G03*
X124454000Y-84300000I-254000J0D01*
G01*
D12*
X100000000Y-82250000D02*
X101000000Y-82000000D01*
X99650000Y-85000000D02*
X95350000Y-85000000D01*
X99650000Y-82750000D02*
X100000000Y-82750000D01*
X101000000Y-85500000D02*
X101000000Y-88500000D01*
X101000000Y-88500000D02*
X100000000Y-88250000D01*
X99650000Y-84250000D02*
X99650000Y-85000000D01*
X95350000Y-86250000D02*
X95350000Y-85500000D01*
X95350000Y-75000000D02*
X99650000Y-75000000D01*
X100000000Y-88250000D02*
X100000000Y-87750000D01*
X101000000Y-75000000D02*
X101000000Y-78000000D01*
X101960000Y-89560000D02*
X101960000Y-73940000D01*
X100000000Y-84750000D02*
X100000000Y-84250000D01*
X100000000Y-75750000D02*
X100000000Y-75250000D01*
X100000000Y-86250000D02*
X100000000Y-85750000D01*
X101960000Y-73940000D02*
X94490000Y-73940000D01*
X95350000Y-78500000D02*
X99650000Y-78500000D01*
X99650000Y-78500000D02*
X99650000Y-79250000D01*
X95350000Y-82750000D02*
X95350000Y-82000000D01*
X99650000Y-77250000D02*
X99650000Y-78000000D01*
X100000000Y-87750000D02*
X99650000Y-87750000D01*
X95350000Y-85000000D02*
X95350000Y-84250000D01*
X99650000Y-75000000D02*
X99650000Y-75750000D01*
X99650000Y-80750000D02*
X99650000Y-81500000D01*
X95350000Y-79250000D02*
X95350000Y-78500000D01*
X95350000Y-81500000D02*
X95350000Y-80750000D01*
X100000000Y-77250000D02*
X99650000Y-77250000D01*
X99650000Y-78000000D02*
X95350000Y-78000000D01*
X100000000Y-80750000D02*
X99650000Y-80750000D01*
X95350000Y-85500000D02*
X99650000Y-85500000D01*
X100000000Y-84250000D02*
X99650000Y-84250000D01*
X94490000Y-73940000D02*
X94490000Y-89560000D01*
X102350000Y-73550000D02*
X102350000Y-75550000D01*
X95350000Y-88500000D02*
X95350000Y-87750000D01*
X100000000Y-81250000D02*
X100000000Y-80750000D01*
X100000000Y-75250000D02*
X101000000Y-75000000D01*
X100000000Y-82750000D02*
X100000000Y-82250000D01*
X101000000Y-85000000D02*
X100000000Y-84750000D01*
X95350000Y-82000000D02*
X99650000Y-82000000D01*
X101000000Y-78500000D02*
X101000000Y-81500000D01*
X95350000Y-75750000D02*
X95350000Y-75000000D01*
X99650000Y-81500000D02*
X95350000Y-81500000D01*
X101000000Y-82000000D02*
X101000000Y-85000000D01*
X99650000Y-86250000D02*
X100000000Y-86250000D01*
X99650000Y-79250000D02*
X100000000Y-79250000D01*
X101000000Y-81500000D02*
X100000000Y-81250000D01*
X99650000Y-88500000D02*
X95350000Y-88500000D01*
X95350000Y-78000000D02*
X95350000Y-77250000D01*
X100000000Y-85750000D02*
X101000000Y-85500000D01*
X99650000Y-87750000D02*
X99650000Y-88500000D01*
X94490000Y-89560000D02*
X101960000Y-89560000D01*
X100000000Y-77750000D02*
X100000000Y-77250000D01*
X100000000Y-79250000D02*
X100000000Y-78750000D01*
X99650000Y-75750000D02*
X100000000Y-75750000D01*
X99650000Y-82000000D02*
X99650000Y-82750000D01*
X101100000Y-73550000D02*
X102350000Y-73550000D01*
X101000000Y-78000000D02*
X100000000Y-77750000D01*
X100000000Y-78750000D02*
X101000000Y-78500000D01*
X99650000Y-85500000D02*
X99650000Y-86250000D01*
X95350155Y-84249647D02*
G75*
G03*
X95350000Y-82750000I-1700155J749647D01*
G01*
X95350155Y-77249647D02*
G75*
G03*
X95350000Y-75750000I-1700155J749647D01*
G01*
X95350155Y-87749647D02*
G75*
G03*
X95350000Y-86250000I-1700155J749647D01*
G01*
X95350155Y-80749647D02*
G75*
G03*
X95350000Y-79250000I-1700155J749647D01*
G01*
X105950000Y-67460000D02*
X114010000Y-67460000D01*
X114010000Y-62940000D02*
X105950000Y-62940000D01*
X114010000Y-67460000D02*
X114010000Y-62940000D01*
X111900000Y-122500000D02*
X111600000Y-122200000D01*
X112100000Y-125100000D02*
X112100000Y-122300000D01*
X112800000Y-121650000D02*
X113400000Y-121650000D01*
X114100000Y-122300000D02*
X114100000Y-125100000D01*
X113400000Y-125750000D02*
X112800000Y-125750000D01*
X111900000Y-122500000D02*
X111600000Y-122800000D01*
X111600000Y-122200000D02*
X111600000Y-122800000D01*
X112100000Y-122350000D02*
G75*
G02*
X112800000Y-121650000I700000J0D01*
G01*
X112800000Y-125750000D02*
G75*
G02*
X112100000Y-125050000I0J700000D01*
G01*
X114100000Y-125050000D02*
G75*
G02*
X113400000Y-125750000I-700000J0D01*
G01*
X113400000Y-121650000D02*
G75*
G02*
X114100000Y-122350000I0J-700000D01*
G01*
X109600000Y-125100000D02*
X109600000Y-122300000D01*
X109100000Y-122200000D02*
X109100000Y-122800000D01*
X109400000Y-122500000D02*
X109100000Y-122200000D01*
X110300000Y-121650000D02*
X110900000Y-121650000D01*
X109400000Y-122500000D02*
X109100000Y-122800000D01*
X110900000Y-125750000D02*
X110300000Y-125750000D01*
X111600000Y-122300000D02*
X111600000Y-125100000D01*
X111600000Y-125050000D02*
G75*
G02*
X110900000Y-125750000I-700000J0D01*
G01*
X110900000Y-121650000D02*
G75*
G02*
X111600000Y-122350000I0J-700000D01*
G01*
X110300000Y-125750000D02*
G75*
G02*
X109600000Y-125050000I0J700000D01*
G01*
X109600000Y-122350000D02*
G75*
G02*
X110300000Y-121650000I700000J0D01*
G01*
X116637221Y-97390000D02*
X116962779Y-97390000D01*
X116637221Y-98410000D02*
X116962779Y-98410000D01*
X104150000Y-72860000D02*
X112210000Y-72860000D01*
X112210000Y-72860000D02*
X112210000Y-68340000D01*
X112210000Y-68340000D02*
X104150000Y-68340000D01*
X125810000Y-103262779D02*
X125810000Y-102937221D01*
X124790000Y-103262779D02*
X124790000Y-102937221D01*
X128010000Y-85862779D02*
X128010000Y-85537221D01*
X126990000Y-85862779D02*
X126990000Y-85537221D01*
X98162779Y-103990000D02*
X97837221Y-103990000D01*
X98162779Y-105010000D02*
X97837221Y-105010000D01*
X136890000Y-59262779D02*
X136890000Y-58937221D01*
X137910000Y-59262779D02*
X137910000Y-58937221D01*
X106600000Y-97600000D02*
X106600000Y-98200000D01*
X108400000Y-101150000D02*
X107800000Y-101150000D01*
X107100000Y-100500000D02*
X107100000Y-97700000D01*
X106900000Y-97900000D02*
X106600000Y-97600000D01*
X107800000Y-97050000D02*
X108400000Y-97050000D01*
X109100000Y-97700000D02*
X109100000Y-100500000D01*
X106900000Y-97900000D02*
X106600000Y-98200000D01*
X109100000Y-100450000D02*
G75*
G02*
X108400000Y-101150000I-700000J0D01*
G01*
X107800000Y-101150000D02*
G75*
G02*
X107100000Y-100450000I0J700000D01*
G01*
X107100000Y-97750000D02*
G75*
G02*
X107800000Y-97050000I700000J0D01*
G01*
X108400000Y-97050000D02*
G75*
G02*
X109100000Y-97750000I0J-700000D01*
G01*
X116537221Y-123010000D02*
X116862779Y-123010000D01*
X116537221Y-121990000D02*
X116862779Y-121990000D01*
X138490000Y-53162779D02*
X138490000Y-52837221D01*
X139510000Y-53162779D02*
X139510000Y-52837221D01*
X116537221Y-125310000D02*
X116862779Y-125310000D01*
X116537221Y-124290000D02*
X116862779Y-124290000D01*
X112210000Y-78760000D02*
X112210000Y-74240000D01*
X104150000Y-78760000D02*
X112210000Y-78760000D01*
X112210000Y-74240000D02*
X104150000Y-74240000D01*
X127537221Y-74290000D02*
X127862779Y-74290000D01*
X127537221Y-75310000D02*
X127862779Y-75310000D01*
M02*
