G04 #@! TF.GenerationSoftware,KiCad,Pcbnew,5.99.0-unknown-14cba9723f~116~ubuntu18.04.1*
G04 #@! TF.CreationDate,2021-02-18T14:39:48+01:00*
G04 #@! TF.ProjectId,Uni_stick,556e695f-7374-4696-936b-2e6b69636164,rev?*
G04 #@! TF.SameCoordinates,Original*
G04 #@! TF.FileFunction,Soldermask,Bot*
G04 #@! TF.FilePolarity,Negative*
%FSLAX46Y46*%
G04 Gerber Fmt 4.6, Leading zero omitted, Abs format (unit mm)*
G04 Created by KiCad (PCBNEW 5.99.0-unknown-14cba9723f~116~ubuntu18.04.1) date 2021-02-18 14:39:48*
%MOMM*%
%LPD*%
G01*
G04 APERTURE LIST*
G04 Aperture macros list*
%AMRoundRect*
0 Rectangle with rounded corners*
0 $1 Rounding radius*
0 $2 $3 $4 $5 $6 $7 $8 $9 X,Y pos of 4 corners*
0 Add a 4 corners polygon primitive as box body*
4,1,4,$2,$3,$4,$5,$6,$7,$8,$9,$2,$3,0*
0 Add four circle primitives for the rounded corners*
1,1,$1+$1,$2,$3*
1,1,$1+$1,$4,$5*
1,1,$1+$1,$6,$7*
1,1,$1+$1,$8,$9*
0 Add four rect primitives between the rounded corners*
20,1,$1+$1,$2,$3,$4,$5,0*
20,1,$1+$1,$4,$5,$6,$7,0*
20,1,$1+$1,$6,$7,$8,$9,0*
20,1,$1+$1,$8,$9,$2,$3,0*%
G04 Aperture macros list end*
%ADD10R,1.700000X1.700000*%
%ADD11O,1.700000X1.700000*%
%ADD12C,3.200000*%
%ADD13C,5.000000*%
%ADD14C,1.524000*%
%ADD15RoundRect,0.250000X-1.550000X0.650000X-1.550000X-0.650000X1.550000X-0.650000X1.550000X0.650000X0*%
%ADD16O,3.600000X1.800000*%
%ADD17O,2.032000X3.048000*%
%ADD18C,2.057400*%
G04 APERTURE END LIST*
D10*
X116800000Y-77900000D03*
D11*
X119340000Y-77900000D03*
X121880000Y-77900000D03*
X124420000Y-77900000D03*
X126960000Y-77900000D03*
X129500000Y-77900000D03*
D12*
X98000000Y-42000000D03*
X142000000Y-42000000D03*
D13*
X109495000Y-39700000D03*
X132605000Y-39700000D03*
D14*
X114700000Y-52700000D03*
X117240000Y-52700000D03*
X119780000Y-52700000D03*
X122320000Y-52700000D03*
X124860000Y-52700000D03*
X127400000Y-52700000D03*
D12*
X142000000Y-127000000D03*
X98000000Y-127000000D03*
D10*
X106100000Y-127900000D03*
D11*
X108640000Y-127900000D03*
X111180000Y-127900000D03*
X113720000Y-127900000D03*
X116260000Y-127900000D03*
X118800000Y-127900000D03*
D10*
X106000000Y-103500000D03*
D11*
X108540000Y-103500000D03*
X111080000Y-103500000D03*
X113620000Y-103500000D03*
X116160000Y-103500000D03*
X118700000Y-103500000D03*
D15*
X87500000Y-98900000D03*
D16*
X87500000Y-102400000D03*
X87500000Y-105900000D03*
X87500000Y-109400000D03*
D12*
X98000000Y-70000000D03*
D15*
X87500000Y-116600000D03*
D16*
X87500000Y-120100000D03*
X87500000Y-123600000D03*
X87500000Y-127100000D03*
D17*
X134090000Y-56950000D03*
X131550000Y-56950000D03*
X129010000Y-56950000D03*
X126470000Y-56950000D03*
X123930000Y-56950000D03*
X121390000Y-56950000D03*
X118850000Y-56950000D03*
X116310000Y-56950000D03*
X134090000Y-69650000D03*
X131550000Y-69650000D03*
X129010000Y-69650000D03*
X126470000Y-69650000D03*
X123930000Y-69650000D03*
X121390000Y-69650000D03*
X118850000Y-69650000D03*
D18*
X116310000Y-69650000D03*
X116310000Y-64570000D03*
X116310000Y-67110000D03*
D13*
X141500000Y-116605000D03*
X141500000Y-93495000D03*
D14*
X128500000Y-98700000D03*
X128500000Y-101240000D03*
X128500000Y-103780000D03*
X128500000Y-106320000D03*
X128500000Y-108860000D03*
X128500000Y-111400000D03*
D12*
X142000000Y-70000000D03*
D17*
X123290000Y-106950000D03*
X120750000Y-106950000D03*
X118210000Y-106950000D03*
X115670000Y-106950000D03*
X113130000Y-106950000D03*
X110590000Y-106950000D03*
X108050000Y-106950000D03*
X105510000Y-106950000D03*
X123290000Y-119650000D03*
X120750000Y-119650000D03*
X118210000Y-119650000D03*
X115670000Y-119650000D03*
X113130000Y-119650000D03*
X110590000Y-119650000D03*
X108050000Y-119650000D03*
D18*
X105510000Y-119650000D03*
X105510000Y-114570000D03*
X105510000Y-117110000D03*
D15*
X97600000Y-53000000D03*
D16*
X97600000Y-56500000D03*
D17*
X123390000Y-82350000D03*
X120850000Y-82350000D03*
X118310000Y-82350000D03*
X115770000Y-82350000D03*
X113230000Y-82350000D03*
X110690000Y-82350000D03*
X108150000Y-82350000D03*
X105610000Y-82350000D03*
X123390000Y-95050000D03*
X120850000Y-95050000D03*
X118310000Y-95050000D03*
X115770000Y-95050000D03*
X113230000Y-95050000D03*
X110690000Y-95050000D03*
X108150000Y-95050000D03*
D18*
X105610000Y-95050000D03*
X105610000Y-89970000D03*
X105610000Y-92510000D03*
D15*
X97600000Y-76500000D03*
D16*
X97600000Y-80000000D03*
X97600000Y-83500000D03*
X97600000Y-87000000D03*
D10*
X81540000Y-96510000D03*
D11*
X79000000Y-96510000D03*
X81540000Y-99050000D03*
X79000000Y-99050000D03*
X81540000Y-101590000D03*
X79000000Y-101590000D03*
X81540000Y-104130000D03*
X79000000Y-104130000D03*
X81540000Y-106670000D03*
X79000000Y-106670000D03*
X81540000Y-109210000D03*
X79000000Y-109210000D03*
X81540000Y-111750000D03*
X79000000Y-111750000D03*
X81540000Y-114290000D03*
X79000000Y-114290000D03*
X81540000Y-116830000D03*
X79000000Y-116830000D03*
X81540000Y-119370000D03*
X79000000Y-119370000D03*
X81540000Y-121910000D03*
X79000000Y-121910000D03*
X81540000Y-124450000D03*
X79000000Y-124450000D03*
X81540000Y-126990000D03*
X79000000Y-126990000D03*
X81540000Y-129530000D03*
X79000000Y-129530000D03*
M02*
