solid
 facet normal  0.000000e+00  1.000000e+00 -0.000000e+00
   outer loop
     vertex  1.000000e+00  1.250000e+00  1.000000e-01
     vertex -2.000000e+00  1.250000e+00  1.000000e-01
     vertex -2.000000e+00  1.250000e+00  1.100000e+00
   endloop
 endfacet
 facet normal  0.000000e+00  1.000000e+00 -0.000000e+00
   outer loop
     vertex  1.000000e+00  1.250000e+00  1.000000e-01
     vertex -2.000000e+00  1.250000e+00  1.100000e+00
     vertex  1.000000e+00  1.250000e+00  1.100000e+00
   endloop
 endfacet
 facet normal  1.000000e+00 -0.000000e+00  0.000000e+00
   outer loop
     vertex  1.000000e+00 -1.250000e+00  1.100000e+00
     vertex  1.000000e+00  1.250000e+00  1.000000e-01
     vertex  1.000000e+00  1.250000e+00  1.100000e+00
   endloop
 endfacet
 facet normal  1.000000e+00  0.000000e+00 -0.000000e+00
   outer loop
     vertex  1.000000e+00 -1.250000e+00  1.000000e-01
     vertex  1.000000e+00  1.250000e+00  1.000000e-01
     vertex  1.000000e+00 -1.250000e+00  1.100000e+00
   endloop
 endfacet
 facet normal  0.000000e+00 -1.000000e+00  0.000000e+00
   outer loop
     vertex -2.000000e+00 -1.250000e+00  1.000000e-01
     vertex  1.000000e+00 -1.250000e+00  1.000000e-01
     vertex  1.000000e+00 -1.250000e+00  1.100000e+00
   endloop
 endfacet
 facet normal  0.000000e+00 -1.000000e+00  0.000000e+00
   outer loop
     vertex -2.000000e+00 -1.250000e+00  1.000000e-01
     vertex  1.000000e+00 -1.250000e+00  1.100000e+00
     vertex -2.000000e+00 -1.250000e+00  1.100000e+00
   endloop
 endfacet
 facet normal -1.000000e+00 -0.000000e+00  0.000000e+00
   outer loop
     vertex -2.000000e+00  1.250000e+00  1.100000e+00
     vertex -2.000000e+00 -1.250000e+00  1.000000e-01
     vertex -2.000000e+00 -1.250000e+00  1.100000e+00
   endloop
 endfacet
 facet normal -1.000000e+00  0.000000e+00  0.000000e+00
   outer loop
     vertex -2.000000e+00  1.250000e+00  1.000000e-01
     vertex -2.000000e+00 -1.250000e+00  1.000000e-01
     vertex -2.000000e+00  1.250000e+00  1.100000e+00
   endloop
 endfacet
 facet normal  0.000000e+00  0.000000e+00 -1.000000e+00
   outer loop
     vertex -2.000000e+00 -1.250000e+00  1.000000e-01
     vertex -2.000000e+00  1.250000e+00  1.000000e-01
     vertex  1.000000e+00 -1.250000e+00  1.000000e-01
   endloop
 endfacet
 facet normal  0.000000e+00  0.000000e+00 -1.000000e+00
   outer loop
     vertex  1.000000e+00 -1.250000e+00  1.000000e-01
     vertex -2.000000e+00  1.250000e+00  1.000000e-01
     vertex  1.000000e+00  1.250000e+00  1.000000e-01
   endloop
 endfacet
 facet normal  0.000000e+00  0.000000e+00  1.000000e+00
   outer loop
     vertex  1.000000e+00 -1.250000e+00  1.100000e+00
     vertex -2.000000e+00  1.250000e+00  1.100000e+00
     vertex -2.000000e+00 -1.250000e+00  1.100000e+00
   endloop
 endfacet
 facet normal  0.000000e+00  0.000000e+00  1.000000e+00
   outer loop
     vertex  1.000000e+00  1.250000e+00  1.100000e+00
     vertex -2.000000e+00  1.250000e+00  1.100000e+00
     vertex  1.000000e+00 -1.250000e+00  1.100000e+00
   endloop
 endfacet
 facet normal -1.000000e+00 -0.000000e+00 -0.000000e+00
   outer loop
     vertex  8.800000e-01  7.700000e-01  1.000000e-01
     vertex  8.800000e-01  7.700000e-01  0.000000e+00
     vertex  8.800000e-01 -7.700000e-01  1.000000e-01
   endloop
 endfacet
 facet normal -1.000000e+00  0.000000e+00  0.000000e+00
   outer loop
     vertex  8.800000e-01  7.700000e-01  0.000000e+00
     vertex  8.800000e-01 -7.700000e-01  0.000000e+00
     vertex  8.800000e-01 -7.700000e-01  1.000000e-01
   endloop
 endfacet
 facet normal  1.000000e+00 -0.000000e+00  0.000000e+00
   outer loop
     vertex  1.520000e+00 -7.700000e-01  1.000000e-01
     vertex  1.520000e+00  7.700000e-01  0.000000e+00
     vertex  1.520000e+00  7.700000e-01  1.000000e-01
   endloop
 endfacet
 facet normal  1.000000e+00 -0.000000e+00  0.000000e+00
   outer loop
     vertex  1.520000e+00 -7.700000e-01  1.000000e-01
     vertex  1.520000e+00 -7.700000e-01  0.000000e+00
     vertex  1.520000e+00  7.700000e-01  0.000000e+00
   endloop
 endfacet
 facet normal  0.000000e+00 -1.000000e+00  0.000000e+00
   outer loop
     vertex  8.800000e-01 -7.700000e-01  0.000000e+00
     vertex  1.520000e+00 -7.700000e-01  0.000000e+00
     vertex  1.520000e+00 -7.700000e-01  1.000000e-01
   endloop
 endfacet
 facet normal  0.000000e+00 -1.000000e+00  0.000000e+00
   outer loop
     vertex  8.800000e-01 -7.700000e-01  1.000000e-01
     vertex  8.800000e-01 -7.700000e-01  0.000000e+00
     vertex  1.520000e+00 -7.700000e-01  1.000000e-01
   endloop
 endfacet
 facet normal  0.000000e+00  1.000000e+00  0.000000e+00
   outer loop
     vertex  1.520000e+00  7.700000e-01  1.000000e-01
     vertex  1.520000e+00  7.700000e-01  0.000000e+00
     vertex  8.800000e-01  7.700000e-01  0.000000e+00
   endloop
 endfacet
 facet normal  0.000000e+00  1.000000e+00 -0.000000e+00
   outer loop
     vertex  1.520000e+00  7.700000e-01  1.000000e-01
     vertex  8.800000e-01  7.700000e-01  0.000000e+00
     vertex  8.800000e-01  7.700000e-01  1.000000e-01
   endloop
 endfacet
 facet normal  0.000000e+00  0.000000e+00 -1.000000e+00
   outer loop
     vertex  8.800000e-01 -7.700000e-01  0.000000e+00
     vertex  8.800000e-01  7.700000e-01  0.000000e+00
     vertex  1.520000e+00  7.700000e-01  0.000000e+00
   endloop
 endfacet
 facet normal  0.000000e+00  0.000000e+00 -1.000000e+00
   outer loop
     vertex  1.520000e+00 -7.700000e-01  0.000000e+00
     vertex  8.800000e-01 -7.700000e-01  0.000000e+00
     vertex  1.520000e+00  7.700000e-01  0.000000e+00
   endloop
 endfacet
 facet normal  0.000000e+00  0.000000e+00  1.000000e+00
   outer loop
     vertex  1.520000e+00  7.700000e-01  1.000000e-01
     vertex  8.800000e-01  7.700000e-01  1.000000e-01
     vertex  8.800000e-01 -7.700000e-01  1.000000e-01
   endloop
 endfacet
 facet normal -0.000000e+00  0.000000e+00  1.000000e+00
   outer loop
     vertex  1.520000e+00  7.700000e-01  1.000000e-01
     vertex  8.800000e-01 -7.700000e-01  1.000000e-01
     vertex  1.520000e+00 -7.700000e-01  1.000000e-01
   endloop
 endfacet
 facet normal -1.000000e+00 -0.000000e+00 -0.000000e+00
   outer loop
     vertex -2.520000e+00  7.700000e-01  1.000000e-01
     vertex -2.520000e+00  7.700000e-01  0.000000e+00
     vertex -2.520000e+00 -7.700000e-01  1.000000e-01
   endloop
 endfacet
 facet normal -1.000000e+00  0.000000e+00  0.000000e+00
   outer loop
     vertex -2.520000e+00  7.700000e-01  0.000000e+00
     vertex -2.520000e+00 -7.700000e-01  0.000000e+00
     vertex -2.520000e+00 -7.700000e-01  1.000000e-01
   endloop
 endfacet
 facet normal  1.000000e+00 -0.000000e+00  0.000000e+00
   outer loop
     vertex -1.880000e+00 -7.700000e-01  1.000000e-01
     vertex -1.880000e+00  7.700000e-01  0.000000e+00
     vertex -1.880000e+00  7.700000e-01  1.000000e-01
   endloop
 endfacet
 facet normal  1.000000e+00 -0.000000e+00  0.000000e+00
   outer loop
     vertex -1.880000e+00 -7.700000e-01  1.000000e-01
     vertex -1.880000e+00 -7.700000e-01  0.000000e+00
     vertex -1.880000e+00  7.700000e-01  0.000000e+00
   endloop
 endfacet
 facet normal  0.000000e+00 -1.000000e+00  0.000000e+00
   outer loop
     vertex -2.520000e+00 -7.700000e-01  0.000000e+00
     vertex -1.880000e+00 -7.700000e-01  0.000000e+00
     vertex -1.880000e+00 -7.700000e-01  1.000000e-01
   endloop
 endfacet
 facet normal  0.000000e+00 -1.000000e+00  0.000000e+00
   outer loop
     vertex -2.520000e+00 -7.700000e-01  1.000000e-01
     vertex -2.520000e+00 -7.700000e-01  0.000000e+00
     vertex -1.880000e+00 -7.700000e-01  1.000000e-01
   endloop
 endfacet
 facet normal  0.000000e+00  1.000000e+00  0.000000e+00
   outer loop
     vertex -1.880000e+00  7.700000e-01  1.000000e-01
     vertex -1.880000e+00  7.700000e-01  0.000000e+00
     vertex -2.520000e+00  7.700000e-01  0.000000e+00
   endloop
 endfacet
 facet normal  0.000000e+00  1.000000e+00 -0.000000e+00
   outer loop
     vertex -1.880000e+00  7.700000e-01  1.000000e-01
     vertex -2.520000e+00  7.700000e-01  0.000000e+00
     vertex -2.520000e+00  7.700000e-01  1.000000e-01
   endloop
 endfacet
 facet normal  0.000000e+00  0.000000e+00 -1.000000e+00
   outer loop
     vertex -2.520000e+00 -7.700000e-01  0.000000e+00
     vertex -2.520000e+00  7.700000e-01  0.000000e+00
     vertex -1.880000e+00  7.700000e-01  0.000000e+00
   endloop
 endfacet
 facet normal  0.000000e+00  0.000000e+00 -1.000000e+00
   outer loop
     vertex -1.880000e+00 -7.700000e-01  0.000000e+00
     vertex -2.520000e+00 -7.700000e-01  0.000000e+00
     vertex -1.880000e+00  7.700000e-01  0.000000e+00
   endloop
 endfacet
 facet normal  0.000000e+00  0.000000e+00  1.000000e+00
   outer loop
     vertex -1.880000e+00  7.700000e-01  1.000000e-01
     vertex -2.520000e+00  7.700000e-01  1.000000e-01
     vertex -2.520000e+00 -7.700000e-01  1.000000e-01
   endloop
 endfacet
 facet normal -0.000000e+00  0.000000e+00  1.000000e+00
   outer loop
     vertex -1.880000e+00  7.700000e-01  1.000000e-01
     vertex -2.520000e+00 -7.700000e-01  1.000000e-01
     vertex -1.880000e+00 -7.700000e-01  1.000000e-01
   endloop
 endfacet
endsolid
